<?xml version="1.0" encoding="utf-8" standalone="no"?>
<!DOCTYPE svg PUBLIC "-//W3C//DTD SVG 1.1//EN"
  "http://www.w3.org/Graphics/SVG/1.1/DTD/svg11.dtd">
<!-- Created with matplotlib (http://matplotlib.org/) -->
<svg height="866pt" version="1.1" viewBox="0 0 1728 866" width="1728pt" xmlns="http://www.w3.org/2000/svg" xmlns:xlink="http://www.w3.org/1999/xlink">
 <defs>
  <style type="text/css">
*{stroke-linecap:butt;stroke-linejoin:round;stroke-miterlimit:100000;}
  </style>
 </defs>
 <g id="figure_1">
  <g id="patch_1">
   <path d="M 0 866.7 
L 1728 866.7 
L 1728 0 
L 0 0 
z
" style="fill:#ffffff;"/>
  </g>
  <g id="axes_1">
   <g id="patch_2">
    <path d="M 216 780.03 
L 1555.2 780.03 
L 1555.2 86.67 
L 216 86.67 
z
" style="fill:#ffffff;"/>
   </g>
   <g id="matplotlib.axis_1">
    <g id="xtick_1">
     <g id="line2d_1">
      <defs>
       <path d="M 0 0 
L 0 6 
" id="mf85ec1f89c" style="stroke:#262626;stroke-width:1.6;"/>
      </defs>
      <g>
       <use style="fill:none;stroke:#262626;stroke-width:1.6;" x="216.0" xlink:href="#mf85ec1f89c" y="780.03"/>
      </g>
     </g>
     <g id="text_1">
      <text style="fill:#262626;font-family:Arial;font-size:16.0px;font-style:normal;font-weight:400;text-anchor:middle;" transform="rotate(-0.000000, 216.000000, 808.682500)" x="216.0" y="808.6825">2</text>
     </g>
    </g>
    <g id="xtick_2">
     <g id="line2d_2">
      <g>
       <use style="fill:none;stroke:#262626;stroke-width:1.6;" x="383.4" xlink:href="#mf85ec1f89c" y="780.03"/>
      </g>
     </g>
     <g id="text_2">
      <text style="fill:#262626;font-family:Arial;font-size:16.0px;font-style:normal;font-weight:400;text-anchor:middle;" transform="rotate(-0.000000, 383.400000, 808.682500)" x="383.4" y="808.6825">3</text>
     </g>
    </g>
    <g id="xtick_3">
     <g id="line2d_3">
      <g>
       <use style="fill:none;stroke:#262626;stroke-width:1.6;" x="550.8" xlink:href="#mf85ec1f89c" y="780.03"/>
      </g>
     </g>
     <g id="text_3">
      <text style="fill:#262626;font-family:Arial;font-size:16.0px;font-style:normal;font-weight:400;text-anchor:middle;" transform="rotate(-0.000000, 550.800000, 808.682500)" x="550.8" y="808.6825">4</text>
     </g>
    </g>
    <g id="xtick_4">
     <g id="line2d_4">
      <g>
       <use style="fill:none;stroke:#262626;stroke-width:1.6;" x="718.2" xlink:href="#mf85ec1f89c" y="780.03"/>
      </g>
     </g>
     <g id="text_4">
      <text style="fill:#262626;font-family:Arial;font-size:16.0px;font-style:normal;font-weight:400;text-anchor:middle;" transform="rotate(-0.000000, 718.200000, 808.682500)" x="718.2" y="808.6825">5</text>
     </g>
    </g>
    <g id="xtick_5">
     <g id="line2d_5">
      <g>
       <use style="fill:none;stroke:#262626;stroke-width:1.6;" x="885.6" xlink:href="#mf85ec1f89c" y="780.03"/>
      </g>
     </g>
     <g id="text_5">
      <text style="fill:#262626;font-family:Arial;font-size:16.0px;font-style:normal;font-weight:400;text-anchor:middle;" transform="rotate(-0.000000, 885.600000, 808.682500)" x="885.6" y="808.6825">6</text>
     </g>
    </g>
    <g id="xtick_6">
     <g id="line2d_6">
      <g>
       <use style="fill:none;stroke:#262626;stroke-width:1.6;" x="1053.0" xlink:href="#mf85ec1f89c" y="780.03"/>
      </g>
     </g>
     <g id="text_6">
      <text style="fill:#262626;font-family:Arial;font-size:16.0px;font-style:normal;font-weight:400;text-anchor:middle;" transform="rotate(-0.000000, 1053.000000, 808.682500)" x="1053.0" y="808.6825">7</text>
     </g>
    </g>
    <g id="xtick_7">
     <g id="line2d_7">
      <g>
       <use style="fill:none;stroke:#262626;stroke-width:1.6;" x="1220.4" xlink:href="#mf85ec1f89c" y="780.03"/>
      </g>
     </g>
     <g id="text_7">
      <text style="fill:#262626;font-family:Arial;font-size:16.0px;font-style:normal;font-weight:400;text-anchor:middle;" transform="rotate(-0.000000, 1220.400000, 808.682500)" x="1220.4" y="808.6825">8</text>
     </g>
    </g>
    <g id="xtick_8">
     <g id="line2d_8">
      <g>
       <use style="fill:none;stroke:#262626;stroke-width:1.6;" x="1387.8" xlink:href="#mf85ec1f89c" y="780.03"/>
      </g>
     </g>
     <g id="text_8">
      <text style="fill:#262626;font-family:Arial;font-size:16.0px;font-style:normal;font-weight:400;text-anchor:middle;" transform="rotate(-0.000000, 1387.800000, 808.682500)" x="1387.8" y="808.6825">9</text>
     </g>
    </g>
    <g id="xtick_9">
     <g id="line2d_9">
      <g>
       <use style="fill:none;stroke:#262626;stroke-width:1.6;" x="1555.2" xlink:href="#mf85ec1f89c" y="780.03"/>
      </g>
     </g>
     <g id="text_9">
      <text style="fill:#262626;font-family:Arial;font-size:16.0px;font-style:normal;font-weight:400;text-anchor:middle;" transform="rotate(-0.000000, 1555.200000, 808.682500)" x="1555.2" y="808.6825">10</text>
     </g>
    </g>
    <g id="text_10">
     <text style="fill:#262626;font-family:Arial;font-size:17.6px;font-style:normal;font-weight:400;text-anchor:middle;" transform="rotate(-0.000000, 885.600000, 829.460250)" x="885.6" y="829.46025">pH</text>
    </g>
   </g>
   <g id="matplotlib.axis_2">
    <g id="ytick_1">
     <g id="line2d_10">
      <defs>
       <path d="M 0 0 
L -6 0 
" id="ma7b6f70c7f" style="stroke:#262626;stroke-width:1.6;"/>
      </defs>
      <g>
       <use style="fill:none;stroke:#262626;stroke-width:1.6;" x="216.0" xlink:href="#ma7b6f70c7f" y="773.165049505"/>
      </g>
     </g>
     <g id="text_11">
      <text style="fill:#262626;font-family:Arial;font-size:16.0px;font-style:normal;font-weight:400;text-anchor:end;" transform="rotate(-0.000000, 198.800000, 777.301300)" x="198.8" y="777.301299505">0.0</text>
     </g>
    </g>
    <g id="ytick_2">
     <g id="line2d_11">
      <g>
       <use style="fill:none;stroke:#262626;stroke-width:1.6;" x="216.0" xlink:href="#ma7b6f70c7f" y="635.866039604"/>
      </g>
     </g>
     <g id="text_12">
      <text style="fill:#262626;font-family:Arial;font-size:16.0px;font-style:normal;font-weight:400;text-anchor:end;" transform="rotate(-0.000000, 198.800000, 640.002290)" x="198.8" y="640.002289604">0.2</text>
     </g>
    </g>
    <g id="ytick_3">
     <g id="line2d_12">
      <g>
       <use style="fill:none;stroke:#262626;stroke-width:1.6;" x="216.0" xlink:href="#ma7b6f70c7f" y="498.567029703"/>
      </g>
     </g>
     <g id="text_13">
      <text style="fill:#262626;font-family:Arial;font-size:16.0px;font-style:normal;font-weight:400;text-anchor:end;" transform="rotate(-0.000000, 198.800000, 502.703280)" x="198.8" y="502.703279703">0.4</text>
     </g>
    </g>
    <g id="ytick_4">
     <g id="line2d_13">
      <g>
       <use style="fill:none;stroke:#262626;stroke-width:1.6;" x="216.0" xlink:href="#ma7b6f70c7f" y="361.268019802"/>
      </g>
     </g>
     <g id="text_14">
      <text style="fill:#262626;font-family:Arial;font-size:16.0px;font-style:normal;font-weight:400;text-anchor:end;" transform="rotate(-0.000000, 198.800000, 365.404270)" x="198.8" y="365.404269802">0.6</text>
     </g>
    </g>
    <g id="ytick_5">
     <g id="line2d_14">
      <g>
       <use style="fill:none;stroke:#262626;stroke-width:1.6;" x="216.0" xlink:href="#ma7b6f70c7f" y="223.969009901"/>
      </g>
     </g>
     <g id="text_15">
      <text style="fill:#262626;font-family:Arial;font-size:16.0px;font-style:normal;font-weight:400;text-anchor:end;" transform="rotate(-0.000000, 198.800000, 228.105260)" x="198.8" y="228.105259901">0.8</text>
     </g>
    </g>
    <g id="ytick_6">
     <g id="text_16">
      <text style="fill:#262626;font-family:Arial;font-size:16.0px;font-style:normal;font-weight:400;text-anchor:end;" transform="rotate(-0.000000, 198.800000, 90.806250)" x="198.8" y="90.80625">1.0</text>
     </g>
    </g>
    <g id="text_17">
     <text style="fill:#262626;font-family:Arial;font-size:17.6px;font-style:normal;font-weight:400;text-anchor:middle;" transform="rotate(-90.000000, 168.062000, 433.350000)" x="168.062" y="433.35">Fraction Sorbed</text>
    </g>
   </g>
   <g id="LineCollection_1">
    <path clip-path="url(#p199c230c04)" d="M 383.4 997.592621 
" style="fill:none;stroke:#000000;"/>
    <path clip-path="url(#p199c230c04)" d="M 718.2 885.598457 
" style="fill:none;stroke:#000000;"/>
    <path clip-path="url(#p199c230c04)" d="M 1050.917516 731.192402 
L 1052.850484 731.192402 
" style="fill:none;stroke:#000000;"/>
   </g>
   <g id="LineCollection_2">
    <path clip-path="url(#p199c230c04)" d="M 383.4 1032.548326 
" style="fill:none;stroke:#000000;"/>
    <path clip-path="url(#p199c230c04)" d="M 718.2 920.539193 
M 718.2 867.7 
L 718.2 850.657721 
" style="fill:none;stroke:#000000;"/>
    <path clip-path="url(#p199c230c04)" d="M 1051.884 755.799507 
L 1051.884 706.585297 
" style="fill:none;stroke:#000000;"/>
   </g>
   <g id="LineCollection_3">
    <path clip-path="url(#p199c230c04)" d="M 383.4 818.513617 
L 383.4 818.513617 
" style="fill:none;stroke:#000000;"/>
    <path clip-path="url(#p199c230c04)" d="M 718.2 734.004164 
L 721.548 734.004164 
" style="fill:none;stroke:#000000;"/>
    <path clip-path="url(#p199c230c04)" d="M 1049.652 647.61728 
L 1056.348 647.61728 
" style="fill:none;stroke:#000000;"/>
    <path clip-path="url(#p199c230c04)" d="M 1383.226547 167.291126 
L 1389.025453 167.291126 
" style="fill:none;stroke:#000000;"/>
   </g>
   <g id="LineCollection_4">
    <path clip-path="url(#p199c230c04)" d="M 383.4 846.044315 
L 383.4 790.982919 
" style="fill:none;stroke:#000000;"/>
    <path clip-path="url(#p199c230c04)" d="M 719.874 780.372538 
L 719.874 687.635791 
" style="fill:none;stroke:#000000;"/>
    <path clip-path="url(#p199c230c04)" d="M 1053 680.749127 
L 1053 614.485434 
" style="fill:none;stroke:#000000;"/>
    <path clip-path="url(#p199c230c04)" d="M 1386.126 175.78999 
L 1386.126 158.792262 
" style="fill:none;stroke:#000000;"/>
   </g>
   <g id="LineCollection_5">
    <path clip-path="url(#p199c230c04)" d="M 383.4 812.194392 
L 383.4 812.194392 
" style="fill:none;stroke:#000000;"/>
    <path clip-path="url(#p199c230c04)" d="M 716.983867 771.754611 
L 719.416133 771.754611 
" style="fill:none;stroke:#000000;"/>
    <path clip-path="url(#p199c230c04)" d="M 1051.686411 681.491314 
L 1055.429589 681.491314 
" style="fill:none;stroke:#000000;"/>
    <path clip-path="url(#p199c230c04)" d="M 1385.367734 179.346551 
L 1390.232266 179.346551 
" style="fill:none;stroke:#000000;"/>
   </g>
   <g id="LineCollection_6">
    <path clip-path="url(#p199c230c04)" d="M 383.4 849.796889 
L 383.4 774.591894 
" style="fill:none;stroke:#000000;"/>
    <path clip-path="url(#p199c230c04)" d="M 718.2 785.089047 
L 718.2 758.420174 
" style="fill:none;stroke:#000000;"/>
    <path clip-path="url(#p199c230c04)" d="M 1053.558 721.84031 
L 1053.558 641.142317 
" style="fill:none;stroke:#000000;"/>
    <path clip-path="url(#p199c230c04)" d="M 1387.8 193.72088 
L 1387.8 164.972223 
" style="fill:none;stroke:#000000;"/>
   </g>
   <g id="LineCollection_7">
    <path clip-path="url(#p199c230c04)" d="M 382.991516 794.278281 
L 384.924484 794.278281 
" style="fill:none;stroke:#000000;"/>
    <path clip-path="url(#p199c230c04)" d="M 718.349516 709.790189 
L 720.282484 709.790189 
" style="fill:none;stroke:#000000;"/>
    <path clip-path="url(#p199c230c04)" d="M 1050.917516 651.402402 
L 1052.850484 651.402402 
" style="fill:none;stroke:#000000;"/>
    <path clip-path="url(#p199c230c04)" d="M 1386.983031 227.572017 
L 1390.848969 227.572017 
" style="fill:none;stroke:#000000;"/>
   </g>
   <g id="LineCollection_8">
    <path clip-path="url(#p199c230c04)" d="M 383.958 810.474444 
L 383.958 778.082118 
" style="fill:none;stroke:#000000;"/>
    <path clip-path="url(#p199c230c04)" d="M 719.316 755.533592 
L 719.316 664.046787 
" style="fill:none;stroke:#000000;"/>
    <path clip-path="url(#p199c230c04)" d="M 1051.884 668.724351 
L 1051.884 634.080452 
" style="fill:none;stroke:#000000;"/>
    <path clip-path="url(#p199c230c04)" d="M 1388.916 249.352581 
L 1388.916 205.791453 
" style="fill:none;stroke:#000000;"/>
   </g>
   <g id="LineCollection_9">
    <path clip-path="url(#p199c230c04)" d="M 383.4 795.188438 
L 383.4 795.188438 
" style="fill:none;stroke:#000000;"/>
    <path clip-path="url(#p199c230c04)" d="M 717.383031 721.5939 
L 721.248969 721.5939 
" style="fill:none;stroke:#000000;"/>
    <path clip-path="url(#p199c230c04)" d="M 1052.591516 674.441831 
L 1054.524484 674.441831 
" style="fill:none;stroke:#000000;"/>
    <path clip-path="url(#p199c230c04)" d="M 1387.391516 229.10383 
L 1389.324484 229.10383 
" style="fill:none;stroke:#000000;"/>
   </g>
   <g id="LineCollection_10">
    <path clip-path="url(#p199c230c04)" d="M 383.4 805.151753 
L 383.4 785.225124 
" style="fill:none;stroke:#000000;"/>
    <path clip-path="url(#p199c230c04)" d="M 719.316 733.547822 
L 719.316 709.639978 
" style="fill:none;stroke:#000000;"/>
    <path clip-path="url(#p199c230c04)" d="M 1053.558 688.891004 
L 1053.558 659.992658 
" style="fill:none;stroke:#000000;"/>
    <path clip-path="url(#p199c230c04)" d="M 1388.358 237.431016 
L 1388.358 220.776644 
" style="fill:none;stroke:#000000;"/>
   </g>
   <g id="line2d_15">
    <path clip-path="url(#p199c230c04)" d="M 216 773.165048 
L 232.74 773.165042 
L 232.74 773.165042 
L 232.74 773.165042 
L 249.48 773.165037 
L 249.48 773.165037 
L 249.48 773.165037 
L 266.22 773.165031 
L 266.22 773.165031 
L 266.22 773.165031 
L 282.96 773.165025 
L 282.96 773.165025 
L 282.96 773.165025 
L 299.7 773.165016 
L 299.7 773.165016 
L 299.7 773.165016 
L 316.44 773.165006 
L 316.44 773.165006 
L 316.44 773.165006 
L 333.18 773.164992 
L 333.18 773.164992 
L 333.18 773.164992 
L 349.92 773.164973 
L 349.92 773.164973 
L 349.92 773.164973 
L 366.66 773.164947 
L 366.66 773.164947 
L 366.66 773.164947 
L 383.4 773.164913 
L 383.4 773.164913 
L 383.4 773.164913 
L 400.14 773.164867 
L 400.14 773.164867 
L 400.14 773.164867 
L 416.88 773.164804 
L 416.88 773.164804 
L 416.88 773.164804 
L 433.62 773.164719 
L 433.62 773.164719 
L 433.62 773.164719 
L 450.36 773.164603 
L 450.36 773.164603 
L 450.36 773.164603 
L 467.1 773.164446 
L 467.1 773.164446 
L 467.1 773.164446 
L 483.84 773.164234 
L 483.84 773.164234 
L 483.84 773.164234 
L 500.58 773.163946 
L 500.58 773.163946 
L 500.58 773.163946 
L 517.32 773.163555 
L 517.32 773.163555 
L 517.32 773.163555 
L 534.06 773.163025 
L 534.06 773.163025 
L 534.06 773.163025 
L 550.8 773.162305 
L 550.8 773.162305 
L 550.8 773.162305 
L 567.54 773.161329 
L 567.54 773.161329 
L 567.54 773.161329 
L 584.28 773.160004 
L 584.28 773.160004 
L 584.28 773.160004 
L 601.02 773.158206 
L 601.02 773.158206 
L 601.02 773.158206 
L 617.76 773.155766 
L 617.76 773.155766 
L 617.76 773.155766 
L 634.5 773.152456 
L 634.5 773.152456 
L 634.5 773.152456 
L 651.24 773.147967 
L 651.24 773.147967 
L 651.24 773.147967 
L 667.98 773.141879 
L 667.98 773.141879 
L 667.98 773.141879 
L 684.72 773.133625 
L 684.72 773.133625 
L 684.72 773.133625 
L 701.46 773.122439 
L 701.46 773.122439 
L 701.46 773.122439 
L 718.2 773.107284 
L 718.2 773.107284 
L 718.2 773.107284 
L 734.94 773.086761 
L 734.94 773.086761 
L 734.94 773.086761 
L 751.68 773.058986 
L 751.68 773.058986 
L 751.68 773.058986 
L 768.42 773.021418 
L 768.42 773.021418 
L 768.42 773.021418 
L 785.16 772.970642 
L 785.16 772.970642 
L 785.16 772.970642 
L 801.9 772.902073 
L 801.9 772.902073 
L 801.9 772.902073 
L 818.64 772.809567 
L 818.64 772.809567 
L 818.64 772.809567 
L 835.38 772.68491 
L 835.38 772.68491 
L 835.38 772.68491 
L 852.12 772.51715 
L 852.12 772.51715 
L 852.12 772.51715 
L 868.86 772.291723 
L 868.86 772.291723 
L 868.86 772.291723 
L 885.6 771.989329 
L 885.6 771.989329 
L 885.6 771.989329 
L 902.34 771.584486 
L 902.34 771.584486 
L 902.34 771.584486 
L 919.08 771.043697 
L 919.08 771.043697 
L 919.08 771.043697 
L 935.82 770.323133 
L 935.82 770.323133 
L 935.82 770.323133 
L 952.56 769.365755 
L 952.56 769.365755 
L 952.56 769.365755 
L 969.3 768.097776 
L 969.3 768.097776 
L 969.3 768.097776 
L 986.04 766.424364 
L 986.04 766.424364 
L 986.04 766.424364 
L 1002.78 764.224534 
L 1002.78 764.224534 
L 1002.78 764.224534 
L 1019.52 761.34518 
L 1019.52 761.34518 
L 1019.52 761.34518 
L 1036.26 757.594303 
L 1036.26 757.594303 
L 1036.26 757.594303 
L 1053 752.733644 
L 1053 752.733644 
L 1053 752.733644 
L 1069.74 746.471158 
L 1069.74 746.471158 
L 1069.74 746.471158 
L 1086.48 738.454301 
L 1086.48 738.454301 
L 1086.48 738.454301 
L 1103.22 728.265806 
L 1103.22 728.265806 
L 1103.22 728.265806 
L 1119.96 715.424841 
L 1119.96 715.424841 
L 1119.96 715.424841 
L 1136.7 699.398008 
L 1136.7 699.398008 
L 1136.7 699.398008 
L 1153.44 679.62631 
L 1153.44 679.62631 
L 1153.44 679.62631 
L 1170.18 655.575234 
L 1170.18 655.575234 
L 1170.18 655.575234 
L 1186.92 626.813563 
L 1186.92 626.813563 
L 1186.92 626.813563 
L 1203.66 593.120981 
L 1203.66 593.120981 
L 1203.66 593.120981 
L 1220.4 554.611658 
L 1220.4 554.611658 
L 1220.4 554.611658 
L 1237.14 511.844436 
L 1237.14 511.844436 
L 1237.14 511.844436 
L 1253.88 465.875277 
L 1253.88 465.875277 
L 1253.88 465.875277 
L 1270.62 418.208403 
L 1270.62 418.208403 
L 1270.62 418.208403 
L 1287.36 370.629062 
L 1287.36 370.629062 
L 1287.36 370.629062 
L 1304.1 324.948016 
L 1304.1 324.948016 
L 1304.1 324.948016 
L 1320.84 282.73095 
L 1320.84 282.73095 
L 1320.84 282.73095 
L 1337.58 245.095634 
L 1337.58 245.095634 
L 1337.58 245.095634 
L 1354.32 212.628145 
L 1354.32 212.628145 
L 1354.32 212.628145 
L 1371.06 185.418094 
L 1371.06 185.418094 
L 1371.06 185.418094 
L 1387.8 163.17309 
L 1387.8 163.17309 
L 1387.8 163.17309 
L 1404.54 145.360858 
L 1404.54 145.360858 
L 1404.54 145.360858 
L 1421.28 131.338862 
L 1421.28 131.338862 
L 1421.28 131.338862 
L 1438.02 120.45116 
L 1454.76 112.0891 
L 1454.76 112.0891 
L 1471.5 105.721892 
L 1471.5 105.721892 
L 1488.24 100.906149 
L 1488.24 100.906149 
L 1504.98 97.28277 
L 1504.98 97.28277 
L 1521.72 94.567438 
L 1521.72 94.567438 
L 1538.46 92.538816 
L 1538.46 92.538816 
L 1555.2 91.026758 
L 1555.2 91.026758 
" style="fill:none;stroke:#000000;stroke-linecap:round;"/>
   </g>
   <g id="line2d_16">
    <defs>
     <path d="M 0 5 
L 0 -5 
" id="mc6b707f319" style="stroke:#000000;stroke-width:2.0;"/>
    </defs>
    <g clip-path="url(#p199c230c04)">
     <use style="fill:none;stroke:#000000;stroke-width:2.0;" x="383.4" xlink:href="#mc6b707f319" y="997.592620699"/>
     <use style="fill:none;stroke:#000000;stroke-width:2.0;" x="718.2" xlink:href="#mc6b707f319" y="885.598457247"/>
     <use style="fill:none;stroke:#000000;stroke-width:2.0;" x="1050.91751565" xlink:href="#mc6b707f319" y="731.192401899"/>
    </g>
   </g>
   <g id="line2d_17">
    <g clip-path="url(#p199c230c04)">
     <use style="fill:none;stroke:#000000;stroke-width:2.0;" x="383.4" xlink:href="#mc6b707f319" y="997.592620699"/>
     <use style="fill:none;stroke:#000000;stroke-width:2.0;" x="718.2" xlink:href="#mc6b707f319" y="885.598457247"/>
     <use style="fill:none;stroke:#000000;stroke-width:2.0;" x="1052.85048435" xlink:href="#mc6b707f319" y="731.192401899"/>
    </g>
   </g>
   <g id="line2d_18">
    <defs>
     <path d="M 5 0 
L -5 -0 
" id="m2e94e1b5b7" style="stroke:#000000;stroke-width:2.0;"/>
    </defs>
    <g clip-path="url(#p199c230c04)">
     <use style="fill:none;stroke:#000000;stroke-width:2.0;" x="383.4" xlink:href="#m2e94e1b5b7" y="1032.54832629"/>
     <use style="fill:none;stroke:#000000;stroke-width:2.0;" x="718.2" xlink:href="#m2e94e1b5b7" y="920.539193464"/>
     <use style="fill:none;stroke:#000000;stroke-width:2.0;" x="1051.884" xlink:href="#m2e94e1b5b7" y="755.799507259"/>
    </g>
   </g>
   <g id="line2d_19">
    <g clip-path="url(#p199c230c04)">
     <use style="fill:none;stroke:#000000;stroke-width:2.0;" x="383.4" xlink:href="#m2e94e1b5b7" y="962.63691511"/>
     <use style="fill:none;stroke:#000000;stroke-width:2.0;" x="718.2" xlink:href="#m2e94e1b5b7" y="850.65772103"/>
     <use style="fill:none;stroke:#000000;stroke-width:2.0;" x="1051.884" xlink:href="#m2e94e1b5b7" y="706.58529654"/>
    </g>
   </g>
   <g id="line2d_20">
    <defs>
     <path d="M -0 14.142136 
L 8.485281 0 
L -0 -14.142136 
L -8.485281 -0 
z
" id="m1f7819808b" style="stroke:#000000;stroke-linejoin:miter;stroke-width:2.0;"/>
    </defs>
    <g clip-path="url(#p199c230c04)">
     <use style="fill:none;stroke:#000000;stroke-linejoin:miter;stroke-width:2.0;" x="383.4" xlink:href="#m1f7819808b" y="997.592620699"/>
     <use style="fill:none;stroke:#000000;stroke-linejoin:miter;stroke-width:2.0;" x="718.2" xlink:href="#m1f7819808b" y="885.598457247"/>
     <use style="fill:none;stroke:#000000;stroke-linejoin:miter;stroke-width:2.0;" x="1051.884" xlink:href="#m1f7819808b" y="731.192401899"/>
    </g>
   </g>
   <g id="line2d_21">
    <g clip-path="url(#p199c230c04)">
     <use style="fill:none;stroke:#000000;stroke-width:2.0;" x="383.4" xlink:href="#mc6b707f319" y="818.51361711"/>
     <use style="fill:none;stroke:#000000;stroke-width:2.0;" x="718.2" xlink:href="#mc6b707f319" y="734.004164476"/>
     <use style="fill:none;stroke:#000000;stroke-width:2.0;" x="1049.652" xlink:href="#mc6b707f319" y="647.617280281"/>
     <use style="fill:none;stroke:#000000;stroke-width:2.0;" x="1383.22654695" xlink:href="#mc6b707f319" y="167.291126161"/>
    </g>
   </g>
   <g id="line2d_22">
    <g clip-path="url(#p199c230c04)">
     <use style="fill:none;stroke:#000000;stroke-width:2.0;" x="383.4" xlink:href="#mc6b707f319" y="818.51361711"/>
     <use style="fill:none;stroke:#000000;stroke-width:2.0;" x="721.548" xlink:href="#mc6b707f319" y="734.004164476"/>
     <use style="fill:none;stroke:#000000;stroke-width:2.0;" x="1056.348" xlink:href="#mc6b707f319" y="647.617280281"/>
     <use style="fill:none;stroke:#000000;stroke-width:2.0;" x="1389.02545305" xlink:href="#mc6b707f319" y="167.291126161"/>
    </g>
   </g>
   <g id="line2d_23">
    <g clip-path="url(#p199c230c04)">
     <use style="fill:none;stroke:#000000;stroke-width:2.0;" x="383.4" xlink:href="#m2e94e1b5b7" y="846.044314935"/>
     <use style="fill:none;stroke:#000000;stroke-width:2.0;" x="719.874" xlink:href="#m2e94e1b5b7" y="780.3725375"/>
     <use style="fill:none;stroke:#000000;stroke-width:2.0;" x="1053.0" xlink:href="#m2e94e1b5b7" y="680.749126917"/>
     <use style="fill:none;stroke:#000000;stroke-width:2.0;" x="1386.126" xlink:href="#m2e94e1b5b7" y="175.789990021"/>
    </g>
   </g>
   <g id="line2d_24">
    <g clip-path="url(#p199c230c04)">
     <use style="fill:none;stroke:#000000;stroke-width:2.0;" x="383.4" xlink:href="#m2e94e1b5b7" y="790.982919285"/>
     <use style="fill:none;stroke:#000000;stroke-width:2.0;" x="719.874" xlink:href="#m2e94e1b5b7" y="687.635791452"/>
     <use style="fill:none;stroke:#000000;stroke-width:2.0;" x="1053.0" xlink:href="#m2e94e1b5b7" y="614.485433646"/>
     <use style="fill:none;stroke:#000000;stroke-width:2.0;" x="1386.126" xlink:href="#m2e94e1b5b7" y="158.792262302"/>
    </g>
   </g>
   <g id="line2d_25">
    <defs>
     <path d="M 0 -10 
L -9.510565 -3.09017 
L -5.877853 8.09017 
L 5.877853 8.09017 
L 9.510565 -3.09017 
z
" id="mf4475be836" style="stroke:#000000;stroke-linejoin:miter;stroke-width:2.0;"/>
    </defs>
    <g clip-path="url(#p199c230c04)">
     <use style="fill:none;stroke:#000000;stroke-linejoin:miter;stroke-width:2.0;" x="383.4" xlink:href="#mf4475be836" y="818.51361711"/>
     <use style="fill:none;stroke:#000000;stroke-linejoin:miter;stroke-width:2.0;" x="719.874" xlink:href="#mf4475be836" y="734.004164476"/>
     <use style="fill:none;stroke:#000000;stroke-linejoin:miter;stroke-width:2.0;" x="1053.0" xlink:href="#mf4475be836" y="647.617280281"/>
     <use style="fill:none;stroke:#000000;stroke-linejoin:miter;stroke-width:2.0;" x="1386.126" xlink:href="#mf4475be836" y="167.291126161"/>
    </g>
   </g>
   <g id="line2d_26">
    <g clip-path="url(#p199c230c04)">
     <use style="fill:none;stroke:#000000;stroke-width:2.0;" x="383.4" xlink:href="#mc6b707f319" y="812.194391506"/>
     <use style="fill:none;stroke:#000000;stroke-width:2.0;" x="716.983867195" xlink:href="#mc6b707f319" y="771.754610757"/>
     <use style="fill:none;stroke:#000000;stroke-width:2.0;" x="1051.6864111" xlink:href="#mc6b707f319" y="681.491313611"/>
     <use style="fill:none;stroke:#000000;stroke-width:2.0;" x="1385.36773439" xlink:href="#mc6b707f319" y="179.346551145"/>
    </g>
   </g>
   <g id="line2d_27">
    <g clip-path="url(#p199c230c04)">
     <use style="fill:none;stroke:#000000;stroke-width:2.0;" x="383.4" xlink:href="#mc6b707f319" y="812.194391506"/>
     <use style="fill:none;stroke:#000000;stroke-width:2.0;" x="719.416132805" xlink:href="#mc6b707f319" y="771.754610757"/>
     <use style="fill:none;stroke:#000000;stroke-width:2.0;" x="1055.4295889" xlink:href="#mc6b707f319" y="681.491313611"/>
     <use style="fill:none;stroke:#000000;stroke-width:2.0;" x="1390.23226561" xlink:href="#mc6b707f319" y="179.346551145"/>
    </g>
   </g>
   <g id="line2d_28">
    <g clip-path="url(#p199c230c04)">
     <use style="fill:none;stroke:#000000;stroke-width:2.0;" x="383.4" xlink:href="#m2e94e1b5b7" y="849.796889185"/>
     <use style="fill:none;stroke:#000000;stroke-width:2.0;" x="718.2" xlink:href="#m2e94e1b5b7" y="785.089047211"/>
     <use style="fill:none;stroke:#000000;stroke-width:2.0;" x="1053.558" xlink:href="#m2e94e1b5b7" y="721.840310212"/>
     <use style="fill:none;stroke:#000000;stroke-width:2.0;" x="1387.8" xlink:href="#m2e94e1b5b7" y="193.720879566"/>
    </g>
   </g>
   <g id="line2d_29">
    <g clip-path="url(#p199c230c04)">
     <use style="fill:none;stroke:#000000;stroke-width:2.0;" x="383.4" xlink:href="#m2e94e1b5b7" y="774.591893827"/>
     <use style="fill:none;stroke:#000000;stroke-width:2.0;" x="718.2" xlink:href="#m2e94e1b5b7" y="758.420174303"/>
     <use style="fill:none;stroke:#000000;stroke-width:2.0;" x="1053.558" xlink:href="#m2e94e1b5b7" y="641.142317011"/>
     <use style="fill:none;stroke:#000000;stroke-width:2.0;" x="1387.8" xlink:href="#m2e94e1b5b7" y="164.972222724"/>
    </g>
   </g>
   <g id="line2d_30">
    <defs>
     <path d="M -10 10 
L 10 10 
L 10 -10 
L -10 -10 
z
" id="m9119faf352" style="stroke:#000000;stroke-linejoin:miter;stroke-width:2.0;"/>
    </defs>
    <g clip-path="url(#p199c230c04)">
     <use style="fill:none;stroke:#000000;stroke-linejoin:miter;stroke-width:2.0;" x="383.4" xlink:href="#m9119faf352" y="812.194391506"/>
     <use style="fill:none;stroke:#000000;stroke-linejoin:miter;stroke-width:2.0;" x="718.2" xlink:href="#m9119faf352" y="771.754610757"/>
     <use style="fill:none;stroke:#000000;stroke-linejoin:miter;stroke-width:2.0;" x="1053.558" xlink:href="#m9119faf352" y="681.491313611"/>
     <use style="fill:none;stroke:#000000;stroke-linejoin:miter;stroke-width:2.0;" x="1387.8" xlink:href="#m9119faf352" y="179.346551145"/>
    </g>
   </g>
   <g id="line2d_31">
    <g clip-path="url(#p199c230c04)">
     <use style="fill:none;stroke:#000000;stroke-width:2.0;" x="382.991515649" xlink:href="#mc6b707f319" y="794.27828094"/>
     <use style="fill:none;stroke:#000000;stroke-width:2.0;" x="718.349515649" xlink:href="#mc6b707f319" y="709.790189305"/>
     <use style="fill:none;stroke:#000000;stroke-width:2.0;" x="1050.91751565" xlink:href="#mc6b707f319" y="651.402401545"/>
     <use style="fill:none;stroke:#000000;stroke-width:2.0;" x="1386.9830313" xlink:href="#mc6b707f319" y="227.572017034"/>
    </g>
   </g>
   <g id="line2d_32">
    <g clip-path="url(#p199c230c04)">
     <use style="fill:none;stroke:#000000;stroke-width:2.0;" x="384.924484351" xlink:href="#mc6b707f319" y="794.27828094"/>
     <use style="fill:none;stroke:#000000;stroke-width:2.0;" x="720.282484351" xlink:href="#mc6b707f319" y="709.790189305"/>
     <use style="fill:none;stroke:#000000;stroke-width:2.0;" x="1052.85048435" xlink:href="#mc6b707f319" y="651.402401545"/>
     <use style="fill:none;stroke:#000000;stroke-width:2.0;" x="1390.8489687" xlink:href="#mc6b707f319" y="227.572017034"/>
    </g>
   </g>
   <g id="line2d_33">
    <g clip-path="url(#p199c230c04)">
     <use style="fill:none;stroke:#000000;stroke-width:2.0;" x="383.958" xlink:href="#m2e94e1b5b7" y="810.47444354"/>
     <use style="fill:none;stroke:#000000;stroke-width:2.0;" x="719.316" xlink:href="#m2e94e1b5b7" y="755.533591594"/>
     <use style="fill:none;stroke:#000000;stroke-width:2.0;" x="1051.884" xlink:href="#m2e94e1b5b7" y="668.72435092"/>
     <use style="fill:none;stroke:#000000;stroke-width:2.0;" x="1388.916" xlink:href="#m2e94e1b5b7" y="249.352581266"/>
    </g>
   </g>
   <g id="line2d_34">
    <g clip-path="url(#p199c230c04)">
     <use style="fill:none;stroke:#000000;stroke-width:2.0;" x="383.958" xlink:href="#m2e94e1b5b7" y="778.082118339"/>
     <use style="fill:none;stroke:#000000;stroke-width:2.0;" x="719.316" xlink:href="#m2e94e1b5b7" y="664.046787016"/>
     <use style="fill:none;stroke:#000000;stroke-width:2.0;" x="1051.884" xlink:href="#m2e94e1b5b7" y="634.08045217"/>
     <use style="fill:none;stroke:#000000;stroke-width:2.0;" x="1388.916" xlink:href="#m2e94e1b5b7" y="205.791452801"/>
    </g>
   </g>
   <g id="line2d_35">
    <defs>
     <path d="M 0 -10 
L -10 10 
L 10 10 
z
" id="m0dd09b8efa" style="stroke:#000000;stroke-linejoin:miter;stroke-width:2.0;"/>
    </defs>
    <g clip-path="url(#p199c230c04)">
     <use style="fill:none;stroke:#000000;stroke-linejoin:miter;stroke-width:2.0;" x="383.958" xlink:href="#m0dd09b8efa" y="794.27828094"/>
     <use style="fill:none;stroke:#000000;stroke-linejoin:miter;stroke-width:2.0;" x="719.316" xlink:href="#m0dd09b8efa" y="709.790189305"/>
     <use style="fill:none;stroke:#000000;stroke-linejoin:miter;stroke-width:2.0;" x="1051.884" xlink:href="#m0dd09b8efa" y="651.402401545"/>
     <use style="fill:none;stroke:#000000;stroke-linejoin:miter;stroke-width:2.0;" x="1388.916" xlink:href="#m0dd09b8efa" y="227.572017034"/>
    </g>
   </g>
   <g id="line2d_36">
    <g clip-path="url(#p199c230c04)">
     <use style="fill:none;stroke:#000000;stroke-width:2.0;" x="383.4" xlink:href="#mc6b707f319" y="795.188438491"/>
     <use style="fill:none;stroke:#000000;stroke-width:2.0;" x="717.383031299" xlink:href="#mc6b707f319" y="721.593900114"/>
     <use style="fill:none;stroke:#000000;stroke-width:2.0;" x="1052.59151565" xlink:href="#mc6b707f319" y="674.441830991"/>
     <use style="fill:none;stroke:#000000;stroke-width:2.0;" x="1387.39151565" xlink:href="#mc6b707f319" y="229.103830279"/>
    </g>
   </g>
   <g id="line2d_37">
    <g clip-path="url(#p199c230c04)">
     <use style="fill:none;stroke:#000000;stroke-width:2.0;" x="383.4" xlink:href="#mc6b707f319" y="795.188438491"/>
     <use style="fill:none;stroke:#000000;stroke-width:2.0;" x="721.248968701" xlink:href="#mc6b707f319" y="721.593900114"/>
     <use style="fill:none;stroke:#000000;stroke-width:2.0;" x="1054.52448435" xlink:href="#mc6b707f319" y="674.441830991"/>
     <use style="fill:none;stroke:#000000;stroke-width:2.0;" x="1389.32448435" xlink:href="#mc6b707f319" y="229.103830279"/>
    </g>
   </g>
   <g id="line2d_38">
    <g clip-path="url(#p199c230c04)">
     <use style="fill:none;stroke:#000000;stroke-width:2.0;" x="383.4" xlink:href="#m2e94e1b5b7" y="805.151752938"/>
     <use style="fill:none;stroke:#000000;stroke-width:2.0;" x="719.316" xlink:href="#m2e94e1b5b7" y="733.547822408"/>
     <use style="fill:none;stroke:#000000;stroke-width:2.0;" x="1053.558" xlink:href="#m2e94e1b5b7" y="688.891003763"/>
     <use style="fill:none;stroke:#000000;stroke-width:2.0;" x="1388.358" xlink:href="#m2e94e1b5b7" y="237.431016091"/>
    </g>
   </g>
   <g id="line2d_39">
    <g clip-path="url(#p199c230c04)">
     <use style="fill:none;stroke:#000000;stroke-width:2.0;" x="383.4" xlink:href="#m2e94e1b5b7" y="785.225124044"/>
     <use style="fill:none;stroke:#000000;stroke-width:2.0;" x="719.316" xlink:href="#m2e94e1b5b7" y="709.63997782"/>
     <use style="fill:none;stroke:#000000;stroke-width:2.0;" x="1053.558" xlink:href="#m2e94e1b5b7" y="659.992658218"/>
     <use style="fill:none;stroke:#000000;stroke-width:2.0;" x="1388.358" xlink:href="#m2e94e1b5b7" y="220.776644467"/>
    </g>
   </g>
   <g id="line2d_40">
    <defs>
     <path d="M 0 10 
C 2.652031 10 5.195799 8.946337 7.071068 7.071068 
C 8.946337 5.195799 10 2.652031 10 0 
C 10 -2.652031 8.946337 -5.195799 7.071068 -7.071068 
C 5.195799 -8.946337 2.652031 -10 0 -10 
C -2.652031 -10 -5.195799 -8.946337 -7.071068 -7.071068 
C -8.946337 -5.195799 -10 -2.652031 -10 0 
C -10 2.652031 -8.946337 5.195799 -7.071068 7.071068 
C -5.195799 8.946337 -2.652031 10 0 10 
z
" id="m72b1139d61" style="stroke:#000000;stroke-width:2.0;"/>
    </defs>
    <g clip-path="url(#p199c230c04)">
     <use style="fill:none;stroke:#000000;stroke-width:2.0;" x="383.4" xlink:href="#m72b1139d61" y="795.188438491"/>
     <use style="fill:none;stroke:#000000;stroke-width:2.0;" x="719.316" xlink:href="#m72b1139d61" y="721.593900114"/>
     <use style="fill:none;stroke:#000000;stroke-width:2.0;" x="1053.558" xlink:href="#m72b1139d61" y="674.441830991"/>
     <use style="fill:none;stroke:#000000;stroke-width:2.0;" x="1388.358" xlink:href="#m72b1139d61" y="229.103830279"/>
    </g>
   </g>
   <g id="patch_3">
    <path d="M 216 780.03 
L 1555.2 780.03 
" style="fill:none;stroke:#262626;stroke-linecap:square;stroke-linejoin:miter;stroke-width:1.25;"/>
   </g>
   <g id="patch_4">
    <path d="M 216 780.03 
L 216 86.67 
" style="fill:none;stroke:#262626;stroke-linecap:square;stroke-linejoin:miter;stroke-width:1.25;"/>
   </g>
   <g id="text_18">
    <text style="fill:#262626;font-family:Arial;font-size:19.2px;font-style:normal;font-weight:400;text-anchor:middle;" transform="rotate(-0.000000, 885.600000, 81.670000)" x="885.6" y="81.67">Single Site Model, GOE, Real Surface Area</text>
   </g>
   <g id="legend_1">
    <g id="line2d_41">
     <path d="M 230.4 106.9225 
L 262.4 106.9225 
" style="fill:none;stroke:#000000;stroke-linecap:round;"/>
    </g>
    <g id="line2d_42"/>
    <g id="text_19">
     <text style="fill:#262626;font-family:Arial;font-size:16.0px;font-style:normal;font-weight:400;text-anchor:start;" transform="rotate(-0.000000, 275.200000, 112.522500)" x="275.2" y="112.5225">1 site 1 rxn, K1: 2.3 0.00012 mol</text>
    </g>
    <g id="line2d_43"/>
    <g id="line2d_44">
     <g>
      <use style="fill:none;stroke:#000000;stroke-linejoin:miter;stroke-width:2.0;" x="246.4" xlink:href="#m1f7819808b" y="129.6025"/>
     </g>
    </g>
    <g id="text_20">
     <text style="fill:#262626;font-family:Arial;font-size:16.0px;font-style:normal;font-weight:400;text-anchor:start;" transform="rotate(-0.000000, 275.200000, 135.202500)" x="275.2" y="135.2025">Experimental Data 10 Bq Total</text>
    </g>
    <g id="line2d_45"/>
    <g id="line2d_46">
     <g>
      <use style="fill:none;stroke:#000000;stroke-linejoin:miter;stroke-width:2.0;" x="246.4" xlink:href="#mf4475be836" y="152.2825"/>
     </g>
    </g>
    <g id="text_21">
     <text style="fill:#262626;font-family:Arial;font-size:16.0px;font-style:normal;font-weight:400;text-anchor:start;" transform="rotate(-0.000000, 275.200000, 157.882500)" x="275.2" y="157.8825">Experimental Data 50 Bq Total</text>
    </g>
    <g id="line2d_47"/>
    <g id="line2d_48">
     <g>
      <use style="fill:none;stroke:#000000;stroke-linejoin:miter;stroke-width:2.0;" x="246.4" xlink:href="#m9119faf352" y="174.9625"/>
     </g>
    </g>
    <g id="text_22">
     <text style="fill:#262626;font-family:Arial;font-size:16.0px;font-style:normal;font-weight:400;text-anchor:start;" transform="rotate(-0.000000, 275.200000, 180.562500)" x="275.2" y="180.5625">Experimental Data 100 Bq Total</text>
    </g>
    <g id="line2d_49"/>
    <g id="line2d_50">
     <g>
      <use style="fill:none;stroke:#000000;stroke-linejoin:miter;stroke-width:2.0;" x="246.4" xlink:href="#m0dd09b8efa" y="197.6425"/>
     </g>
    </g>
    <g id="text_23">
     <text style="fill:#262626;font-family:Arial;font-size:16.0px;font-style:normal;font-weight:400;text-anchor:start;" transform="rotate(-0.000000, 275.200000, 203.242500)" x="275.2" y="203.2425">Experimental Data 250 Bq Total</text>
    </g>
    <g id="line2d_51"/>
    <g id="line2d_52">
     <g>
      <use style="fill:none;stroke:#000000;stroke-width:2.0;" x="246.4" xlink:href="#m72b1139d61" y="220.3225"/>
     </g>
    </g>
    <g id="text_24">
     <text style="fill:#262626;font-family:Arial;font-size:16.0px;font-style:normal;font-weight:400;text-anchor:start;" transform="rotate(-0.000000, 275.200000, 225.922500)" x="275.2" y="225.9225">Experimental Data 500 Bq Total</text>
    </g>
   </g>
  </g>
 </g>
 <defs>
  <clipPath id="p199c230c04">
   <rect height="693.36" width="1339.2" x="216.0" y="86.67"/>
  </clipPath>
 </defs>
</svg>
