<?xml version="1.0" encoding="utf-8"?>
<!-- Generator: Adobe Illustrator 19.2.1, SVG Export Plug-In . SVG Version: 6.00 Build 0)  -->
<svg version="1.1" id="Layer_1" xmlns="http://www.w3.org/2000/svg" xmlns:xlink="http://www.w3.org/1999/xlink" x="0px" y="0px"
	 viewBox="0 0 1728 866.7" style="enable-background:new 0 0 1728 866.7;" xml:space="preserve">
<style type="text/css">
	.st0{fill:#FFFFFF;}
	.st1{fill:none;stroke:#262626;stroke-width:1.6;stroke-linejoin:round;stroke-miterlimit:10;}
	.st2{fill:#262626;}
	.st3{font-family:'ArialMT';}
	.st4{font-size:18px;}
	.st5{clip-path:url(#SVGID_2_);fill:none;stroke:#000000;stroke-linejoin:round;stroke-miterlimit:10;}
	.st6{clip-path:url(#SVGID_4_);fill:none;stroke:#000000;stroke-linejoin:round;stroke-miterlimit:10;}
	.st7{clip-path:url(#SVGID_6_);fill:none;stroke:#000000;stroke-linejoin:round;stroke-miterlimit:10;}
	.st8{clip-path:url(#SVGID_8_);fill:none;stroke:#000000;stroke-linejoin:round;stroke-miterlimit:10;}
	.st9{clip-path:url(#SVGID_10_);fill:none;stroke:#000000;stroke-linejoin:round;stroke-miterlimit:10;}
	.st10{clip-path:url(#SVGID_12_);fill:none;stroke:#000000;stroke-linejoin:round;stroke-miterlimit:10;}
	.st11{clip-path:url(#SVGID_14_);fill:none;stroke:#000000;stroke-linejoin:round;stroke-miterlimit:10;}
	.st12{clip-path:url(#SVGID_16_);fill:none;stroke:#000000;stroke-linejoin:round;stroke-miterlimit:10;}
	.st13{clip-path:url(#SVGID_18_);fill:none;stroke:#000000;stroke-linejoin:round;stroke-miterlimit:10;}
	.st14{clip-path:url(#SVGID_20_);fill:none;stroke:#000000;stroke-linejoin:round;stroke-miterlimit:10;}
	.st15{clip-path:url(#SVGID_22_);fill:none;stroke:#000000;stroke-linejoin:round;stroke-miterlimit:10;}
	.st16{clip-path:url(#SVGID_24_);fill:none;stroke:#000000;stroke-linejoin:round;stroke-miterlimit:10;}
	.st17{clip-path:url(#SVGID_26_);fill:none;stroke:#000000;stroke-linejoin:round;stroke-miterlimit:10;}
	.st18{clip-path:url(#SVGID_28_);fill:none;stroke:#000000;stroke-linejoin:round;stroke-miterlimit:10;}
	.st19{clip-path:url(#SVGID_30_);fill:none;stroke:#000000;stroke-linejoin:round;stroke-miterlimit:10;}
	.st20{clip-path:url(#SVGID_32_);fill:none;stroke:#000000;stroke-linejoin:round;stroke-miterlimit:10;}
	.st21{clip-path:url(#SVGID_34_);fill:none;stroke:#000000;stroke-linejoin:round;stroke-miterlimit:10;}
	.st22{clip-path:url(#SVGID_36_);fill:none;stroke:#000000;stroke-linejoin:round;stroke-miterlimit:10;}
	.st23{clip-path:url(#SVGID_38_);fill:none;stroke:#000000;stroke-linejoin:round;stroke-miterlimit:10;}
	.st24{clip-path:url(#SVGID_40_);fill:none;stroke:#000000;stroke-linejoin:round;stroke-miterlimit:10;}
	.st25{clip-path:url(#SVGID_42_);fill:none;stroke:#000000;stroke-linejoin:round;stroke-miterlimit:10;}
	.st26{clip-path:url(#SVGID_44_);fill:none;stroke:#000000;stroke-linejoin:round;stroke-miterlimit:10;}
	.st27{clip-path:url(#SVGID_46_);fill:none;stroke:#000000;stroke-linejoin:round;stroke-miterlimit:10;}
	.st28{clip-path:url(#SVGID_48_);fill:none;stroke:#000000;stroke-linejoin:round;stroke-miterlimit:10;}
	.st29{clip-path:url(#SVGID_50_);fill:none;stroke:#000000;stroke-linejoin:round;stroke-miterlimit:10;}
	.st30{clip-path:url(#SVGID_52_);fill:none;stroke:#000000;stroke-linejoin:round;stroke-miterlimit:10;}
	.st31{clip-path:url(#SVGID_54_);fill:none;stroke:#000000;stroke-linejoin:round;stroke-miterlimit:10;}
	.st32{clip-path:url(#SVGID_56_);fill:none;stroke:#000000;stroke-linejoin:round;stroke-miterlimit:10;}
	.st33{clip-path:url(#SVGID_58_);fill:none;stroke:#000000;stroke-linejoin:round;stroke-miterlimit:10;}
	.st34{clip-path:url(#SVGID_60_);fill:none;stroke:#000000;stroke-linejoin:round;stroke-miterlimit:10;}
	
		.st35{clip-path:url(#SVGID_62_);fill:none;stroke:#000000;stroke-width:2;stroke-linecap:round;stroke-linejoin:round;stroke-miterlimit:10;}
	.st36{clip-path:url(#SVGID_64_);}
	.st37{fill:none;stroke:#000000;stroke-width:2;stroke-linejoin:round;stroke-miterlimit:10;}
	.st38{clip-path:url(#SVGID_66_);}
	.st39{clip-path:url(#SVGID_68_);}
	.st40{clip-path:url(#SVGID_70_);}
	.st41{clip-path:url(#SVGID_72_);}
	.st42{fill:none;stroke:#000000;stroke-width:2;stroke-miterlimit:10;}
	.st43{clip-path:url(#SVGID_74_);}
	.st44{clip-path:url(#SVGID_76_);}
	.st45{clip-path:url(#SVGID_78_);}
	.st46{clip-path:url(#SVGID_80_);}
	.st47{clip-path:url(#SVGID_82_);}
	.st48{clip-path:url(#SVGID_84_);}
	.st49{clip-path:url(#SVGID_86_);}
	.st50{clip-path:url(#SVGID_88_);}
	.st51{clip-path:url(#SVGID_90_);}
	.st52{clip-path:url(#SVGID_92_);}
	.st53{clip-path:url(#SVGID_94_);}
	.st54{clip-path:url(#SVGID_96_);}
	.st55{clip-path:url(#SVGID_98_);}
	.st56{clip-path:url(#SVGID_100_);}
	.st57{clip-path:url(#SVGID_102_);}
	.st58{fill:none;stroke:#262626;stroke-width:1.25;stroke-linecap:square;stroke-miterlimit:10;}
	.st59{fill:none;stroke:#000000;stroke-linecap:round;stroke-linejoin:round;stroke-miterlimit:10;}
</style>
<g id="figure_1">
	<g id="patch_1">
		<path class="st0" d="M0,866.7h1728V0H0V866.7z"/>
	</g>
	<g id="axes_1">
		<g id="patch_2">
			<path class="st0" d="M216,780.4h1339.2V87H216V780.4z"/>
		</g>
		<g id="matplotlib.axis_1">
			<g id="xtick_1">
				<g id="line2d_1">
					<g>
						<g>
							<path id="m263fe5dd35" class="st1" d="M216,780.4v6"/>
						</g>
					</g>
				</g>
				<g id="text_1">
					<text transform="matrix(1 0 0 1 211.5508 809.0325)" class="st2 st3 st4">2</text>
				</g>
			</g>
			<g id="xtick_2">
				<g id="line2d_2">
					<g>
						<g>
							<path id="m263fe5dd35_1_" class="st1" d="M383.4,780.4v6"/>
						</g>
					</g>
				</g>
				<g id="text_2">
					<text transform="matrix(1 0 0 1 378.9508 809.0325)" class="st2 st3 st4">3</text>
				</g>
			</g>
			<g id="xtick_3">
				<g id="line2d_3">
					<g>
						<g>
							<path id="m263fe5dd35_2_" class="st1" d="M550.8,780.4v6"/>
						</g>
					</g>
				</g>
				<g id="text_3">
					<text transform="matrix(1 0 0 1 546.3508 809.0325)" class="st2 st3 st4">4</text>
				</g>
			</g>
			<g id="xtick_4">
				<g id="line2d_4">
					<g>
						<g>
							<path id="m263fe5dd35_3_" class="st1" d="M718.2,780.4v6"/>
						</g>
					</g>
				</g>
				<g id="text_4">
					<text transform="matrix(1 0 0 1 713.7508 809.0325)" class="st2 st3 st4">5</text>
				</g>
			</g>
			<g id="xtick_5">
				<g id="line2d_5">
					<g>
						<g>
							<path id="m263fe5dd35_4_" class="st1" d="M885.6,780.4v6"/>
						</g>
					</g>
				</g>
				<g id="text_5">
					<text transform="matrix(1 0 0 1 881.1508 809.0325)" class="st2 st3 st4">6</text>
				</g>
			</g>
			<g id="xtick_6">
				<g id="line2d_6">
					<g>
						<g>
							<path id="m263fe5dd35_5_" class="st1" d="M1053,780.4v6"/>
						</g>
					</g>
				</g>
				<g id="text_6">
					<text transform="matrix(1 0 0 1 1048.5508 809.0325)" class="st2 st3 st4">7</text>
				</g>
			</g>
			<g id="xtick_7">
				<g id="line2d_7">
					<g>
						<g>
							<path id="m263fe5dd35_6_" class="st1" d="M1220.4,780.4v6"/>
						</g>
					</g>
				</g>
				<g id="text_7">
					<text transform="matrix(1 0 0 1 1215.9508 809.0325)" class="st2 st3 st4">8</text>
				</g>
			</g>
			<g id="xtick_8">
				<g id="line2d_8">
					<g>
						<g>
							<path id="m263fe5dd35_7_" class="st1" d="M1387.8,780.4v6"/>
						</g>
					</g>
				</g>
				<g id="text_8">
					<text transform="matrix(1 0 0 1 1383.3508 809.0325)" class="st2 st3 st4">9</text>
				</g>
			</g>
			<g id="xtick_9">
				<g id="line2d_9">
					<g>
						<g>
							<path id="m263fe5dd35_8_" class="st1" d="M1555.2,780.4v6"/>
						</g>
					</g>
				</g>
				<g id="text_9">
					<text transform="matrix(1 0 0 1 1546.3015 809.0325)" class="st2 st3 st4">10</text>
				</g>
			</g>
			<g id="text_10">
				<text transform="matrix(1 0 0 1 874.3508 829.8103)" class="st2 st3 st4">pH</text>
			</g>
		</g>
		<g id="matplotlib.axis_2">
			<g id="ytick_1">
				<g id="line2d_10">
					<g>
						<g>
							<path id="m266f7ae6c4" class="st1" d="M216,773.5h-6"/>
						</g>
					</g>
				</g>
				<g id="text_11">
					<text transform="matrix(1 0 0 1 176.5578 777.6512)" class="st2 st3 st4">0.0</text>
				</g>
			</g>
			<g id="ytick_2">
				<g id="line2d_11">
					<g>
						<g>
							<path id="m266f7ae6c4_1_" class="st1" d="M216,636.2h-6"/>
						</g>
					</g>
				</g>
				<g id="text_12">
					<text transform="matrix(1 0 0 1 176.5578 640.3523)" class="st2 st3 st4">0.2</text>
				</g>
			</g>
			<g id="ytick_3">
				<g id="line2d_12">
					<g>
						<g>
							<path id="m266f7ae6c4_2_" class="st1" d="M216,498.9h-6"/>
						</g>
					</g>
				</g>
				<g id="text_13">
					<text transform="matrix(1 0 0 1 176.5578 503.0533)" class="st2 st3 st4">0.4</text>
				</g>
			</g>
			<g id="ytick_4">
				<g id="line2d_13">
					<g>
						<g>
							<path id="m266f7ae6c4_3_" class="st1" d="M216,361.6h-6"/>
						</g>
					</g>
				</g>
				<g id="text_14">
					<text transform="matrix(1 0 0 1 176.5578 365.7543)" class="st2 st3 st4">0.6</text>
				</g>
			</g>
			<g id="ytick_5">
				<g id="line2d_14">
					<g>
						<g>
							<path id="m266f7ae6c4_4_" class="st1" d="M216,224.3h-6"/>
						</g>
					</g>
				</g>
				<g id="text_15">
					<text transform="matrix(1 0 0 1 176.5578 228.4552)" class="st2 st3 st4">0.8</text>
				</g>
			</g>
			<g id="ytick_6">
				<g id="text_16">
					<text transform="matrix(1 0 0 1 176.5578 91.1563)" class="st2 st3 st4">1.0</text>
				</g>
			</g>
			<g id="text_17">
				<text transform="matrix(6.123234e-017 -1 1 6.123234e-017 168.062 496.31)" class="st2 st3 st4">Fraction Sorbed</text>
			</g>
		</g>
		<g id="LineCollection_1">
			<g>
				<defs>
					<rect id="SVGID_1_" x="216" y="87" width="1339.2" height="693.4"/>
				</defs>
				<clipPath id="SVGID_2_">
					<use xlink:href="#SVGID_1_"  style="overflow:visible;"/>
				</clipPath>
				<path class="st5" d="M390.3,1052.1"/>
			</g>
			<g>
				<defs>
					<rect id="SVGID_3_" x="216" y="87" width="1339.2" height="693.4"/>
				</defs>
				<clipPath id="SVGID_4_">
					<use xlink:href="#SVGID_3_"  style="overflow:visible;"/>
				</clipPath>
				<path class="st6" d="M718.2,752.8L718.2,752.8"/>
			</g>
			<g>
				<defs>
					<rect id="SVGID_5_" x="216" y="87" width="1339.2" height="693.4"/>
				</defs>
				<clipPath id="SVGID_6_">
					<use xlink:href="#SVGID_5_"  style="overflow:visible;"/>
				</clipPath>
				<path class="st7" d="M1037,490h9.7"/>
			</g>
		</g>
		<g id="LineCollection_2">
			<g>
				<defs>
					<rect id="SVGID_7_" x="216" y="87" width="1339.2" height="693.4"/>
				</defs>
				<clipPath id="SVGID_8_">
					<use xlink:href="#SVGID_7_"  style="overflow:visible;"/>
				</clipPath>
				<path class="st8" d="M395.7,868.1v-33.5"/>
			</g>
			<g>
				<defs>
					<rect id="SVGID_9_" x="216" y="87" width="1339.2" height="693.4"/>
				</defs>
				<clipPath id="SVGID_10_">
					<use xlink:href="#SVGID_9_"  style="overflow:visible;"/>
				</clipPath>
				<path class="st9" d="M718.2,825.3v-145"/>
			</g>
			<g>
				<defs>
					<rect id="SVGID_11_" x="216" y="87" width="1339.2" height="693.4"/>
				</defs>
				<clipPath id="SVGID_12_">
					<use xlink:href="#SVGID_11_"  style="overflow:visible;"/>
				</clipPath>
				<path class="st10" d="M1041.8,527.1v-74.4"/>
			</g>
		</g>
		<g id="LineCollection_3">
			<g>
				<defs>
					<rect id="SVGID_13_" x="216" y="87" width="1339.2" height="693.4"/>
				</defs>
				<clipPath id="SVGID_14_">
					<use xlink:href="#SVGID_13_"  style="overflow:visible;"/>
				</clipPath>
				<path class="st11" d="M385.7,761.7h8.9"/>
			</g>
			<g>
				<defs>
					<rect id="SVGID_15_" x="216" y="87" width="1339.2" height="693.4"/>
				</defs>
				<clipPath id="SVGID_16_">
					<use xlink:href="#SVGID_15_"  style="overflow:visible;"/>
				</clipPath>
				<path class="st12" d="M718.2,596L718.2,596"/>
			</g>
			<g>
				<defs>
					<rect id="SVGID_17_" x="216" y="87" width="1339.2" height="693.4"/>
				</defs>
				<clipPath id="SVGID_18_">
					<use xlink:href="#SVGID_17_"  style="overflow:visible;"/>
				</clipPath>
				<path class="st13" d="M1041,387.6h18.4"/>
			</g>
			<g>
				<defs>
					<rect id="SVGID_19_" x="216" y="87" width="1339.2" height="693.4"/>
				</defs>
				<clipPath id="SVGID_20_">
					<use xlink:href="#SVGID_19_"  style="overflow:visible;"/>
				</clipPath>
				<path class="st14" d="M1369.6,59.2h8.4"/>
			</g>
		</g>
		<g id="LineCollection_4">
			<g>
				<defs>
					<rect id="SVGID_21_" x="216" y="87" width="1339.2" height="693.4"/>
				</defs>
				<clipPath id="SVGID_22_">
					<use xlink:href="#SVGID_21_"  style="overflow:visible;"/>
				</clipPath>
				<path class="st15" d="M390.1,803.9v-84.4"/>
			</g>
			<g>
				<defs>
					<rect id="SVGID_23_" x="216" y="87" width="1339.2" height="693.4"/>
				</defs>
				<clipPath id="SVGID_24_">
					<use xlink:href="#SVGID_23_"  style="overflow:visible;"/>
				</clipPath>
				<path class="st16" d="M718.2,788.3V403.7"/>
			</g>
			<g>
				<defs>
					<rect id="SVGID_25_" x="216" y="87" width="1339.2" height="693.4"/>
				</defs>
				<clipPath id="SVGID_26_">
					<use xlink:href="#SVGID_25_"  style="overflow:visible;"/>
				</clipPath>
				<path class="st17" d="M1050.2,400.4v-25.6"/>
			</g>
			<g>
				<defs>
					<rect id="SVGID_27_" x="216" y="87" width="1339.2" height="693.4"/>
				</defs>
				<clipPath id="SVGID_28_">
					<use xlink:href="#SVGID_27_"  style="overflow:visible;"/>
				</clipPath>
				<path class="st18" d="M1373.8,70V48.4"/>
			</g>
		</g>
		<g id="LineCollection_5">
			<g>
				<defs>
					<rect id="SVGID_29_" x="216" y="87" width="1339.2" height="693.4"/>
				</defs>
				<clipPath id="SVGID_30_">
					<use xlink:href="#SVGID_29_"  style="overflow:visible;"/>
				</clipPath>
				<path class="st19" d="M380.6,727.2h29"/>
			</g>
			<g>
				<defs>
					<rect id="SVGID_31_" x="216" y="87" width="1339.2" height="693.4"/>
				</defs>
				<clipPath id="SVGID_32_">
					<use xlink:href="#SVGID_31_"  style="overflow:visible;"/>
				</clipPath>
				<path class="st20" d="M718.2,703.2L718.2,703.2"/>
			</g>
			<g>
				<defs>
					<rect id="SVGID_33_" x="216" y="87" width="1339.2" height="693.4"/>
				</defs>
				<clipPath id="SVGID_34_">
					<use xlink:href="#SVGID_33_"  style="overflow:visible;"/>
				</clipPath>
				<path class="st21" d="M1041.9,404h8.9"/>
			</g>
			<g>
				<defs>
					<rect id="SVGID_35_" x="216" y="87" width="1339.2" height="693.4"/>
				</defs>
				<clipPath id="SVGID_36_">
					<use xlink:href="#SVGID_35_"  style="overflow:visible;"/>
				</clipPath>
				<path class="st22" d="M1356.5,109.1h16.9"/>
			</g>
		</g>
		<g id="LineCollection_6">
			<g>
				<defs>
					<rect id="SVGID_37_" x="216" y="87" width="1339.2" height="693.4"/>
				</defs>
				<clipPath id="SVGID_38_">
					<use xlink:href="#SVGID_37_"  style="overflow:visible;"/>
				</clipPath>
				<path class="st23" d="M395.1,778.7V675.6"/>
			</g>
			<g>
				<defs>
					<rect id="SVGID_39_" x="216" y="87" width="1339.2" height="693.4"/>
				</defs>
				<clipPath id="SVGID_40_">
					<use xlink:href="#SVGID_39_"  style="overflow:visible;"/>
				</clipPath>
				<path class="st24" d="M718.2,711.9v-17.3"/>
			</g>
			<g>
				<defs>
					<rect id="SVGID_41_" x="216" y="87" width="1339.2" height="693.4"/>
				</defs>
				<clipPath id="SVGID_42_">
					<use xlink:href="#SVGID_41_"  style="overflow:visible;"/>
				</clipPath>
				<path class="st25" d="M1046.3,424.1v-40.2"/>
			</g>
			<g>
				<defs>
					<rect id="SVGID_43_" x="216" y="87" width="1339.2" height="693.4"/>
				</defs>
				<clipPath id="SVGID_44_">
					<use xlink:href="#SVGID_43_"  style="overflow:visible;"/>
				</clipPath>
				<path class="st26" d="M1364.9,124.8V93.5"/>
			</g>
		</g>
		<g id="LineCollection_7">
			<g>
				<defs>
					<rect id="SVGID_45_" x="216" y="87" width="1339.2" height="693.4"/>
				</defs>
				<clipPath id="SVGID_46_">
					<use xlink:href="#SVGID_45_"  style="overflow:visible;"/>
				</clipPath>
				<path class="st27" d="M388.3,733.2h11.1"/>
			</g>
			<g>
				<defs>
					<rect id="SVGID_47_" x="216" y="87" width="1339.2" height="693.4"/>
				</defs>
				<clipPath id="SVGID_48_">
					<use xlink:href="#SVGID_47_"  style="overflow:visible;"/>
				</clipPath>
				<path class="st28" d="M718.2,687.6L718.2,687.6"/>
			</g>
			<g>
				<defs>
					<rect id="SVGID_49_" x="216" y="87" width="1339.2" height="693.4"/>
				</defs>
				<clipPath id="SVGID_50_">
					<use xlink:href="#SVGID_49_"  style="overflow:visible;"/>
				</clipPath>
				<path class="st29" d="M1046.6,473.7h11.1"/>
			</g>
			<g>
				<defs>
					<rect id="SVGID_51_" x="216" y="87" width="1339.2" height="693.4"/>
				</defs>
				<clipPath id="SVGID_52_">
					<use xlink:href="#SVGID_51_"  style="overflow:visible;"/>
				</clipPath>
				<path class="st30" d="M1369,125.1h15.8"/>
			</g>
		</g>
		<g id="LineCollection_8">
			<g>
				<defs>
					<rect id="SVGID_53_" x="216" y="87" width="1339.2" height="693.4"/>
				</defs>
				<clipPath id="SVGID_54_">
					<use xlink:href="#SVGID_53_"  style="overflow:visible;"/>
				</clipPath>
				<path class="st31" d="M393.9,769.7v-73.1"/>
			</g>
			<g>
				<defs>
					<rect id="SVGID_55_" x="216" y="87" width="1339.2" height="693.4"/>
				</defs>
				<clipPath id="SVGID_56_">
					<use xlink:href="#SVGID_55_"  style="overflow:visible;"/>
				</clipPath>
				<path class="st32" d="M718.2,719.1v-62.9"/>
			</g>
			<g>
				<defs>
					<rect id="SVGID_57_" x="216" y="87" width="1339.2" height="693.4"/>
				</defs>
				<clipPath id="SVGID_58_">
					<use xlink:href="#SVGID_57_"  style="overflow:visible;"/>
				</clipPath>
				<path class="st33" d="M1052.2,518.4V429"/>
			</g>
			<g>
				<defs>
					<rect id="SVGID_59_" x="216" y="87" width="1339.2" height="693.4"/>
				</defs>
				<clipPath id="SVGID_60_">
					<use xlink:href="#SVGID_59_"  style="overflow:visible;"/>
				</clipPath>
				<path class="st34" d="M1376.9,152.4V97.9"/>
			</g>
		</g>
		<g id="line2d_15">
			<g>
				<defs>
					<rect id="SVGID_61_" x="216" y="87" width="1339.2" height="693.4"/>
				</defs>
				<clipPath id="SVGID_62_">
					<use xlink:href="#SVGID_61_"  style="overflow:visible;"/>
				</clipPath>
				<path class="st35" d="M216,773.9l16.7,0l0,0l0,0l16.7,0l0,0l0,0h16.7l0,0l0,0l16.7,0l0,0l0,0l16.7,0l0,0l0,0l16.7,0l0,0l0,0
					l16.7,0l0,0l0,0l16.7,0l0,0l0,0l16.7,0l0,0l0,0l16.7,0l0,0l0,0l16.7,0l0,0l0,0l16.7,0l0,0l0,0l16.7,0l0,0l0,0l16.7,0l0,0l0,0
					l16.7,0l0,0l0,0l16.7,0l0,0l0,0l16.7,0l0,0l0,0l16.7,0l0,0l0,0l16.7,0l0,0l0,0l16.7,0l0,0l0,0l16.7,0l0,0l0,0l16.7,0l0,0l0,0
					l16.7,0l0,0l0,0l16.7,0l0,0l0,0l16.7,0l0,0l0,0l16.7,0l0,0l0,0l16.7-0.1l0,0l0,0l16.7-0.1l0,0l0,0l16.7-0.1l0,0l0,0l16.7-0.2
					l0,0l0,0l16.7-0.2l0,0l0,0l16.7-0.3l0,0l0,0l16.7-0.4l0,0l0,0l16.7-0.6l0,0l0,0l16.7-0.8l0,0l0,0l16.7-1.2l0,0l0,0l16.7-1.7l0,0
					l0,0l16.7-2.3l0,0l0,0l16.7-3.3l0,0l0,0l16.7-4.7l0,0l0,0l16.7-6.6l0,0l0,0l16.7-9.3l0,0l0,0l16.7-13.1l0,0l0,0l16.7-18.3l0,0
					l0,0l16.7-25l0,0l0,0L986,652l0,0l0,0l16.7-43.2l0,0l0,0l16.7-53.3l0,0l0,0l16.7-62.1l0,0l0,0l16.7-67.4l0,0l0,0l16.7-67.7l0,0
					l0,0l16.7-62.8l0,0l0,0l16.7-54.1l0,0l0,0l16.7-43.6l0,0l0,0l16.7-33.3l0,0l0,0l16.7-24.3l0,0l0,0l16.7-17.2l0,0l0,0l16.7-11.9
					l0,0l0,0l16.7-8.1l0,0l0,0l16.7-5.4l0,0l0,0l16.7-3.6l0,0l0,0l16.7-2.4l0,0l0,0l16.7-1.6l0,0l0,0l16.7-1l0,0l0,0l16.7-0.7l0,0
					l0,0l16.7-0.4l0,0l0,0l16.7-0.3l16.7-0.2l33.5-0.2l0,0l67-0.1l0,0l100.4,0l0,0"/>
			</g>
		</g>
		<g id="line2d_16">
			<g>
				<defs>
					<rect id="SVGID_63_" x="216" y="87" width="1339.2" height="693.4"/>
				</defs>
				<clipPath id="SVGID_64_">
					<use xlink:href="#SVGID_63_"  style="overflow:visible;"/>
				</clipPath>
				<g class="st36">
					<g>
						<path id="ma139eeee93" class="st37" d="M390.3,1057.1v-10"/>
					</g>
					<g>
						<path id="ma139eeee93_1_" class="st37" d="M718.2,757.8v-10"/>
					</g>
					<g>
						<path id="ma139eeee93_2_" class="st37" d="M1037,495v-10"/>
					</g>
				</g>
			</g>
		</g>
		<g id="line2d_17">
			<g>
				<defs>
					<rect id="SVGID_65_" x="216" y="87" width="1339.2" height="693.4"/>
				</defs>
				<clipPath id="SVGID_66_">
					<use xlink:href="#SVGID_65_"  style="overflow:visible;"/>
				</clipPath>
				<g class="st38">
					<g>
						<path id="ma139eeee93_3_" class="st37" d="M401.1,1057.1v-10"/>
					</g>
					<g>
						<path id="ma139eeee93_4_" class="st37" d="M718.2,757.8v-10"/>
					</g>
					<g>
						<path id="ma139eeee93_5_" class="st37" d="M1046.7,495v-10"/>
					</g>
				</g>
			</g>
		</g>
		<g id="line2d_18">
			<g>
				<defs>
					<rect id="SVGID_67_" x="216" y="87" width="1339.2" height="693.4"/>
				</defs>
				<clipPath id="SVGID_68_">
					<use xlink:href="#SVGID_67_"  style="overflow:visible;"/>
				</clipPath>
				<g class="st39">
					<g>
						<path id="m7a369e7746" class="st37" d="M400.7,1269.6h-10"/>
					</g>
					<g>
						<path id="m7a369e7746_1_" class="st37" d="M723.2,825.3h-10"/>
					</g>
					<g>
						<path id="m7a369e7746_2_" class="st37" d="M1046.8,527.1h-10"/>
					</g>
				</g>
			</g>
		</g>
		<g id="line2d_19">
			<g>
				<defs>
					<rect id="SVGID_69_" x="216" y="87" width="1339.2" height="693.4"/>
				</defs>
				<clipPath id="SVGID_70_">
					<use xlink:href="#SVGID_69_"  style="overflow:visible;"/>
				</clipPath>
				<g class="st40">
					<g>
						<path id="m7a369e7746_3_" class="st37" d="M400.7,834.6h-10"/>
					</g>
					<g>
						<path id="m7a369e7746_4_" class="st37" d="M723.2,680.3h-10"/>
					</g>
					<g>
						<path id="m7a369e7746_5_" class="st37" d="M1046.8,452.8h-10"/>
					</g>
				</g>
			</g>
		</g>
		<g id="line2d_20">
			<g>
				<defs>
					<rect id="SVGID_71_" x="216" y="87" width="1339.2" height="693.4"/>
				</defs>
				<clipPath id="SVGID_72_">
					<use xlink:href="#SVGID_71_"  style="overflow:visible;"/>
				</clipPath>
				<g class="st41">
					<g>
						<path id="mda734b25b3" class="st42" d="M395.7,1066.2l8.5-14.1l-8.5-14.1l-8.5,14.1L395.7,1066.2z"/>
					</g>
					<g>
						<path id="mda734b25b3_1_" class="st42" d="M718.2,767l8.5-14.1l-8.5-14.1l-8.5,14.1L718.2,767z"/>
					</g>
					<g>
						<path id="mda734b25b3_2_" class="st42" d="M1041.8,504.1l8.5-14.1l-8.5-14.1l-8.5,14.1L1041.8,504.1z"/>
					</g>
				</g>
			</g>
		</g>
		<g id="line2d_21">
			<g>
				<defs>
					<rect id="SVGID_73_" x="216" y="87" width="1339.2" height="693.4"/>
				</defs>
				<clipPath id="SVGID_74_">
					<use xlink:href="#SVGID_73_"  style="overflow:visible;"/>
				</clipPath>
				<g class="st43">
					<g>
						<path id="ma139eeee93_6_" class="st37" d="M385.7,766.7v-10"/>
					</g>
					<g>
						<path id="ma139eeee93_7_" class="st37" d="M718.2,601v-10"/>
					</g>
					<g>
						<path id="ma139eeee93_8_" class="st37" d="M1041,392.6v-10"/>
					</g>
					<g>
						<path id="ma139eeee93_9_" class="st37" d="M1369.6,64.2v-10"/>
					</g>
				</g>
			</g>
		</g>
		<g id="line2d_22">
			<g>
				<defs>
					<rect id="SVGID_75_" x="216" y="87" width="1339.2" height="693.4"/>
				</defs>
				<clipPath id="SVGID_76_">
					<use xlink:href="#SVGID_75_"  style="overflow:visible;"/>
				</clipPath>
				<g class="st44">
					<g>
						<path id="ma139eeee93_10_" class="st37" d="M394.5,766.7v-10"/>
					</g>
					<g>
						<path id="ma139eeee93_11_" class="st37" d="M718.2,601v-10"/>
					</g>
					<g>
						<path id="ma139eeee93_12_" class="st37" d="M1059.4,392.6v-10"/>
					</g>
					<g>
						<path id="ma139eeee93_13_" class="st37" d="M1378.1,64.2v-10"/>
					</g>
				</g>
			</g>
		</g>
		<g id="line2d_23">
			<g>
				<defs>
					<rect id="SVGID_77_" x="216" y="87" width="1339.2" height="693.4"/>
				</defs>
				<clipPath id="SVGID_78_">
					<use xlink:href="#SVGID_77_"  style="overflow:visible;"/>
				</clipPath>
				<g class="st45">
					<g>
						<path id="m7a369e7746_6_" class="st37" d="M395.1,803.9h-10"/>
					</g>
					<g>
						<path id="m7a369e7746_7_" class="st37" d="M723.2,788.3h-10"/>
					</g>
					<g>
						<path id="m7a369e7746_8_" class="st37" d="M1055.2,400.4h-10"/>
					</g>
					<g>
						<path id="m7a369e7746_9_" class="st37" d="M1378.8,70h-10"/>
					</g>
				</g>
			</g>
		</g>
		<g id="line2d_24">
			<g>
				<defs>
					<rect id="SVGID_79_" x="216" y="87" width="1339.2" height="693.4"/>
				</defs>
				<clipPath id="SVGID_80_">
					<use xlink:href="#SVGID_79_"  style="overflow:visible;"/>
				</clipPath>
				<g class="st46">
					<g>
						<path id="m7a369e7746_10_" class="st37" d="M395.1,719.5h-10"/>
					</g>
					<g>
						<path id="m7a369e7746_11_" class="st37" d="M723.2,403.7h-10"/>
					</g>
					<g>
						<path id="m7a369e7746_12_" class="st37" d="M1055.2,374.7h-10"/>
					</g>
					<g>
						<path id="m7a369e7746_13_" class="st37" d="M1378.8,48.4h-10"/>
					</g>
				</g>
			</g>
		</g>
		<g id="line2d_25">
			<g>
				<defs>
					<rect id="SVGID_81_" x="216" y="87" width="1339.2" height="693.4"/>
				</defs>
				<clipPath id="SVGID_82_">
					<use xlink:href="#SVGID_81_"  style="overflow:visible;"/>
				</clipPath>
				<g class="st47">
					<g>
						<path id="m77e1882ad4" class="st42" d="M390.1,751.7l-9.5,6.9l3.6,11.2H396l3.6-11.2L390.1,751.7z"/>
					</g>
					<g>
						<path id="m77e1882ad4_1_" class="st42" d="M718.2,586l-9.5,6.9l3.6,11.2h11.8l3.6-11.2L718.2,586z"/>
					</g>
					<g>
						<path id="m77e1882ad4_2_" class="st42" d="M1050.2,377.6l-9.5,6.9l3.6,11.2h11.8l3.6-11.2L1050.2,377.6z"/>
					</g>
					<g>
						<path id="m77e1882ad4_3_" class="st42" d="M1373.8,49.2l-9.5,6.9l3.6,11.2h11.8l3.6-11.2L1373.8,49.2z"/>
					</g>
				</g>
			</g>
		</g>
		<g id="line2d_26">
			<g>
				<defs>
					<rect id="SVGID_83_" x="216" y="87" width="1339.2" height="693.4"/>
				</defs>
				<clipPath id="SVGID_84_">
					<use xlink:href="#SVGID_83_"  style="overflow:visible;"/>
				</clipPath>
				<g class="st48">
					<g>
						<path id="ma139eeee93_14_" class="st37" d="M380.6,732.2v-10"/>
					</g>
					<g>
						<path id="ma139eeee93_15_" class="st37" d="M718.2,708.2v-10"/>
					</g>
					<g>
						<path id="ma139eeee93_16_" class="st37" d="M1041.9,409v-10"/>
					</g>
					<g>
						<path id="ma139eeee93_17_" class="st37" d="M1356.5,114.1v-10"/>
					</g>
				</g>
			</g>
		</g>
		<g id="line2d_27">
			<g>
				<defs>
					<rect id="SVGID_85_" x="216" y="87" width="1339.2" height="693.4"/>
				</defs>
				<clipPath id="SVGID_86_">
					<use xlink:href="#SVGID_85_"  style="overflow:visible;"/>
				</clipPath>
				<g class="st49">
					<g>
						<path id="ma139eeee93_18_" class="st37" d="M409.6,732.2v-10"/>
					</g>
					<g>
						<path id="ma139eeee93_19_" class="st37" d="M718.2,708.2v-10"/>
					</g>
					<g>
						<path id="ma139eeee93_20_" class="st37" d="M1050.7,409v-10"/>
					</g>
					<g>
						<path id="ma139eeee93_21_" class="st37" d="M1373.3,114.1v-10"/>
					</g>
				</g>
			</g>
		</g>
		<g id="line2d_28">
			<g>
				<defs>
					<rect id="SVGID_87_" x="216" y="87" width="1339.2" height="693.4"/>
				</defs>
				<clipPath id="SVGID_88_">
					<use xlink:href="#SVGID_87_"  style="overflow:visible;"/>
				</clipPath>
				<g class="st50">
					<g>
						<path id="m7a369e7746_14_" class="st37" d="M400.1,778.7h-10"/>
					</g>
					<g>
						<path id="m7a369e7746_15_" class="st37" d="M723.2,711.9h-10"/>
					</g>
					<g>
						<path id="m7a369e7746_16_" class="st37" d="M1051.3,424.1h-10"/>
					</g>
					<g>
						<path id="m7a369e7746_17_" class="st37" d="M1369.9,124.8h-10"/>
					</g>
				</g>
			</g>
		</g>
		<g id="line2d_29">
			<g>
				<defs>
					<rect id="SVGID_89_" x="216" y="87" width="1339.2" height="693.4"/>
				</defs>
				<clipPath id="SVGID_90_">
					<use xlink:href="#SVGID_89_"  style="overflow:visible;"/>
				</clipPath>
				<g class="st51">
					<g>
						<path id="m7a369e7746_18_" class="st37" d="M400.1,675.6h-10"/>
					</g>
					<g>
						<path id="m7a369e7746_19_" class="st37" d="M723.2,694.6h-10"/>
					</g>
					<g>
						<path id="m7a369e7746_20_" class="st37" d="M1051.3,383.9h-10"/>
					</g>
					<g>
						<path id="m7a369e7746_21_" class="st37" d="M1369.9,93.5h-10"/>
					</g>
				</g>
			</g>
		</g>
		<g id="line2d_30">
			<g>
				<defs>
					<rect id="SVGID_91_" x="216" y="87" width="1339.2" height="693.4"/>
				</defs>
				<clipPath id="SVGID_92_">
					<use xlink:href="#SVGID_91_"  style="overflow:visible;"/>
				</clipPath>
				<g class="st52">
					<g>
						<path id="m0e4fcd579e" class="st42" d="M385.1,737.2h20v-20h-20V737.2z"/>
					</g>
					<g>
						<path id="m0e4fcd579e_1_" class="st42" d="M708.2,713.2h20v-20h-20V713.2z"/>
					</g>
					<g>
						<path id="m0e4fcd579e_2_" class="st42" d="M1036.3,414h20v-20h-20V414z"/>
					</g>
					<g>
						<path id="m0e4fcd579e_3_" class="st42" d="M1354.9,119.1h20v-20h-20V119.1z"/>
					</g>
				</g>
			</g>
		</g>
		<g id="line2d_31">
			<g>
				<defs>
					<rect id="SVGID_93_" x="216" y="87" width="1339.2" height="693.4"/>
				</defs>
				<clipPath id="SVGID_94_">
					<use xlink:href="#SVGID_93_"  style="overflow:visible;"/>
				</clipPath>
				<g class="st53">
					<g>
						<path id="ma139eeee93_22_" class="st37" d="M388.3,738.2v-10"/>
					</g>
					<g>
						<path id="ma139eeee93_23_" class="st37" d="M718.2,692.6v-10"/>
					</g>
					<g>
						<path id="ma139eeee93_24_" class="st37" d="M1046.6,478.7v-10"/>
					</g>
					<g>
						<path id="ma139eeee93_25_" class="st37" d="M1369,130.1v-10"/>
					</g>
				</g>
			</g>
		</g>
		<g id="line2d_32">
			<g>
				<defs>
					<rect id="SVGID_95_" x="216" y="87" width="1339.2" height="693.4"/>
				</defs>
				<clipPath id="SVGID_96_">
					<use xlink:href="#SVGID_95_"  style="overflow:visible;"/>
				</clipPath>
				<g class="st54">
					<g>
						<path id="ma139eeee93_26_" class="st37" d="M399.4,738.2v-10"/>
					</g>
					<g>
						<path id="ma139eeee93_27_" class="st37" d="M718.2,692.6v-10"/>
					</g>
					<g>
						<path id="ma139eeee93_28_" class="st37" d="M1057.7,478.7v-10"/>
					</g>
					<g>
						<path id="ma139eeee93_29_" class="st37" d="M1384.8,130.1v-10"/>
					</g>
				</g>
			</g>
		</g>
		<g id="line2d_33">
			<g>
				<defs>
					<rect id="SVGID_97_" x="216" y="87" width="1339.2" height="693.4"/>
				</defs>
				<clipPath id="SVGID_98_">
					<use xlink:href="#SVGID_97_"  style="overflow:visible;"/>
				</clipPath>
				<g class="st55">
					<g>
						<path id="m7a369e7746_22_" class="st37" d="M398.9,769.7h-10"/>
					</g>
					<g>
						<path id="m7a369e7746_23_" class="st37" d="M723.2,719.1h-10"/>
					</g>
					<g>
						<path id="m7a369e7746_24_" class="st37" d="M1057.2,518.4h-10"/>
					</g>
					<g>
						<path id="m7a369e7746_25_" class="st37" d="M1381.9,152.4h-10"/>
					</g>
				</g>
			</g>
		</g>
		<g id="line2d_34">
			<g>
				<defs>
					<rect id="SVGID_99_" x="216" y="87" width="1339.2" height="693.4"/>
				</defs>
				<clipPath id="SVGID_100_">
					<use xlink:href="#SVGID_99_"  style="overflow:visible;"/>
				</clipPath>
				<g class="st56">
					<g>
						<path id="m7a369e7746_26_" class="st37" d="M398.9,696.7h-10"/>
					</g>
					<g>
						<path id="m7a369e7746_27_" class="st37" d="M723.2,656.2h-10"/>
					</g>
					<g>
						<path id="m7a369e7746_28_" class="st37" d="M1057.2,429h-10"/>
					</g>
					<g>
						<path id="m7a369e7746_29_" class="st37" d="M1381.9,97.9h-10"/>
					</g>
				</g>
			</g>
		</g>
		<g id="line2d_35">
			<g>
				<defs>
					<rect id="SVGID_101_" x="216" y="87" width="1339.2" height="693.4"/>
				</defs>
				<clipPath id="SVGID_102_">
					<use xlink:href="#SVGID_101_"  style="overflow:visible;"/>
				</clipPath>
				<g class="st57">
					<g>
						<path id="m3fe058b88e" class="st37" d="M393.9,743.2c2.7,0,5.2-1.1,7.1-2.9c1.9-1.9,2.9-4.4,2.9-7.1c0-2.7-1.1-5.2-2.9-7.1
							c-1.9-1.9-4.4-2.9-7.1-2.9s-5.2,1.1-7.1,2.9c-1.9,1.9-2.9,4.4-2.9,7.1c0,2.7,1.1,5.2,2.9,7.1
							C388.7,742.1,391.2,743.2,393.9,743.2z"/>
					</g>
					<g>
						<path id="m3fe058b88e_1_" class="st37" d="M718.2,697.6c2.7,0,5.2-1.1,7.1-2.9c1.9-1.9,2.9-4.4,2.9-7.1c0-2.7-1.1-5.2-2.9-7.1
							c-1.9-1.9-4.4-2.9-7.1-2.9s-5.2,1.1-7.1,2.9c-1.9,1.9-2.9,4.4-2.9,7.1c0,2.7,1.1,5.2,2.9,7.1
							C713,696.6,715.5,697.6,718.2,697.6z"/>
					</g>
					<g>
						<path id="m3fe058b88e_2_" class="st37" d="M1052.2,483.7c2.7,0,5.2-1.1,7.1-2.9s2.9-4.4,2.9-7.1s-1.1-5.2-2.9-7.1
							s-4.4-2.9-7.1-2.9s-5.2,1.1-7.1,2.9s-2.9,4.4-2.9,7.1s1.1,5.2,2.9,7.1S1049.5,483.7,1052.2,483.7z"/>
					</g>
					<g>
						<path id="m3fe058b88e_3_" class="st37" d="M1376.9,135.1c2.7,0,5.2-1.1,7.1-2.9c1.9-1.9,2.9-4.4,2.9-7.1s-1.1-5.2-2.9-7.1
							s-4.4-2.9-7.1-2.9s-5.2,1.1-7.1,2.9s-2.9,4.4-2.9,7.1s1.1,5.2,2.9,7.1C1371.7,134.1,1374.3,135.1,1376.9,135.1z"/>
					</g>
				</g>
			</g>
		</g>
		<g id="patch_3">
			<path class="st58" d="M216,780.4h1339.2"/>
		</g>
		<g id="patch_4">
			<path class="st58" d="M216,780.4V87"/>
		</g>
		<g id="legend_1">
			<g id="line2d_36">
				<path class="st59" d="M233.2,107.3h32"/>
			</g>
			<g id="line2d_37">
			</g>
			<g id="text_19">
				<text transform="matrix(1 0 0 1 277.2 112.8725)" class="st2 st3 st4">1 site, K: 5.6 5e-05 mol</text>
			</g>
			<g id="line2d_38">
			</g>
			<g id="line2d_39">
				<g>
					<g>
						<path id="mda734b25b3_3_" class="st42" d="M249.2,144.1l8.5-14.1l-8.5-14.1l-8.5,14.1L249.2,144.1z"/>
					</g>
				</g>
			</g>
			<g id="text_20">
				<text transform="matrix(1 0 0 1 277.2 138.5525)" class="st2 st3 st4">Experimental Data 10 Bq Total</text>
			</g>
			<g id="line2d_40">
			</g>
			<g id="line2d_41">
				<g>
					<g>
						<path id="m77e1882ad4_4_" class="st42" d="M249.2,149.6l-9.5,6.9l3.6,11.2h11.8l3.6-11.2L249.2,149.6z"/>
					</g>
				</g>
			</g>
			<g id="text_21">
				<text transform="matrix(1 0 0 1 277.2 165.2325)" class="st2 st3 st4">Experimental Data 50 Bq Total</text>
			</g>
			<g id="line2d_42">
			</g>
			<g id="line2d_43">
				<g>
					<g>
						<path id="m0e4fcd579e_4_" class="st42" d="M239.2,195.3h20v-20h-20V195.3z"/>
					</g>
				</g>
			</g>
			<g id="text_22">
				<text transform="matrix(1 0 0 1 277.2 190.9125)" class="st2 st3 st4">Experimental Data 100 Bq Total</text>
			</g>
			<g id="line2d_44">
			</g>
			<g id="line2d_45">
				<g>
					<g>
						<path id="m3fe058b88e_4_" class="st37" d="M249.2,221c2.7,0,5.2-1.1,7.1-2.9c1.9-1.9,2.9-4.4,2.9-7.1s-1.1-5.2-2.9-7.1
							c-1.9-1.9-4.4-2.9-7.1-2.9s-5.2,1.1-7.1,2.9c-1.9,1.9-2.9,4.4-2.9,7.1s1.1,5.2,2.9,7.1C244,219.9,246.5,221,249.2,221z"/>
					</g>
				</g>
			</g>
			<g id="text_23">
				<text transform="matrix(1 0 0 1 277.2 216.5925)" class="st2 st3 st4">Experimental Data 500 Bq Total</text>
			</g>
		</g>
	</g>
</g>
</svg>
