<?xml version="1.0" encoding="utf-8"?>
<!-- Generator: Adobe Illustrator 20.1.0, SVG Export Plug-In . SVG Version: 6.00 Build 0)  -->
<svg version="1.1" id="Layer_1" xmlns="http://www.w3.org/2000/svg" xmlns:xlink="http://www.w3.org/1999/xlink" x="0px" y="0px"
	 viewBox="0 0 1728 866" style="enable-background:new 0 0 1728 866;" xml:space="preserve">
<style type="text/css">
	.st0{fill:#FFFFFF;}
	.st1{fill:none;stroke:#262626;stroke-width:1.6;stroke-linejoin:round;stroke-miterlimit:10;}
	.st2{fill:#262626;}
	.st3{font-family:'ArialMT';}
	.st4{font-size:36px;}
	
		.st5{clip-path:url(#SVGID_2_);fill:none;stroke:#000000;stroke-width:4;stroke-linecap:round;stroke-linejoin:round;stroke-miterlimit:10;}
	.st6{clip-path:url(#SVGID_4_);fill:none;stroke:#000000;stroke-linejoin:round;stroke-miterlimit:10;}
	.st7{clip-path:url(#SVGID_6_);fill:none;stroke:#000000;stroke-linejoin:round;stroke-miterlimit:10;}
	.st8{clip-path:url(#SVGID_8_);fill:none;stroke:#000000;stroke-linejoin:round;stroke-miterlimit:10;}
	.st9{clip-path:url(#SVGID_10_);fill:none;stroke:#000000;stroke-linejoin:round;stroke-miterlimit:10;}
	.st10{clip-path:url(#SVGID_12_);fill:none;stroke:#000000;stroke-linejoin:round;stroke-miterlimit:10;}
	.st11{clip-path:url(#SVGID_14_);fill:none;stroke:#000000;stroke-linejoin:round;stroke-miterlimit:10;}
	.st12{clip-path:url(#SVGID_16_);}
	.st13{fill:none;stroke:#000000;stroke-width:2;stroke-linejoin:round;stroke-miterlimit:10;}
	.st14{clip-path:url(#SVGID_18_);}
	.st15{clip-path:url(#SVGID_20_);}
	.st16{clip-path:url(#SVGID_22_);}
	.st17{clip-path:url(#SVGID_24_);}
	.st18{fill:none;stroke:#000000;stroke-width:2;stroke-miterlimit:10;}
	.st19{clip-path:url(#SVGID_26_);fill:none;stroke:#000000;stroke-linejoin:round;stroke-miterlimit:10;}
	.st20{clip-path:url(#SVGID_28_);fill:none;stroke:#000000;stroke-linejoin:round;stroke-miterlimit:10;}
	.st21{clip-path:url(#SVGID_30_);fill:none;stroke:#000000;stroke-linejoin:round;stroke-miterlimit:10;}
	.st22{clip-path:url(#SVGID_32_);fill:none;stroke:#000000;stroke-linejoin:round;stroke-miterlimit:10;}
	.st23{clip-path:url(#SVGID_34_);fill:none;stroke:#000000;stroke-linejoin:round;stroke-miterlimit:10;}
	.st24{clip-path:url(#SVGID_36_);fill:none;stroke:#000000;stroke-linejoin:round;stroke-miterlimit:10;}
	.st25{clip-path:url(#SVGID_38_);fill:none;stroke:#000000;stroke-linejoin:round;stroke-miterlimit:10;}
	.st26{clip-path:url(#SVGID_40_);fill:none;stroke:#000000;stroke-linejoin:round;stroke-miterlimit:10;}
	.st27{clip-path:url(#SVGID_42_);}
	.st28{clip-path:url(#SVGID_44_);}
	.st29{clip-path:url(#SVGID_46_);}
	.st30{clip-path:url(#SVGID_48_);}
	.st31{clip-path:url(#SVGID_50_);}
	.st32{clip-path:url(#SVGID_52_);fill:none;stroke:#000000;stroke-linejoin:round;stroke-miterlimit:10;}
	.st33{clip-path:url(#SVGID_54_);fill:none;stroke:#000000;stroke-linejoin:round;stroke-miterlimit:10;}
	.st34{clip-path:url(#SVGID_56_);fill:none;stroke:#000000;stroke-linejoin:round;stroke-miterlimit:10;}
	.st35{clip-path:url(#SVGID_58_);fill:none;stroke:#000000;stroke-linejoin:round;stroke-miterlimit:10;}
	.st36{clip-path:url(#SVGID_60_);fill:none;stroke:#000000;stroke-linejoin:round;stroke-miterlimit:10;}
	.st37{clip-path:url(#SVGID_62_);fill:none;stroke:#000000;stroke-linejoin:round;stroke-miterlimit:10;}
	.st38{clip-path:url(#SVGID_64_);fill:none;stroke:#000000;stroke-linejoin:round;stroke-miterlimit:10;}
	.st39{clip-path:url(#SVGID_66_);fill:none;stroke:#000000;stroke-linejoin:round;stroke-miterlimit:10;}
	.st40{clip-path:url(#SVGID_68_);}
	.st41{clip-path:url(#SVGID_70_);}
	.st42{clip-path:url(#SVGID_72_);}
	.st43{clip-path:url(#SVGID_74_);}
	.st44{clip-path:url(#SVGID_76_);}
	.st45{clip-path:url(#SVGID_78_);fill:none;stroke:#000000;stroke-linejoin:round;stroke-miterlimit:10;}
	.st46{clip-path:url(#SVGID_80_);fill:none;stroke:#000000;stroke-linejoin:round;stroke-miterlimit:10;}
	.st47{clip-path:url(#SVGID_82_);fill:none;stroke:#000000;stroke-linejoin:round;stroke-miterlimit:10;}
	.st48{clip-path:url(#SVGID_84_);fill:none;stroke:#000000;stroke-linejoin:round;stroke-miterlimit:10;}
	.st49{clip-path:url(#SVGID_86_);fill:none;stroke:#000000;stroke-linejoin:round;stroke-miterlimit:10;}
	.st50{clip-path:url(#SVGID_88_);fill:none;stroke:#000000;stroke-linejoin:round;stroke-miterlimit:10;}
	.st51{clip-path:url(#SVGID_90_);fill:none;stroke:#000000;stroke-linejoin:round;stroke-miterlimit:10;}
	.st52{clip-path:url(#SVGID_92_);fill:none;stroke:#000000;stroke-linejoin:round;stroke-miterlimit:10;}
	.st53{clip-path:url(#SVGID_94_);}
	.st54{clip-path:url(#SVGID_96_);}
	.st55{clip-path:url(#SVGID_98_);}
	.st56{clip-path:url(#SVGID_100_);}
	.st57{clip-path:url(#SVGID_102_);}
	.st58{clip-path:url(#SVGID_104_);fill:none;stroke:#000000;stroke-linejoin:round;stroke-miterlimit:10;}
	.st59{clip-path:url(#SVGID_106_);fill:none;stroke:#000000;stroke-linejoin:round;stroke-miterlimit:10;}
	.st60{clip-path:url(#SVGID_108_);fill:none;stroke:#000000;stroke-linejoin:round;stroke-miterlimit:10;}
	.st61{clip-path:url(#SVGID_110_);fill:none;stroke:#000000;stroke-linejoin:round;stroke-miterlimit:10;}
	.st62{clip-path:url(#SVGID_112_);fill:none;stroke:#000000;stroke-linejoin:round;stroke-miterlimit:10;}
	.st63{clip-path:url(#SVGID_114_);fill:none;stroke:#000000;stroke-linejoin:round;stroke-miterlimit:10;}
	.st64{clip-path:url(#SVGID_116_);fill:none;stroke:#000000;stroke-linejoin:round;stroke-miterlimit:10;}
	.st65{clip-path:url(#SVGID_118_);fill:none;stroke:#000000;stroke-linejoin:round;stroke-miterlimit:10;}
	.st66{clip-path:url(#SVGID_120_);}
	.st67{clip-path:url(#SVGID_122_);}
	.st68{clip-path:url(#SVGID_124_);}
	.st69{clip-path:url(#SVGID_126_);}
	.st70{clip-path:url(#SVGID_128_);}
	.st71{fill:none;stroke:#262626;stroke-width:1.25;stroke-linecap:square;stroke-miterlimit:10;}
	.st72{fill:none;stroke:#000000;stroke-width:4;stroke-linecap:round;stroke-linejoin:round;stroke-miterlimit:10;}
</style>
<g id="figure_1">
	<g id="patch_1">
		<path class="st0" d="M0,866.7h1728V0H0V866.7z"/>
	</g>
	<g id="axes_1">
		<g id="patch_2">
			<path class="st0" d="M216,780h1339.2V86.7H216V780z"/>
		</g>
		<g id="matplotlib.axis_1">
			<g id="xtick_1">
				<g id="line2d_1">
					<g>
						<g>
							<path id="mf85ec1f89c" class="st1" d="M216,780v6"/>
						</g>
					</g>
				</g>
				<g id="text_1">
					<text transform="matrix(1 0 0 1 205.8815 820.0211)" class="st2 st3 st4">2</text>
				</g>
			</g>
			<g id="xtick_2">
				<g id="line2d_2">
					<g>
						<g>
							<path id="mf85ec1f89c_1_" class="st1" d="M383.4,780v6"/>
						</g>
					</g>
				</g>
				<g id="text_2">
					<text transform="matrix(1 0 0 1 373.2815 820.0211)" class="st2 st3 st4">3</text>
				</g>
			</g>
			<g id="xtick_3">
				<g id="line2d_3">
					<g>
						<g>
							<path id="mf85ec1f89c_2_" class="st1" d="M550.8,780v6"/>
						</g>
					</g>
				</g>
				<g id="text_3">
					<text transform="matrix(1 0 0 1 540.6815 820.0211)" class="st2 st3 st4">4</text>
				</g>
			</g>
			<g id="xtick_4">
				<g id="line2d_4">
					<g>
						<g>
							<path id="mf85ec1f89c_3_" class="st1" d="M718.2,780v6"/>
						</g>
					</g>
				</g>
				<g id="text_4">
					<text transform="matrix(1 0 0 1 708.0815 820.0211)" class="st2 st3 st4">5</text>
				</g>
			</g>
			<g id="xtick_5">
				<g id="line2d_5">
					<g>
						<g>
							<path id="mf85ec1f89c_4_" class="st1" d="M885.6,780v6"/>
						</g>
					</g>
				</g>
				<g id="text_5">
					<text transform="matrix(1 0 0 1 875.4814 820.0211)" class="st2 st3 st4">6</text>
				</g>
			</g>
			<g id="xtick_6">
				<g id="line2d_6">
					<g>
						<g>
							<path id="mf85ec1f89c_5_" class="st1" d="M1053,780v6"/>
						</g>
					</g>
				</g>
				<g id="text_6">
					<text transform="matrix(1 0 0 1 1042.8815 820.0211)" class="st2 st3 st4">7</text>
				</g>
			</g>
			<g id="xtick_7">
				<g id="line2d_7">
					<g>
						<g>
							<path id="mf85ec1f89c_6_" class="st1" d="M1220.4,780v6"/>
						</g>
					</g>
				</g>
				<g id="text_7">
					<text transform="matrix(1 0 0 1 1210.2815 820.0211)" class="st2 st3 st4">8</text>
				</g>
			</g>
			<g id="xtick_8">
				<g id="line2d_8">
					<g>
						<g>
							<path id="mf85ec1f89c_7_" class="st1" d="M1387.8,780v6"/>
						</g>
					</g>
				</g>
				<g id="text_8">
					<text transform="matrix(1 0 0 1 1377.6815 820.0211)" class="st2 st3 st4">9</text>
				</g>
			</g>
			<g id="xtick_9">
				<g id="line2d_9">
					<g>
						<g>
							<path id="mf85ec1f89c_8_" class="st1" d="M1555.2,780v6"/>
						</g>
					</g>
				</g>
				<g id="text_9">
					<text transform="matrix(1 0 0 1 1540.6322 820.0211)" class="st2 st3 st4">10</text>
				</g>
			</g>
			<g id="text_10">
				<text transform="matrix(1 0 0 1 868.6815 852.1374)" class="st2 st3 st4">pH</text>
			</g>
		</g>
		<g id="matplotlib.axis_2">
			<g id="ytick_1">
				<g id="line2d_10">
					<g>
						<g>
							<path id="ma7b6f70c7f" class="st1" d="M216,773.2h-6"/>
						</g>
					</g>
				</g>
				<g id="text_11">
					<text transform="matrix(1 0 0 1 148.2112 782.9705)" class="st2 st3 st4">0.0</text>
				</g>
			</g>
			<g id="ytick_2">
				<g id="line2d_11">
					<g>
						<g>
							<path id="ma7b6f70c7f_1_" class="st1" d="M216,635.9h-6"/>
						</g>
					</g>
				</g>
				<g id="text_12">
					<text transform="matrix(1 0 0 1 148.2112 645.6716)" class="st2 st3 st4">0.2</text>
				</g>
			</g>
			<g id="ytick_3">
				<g id="line2d_12">
					<g>
						<g>
							<path id="ma7b6f70c7f_2_" class="st1" d="M216,498.6h-6"/>
						</g>
					</g>
				</g>
				<g id="text_13">
					<text transform="matrix(1 0 0 1 148.2112 508.3726)" class="st2 st3 st4">0.4</text>
				</g>
			</g>
			<g id="ytick_4">
				<g id="line2d_13">
					<g>
						<g>
							<path id="ma7b6f70c7f_3_" class="st1" d="M216,361.3h-6"/>
						</g>
					</g>
				</g>
				<g id="text_14">
					<text transform="matrix(1 0 0 1 148.2112 371.0736)" class="st2 st3 st4">0.6</text>
				</g>
			</g>
			<g id="ytick_5">
				<g id="line2d_14">
					<g>
						<g>
							<path id="ma7b6f70c7f_4_" class="st1" d="M216,224h-6"/>
						</g>
					</g>
				</g>
				<g id="text_15">
					<text transform="matrix(1 0 0 1 148.2112 233.7746)" class="st2 st3 st4">0.8</text>
				</g>
			</g>
			<g id="ytick_6">
				<g id="text_16">
					<text transform="matrix(1 0 0 1 148.2112 96.4755)" class="st2 st3 st4">1.0</text>
				</g>
			</g>
			<g id="text_17">
				<text transform="matrix(6.123234e-17 -1 1 6.123234e-17 117.0382 524.3094)" class="st2 st3 st4">Fraction Sorbed</text>
			</g>
		</g>
		<g id="Fit_line">
			<g>
				<defs>
					<rect id="SVGID_1_" x="216" y="86.7" width="1339.2" height="693.4"/>
				</defs>
				<clipPath id="SVGID_2_">
					<use xlink:href="#SVGID_1_"  style="overflow:visible;"/>
				</clipPath>
				<path class="st5" d="M216,773.2h16.7l0,0l0,0h16.7l0,0l0,0h16.7l0,0l0,0H283l0,0l0,0h16.7l0,0l0,0l16.7,0l0,0l0,0h16.7l0,0l0,0
					h16.7l0,0l0,0l16.7,0l0,0l0,0h16.7l0,0l0,0l16.7,0l0,0l0,0l16.7,0l0,0l0,0l16.7,0l0,0l0,0l16.7,0l0,0l0,0l16.7,0l0,0l0,0l16.7,0
					l0,0l0,0l16.7,0l0,0l0,0l16.7,0l0,0l0,0l16.7,0l0,0l0,0l16.7,0l0,0l0,0l16.7,0l0,0l0,0l16.7,0l0,0l0,0l16.7,0l0,0l0,0l16.7,0
					l0,0l0,0l16.7,0l0,0l0,0l16.7,0l0,0l0,0l16.7,0l0,0l0,0l16.7,0l0,0l0,0l16.7,0l0,0l0,0l16.7,0l0,0l0,0l16.7,0l0,0l0,0l16.7,0
					l0,0l0,0l16.7,0l0,0l0,0l16.7-0.1l0,0l0,0l16.7-0.1l0,0l0,0l16.7-0.1l0,0l0,0l16.7-0.1l0,0l0,0l16.7-0.2l0,0l0,0l16.7-0.2l0,0
					l0,0l16.7-0.3l0,0l0,0l16.7-0.4l0,0l0,0l16.7-0.5l0,0l0,0l16.7-0.7l0,0l0,0l16.7-1l0,0l0,0l16.7-1.3l0,0l0,0l16.7-1.7l0,0l0,0
					l16.7-2.2l0,0l0,0l16.7-2.9l0,0l0,0l16.7-3.8l0,0l0,0l16.7-4.9l0,0l0,0l16.7-6.3l0,0l0,0l16.7-8l0,0l0,0l16.7-10.2l0,0l0,0
					l16.7-12.8l0,0l0,0l16.7-16l0,0l0,0l16.7-19.8l0,0l0,0l16.7-24.1l0,0l0,0l16.7-28.8l0,0l0,0l16.7-33.7l0,0l0,0l16.7-38.5l0,0
					l0,0l16.7-42.8l0,0l0,0l16.7-46l0,0l0,0l16.7-47.7l0,0l0,0l16.7-47.6l0,0l0,0l16.7-45.7l0,0l0,0l16.7-42.2l0,0l0,0l16.7-37.6
					l0,0l0,0l16.7-32.5l0,0l0,0l16.7-27.2l0,0l0,0l16.7-22.2l0,0l0,0l16.7-17.8l0,0l0,0l16.7-14l0,0l0,0l16.7-10.9l16.7-8.4l0,0
					l16.7-6.4l0,0l16.7-4.8l0,0l16.7-3.6l0,0l16.7-2.7l0,0l16.7-2l0,0l16.7-1.5l0,0"/>
			</g>
		</g>
		<g id="_x31_0_Bq_Error_Bars">
			<g id="LineCollection_1">
				<g>
					<defs>
						<rect id="SVGID_3_" x="216" y="86.7" width="1339.2" height="693.4"/>
					</defs>
					<clipPath id="SVGID_4_">
						<use xlink:href="#SVGID_3_"  style="overflow:visible;"/>
					</clipPath>
					<path class="st6" d="M383.4,997.6"/>
				</g>
				<g>
					<defs>
						<rect id="SVGID_5_" x="216" y="86.7" width="1339.2" height="693.4"/>
					</defs>
					<clipPath id="SVGID_6_">
						<use xlink:href="#SVGID_5_"  style="overflow:visible;"/>
					</clipPath>
					<path class="st7" d="M718.2,885.6"/>
				</g>
				<g>
					<defs>
						<rect id="SVGID_7_" x="216" y="86.7" width="1339.2" height="693.4"/>
					</defs>
					<clipPath id="SVGID_8_">
						<use xlink:href="#SVGID_7_"  style="overflow:visible;"/>
					</clipPath>
					<path class="st8" d="M1050.9,731.2h1.9"/>
				</g>
			</g>
			<g id="LineCollection_2">
				<g>
					<defs>
						<rect id="SVGID_9_" x="216" y="86.7" width="1339.2" height="693.4"/>
					</defs>
					<clipPath id="SVGID_10_">
						<use xlink:href="#SVGID_9_"  style="overflow:visible;"/>
					</clipPath>
					<path class="st9" d="M383.4,1032.5"/>
				</g>
				<g>
					<defs>
						<rect id="SVGID_11_" x="216" y="86.7" width="1339.2" height="693.4"/>
					</defs>
					<clipPath id="SVGID_12_">
						<use xlink:href="#SVGID_11_"  style="overflow:visible;"/>
					</clipPath>
					<path class="st10" d="M718.2,867.7v-17"/>
				</g>
				<g>
					<defs>
						<rect id="SVGID_13_" x="216" y="86.7" width="1339.2" height="693.4"/>
					</defs>
					<clipPath id="SVGID_14_">
						<use xlink:href="#SVGID_13_"  style="overflow:visible;"/>
					</clipPath>
					<path class="st11" d="M1051.9,755.8v-49.2"/>
				</g>
			</g>
			<g id="line2d_16">
				<g>
					<defs>
						<rect id="SVGID_15_" x="216" y="86.7" width="1339.2" height="693.4"/>
					</defs>
					<clipPath id="SVGID_16_">
						<use xlink:href="#SVGID_15_"  style="overflow:visible;"/>
					</clipPath>
					<g class="st12">
						<g>
							<path id="mc6b707f319" class="st13" d="M383.4,1002.6v-10"/>
						</g>
						<g>
							<path id="mc6b707f319_1_" class="st13" d="M718.2,890.6v-10"/>
						</g>
						<g>
							<path id="mc6b707f319_2_" class="st13" d="M1050.9,736.2v-10"/>
						</g>
					</g>
				</g>
			</g>
			<g id="line2d_17">
				<g>
					<defs>
						<rect id="SVGID_17_" x="216" y="86.7" width="1339.2" height="693.4"/>
					</defs>
					<clipPath id="SVGID_18_">
						<use xlink:href="#SVGID_17_"  style="overflow:visible;"/>
					</clipPath>
					<g class="st14">
						<g>
							<path id="mc6b707f319_3_" class="st13" d="M383.4,1002.6v-10"/>
						</g>
						<g>
							<path id="mc6b707f319_4_" class="st13" d="M718.2,890.6v-10"/>
						</g>
						<g>
							<path id="mc6b707f319_5_" class="st13" d="M1052.9,736.2v-10"/>
						</g>
					</g>
				</g>
			</g>
			<g id="line2d_18">
				<g>
					<defs>
						<rect id="SVGID_19_" x="216" y="86.7" width="1339.2" height="693.4"/>
					</defs>
					<clipPath id="SVGID_20_">
						<use xlink:href="#SVGID_19_"  style="overflow:visible;"/>
					</clipPath>
					<g class="st15">
						<g>
							<path id="m2e94e1b5b7" class="st13" d="M388.4,1032.5h-10"/>
						</g>
						<g>
							<path id="m2e94e1b5b7_1_" class="st13" d="M723.2,920.5h-10"/>
						</g>
						<g>
							<path id="m2e94e1b5b7_2_" class="st13" d="M1056.9,755.8h-10"/>
						</g>
					</g>
				</g>
			</g>
			<g id="line2d_19">
				<g>
					<defs>
						<rect id="SVGID_21_" x="216" y="86.7" width="1339.2" height="693.4"/>
					</defs>
					<clipPath id="SVGID_22_">
						<use xlink:href="#SVGID_21_"  style="overflow:visible;"/>
					</clipPath>
					<g class="st16">
						<g>
							<path id="m2e94e1b5b7_3_" class="st13" d="M388.4,962.6h-10"/>
						</g>
						<g>
							<path id="m2e94e1b5b7_4_" class="st13" d="M723.2,850.7h-10"/>
						</g>
						<g>
							<path id="m2e94e1b5b7_5_" class="st13" d="M1056.9,706.6h-10"/>
						</g>
					</g>
				</g>
			</g>
		</g>
		<g id="_x31_0_Bq_Data_Points">
			<g>
				<defs>
					<rect id="SVGID_23_" x="216" y="86.7" width="1339.2" height="693.4"/>
				</defs>
				<clipPath id="SVGID_24_">
					<use xlink:href="#SVGID_23_"  style="overflow:visible;"/>
				</clipPath>
				<g class="st17">
					<g>
						<path id="m1f7819808b" class="st18" d="M383.4,1012.6l9-15l-9-15l-9,15L383.4,1012.6z"/>
					</g>
					<g>
						<path id="m1f7819808b_1_" class="st18" d="M718.2,900.6l9-15l-9-15l-9,15L718.2,900.6z"/>
					</g>
					<g>
						<path id="m1f7819808b_2_" class="st18" d="M1051.9,746.2l9-15l-9-15l-9,15L1051.9,746.2z"/>
					</g>
				</g>
			</g>
		</g>
		<g id="_x35_0_Bq_Error_Bars">
			<g id="LineCollection_3">
				<g>
					<defs>
						<rect id="SVGID_25_" x="216" y="86.7" width="1339.2" height="693.4"/>
					</defs>
					<clipPath id="SVGID_26_">
						<use xlink:href="#SVGID_25_"  style="overflow:visible;"/>
					</clipPath>
					<path class="st19" d="M383.4,818.5L383.4,818.5"/>
				</g>
				<g>
					<defs>
						<rect id="SVGID_27_" x="216" y="86.7" width="1339.2" height="693.4"/>
					</defs>
					<clipPath id="SVGID_28_">
						<use xlink:href="#SVGID_27_"  style="overflow:visible;"/>
					</clipPath>
					<path class="st20" d="M718.2,734h3.3"/>
				</g>
				<g>
					<defs>
						<rect id="SVGID_29_" x="216" y="86.7" width="1339.2" height="693.4"/>
					</defs>
					<clipPath id="SVGID_30_">
						<use xlink:href="#SVGID_29_"  style="overflow:visible;"/>
					</clipPath>
					<path class="st21" d="M1049.7,647.6h6.7"/>
				</g>
				<g>
					<defs>
						<rect id="SVGID_31_" x="216" y="86.7" width="1339.2" height="693.4"/>
					</defs>
					<clipPath id="SVGID_32_">
						<use xlink:href="#SVGID_31_"  style="overflow:visible;"/>
					</clipPath>
					<path class="st22" d="M1383.2,167.3h5.8"/>
				</g>
			</g>
			<g id="LineCollection_4">
				<g>
					<defs>
						<rect id="SVGID_33_" x="216" y="86.7" width="1339.2" height="693.4"/>
					</defs>
					<clipPath id="SVGID_34_">
						<use xlink:href="#SVGID_33_"  style="overflow:visible;"/>
					</clipPath>
					<path class="st23" d="M383.4,846V791"/>
				</g>
				<g>
					<defs>
						<rect id="SVGID_35_" x="216" y="86.7" width="1339.2" height="693.4"/>
					</defs>
					<clipPath id="SVGID_36_">
						<use xlink:href="#SVGID_35_"  style="overflow:visible;"/>
					</clipPath>
					<path class="st24" d="M719.9,780.4v-92.7"/>
				</g>
				<g>
					<defs>
						<rect id="SVGID_37_" x="216" y="86.7" width="1339.2" height="693.4"/>
					</defs>
					<clipPath id="SVGID_38_">
						<use xlink:href="#SVGID_37_"  style="overflow:visible;"/>
					</clipPath>
					<path class="st25" d="M1053,680.7v-66.3"/>
				</g>
				<g>
					<defs>
						<rect id="SVGID_39_" x="216" y="86.7" width="1339.2" height="693.4"/>
					</defs>
					<clipPath id="SVGID_40_">
						<use xlink:href="#SVGID_39_"  style="overflow:visible;"/>
					</clipPath>
					<path class="st26" d="M1386.1,175.8v-17"/>
				</g>
			</g>
			<g id="line2d_21">
				<g>
					<defs>
						<rect id="SVGID_41_" x="216" y="86.7" width="1339.2" height="693.4"/>
					</defs>
					<clipPath id="SVGID_42_">
						<use xlink:href="#SVGID_41_"  style="overflow:visible;"/>
					</clipPath>
					<g class="st27">
						<g>
							<path id="mc6b707f319_6_" class="st13" d="M383.4,823.5v-10"/>
						</g>
						<g>
							<path id="mc6b707f319_7_" class="st13" d="M718.2,739v-10"/>
						</g>
						<g>
							<path id="mc6b707f319_8_" class="st13" d="M1049.7,652.6v-10"/>
						</g>
						<g>
							<path id="mc6b707f319_9_" class="st13" d="M1383.2,172.3v-10"/>
						</g>
					</g>
				</g>
			</g>
			<g id="line2d_22">
				<g>
					<defs>
						<rect id="SVGID_43_" x="216" y="86.7" width="1339.2" height="693.4"/>
					</defs>
					<clipPath id="SVGID_44_">
						<use xlink:href="#SVGID_43_"  style="overflow:visible;"/>
					</clipPath>
					<g class="st28">
						<g>
							<path id="mc6b707f319_10_" class="st13" d="M383.4,823.5v-10"/>
						</g>
						<g>
							<path id="mc6b707f319_11_" class="st13" d="M721.5,739v-10"/>
						</g>
						<g>
							<path id="mc6b707f319_12_" class="st13" d="M1056.3,652.6v-10"/>
						</g>
						<g>
							<path id="mc6b707f319_13_" class="st13" d="M1389,172.3v-10"/>
						</g>
					</g>
				</g>
			</g>
			<g id="line2d_23">
				<g>
					<defs>
						<rect id="SVGID_45_" x="216" y="86.7" width="1339.2" height="693.4"/>
					</defs>
					<clipPath id="SVGID_46_">
						<use xlink:href="#SVGID_45_"  style="overflow:visible;"/>
					</clipPath>
					<g class="st29">
						<g>
							<path id="m2e94e1b5b7_6_" class="st13" d="M388.4,846h-10"/>
						</g>
						<g>
							<path id="m2e94e1b5b7_7_" class="st13" d="M724.9,780.4h-10"/>
						</g>
						<g>
							<path id="m2e94e1b5b7_8_" class="st13" d="M1058,680.7h-10"/>
						</g>
						<g>
							<path id="m2e94e1b5b7_9_" class="st13" d="M1391.1,175.8h-10"/>
						</g>
					</g>
				</g>
			</g>
			<g id="line2d_24">
				<g>
					<defs>
						<rect id="SVGID_47_" x="216" y="86.7" width="1339.2" height="693.4"/>
					</defs>
					<clipPath id="SVGID_48_">
						<use xlink:href="#SVGID_47_"  style="overflow:visible;"/>
					</clipPath>
					<g class="st30">
						<g>
							<path id="m2e94e1b5b7_10_" class="st13" d="M388.4,791h-10"/>
						</g>
						<g>
							<path id="m2e94e1b5b7_11_" class="st13" d="M724.9,687.6h-10"/>
						</g>
						<g>
							<path id="m2e94e1b5b7_12_" class="st13" d="M1058,614.5h-10"/>
						</g>
						<g>
							<path id="m2e94e1b5b7_13_" class="st13" d="M1391.1,158.8h-10"/>
						</g>
					</g>
				</g>
			</g>
		</g>
		<g id="_x35_0_Bq_Data_Points">
			<g>
				<defs>
					<rect id="SVGID_49_" x="216" y="86.7" width="1339.2" height="693.4"/>
				</defs>
				<clipPath id="SVGID_50_">
					<use xlink:href="#SVGID_49_"  style="overflow:visible;"/>
				</clipPath>
				<g class="st31">
					<g>
						<path id="mf4475be836" class="st18" d="M383.4,804l-14.3,10.4l5.4,16.8h17.6l5.4-16.8L383.4,804z"/>
					</g>
					<g>
						<path id="mf4475be836_1_" class="st18" d="M719.9,719.5l-14.3,10.4l5.4,16.8h17.6l5.4-16.8L719.9,719.5z"/>
					</g>
					<g>
						<path id="mf4475be836_2_" class="st18" d="M1053,633.1l-14.3,10.4l5.4,16.8h17.6l5.4-16.8L1053,633.1z"/>
					</g>
					<g>
						<path id="mf4475be836_3_" class="st18" d="M1386.1,152.8l-14.3,10.4l5.4,16.8h17.6l5.4-16.8L1386.1,152.8z"/>
					</g>
				</g>
			</g>
		</g>
		<g id="_x31_00_Bq_Error_Bars">
			<g id="LineCollection_5">
				<g>
					<defs>
						<rect id="SVGID_51_" x="216" y="86.7" width="1339.2" height="693.4"/>
					</defs>
					<clipPath id="SVGID_52_">
						<use xlink:href="#SVGID_51_"  style="overflow:visible;"/>
					</clipPath>
					<path class="st32" d="M383.4,812.2L383.4,812.2"/>
				</g>
				<g>
					<defs>
						<rect id="SVGID_53_" x="216" y="86.7" width="1339.2" height="693.4"/>
					</defs>
					<clipPath id="SVGID_54_">
						<use xlink:href="#SVGID_53_"  style="overflow:visible;"/>
					</clipPath>
					<path class="st33" d="M717,771.8h2.4"/>
				</g>
				<g>
					<defs>
						<rect id="SVGID_55_" x="216" y="86.7" width="1339.2" height="693.4"/>
					</defs>
					<clipPath id="SVGID_56_">
						<use xlink:href="#SVGID_55_"  style="overflow:visible;"/>
					</clipPath>
					<path class="st34" d="M1051.7,681.5h3.7"/>
				</g>
				<g>
					<defs>
						<rect id="SVGID_57_" x="216" y="86.7" width="1339.2" height="693.4"/>
					</defs>
					<clipPath id="SVGID_58_">
						<use xlink:href="#SVGID_57_"  style="overflow:visible;"/>
					</clipPath>
					<path class="st35" d="M1385.4,179.3h4.9"/>
				</g>
			</g>
			<g id="LineCollection_6">
				<g>
					<defs>
						<rect id="SVGID_59_" x="216" y="86.7" width="1339.2" height="693.4"/>
					</defs>
					<clipPath id="SVGID_60_">
						<use xlink:href="#SVGID_59_"  style="overflow:visible;"/>
					</clipPath>
					<path class="st36" d="M383.4,849.8v-75.2"/>
				</g>
				<g>
					<defs>
						<rect id="SVGID_61_" x="216" y="86.7" width="1339.2" height="693.4"/>
					</defs>
					<clipPath id="SVGID_62_">
						<use xlink:href="#SVGID_61_"  style="overflow:visible;"/>
					</clipPath>
					<path class="st37" d="M718.2,785.1v-26.7"/>
				</g>
				<g>
					<defs>
						<rect id="SVGID_63_" x="216" y="86.7" width="1339.2" height="693.4"/>
					</defs>
					<clipPath id="SVGID_64_">
						<use xlink:href="#SVGID_63_"  style="overflow:visible;"/>
					</clipPath>
					<path class="st38" d="M1053.6,721.8v-80.7"/>
				</g>
				<g>
					<defs>
						<rect id="SVGID_65_" x="216" y="86.7" width="1339.2" height="693.4"/>
					</defs>
					<clipPath id="SVGID_66_">
						<use xlink:href="#SVGID_65_"  style="overflow:visible;"/>
					</clipPath>
					<path class="st39" d="M1387.8,193.7V165"/>
				</g>
			</g>
			<g id="line2d_26">
				<g>
					<defs>
						<rect id="SVGID_67_" x="216" y="86.7" width="1339.2" height="693.4"/>
					</defs>
					<clipPath id="SVGID_68_">
						<use xlink:href="#SVGID_67_"  style="overflow:visible;"/>
					</clipPath>
					<g class="st40">
						<g>
							<path id="mc6b707f319_14_" class="st13" d="M383.4,817.2v-10"/>
						</g>
						<g>
							<path id="mc6b707f319_15_" class="st13" d="M717,776.8v-10"/>
						</g>
						<g>
							<path id="mc6b707f319_16_" class="st13" d="M1051.7,686.5v-10"/>
						</g>
						<g>
							<path id="mc6b707f319_17_" class="st13" d="M1385.4,184.3v-10"/>
						</g>
					</g>
				</g>
			</g>
			<g id="line2d_27">
				<g>
					<defs>
						<rect id="SVGID_69_" x="216" y="86.7" width="1339.2" height="693.4"/>
					</defs>
					<clipPath id="SVGID_70_">
						<use xlink:href="#SVGID_69_"  style="overflow:visible;"/>
					</clipPath>
					<g class="st41">
						<g>
							<path id="mc6b707f319_18_" class="st13" d="M383.4,817.2v-10"/>
						</g>
						<g>
							<path id="mc6b707f319_19_" class="st13" d="M719.4,776.8v-10"/>
						</g>
						<g>
							<path id="mc6b707f319_20_" class="st13" d="M1055.4,686.5v-10"/>
						</g>
						<g>
							<path id="mc6b707f319_21_" class="st13" d="M1390.2,184.3v-10"/>
						</g>
					</g>
				</g>
			</g>
			<g id="line2d_28">
				<g>
					<defs>
						<rect id="SVGID_71_" x="216" y="86.7" width="1339.2" height="693.4"/>
					</defs>
					<clipPath id="SVGID_72_">
						<use xlink:href="#SVGID_71_"  style="overflow:visible;"/>
					</clipPath>
					<g class="st42">
						<g>
							<path id="m2e94e1b5b7_14_" class="st13" d="M388.4,849.8h-10"/>
						</g>
						<g>
							<path id="m2e94e1b5b7_15_" class="st13" d="M723.2,785.1h-10"/>
						</g>
						<g>
							<path id="m2e94e1b5b7_16_" class="st13" d="M1058.6,721.8h-10"/>
						</g>
						<g>
							<path id="m2e94e1b5b7_17_" class="st13" d="M1392.8,193.7h-10"/>
						</g>
					</g>
				</g>
			</g>
			<g id="line2d_29">
				<g>
					<defs>
						<rect id="SVGID_73_" x="216" y="86.7" width="1339.2" height="693.4"/>
					</defs>
					<clipPath id="SVGID_74_">
						<use xlink:href="#SVGID_73_"  style="overflow:visible;"/>
					</clipPath>
					<g class="st43">
						<g>
							<path id="m2e94e1b5b7_18_" class="st13" d="M388.4,774.6h-10"/>
						</g>
						<g>
							<path id="m2e94e1b5b7_19_" class="st13" d="M723.2,758.4h-10"/>
						</g>
						<g>
							<path id="m2e94e1b5b7_20_" class="st13" d="M1058.6,641.1h-10"/>
						</g>
						<g>
							<path id="m2e94e1b5b7_21_" class="st13" d="M1392.8,165h-10"/>
						</g>
					</g>
				</g>
			</g>
		</g>
		<g id="_x31_00_Bq_Data_Points">
			<g>
				<defs>
					<rect id="SVGID_75_" x="216" y="86.7" width="1339.2" height="693.4"/>
				</defs>
				<clipPath id="SVGID_76_">
					<use xlink:href="#SVGID_75_"  style="overflow:visible;"/>
				</clipPath>
				<g class="st44">
					<g>
						<path id="m9119faf352" class="st18" d="M368.4,827.2h30v-30h-30V827.2z"/>
					</g>
					<g>
						<path id="m9119faf352_1_" class="st18" d="M703.2,786.8h30v-30h-30V786.8z"/>
					</g>
					<g>
						<path id="m9119faf352_2_" class="st18" d="M1038.6,696.5h30v-30h-30V696.5z"/>
					</g>
					<g>
						<path id="m9119faf352_3_" class="st18" d="M1372.8,194.3h30v-30h-30V194.3z"/>
					</g>
				</g>
			</g>
		</g>
		<g id="_x32_50_Bq_Error_Bars">
			<g id="LineCollection_7">
				<g>
					<defs>
						<rect id="SVGID_77_" x="216" y="86.7" width="1339.2" height="693.4"/>
					</defs>
					<clipPath id="SVGID_78_">
						<use xlink:href="#SVGID_77_"  style="overflow:visible;"/>
					</clipPath>
					<path class="st45" d="M383,794.3h1.9"/>
				</g>
				<g>
					<defs>
						<rect id="SVGID_79_" x="216" y="86.7" width="1339.2" height="693.4"/>
					</defs>
					<clipPath id="SVGID_80_">
						<use xlink:href="#SVGID_79_"  style="overflow:visible;"/>
					</clipPath>
					<path class="st46" d="M718.3,709.8h1.9"/>
				</g>
				<g>
					<defs>
						<rect id="SVGID_81_" x="216" y="86.7" width="1339.2" height="693.4"/>
					</defs>
					<clipPath id="SVGID_82_">
						<use xlink:href="#SVGID_81_"  style="overflow:visible;"/>
					</clipPath>
					<path class="st47" d="M1050.9,651.4h1.9"/>
				</g>
				<g>
					<defs>
						<rect id="SVGID_83_" x="216" y="86.7" width="1339.2" height="693.4"/>
					</defs>
					<clipPath id="SVGID_84_">
						<use xlink:href="#SVGID_83_"  style="overflow:visible;"/>
					</clipPath>
					<path class="st48" d="M1387,227.6h3.9"/>
				</g>
			</g>
			<g id="LineCollection_8">
				<g>
					<defs>
						<rect id="SVGID_85_" x="216" y="86.7" width="1339.2" height="693.4"/>
					</defs>
					<clipPath id="SVGID_86_">
						<use xlink:href="#SVGID_85_"  style="overflow:visible;"/>
					</clipPath>
					<path class="st49" d="M384,810.5v-32.4"/>
				</g>
				<g>
					<defs>
						<rect id="SVGID_87_" x="216" y="86.7" width="1339.2" height="693.4"/>
					</defs>
					<clipPath id="SVGID_88_">
						<use xlink:href="#SVGID_87_"  style="overflow:visible;"/>
					</clipPath>
					<path class="st50" d="M719.3,755.5V664"/>
				</g>
				<g>
					<defs>
						<rect id="SVGID_89_" x="216" y="86.7" width="1339.2" height="693.4"/>
					</defs>
					<clipPath id="SVGID_90_">
						<use xlink:href="#SVGID_89_"  style="overflow:visible;"/>
					</clipPath>
					<path class="st51" d="M1051.9,668.7v-34.6"/>
				</g>
				<g>
					<defs>
						<rect id="SVGID_91_" x="216" y="86.7" width="1339.2" height="693.4"/>
					</defs>
					<clipPath id="SVGID_92_">
						<use xlink:href="#SVGID_91_"  style="overflow:visible;"/>
					</clipPath>
					<path class="st52" d="M1388.9,249.4v-43.6"/>
				</g>
			</g>
			<g id="line2d_31">
				<g>
					<defs>
						<rect id="SVGID_93_" x="216" y="86.7" width="1339.2" height="693.4"/>
					</defs>
					<clipPath id="SVGID_94_">
						<use xlink:href="#SVGID_93_"  style="overflow:visible;"/>
					</clipPath>
					<g class="st53">
						<g>
							<path id="mc6b707f319_22_" class="st13" d="M383,799.3v-10"/>
						</g>
						<g>
							<path id="mc6b707f319_23_" class="st13" d="M718.3,714.8v-10"/>
						</g>
						<g>
							<path id="mc6b707f319_24_" class="st13" d="M1050.9,656.4v-10"/>
						</g>
						<g>
							<path id="mc6b707f319_25_" class="st13" d="M1387,232.6v-10"/>
						</g>
					</g>
				</g>
			</g>
			<g id="line2d_32">
				<g>
					<defs>
						<rect id="SVGID_95_" x="216" y="86.7" width="1339.2" height="693.4"/>
					</defs>
					<clipPath id="SVGID_96_">
						<use xlink:href="#SVGID_95_"  style="overflow:visible;"/>
					</clipPath>
					<g class="st54">
						<g>
							<path id="mc6b707f319_26_" class="st13" d="M384.9,799.3v-10"/>
						</g>
						<g>
							<path id="mc6b707f319_27_" class="st13" d="M720.3,714.8v-10"/>
						</g>
						<g>
							<path id="mc6b707f319_28_" class="st13" d="M1052.9,656.4v-10"/>
						</g>
						<g>
							<path id="mc6b707f319_29_" class="st13" d="M1390.8,232.6v-10"/>
						</g>
					</g>
				</g>
			</g>
			<g id="line2d_33">
				<g>
					<defs>
						<rect id="SVGID_97_" x="216" y="86.7" width="1339.2" height="693.4"/>
					</defs>
					<clipPath id="SVGID_98_">
						<use xlink:href="#SVGID_97_"  style="overflow:visible;"/>
					</clipPath>
					<g class="st55">
						<g>
							<path id="m2e94e1b5b7_22_" class="st13" d="M389,810.5h-10"/>
						</g>
						<g>
							<path id="m2e94e1b5b7_23_" class="st13" d="M724.3,755.5h-10"/>
						</g>
						<g>
							<path id="m2e94e1b5b7_24_" class="st13" d="M1056.9,668.7h-10"/>
						</g>
						<g>
							<path id="m2e94e1b5b7_25_" class="st13" d="M1393.9,249.4h-10"/>
						</g>
					</g>
				</g>
			</g>
			<g id="line2d_34">
				<g>
					<defs>
						<rect id="SVGID_99_" x="216" y="86.7" width="1339.2" height="693.4"/>
					</defs>
					<clipPath id="SVGID_100_">
						<use xlink:href="#SVGID_99_"  style="overflow:visible;"/>
					</clipPath>
					<g class="st56">
						<g>
							<path id="m2e94e1b5b7_26_" class="st13" d="M389,778.1h-10"/>
						</g>
						<g>
							<path id="m2e94e1b5b7_27_" class="st13" d="M724.3,664h-10"/>
						</g>
						<g>
							<path id="m2e94e1b5b7_28_" class="st13" d="M1056.9,634.1h-10"/>
						</g>
						<g>
							<path id="m2e94e1b5b7_29_" class="st13" d="M1393.9,205.8h-10"/>
						</g>
					</g>
				</g>
			</g>
		</g>
		<g id="_x32_50_Bq_Data_Points">
			<g>
				<defs>
					<rect id="SVGID_101_" x="216" y="86.7" width="1339.2" height="693.4"/>
				</defs>
				<clipPath id="SVGID_102_">
					<use xlink:href="#SVGID_101_"  style="overflow:visible;"/>
				</clipPath>
				<g class="st57">
					<g>
						<path id="m0dd09b8efa" class="st18" d="M384,779.3l-15,30h30L384,779.3z"/>
					</g>
					<g>
						<path id="m0dd09b8efa_1_" class="st18" d="M719.3,694.8l-15,30h30L719.3,694.8z"/>
					</g>
					<g>
						<path id="m0dd09b8efa_2_" class="st18" d="M1051.9,636.4l-15,30h30L1051.9,636.4z"/>
					</g>
					<g>
						<path id="m0dd09b8efa_3_" class="st18" d="M1388.9,212.6l-15,30h30L1388.9,212.6z"/>
					</g>
				</g>
			</g>
		</g>
		<g id="_x35_00_Bq_Error_Bars">
			<g id="LineCollection_9">
				<g>
					<defs>
						<rect id="SVGID_103_" x="216" y="86.7" width="1339.2" height="693.4"/>
					</defs>
					<clipPath id="SVGID_104_">
						<use xlink:href="#SVGID_103_"  style="overflow:visible;"/>
					</clipPath>
					<path class="st58" d="M383.4,795.2L383.4,795.2"/>
				</g>
				<g>
					<defs>
						<rect id="SVGID_105_" x="216" y="86.7" width="1339.2" height="693.4"/>
					</defs>
					<clipPath id="SVGID_106_">
						<use xlink:href="#SVGID_105_"  style="overflow:visible;"/>
					</clipPath>
					<path class="st59" d="M717.4,721.6h3.9"/>
				</g>
				<g>
					<defs>
						<rect id="SVGID_107_" x="216" y="86.7" width="1339.2" height="693.4"/>
					</defs>
					<clipPath id="SVGID_108_">
						<use xlink:href="#SVGID_107_"  style="overflow:visible;"/>
					</clipPath>
					<path class="st60" d="M1052.6,674.4h1.9"/>
				</g>
				<g>
					<defs>
						<rect id="SVGID_109_" x="216" y="86.7" width="1339.2" height="693.4"/>
					</defs>
					<clipPath id="SVGID_110_">
						<use xlink:href="#SVGID_109_"  style="overflow:visible;"/>
					</clipPath>
					<path class="st61" d="M1387.4,229.1h1.9"/>
				</g>
			</g>
			<g id="LineCollection_10">
				<g>
					<defs>
						<rect id="SVGID_111_" x="216" y="86.7" width="1339.2" height="693.4"/>
					</defs>
					<clipPath id="SVGID_112_">
						<use xlink:href="#SVGID_111_"  style="overflow:visible;"/>
					</clipPath>
					<path class="st62" d="M383.4,805.2v-19.9"/>
				</g>
				<g>
					<defs>
						<rect id="SVGID_113_" x="216" y="86.7" width="1339.2" height="693.4"/>
					</defs>
					<clipPath id="SVGID_114_">
						<use xlink:href="#SVGID_113_"  style="overflow:visible;"/>
					</clipPath>
					<path class="st63" d="M719.3,733.5v-23.9"/>
				</g>
				<g>
					<defs>
						<rect id="SVGID_115_" x="216" y="86.7" width="1339.2" height="693.4"/>
					</defs>
					<clipPath id="SVGID_116_">
						<use xlink:href="#SVGID_115_"  style="overflow:visible;"/>
					</clipPath>
					<path class="st64" d="M1053.6,688.9V660"/>
				</g>
				<g>
					<defs>
						<rect id="SVGID_117_" x="216" y="86.7" width="1339.2" height="693.4"/>
					</defs>
					<clipPath id="SVGID_118_">
						<use xlink:href="#SVGID_117_"  style="overflow:visible;"/>
					</clipPath>
					<path class="st65" d="M1388.4,237.4v-16.7"/>
				</g>
			</g>
			<g id="line2d_36">
				<g>
					<defs>
						<rect id="SVGID_119_" x="216" y="86.7" width="1339.2" height="693.4"/>
					</defs>
					<clipPath id="SVGID_120_">
						<use xlink:href="#SVGID_119_"  style="overflow:visible;"/>
					</clipPath>
					<g class="st66">
						<g>
							<path id="mc6b707f319_30_" class="st13" d="M383.4,800.2v-10"/>
						</g>
						<g>
							<path id="mc6b707f319_31_" class="st13" d="M717.4,726.6v-10"/>
						</g>
						<g>
							<path id="mc6b707f319_32_" class="st13" d="M1052.6,679.4v-10"/>
						</g>
						<g>
							<path id="mc6b707f319_33_" class="st13" d="M1387.4,234.1v-10"/>
						</g>
					</g>
				</g>
			</g>
			<g id="line2d_37">
				<g>
					<defs>
						<rect id="SVGID_121_" x="216" y="86.7" width="1339.2" height="693.4"/>
					</defs>
					<clipPath id="SVGID_122_">
						<use xlink:href="#SVGID_121_"  style="overflow:visible;"/>
					</clipPath>
					<g class="st67">
						<g>
							<path id="mc6b707f319_34_" class="st13" d="M383.4,800.2v-10"/>
						</g>
						<g>
							<path id="mc6b707f319_35_" class="st13" d="M721.2,726.6v-10"/>
						</g>
						<g>
							<path id="mc6b707f319_36_" class="st13" d="M1054.5,679.4v-10"/>
						</g>
						<g>
							<path id="mc6b707f319_37_" class="st13" d="M1389.3,234.1v-10"/>
						</g>
					</g>
				</g>
			</g>
			<g id="line2d_38">
				<g>
					<defs>
						<rect id="SVGID_123_" x="216" y="86.7" width="1339.2" height="693.4"/>
					</defs>
					<clipPath id="SVGID_124_">
						<use xlink:href="#SVGID_123_"  style="overflow:visible;"/>
					</clipPath>
					<g class="st68">
						<g>
							<path id="m2e94e1b5b7_30_" class="st13" d="M388.4,805.2h-10"/>
						</g>
						<g>
							<path id="m2e94e1b5b7_31_" class="st13" d="M724.3,733.5h-10"/>
						</g>
						<g>
							<path id="m2e94e1b5b7_32_" class="st13" d="M1058.6,688.9h-10"/>
						</g>
						<g>
							<path id="m2e94e1b5b7_33_" class="st13" d="M1393.4,237.4h-10"/>
						</g>
					</g>
				</g>
			</g>
			<g id="line2d_39">
				<g>
					<defs>
						<rect id="SVGID_125_" x="216" y="86.7" width="1339.2" height="693.4"/>
					</defs>
					<clipPath id="SVGID_126_">
						<use xlink:href="#SVGID_125_"  style="overflow:visible;"/>
					</clipPath>
					<g class="st69">
						<g>
							<path id="m2e94e1b5b7_34_" class="st13" d="M388.4,785.2h-10"/>
						</g>
						<g>
							<path id="m2e94e1b5b7_35_" class="st13" d="M724.3,709.6h-10"/>
						</g>
						<g>
							<path id="m2e94e1b5b7_36_" class="st13" d="M1058.6,660h-10"/>
						</g>
						<g>
							<path id="m2e94e1b5b7_37_" class="st13" d="M1393.4,220.8h-10"/>
						</g>
					</g>
				</g>
			</g>
		</g>
		<g id="_x35_00_Bq_Data_Points">
			<g>
				<defs>
					<rect id="SVGID_127_" x="216" y="86.7" width="1339.2" height="693.4"/>
				</defs>
				<clipPath id="SVGID_128_">
					<use xlink:href="#SVGID_127_"  style="overflow:visible;"/>
				</clipPath>
				<g class="st70">
					<g>
						<path id="m72b1139d61" class="st13" d="M383.4,810.2c4,0,7.8-1.6,10.6-4.4s4.4-6.6,4.4-10.6s-1.6-7.8-4.4-10.6
							s-6.6-4.4-10.6-4.4s-7.8,1.6-10.6,4.4s-4.4,6.6-4.4,10.6s1.6,7.8,4.4,10.6S379.4,810.2,383.4,810.2z"/>
					</g>
					<g>
						<path id="m72b1139d61_1_" class="st13" d="M719.3,736.6c4,0,7.8-1.6,10.6-4.4s4.4-6.6,4.4-10.6s-1.6-7.8-4.4-10.6
							s-6.6-4.4-10.6-4.4s-7.8,1.6-10.6,4.4s-4.4,6.6-4.4,10.6s1.6,7.8,4.4,10.6S715.3,736.6,719.3,736.6z"/>
					</g>
					<g>
						<path id="m72b1139d61_2_" class="st13" d="M1053.6,689.4c4,0,7.8-1.6,10.6-4.4c2.8-2.8,4.4-6.6,4.4-10.6s-1.6-7.8-4.4-10.6
							c-2.8-2.8-6.6-4.4-10.6-4.4s-7.8,1.6-10.6,4.4c-2.8,2.8-4.4,6.6-4.4,10.6s1.6,7.8,4.4,10.6
							C1045.8,687.9,1049.6,689.4,1053.6,689.4z"/>
					</g>
					<g>
						<path id="m72b1139d61_3_" class="st13" d="M1388.4,244.1c4,0,7.8-1.6,10.6-4.4c2.8-2.8,4.4-6.6,4.4-10.6s-1.6-7.8-4.4-10.6
							c-2.8-2.8-6.6-4.4-10.6-4.4s-7.8,1.6-10.6,4.4c-2.8,2.8-4.4,6.6-4.4,10.6s1.6,7.8,4.4,10.6
							C1380.6,242.5,1384.4,244.1,1388.4,244.1z"/>
					</g>
				</g>
			</g>
		</g>
		<g id="Horizontal_Axis">
			<path class="st71" d="M216,780h1339.2"/>
		</g>
		<g id="Vertical_Axis">
			<path class="st71" d="M216,780V86.7"/>
		</g>
		<g id="text_18">
		</g>
		<g id="legend_1">
			<g id="line2d_41">
				<path class="st72" d="M230.4,92.7h32"/>
			</g>
			<g id="line2d_42">
			</g>
			<g id="text_19">
				<text transform="matrix(1 0 0 1 275.2 106.8532)" class="st2 st3 st4">1 site 1 rxn, K1: 2.3 0.00012 mol sites</text>
			</g>
			<g id="line2d_43">
			</g>
			<g id="line2d_44">
				<g>
					<g>
						<path id="m1f7819808b_3_" class="st18" d="M246.4,144.6l9-15l-9-15l-9,15L246.4,144.6z"/>
					</g>
				</g>
			</g>
			<g id="text_20">
				<text transform="matrix(1 0 0 1 275.2 143.7065)" class="st2 st3 st4">Experimental Data 10 Bq Total</text>
			</g>
			<g id="line2d_45">
			</g>
			<g id="line2d_46">
				<g>
					<g>
						<path id="mf4475be836_4_" class="st18" d="M246.4,151.9l-14.3,10.4l5.4,16.8h17.6l5.4-16.8L246.4,151.9z"/>
					</g>
				</g>
			</g>
			<g id="text_21">
				<text transform="matrix(1 0 0 1 275.2 180.5597)" class="st2 st3 st4">Experimental Data 50 Bq Total</text>
			</g>
			<g id="line2d_47">
			</g>
			<g id="line2d_48">
				<g>
					<g>
						<path id="m9119faf352_4_" class="st18" d="M231.4,221.1h30v-30h-30V221.1z"/>
					</g>
				</g>
			</g>
			<g id="text_22">
				<text transform="matrix(1 0 0 1 275.2 220.2477)" class="st2 st3 st4">Experimental Data 100 Bq Total</text>
			</g>
			<g id="line2d_49">
			</g>
			<g id="line2d_50">
				<g>
					<g>
						<path id="m0dd09b8efa_4_" class="st18" d="M246.4,230.8l-15,30h30L246.4,230.8z"/>
					</g>
				</g>
			</g>
			<g id="text_23">
				<text transform="matrix(1 0 0 1 275.2 259.9356)" class="st2 st3 st4">Experimental Data 250 Bq Total</text>
			</g>
			<g id="line2d_51">
			</g>
			<g id="line2d_52">
				<g>
					<g>
						<path id="m72b1139d61_4_" class="st13" d="M246.4,300.5c4,0,7.8-1.6,10.6-4.4s4.4-6.6,4.4-10.6s-1.6-7.8-4.4-10.6
							s-6.6-4.4-10.6-4.4s-7.8,1.6-10.6,4.4c-2.8,2.8-4.4,6.6-4.4,10.6s1.6,7.8,4.4,10.6C238.6,298.9,242.4,300.5,246.4,300.5z"/>
					</g>
				</g>
			</g>
			<g id="text_24">
				<text transform="matrix(1 0 0 1 275.2 299.6234)" class="st2 st3 st4">Experimental Data 500 Bq Total</text>
			</g>
		</g>
	</g>
</g>
</svg>
