<?xml version="1.0" encoding="utf-8"?>
<!-- Generator: Adobe Illustrator 20.1.0, SVG Export Plug-In . SVG Version: 6.00 Build 0)  -->
<svg version="1.1" id="Layer_1" xmlns="http://www.w3.org/2000/svg" xmlns:xlink="http://www.w3.org/1999/xlink" x="0px" y="0px"
	 viewBox="0 0 1275.6 988.8" style="enable-background:new 0 0 1275.6 988.8;" xml:space="preserve">
<style type="text/css">
	.st0{fill:#FFFFFF;}
	.st1{fill:none;stroke:#262626;stroke-width:1.6;stroke-linejoin:round;stroke-miterlimit:10;}
	.st2{fill:#262626;}
	.st3{font-family:'ArialMT';}
	.st4{font-size:36px;}
	
		.st5{clip-path:url(#SVGID_2_);fill:none;stroke:#000000;stroke-width:4;stroke-linecap:round;stroke-linejoin:round;stroke-miterlimit:10;}
	.st6{clip-path:url(#SVGID_4_);fill:none;stroke:#000000;stroke-linejoin:round;stroke-miterlimit:10;}
	.st7{clip-path:url(#SVGID_6_);fill:none;stroke:#000000;stroke-linejoin:round;stroke-miterlimit:10;}
	.st8{clip-path:url(#SVGID_8_);fill:none;stroke:#000000;stroke-linejoin:round;stroke-miterlimit:10;}
	.st9{clip-path:url(#SVGID_10_);fill:none;stroke:#000000;stroke-linejoin:round;stroke-miterlimit:10;}
	.st10{clip-path:url(#SVGID_12_);fill:none;stroke:#000000;stroke-linejoin:round;stroke-miterlimit:10;}
	.st11{clip-path:url(#SVGID_14_);fill:none;stroke:#000000;stroke-linejoin:round;stroke-miterlimit:10;}
	.st12{clip-path:url(#SVGID_16_);fill:none;stroke:#000000;stroke-linejoin:round;stroke-miterlimit:10;}
	.st13{clip-path:url(#SVGID_18_);fill:none;stroke:#000000;stroke-linejoin:round;stroke-miterlimit:10;}
	.st14{clip-path:url(#SVGID_20_);}
	.st15{fill:none;stroke:#000000;stroke-width:2;stroke-linejoin:round;stroke-miterlimit:10;}
	.st16{clip-path:url(#SVGID_22_);}
	.st17{clip-path:url(#SVGID_24_);}
	.st18{clip-path:url(#SVGID_26_);}
	.st19{clip-path:url(#SVGID_28_);}
	
		.st20{clip-path:url(#SVGID_30_);fill:none;stroke:#000000;stroke-width:4;stroke-linejoin:round;stroke-miterlimit:10;stroke-dasharray:6,6;}
	.st21{clip-path:url(#SVGID_32_);fill:none;stroke:#000000;stroke-linejoin:round;stroke-miterlimit:10;}
	.st22{clip-path:url(#SVGID_34_);fill:none;stroke:#000000;stroke-linejoin:round;stroke-miterlimit:10;}
	.st23{clip-path:url(#SVGID_36_);fill:none;stroke:#000000;stroke-linejoin:round;stroke-miterlimit:10;}
	.st24{clip-path:url(#SVGID_38_);fill:none;stroke:#000000;stroke-linejoin:round;stroke-miterlimit:10;}
	.st25{clip-path:url(#SVGID_40_);fill:none;stroke:#000000;stroke-linejoin:round;stroke-miterlimit:10;}
	.st26{clip-path:url(#SVGID_42_);fill:none;stroke:#000000;stroke-linejoin:round;stroke-miterlimit:10;}
	.st27{clip-path:url(#SVGID_44_);fill:none;stroke:#000000;stroke-linejoin:round;stroke-miterlimit:10;}
	.st28{clip-path:url(#SVGID_46_);fill:none;stroke:#000000;stroke-linejoin:round;stroke-miterlimit:10;}
	.st29{clip-path:url(#SVGID_48_);}
	.st30{clip-path:url(#SVGID_50_);}
	.st31{clip-path:url(#SVGID_52_);}
	.st32{clip-path:url(#SVGID_54_);}
	.st33{clip-path:url(#SVGID_56_);}
	.st34{fill:none;stroke:#000000;stroke-width:2;stroke-miterlimit:10;}
	
		.st35{clip-path:url(#SVGID_58_);fill:none;stroke:#000000;stroke-width:4;stroke-linejoin:round;stroke-miterlimit:10;stroke-dasharray:3,5,1,5;}
	.st36{clip-path:url(#SVGID_60_);fill:none;stroke:#000000;stroke-linejoin:round;stroke-miterlimit:10;}
	.st37{clip-path:url(#SVGID_62_);fill:none;stroke:#000000;stroke-linejoin:round;stroke-miterlimit:10;}
	.st38{clip-path:url(#SVGID_64_);fill:none;stroke:#000000;stroke-linejoin:round;stroke-miterlimit:10;}
	.st39{clip-path:url(#SVGID_66_);fill:none;stroke:#000000;stroke-linejoin:round;stroke-miterlimit:10;}
	.st40{clip-path:url(#SVGID_68_);fill:none;stroke:#000000;stroke-linejoin:round;stroke-miterlimit:10;}
	.st41{clip-path:url(#SVGID_70_);fill:none;stroke:#000000;stroke-linejoin:round;stroke-miterlimit:10;}
	.st42{clip-path:url(#SVGID_72_);}
	.st43{clip-path:url(#SVGID_74_);}
	.st44{clip-path:url(#SVGID_76_);}
	.st45{clip-path:url(#SVGID_78_);}
	.st46{clip-path:url(#SVGID_80_);}
	
		.st47{clip-path:url(#SVGID_82_);fill:none;stroke:#000000;stroke-width:4;stroke-linejoin:round;stroke-miterlimit:10;stroke-dasharray:1,3;}
	.st48{clip-path:url(#SVGID_84_);fill:none;stroke:#000000;stroke-linejoin:round;stroke-miterlimit:10;}
	.st49{clip-path:url(#SVGID_86_);fill:none;stroke:#000000;stroke-linejoin:round;stroke-miterlimit:10;}
	.st50{clip-path:url(#SVGID_88_);fill:none;stroke:#000000;stroke-linejoin:round;stroke-miterlimit:10;}
	.st51{clip-path:url(#SVGID_90_);fill:none;stroke:#000000;stroke-linejoin:round;stroke-miterlimit:10;}
	.st52{clip-path:url(#SVGID_92_);fill:none;stroke:#000000;stroke-linejoin:round;stroke-miterlimit:10;}
	.st53{clip-path:url(#SVGID_94_);fill:none;stroke:#000000;stroke-linejoin:round;stroke-miterlimit:10;}
	.st54{clip-path:url(#SVGID_96_);}
	.st55{clip-path:url(#SVGID_98_);}
	.st56{clip-path:url(#SVGID_100_);}
	.st57{clip-path:url(#SVGID_102_);}
	.st58{clip-path:url(#SVGID_104_);}
	.st59{fill:none;stroke:#262626;stroke-width:1.25;stroke-linecap:square;stroke-miterlimit:10;}
</style>
<g id="figure_1">
	<g id="patch_1">
		<path class="st0" d="M61.8,941.6h1152V47.9H61.8V941.6z"/>
	</g>
	<g id="axes_1">
		<g id="patch_2">
			<path class="st0" d="M205.8,852.2h892.8v-715H205.8V852.2z"/>
		</g>
		<g id="matplotlib.axis_1">
			<g id="xtick_1">
				<g id="line2d_1">
					<g>
						<g>
							<path id="m4a3ead84a7" class="st1" d="M205.8,852.2v6"/>
						</g>
					</g>
				</g>
				<g id="text_1">
					<text transform="matrix(1 0 0 1 178.6637 892.2231)" class="st2 st3 st4">−0.5</text>
				</g>
			</g>
			<g id="xtick_2">
				<g id="line2d_2">
					<g>
						<g>
							<path id="m4a3ead84a7_1_" class="st1" d="M333.3,852.2v6"/>
						</g>
					</g>
				</g>
				<g id="text_2">
					<text transform="matrix(1 0 0 1 310.8784 892.2231)" class="st2 st3 st4">0.0</text>
				</g>
			</g>
			<g id="xtick_3">
				<g id="line2d_3">
					<g>
						<g>
							<path id="m4a3ead84a7_2_" class="st1" d="M460.9,852.2v6"/>
						</g>
					</g>
				</g>
				<g id="text_3">
					<text transform="matrix(1 0 0 1 438.4213 892.2231)" class="st2 st3 st4">0.5</text>
				</g>
			</g>
			<g id="xtick_4">
				<g id="line2d_4">
					<g>
						<g>
							<path id="m4a3ead84a7_3_" class="st1" d="M588.4,852.2v6"/>
						</g>
					</g>
				</g>
				<g id="text_4">
					<text transform="matrix(1 0 0 1 565.9642 892.2231)" class="st2 st3 st4">1.0</text>
				</g>
			</g>
			<g id="xtick_5">
				<g id="line2d_5">
					<g>
						<g>
							<path id="m4a3ead84a7_4_" class="st1" d="M716,852.2v6"/>
						</g>
					</g>
				</g>
				<g id="text_5">
					<text transform="matrix(1 0 0 1 693.507 892.2231)" class="st2 st3 st4">1.5</text>
				</g>
			</g>
			<g id="xtick_6">
				<g id="line2d_6">
					<g>
						<g>
							<path id="m4a3ead84a7_5_" class="st1" d="M843.5,852.2v6"/>
						</g>
					</g>
				</g>
				<g id="text_6">
					<text transform="matrix(1 0 0 1 821.0499 892.2231)" class="st2 st3 st4">2.0</text>
				</g>
			</g>
			<g id="xtick_7">
				<g id="line2d_7">
					<g>
						<g>
							<path id="m4a3ead84a7_6_" class="st1" d="M971.1,852.2v6"/>
						</g>
					</g>
				</g>
				<g id="text_7">
					<text transform="matrix(1 0 0 1 948.5927 892.2231)" class="st2 st3 st4">2.5</text>
				</g>
			</g>
			<g id="xtick_8">
				<g id="line2d_8">
					<g>
						<g>
							<path id="m4a3ead84a7_7_" class="st1" d="M1098.6,852.2v6"/>
						</g>
					</g>
				</g>
				<g id="text_8">
					<text transform="matrix(1 0 0 1 1076.1356 892.2231)" class="st2 st3 st4">3.0</text>
				</g>
			</g>
			<g id="text_9">
				<text transform="matrix(1 0 0 1 583.069 938.7271)" class="st2 st3 st4">Cw (Bq/mL)</text>
			</g>
		</g>
		<g id="matplotlib.axis_2">
			<g id="ytick_1">
				<g id="line2d_9">
					<g>
						<g>
							<path id="mcc7ae75745" class="st1" d="M205.8,845.2h-6"/>
						</g>
					</g>
				</g>
				<g id="text_10">
					<text transform="matrix(1 0 0 1 131.5077 857.7935)" class="st2 st3 st4">0</text>
				</g>
			</g>
			<g id="ytick_2">
				<g id="line2d_10">
					<g>
						<g>
							<path id="mcc7ae75745_1_" class="st1" d="M205.8,703.6h-6"/>
						</g>
					</g>
				</g>
				<g id="text_11">
					<text transform="matrix(1 0 0 1 104.8124 716.2172)" class="st2 st3 st4">2000</text>
				</g>
			</g>
			<g id="ytick_3">
				<g id="line2d_11">
					<g>
						<g>
							<path id="mcc7ae75745_2_" class="st1" d="M205.8,562h-6"/>
						</g>
					</g>
				</g>
				<g id="text_12">
					<text transform="matrix(1 0 0 1 104.8124 574.641)" class="st2 st3 st4">4000</text>
				</g>
			</g>
			<g id="ytick_4">
				<g id="line2d_12">
					<g>
						<g>
							<path id="mcc7ae75745_3_" class="st1" d="M205.8,420.4h-6"/>
						</g>
					</g>
				</g>
				<g id="text_13">
					<text transform="matrix(1 0 0 1 104.8124 433.0648)" class="st2 st3 st4">6000</text>
				</g>
			</g>
			<g id="ytick_5">
				<g id="line2d_13">
					<g>
						<g>
							<path id="mcc7ae75745_4_" class="st1" d="M205.8,278.8h-6"/>
						</g>
					</g>
				</g>
				<g id="text_14">
					<text transform="matrix(1 0 0 1 104.8124 291.4885)" class="st2 st3 st4">8000</text>
				</g>
			</g>
			<g id="ytick_6">
				<g id="line2d_14">
					<g>
						<g>
							<path id="mcc7ae75745_5_" class="st1" d="M205.8,137.3h-6"/>
						</g>
					</g>
				</g>
				<g id="text_15">
					<text transform="matrix(1 0 0 1 95.9139 149.9123)" class="st2 st3 st4">10000</text>
				</g>
			</g>
			<g id="text_16">
				<text transform="matrix(6.123234e-17 -1 1 6.123234e-17 70.2065 565.936)" class="st2 st3 st4">Cs (Bq/g)</text>
			</g>
		</g>
		<g id="pH_3_Isotherm">
			<g id="pH_3_Data_Fit">
				<g>
					<defs>
						<rect id="SVGID_1_" x="205.8" y="137.3" width="892.8" height="715"/>
					</defs>
					<clipPath id="SVGID_2_">
						<use xlink:href="#SVGID_1_"  style="overflow:visible;"/>
					</clipPath>
					<path class="st5" d="M359.1,803.4l23-43.1L447,639l117.8-220.3"/>
				</g>
			</g>
			<g id="pH_3_Error_Bars">
				<g id="LineCollection_1">
					<g>
						<defs>
							<rect id="SVGID_3_" x="205.8" y="137.3" width="892.8" height="715"/>
						</defs>
						<clipPath id="SVGID_4_">
							<use xlink:href="#SVGID_3_"  style="overflow:visible;"/>
						</clipPath>
						<path class="st6" d="M357.1,805.1h4"/>
					</g>
					<g>
						<defs>
							<rect id="SVGID_5_" x="205.8" y="137.3" width="892.8" height="715"/>
						</defs>
						<clipPath id="SVGID_6_">
							<use xlink:href="#SVGID_5_"  style="overflow:visible;"/>
						</clipPath>
						<path class="st7" d="M379.7,762.4h4.9"/>
					</g>
					<g>
						<defs>
							<rect id="SVGID_7_" x="205.8" y="137.3" width="892.8" height="715"/>
						</defs>
						<clipPath id="SVGID_8_">
							<use xlink:href="#SVGID_7_"  style="overflow:visible;"/>
						</clipPath>
						<path class="st8" d="M440.8,632.7h12.3"/>
					</g>
					<g>
						<defs>
							<rect id="SVGID_9_" x="205.8" y="137.3" width="892.8" height="715"/>
						</defs>
						<clipPath id="SVGID_10_">
							<use xlink:href="#SVGID_9_"  style="overflow:visible;"/>
						</clipPath>
						<path class="st9" d="M552.9,421.2h23.8"/>
					</g>
				</g>
				<g id="LineCollection_2">
					<g>
						<defs>
							<rect id="SVGID_11_" x="205.8" y="137.3" width="892.8" height="715"/>
						</defs>
						<clipPath id="SVGID_12_">
							<use xlink:href="#SVGID_11_"  style="overflow:visible;"/>
						</clipPath>
						<path class="st10" d="M359.1,806.9v-3.6"/>
					</g>
					<g>
						<defs>
							<rect id="SVGID_13_" x="205.8" y="137.3" width="892.8" height="715"/>
						</defs>
						<clipPath id="SVGID_14_">
							<use xlink:href="#SVGID_13_"  style="overflow:visible;"/>
						</clipPath>
						<path class="st11" d="M382.2,765.2v-5.7"/>
					</g>
					<g>
						<defs>
							<rect id="SVGID_15_" x="205.8" y="137.3" width="892.8" height="715"/>
						</defs>
						<clipPath id="SVGID_16_">
							<use xlink:href="#SVGID_15_"  style="overflow:visible;"/>
						</clipPath>
						<path class="st12" d="M447,633.6v-1.9"/>
					</g>
					<g>
						<defs>
							<rect id="SVGID_17_" x="205.8" y="137.3" width="892.8" height="715"/>
						</defs>
						<clipPath id="SVGID_18_">
							<use xlink:href="#SVGID_17_"  style="overflow:visible;"/>
						</clipPath>
						<path class="st13" d="M564.8,428.6v-14.8"/>
					</g>
				</g>
				<g id="line2d_16">
					<g>
						<defs>
							<rect id="SVGID_19_" x="205.8" y="137.3" width="892.8" height="715"/>
						</defs>
						<clipPath id="SVGID_20_">
							<use xlink:href="#SVGID_19_"  style="overflow:visible;"/>
						</clipPath>
						<g class="st14">
							<g>
								<path id="m5c64cc90c4" class="st15" d="M357.1,810.1v-10"/>
							</g>
							<g>
								<path id="m5c64cc90c4_1_" class="st15" d="M379.7,767.4v-10"/>
							</g>
							<g>
								<path id="m5c64cc90c4_2_" class="st15" d="M440.8,637.7v-10"/>
							</g>
							<g>
								<path id="m5c64cc90c4_3_" class="st15" d="M552.9,426.2v-10"/>
							</g>
						</g>
					</g>
				</g>
				<g id="line2d_17">
					<g>
						<defs>
							<rect id="SVGID_21_" x="205.8" y="137.3" width="892.8" height="715"/>
						</defs>
						<clipPath id="SVGID_22_">
							<use xlink:href="#SVGID_21_"  style="overflow:visible;"/>
						</clipPath>
						<g class="st16">
							<g>
								<path id="m5c64cc90c4_4_" class="st15" d="M361.1,810.1v-10"/>
							</g>
							<g>
								<path id="m5c64cc90c4_5_" class="st15" d="M384.6,767.4v-10"/>
							</g>
							<g>
								<path id="m5c64cc90c4_6_" class="st15" d="M453.2,637.7v-10"/>
							</g>
							<g>
								<path id="m5c64cc90c4_7_" class="st15" d="M576.6,426.2v-10"/>
							</g>
						</g>
					</g>
				</g>
				<g id="line2d_18">
					<g>
						<defs>
							<rect id="SVGID_23_" x="205.8" y="137.3" width="892.8" height="715"/>
						</defs>
						<clipPath id="SVGID_24_">
							<use xlink:href="#SVGID_23_"  style="overflow:visible;"/>
						</clipPath>
						<g class="st17">
							<g>
								<path id="m7a9f33d230" class="st15" d="M364.1,806.9h-10"/>
							</g>
							<g>
								<path id="m7a9f33d230_1_" class="st15" d="M387.2,765.2h-10"/>
							</g>
							<g>
								<path id="m7a9f33d230_2_" class="st15" d="M452,633.6h-10"/>
							</g>
							<g>
								<path id="m7a9f33d230_3_" class="st15" d="M569.8,428.6h-10"/>
							</g>
						</g>
					</g>
				</g>
				<g id="line2d_19">
					<g>
						<defs>
							<rect id="SVGID_25_" x="205.8" y="137.3" width="892.8" height="715"/>
						</defs>
						<clipPath id="SVGID_26_">
							<use xlink:href="#SVGID_25_"  style="overflow:visible;"/>
						</clipPath>
						<g class="st18">
							<g>
								<path id="m7a9f33d230_4_" class="st15" d="M364.1,803.3h-10"/>
							</g>
							<g>
								<path id="m7a9f33d230_5_" class="st15" d="M387.2,759.5h-10"/>
							</g>
							<g>
								<path id="m7a9f33d230_6_" class="st15" d="M452,631.7h-10"/>
							</g>
							<g>
								<path id="m7a9f33d230_7_" class="st15" d="M569.8,413.8h-10"/>
							</g>
						</g>
					</g>
				</g>
			</g>
			<g id="pH_3_Data_Points">
				<g>
					<defs>
						<rect id="SVGID_27_" x="205.8" y="137.3" width="892.8" height="715"/>
					</defs>
					<clipPath id="SVGID_28_">
						<use xlink:href="#SVGID_27_"  style="overflow:visible;"/>
					</clipPath>
					<g class="st19">
						<g>
							<path id="m3dfdaab280" class="st15" d="M359.1,820.1c4,0,7.8-1.6,10.6-4.4c2.8-2.8,4.4-6.6,4.4-10.6c0-4-1.6-7.8-4.4-10.6
								c-2.8-2.8-6.6-4.4-10.6-4.4c-4,0-7.8,1.6-10.6,4.4c-2.8,2.8-4.4,6.6-4.4,10.6c0,4,1.6,7.8,4.4,10.6
								C351.3,818.6,355.1,820.1,359.1,820.1z"/>
						</g>
						<g>
							<path id="m3dfdaab280_1_" class="st15" d="M382.2,777.4c4,0,7.8-1.6,10.6-4.4c2.8-2.8,4.4-6.6,4.4-10.6c0-4-1.6-7.8-4.4-10.6
								c-2.8-2.8-6.6-4.4-10.6-4.4c-4,0-7.8,1.6-10.6,4.4c-2.8,2.8-4.4,6.6-4.4,10.6c0,4,1.6,7.8,4.4,10.6
								C374.4,775.8,378.2,777.4,382.2,777.4z"/>
						</g>
						<g>
							<path id="m3dfdaab280_2_" class="st15" d="M447,647.7c4,0,7.8-1.6,10.6-4.4c2.8-2.8,4.4-6.6,4.4-10.6c0-4-1.6-7.8-4.4-10.6
								c-2.8-2.8-6.6-4.4-10.6-4.4c-4,0-7.8,1.6-10.6,4.4c-2.8,2.8-4.4,6.6-4.4,10.6c0,4,1.6,7.8,4.4,10.6
								C439.2,646.1,443,647.7,447,647.7z"/>
						</g>
						<g>
							<path id="m3dfdaab280_3_" class="st15" d="M564.8,436.2c4,0,7.8-1.6,10.6-4.4c2.8-2.8,4.4-6.6,4.4-10.6c0-4-1.6-7.8-4.4-10.6
								c-2.8-2.8-6.6-4.4-10.6-4.4c-4,0-7.8,1.6-10.6,4.4c-2.8,2.8-4.4,6.6-4.4,10.6c0,4,1.6,7.8,4.4,10.6
								C557,434.6,560.8,436.2,564.8,436.2z"/>
						</g>
					</g>
				</g>
			</g>
		</g>
		<g id="pH_5_Isotherm">
			<g id="pH_5_Data_Fit">
				<g>
					<defs>
						<rect id="SVGID_29_" x="205.8" y="137.3" width="892.8" height="715"/>
					</defs>
					<clipPath id="SVGID_30_">
						<use xlink:href="#SVGID_29_"  style="overflow:visible;"/>
					</clipPath>
					<path class="st20" d="M347.8,790.4l11.1-54.4L388,592.4l58.1-286.3"/>
				</g>
			</g>
			<g id="pH_5_Error_Bars">
				<g id="LineCollection_3">
					<g>
						<defs>
							<rect id="SVGID_31_" x="205.8" y="137.3" width="892.8" height="715"/>
						</defs>
						<clipPath id="SVGID_32_">
							<use xlink:href="#SVGID_31_"  style="overflow:visible;"/>
						</clipPath>
						<path class="st21" d="M347.2,794.6h1.2"/>
					</g>
					<g>
						<defs>
							<rect id="SVGID_33_" x="205.8" y="137.3" width="892.8" height="715"/>
						</defs>
						<clipPath id="SVGID_34_">
							<use xlink:href="#SVGID_33_"  style="overflow:visible;"/>
						</clipPath>
						<path class="st22" d="M357.3,740.6h3.1"/>
					</g>
					<g>
						<defs>
							<rect id="SVGID_35_" x="205.8" y="137.3" width="892.8" height="715"/>
						</defs>
						<clipPath id="SVGID_36_">
							<use xlink:href="#SVGID_35_"  style="overflow:visible;"/>
						</clipPath>
						<path class="st23" d="M386.9,578.3h2"/>
					</g>
					<g>
						<defs>
							<rect id="SVGID_37_" x="205.8" y="137.3" width="892.8" height="715"/>
						</defs>
						<clipPath id="SVGID_38_">
							<use xlink:href="#SVGID_37_"  style="overflow:visible;"/>
						</clipPath>
						<path class="st24" d="M441.6,311.4h9"/>
					</g>
				</g>
				<g id="LineCollection_4">
					<g>
						<defs>
							<rect id="SVGID_39_" x="205.8" y="137.3" width="892.8" height="715"/>
						</defs>
						<clipPath id="SVGID_40_">
							<use xlink:href="#SVGID_39_"  style="overflow:visible;"/>
						</clipPath>
						<path class="st25" d="M347.8,795v-0.7"/>
					</g>
					<g>
						<defs>
							<rect id="SVGID_41_" x="205.8" y="137.3" width="892.8" height="715"/>
						</defs>
						<clipPath id="SVGID_42_">
							<use xlink:href="#SVGID_41_"  style="overflow:visible;"/>
						</clipPath>
						<path class="st26" d="M358.8,741.4v-1.6"/>
					</g>
					<g>
						<defs>
							<rect id="SVGID_43_" x="205.8" y="137.3" width="892.8" height="715"/>
						</defs>
						<clipPath id="SVGID_44_">
							<use xlink:href="#SVGID_43_"  style="overflow:visible;"/>
						</clipPath>
						<path class="st27" d="M388,586.9v-17.2"/>
					</g>
					<g>
						<defs>
							<rect id="SVGID_45_" x="205.8" y="137.3" width="892.8" height="715"/>
						</defs>
						<clipPath id="SVGID_46_">
							<use xlink:href="#SVGID_45_"  style="overflow:visible;"/>
						</clipPath>
						<path class="st28" d="M446.1,319.6v-16.5"/>
					</g>
				</g>
				<g id="line2d_22">
					<g>
						<defs>
							<rect id="SVGID_47_" x="205.8" y="137.3" width="892.8" height="715"/>
						</defs>
						<clipPath id="SVGID_48_">
							<use xlink:href="#SVGID_47_"  style="overflow:visible;"/>
						</clipPath>
						<g class="st29">
							<g>
								<path id="m5c64cc90c4_8_" class="st15" d="M347.2,799.6v-10"/>
							</g>
							<g>
								<path id="m5c64cc90c4_9_" class="st15" d="M357.3,745.6v-10"/>
							</g>
							<g>
								<path id="m5c64cc90c4_10_" class="st15" d="M386.9,583.3v-10"/>
							</g>
							<g>
								<path id="m5c64cc90c4_11_" class="st15" d="M441.6,316.4v-10"/>
							</g>
						</g>
					</g>
				</g>
				<g id="line2d_23">
					<g>
						<defs>
							<rect id="SVGID_49_" x="205.8" y="137.3" width="892.8" height="715"/>
						</defs>
						<clipPath id="SVGID_50_">
							<use xlink:href="#SVGID_49_"  style="overflow:visible;"/>
						</clipPath>
						<g class="st30">
							<g>
								<path id="m5c64cc90c4_12_" class="st15" d="M348.4,799.6v-10"/>
							</g>
							<g>
								<path id="m5c64cc90c4_13_" class="st15" d="M360.3,745.6v-10"/>
							</g>
							<g>
								<path id="m5c64cc90c4_14_" class="st15" d="M389,583.3v-10"/>
							</g>
							<g>
								<path id="m5c64cc90c4_15_" class="st15" d="M450.6,316.4v-10"/>
							</g>
						</g>
					</g>
				</g>
				<g id="line2d_24">
					<g>
						<defs>
							<rect id="SVGID_51_" x="205.8" y="137.3" width="892.8" height="715"/>
						</defs>
						<clipPath id="SVGID_52_">
							<use xlink:href="#SVGID_51_"  style="overflow:visible;"/>
						</clipPath>
						<g class="st31">
							<g>
								<path id="m7a9f33d230_8_" class="st15" d="M352.8,795h-10"/>
							</g>
							<g>
								<path id="m7a9f33d230_9_" class="st15" d="M363.8,741.4h-10"/>
							</g>
							<g>
								<path id="m7a9f33d230_10_" class="st15" d="M393,586.9h-10"/>
							</g>
							<g>
								<path id="m7a9f33d230_11_" class="st15" d="M451.1,319.6h-10"/>
							</g>
						</g>
					</g>
				</g>
				<g id="line2d_25">
					<g>
						<defs>
							<rect id="SVGID_53_" x="205.8" y="137.3" width="892.8" height="715"/>
						</defs>
						<clipPath id="SVGID_54_">
							<use xlink:href="#SVGID_53_"  style="overflow:visible;"/>
						</clipPath>
						<g class="st32">
							<g>
								<path id="m7a9f33d230_12_" class="st15" d="M352.8,794.3h-10"/>
							</g>
							<g>
								<path id="m7a9f33d230_13_" class="st15" d="M363.8,739.8h-10"/>
							</g>
							<g>
								<path id="m7a9f33d230_14_" class="st15" d="M393,569.7h-10"/>
							</g>
							<g>
								<path id="m7a9f33d230_15_" class="st15" d="M451.1,303.2h-10"/>
							</g>
						</g>
					</g>
				</g>
			</g>
			<g id="pH_5_Data_Points">
				<g>
					<defs>
						<rect id="SVGID_55_" x="205.8" y="137.3" width="892.8" height="715"/>
					</defs>
					<clipPath id="SVGID_56_">
						<use xlink:href="#SVGID_55_"  style="overflow:visible;"/>
					</clipPath>
					<g class="st33">
						<g>
							<path id="mb47655e509" class="st34" d="M347.8,779.6l-15,30h30L347.8,779.6z"/>
						</g>
						<g>
							<path id="mb47655e509_1_" class="st34" d="M358.8,725.6l-15,30h30L358.8,725.6z"/>
						</g>
						<g>
							<path id="mb47655e509_2_" class="st34" d="M388,563.3l-15,30h30L388,563.3z"/>
						</g>
						<g>
							<path id="mb47655e509_3_" class="st34" d="M446.1,296.4l-15,30h30L446.1,296.4z"/>
						</g>
					</g>
				</g>
			</g>
		</g>
		<g id="pH_7_Isotherm">
			<g id="pH_7_Data_Fit">
				<g>
					<defs>
						<rect id="SVGID_57_" x="205.8" y="137.3" width="892.8" height="715"/>
					</defs>
					<clipPath id="SVGID_58_">
						<use xlink:href="#SVGID_57_"  style="overflow:visible;"/>
					</clipPath>
					<path class="st35" d="M354.1,739l28.5-169.7L428,298.7"/>
				</g>
			</g>
			<g id="pH_7_Error_Bars">
				<g id="LineCollection_5">
					<g>
						<defs>
							<rect id="SVGID_59_" x="205.8" y="137.3" width="892.8" height="715"/>
						</defs>
						<clipPath id="SVGID_60_">
							<use xlink:href="#SVGID_59_"  style="overflow:visible;"/>
						</clipPath>
						<path class="st36" d="M352.6,737.5h2.9"/>
					</g>
					<g>
						<defs>
							<rect id="SVGID_61_" x="205.8" y="137.3" width="892.8" height="715"/>
						</defs>
						<clipPath id="SVGID_62_">
							<use xlink:href="#SVGID_61_"  style="overflow:visible;"/>
						</clipPath>
						<path class="st37" d="M381.6,571.8h1.9"/>
					</g>
					<g>
						<defs>
							<rect id="SVGID_63_" x="205.8" y="137.3" width="892.8" height="715"/>
						</defs>
						<clipPath id="SVGID_64_">
							<use xlink:href="#SVGID_63_"  style="overflow:visible;"/>
						</clipPath>
						<path class="st38" d="M416.2,297.7h23.6"/>
					</g>
				</g>
				<g id="LineCollection_6">
					<g>
						<defs>
							<rect id="SVGID_65_" x="205.8" y="137.3" width="892.8" height="715"/>
						</defs>
						<clipPath id="SVGID_66_">
							<use xlink:href="#SVGID_65_"  style="overflow:visible;"/>
						</clipPath>
						<path class="st39" d="M354.1,738.7v-2.4"/>
					</g>
					<g>
						<defs>
							<rect id="SVGID_67_" x="205.8" y="137.3" width="892.8" height="715"/>
						</defs>
						<clipPath id="SVGID_68_">
							<use xlink:href="#SVGID_67_"  style="overflow:visible;"/>
						</clipPath>
						<path class="st40" d="M382.5,580.6v-17.5"/>
					</g>
					<g>
						<defs>
							<rect id="SVGID_69_" x="205.8" y="137.3" width="892.8" height="715"/>
						</defs>
						<clipPath id="SVGID_70_">
							<use xlink:href="#SVGID_69_"  style="overflow:visible;"/>
						</clipPath>
						<path class="st41" d="M428,309.7v-23.9"/>
					</g>
				</g>
				<g id="line2d_28">
					<g>
						<defs>
							<rect id="SVGID_71_" x="205.8" y="137.3" width="892.8" height="715"/>
						</defs>
						<clipPath id="SVGID_72_">
							<use xlink:href="#SVGID_71_"  style="overflow:visible;"/>
						</clipPath>
						<g class="st42">
							<g>
								<path id="m5c64cc90c4_16_" class="st15" d="M352.6,742.5v-10"/>
							</g>
							<g>
								<path id="m5c64cc90c4_17_" class="st15" d="M381.6,576.8v-10"/>
							</g>
							<g>
								<path id="m5c64cc90c4_18_" class="st15" d="M416.2,302.7v-10"/>
							</g>
						</g>
					</g>
				</g>
				<g id="line2d_29">
					<g>
						<defs>
							<rect id="SVGID_73_" x="205.8" y="137.3" width="892.8" height="715"/>
						</defs>
						<clipPath id="SVGID_74_">
							<use xlink:href="#SVGID_73_"  style="overflow:visible;"/>
						</clipPath>
						<g class="st43">
							<g>
								<path id="m5c64cc90c4_19_" class="st15" d="M355.5,742.5v-10"/>
							</g>
							<g>
								<path id="m5c64cc90c4_20_" class="st15" d="M383.5,576.8v-10"/>
							</g>
							<g>
								<path id="m5c64cc90c4_21_" class="st15" d="M439.7,302.7v-10"/>
							</g>
						</g>
					</g>
				</g>
				<g id="line2d_30">
					<g>
						<defs>
							<rect id="SVGID_75_" x="205.8" y="137.3" width="892.8" height="715"/>
						</defs>
						<clipPath id="SVGID_76_">
							<use xlink:href="#SVGID_75_"  style="overflow:visible;"/>
						</clipPath>
						<g class="st44">
							<g>
								<path id="m7a9f33d230_16_" class="st15" d="M359.1,738.7h-10"/>
							</g>
							<g>
								<path id="m7a9f33d230_17_" class="st15" d="M387.5,580.6h-10"/>
							</g>
							<g>
								<path id="m7a9f33d230_18_" class="st15" d="M433,309.7h-10"/>
							</g>
						</g>
					</g>
				</g>
				<g id="line2d_31">
					<g>
						<defs>
							<rect id="SVGID_77_" x="205.8" y="137.3" width="892.8" height="715"/>
						</defs>
						<clipPath id="SVGID_78_">
							<use xlink:href="#SVGID_77_"  style="overflow:visible;"/>
						</clipPath>
						<g class="st45">
							<g>
								<path id="m7a9f33d230_19_" class="st15" d="M359.1,736.3h-10"/>
							</g>
							<g>
								<path id="m7a9f33d230_20_" class="st15" d="M387.5,563.1h-10"/>
							</g>
							<g>
								<path id="m7a9f33d230_21_" class="st15" d="M433,285.8h-10"/>
							</g>
						</g>
					</g>
				</g>
			</g>
			<g id="pH_7_Data_Points">
				<g>
					<defs>
						<rect id="SVGID_79_" x="205.8" y="137.3" width="892.8" height="715"/>
					</defs>
					<clipPath id="SVGID_80_">
						<use xlink:href="#SVGID_79_"  style="overflow:visible;"/>
					</clipPath>
					<g class="st46">
						<g>
							<path id="ma37baf1d4c" class="st34" d="M339.1,752.5h30v-30h-30V752.5z"/>
						</g>
						<g>
							<path id="ma37baf1d4c_1_" class="st34" d="M367.5,586.8h30v-30h-30V586.8z"/>
						</g>
						<g>
							<path id="ma37baf1d4c_2_" class="st34" d="M413,312.7h30v-30h-30V312.7z"/>
						</g>
					</g>
				</g>
			</g>
		</g>
		<g id="pH_9_Isotherm">
			<g id="pH_9_Data_Fit">
				<g>
					<defs>
						<rect id="SVGID_81_" x="205.8" y="137.3" width="892.8" height="715"/>
					</defs>
					<clipPath id="SVGID_82_">
						<use xlink:href="#SVGID_81_"  style="overflow:visible;"/>
					</clipPath>
					<path class="st47" d="M352.5,710.7l18.4-117l50.3-319.9"/>
				</g>
			</g>
			<g id="pH_9_Error_Bars">
				<g id="LineCollection_7">
					<g>
						<defs>
							<rect id="SVGID_83_" x="205.8" y="137.3" width="892.8" height="715"/>
						</defs>
						<clipPath id="SVGID_84_">
							<use xlink:href="#SVGID_83_"  style="overflow:visible;"/>
						</clipPath>
						<path class="st48" d="M352,737.1h0.9"/>
					</g>
					<g>
						<defs>
							<rect id="SVGID_85_" x="205.8" y="137.3" width="892.8" height="715"/>
						</defs>
						<clipPath id="SVGID_86_">
							<use xlink:href="#SVGID_85_"  style="overflow:visible;"/>
						</clipPath>
						<path class="st49" d="M367.6,557.6h6.6"/>
					</g>
					<g>
						<defs>
							<rect id="SVGID_87_" x="205.8" y="137.3" width="892.8" height="715"/>
						</defs>
						<clipPath id="SVGID_88_">
							<use xlink:href="#SVGID_87_"  style="overflow:visible;"/>
						</clipPath>
						<path class="st50" d="M417,283.5h8.5"/>
					</g>
				</g>
				<g id="LineCollection_8">
					<g>
						<defs>
							<rect id="SVGID_89_" x="205.8" y="137.3" width="892.8" height="715"/>
						</defs>
						<clipPath id="SVGID_90_">
							<use xlink:href="#SVGID_89_"  style="overflow:visible;"/>
						</clipPath>
						<path class="st51" d="M352.5,738.2v-2.2"/>
					</g>
					<g>
						<defs>
							<rect id="SVGID_91_" x="205.8" y="137.3" width="892.8" height="715"/>
						</defs>
						<clipPath id="SVGID_92_">
							<use xlink:href="#SVGID_91_"  style="overflow:visible;"/>
						</clipPath>
						<path class="st52" d="M370.9,565.7v-16.1"/>
					</g>
					<g>
						<defs>
							<rect id="SVGID_93_" x="205.8" y="137.3" width="892.8" height="715"/>
						</defs>
						<clipPath id="SVGID_94_">
							<use xlink:href="#SVGID_93_"  style="overflow:visible;"/>
						</clipPath>
						<path class="st53" d="M421.2,289.6v-12.1"/>
					</g>
				</g>
				<g id="line2d_34">
					<g>
						<defs>
							<rect id="SVGID_95_" x="205.8" y="137.3" width="892.8" height="715"/>
						</defs>
						<clipPath id="SVGID_96_">
							<use xlink:href="#SVGID_95_"  style="overflow:visible;"/>
						</clipPath>
						<g class="st54">
							<g>
								<path id="m5c64cc90c4_22_" class="st15" d="M352,742.1v-10"/>
							</g>
							<g>
								<path id="m5c64cc90c4_23_" class="st15" d="M367.6,562.6v-10"/>
							</g>
							<g>
								<path id="m5c64cc90c4_24_" class="st15" d="M417,288.5v-10"/>
							</g>
						</g>
					</g>
				</g>
				<g id="line2d_35">
					<g>
						<defs>
							<rect id="SVGID_97_" x="205.8" y="137.3" width="892.8" height="715"/>
						</defs>
						<clipPath id="SVGID_98_">
							<use xlink:href="#SVGID_97_"  style="overflow:visible;"/>
						</clipPath>
						<g class="st55">
							<g>
								<path id="m5c64cc90c4_25_" class="st15" d="M352.9,742.1v-10"/>
							</g>
							<g>
								<path id="m5c64cc90c4_26_" class="st15" d="M374.2,562.6v-10"/>
							</g>
							<g>
								<path id="m5c64cc90c4_27_" class="st15" d="M425.5,288.5v-10"/>
							</g>
						</g>
					</g>
				</g>
				<g id="line2d_36">
					<g>
						<defs>
							<rect id="SVGID_99_" x="205.8" y="137.3" width="892.8" height="715"/>
						</defs>
						<clipPath id="SVGID_100_">
							<use xlink:href="#SVGID_99_"  style="overflow:visible;"/>
						</clipPath>
						<g class="st56">
							<g>
								<path id="m7a9f33d230_22_" class="st15" d="M357.5,738.2h-10"/>
							</g>
							<g>
								<path id="m7a9f33d230_23_" class="st15" d="M375.9,565.7h-10"/>
							</g>
							<g>
								<path id="m7a9f33d230_24_" class="st15" d="M426.2,289.6h-10"/>
							</g>
						</g>
					</g>
				</g>
				<g id="line2d_37">
					<g>
						<defs>
							<rect id="SVGID_101_" x="205.8" y="137.3" width="892.8" height="715"/>
						</defs>
						<clipPath id="SVGID_102_">
							<use xlink:href="#SVGID_101_"  style="overflow:visible;"/>
						</clipPath>
						<g class="st57">
							<g>
								<path id="m7a9f33d230_25_" class="st15" d="M357.5,736.1h-10"/>
							</g>
							<g>
								<path id="m7a9f33d230_26_" class="st15" d="M375.9,549.6h-10"/>
							</g>
							<g>
								<path id="m7a9f33d230_27_" class="st15" d="M426.2,277.5h-10"/>
							</g>
						</g>
					</g>
				</g>
			</g>
			<g id="pH_9_Data_Points">
				<g>
					<defs>
						<rect id="SVGID_103_" x="205.8" y="137.3" width="892.8" height="715"/>
					</defs>
					<clipPath id="SVGID_104_">
						<use xlink:href="#SVGID_103_"  style="overflow:visible;"/>
					</clipPath>
					<g class="st58">
						<g>
							<path id="maba4b71dab" class="st34" d="M352.5,722.1l-14.3,10.4l5.4,16.8h17.6l5.4-16.8L352.5,722.1z"/>
						</g>
						<g>
							<path id="maba4b71dab_1_" class="st34" d="M370.9,542.6L356.6,553l5.4,16.8h17.6l5.4-16.8L370.9,542.6z"/>
						</g>
						<g>
							<path id="maba4b71dab_2_" class="st34" d="M421.2,268.5L407,278.9l5.4,16.8h17.6l5.4-16.8L421.2,268.5z"/>
						</g>
					</g>
				</g>
			</g>
		</g>
		<g id="Horizontal_Axis">
			<path class="st59" d="M205.8,852.2h892.8"/>
		</g>
		<g id="Vertical_Axis">
			<path class="st59" d="M205.8,852.2v-715"/>
		</g>
		<g id="legend_1">
			<g id="line2d_39">
			</g>
			<g id="line2d_40">
				<g>
					<g>
						<path id="m3dfdaab280_4_" class="st15" d="M852.6,158.4c4,0,7.8-1.6,10.6-4.4c2.8-2.8,4.4-6.6,4.4-10.6c0-4-1.6-7.8-4.4-10.6
							c-2.8-2.8-6.6-4.4-10.6-4.4c-4,0-7.8,1.6-10.6,4.4c-2.8,2.8-4.4,6.6-4.4,10.6c0,4,1.6,7.8,4.4,10.6
							C844.8,156.8,848.6,158.4,852.6,158.4z"/>
					</g>
				</g>
			</g>
			<g id="text_17">
				<text transform="matrix(1 0 0 1 881.3978 151.8334)" class="st2 st3 st4">pH 3</text>
			</g>
			<g id="line2d_41">
			</g>
			<g id="line2d_42">
				<g>
					<g>
						<path id="mb47655e509_4_" class="st34" d="M852.6,165.3l-15,30h30L852.6,165.3z"/>
					</g>
				</g>
			</g>
			<g id="text_18">
				<text transform="matrix(1 0 0 1 881.3978 188.6867)" class="st2 st3 st4">pH 5</text>
			</g>
			<g id="line2d_43">
			</g>
			<g id="line2d_44">
				<g>
					<g>
						<path id="ma37baf1d4c_3_" class="st34" d="M837.6,232.1h30v-30h-30V232.1z"/>
					</g>
				</g>
			</g>
			<g id="text_19">
				<text transform="matrix(1 0 0 1 881.3978 225.54)" class="st2 st3 st4">pH 7</text>
			</g>
			<g id="line2d_45">
			</g>
			<g id="line2d_46">
				<g>
					<g>
						<path id="maba4b71dab_3_" class="st34" d="M852.6,236.1l-14.3,10.4l5.4,16.8h17.6l5.4-16.8L852.6,236.1z"/>
					</g>
				</g>
			</g>
			<g id="text_20">
				<text transform="matrix(1 0 0 1 881.3978 259.5586)" class="st2 st3 st4">pH 9</text>
			</g>
		</g>
	</g>
</g>
</svg>
