<?xml version="1.0" encoding="utf-8"?>
<!-- Generator: Adobe Illustrator 19.2.1, SVG Export Plug-In . SVG Version: 6.00 Build 0)  -->
<svg version="1.1" id="Layer_1" xmlns="http://www.w3.org/2000/svg" xmlns:xlink="http://www.w3.org/1999/xlink" x="0px" y="0px"
	 viewBox="0 0 1152 900" style="enable-background:new 0 0 1152 900;" xml:space="preserve">
<style type="text/css">
	.st0{fill:#FFFFFF;}
	.st1{fill:none;stroke:#262626;stroke-width:1.6;stroke-linejoin:round;stroke-miterlimit:10;}
	.st2{fill:#262626;}
	.st3{font-family:'ArialMT';}
	.st4{font-size:24px;}
	.st5{font-size:36px;}
	.st6{clip-path:url(#SVGID_2_);fill:none;stroke:#000000;stroke-linejoin:round;stroke-miterlimit:10;}
	.st7{clip-path:url(#SVGID_4_);fill:none;stroke:#000000;stroke-linejoin:round;stroke-miterlimit:10;}
	.st8{clip-path:url(#SVGID_6_);fill:none;stroke:#000000;stroke-linejoin:round;stroke-miterlimit:10;}
	.st9{clip-path:url(#SVGID_8_);fill:none;stroke:#000000;stroke-linejoin:round;stroke-miterlimit:10;}
	.st10{clip-path:url(#SVGID_10_);fill:none;stroke:#000000;stroke-linejoin:round;stroke-miterlimit:10;}
	.st11{clip-path:url(#SVGID_12_);fill:none;stroke:#000000;stroke-linejoin:round;stroke-miterlimit:10;}
	.st12{clip-path:url(#SVGID_14_);fill:none;stroke:#000000;stroke-linejoin:round;stroke-miterlimit:10;}
	.st13{clip-path:url(#SVGID_16_);fill:none;stroke:#000000;stroke-linejoin:round;stroke-miterlimit:10;}
	.st14{clip-path:url(#SVGID_18_);fill:none;stroke:#000000;stroke-linejoin:round;stroke-miterlimit:10;}
	.st15{clip-path:url(#SVGID_20_);fill:none;stroke:#000000;stroke-linejoin:round;stroke-miterlimit:10;}
	.st16{clip-path:url(#SVGID_22_);fill:none;stroke:#000000;stroke-linejoin:round;stroke-miterlimit:10;}
	.st17{clip-path:url(#SVGID_24_);fill:none;stroke:#000000;stroke-linejoin:round;stroke-miterlimit:10;}
	.st18{clip-path:url(#SVGID_26_);fill:none;stroke:#000000;stroke-linejoin:round;stroke-miterlimit:10;}
	.st19{clip-path:url(#SVGID_28_);fill:none;stroke:#000000;stroke-linejoin:round;stroke-miterlimit:10;}
	.st20{clip-path:url(#SVGID_30_);fill:none;stroke:#000000;stroke-linejoin:round;stroke-miterlimit:10;}
	.st21{clip-path:url(#SVGID_32_);fill:none;stroke:#000000;stroke-linejoin:round;stroke-miterlimit:10;}
	.st22{clip-path:url(#SVGID_34_);fill:none;stroke:#000000;stroke-linejoin:round;stroke-miterlimit:10;}
	.st23{clip-path:url(#SVGID_36_);fill:none;stroke:#000000;stroke-linejoin:round;stroke-miterlimit:10;}
	.st24{clip-path:url(#SVGID_38_);fill:none;stroke:#000000;stroke-linejoin:round;stroke-miterlimit:10;}
	.st25{clip-path:url(#SVGID_40_);fill:none;stroke:#000000;stroke-linejoin:round;stroke-miterlimit:10;}
	.st26{clip-path:url(#SVGID_42_);fill:none;stroke:#000000;stroke-linejoin:round;stroke-miterlimit:10;}
	.st27{clip-path:url(#SVGID_44_);fill:none;stroke:#000000;stroke-linejoin:round;stroke-miterlimit:10;}
	.st28{clip-path:url(#SVGID_46_);fill:none;stroke:#000000;stroke-linejoin:round;stroke-miterlimit:10;}
	.st29{clip-path:url(#SVGID_48_);fill:none;stroke:#000000;stroke-linejoin:round;stroke-miterlimit:10;}
	.st30{clip-path:url(#SVGID_50_);fill:none;stroke:#000000;stroke-linejoin:round;stroke-miterlimit:10;}
	.st31{clip-path:url(#SVGID_52_);fill:none;stroke:#000000;stroke-linejoin:round;stroke-miterlimit:10;}
	.st32{clip-path:url(#SVGID_54_);fill:none;stroke:#000000;stroke-linejoin:round;stroke-miterlimit:10;}
	.st33{clip-path:url(#SVGID_56_);fill:none;stroke:#000000;stroke-linejoin:round;stroke-miterlimit:10;}
	.st34{clip-path:url(#SVGID_58_);fill:none;stroke:#000000;stroke-linejoin:round;stroke-miterlimit:10;}
	.st35{clip-path:url(#SVGID_60_);fill:none;stroke:#000000;stroke-linejoin:round;stroke-miterlimit:10;}
	.st36{clip-path:url(#SVGID_62_);fill:none;stroke:#000000;stroke-linecap:round;stroke-linejoin:round;stroke-miterlimit:10;}
	.st37{clip-path:url(#SVGID_64_);}
	.st38{fill:none;stroke:#000000;stroke-width:2;stroke-linejoin:round;stroke-miterlimit:10;}
	.st39{clip-path:url(#SVGID_66_);}
	.st40{clip-path:url(#SVGID_68_);}
	.st41{clip-path:url(#SVGID_70_);}
	.st42{clip-path:url(#SVGID_72_);}
	.st43{clip-path:url(#SVGID_74_);fill:none;stroke:#000000;stroke-linejoin:round;stroke-miterlimit:10;stroke-dasharray:6,6;}
	.st44{clip-path:url(#SVGID_76_);}
	.st45{clip-path:url(#SVGID_78_);}
	.st46{clip-path:url(#SVGID_80_);}
	.st47{clip-path:url(#SVGID_82_);}
	.st48{clip-path:url(#SVGID_84_);}
	.st49{fill:none;stroke:#000000;stroke-width:2;stroke-miterlimit:10;}
	.st50{clip-path:url(#SVGID_86_);fill:none;stroke:#000000;stroke-linejoin:round;stroke-miterlimit:10;stroke-dasharray:3,5,1,5;}
	.st51{clip-path:url(#SVGID_88_);}
	.st52{clip-path:url(#SVGID_90_);}
	.st53{clip-path:url(#SVGID_92_);}
	.st54{clip-path:url(#SVGID_94_);}
	.st55{clip-path:url(#SVGID_96_);}
	.st56{clip-path:url(#SVGID_98_);fill:none;stroke:#000000;stroke-linejoin:round;stroke-miterlimit:10;stroke-dasharray:1,3;}
	.st57{clip-path:url(#SVGID_100_);}
	.st58{clip-path:url(#SVGID_102_);}
	.st59{clip-path:url(#SVGID_104_);}
	.st60{clip-path:url(#SVGID_106_);}
	.st61{clip-path:url(#SVGID_108_);}
	.st62{fill:none;stroke:#262626;stroke-width:1.25;stroke-linecap:square;stroke-miterlimit:10;}
</style>
<g id="figure_1">
	<g id="patch_1">
		<path class="st0" d="M0,900.9h1152V0H0V900.9z"/>
	</g>
	<g id="axes_1">
		<g id="patch_2">
			<path class="st0" d="M144,810.8h892.8V90.1H144V810.8z"/>
		</g>
		<g id="matplotlib.axis_1">
			<g id="xtick_1">
				<g id="line2d_1">
					<g>
						<g>
							<path id="mf0300171ae" class="st1" d="M144,810.8v6"/>
						</g>
					</g>
				</g>
				<g id="text_1">
					<text transform="matrix(1 0 0 1 124.207 845.4625)" class="st2 st3 st4">−0.5</text>
				</g>
			</g>
			<g id="xtick_2">
				<g id="line2d_2">
					<g>
						<g>
							<path id="mf0300171ae_1_" class="st1" d="M271.5,810.8v6"/>
						</g>
					</g>
				</g>
				<g id="text_2">
					<text transform="matrix(1 0 0 1 256.4218 845.4625)" class="st2 st3 st4">0.0</text>
				</g>
			</g>
			<g id="xtick_3">
				<g id="line2d_3">
					<g>
						<g>
							<path id="mf0300171ae_2_" class="st1" d="M399.1,810.8v6"/>
						</g>
					</g>
				</g>
				<g id="text_3">
					<text transform="matrix(1 0 0 1 383.9646 845.4625)" class="st2 st3 st4">0.5</text>
				</g>
			</g>
			<g id="xtick_4">
				<g id="line2d_4">
					<g>
						<g>
							<path id="mf0300171ae_3_" class="st1" d="M526.6,810.8v6"/>
						</g>
					</g>
				</g>
				<g id="text_4">
					<text transform="matrix(1 0 0 1 511.5075 845.4625)" class="st2 st3 st4">1.0</text>
				</g>
			</g>
			<g id="xtick_5">
				<g id="line2d_5">
					<g>
						<g>
							<path id="mf0300171ae_4_" class="st1" d="M654.2,810.8v6"/>
						</g>
					</g>
				</g>
				<g id="text_5">
					<text transform="matrix(1 0 0 1 639.0504 845.4625)" class="st2 st3 st4">1.5</text>
				</g>
			</g>
			<g id="xtick_6">
				<g id="line2d_6">
					<g>
						<g>
							<path id="mf0300171ae_5_" class="st1" d="M781.7,810.8v6"/>
						</g>
					</g>
				</g>
				<g id="text_6">
					<text transform="matrix(1 0 0 1 766.5932 845.4625)" class="st2 st3 st4">2.0</text>
				</g>
			</g>
			<g id="xtick_7">
				<g id="line2d_7">
					<g>
						<g>
							<path id="mf0300171ae_6_" class="st1" d="M909.3,810.8v6"/>
						</g>
					</g>
				</g>
				<g id="text_7">
					<text transform="matrix(1 0 0 1 894.136 845.4625)" class="st2 st3 st4">2.5</text>
				</g>
			</g>
			<g id="xtick_8">
				<g id="line2d_8">
					<g>
						<g>
							<path id="mf0300171ae_7_" class="st1" d="M1036.8,810.8v6"/>
						</g>
					</g>
				</g>
				<g id="text_8">
					<text transform="matrix(1 0 0 1 1021.679 845.4625)" class="st2 st3 st4">3.0</text>
				</g>
			</g>
			<g id="text_9">
				<text transform="matrix(1 0 0 1 480.9901 884.6022)" class="st2 st3 st5">Cw (Bq/mL)</text>
			</g>
		</g>
		<g id="matplotlib.axis_2">
			<g id="ytick_1">
				<g id="line2d_9">
					<g>
						<g>
							<path id="mb85ff1f326" class="st1" d="M144,803.7h-6"/>
						</g>
					</g>
				</g>
				<g id="text_10">
					<text transform="matrix(1 0 0 1 120.6984 810.8104)" class="st2 st3 st4">0</text>
				</g>
			</g>
			<g id="ytick_2">
				<g id="line2d_10">
					<g>
						<g>
							<path id="mb85ff1f326_1_" class="st1" d="M144,661h-6"/>
						</g>
					</g>
				</g>
				<g id="text_11">
					<text transform="matrix(1 0 0 1 80.6555 668.0936)" class="st2 st3 st4">2000</text>
				</g>
			</g>
			<g id="ytick_3">
				<g id="line2d_11">
					<g>
						<g>
							<path id="mb85ff1f326_2_" class="st1" d="M144,518.2h-6"/>
						</g>
					</g>
				</g>
				<g id="text_12">
					<text transform="matrix(1 0 0 1 80.6555 525.3768)" class="st2 st3 st4">4000</text>
				</g>
			</g>
			<g id="ytick_4">
				<g id="line2d_12">
					<g>
						<g>
							<path id="mb85ff1f326_3_" class="st1" d="M144,375.5h-6"/>
						</g>
					</g>
				</g>
				<g id="text_13">
					<text transform="matrix(1 0 0 1 80.6555 382.6599)" class="st2 st3 st4">6000</text>
				</g>
			</g>
			<g id="ytick_5">
				<g id="line2d_13">
					<g>
						<g>
							<path id="mb85ff1f326_4_" class="st1" d="M144,232.8h-6"/>
						</g>
					</g>
				</g>
				<g id="text_14">
					<text transform="matrix(1 0 0 1 80.6555 239.9431)" class="st2 st3 st4">8000</text>
				</g>
			</g>
			<g id="ytick_6">
				<g id="line2d_14">
					<g>
						<g>
							<path id="mb85ff1f326_5_" class="st1" d="M144,90.1h-6"/>
						</g>
					</g>
				</g>
				<g id="text_15">
					<text transform="matrix(1 0 0 1 67.3078 97.2263)" class="st2 st3 st4">10000</text>
				</g>
			</g>
			<g id="text_16">
				<text transform="matrix(6.123234e-017 -1 1 6.123234e-017 59.6019 526.0166)" class="st2 st3 st5">Cs (Bq/g)</text>
			</g>
		</g>
		<g id="LineCollection_1">
			<g>
				<defs>
					<rect id="SVGID_1_" x="144" y="90.1" width="892.8" height="720.7"/>
				</defs>
				<clipPath id="SVGID_2_">
					<use xlink:href="#SVGID_1_"  style="overflow:visible;"/>
				</clipPath>
				<path class="st6" d="M286.5,808.9h8.7"/>
			</g>
			<g>
				<defs>
					<rect id="SVGID_3_" x="144" y="90.1" width="892.8" height="720.7"/>
				</defs>
				<clipPath id="SVGID_4_">
					<use xlink:href="#SVGID_3_"  style="overflow:visible;"/>
				</clipPath>
				<path class="st7" d="M335.1,802.6h8.5"/>
			</g>
			<g>
				<defs>
					<rect id="SVGID_5_" x="144" y="90.1" width="892.8" height="720.7"/>
				</defs>
				<clipPath id="SVGID_6_">
					<use xlink:href="#SVGID_5_"  style="overflow:visible;"/>
				</clipPath>
				<path class="st8" d="M389.6,795h20.7"/>
			</g>
			<g>
				<defs>
					<rect id="SVGID_7_" x="144" y="90.1" width="892.8" height="720.7"/>
				</defs>
				<clipPath id="SVGID_8_">
					<use xlink:href="#SVGID_7_"  style="overflow:visible;"/>
				</clipPath>
				<path class="st9" d="M884.6,765.9H958"/>
			</g>
		</g>
		<g id="LineCollection_2">
			<g>
				<defs>
					<rect id="SVGID_9_" x="144" y="90.1" width="892.8" height="720.7"/>
				</defs>
				<clipPath id="SVGID_10_">
					<use xlink:href="#SVGID_9_"  style="overflow:visible;"/>
				</clipPath>
				<path class="st10" d="M290.9,813v-8.1"/>
			</g>
			<g>
				<defs>
					<rect id="SVGID_11_" x="144" y="90.1" width="892.8" height="720.7"/>
				</defs>
				<clipPath id="SVGID_12_">
					<use xlink:href="#SVGID_11_"  style="overflow:visible;"/>
				</clipPath>
				<path class="st11" d="M339.3,806.5v-7.9"/>
			</g>
			<g>
				<defs>
					<rect id="SVGID_13_" x="144" y="90.1" width="892.8" height="720.7"/>
				</defs>
				<clipPath id="SVGID_14_">
					<use xlink:href="#SVGID_13_"  style="overflow:visible;"/>
				</clipPath>
				<path class="st12" d="M400,804.6v-19.3"/>
			</g>
			<g>
				<defs>
					<rect id="SVGID_15_" x="144" y="90.1" width="892.8" height="720.7"/>
				</defs>
				<clipPath id="SVGID_16_">
					<use xlink:href="#SVGID_15_"  style="overflow:visible;"/>
				</clipPath>
				<path class="st13" d="M921.3,800.1v-68.5"/>
			</g>
		</g>
		<g id="LineCollection_3">
			<g>
				<defs>
					<rect id="SVGID_17_" x="144" y="90.1" width="892.8" height="720.7"/>
				</defs>
				<clipPath id="SVGID_18_">
					<use xlink:href="#SVGID_17_"  style="overflow:visible;"/>
				</clipPath>
				<path class="st14" d="M278.2,805h3.2"/>
			</g>
			<g>
				<defs>
					<rect id="SVGID_19_" x="144" y="90.1" width="892.8" height="720.7"/>
				</defs>
				<clipPath id="SVGID_20_">
					<use xlink:href="#SVGID_19_"  style="overflow:visible;"/>
				</clipPath>
				<path class="st15" d="M283.4,803.3h2.9"/>
			</g>
			<g>
				<defs>
					<rect id="SVGID_21_" x="144" y="90.1" width="892.8" height="720.7"/>
				</defs>
				<clipPath id="SVGID_22_">
					<use xlink:href="#SVGID_21_"  style="overflow:visible;"/>
				</clipPath>
				<path class="st16" d="M303.4,787.1H342"/>
			</g>
			<g>
				<defs>
					<rect id="SVGID_23_" x="144" y="90.1" width="892.8" height="720.7"/>
				</defs>
				<clipPath id="SVGID_24_">
					<use xlink:href="#SVGID_23_"  style="overflow:visible;"/>
				</clipPath>
				<path class="st17" d="M393.4,790.5h3.5"/>
			</g>
			<g>
				<defs>
					<rect id="SVGID_25_" x="144" y="90.1" width="892.8" height="720.7"/>
				</defs>
				<clipPath id="SVGID_26_">
					<use xlink:href="#SVGID_25_"  style="overflow:visible;"/>
				</clipPath>
				<path class="st18" d="M842.1,723.1h66.8"/>
			</g>
		</g>
		<g id="LineCollection_4">
			<g>
				<defs>
					<rect id="SVGID_27_" x="144" y="90.1" width="892.8" height="720.7"/>
				</defs>
				<clipPath id="SVGID_28_">
					<use xlink:href="#SVGID_27_"  style="overflow:visible;"/>
				</clipPath>
				<path class="st19" d="M279.8,806.5v-3"/>
			</g>
			<g>
				<defs>
					<rect id="SVGID_29_" x="144" y="90.1" width="892.8" height="720.7"/>
				</defs>
				<clipPath id="SVGID_30_">
					<use xlink:href="#SVGID_29_"  style="overflow:visible;"/>
				</clipPath>
				<path class="st20" d="M284.9,804.6v-2.7"/>
			</g>
			<g>
				<defs>
					<rect id="SVGID_31_" x="144" y="90.1" width="892.8" height="720.7"/>
				</defs>
				<clipPath id="SVGID_32_">
					<use xlink:href="#SVGID_31_"  style="overflow:visible;"/>
				</clipPath>
				<path class="st21" d="M322.7,805.1v-36"/>
			</g>
			<g>
				<defs>
					<rect id="SVGID_33_" x="144" y="90.1" width="892.8" height="720.7"/>
				</defs>
				<clipPath id="SVGID_34_">
					<use xlink:href="#SVGID_33_"  style="overflow:visible;"/>
				</clipPath>
				<path class="st22" d="M395.2,792.1v-3.2"/>
			</g>
			<g>
				<defs>
					<rect id="SVGID_35_" x="144" y="90.1" width="892.8" height="720.7"/>
				</defs>
				<clipPath id="SVGID_36_">
					<use xlink:href="#SVGID_35_"  style="overflow:visible;"/>
				</clipPath>
				<path class="st23" d="M875.5,752.6v-59"/>
			</g>
		</g>
		<g id="LineCollection_5">
			<g>
				<defs>
					<rect id="SVGID_37_" x="144" y="90.1" width="892.8" height="720.7"/>
				</defs>
				<clipPath id="SVGID_38_">
					<use xlink:href="#SVGID_37_"  style="overflow:visible;"/>
				</clipPath>
				<path class="st24" d="M278.9,798.4h1.5"/>
			</g>
			<g>
				<defs>
					<rect id="SVGID_39_" x="144" y="90.1" width="892.8" height="720.7"/>
				</defs>
				<clipPath id="SVGID_40_">
					<use xlink:href="#SVGID_39_"  style="overflow:visible;"/>
				</clipPath>
				<path class="st25" d="M300.4,767.5h2.6"/>
			</g>
			<g>
				<defs>
					<rect id="SVGID_41_" x="144" y="90.1" width="892.8" height="720.7"/>
				</defs>
				<clipPath id="SVGID_42_">
					<use xlink:href="#SVGID_41_"  style="overflow:visible;"/>
				</clipPath>
				<path class="st26" d="M331.1,734.6h8.1"/>
			</g>
			<g>
				<defs>
					<rect id="SVGID_43_" x="144" y="90.1" width="892.8" height="720.7"/>
				</defs>
				<clipPath id="SVGID_44_">
					<use xlink:href="#SVGID_43_"  style="overflow:visible;"/>
				</clipPath>
				<path class="st27" d="M615.4,522.5h89.9"/>
			</g>
		</g>
		<g id="LineCollection_6">
			<g>
				<defs>
					<rect id="SVGID_45_" x="144" y="90.1" width="892.8" height="720.7"/>
				</defs>
				<clipPath id="SVGID_46_">
					<use xlink:href="#SVGID_45_"  style="overflow:visible;"/>
				</clipPath>
				<path class="st28" d="M279.6,799.1v-1.4"/>
			</g>
			<g>
				<defs>
					<rect id="SVGID_47_" x="144" y="90.1" width="892.8" height="720.7"/>
				</defs>
				<clipPath id="SVGID_48_">
					<use xlink:href="#SVGID_47_"  style="overflow:visible;"/>
				</clipPath>
				<path class="st29" d="M301.7,768.7v-2.4"/>
			</g>
			<g>
				<defs>
					<rect id="SVGID_49_" x="144" y="90.1" width="892.8" height="720.7"/>
				</defs>
				<clipPath id="SVGID_50_">
					<use xlink:href="#SVGID_49_"  style="overflow:visible;"/>
				</clipPath>
				<path class="st30" d="M335.1,738.3v-7.5"/>
			</g>
			<g>
				<defs>
					<rect id="SVGID_51_" x="144" y="90.1" width="892.8" height="720.7"/>
				</defs>
				<clipPath id="SVGID_52_">
					<use xlink:href="#SVGID_51_"  style="overflow:visible;"/>
				</clipPath>
				<path class="st31" d="M660.4,564.4v-83.8"/>
			</g>
		</g>
		<g id="LineCollection_7">
			<g>
				<defs>
					<rect id="SVGID_53_" x="144" y="90.1" width="892.8" height="720.7"/>
				</defs>
				<clipPath id="SVGID_54_">
					<use xlink:href="#SVGID_53_"  style="overflow:visible;"/>
				</clipPath>
				<path class="st32" d="M267.7,736.8h2.2"/>
			</g>
			<g>
				<defs>
					<rect id="SVGID_55_" x="144" y="90.1" width="892.8" height="720.7"/>
				</defs>
				<clipPath id="SVGID_56_">
					<use xlink:href="#SVGID_55_"  style="overflow:visible;"/>
				</clipPath>
				<path class="st33" d="M277.8,195.7h7.1"/>
			</g>
		</g>
		<g id="LineCollection_8">
			<g>
				<defs>
					<rect id="SVGID_57_" x="144" y="90.1" width="892.8" height="720.7"/>
				</defs>
				<clipPath id="SVGID_58_">
					<use xlink:href="#SVGID_57_"  style="overflow:visible;"/>
				</clipPath>
				<path class="st34" d="M268.7,737.8v-2"/>
			</g>
			<g>
				<defs>
					<rect id="SVGID_59_" x="144" y="90.1" width="892.8" height="720.7"/>
				</defs>
				<clipPath id="SVGID_60_">
					<use xlink:href="#SVGID_59_"  style="overflow:visible;"/>
				</clipPath>
				<path class="st35" d="M281.4,221.2v-51.1"/>
			</g>
		</g>
		<g id="line2d_15">
			<g>
				<defs>
					<rect id="SVGID_61_" x="144" y="90.1" width="892.8" height="720.7"/>
				</defs>
				<clipPath id="SVGID_62_">
					<use xlink:href="#SVGID_61_"  style="overflow:visible;"/>
				</clipPath>
				<path class="st36" d="M290.9,805.7l48.4-3.1l60.7-3.9l521.3-33.5"/>
			</g>
		</g>
		<g id="line2d_16">
			<g>
				<defs>
					<rect id="SVGID_63_" x="144" y="90.1" width="892.8" height="720.7"/>
				</defs>
				<clipPath id="SVGID_64_">
					<use xlink:href="#SVGID_63_"  style="overflow:visible;"/>
				</clipPath>
				<g class="st37">
					<g>
						<path id="m355aac1111" class="st38" d="M286.5,813.9v-10"/>
					</g>
					<g>
						<path id="m355aac1111_1_" class="st38" d="M335.1,807.6v-10"/>
					</g>
					<g>
						<path id="m355aac1111_2_" class="st38" d="M389.6,800v-10"/>
					</g>
					<g>
						<path id="m355aac1111_3_" class="st38" d="M884.6,770.9v-10"/>
					</g>
				</g>
			</g>
		</g>
		<g id="line2d_17">
			<g>
				<defs>
					<rect id="SVGID_65_" x="144" y="90.1" width="892.8" height="720.7"/>
				</defs>
				<clipPath id="SVGID_66_">
					<use xlink:href="#SVGID_65_"  style="overflow:visible;"/>
				</clipPath>
				<g class="st39">
					<g>
						<path id="m355aac1111_4_" class="st38" d="M295.3,813.9v-10"/>
					</g>
					<g>
						<path id="m355aac1111_5_" class="st38" d="M343.5,807.6v-10"/>
					</g>
					<g>
						<path id="m355aac1111_6_" class="st38" d="M410.3,800v-10"/>
					</g>
					<g>
						<path id="m355aac1111_7_" class="st38" d="M958,770.9v-10"/>
					</g>
				</g>
			</g>
		</g>
		<g id="line2d_18">
			<g>
				<defs>
					<rect id="SVGID_67_" x="144" y="90.1" width="892.8" height="720.7"/>
				</defs>
				<clipPath id="SVGID_68_">
					<use xlink:href="#SVGID_67_"  style="overflow:visible;"/>
				</clipPath>
				<g class="st40">
					<g>
						<path id="md5e5f0dcf1" class="st38" d="M295.9,813h-10"/>
					</g>
					<g>
						<path id="md5e5f0dcf1_1_" class="st38" d="M344.3,806.5h-10"/>
					</g>
					<g>
						<path id="md5e5f0dcf1_2_" class="st38" d="M405,804.6h-10"/>
					</g>
					<g>
						<path id="md5e5f0dcf1_3_" class="st38" d="M926.3,800.1h-10"/>
					</g>
				</g>
			</g>
		</g>
		<g id="line2d_19">
			<g>
				<defs>
					<rect id="SVGID_69_" x="144" y="90.1" width="892.8" height="720.7"/>
				</defs>
				<clipPath id="SVGID_70_">
					<use xlink:href="#SVGID_69_"  style="overflow:visible;"/>
				</clipPath>
				<g class="st41">
					<g>
						<path id="md5e5f0dcf1_4_" class="st38" d="M295.9,804.8h-10"/>
					</g>
					<g>
						<path id="md5e5f0dcf1_5_" class="st38" d="M344.3,798.6h-10"/>
					</g>
					<g>
						<path id="md5e5f0dcf1_6_" class="st38" d="M405,785.4h-10"/>
					</g>
					<g>
						<path id="md5e5f0dcf1_7_" class="st38" d="M926.3,731.6h-10"/>
					</g>
				</g>
			</g>
		</g>
		<g id="line2d_20">
			<g>
				<defs>
					<rect id="SVGID_71_" x="144" y="90.1" width="892.8" height="720.7"/>
				</defs>
				<clipPath id="SVGID_72_">
					<use xlink:href="#SVGID_71_"  style="overflow:visible;"/>
				</clipPath>
				<g class="st42">
					<g>
						<path id="mcf3c595b10" class="st38" d="M290.9,818.9c2.7,0,5.2-1.1,7.1-2.9c1.9-1.9,2.9-4.4,2.9-7.1s-1.1-5.2-2.9-7.1
							c-1.9-1.9-4.4-2.9-7.1-2.9s-5.2,1.1-7.1,2.9c-1.9,1.9-2.9,4.4-2.9,7.1s1.1,5.2,2.9,7.1C285.7,817.8,288.3,818.9,290.9,818.9z"
							/>
					</g>
					<g>
						<path id="mcf3c595b10_1_" class="st38" d="M339.3,812.6c2.7,0,5.2-1.1,7.1-2.9c1.9-1.9,2.9-4.4,2.9-7.1s-1.1-5.2-2.9-7.1
							c-1.9-1.9-4.4-2.9-7.1-2.9s-5.2,1.1-7.1,2.9c-1.9,1.9-2.9,4.4-2.9,7.1s1.1,5.2,2.9,7.1C334.1,811.5,336.6,812.6,339.3,812.6z"
							/>
					</g>
					<g>
						<path id="mcf3c595b10_2_" class="st38" d="M400,805c2.7,0,5.2-1.1,7.1-2.9c1.9-1.9,2.9-4.4,2.9-7.1s-1.1-5.2-2.9-7.1
							c-1.9-1.9-4.4-2.9-7.1-2.9s-5.2,1.1-7.1,2.9c-1.9,1.9-2.9,4.4-2.9,7.1s1.1,5.2,2.9,7.1C394.8,803.9,397.3,805,400,805z"/>
					</g>
					<g>
						<path id="mcf3c595b10_3_" class="st38" d="M921.3,775.9c2.7,0,5.2-1.1,7.1-2.9c1.9-1.9,2.9-4.4,2.9-7.1s-1.1-5.2-2.9-7.1
							c-1.9-1.9-4.4-2.9-7.1-2.9s-5.2,1.1-7.1,2.9c-1.9,1.9-2.9,4.4-2.9,7.1s1.1,5.2,2.9,7.1C916.1,774.8,918.7,775.9,921.3,775.9z"
							/>
					</g>
				</g>
			</g>
		</g>
		<g id="line2d_21">
			<g>
				<defs>
					<rect id="SVGID_73_" x="144" y="90.1" width="892.8" height="720.7"/>
				</defs>
				<clipPath id="SVGID_74_">
					<use xlink:href="#SVGID_73_"  style="overflow:visible;"/>
				</clipPath>
				<path class="st43" d="M279.8,801.8l5.1-0.7l37.8-5l72.5-9.6l480.3-63.3"/>
			</g>
		</g>
		<g id="line2d_22">
			<g>
				<defs>
					<rect id="SVGID_75_" x="144" y="90.1" width="892.8" height="720.7"/>
				</defs>
				<clipPath id="SVGID_76_">
					<use xlink:href="#SVGID_75_"  style="overflow:visible;"/>
				</clipPath>
				<g class="st44">
					<g>
						<path id="m355aac1111_8_" class="st38" d="M278.2,810v-10"/>
					</g>
					<g>
						<path id="m355aac1111_9_" class="st38" d="M283.4,808.3v-10"/>
					</g>
					<g>
						<path id="m355aac1111_10_" class="st38" d="M303.4,792.1v-10"/>
					</g>
					<g>
						<path id="m355aac1111_11_" class="st38" d="M393.4,795.5v-10"/>
					</g>
					<g>
						<path id="m355aac1111_12_" class="st38" d="M842.1,728.1v-10"/>
					</g>
				</g>
			</g>
		</g>
		<g id="line2d_23">
			<g>
				<defs>
					<rect id="SVGID_77_" x="144" y="90.1" width="892.8" height="720.7"/>
				</defs>
				<clipPath id="SVGID_78_">
					<use xlink:href="#SVGID_77_"  style="overflow:visible;"/>
				</clipPath>
				<g class="st45">
					<g>
						<path id="m355aac1111_13_" class="st38" d="M281.4,810v-10"/>
					</g>
					<g>
						<path id="m355aac1111_14_" class="st38" d="M286.4,808.3v-10"/>
					</g>
					<g>
						<path id="m355aac1111_15_" class="st38" d="M342,792.1v-10"/>
					</g>
					<g>
						<path id="m355aac1111_16_" class="st38" d="M396.9,795.5v-10"/>
					</g>
					<g>
						<path id="m355aac1111_17_" class="st38" d="M908.9,728.1v-10"/>
					</g>
				</g>
			</g>
		</g>
		<g id="line2d_24">
			<g>
				<defs>
					<rect id="SVGID_79_" x="144" y="90.1" width="892.8" height="720.7"/>
				</defs>
				<clipPath id="SVGID_80_">
					<use xlink:href="#SVGID_79_"  style="overflow:visible;"/>
				</clipPath>
				<g class="st46">
					<g>
						<path id="md5e5f0dcf1_8_" class="st38" d="M284.8,806.5h-10"/>
					</g>
					<g>
						<path id="md5e5f0dcf1_9_" class="st38" d="M289.9,804.6h-10"/>
					</g>
					<g>
						<path id="md5e5f0dcf1_10_" class="st38" d="M327.7,805.1h-10"/>
					</g>
					<g>
						<path id="md5e5f0dcf1_11_" class="st38" d="M400.2,792.1h-10"/>
					</g>
					<g>
						<path id="md5e5f0dcf1_12_" class="st38" d="M880.5,752.6h-10"/>
					</g>
				</g>
			</g>
		</g>
		<g id="line2d_25">
			<g>
				<defs>
					<rect id="SVGID_81_" x="144" y="90.1" width="892.8" height="720.7"/>
				</defs>
				<clipPath id="SVGID_82_">
					<use xlink:href="#SVGID_81_"  style="overflow:visible;"/>
				</clipPath>
				<g class="st47">
					<g>
						<path id="md5e5f0dcf1_13_" class="st38" d="M284.8,803.5h-10"/>
					</g>
					<g>
						<path id="md5e5f0dcf1_14_" class="st38" d="M289.9,801.9h-10"/>
					</g>
					<g>
						<path id="md5e5f0dcf1_15_" class="st38" d="M327.7,769h-10"/>
					</g>
					<g>
						<path id="md5e5f0dcf1_16_" class="st38" d="M400.2,788.9h-10"/>
					</g>
					<g>
						<path id="md5e5f0dcf1_17_" class="st38" d="M880.5,693.6h-10"/>
					</g>
				</g>
			</g>
		</g>
		<g id="line2d_26">
			<g>
				<defs>
					<rect id="SVGID_83_" x="144" y="90.1" width="892.8" height="720.7"/>
				</defs>
				<clipPath id="SVGID_84_">
					<use xlink:href="#SVGID_83_"  style="overflow:visible;"/>
				</clipPath>
				<g class="st48">
					<g>
						<path id="mb2d2db801a" class="st49" d="M279.8,795l-10,20h20L279.8,795z"/>
					</g>
					<g>
						<path id="mb2d2db801a_1_" class="st49" d="M284.9,793.3l-10,20h20L284.9,793.3z"/>
					</g>
					<g>
						<path id="mb2d2db801a_2_" class="st49" d="M322.7,777.1l-10,20h20L322.7,777.1z"/>
					</g>
					<g>
						<path id="mb2d2db801a_3_" class="st49" d="M395.2,780.5l-10,20h20L395.2,780.5z"/>
					</g>
					<g>
						<path id="mb2d2db801a_4_" class="st49" d="M875.5,713.1l-10,20h20L875.5,713.1z"/>
					</g>
				</g>
			</g>
		</g>
		<g id="line2d_27">
			<g>
				<defs>
					<rect id="SVGID_85_" x="144" y="90.1" width="892.8" height="720.7"/>
				</defs>
				<clipPath id="SVGID_86_">
					<use xlink:href="#SVGID_85_"  style="overflow:visible;"/>
				</clipPath>
				<path class="st50" d="M279.6,785.5l22.1-15.4l33.4-23.2l325.2-226.3"/>
			</g>
		</g>
		<g id="line2d_28">
			<g>
				<defs>
					<rect id="SVGID_87_" x="144" y="90.1" width="892.8" height="720.7"/>
				</defs>
				<clipPath id="SVGID_88_">
					<use xlink:href="#SVGID_87_"  style="overflow:visible;"/>
				</clipPath>
				<g class="st51">
					<g>
						<path id="m355aac1111_18_" class="st38" d="M278.9,803.4v-10"/>
					</g>
					<g>
						<path id="m355aac1111_19_" class="st38" d="M300.4,772.5v-10"/>
					</g>
					<g>
						<path id="m355aac1111_20_" class="st38" d="M331.1,739.6v-10"/>
					</g>
					<g>
						<path id="m355aac1111_21_" class="st38" d="M615.4,527.5v-10"/>
					</g>
				</g>
			</g>
		</g>
		<g id="line2d_29">
			<g>
				<defs>
					<rect id="SVGID_89_" x="144" y="90.1" width="892.8" height="720.7"/>
				</defs>
				<clipPath id="SVGID_90_">
					<use xlink:href="#SVGID_89_"  style="overflow:visible;"/>
				</clipPath>
				<g class="st52">
					<g>
						<path id="m355aac1111_22_" class="st38" d="M280.4,803.4v-10"/>
					</g>
					<g>
						<path id="m355aac1111_23_" class="st38" d="M303,772.5v-10"/>
					</g>
					<g>
						<path id="m355aac1111_24_" class="st38" d="M339.2,739.6v-10"/>
					</g>
					<g>
						<path id="m355aac1111_25_" class="st38" d="M705.3,527.5v-10"/>
					</g>
				</g>
			</g>
		</g>
		<g id="line2d_30">
			<g>
				<defs>
					<rect id="SVGID_91_" x="144" y="90.1" width="892.8" height="720.7"/>
				</defs>
				<clipPath id="SVGID_92_">
					<use xlink:href="#SVGID_91_"  style="overflow:visible;"/>
				</clipPath>
				<g class="st53">
					<g>
						<path id="md5e5f0dcf1_18_" class="st38" d="M284.6,799.1h-10"/>
					</g>
					<g>
						<path id="md5e5f0dcf1_19_" class="st38" d="M306.7,768.7h-10"/>
					</g>
					<g>
						<path id="md5e5f0dcf1_20_" class="st38" d="M340.1,738.3h-10"/>
					</g>
					<g>
						<path id="md5e5f0dcf1_21_" class="st38" d="M665.4,564.4h-10"/>
					</g>
				</g>
			</g>
		</g>
		<g id="line2d_31">
			<g>
				<defs>
					<rect id="SVGID_93_" x="144" y="90.1" width="892.8" height="720.7"/>
				</defs>
				<clipPath id="SVGID_94_">
					<use xlink:href="#SVGID_93_"  style="overflow:visible;"/>
				</clipPath>
				<g class="st54">
					<g>
						<path id="md5e5f0dcf1_22_" class="st38" d="M284.6,797.7h-10"/>
					</g>
					<g>
						<path id="md5e5f0dcf1_23_" class="st38" d="M306.7,766.3h-10"/>
					</g>
					<g>
						<path id="md5e5f0dcf1_24_" class="st38" d="M340.1,730.8h-10"/>
					</g>
					<g>
						<path id="md5e5f0dcf1_25_" class="st38" d="M665.4,480.6h-10"/>
					</g>
				</g>
			</g>
		</g>
		<g id="line2d_32">
			<g>
				<defs>
					<rect id="SVGID_95_" x="144" y="90.1" width="892.8" height="720.7"/>
				</defs>
				<clipPath id="SVGID_96_">
					<use xlink:href="#SVGID_95_"  style="overflow:visible;"/>
				</clipPath>
				<g class="st55">
					<g>
						<path id="m1324662c9c" class="st49" d="M269.6,808.4h20v-20h-20V808.4z"/>
					</g>
					<g>
						<path id="m1324662c9c_1_" class="st49" d="M291.7,777.5h20v-20h-20V777.5z"/>
					</g>
					<g>
						<path id="m1324662c9c_2_" class="st49" d="M325.1,744.6h20v-20h-20V744.6z"/>
					</g>
					<g>
						<path id="m1324662c9c_3_" class="st49" d="M650.4,532.5h20v-20h-20V532.5z"/>
					</g>
				</g>
			</g>
		</g>
		<g id="line2d_33">
			<g>
				<defs>
					<rect id="SVGID_97_" x="144" y="90.1" width="892.8" height="720.7"/>
				</defs>
				<clipPath id="SVGID_98_">
					<use xlink:href="#SVGID_97_"  style="overflow:visible;"/>
				</clipPath>
				<path class="st56" d="M268.7,736.8l12.7-541.1"/>
			</g>
		</g>
		<g id="line2d_34">
			<g>
				<defs>
					<rect id="SVGID_99_" x="144" y="90.1" width="892.8" height="720.7"/>
				</defs>
				<clipPath id="SVGID_100_">
					<use xlink:href="#SVGID_99_"  style="overflow:visible;"/>
				</clipPath>
				<g class="st57">
					<g>
						<path id="m355aac1111_26_" class="st38" d="M267.7,741.8v-10"/>
					</g>
					<g>
						<path id="m355aac1111_27_" class="st38" d="M277.8,200.7v-10"/>
					</g>
				</g>
			</g>
		</g>
		<g id="line2d_35">
			<g>
				<defs>
					<rect id="SVGID_101_" x="144" y="90.1" width="892.8" height="720.7"/>
				</defs>
				<clipPath id="SVGID_102_">
					<use xlink:href="#SVGID_101_"  style="overflow:visible;"/>
				</clipPath>
				<g class="st58">
					<g>
						<path id="m355aac1111_28_" class="st38" d="M269.8,741.8v-10"/>
					</g>
					<g>
						<path id="m355aac1111_29_" class="st38" d="M285,200.7v-10"/>
					</g>
				</g>
			</g>
		</g>
		<g id="line2d_36">
			<g>
				<defs>
					<rect id="SVGID_103_" x="144" y="90.1" width="892.8" height="720.7"/>
				</defs>
				<clipPath id="SVGID_104_">
					<use xlink:href="#SVGID_103_"  style="overflow:visible;"/>
				</clipPath>
				<g class="st59">
					<g>
						<path id="md5e5f0dcf1_26_" class="st38" d="M273.7,737.8h-10"/>
					</g>
					<g>
						<path id="md5e5f0dcf1_27_" class="st38" d="M286.4,221.2h-10"/>
					</g>
				</g>
			</g>
		</g>
		<g id="line2d_37">
			<g>
				<defs>
					<rect id="SVGID_105_" x="144" y="90.1" width="892.8" height="720.7"/>
				</defs>
				<clipPath id="SVGID_106_">
					<use xlink:href="#SVGID_105_"  style="overflow:visible;"/>
				</clipPath>
				<g class="st60">
					<g>
						<path id="md5e5f0dcf1_28_" class="st38" d="M273.7,735.8h-10"/>
					</g>
					<g>
						<path id="md5e5f0dcf1_29_" class="st38" d="M286.4,170.2h-10"/>
					</g>
				</g>
			</g>
		</g>
		<g id="line2d_38">
			<g>
				<defs>
					<rect id="SVGID_107_" x="144" y="90.1" width="892.8" height="720.7"/>
				</defs>
				<clipPath id="SVGID_108_">
					<use xlink:href="#SVGID_107_"  style="overflow:visible;"/>
				</clipPath>
				<g class="st61">
					<g>
						<path id="me94f2a6666" class="st49" d="M268.7,726.8l-9.5,6.9l3.6,11.2h11.8l3.6-11.2L268.7,726.8z"/>
					</g>
					<g>
						<path id="me94f2a6666_1_" class="st49" d="M281.4,185.7l-9.5,6.9l3.6,11.2h11.8l3.6-11.2L281.4,185.7z"/>
					</g>
				</g>
			</g>
		</g>
		<g id="patch_3">
			<path class="st62" d="M144,810.8h892.8"/>
		</g>
		<g id="patch_4">
			<path class="st62" d="M144,810.8V90.1"/>
		</g>
		<g id="legend_1">
			<g id="line2d_39">
			</g>
			<g id="line2d_40">
				<g>
					<g>
						<path id="mcf3c595b10_4_" class="st38" d="M656.8,146c2.7,0,5.2-1.1,7.1-2.9c1.9-1.9,2.9-4.4,2.9-7.1s-1.1-5.2-2.9-7.1
							c-1.9-1.9-4.4-2.9-7.1-2.9s-5.2,1.1-7.1,2.9c-1.9,1.9-2.9,4.4-2.9,7.1s1.1,5.2,2.9,7.1C651.6,144.9,654.2,146,656.8,146z"/>
					</g>
				</g>
			</g>
			<g id="text_17">
				<text transform="matrix(1 0 0 1 685.6168 142.3811)" class="st2 st3 st4">pH: 3 Kd: 229.89 R2: 0.98</text>
			</g>
			<g id="line2d_41">
			</g>
			<g id="line2d_42">
				<g>
					<g>
						<path id="mb2d2db801a_5_" class="st49" d="M656.8,152l-10,20h20L656.8,152z"/>
					</g>
				</g>
			</g>
			<g id="text_18">
				<text transform="matrix(1 0 0 1 685.6168 168.3948)" class="st2 st3 st4">pH: 5 Kd: 471.37 R2: 0.98</text>
			</g>
			<g id="line2d_43">
			</g>
			<g id="line2d_44">
				<g>
					<g>
						<path id="m1324662c9c_4_" class="st49" d="M646.8,198h20v-20h-20V198z"/>
					</g>
				</g>
			</g>
			<g id="text_19">
				<text transform="matrix(1 0 0 1 685.6168 194.4079)" class="st2 st3 st4">pH: 7 Kd: 2486.88 R2: 0.99</text>
			</g>
			<g id="line2d_45">
			</g>
			<g id="line2d_46">
				<g>
					<g>
						<path id="me94f2a6666_2_" class="st49" d="M656.8,205l-9.5,6.9l3.6,11.2h11.8l3.6-11.2L656.8,205z"/>
					</g>
				</g>
			</g>
			<g id="text_20">
				<text transform="matrix(1 0 0 1 685.6168 220.4211)" class="st2 st3 st4">pH: 9 Kd: 152880.19 R2: 1.00</text>
			</g>
		</g>
	</g>
</g>
</svg>
