<?xml version="1.0" encoding="utf-8"?>
<!-- Generator: Adobe Illustrator 20.1.0, SVG Export Plug-In . SVG Version: 6.00 Build 0)  -->
<svg version="1.1" id="Layer_1" xmlns="http://www.w3.org/2000/svg" xmlns:xlink="http://www.w3.org/1999/xlink" x="0px" y="0px"
	 viewBox="0 0 1275.6 988.8" style="enable-background:new 0 0 1275.6 988.8;" xml:space="preserve">
<style type="text/css">
	.st0{fill:#FFFFFF;}
	.st1{fill:none;stroke:#262626;stroke-width:1.6;stroke-linejoin:round;stroke-miterlimit:10;}
	.st2{fill:#262626;}
	.st3{font-family:'ArialMT';}
	.st4{font-size:36px;}
	
		.st5{clip-path:url(#SVGID_2_);fill:none;stroke:#000000;stroke-width:4;stroke-linecap:round;stroke-linejoin:round;stroke-miterlimit:10;}
	.st6{clip-path:url(#SVGID_4_);fill:none;stroke:#000000;stroke-linejoin:round;stroke-miterlimit:10;}
	.st7{clip-path:url(#SVGID_6_);fill:none;stroke:#000000;stroke-linejoin:round;stroke-miterlimit:10;}
	.st8{clip-path:url(#SVGID_8_);fill:none;stroke:#000000;stroke-linejoin:round;stroke-miterlimit:10;}
	.st9{clip-path:url(#SVGID_10_);fill:none;stroke:#000000;stroke-linejoin:round;stroke-miterlimit:10;}
	.st10{clip-path:url(#SVGID_12_);fill:none;stroke:#000000;stroke-linejoin:round;stroke-miterlimit:10;}
	.st11{clip-path:url(#SVGID_14_);fill:none;stroke:#000000;stroke-linejoin:round;stroke-miterlimit:10;}
	.st12{clip-path:url(#SVGID_16_);fill:none;stroke:#000000;stroke-linejoin:round;stroke-miterlimit:10;}
	.st13{clip-path:url(#SVGID_18_);fill:none;stroke:#000000;stroke-linejoin:round;stroke-miterlimit:10;}
	.st14{clip-path:url(#SVGID_20_);fill:none;stroke:#000000;stroke-linejoin:round;stroke-miterlimit:10;}
	.st15{clip-path:url(#SVGID_22_);fill:none;stroke:#000000;stroke-linejoin:round;stroke-miterlimit:10;}
	.st16{clip-path:url(#SVGID_24_);}
	.st17{fill:none;stroke:#000000;stroke-width:2;stroke-linejoin:round;stroke-miterlimit:10;}
	.st18{clip-path:url(#SVGID_26_);}
	.st19{clip-path:url(#SVGID_28_);}
	.st20{clip-path:url(#SVGID_30_);}
	.st21{clip-path:url(#SVGID_32_);}
	
		.st22{clip-path:url(#SVGID_34_);fill:none;stroke:#000000;stroke-width:4;stroke-linejoin:round;stroke-miterlimit:10;stroke-dasharray:6,6;}
	.st23{clip-path:url(#SVGID_36_);fill:none;stroke:#000000;stroke-linejoin:round;stroke-miterlimit:10;}
	.st24{clip-path:url(#SVGID_38_);fill:none;stroke:#000000;stroke-linejoin:round;stroke-miterlimit:10;}
	.st25{clip-path:url(#SVGID_40_);fill:none;stroke:#000000;stroke-linejoin:round;stroke-miterlimit:10;}
	.st26{clip-path:url(#SVGID_42_);fill:none;stroke:#000000;stroke-linejoin:round;stroke-miterlimit:10;}
	.st27{clip-path:url(#SVGID_44_);fill:none;stroke:#000000;stroke-linejoin:round;stroke-miterlimit:10;}
	.st28{clip-path:url(#SVGID_46_);fill:none;stroke:#000000;stroke-linejoin:round;stroke-miterlimit:10;}
	.st29{clip-path:url(#SVGID_48_);fill:none;stroke:#000000;stroke-linejoin:round;stroke-miterlimit:10;}
	.st30{clip-path:url(#SVGID_50_);fill:none;stroke:#000000;stroke-linejoin:round;stroke-miterlimit:10;}
	.st31{clip-path:url(#SVGID_52_);fill:none;stroke:#000000;stroke-linejoin:round;stroke-miterlimit:10;}
	.st32{clip-path:url(#SVGID_54_);fill:none;stroke:#000000;stroke-linejoin:round;stroke-miterlimit:10;}
	.st33{clip-path:url(#SVGID_56_);}
	.st34{clip-path:url(#SVGID_58_);}
	.st35{clip-path:url(#SVGID_60_);}
	.st36{clip-path:url(#SVGID_62_);}
	.st37{clip-path:url(#SVGID_64_);}
	.st38{fill:none;stroke:#000000;stroke-width:2;stroke-miterlimit:10;}
	
		.st39{clip-path:url(#SVGID_66_);fill:none;stroke:#000000;stroke-width:4;stroke-linejoin:round;stroke-miterlimit:10;stroke-dasharray:3,5,1,5;}
	.st40{clip-path:url(#SVGID_68_);fill:none;stroke:#000000;stroke-linejoin:round;stroke-miterlimit:10;}
	.st41{clip-path:url(#SVGID_70_);fill:none;stroke:#000000;stroke-linejoin:round;stroke-miterlimit:10;}
	.st42{clip-path:url(#SVGID_72_);fill:none;stroke:#000000;stroke-linejoin:round;stroke-miterlimit:10;}
	.st43{clip-path:url(#SVGID_74_);fill:none;stroke:#000000;stroke-linejoin:round;stroke-miterlimit:10;}
	.st44{clip-path:url(#SVGID_76_);fill:none;stroke:#000000;stroke-linejoin:round;stroke-miterlimit:10;}
	.st45{clip-path:url(#SVGID_78_);fill:none;stroke:#000000;stroke-linejoin:round;stroke-miterlimit:10;}
	.st46{clip-path:url(#SVGID_80_);fill:none;stroke:#000000;stroke-linejoin:round;stroke-miterlimit:10;}
	.st47{clip-path:url(#SVGID_82_);fill:none;stroke:#000000;stroke-linejoin:round;stroke-miterlimit:10;}
	.st48{clip-path:url(#SVGID_84_);fill:none;stroke:#000000;stroke-linejoin:round;stroke-miterlimit:10;}
	.st49{clip-path:url(#SVGID_86_);fill:none;stroke:#000000;stroke-linejoin:round;stroke-miterlimit:10;}
	.st50{clip-path:url(#SVGID_88_);}
	.st51{clip-path:url(#SVGID_90_);}
	.st52{clip-path:url(#SVGID_92_);}
	.st53{clip-path:url(#SVGID_94_);}
	.st54{clip-path:url(#SVGID_96_);}
	
		.st55{clip-path:url(#SVGID_98_);fill:none;stroke:#000000;stroke-width:4;stroke-linejoin:round;stroke-miterlimit:10;stroke-dasharray:1,3;}
	.st56{clip-path:url(#SVGID_100_);fill:none;stroke:#000000;stroke-linejoin:round;stroke-miterlimit:10;}
	.st57{clip-path:url(#SVGID_102_);fill:none;stroke:#000000;stroke-linejoin:round;stroke-miterlimit:10;}
	.st58{clip-path:url(#SVGID_104_);fill:none;stroke:#000000;stroke-linejoin:round;stroke-miterlimit:10;}
	.st59{clip-path:url(#SVGID_106_);fill:none;stroke:#000000;stroke-linejoin:round;stroke-miterlimit:10;}
	.st60{clip-path:url(#SVGID_108_);fill:none;stroke:#000000;stroke-linejoin:round;stroke-miterlimit:10;}
	.st61{clip-path:url(#SVGID_110_);fill:none;stroke:#000000;stroke-linejoin:round;stroke-miterlimit:10;}
	.st62{clip-path:url(#SVGID_112_);fill:none;stroke:#000000;stroke-linejoin:round;stroke-miterlimit:10;}
	.st63{clip-path:url(#SVGID_114_);fill:none;stroke:#000000;stroke-linejoin:round;stroke-miterlimit:10;}
	.st64{clip-path:url(#SVGID_116_);}
	.st65{clip-path:url(#SVGID_118_);}
	.st66{clip-path:url(#SVGID_120_);}
	.st67{clip-path:url(#SVGID_122_);}
	.st68{clip-path:url(#SVGID_124_);}
	.st69{fill:none;stroke:#262626;stroke-width:1.25;stroke-linecap:square;stroke-miterlimit:10;}
</style>
<g id="figure_1">
	<g id="patch_1">
		<path class="st0" d="M61.8,944.6h1152V50.9H61.8V944.6z"/>
	</g>
	<g id="axes_1">
		<g id="patch_2">
			<path class="st0" d="M205.8,852.2h892.8v-715H205.8V852.2z"/>
		</g>
		<g id="matplotlib.axis_1">
			<g id="xtick_1">
				<g id="line2d_1">
					<g>
						<g>
							<path id="mf3f479421a" class="st1" d="M205.8,852.2v6"/>
						</g>
					</g>
				</g>
				<g id="text_1">
					<text transform="matrix(1 0 0 1 175.8291 892.2231)" class="st2 st3 st4">−0.5</text>
				</g>
			</g>
			<g id="xtick_2">
				<g id="line2d_2">
					<g>
						<g>
							<path id="mf3f479421a_1_" class="st1" d="M333.3,852.2v6"/>
						</g>
					</g>
				</g>
				<g id="text_2">
					<text transform="matrix(1 0 0 1 308.0439 892.2231)" class="st2 st3 st4">0.0</text>
				</g>
			</g>
			<g id="xtick_3">
				<g id="line2d_3">
					<g>
						<g>
							<path id="mf3f479421a_2_" class="st1" d="M460.9,852.2v6"/>
						</g>
					</g>
				</g>
				<g id="text_3">
					<text transform="matrix(1 0 0 1 435.5866 892.2231)" class="st2 st3 st4">0.5</text>
				</g>
			</g>
			<g id="xtick_4">
				<g id="line2d_4">
					<g>
						<g>
							<path id="mf3f479421a_3_" class="st1" d="M588.4,852.2v6"/>
						</g>
					</g>
				</g>
				<g id="text_4">
					<text transform="matrix(1 0 0 1 563.1296 892.2231)" class="st2 st3 st4">1.0</text>
				</g>
			</g>
			<g id="xtick_5">
				<g id="line2d_5">
					<g>
						<g>
							<path id="mf3f479421a_4_" class="st1" d="M716,852.2v6"/>
						</g>
					</g>
				</g>
				<g id="text_5">
					<text transform="matrix(1 0 0 1 690.6724 892.2231)" class="st2 st3 st4">1.5</text>
				</g>
			</g>
			<g id="xtick_6">
				<g id="line2d_6">
					<g>
						<g>
							<path id="mf3f479421a_5_" class="st1" d="M843.5,852.2v6"/>
						</g>
					</g>
				</g>
				<g id="text_6">
					<text transform="matrix(1 0 0 1 818.2152 892.2231)" class="st2 st3 st4">2.0</text>
				</g>
			</g>
			<g id="xtick_7">
				<g id="line2d_7">
					<g>
						<g>
							<path id="mf3f479421a_6_" class="st1" d="M971.1,852.2v6"/>
						</g>
					</g>
				</g>
				<g id="text_7">
					<text transform="matrix(1 0 0 1 945.758 892.2231)" class="st2 st3 st4">2.5</text>
				</g>
			</g>
			<g id="xtick_8">
				<g id="line2d_8">
					<g>
						<g>
							<path id="mf3f479421a_7_" class="st1" d="M1098.6,852.2v6"/>
						</g>
					</g>
				</g>
				<g id="text_8">
					<text transform="matrix(1 0 0 1 1073.3009 892.2231)" class="st2 st3 st4">3.0</text>
				</g>
			</g>
			<g id="text_9">
				<text transform="matrix(1 0 0 1 571.7304 941.5617)" class="st2 st3 st4">Cw (Bq/mL)</text>
			</g>
		</g>
		<g id="matplotlib.axis_2">
			<g id="ytick_1">
				<g id="line2d_9">
					<g>
						<g>
							<path id="m69c1c3fd38" class="st1" d="M205.8,845.2h-6"/>
						</g>
					</g>
				</g>
				<g id="text_10">
					<text transform="matrix(1 0 0 1 131.5078 857.7935)" class="st2 st3 st4">0</text>
				</g>
			</g>
			<g id="ytick_2">
				<g id="line2d_10">
					<g>
						<g>
							<path id="m69c1c3fd38_1_" class="st1" d="M205.8,703.6h-6"/>
						</g>
					</g>
				</g>
				<g id="text_11">
					<text transform="matrix(1 0 0 1 104.8123 716.2172)" class="st2 st3 st4">2000</text>
				</g>
			</g>
			<g id="ytick_3">
				<g id="line2d_11">
					<g>
						<g>
							<path id="m69c1c3fd38_2_" class="st1" d="M205.8,562h-6"/>
						</g>
					</g>
				</g>
				<g id="text_12">
					<text transform="matrix(1 0 0 1 104.8123 574.641)" class="st2 st3 st4">4000</text>
				</g>
			</g>
			<g id="ytick_4">
				<g id="line2d_12">
					<g>
						<g>
							<path id="m69c1c3fd38_3_" class="st1" d="M205.8,420.4h-6"/>
						</g>
					</g>
				</g>
				<g id="text_13">
					<text transform="matrix(1 0 0 1 104.8123 433.0647)" class="st2 st3 st4">6000</text>
				</g>
			</g>
			<g id="ytick_5">
				<g id="line2d_13">
					<g>
						<g>
							<path id="m69c1c3fd38_4_" class="st1" d="M205.8,278.8h-6"/>
						</g>
					</g>
				</g>
				<g id="text_14">
					<text transform="matrix(1 0 0 1 104.8123 291.4886)" class="st2 st3 st4">8000</text>
				</g>
			</g>
			<g id="ytick_6">
				<g id="line2d_14">
					<g>
						<g>
							<path id="m69c1c3fd38_5_" class="st1" d="M205.8,137.3h-6"/>
						</g>
					</g>
				</g>
				<g id="text_15">
					<text transform="matrix(1 0 0 1 95.9139 149.9123)" class="st2 st3 st4">10000</text>
				</g>
			</g>
			<g id="text_16">
				<text transform="matrix(6.123234e-17 -1 1 6.123234e-17 73.0411 557.4312)" class="st2 st3 st4">Cs (Bq/g)</text>
			</g>
		</g>
		<g id="pH_3_Isotherm">
			<g id="pH_3_Data_Fits">
				<g>
					<g>
						<defs>
							<rect id="SVGID_1_" x="205.8" y="137.3" width="892.8" height="715"/>
						</defs>
						<clipPath id="SVGID_2_">
							<use xlink:href="#SVGID_1_"  style="overflow:visible;"/>
						</clipPath>
						<path class="st5" d="M351.6,848.6l55.3,1.3l72,1.7l210.2,5l356.7,8.4"/>
					</g>
				</g>
			</g>
			<g id="pH_3_Error_Bars">
				<g id="LineCollection_1">
					<g>
						<g>
							<defs>
								<rect id="SVGID_3_" x="205.8" y="137.3" width="892.8" height="715"/>
							</defs>
							<clipPath id="SVGID_4_">
								<use xlink:href="#SVGID_3_"  style="overflow:visible;"/>
							</clipPath>
							<path class="st6" d="M350.9,849.4h1.4"/>
						</g>
					</g>
					<g>
						<g>
							<defs>
								<rect id="SVGID_5_" x="205.8" y="137.3" width="892.8" height="715"/>
							</defs>
							<clipPath id="SVGID_6_">
								<use xlink:href="#SVGID_5_"  style="overflow:visible;"/>
							</clipPath>
							<path class="st7" d="M404.2,849.4h5.5"/>
						</g>
					</g>
					<g>
						<g>
							<defs>
								<rect id="SVGID_7_" x="205.8" y="137.3" width="892.8" height="715"/>
							</defs>
							<clipPath id="SVGID_8_">
								<use xlink:href="#SVGID_7_"  style="overflow:visible;"/>
							</clipPath>
							<path class="st8" d="M471.3,852.4h15.1"/>
						</g>
					</g>
					<g>
						<g>
							<defs>
								<rect id="SVGID_9_" x="205.8" y="137.3" width="892.8" height="715"/>
							</defs>
							<clipPath id="SVGID_10_">
								<use xlink:href="#SVGID_9_"  style="overflow:visible;"/>
							</clipPath>
							<path class="st9" d="M681,854.9h16.3"/>
						</g>
					</g>
					<g>
						<g>
							<defs>
								<rect id="SVGID_11_" x="205.8" y="137.3" width="892.8" height="715"/>
							</defs>
							<clipPath id="SVGID_12_">
								<use xlink:href="#SVGID_11_"  style="overflow:visible;"/>
							</clipPath>
							<path class="st10" d="M1035.8,865.7h20"/>
						</g>
					</g>
				</g>
				<g id="LineCollection_2">
					<g>
						<g>
							<defs>
								<rect id="SVGID_13_" x="205.8" y="137.3" width="892.8" height="715"/>
							</defs>
							<clipPath id="SVGID_14_">
								<use xlink:href="#SVGID_13_"  style="overflow:visible;"/>
							</clipPath>
							<path class="st11" d="M351.6,850v-1.3"/>
						</g>
					</g>
					<g>
						<g>
							<defs>
								<rect id="SVGID_15_" x="205.8" y="137.3" width="892.8" height="715"/>
							</defs>
							<clipPath id="SVGID_16_">
								<use xlink:href="#SVGID_15_"  style="overflow:visible;"/>
							</clipPath>
							<path class="st12" d="M406.9,851.9v-5.1"/>
						</g>
					</g>
					<g>
						<g>
							<defs>
								<rect id="SVGID_17_" x="205.8" y="137.3" width="892.8" height="715"/>
							</defs>
							<clipPath id="SVGID_18_">
								<use xlink:href="#SVGID_17_"  style="overflow:visible;"/>
							</clipPath>
							<path class="st13" d="M478.9,859.3v-14"/>
						</g>
					</g>
					<g>
						<g>
							<defs>
								<rect id="SVGID_19_" x="205.8" y="137.3" width="892.8" height="715"/>
							</defs>
							<clipPath id="SVGID_20_">
								<use xlink:href="#SVGID_19_"  style="overflow:visible;"/>
							</clipPath>
							<path class="st14" d="M689.1,862.4v-15"/>
						</g>
					</g>
					<g>
						<g>
							<defs>
								<rect id="SVGID_21_" x="205.8" y="137.3" width="892.8" height="715"/>
							</defs>
							<clipPath id="SVGID_22_">
								<use xlink:href="#SVGID_21_"  style="overflow:visible;"/>
							</clipPath>
							<path class="st15" d="M1045.8,875.1v-18.7"/>
						</g>
					</g>
				</g>
				<g id="line2d_16">
					<g>
						<g>
							<defs>
								<rect id="SVGID_23_" x="205.8" y="137.3" width="892.8" height="715"/>
							</defs>
							<clipPath id="SVGID_24_">
								<use xlink:href="#SVGID_23_"  style="overflow:visible;"/>
							</clipPath>
							<g class="st16">
								<g>
									<path id="m717ad0e91a" class="st17" d="M350.9,854.4v-10"/>
								</g>
								<g>
									<path id="m717ad0e91a_1_" class="st17" d="M404.2,854.4v-10"/>
								</g>
								<g>
									<path id="m717ad0e91a_2_" class="st17" d="M471.3,857.4v-10"/>
								</g>
								<g>
									<path id="m717ad0e91a_3_" class="st17" d="M681,859.9v-10"/>
								</g>
								<g>
									<path id="m717ad0e91a_4_" class="st17" d="M1035.8,870.7v-10"/>
								</g>
							</g>
						</g>
					</g>
				</g>
				<g id="line2d_17">
					<g>
						<g>
							<defs>
								<rect id="SVGID_25_" x="205.8" y="137.3" width="892.8" height="715"/>
							</defs>
							<clipPath id="SVGID_26_">
								<use xlink:href="#SVGID_25_"  style="overflow:visible;"/>
							</clipPath>
							<g class="st18">
								<g>
									<path id="m717ad0e91a_5_" class="st17" d="M352.3,854.4v-10"/>
								</g>
								<g>
									<path id="m717ad0e91a_6_" class="st17" d="M409.7,854.4v-10"/>
								</g>
								<g>
									<path id="m717ad0e91a_7_" class="st17" d="M486.4,857.4v-10"/>
								</g>
								<g>
									<path id="m717ad0e91a_8_" class="st17" d="M697.3,859.9v-10"/>
								</g>
								<g>
									<path id="m717ad0e91a_9_" class="st17" d="M1055.8,870.7v-10"/>
								</g>
							</g>
						</g>
					</g>
				</g>
				<g id="line2d_18">
					<g>
						<g>
							<defs>
								<rect id="SVGID_27_" x="205.8" y="137.3" width="892.8" height="715"/>
							</defs>
							<clipPath id="SVGID_28_">
								<use xlink:href="#SVGID_27_"  style="overflow:visible;"/>
							</clipPath>
							<g class="st19">
								<g>
									<path id="m1072d591cc" class="st17" d="M356.6,850h-10"/>
								</g>
								<g>
									<path id="m1072d591cc_1_" class="st17" d="M411.9,851.9h-10"/>
								</g>
								<g>
									<path id="m1072d591cc_2_" class="st17" d="M483.9,859.3h-10"/>
								</g>
								<g>
									<path id="m1072d591cc_3_" class="st17" d="M694.1,862.4h-10"/>
								</g>
								<g>
									<path id="m1072d591cc_4_" class="st17" d="M1050.8,875.1h-10"/>
								</g>
							</g>
						</g>
					</g>
				</g>
				<g id="line2d_19">
					<g>
						<g>
							<defs>
								<rect id="SVGID_29_" x="205.8" y="137.3" width="892.8" height="715"/>
							</defs>
							<clipPath id="SVGID_30_">
								<use xlink:href="#SVGID_29_"  style="overflow:visible;"/>
							</clipPath>
							<g class="st20">
								<g>
									<path id="m1072d591cc_5_" class="st17" d="M356.6,848.7h-10"/>
								</g>
								<g>
									<path id="m1072d591cc_6_" class="st17" d="M411.9,846.8h-10"/>
								</g>
								<g>
									<path id="m1072d591cc_7_" class="st17" d="M483.9,845.4h-10"/>
								</g>
								<g>
									<path id="m1072d591cc_8_" class="st17" d="M694.1,847.4h-10"/>
								</g>
								<g>
									<path id="m1072d591cc_9_" class="st17" d="M1050.8,856.4h-10"/>
								</g>
							</g>
						</g>
					</g>
				</g>
			</g>
			<g id="pH_3_Data_Points">
				<g>
					<g>
						<defs>
							<rect id="SVGID_31_" x="205.8" y="137.3" width="892.8" height="715"/>
						</defs>
						<clipPath id="SVGID_32_">
							<use xlink:href="#SVGID_31_"  style="overflow:visible;"/>
						</clipPath>
						<g class="st21">
							<g>
								<path id="maa917d3d2f" class="st17" d="M351.6,864.4c4,0,7.8-1.6,10.6-4.4c2.8-2.8,4.4-6.6,4.4-10.6s-1.6-7.8-4.4-10.6
									s-6.6-4.4-10.6-4.4s-7.8,1.6-10.6,4.4c-2.8,2.8-4.4,6.6-4.4,10.6s1.6,7.8,4.4,10.6C343.8,862.8,347.6,864.4,351.6,864.4z"/>
							</g>
							<g>
								<path id="maa917d3d2f_1_" class="st17" d="M406.9,864.4c4,0,7.8-1.6,10.6-4.4c2.8-2.8,4.4-6.6,4.4-10.6s-1.6-7.8-4.4-10.6
									s-6.6-4.4-10.6-4.4s-7.8,1.6-10.6,4.4c-2.8,2.8-4.4,6.6-4.4,10.6s1.6,7.8,4.4,10.6C399.1,862.8,403,864.4,406.9,864.4z"/>
							</g>
							<g>
								<path id="maa917d3d2f_2_" class="st17" d="M478.9,867.4c4,0,7.8-1.6,10.6-4.4c2.8-2.8,4.4-6.6,4.4-10.6s-1.6-7.8-4.4-10.6
									s-6.6-4.4-10.6-4.4s-7.8,1.6-10.6,4.4c-2.8,2.8-4.4,6.6-4.4,10.6s1.6,7.8,4.4,10.6C471.1,865.8,474.9,867.4,478.9,867.4z"/>
							</g>
							<g>
								<path id="maa917d3d2f_3_" class="st17" d="M689.1,869.9c4,0,7.8-1.6,10.6-4.4c2.8-2.8,4.4-6.6,4.4-10.6s-1.6-7.8-4.4-10.6
									c-2.8-2.8-6.6-4.4-10.6-4.4s-7.8,1.6-10.6,4.4c-2.8,2.8-4.4,6.6-4.4,10.6s1.6,7.8,4.4,10.6
									C681.3,868.3,685.1,869.9,689.1,869.9z"/>
							</g>
							<g>
								<path id="maa917d3d2f_4_" class="st17" d="M1045.8,880.7c4,0,7.8-1.6,10.6-4.4c2.8-2.8,4.4-6.6,4.4-10.6s-1.6-7.8-4.4-10.6
									s-6.6-4.4-10.6-4.4s-7.8,1.6-10.6,4.4c-2.8,2.8-4.4,6.6-4.4,10.6s1.6,7.8,4.4,10.6C1038,879.2,1041.8,880.7,1045.8,880.7z"
									/>
							</g>
						</g>
					</g>
				</g>
			</g>
		</g>
		<g id="pH_5_Isotherm">
			<g id="pH_5_Data_Fit">
				<g>
					<g>
						<defs>
							<rect id="SVGID_33_" x="205.8" y="137.3" width="892.8" height="715"/>
						</defs>
						<clipPath id="SVGID_34_">
							<use xlink:href="#SVGID_33_"  style="overflow:visible;"/>
						</clipPath>
						<path class="st22" d="M349.4,847.8l49.1-4.1l72.3-6.1l175.9-14.8l325.1-27.3"/>
					</g>
				</g>
			</g>
			<g id="pH_5_Error_Bars">
				<g id="LineCollection_3">
					<g>
						<g>
							<defs>
								<rect id="SVGID_35_" x="205.8" y="137.3" width="892.8" height="715"/>
							</defs>
							<clipPath id="SVGID_36_">
								<use xlink:href="#SVGID_35_"  style="overflow:visible;"/>
							</clipPath>
							<path class="st23" d="M348.7,847.3h1.4"/>
						</g>
					</g>
					<g>
						<g>
							<defs>
								<rect id="SVGID_37_" x="205.8" y="137.3" width="892.8" height="715"/>
							</defs>
							<clipPath id="SVGID_38_">
								<use xlink:href="#SVGID_37_"  style="overflow:visible;"/>
							</clipPath>
							<path class="st24" d="M393.8,841.5h9.3"/>
						</g>
					</g>
					<g>
						<g>
							<defs>
								<rect id="SVGID_39_" x="205.8" y="137.3" width="892.8" height="715"/>
							</defs>
							<clipPath id="SVGID_40_">
								<use xlink:href="#SVGID_39_"  style="overflow:visible;"/>
							</clipPath>
							<path class="st25" d="M468.1,844.9h5.3"/>
						</g>
					</g>
					<g>
						<g>
							<defs>
								<rect id="SVGID_41_" x="205.8" y="137.3" width="892.8" height="715"/>
							</defs>
							<clipPath id="SVGID_42_">
								<use xlink:href="#SVGID_41_"  style="overflow:visible;"/>
							</clipPath>
							<path class="st26" d="M623.6,816.4h46"/>
						</g>
					</g>
					<g>
						<g>
							<defs>
								<rect id="SVGID_43_" x="205.8" y="137.3" width="892.8" height="715"/>
							</defs>
							<clipPath id="SVGID_44_">
								<use xlink:href="#SVGID_43_"  style="overflow:visible;"/>
							</clipPath>
							<path class="st27" d="M959.8,797.3h24"/>
						</g>
					</g>
				</g>
				<g id="LineCollection_4">
					<g>
						<g>
							<defs>
								<rect id="SVGID_45_" x="205.8" y="137.3" width="892.8" height="715"/>
							</defs>
							<clipPath id="SVGID_46_">
								<use xlink:href="#SVGID_45_"  style="overflow:visible;"/>
							</clipPath>
							<path class="st28" d="M349.4,847.9v-1.3"/>
						</g>
					</g>
					<g>
						<g>
							<defs>
								<rect id="SVGID_47_" x="205.8" y="137.3" width="892.8" height="715"/>
							</defs>
							<clipPath id="SVGID_48_">
								<use xlink:href="#SVGID_47_"  style="overflow:visible;"/>
							</clipPath>
							<path class="st29" d="M398.4,845.9v-8.7"/>
						</g>
					</g>
					<g>
						<g>
							<defs>
								<rect id="SVGID_49_" x="205.8" y="137.3" width="892.8" height="715"/>
							</defs>
							<clipPath id="SVGID_50_">
								<use xlink:href="#SVGID_49_"  style="overflow:visible;"/>
							</clipPath>
							<path class="st30" d="M470.8,847.4v-5"/>
						</g>
					</g>
					<g>
						<g>
							<defs>
								<rect id="SVGID_51_" x="205.8" y="137.3" width="892.8" height="715"/>
							</defs>
							<clipPath id="SVGID_52_">
								<use xlink:href="#SVGID_51_"  style="overflow:visible;"/>
							</clipPath>
							<path class="st31" d="M646.6,837.1v-41.4"/>
						</g>
					</g>
					<g>
						<g>
							<defs>
								<rect id="SVGID_53_" x="205.8" y="137.3" width="892.8" height="715"/>
							</defs>
							<clipPath id="SVGID_54_">
								<use xlink:href="#SVGID_53_"  style="overflow:visible;"/>
							</clipPath>
							<path class="st32" d="M971.8,807.8v-21"/>
						</g>
					</g>
				</g>
				<g id="line2d_22">
					<g>
						<g>
							<defs>
								<rect id="SVGID_55_" x="205.8" y="137.3" width="892.8" height="715"/>
							</defs>
							<clipPath id="SVGID_56_">
								<use xlink:href="#SVGID_55_"  style="overflow:visible;"/>
							</clipPath>
							<g class="st33">
								<g>
									<path id="m717ad0e91a_10_" class="st17" d="M348.7,852.3v-10"/>
								</g>
								<g>
									<path id="m717ad0e91a_11_" class="st17" d="M393.8,846.5v-10"/>
								</g>
								<g>
									<path id="m717ad0e91a_12_" class="st17" d="M468.1,849.9v-10"/>
								</g>
								<g>
									<path id="m717ad0e91a_13_" class="st17" d="M623.6,821.4v-10"/>
								</g>
								<g>
									<path id="m717ad0e91a_14_" class="st17" d="M959.8,802.3v-10"/>
								</g>
							</g>
						</g>
					</g>
				</g>
				<g id="line2d_23">
					<g>
						<g>
							<defs>
								<rect id="SVGID_57_" x="205.8" y="137.3" width="892.8" height="715"/>
							</defs>
							<clipPath id="SVGID_58_">
								<use xlink:href="#SVGID_57_"  style="overflow:visible;"/>
							</clipPath>
							<g class="st34">
								<g>
									<path id="m717ad0e91a_15_" class="st17" d="M350.1,852.3v-10"/>
								</g>
								<g>
									<path id="m717ad0e91a_16_" class="st17" d="M403.1,846.5v-10"/>
								</g>
								<g>
									<path id="m717ad0e91a_17_" class="st17" d="M473.5,849.9v-10"/>
								</g>
								<g>
									<path id="m717ad0e91a_18_" class="st17" d="M669.6,821.4v-10"/>
								</g>
								<g>
									<path id="m717ad0e91a_19_" class="st17" d="M983.8,802.3v-10"/>
								</g>
							</g>
						</g>
					</g>
				</g>
				<g id="line2d_24">
					<g>
						<g>
							<defs>
								<rect id="SVGID_59_" x="205.8" y="137.3" width="892.8" height="715"/>
							</defs>
							<clipPath id="SVGID_60_">
								<use xlink:href="#SVGID_59_"  style="overflow:visible;"/>
							</clipPath>
							<g class="st35">
								<g>
									<path id="m1072d591cc_10_" class="st17" d="M354.4,847.9h-10"/>
								</g>
								<g>
									<path id="m1072d591cc_11_" class="st17" d="M403.4,845.9h-10"/>
								</g>
								<g>
									<path id="m1072d591cc_12_" class="st17" d="M475.8,847.4h-10"/>
								</g>
								<g>
									<path id="m1072d591cc_13_" class="st17" d="M651.6,837.1h-10"/>
								</g>
								<g>
									<path id="m1072d591cc_14_" class="st17" d="M976.8,807.8h-10"/>
								</g>
							</g>
						</g>
					</g>
				</g>
				<g id="line2d_25">
					<g>
						<g>
							<defs>
								<rect id="SVGID_61_" x="205.8" y="137.3" width="892.8" height="715"/>
							</defs>
							<clipPath id="SVGID_62_">
								<use xlink:href="#SVGID_61_"  style="overflow:visible;"/>
							</clipPath>
							<g class="st36">
								<g>
									<path id="m1072d591cc_15_" class="st17" d="M354.4,846.6h-10"/>
								</g>
								<g>
									<path id="m1072d591cc_16_" class="st17" d="M403.4,837.1h-10"/>
								</g>
								<g>
									<path id="m1072d591cc_17_" class="st17" d="M475.8,842.4h-10"/>
								</g>
								<g>
									<path id="m1072d591cc_18_" class="st17" d="M651.6,795.7h-10"/>
								</g>
								<g>
									<path id="m1072d591cc_19_" class="st17" d="M976.8,786.8h-10"/>
								</g>
							</g>
						</g>
					</g>
				</g>
			</g>
			<g id="pH_5_Data_Points">
				<g>
					<g>
						<defs>
							<rect id="SVGID_63_" x="205.8" y="137.3" width="892.8" height="715"/>
						</defs>
						<clipPath id="SVGID_64_">
							<use xlink:href="#SVGID_63_"  style="overflow:visible;"/>
						</clipPath>
						<g class="st37">
							<g>
								<path id="md90fa80e9d" class="st38" d="M349.4,832.3l-15,30h30L349.4,832.3z"/>
							</g>
							<g>
								<path id="md90fa80e9d_1_" class="st38" d="M398.4,826.5l-15,30h30L398.4,826.5z"/>
							</g>
							<g>
								<path id="md90fa80e9d_2_" class="st38" d="M470.8,829.9l-15,30h30L470.8,829.9z"/>
							</g>
							<g>
								<path id="md90fa80e9d_3_" class="st38" d="M646.6,801.4l-15,30h30L646.6,801.4z"/>
							</g>
							<g>
								<path id="md90fa80e9d_4_" class="st38" d="M971.8,782.3l-15,30h30L971.8,782.3z"/>
							</g>
						</g>
					</g>
				</g>
			</g>
		</g>
		<g id="pH_7_Isotherm">
			<g id="pH_7_Data_Fits">
				<g>
					<g>
						<defs>
							<rect id="SVGID_65_" x="205.8" y="137.3" width="892.8" height="715"/>
						</defs>
						<clipPath id="SVGID_66_">
							<use xlink:href="#SVGID_65_"  style="overflow:visible;"/>
						</clipPath>
						<path class="st39" d="M346.3,841.3l43.5-6.9l62.9-10l164.6-26.2l307.1-48.9"/>
					</g>
				</g>
			</g>
			<g id="pH_7_Error_Bars">
				<g id="LineCollection_5">
					<g>
						<g>
							<defs>
								<rect id="SVGID_67_" x="205.8" y="137.3" width="892.8" height="715"/>
							</defs>
							<clipPath id="SVGID_68_">
								<use xlink:href="#SVGID_67_"  style="overflow:visible;"/>
							</clipPath>
							<path class="st40" d="M345.8,844.4h1"/>
						</g>
					</g>
					<g>
						<g>
							<defs>
								<rect id="SVGID_69_" x="205.8" y="137.3" width="892.8" height="715"/>
							</defs>
							<clipPath id="SVGID_70_">
								<use xlink:href="#SVGID_69_"  style="overflow:visible;"/>
							</clipPath>
							<path class="st41" d="M386.4,833.5h6.7"/>
						</g>
					</g>
					<g>
						<g>
							<defs>
								<rect id="SVGID_71_" x="205.8" y="137.3" width="892.8" height="715"/>
							</defs>
							<clipPath id="SVGID_72_">
								<use xlink:href="#SVGID_71_"  style="overflow:visible;"/>
							</clipPath>
							<path class="st42" d="M444.6,828.1h16.2"/>
						</g>
					</g>
					<g>
						<g>
							<defs>
								<rect id="SVGID_73_" x="205.8" y="137.3" width="892.8" height="715"/>
							</defs>
							<clipPath id="SVGID_74_">
								<use xlink:href="#SVGID_73_"  style="overflow:visible;"/>
							</clipPath>
							<path class="st43" d="M608.6,788.5H626"/>
						</g>
					</g>
					<g>
						<g>
							<defs>
								<rect id="SVGID_75_" x="205.8" y="137.3" width="892.8" height="715"/>
							</defs>
							<clipPath id="SVGID_76_">
								<use xlink:href="#SVGID_75_"  style="overflow:visible;"/>
							</clipPath>
							<path class="st44" d="M909.9,753.3H939"/>
						</g>
					</g>
				</g>
				<g id="LineCollection_6">
					<g>
						<g>
							<defs>
								<rect id="SVGID_77_" x="205.8" y="137.3" width="892.8" height="715"/>
							</defs>
							<clipPath id="SVGID_78_">
								<use xlink:href="#SVGID_77_"  style="overflow:visible;"/>
							</clipPath>
							<path class="st45" d="M346.3,844.8v-0.9"/>
						</g>
					</g>
					<g>
						<g>
							<defs>
								<rect id="SVGID_79_" x="205.8" y="137.3" width="892.8" height="715"/>
							</defs>
							<clipPath id="SVGID_80_">
								<use xlink:href="#SVGID_79_"  style="overflow:visible;"/>
							</clipPath>
							<path class="st46" d="M389.8,836.6v-6.2"/>
						</g>
					</g>
					<g>
						<g>
							<defs>
								<rect id="SVGID_81_" x="205.8" y="137.3" width="892.8" height="715"/>
							</defs>
							<clipPath id="SVGID_82_">
								<use xlink:href="#SVGID_81_"  style="overflow:visible;"/>
							</clipPath>
							<path class="st47" d="M452.7,835.6v-15"/>
						</g>
					</g>
					<g>
						<g>
							<defs>
								<rect id="SVGID_83_" x="205.8" y="137.3" width="892.8" height="715"/>
							</defs>
							<clipPath id="SVGID_84_">
								<use xlink:href="#SVGID_83_"  style="overflow:visible;"/>
							</clipPath>
							<path class="st48" d="M617.3,796.9V780"/>
						</g>
					</g>
					<g>
						<g>
							<defs>
								<rect id="SVGID_85_" x="205.8" y="137.3" width="892.8" height="715"/>
							</defs>
							<clipPath id="SVGID_86_">
								<use xlink:href="#SVGID_85_"  style="overflow:visible;"/>
							</clipPath>
							<path class="st49" d="M924.4,764.6v-22.7"/>
						</g>
					</g>
				</g>
				<g id="line2d_28">
					<g>
						<g>
							<defs>
								<rect id="SVGID_87_" x="205.8" y="137.3" width="892.8" height="715"/>
							</defs>
							<clipPath id="SVGID_88_">
								<use xlink:href="#SVGID_87_"  style="overflow:visible;"/>
							</clipPath>
							<g class="st50">
								<g>
									<path id="m717ad0e91a_20_" class="st17" d="M345.8,849.4v-10"/>
								</g>
								<g>
									<path id="m717ad0e91a_21_" class="st17" d="M386.4,838.5v-10"/>
								</g>
								<g>
									<path id="m717ad0e91a_22_" class="st17" d="M444.6,833.1v-10"/>
								</g>
								<g>
									<path id="m717ad0e91a_23_" class="st17" d="M608.6,793.5v-10"/>
								</g>
								<g>
									<path id="m717ad0e91a_24_" class="st17" d="M909.9,758.3v-10"/>
								</g>
							</g>
						</g>
					</g>
				</g>
				<g id="line2d_29">
					<g>
						<g>
							<defs>
								<rect id="SVGID_89_" x="205.8" y="137.3" width="892.8" height="715"/>
							</defs>
							<clipPath id="SVGID_90_">
								<use xlink:href="#SVGID_89_"  style="overflow:visible;"/>
							</clipPath>
							<g class="st51">
								<g>
									<path id="m717ad0e91a_25_" class="st17" d="M346.8,849.4v-10"/>
								</g>
								<g>
									<path id="m717ad0e91a_26_" class="st17" d="M393.1,838.5v-10"/>
								</g>
								<g>
									<path id="m717ad0e91a_27_" class="st17" d="M460.8,833.1v-10"/>
								</g>
								<g>
									<path id="m717ad0e91a_28_" class="st17" d="M626,793.5v-10"/>
								</g>
								<g>
									<path id="m717ad0e91a_29_" class="st17" d="M938.9,758.3v-10"/>
								</g>
							</g>
						</g>
					</g>
				</g>
				<g id="line2d_30">
					<g>
						<g>
							<defs>
								<rect id="SVGID_91_" x="205.8" y="137.3" width="892.8" height="715"/>
							</defs>
							<clipPath id="SVGID_92_">
								<use xlink:href="#SVGID_91_"  style="overflow:visible;"/>
							</clipPath>
							<g class="st52">
								<g>
									<path id="m1072d591cc_20_" class="st17" d="M351.3,844.8h-10"/>
								</g>
								<g>
									<path id="m1072d591cc_21_" class="st17" d="M394.8,836.6h-10"/>
								</g>
								<g>
									<path id="m1072d591cc_22_" class="st17" d="M457.7,835.6h-10"/>
								</g>
								<g>
									<path id="m1072d591cc_23_" class="st17" d="M622.3,796.9h-10"/>
								</g>
								<g>
									<path id="m1072d591cc_24_" class="st17" d="M929.4,764.6h-10"/>
								</g>
							</g>
						</g>
					</g>
				</g>
				<g id="line2d_31">
					<g>
						<g>
							<defs>
								<rect id="SVGID_93_" x="205.8" y="137.3" width="892.8" height="715"/>
							</defs>
							<clipPath id="SVGID_94_">
								<use xlink:href="#SVGID_93_"  style="overflow:visible;"/>
							</clipPath>
							<g class="st53">
								<g>
									<path id="m1072d591cc_25_" class="st17" d="M351.3,843.9h-10"/>
								</g>
								<g>
									<path id="m1072d591cc_26_" class="st17" d="M394.8,830.4h-10"/>
								</g>
								<g>
									<path id="m1072d591cc_27_" class="st17" d="M457.7,820.6h-10"/>
								</g>
								<g>
									<path id="m1072d591cc_28_" class="st17" d="M622.3,780h-10"/>
								</g>
								<g>
									<path id="m1072d591cc_29_" class="st17" d="M929.4,741.9h-10"/>
								</g>
							</g>
						</g>
					</g>
				</g>
			</g>
			<g id="pH_7_Data_Points">
				<g>
					<g>
						<defs>
							<rect id="SVGID_95_" x="205.8" y="137.3" width="892.8" height="715"/>
						</defs>
						<clipPath id="SVGID_96_">
							<use xlink:href="#SVGID_95_"  style="overflow:visible;"/>
						</clipPath>
						<g class="st54">
							<g>
								<path id="mbf33fa8954" class="st38" d="M331.3,859.4h30v-30h-30V859.4z"/>
							</g>
							<g>
								<path id="mbf33fa8954_1_" class="st38" d="M374.8,848.5h30v-30h-30V848.5z"/>
							</g>
							<g>
								<path id="mbf33fa8954_2_" class="st38" d="M437.7,843.1h30v-30h-30V843.1z"/>
							</g>
							<g>
								<path id="mbf33fa8954_3_" class="st38" d="M602.3,803.5h30v-30h-30V803.5z"/>
							</g>
							<g>
								<path id="mbf33fa8954_4_" class="st38" d="M909.4,768.3h30v-30h-30V768.3z"/>
							</g>
						</g>
					</g>
				</g>
			</g>
		</g>
		<g id="pH_9_Isotherm">
			<g id="pH_9_Data_Fit">
				<g>
					<g>
						<defs>
							<rect id="SVGID_97_" x="205.8" y="137.3" width="892.8" height="715"/>
						</defs>
						<clipPath id="SVGID_98_">
							<use xlink:href="#SVGID_97_"  style="overflow:visible;"/>
						</clipPath>
						<path class="st55" d="M340.4,791.3l9.1-29.6l45.4-147.3l62.9-204.1"/>
					</g>
				</g>
			</g>
			<g id="pH_9_Error_Bars">
				<g id="LineCollection_7">
					<g>
						<g>
							<defs>
								<rect id="SVGID_99_" x="205.8" y="137.3" width="892.8" height="715"/>
							</defs>
							<clipPath id="SVGID_100_">
								<use xlink:href="#SVGID_99_"  style="overflow:visible;"/>
							</clipPath>
							<path class="st56" d="M339.6,796.1h1.5"/>
						</g>
					</g>
					<g>
						<g>
							<defs>
								<rect id="SVGID_101_" x="205.8" y="137.3" width="892.8" height="715"/>
							</defs>
							<clipPath id="SVGID_102_">
								<use xlink:href="#SVGID_101_"  style="overflow:visible;"/>
							</clipPath>
							<path class="st57" d="M347,750.1h5"/>
						</g>
					</g>
					<g>
						<g>
							<defs>
								<rect id="SVGID_103_" x="205.8" y="137.3" width="892.8" height="715"/>
							</defs>
							<clipPath id="SVGID_104_">
								<use xlink:href="#SVGID_103_"  style="overflow:visible;"/>
							</clipPath>
							<path class="st58" d="M385.4,625.5h19"/>
						</g>
					</g>
					<g>
						<g>
							<defs>
								<rect id="SVGID_105_" x="205.8" y="137.3" width="892.8" height="715"/>
							</defs>
							<clipPath id="SVGID_106_">
								<use xlink:href="#SVGID_105_"  style="overflow:visible;"/>
							</clipPath>
							<path class="st59" d="M450.5,406.1H465"/>
						</g>
					</g>
				</g>
				<g id="LineCollection_8">
					<g>
						<g>
							<defs>
								<rect id="SVGID_107_" x="205.8" y="137.3" width="892.8" height="715"/>
							</defs>
							<clipPath id="SVGID_108_">
								<use xlink:href="#SVGID_107_"  style="overflow:visible;"/>
							</clipPath>
							<path class="st60" d="M340.4,796.8v-1.4"/>
						</g>
					</g>
					<g>
						<g>
							<defs>
								<rect id="SVGID_109_" x="205.8" y="137.3" width="892.8" height="715"/>
							</defs>
							<clipPath id="SVGID_110_">
								<use xlink:href="#SVGID_109_"  style="overflow:visible;"/>
							</clipPath>
							<path class="st61" d="M349.5,752.8v-5.5"/>
						</g>
					</g>
					<g>
						<g>
							<defs>
								<rect id="SVGID_111_" x="205.8" y="137.3" width="892.8" height="715"/>
							</defs>
							<clipPath id="SVGID_112_">
								<use xlink:href="#SVGID_111_"  style="overflow:visible;"/>
							</clipPath>
							<path class="st62" d="M394.9,632.7v-14.3"/>
						</g>
					</g>
					<g>
						<g>
							<defs>
								<rect id="SVGID_113_" x="205.8" y="137.3" width="892.8" height="715"/>
							</defs>
							<clipPath id="SVGID_114_">
								<use xlink:href="#SVGID_113_"  style="overflow:visible;"/>
							</clipPath>
							<path class="st63" d="M457.7,411.8v-11.4"/>
						</g>
					</g>
				</g>
				<g id="line2d_34">
					<g>
						<g>
							<defs>
								<rect id="SVGID_115_" x="205.8" y="137.3" width="892.8" height="715"/>
							</defs>
							<clipPath id="SVGID_116_">
								<use xlink:href="#SVGID_115_"  style="overflow:visible;"/>
							</clipPath>
							<g class="st64">
								<g>
									<path id="m717ad0e91a_30_" class="st17" d="M339.6,801.1v-10"/>
								</g>
								<g>
									<path id="m717ad0e91a_31_" class="st17" d="M347,755.1v-10"/>
								</g>
								<g>
									<path id="m717ad0e91a_32_" class="st17" d="M385.4,630.5v-10"/>
								</g>
								<g>
									<path id="m717ad0e91a_33_" class="st17" d="M450.5,411.1v-10"/>
								</g>
							</g>
						</g>
					</g>
				</g>
				<g id="line2d_35">
					<g>
						<g>
							<defs>
								<rect id="SVGID_117_" x="205.8" y="137.3" width="892.8" height="715"/>
							</defs>
							<clipPath id="SVGID_118_">
								<use xlink:href="#SVGID_117_"  style="overflow:visible;"/>
							</clipPath>
							<g class="st65">
								<g>
									<path id="m717ad0e91a_34_" class="st17" d="M341.1,801.1v-10"/>
								</g>
								<g>
									<path id="m717ad0e91a_35_" class="st17" d="M352,755.1v-10"/>
								</g>
								<g>
									<path id="m717ad0e91a_36_" class="st17" d="M404.4,630.5v-10"/>
								</g>
								<g>
									<path id="m717ad0e91a_37_" class="st17" d="M465,411.1v-10"/>
								</g>
							</g>
						</g>
					</g>
				</g>
				<g id="line2d_36">
					<g>
						<g>
							<defs>
								<rect id="SVGID_119_" x="205.8" y="137.3" width="892.8" height="715"/>
							</defs>
							<clipPath id="SVGID_120_">
								<use xlink:href="#SVGID_119_"  style="overflow:visible;"/>
							</clipPath>
							<g class="st66">
								<g>
									<path id="m1072d591cc_30_" class="st17" d="M345.4,796.8h-10"/>
								</g>
								<g>
									<path id="m1072d591cc_31_" class="st17" d="M354.5,752.8h-10"/>
								</g>
								<g>
									<path id="m1072d591cc_32_" class="st17" d="M399.9,632.7h-10"/>
								</g>
								<g>
									<path id="m1072d591cc_33_" class="st17" d="M462.7,411.8h-10"/>
								</g>
							</g>
						</g>
					</g>
				</g>
				<g id="line2d_37">
					<g>
						<g>
							<defs>
								<rect id="SVGID_121_" x="205.8" y="137.3" width="892.8" height="715"/>
							</defs>
							<clipPath id="SVGID_122_">
								<use xlink:href="#SVGID_121_"  style="overflow:visible;"/>
							</clipPath>
							<g class="st67">
								<g>
									<path id="m1072d591cc_34_" class="st17" d="M345.4,795.4h-10"/>
								</g>
								<g>
									<path id="m1072d591cc_35_" class="st17" d="M354.5,747.3h-10"/>
								</g>
								<g>
									<path id="m1072d591cc_36_" class="st17" d="M399.9,618.3h-10"/>
								</g>
								<g>
									<path id="m1072d591cc_37_" class="st17" d="M462.7,400.4h-10"/>
								</g>
							</g>
						</g>
					</g>
				</g>
			</g>
			<g id="pH_9_Data_Points">
				<g>
					<g>
						<defs>
							<rect id="SVGID_123_" x="205.8" y="137.3" width="892.8" height="715"/>
						</defs>
						<clipPath id="SVGID_124_">
							<use xlink:href="#SVGID_123_"  style="overflow:visible;"/>
						</clipPath>
						<g class="st68">
							<g>
								<path id="mc3b5744ef6" class="st38" d="M340.4,781.1l-14.3,10.4l5.4,16.8h17.6l5.4-16.8L340.4,781.1z"/>
							</g>
							<g>
								<path id="mc3b5744ef6_1_" class="st38" d="M349.5,735.1l-14.3,10.4l5.4,16.8h17.6l5.4-16.8L349.5,735.1z"/>
							</g>
							<g>
								<path id="mc3b5744ef6_2_" class="st38" d="M394.9,610.5l-14.3,10.4l5.4,16.8h17.6l5.4-16.8L394.9,610.5z"/>
							</g>
							<g>
								<path id="mc3b5744ef6_3_" class="st38" d="M457.7,391.1l-14.3,10.4l5.4,16.8h17.6l5.4-16.8L457.7,391.1z"/>
							</g>
						</g>
					</g>
				</g>
			</g>
		</g>
		<g id="Horizontal_Axis">
			<path class="st69" d="M205.8,852.2h892.8"/>
		</g>
		<g id="Vertical_Axis">
			<path class="st69" d="M205.8,852.2v-715"/>
		</g>
		<g id="legend_1">
			<g id="line2d_39">
			</g>
			<g id="line2d_40">
				<g>
					<g>
						<path id="maa917d3d2f_5_" class="st17" d="M852.6,161.2c4,0,7.8-1.6,10.6-4.4s4.4-6.6,4.4-10.6s-1.6-7.8-4.4-10.6
							c-2.8-2.8-6.6-4.4-10.6-4.4s-7.8,1.6-10.6,4.4s-4.4,6.6-4.4,10.6s1.6,7.8,4.4,10.6C844.8,159.7,848.6,161.2,852.6,161.2z"/>
					</g>
				</g>
			</g>
			<g id="text_17">
				<text transform="matrix(1 0 0 1 881.4153 151.8334)" class="st2 st3 st4">pH 3</text>
			</g>
			<g id="line2d_41">
			</g>
			<g id="line2d_42">
				<g>
					<g>
						<path id="md90fa80e9d_5_" class="st38" d="M852.6,165.2l-15,30h30L852.6,165.2z"/>
					</g>
				</g>
			</g>
			<g id="text_18">
				<text transform="matrix(1 0 0 1 881.4153 188.6867)" class="st2 st3 st4">pH 5</text>
			</g>
			<g id="line2d_43">
			</g>
			<g id="line2d_44">
				<g>
					<g>
						<path id="mbf33fa8954_5_" class="st38" d="M837.6,229.3h30v-30h-30V229.3z"/>
					</g>
				</g>
			</g>
			<g id="text_19">
				<text transform="matrix(1 0 0 1 881.4153 222.7053)" class="st2 st3 st4">pH 7</text>
			</g>
			<g id="line2d_45">
			</g>
			<g id="line2d_46">
				<g>
					<g>
						<path id="mc3b5744ef6_4_" class="st38" d="M852.6,233.3l-14.3,10.4l5.4,16.8h17.6l5.4-16.8L852.6,233.3z"/>
					</g>
				</g>
			</g>
			<g id="text_20">
				<text transform="matrix(1 0 0 1 881.4153 256.7239)" class="st2 st3 st4">pH 9</text>
			</g>
		</g>
	</g>
</g>
</svg>
