<?xml version="1.0" encoding="utf-8"?>
<!-- Generator: Adobe Illustrator 20.1.0, SVG Export Plug-In . SVG Version: 6.00 Build 0)  -->
<svg version="1.1" id="Layer_1" xmlns="http://www.w3.org/2000/svg" xmlns:xlink="http://www.w3.org/1999/xlink" x="0px" y="0px"
	 viewBox="0 0 1275.6 988.8" style="enable-background:new 0 0 1275.6 988.8;" xml:space="preserve">
<style type="text/css">
	.st0{fill:#FFFFFF;}
	.st1{fill:none;stroke:#262626;stroke-width:1.6;stroke-linejoin:round;stroke-miterlimit:10;}
	.st2{fill:#262626;}
	.st3{font-family:'ArialMT';}
	.st4{font-size:36px;}
	.st5{clip-path:url(#SVGID_2_);fill:none;stroke:#000000;stroke-linecap:round;stroke-linejoin:round;stroke-miterlimit:10;}
	.st6{clip-path:url(#SVGID_4_);fill:none;stroke:#000000;stroke-linejoin:round;stroke-miterlimit:10;}
	.st7{clip-path:url(#SVGID_6_);fill:none;stroke:#000000;stroke-linejoin:round;stroke-miterlimit:10;}
	.st8{clip-path:url(#SVGID_8_);fill:none;stroke:#000000;stroke-linejoin:round;stroke-miterlimit:10;}
	.st9{clip-path:url(#SVGID_10_);fill:none;stroke:#000000;stroke-linejoin:round;stroke-miterlimit:10;}
	.st10{clip-path:url(#SVGID_12_);fill:none;stroke:#000000;stroke-linejoin:round;stroke-miterlimit:10;}
	.st11{clip-path:url(#SVGID_14_);fill:none;stroke:#000000;stroke-linejoin:round;stroke-miterlimit:10;}
	.st12{clip-path:url(#SVGID_16_);fill:none;stroke:#000000;stroke-linejoin:round;stroke-miterlimit:10;}
	.st13{clip-path:url(#SVGID_18_);fill:none;stroke:#000000;stroke-linejoin:round;stroke-miterlimit:10;}
	.st14{clip-path:url(#SVGID_20_);}
	.st15{fill:none;stroke:#000000;stroke-width:2;stroke-linejoin:round;stroke-miterlimit:10;}
	.st16{clip-path:url(#SVGID_22_);}
	.st17{clip-path:url(#SVGID_24_);}
	.st18{clip-path:url(#SVGID_26_);}
	.st19{clip-path:url(#SVGID_28_);}
	.st20{clip-path:url(#SVGID_30_);fill:none;stroke:#000000;stroke-linejoin:round;stroke-miterlimit:10;stroke-dasharray:6,6;}
	.st21{clip-path:url(#SVGID_32_);fill:none;stroke:#000000;stroke-linejoin:round;stroke-miterlimit:10;}
	.st22{clip-path:url(#SVGID_34_);fill:none;stroke:#000000;stroke-linejoin:round;stroke-miterlimit:10;}
	.st23{clip-path:url(#SVGID_36_);fill:none;stroke:#000000;stroke-linejoin:round;stroke-miterlimit:10;}
	.st24{clip-path:url(#SVGID_38_);fill:none;stroke:#000000;stroke-linejoin:round;stroke-miterlimit:10;}
	.st25{clip-path:url(#SVGID_40_);fill:none;stroke:#000000;stroke-linejoin:round;stroke-miterlimit:10;}
	.st26{clip-path:url(#SVGID_42_);fill:none;stroke:#000000;stroke-linejoin:round;stroke-miterlimit:10;}
	.st27{clip-path:url(#SVGID_44_);fill:none;stroke:#000000;stroke-linejoin:round;stroke-miterlimit:10;}
	.st28{clip-path:url(#SVGID_46_);fill:none;stroke:#000000;stroke-linejoin:round;stroke-miterlimit:10;}
	.st29{clip-path:url(#SVGID_48_);}
	.st30{clip-path:url(#SVGID_50_);}
	.st31{clip-path:url(#SVGID_52_);}
	.st32{clip-path:url(#SVGID_54_);}
	.st33{clip-path:url(#SVGID_56_);}
	.st34{fill:none;stroke:#000000;stroke-width:2;stroke-miterlimit:10;}
	
		.st35{clip-path:url(#SVGID_58_);fill:none;stroke:#000000;stroke-width:4;stroke-linejoin:round;stroke-miterlimit:10;stroke-dasharray:3,5,1,5;}
	.st36{clip-path:url(#SVGID_60_);fill:none;stroke:#000000;stroke-linejoin:round;stroke-miterlimit:10;}
	.st37{clip-path:url(#SVGID_62_);fill:none;stroke:#000000;stroke-linejoin:round;stroke-miterlimit:10;}
	.st38{clip-path:url(#SVGID_64_);fill:none;stroke:#000000;stroke-linejoin:round;stroke-miterlimit:10;}
	.st39{clip-path:url(#SVGID_66_);fill:none;stroke:#000000;stroke-linejoin:round;stroke-miterlimit:10;}
	.st40{clip-path:url(#SVGID_68_);fill:none;stroke:#000000;stroke-linejoin:round;stroke-miterlimit:10;}
	.st41{clip-path:url(#SVGID_70_);fill:none;stroke:#000000;stroke-linejoin:round;stroke-miterlimit:10;}
	.st42{clip-path:url(#SVGID_72_);fill:none;stroke:#000000;stroke-linejoin:round;stroke-miterlimit:10;}
	.st43{clip-path:url(#SVGID_74_);fill:none;stroke:#000000;stroke-linejoin:round;stroke-miterlimit:10;}
	.st44{clip-path:url(#SVGID_76_);}
	.st45{clip-path:url(#SVGID_78_);}
	.st46{clip-path:url(#SVGID_80_);}
	.st47{clip-path:url(#SVGID_82_);}
	.st48{clip-path:url(#SVGID_84_);}
	
		.st49{clip-path:url(#SVGID_86_);fill:none;stroke:#000000;stroke-width:4;stroke-linejoin:round;stroke-miterlimit:10;stroke-dasharray:1,3;}
	.st50{clip-path:url(#SVGID_88_);fill:none;stroke:#000000;stroke-linejoin:round;stroke-miterlimit:10;}
	.st51{clip-path:url(#SVGID_90_);fill:none;stroke:#000000;stroke-linejoin:round;stroke-miterlimit:10;}
	.st52{clip-path:url(#SVGID_92_);fill:none;stroke:#000000;stroke-linejoin:round;stroke-miterlimit:10;}
	.st53{clip-path:url(#SVGID_94_);fill:none;stroke:#000000;stroke-linejoin:round;stroke-miterlimit:10;}
	.st54{clip-path:url(#SVGID_96_);fill:none;stroke:#000000;stroke-linejoin:round;stroke-miterlimit:10;}
	.st55{clip-path:url(#SVGID_98_);fill:none;stroke:#000000;stroke-linejoin:round;stroke-miterlimit:10;}
	.st56{clip-path:url(#SVGID_100_);fill:none;stroke:#000000;stroke-linejoin:round;stroke-miterlimit:10;}
	.st57{clip-path:url(#SVGID_102_);fill:none;stroke:#000000;stroke-linejoin:round;stroke-miterlimit:10;}
	.st58{clip-path:url(#SVGID_104_);}
	.st59{clip-path:url(#SVGID_106_);}
	.st60{clip-path:url(#SVGID_108_);}
	.st61{clip-path:url(#SVGID_110_);}
	.st62{clip-path:url(#SVGID_112_);}
	.st63{fill:none;stroke:#262626;stroke-width:1.25;stroke-linecap:square;stroke-miterlimit:10;}
</style>
<g id="figure_1">
	<g id="patch_1">
		<path class="st0" d="M61.8,941.6h1152V47.9H61.8V941.6z"/>
	</g>
	<g id="axes_1">
		<g id="patch_2">
			<path class="st0" d="M205.8,852.2h892.8v-715H205.8V852.2z"/>
		</g>
		<g id="matplotlib.axis_1">
			<g id="xtick_1">
				<g id="line2d_1">
					<g>
						<g>
							<path id="m5dd56966e5" class="st1" d="M205.8,852.2v6"/>
						</g>
					</g>
				</g>
				<g id="text_1">
					<text transform="matrix(1 0 0 1 175.8291 895.0577)" class="st2 st3 st4">−0.5</text>
				</g>
			</g>
			<g id="xtick_2">
				<g id="line2d_2">
					<g>
						<g>
							<path id="m5dd56966e5_1_" class="st1" d="M333.3,852.2v6"/>
						</g>
					</g>
				</g>
				<g id="text_2">
					<text transform="matrix(1 0 0 1 308.0438 895.0577)" class="st2 st3 st4">0.0</text>
				</g>
			</g>
			<g id="xtick_3">
				<g id="line2d_3">
					<g>
						<g>
							<path id="m5dd56966e5_2_" class="st1" d="M460.9,852.2v6"/>
						</g>
					</g>
				</g>
				<g id="text_3">
					<text transform="matrix(1 0 0 1 435.5867 895.0577)" class="st2 st3 st4">0.5</text>
				</g>
			</g>
			<g id="xtick_4">
				<g id="line2d_4">
					<g>
						<g>
							<path id="m5dd56966e5_3_" class="st1" d="M588.4,852.2v6"/>
						</g>
					</g>
				</g>
				<g id="text_4">
					<text transform="matrix(1 0 0 1 563.1296 895.0577)" class="st2 st3 st4">1.0</text>
				</g>
			</g>
			<g id="xtick_5">
				<g id="line2d_5">
					<g>
						<g>
							<path id="m5dd56966e5_4_" class="st1" d="M716,852.2v6"/>
						</g>
					</g>
				</g>
				<g id="text_5">
					<text transform="matrix(1 0 0 1 690.6724 895.0577)" class="st2 st3 st4">1.5</text>
				</g>
			</g>
			<g id="xtick_6">
				<g id="line2d_6">
					<g>
						<g>
							<path id="m5dd56966e5_5_" class="st1" d="M843.5,852.2v6"/>
						</g>
					</g>
				</g>
				<g id="text_6">
					<text transform="matrix(1 0 0 1 818.2152 895.0577)" class="st2 st3 st4">2.0</text>
				</g>
			</g>
			<g id="xtick_7">
				<g id="line2d_7">
					<g>
						<g>
							<path id="m5dd56966e5_6_" class="st1" d="M971.1,852.2v6"/>
						</g>
					</g>
				</g>
				<g id="text_7">
					<text transform="matrix(1 0 0 1 945.7581 895.0577)" class="st2 st3 st4">2.5</text>
				</g>
			</g>
			<g id="xtick_8">
				<g id="line2d_8">
					<g>
						<g>
							<path id="m5dd56966e5_7_" class="st1" d="M1098.6,852.2v6"/>
						</g>
					</g>
				</g>
				<g id="text_8">
					<text transform="matrix(1 0 0 1 1073.3009 895.0577)" class="st2 st3 st4">3.0</text>
				</g>
			</g>
			<g id="text_9">
				<text transform="matrix(1 0 0 1 574.5651 941.5618)" class="st2 st3 st4">Cw (Bq/mL)</text>
			</g>
		</g>
		<g id="matplotlib.axis_2">
			<g id="ytick_1">
				<g id="line2d_9">
					<g>
						<g>
							<path id="m591b4b4eef" class="st1" d="M205.8,845.2h-6"/>
						</g>
					</g>
				</g>
				<g id="text_10">
					<text transform="matrix(1 0 0 1 131.5077 857.7935)" class="st2 st3 st4">0</text>
				</g>
			</g>
			<g id="ytick_2">
				<g id="line2d_10">
					<g>
						<g>
							<path id="m591b4b4eef_1_" class="st1" d="M205.8,703.6h-6"/>
						</g>
					</g>
				</g>
				<g id="text_11">
					<text transform="matrix(1 0 0 1 104.8124 716.2172)" class="st2 st3 st4">2000</text>
				</g>
			</g>
			<g id="ytick_3">
				<g id="line2d_11">
					<g>
						<g>
							<path id="m591b4b4eef_2_" class="st1" d="M205.8,562h-6"/>
						</g>
					</g>
				</g>
				<g id="text_12">
					<text transform="matrix(1 0 0 1 104.8124 574.641)" class="st2 st3 st4">4000</text>
				</g>
			</g>
			<g id="ytick_4">
				<g id="line2d_12">
					<g>
						<g>
							<path id="m591b4b4eef_3_" class="st1" d="M205.8,420.4h-6"/>
						</g>
					</g>
				</g>
				<g id="text_13">
					<text transform="matrix(1 0 0 1 104.8124 433.0648)" class="st2 st3 st4">6000</text>
				</g>
			</g>
			<g id="ytick_5">
				<g id="line2d_13">
					<g>
						<g>
							<path id="m591b4b4eef_4_" class="st1" d="M205.8,278.8h-6"/>
						</g>
					</g>
				</g>
				<g id="text_14">
					<text transform="matrix(1 0 0 1 104.8124 291.4885)" class="st2 st3 st4">8000</text>
				</g>
			</g>
			<g id="ytick_6">
				<g id="line2d_14">
					<g>
						<g>
							<path id="m591b4b4eef_5_" class="st1" d="M205.8,137.3h-6"/>
						</g>
					</g>
				</g>
				<g id="text_15">
					<text transform="matrix(1 0 0 1 95.9139 149.9123)" class="st2 st3 st4">10000</text>
				</g>
			</g>
			<g id="text_16">
				<text transform="matrix(6.123234e-17 -1 1 6.123234e-17 75.8758 563.1011)" class="st2 st3 st4">Cs (Bq/g)</text>
			</g>
		</g>
		<g id="pH_3_Isotherm">
			<g id="pH_3_Data_Fit">
				<g>
					<defs>
						<rect id="SVGID_1_" x="205.8" y="137.3" width="892.8" height="715"/>
					</defs>
					<clipPath id="SVGID_2_">
						<use xlink:href="#SVGID_1_"  style="overflow:visible;"/>
					</clipPath>
					<path class="st5" d="M390.7,842.6l57.1-1.7l169.7-4.9l291.7-8.4"/>
				</g>
			</g>
			<g id="pH_3_Error_Bars">
				<g id="LineCollection_1">
					<g>
						<defs>
							<rect id="SVGID_3_" x="205.8" y="137.3" width="892.8" height="715"/>
						</defs>
						<clipPath id="SVGID_4_">
							<use xlink:href="#SVGID_3_"  style="overflow:visible;"/>
						</clipPath>
						<path class="st6" d="M389.3,843.5h2.8"/>
					</g>
					<g>
						<defs>
							<rect id="SVGID_5_" x="205.8" y="137.3" width="892.8" height="715"/>
						</defs>
						<clipPath id="SVGID_6_">
							<use xlink:href="#SVGID_5_"  style="overflow:visible;"/>
						</clipPath>
						<path class="st7" d="M446.7,841.4h2.2"/>
					</g>
					<g>
						<defs>
							<rect id="SVGID_7_" x="205.8" y="137.3" width="892.8" height="715"/>
						</defs>
						<clipPath id="SVGID_8_">
							<use xlink:href="#SVGID_7_"  style="overflow:visible;"/>
						</clipPath>
						<path class="st8" d="M604.6,833.9h25.8"/>
					</g>
					<g>
						<defs>
							<rect id="SVGID_9_" x="205.8" y="137.3" width="892.8" height="715"/>
						</defs>
						<clipPath id="SVGID_10_">
							<use xlink:href="#SVGID_9_"  style="overflow:visible;"/>
						</clipPath>
						<path class="st9" d="M907,828.5h4.3"/>
					</g>
				</g>
				<g id="LineCollection_2">
					<g>
						<defs>
							<rect id="SVGID_11_" x="205.8" y="137.3" width="892.8" height="715"/>
						</defs>
						<clipPath id="SVGID_12_">
							<use xlink:href="#SVGID_11_"  style="overflow:visible;"/>
						</clipPath>
						<path class="st10" d="M390.7,844.3v-1.7"/>
					</g>
					<g>
						<defs>
							<rect id="SVGID_13_" x="205.8" y="137.3" width="892.8" height="715"/>
						</defs>
						<clipPath id="SVGID_14_">
							<use xlink:href="#SVGID_13_"  style="overflow:visible;"/>
						</clipPath>
						<path class="st11" d="M447.8,842.6v-2.4"/>
					</g>
					<g>
						<defs>
							<rect id="SVGID_15_" x="205.8" y="137.3" width="892.8" height="715"/>
						</defs>
						<clipPath id="SVGID_16_">
							<use xlink:href="#SVGID_15_"  style="overflow:visible;"/>
						</clipPath>
						<path class="st12" d="M617.5,844.2v-20.6"/>
					</g>
					<g>
						<defs>
							<rect id="SVGID_17_" x="205.8" y="137.3" width="892.8" height="715"/>
						</defs>
						<clipPath id="SVGID_18_">
							<use xlink:href="#SVGID_17_"  style="overflow:visible;"/>
						</clipPath>
						<path class="st13" d="M909.2,832.1v-7"/>
					</g>
				</g>
				<g id="line2d_16">
					<g>
						<defs>
							<rect id="SVGID_19_" x="205.8" y="137.3" width="892.8" height="715"/>
						</defs>
						<clipPath id="SVGID_20_">
							<use xlink:href="#SVGID_19_"  style="overflow:visible;"/>
						</clipPath>
						<g class="st14">
							<g>
								<path id="m139744c7dc" class="st15" d="M389.3,848.5v-10"/>
							</g>
							<g>
								<path id="m139744c7dc_1_" class="st15" d="M446.7,846.4v-10"/>
							</g>
							<g>
								<path id="m139744c7dc_2_" class="st15" d="M604.6,838.9v-10"/>
							</g>
							<g>
								<path id="m139744c7dc_3_" class="st15" d="M907,833.5v-10"/>
							</g>
						</g>
					</g>
				</g>
				<g id="line2d_17">
					<g>
						<defs>
							<rect id="SVGID_21_" x="205.8" y="137.3" width="892.8" height="715"/>
						</defs>
						<clipPath id="SVGID_22_">
							<use xlink:href="#SVGID_21_"  style="overflow:visible;"/>
						</clipPath>
						<g class="st16">
							<g>
								<path id="m139744c7dc_4_" class="st15" d="M392.1,848.5v-10"/>
							</g>
							<g>
								<path id="m139744c7dc_5_" class="st15" d="M448.9,846.4v-10"/>
							</g>
							<g>
								<path id="m139744c7dc_6_" class="st15" d="M630.3,838.9v-10"/>
							</g>
							<g>
								<path id="m139744c7dc_7_" class="st15" d="M911.4,833.5v-10"/>
							</g>
						</g>
					</g>
				</g>
				<g id="line2d_18">
					<g>
						<defs>
							<rect id="SVGID_23_" x="205.8" y="137.3" width="892.8" height="715"/>
						</defs>
						<clipPath id="SVGID_24_">
							<use xlink:href="#SVGID_23_"  style="overflow:visible;"/>
						</clipPath>
						<g class="st17">
							<g>
								<path id="m0057bd854d" class="st15" d="M395.7,844.3h-10"/>
							</g>
							<g>
								<path id="m0057bd854d_1_" class="st15" d="M452.8,842.6h-10"/>
							</g>
							<g>
								<path id="m0057bd854d_2_" class="st15" d="M622.5,844.2h-10"/>
							</g>
							<g>
								<path id="m0057bd854d_3_" class="st15" d="M914.2,832.1h-10"/>
							</g>
						</g>
					</g>
				</g>
				<g id="line2d_19">
					<g>
						<defs>
							<rect id="SVGID_25_" x="205.8" y="137.3" width="892.8" height="715"/>
						</defs>
						<clipPath id="SVGID_26_">
							<use xlink:href="#SVGID_25_"  style="overflow:visible;"/>
						</clipPath>
						<g class="st18">
							<g>
								<path id="m0057bd854d_4_" class="st15" d="M395.7,842.7h-10"/>
							</g>
							<g>
								<path id="m0057bd854d_5_" class="st15" d="M452.8,840.2h-10"/>
							</g>
							<g>
								<path id="m0057bd854d_6_" class="st15" d="M622.5,823.6h-10"/>
							</g>
							<g>
								<path id="m0057bd854d_7_" class="st15" d="M914.2,825h-10"/>
							</g>
						</g>
					</g>
				</g>
			</g>
			<g id="pH_3_Data_Points">
				<g>
					<defs>
						<rect id="SVGID_27_" x="205.8" y="137.3" width="892.8" height="715"/>
					</defs>
					<clipPath id="SVGID_28_">
						<use xlink:href="#SVGID_27_"  style="overflow:visible;"/>
					</clipPath>
					<g class="st19">
						<g>
							<path id="ma962761820" class="st15" d="M390.7,858.5c4,0,7.8-1.6,10.6-4.4c2.8-2.8,4.4-6.6,4.4-10.6c0-4-1.6-7.8-4.4-10.6
								c-2.8-2.8-6.6-4.4-10.6-4.4c-4,0-7.8,1.6-10.6,4.4c-2.8,2.8-4.4,6.6-4.4,10.6c0,4,1.6,7.8,4.4,10.6
								C382.9,856.9,386.7,858.5,390.7,858.5z"/>
						</g>
						<g>
							<path id="ma962761820_1_" class="st15" d="M447.8,856.4c4,0,7.8-1.6,10.6-4.4c2.8-2.8,4.4-6.6,4.4-10.6c0-4-1.6-7.8-4.4-10.6
								c-2.8-2.8-6.6-4.4-10.6-4.4c-4,0-7.8,1.6-10.6,4.4c-2.8,2.8-4.4,6.6-4.4,10.6c0,4,1.6,7.8,4.4,10.6
								C440,854.8,443.8,856.4,447.8,856.4z"/>
						</g>
						<g>
							<path id="ma962761820_2_" class="st15" d="M617.5,848.9c4,0,7.8-1.6,10.6-4.4c2.8-2.8,4.4-6.6,4.4-10.6c0-4-1.6-7.8-4.4-10.6
								c-2.8-2.8-6.6-4.4-10.6-4.4c-4,0-7.8,1.6-10.6,4.4c-2.8,2.8-4.4,6.6-4.4,10.6c0,4,1.6,7.8,4.4,10.6
								C609.7,847.3,613.5,848.9,617.5,848.9z"/>
						</g>
						<g>
							<path id="ma962761820_3_" class="st15" d="M909.2,843.5c4,0,7.8-1.6,10.6-4.4c2.8-2.8,4.4-6.6,4.4-10.6c0-4-1.6-7.8-4.4-10.6
								c-2.8-2.8-6.6-4.4-10.6-4.4c-4,0-7.8,1.6-10.6,4.4c-2.8,2.8-4.4,6.6-4.4,10.6c0,4,1.6,7.8,4.4,10.6
								C901.4,842,905.2,843.5,909.2,843.5z"/>
						</g>
					</g>
				</g>
			</g>
		</g>
		<g id="pH_5_Isotherm">
			<g id="pH_5_Data_Fit">
				<g>
					<defs>
						<rect id="SVGID_29_" x="205.8" y="137.3" width="892.8" height="715"/>
					</defs>
					<clipPath id="SVGID_30_">
						<use xlink:href="#SVGID_29_"  style="overflow:visible;"/>
					</clipPath>
					<path class="st20" d="M390.7,845.2l53.8,0l165.4,0l252.5,0"/>
				</g>
			</g>
			<g id="pH_5_Error_Bars">
				<g id="LineCollection_3">
					<g>
						<defs>
							<rect id="SVGID_31_" x="205.8" y="137.3" width="892.8" height="715"/>
						</defs>
						<clipPath id="SVGID_32_">
							<use xlink:href="#SVGID_31_"  style="overflow:visible;"/>
						</clipPath>
						<path class="st21" d="M390.1,845.2h1.2"/>
					</g>
					<g>
						<defs>
							<rect id="SVGID_33_" x="205.8" y="137.3" width="892.8" height="715"/>
						</defs>
						<clipPath id="SVGID_34_">
							<use xlink:href="#SVGID_33_"  style="overflow:visible;"/>
						</clipPath>
						<path class="st22" d="M443,845.1h3.1"/>
					</g>
					<g>
						<defs>
							<rect id="SVGID_35_" x="205.8" y="137.3" width="892.8" height="715"/>
						</defs>
						<clipPath id="SVGID_36_">
							<use xlink:href="#SVGID_35_"  style="overflow:visible;"/>
						</clipPath>
						<path class="st23" d="M605.7,845.1h8.5"/>
					</g>
					<g>
						<defs>
							<rect id="SVGID_37_" x="205.8" y="137.3" width="892.8" height="715"/>
						</defs>
						<clipPath id="SVGID_38_">
							<use xlink:href="#SVGID_37_"  style="overflow:visible;"/>
						</clipPath>
						<path class="st24" d="M858.5,845.1h7.8"/>
					</g>
				</g>
				<g id="LineCollection_4">
					<g>
						<defs>
							<rect id="SVGID_39_" x="205.8" y="137.3" width="892.8" height="715"/>
						</defs>
						<clipPath id="SVGID_40_">
							<use xlink:href="#SVGID_39_"  style="overflow:visible;"/>
						</clipPath>
						<path class="st25" d="M390.7,845.2L390.7,845.2"/>
					</g>
					<g>
						<defs>
							<rect id="SVGID_41_" x="205.8" y="137.3" width="892.8" height="715"/>
						</defs>
						<clipPath id="SVGID_42_">
							<use xlink:href="#SVGID_41_"  style="overflow:visible;"/>
						</clipPath>
						<path class="st26" d="M444.5,845.1L444.5,845.1"/>
					</g>
					<g>
						<defs>
							<rect id="SVGID_43_" x="205.8" y="137.3" width="892.8" height="715"/>
						</defs>
						<clipPath id="SVGID_44_">
							<use xlink:href="#SVGID_43_"  style="overflow:visible;"/>
						</clipPath>
						<path class="st27" d="M609.9,845.1L609.9,845.1"/>
					</g>
					<g>
						<defs>
							<rect id="SVGID_45_" x="205.8" y="137.3" width="892.8" height="715"/>
						</defs>
						<clipPath id="SVGID_46_">
							<use xlink:href="#SVGID_45_"  style="overflow:visible;"/>
						</clipPath>
						<path class="st28" d="M862.4,845.1L862.4,845.1"/>
					</g>
				</g>
				<g id="line2d_22">
					<g>
						<defs>
							<rect id="SVGID_47_" x="205.8" y="137.3" width="892.8" height="715"/>
						</defs>
						<clipPath id="SVGID_48_">
							<use xlink:href="#SVGID_47_"  style="overflow:visible;"/>
						</clipPath>
						<g class="st29">
							<g>
								<path id="m139744c7dc_8_" class="st15" d="M390.1,850.2v-10"/>
							</g>
							<g>
								<path id="m139744c7dc_9_" class="st15" d="M443,850.1v-10"/>
							</g>
							<g>
								<path id="m139744c7dc_10_" class="st15" d="M605.7,850.1v-10"/>
							</g>
							<g>
								<path id="m139744c7dc_11_" class="st15" d="M858.5,850.1v-10"/>
							</g>
						</g>
					</g>
				</g>
				<g id="line2d_23">
					<g>
						<defs>
							<rect id="SVGID_49_" x="205.8" y="137.3" width="892.8" height="715"/>
						</defs>
						<clipPath id="SVGID_50_">
							<use xlink:href="#SVGID_49_"  style="overflow:visible;"/>
						</clipPath>
						<g class="st30">
							<g>
								<path id="m139744c7dc_12_" class="st15" d="M391.3,850.2v-10"/>
							</g>
							<g>
								<path id="m139744c7dc_13_" class="st15" d="M446.1,850.1v-10"/>
							</g>
							<g>
								<path id="m139744c7dc_14_" class="st15" d="M614.2,850.1v-10"/>
							</g>
							<g>
								<path id="m139744c7dc_15_" class="st15" d="M866.3,850.1v-10"/>
							</g>
						</g>
					</g>
				</g>
				<g id="line2d_24">
					<g>
						<defs>
							<rect id="SVGID_51_" x="205.8" y="137.3" width="892.8" height="715"/>
						</defs>
						<clipPath id="SVGID_52_">
							<use xlink:href="#SVGID_51_"  style="overflow:visible;"/>
						</clipPath>
						<g class="st31">
							<g>
								<path id="m0057bd854d_8_" class="st15" d="M395.7,845.2h-10"/>
							</g>
							<g>
								<path id="m0057bd854d_9_" class="st15" d="M449.5,845.1h-10"/>
							</g>
							<g>
								<path id="m0057bd854d_10_" class="st15" d="M614.9,845.1h-10"/>
							</g>
							<g>
								<path id="m0057bd854d_11_" class="st15" d="M867.4,845.1h-10"/>
							</g>
						</g>
					</g>
				</g>
				<g id="line2d_25">
					<g>
						<defs>
							<rect id="SVGID_53_" x="205.8" y="137.3" width="892.8" height="715"/>
						</defs>
						<clipPath id="SVGID_54_">
							<use xlink:href="#SVGID_53_"  style="overflow:visible;"/>
						</clipPath>
						<g class="st32">
							<g>
								<path id="m0057bd854d_12_" class="st15" d="M395.7,845.2h-10"/>
							</g>
							<g>
								<path id="m0057bd854d_13_" class="st15" d="M449.5,845.1h-10"/>
							</g>
							<g>
								<path id="m0057bd854d_14_" class="st15" d="M614.9,845.1h-10"/>
							</g>
							<g>
								<path id="m0057bd854d_15_" class="st15" d="M867.4,845.1h-10"/>
							</g>
						</g>
					</g>
				</g>
			</g>
			<g id="pH_5_Data_Points">
				<g>
					<defs>
						<rect id="SVGID_55_" x="205.8" y="137.3" width="892.8" height="715"/>
					</defs>
					<clipPath id="SVGID_56_">
						<use xlink:href="#SVGID_55_"  style="overflow:visible;"/>
					</clipPath>
					<g class="st33">
						<g>
							<path id="m2a1399e84d" class="st34" d="M390.7,830.2l-15,30h30L390.7,830.2z"/>
						</g>
						<g>
							<path id="m2a1399e84d_1_" class="st34" d="M444.5,830.1l-15,30h30L444.5,830.1z"/>
						</g>
						<g>
							<path id="m2a1399e84d_2_" class="st34" d="M609.9,830.1l-15,30h30L609.9,830.1z"/>
						</g>
						<g>
							<path id="m2a1399e84d_3_" class="st34" d="M862.4,830.1l-15,30h30L862.4,830.1z"/>
						</g>
					</g>
				</g>
			</g>
		</g>
		<g id="pH_7_Isotherm">
			<g id="pH_7_Data_Fit">
				<g>
					<defs>
						<rect id="SVGID_57_" x="205.8" y="137.3" width="892.8" height="715"/>
					</defs>
					<clipPath id="SVGID_58_">
						<use xlink:href="#SVGID_57_"  style="overflow:visible;"/>
					</clipPath>
					<path class="st35" d="M386.9,839.7l50.4-7.4l149-21.9l251.4-36.9"/>
				</g>
			</g>
			<g id="pH_7_Error_Bars">
				<g id="LineCollection_5">
					<g>
						<defs>
							<rect id="SVGID_59_" x="205.8" y="137.3" width="892.8" height="715"/>
						</defs>
						<clipPath id="SVGID_60_">
							<use xlink:href="#SVGID_59_"  style="overflow:visible;"/>
						</clipPath>
						<path class="st36" d="M386.4,840.2h1"/>
					</g>
					<g>
						<defs>
							<rect id="SVGID_61_" x="205.8" y="137.3" width="892.8" height="715"/>
						</defs>
						<clipPath id="SVGID_62_">
							<use xlink:href="#SVGID_61_"  style="overflow:visible;"/>
						</clipPath>
						<path class="st37" d="M436,833.2h2.7"/>
					</g>
					<g>
						<defs>
							<rect id="SVGID_63_" x="205.8" y="137.3" width="892.8" height="715"/>
						</defs>
						<clipPath id="SVGID_64_">
							<use xlink:href="#SVGID_63_"  style="overflow:visible;"/>
						</clipPath>
						<path class="st38" d="M572.9,808h26.8"/>
					</g>
					<g>
						<defs>
							<rect id="SVGID_65_" x="205.8" y="137.3" width="892.8" height="715"/>
						</defs>
						<clipPath id="SVGID_66_">
							<use xlink:href="#SVGID_65_"  style="overflow:visible;"/>
						</clipPath>
						<path class="st39" d="M833.8,774.5h7.8"/>
					</g>
				</g>
				<g id="LineCollection_6">
					<g>
						<defs>
							<rect id="SVGID_67_" x="205.8" y="137.3" width="892.8" height="715"/>
						</defs>
						<clipPath id="SVGID_68_">
							<use xlink:href="#SVGID_67_"  style="overflow:visible;"/>
						</clipPath>
						<path class="st40" d="M386.9,840.9v-1.3"/>
					</g>
					<g>
						<defs>
							<rect id="SVGID_69_" x="205.8" y="137.3" width="892.8" height="715"/>
						</defs>
						<clipPath id="SVGID_70_">
							<use xlink:href="#SVGID_69_"  style="overflow:visible;"/>
						</clipPath>
						<path class="st41" d="M437.3,835.2v-4"/>
					</g>
					<g>
						<defs>
							<rect id="SVGID_71_" x="205.8" y="137.3" width="892.8" height="715"/>
						</defs>
						<clipPath id="SVGID_72_">
							<use xlink:href="#SVGID_71_"  style="overflow:visible;"/>
						</clipPath>
						<path class="st42" d="M586.3,822.3v-28.7"/>
					</g>
					<g>
						<defs>
							<rect id="SVGID_73_" x="205.8" y="137.3" width="892.8" height="715"/>
						</defs>
						<clipPath id="SVGID_74_">
							<use xlink:href="#SVGID_73_"  style="overflow:visible;"/>
						</clipPath>
						<path class="st43" d="M837.7,783.4v-17.8"/>
					</g>
				</g>
				<g id="line2d_28">
					<g>
						<defs>
							<rect id="SVGID_75_" x="205.8" y="137.3" width="892.8" height="715"/>
						</defs>
						<clipPath id="SVGID_76_">
							<use xlink:href="#SVGID_75_"  style="overflow:visible;"/>
						</clipPath>
						<g class="st44">
							<g>
								<path id="m139744c7dc_16_" class="st15" d="M386.4,845.2v-10"/>
							</g>
							<g>
								<path id="m139744c7dc_17_" class="st15" d="M436,838.2v-10"/>
							</g>
							<g>
								<path id="m139744c7dc_18_" class="st15" d="M572.9,813v-10"/>
							</g>
							<g>
								<path id="m139744c7dc_19_" class="st15" d="M833.8,779.5v-10"/>
							</g>
						</g>
					</g>
				</g>
				<g id="line2d_29">
					<g>
						<defs>
							<rect id="SVGID_77_" x="205.8" y="137.3" width="892.8" height="715"/>
						</defs>
						<clipPath id="SVGID_78_">
							<use xlink:href="#SVGID_77_"  style="overflow:visible;"/>
						</clipPath>
						<g class="st45">
							<g>
								<path id="m139744c7dc_20_" class="st15" d="M387.3,845.2v-10"/>
							</g>
							<g>
								<path id="m139744c7dc_21_" class="st15" d="M438.6,838.2v-10"/>
							</g>
							<g>
								<path id="m139744c7dc_22_" class="st15" d="M599.7,813v-10"/>
							</g>
							<g>
								<path id="m139744c7dc_23_" class="st15" d="M841.7,779.5v-10"/>
							</g>
						</g>
					</g>
				</g>
				<g id="line2d_30">
					<g>
						<defs>
							<rect id="SVGID_79_" x="205.8" y="137.3" width="892.8" height="715"/>
						</defs>
						<clipPath id="SVGID_80_">
							<use xlink:href="#SVGID_79_"  style="overflow:visible;"/>
						</clipPath>
						<g class="st46">
							<g>
								<path id="m0057bd854d_16_" class="st15" d="M391.9,840.9h-10"/>
							</g>
							<g>
								<path id="m0057bd854d_17_" class="st15" d="M442.3,835.2h-10"/>
							</g>
							<g>
								<path id="m0057bd854d_18_" class="st15" d="M591.3,822.3h-10"/>
							</g>
							<g>
								<path id="m0057bd854d_19_" class="st15" d="M842.7,783.4h-10"/>
							</g>
						</g>
					</g>
				</g>
				<g id="line2d_31">
					<g>
						<defs>
							<rect id="SVGID_81_" x="205.8" y="137.3" width="892.8" height="715"/>
						</defs>
						<clipPath id="SVGID_82_">
							<use xlink:href="#SVGID_81_"  style="overflow:visible;"/>
						</clipPath>
						<g class="st47">
							<g>
								<path id="m0057bd854d_20_" class="st15" d="M391.9,839.6h-10"/>
							</g>
							<g>
								<path id="m0057bd854d_21_" class="st15" d="M442.3,831.2h-10"/>
							</g>
							<g>
								<path id="m0057bd854d_22_" class="st15" d="M591.3,793.6h-10"/>
							</g>
							<g>
								<path id="m0057bd854d_23_" class="st15" d="M842.7,765.5h-10"/>
							</g>
						</g>
					</g>
				</g>
			</g>
			<g id="pH_7_Data_Points">
				<g>
					<defs>
						<rect id="SVGID_83_" x="205.8" y="137.3" width="892.8" height="715"/>
					</defs>
					<clipPath id="SVGID_84_">
						<use xlink:href="#SVGID_83_"  style="overflow:visible;"/>
					</clipPath>
					<g class="st48">
						<g>
							<path id="mf6c00818e1" class="st34" d="M371.9,855.2h30v-30h-30V855.2z"/>
						</g>
						<g>
							<path id="mf6c00818e1_1_" class="st34" d="M422.3,848.2h30v-30h-30V848.2z"/>
						</g>
						<g>
							<path id="mf6c00818e1_2_" class="st34" d="M571.3,823h30v-30h-30V823z"/>
						</g>
						<g>
							<path id="mf6c00818e1_3_" class="st34" d="M822.7,789.5h30v-30h-30V789.5z"/>
						</g>
					</g>
				</g>
			</g>
		</g>
		<g id="pH_9_Isotherm">
			<g id="pH_9_Data_Fit">
				<g>
					<defs>
						<rect id="SVGID_85_" x="205.8" y="137.3" width="892.8" height="715"/>
					</defs>
					<clipPath id="SVGID_86_">
						<use xlink:href="#SVGID_85_"  style="overflow:visible;"/>
					</clipPath>
					<path class="st49" d="M380.5,834.6l44.3-6.3l152.4-21.5l244.1-34.5"/>
				</g>
			</g>
			<g id="pH_9_Error_Bars">
				<g id="LineCollection_7">
					<g>
						<defs>
							<rect id="SVGID_87_" x="205.8" y="137.3" width="892.8" height="715"/>
						</defs>
						<clipPath id="SVGID_88_">
							<use xlink:href="#SVGID_87_"  style="overflow:visible;"/>
						</clipPath>
						<path class="st50" d="M378.8,836.7h3.4"/>
					</g>
					<g>
						<defs>
							<rect id="SVGID_89_" x="205.8" y="137.3" width="892.8" height="715"/>
						</defs>
						<clipPath id="SVGID_90_">
							<use xlink:href="#SVGID_89_"  style="overflow:visible;"/>
						</clipPath>
						<path class="st51" d="M424.5,826.5h0.8"/>
					</g>
					<g>
						<defs>
							<rect id="SVGID_91_" x="205.8" y="137.3" width="892.8" height="715"/>
						</defs>
						<clipPath id="SVGID_92_">
							<use xlink:href="#SVGID_91_"  style="overflow:visible;"/>
						</clipPath>
						<path class="st52" d="M565.7,805.9h23.1"/>
					</g>
					<g>
						<defs>
							<rect id="SVGID_93_" x="205.8" y="137.3" width="892.8" height="715"/>
						</defs>
						<clipPath id="SVGID_94_">
							<use xlink:href="#SVGID_93_"  style="overflow:visible;"/>
						</clipPath>
						<path class="st53" d="M802.3,772.9h38.2"/>
					</g>
				</g>
				<g id="LineCollection_8">
					<g>
						<defs>
							<rect id="SVGID_95_" x="205.8" y="137.3" width="892.8" height="715"/>
						</defs>
						<clipPath id="SVGID_96_">
							<use xlink:href="#SVGID_95_"  style="overflow:visible;"/>
						</clipPath>
						<path class="st54" d="M380.5,837.9v-2.4"/>
					</g>
					<g>
						<defs>
							<rect id="SVGID_97_" x="205.8" y="137.3" width="892.8" height="715"/>
						</defs>
						<clipPath id="SVGID_98_">
							<use xlink:href="#SVGID_97_"  style="overflow:visible;"/>
						</clipPath>
						<path class="st55" d="M424.9,827.8v-2.7"/>
					</g>
					<g>
						<defs>
							<rect id="SVGID_99_" x="205.8" y="137.3" width="892.8" height="715"/>
						</defs>
						<clipPath id="SVGID_100_">
							<use xlink:href="#SVGID_99_"  style="overflow:visible;"/>
						</clipPath>
						<path class="st56" d="M577.3,820.2v-28.5"/>
					</g>
					<g>
						<defs>
							<rect id="SVGID_101_" x="205.8" y="137.3" width="892.8" height="715"/>
						</defs>
						<clipPath id="SVGID_102_">
							<use xlink:href="#SVGID_101_"  style="overflow:visible;"/>
						</clipPath>
						<path class="st57" d="M821.4,778.7v-11.5"/>
					</g>
				</g>
				<g id="line2d_34">
					<g>
						<defs>
							<rect id="SVGID_103_" x="205.8" y="137.3" width="892.8" height="715"/>
						</defs>
						<clipPath id="SVGID_104_">
							<use xlink:href="#SVGID_103_"  style="overflow:visible;"/>
						</clipPath>
						<g class="st58">
							<g>
								<path id="m139744c7dc_24_" class="st15" d="M378.8,841.7v-10"/>
							</g>
							<g>
								<path id="m139744c7dc_25_" class="st15" d="M424.5,831.5v-10"/>
							</g>
							<g>
								<path id="m139744c7dc_26_" class="st15" d="M565.7,810.9v-10"/>
							</g>
							<g>
								<path id="m139744c7dc_27_" class="st15" d="M802.3,777.9v-10"/>
							</g>
						</g>
					</g>
				</g>
				<g id="line2d_35">
					<g>
						<defs>
							<rect id="SVGID_105_" x="205.8" y="137.3" width="892.8" height="715"/>
						</defs>
						<clipPath id="SVGID_106_">
							<use xlink:href="#SVGID_105_"  style="overflow:visible;"/>
						</clipPath>
						<g class="st59">
							<g>
								<path id="m139744c7dc_28_" class="st15" d="M382.2,841.7v-10"/>
							</g>
							<g>
								<path id="m139744c7dc_29_" class="st15" d="M425.3,831.5v-10"/>
							</g>
							<g>
								<path id="m139744c7dc_30_" class="st15" d="M588.8,810.9v-10"/>
							</g>
							<g>
								<path id="m139744c7dc_31_" class="st15" d="M840.5,777.9v-10"/>
							</g>
						</g>
					</g>
				</g>
				<g id="line2d_36">
					<g>
						<defs>
							<rect id="SVGID_107_" x="205.8" y="137.3" width="892.8" height="715"/>
						</defs>
						<clipPath id="SVGID_108_">
							<use xlink:href="#SVGID_107_"  style="overflow:visible;"/>
						</clipPath>
						<g class="st60">
							<g>
								<path id="m0057bd854d_24_" class="st15" d="M385.5,837.9h-10"/>
							</g>
							<g>
								<path id="m0057bd854d_25_" class="st15" d="M429.9,827.8h-10"/>
							</g>
							<g>
								<path id="m0057bd854d_26_" class="st15" d="M582.3,820.2h-10"/>
							</g>
							<g>
								<path id="m0057bd854d_27_" class="st15" d="M826.4,778.7h-10"/>
							</g>
						</g>
					</g>
				</g>
				<g id="line2d_37">
					<g>
						<defs>
							<rect id="SVGID_109_" x="205.8" y="137.3" width="892.8" height="715"/>
						</defs>
						<clipPath id="SVGID_110_">
							<use xlink:href="#SVGID_109_"  style="overflow:visible;"/>
						</clipPath>
						<g class="st61">
							<g>
								<path id="m0057bd854d_28_" class="st15" d="M385.5,835.6h-10"/>
							</g>
							<g>
								<path id="m0057bd854d_29_" class="st15" d="M429.9,825.1h-10"/>
							</g>
							<g>
								<path id="m0057bd854d_30_" class="st15" d="M582.3,791.7h-10"/>
							</g>
							<g>
								<path id="m0057bd854d_31_" class="st15" d="M826.4,767.2h-10"/>
							</g>
						</g>
					</g>
				</g>
			</g>
			<g id="pH_9_Data_Points">
				<g>
					<defs>
						<rect id="SVGID_111_" x="205.8" y="137.3" width="892.8" height="715"/>
					</defs>
					<clipPath id="SVGID_112_">
						<use xlink:href="#SVGID_111_"  style="overflow:visible;"/>
					</clipPath>
					<g class="st62">
						<g>
							<path id="m706f03c228" class="st34" d="M380.5,821.7l-14.3,10.4l5.4,16.8h17.6l5.4-16.8L380.5,821.7z"/>
						</g>
						<g>
							<path id="m706f03c228_1_" class="st34" d="M424.9,811.5l-14.3,10.4l5.4,16.8h17.6l5.4-16.8L424.9,811.5z"/>
						</g>
						<g>
							<path id="m706f03c228_2_" class="st34" d="M577.3,790.9L563,801.3l5.4,16.8h17.6l5.4-16.8L577.3,790.9z"/>
						</g>
						<g>
							<path id="m706f03c228_3_" class="st34" d="M821.4,757.9l-14.3,10.4l5.4,16.8h17.6l5.4-16.8L821.4,757.9z"/>
						</g>
					</g>
				</g>
			</g>
		</g>
		<g id="Horizontal_Axis">
			<path class="st63" d="M205.8,852.2h892.8"/>
		</g>
		<g id="Vertical_Axis">
			<path class="st63" d="M205.8,852.2v-715"/>
		</g>
		<g id="legend_1">
			<g id="line2d_39">
			</g>
			<g id="line2d_40">
				<g>
					<g>
						<path id="ma962761820_4_" class="st15" d="M870.4,158.4c4,0,7.8-1.6,10.6-4.4c2.8-2.8,4.4-6.6,4.4-10.6c0-4-1.6-7.8-4.4-10.6
							c-2.8-2.8-6.6-4.4-10.6-4.4c-4,0-7.8,1.6-10.6,4.4c-2.8,2.8-4.4,6.6-4.4,10.6c0,4,1.6,7.8,4.4,10.6
							C862.6,156.8,866.4,158.4,870.4,158.4z"/>
					</g>
				</g>
			</g>
			<g id="text_17">
				<text transform="matrix(1 0 0 1 902.0275 151.8334)" class="st2 st3 st4">pH 3</text>
			</g>
			<g id="line2d_41">
			</g>
			<g id="line2d_42">
				<g>
					<g>
						<path id="m2a1399e84d_4_" class="st34" d="M870.4,165.3l-15,30h30L870.4,165.3z"/>
					</g>
				</g>
			</g>
			<g id="text_18">
				<text transform="matrix(1 0 0 1 902.0275 188.6867)" class="st2 st3 st4">pH 5</text>
			</g>
			<g id="line2d_43">
			</g>
			<g id="line2d_44">
				<g>
					<g>
						<path id="mf6c00818e1_4_" class="st34" d="M855.4,232.1h30v-30h-30V232.1z"/>
					</g>
				</g>
			</g>
			<g id="text_19">
				<text transform="matrix(1 0 0 1 902.0275 225.54)" class="st2 st3 st4">pH 7</text>
			</g>
			<g id="line2d_45">
			</g>
			<g id="line2d_46">
				<g>
					<g>
						<path id="m706f03c228_4_" class="st34" d="M870.4,236.1l-14.3,10.4l5.4,16.8h17.6l5.4-16.8L870.4,236.1z"/>
					</g>
				</g>
			</g>
			<g id="text_20">
				<text transform="matrix(1 0 0 1 902.0275 259.5586)" class="st2 st3 st4">pH 9</text>
			</g>
		</g>
	</g>
</g>
</svg>
