<?xml version="1.0" encoding="utf-8"?>
<!-- Generator: Adobe Illustrator 19.2.1, SVG Export Plug-In . SVG Version: 6.00 Build 0)  -->
<svg version="1.1" id="Layer_1" xmlns="http://www.w3.org/2000/svg" xmlns:xlink="http://www.w3.org/1999/xlink" x="0px" y="0px"
	 viewBox="0 0 1152 900" style="enable-background:new 0 0 1152 900;" xml:space="preserve">
<style type="text/css">
	.st0{fill:#FFFFFF;}
	.st1{fill:none;stroke:#262626;stroke-width:1.6;stroke-linejoin:round;stroke-miterlimit:10;}
	.st2{fill:#262626;}
	.st3{font-family:'ArialMT';}
	.st4{font-size:24px;}
	.st5{font-size:36px;}
	.st6{clip-path:url(#SVGID_2_);fill:none;stroke:#000000;stroke-linejoin:round;stroke-miterlimit:10;}
	.st7{clip-path:url(#SVGID_4_);fill:none;stroke:#000000;stroke-linejoin:round;stroke-miterlimit:10;}
	.st8{clip-path:url(#SVGID_6_);fill:none;stroke:#000000;stroke-linejoin:round;stroke-miterlimit:10;}
	.st9{clip-path:url(#SVGID_8_);fill:none;stroke:#000000;stroke-linejoin:round;stroke-miterlimit:10;}
	.st10{clip-path:url(#SVGID_10_);fill:none;stroke:#000000;stroke-linejoin:round;stroke-miterlimit:10;}
	.st11{clip-path:url(#SVGID_12_);fill:none;stroke:#000000;stroke-linejoin:round;stroke-miterlimit:10;}
	.st12{clip-path:url(#SVGID_14_);fill:none;stroke:#000000;stroke-linejoin:round;stroke-miterlimit:10;}
	.st13{clip-path:url(#SVGID_16_);fill:none;stroke:#000000;stroke-linejoin:round;stroke-miterlimit:10;}
	.st14{clip-path:url(#SVGID_18_);fill:none;stroke:#000000;stroke-linejoin:round;stroke-miterlimit:10;}
	.st15{clip-path:url(#SVGID_20_);fill:none;stroke:#000000;stroke-linejoin:round;stroke-miterlimit:10;}
	.st16{clip-path:url(#SVGID_22_);fill:none;stroke:#000000;stroke-linejoin:round;stroke-miterlimit:10;}
	.st17{clip-path:url(#SVGID_24_);fill:none;stroke:#000000;stroke-linejoin:round;stroke-miterlimit:10;}
	.st18{clip-path:url(#SVGID_26_);fill:none;stroke:#000000;stroke-linejoin:round;stroke-miterlimit:10;}
	.st19{clip-path:url(#SVGID_28_);fill:none;stroke:#000000;stroke-linejoin:round;stroke-miterlimit:10;}
	.st20{clip-path:url(#SVGID_30_);fill:none;stroke:#000000;stroke-linejoin:round;stroke-miterlimit:10;}
	.st21{clip-path:url(#SVGID_32_);fill:none;stroke:#000000;stroke-linejoin:round;stroke-miterlimit:10;}
	.st22{clip-path:url(#SVGID_34_);fill:none;stroke:#000000;stroke-linejoin:round;stroke-miterlimit:10;}
	.st23{clip-path:url(#SVGID_36_);fill:none;stroke:#000000;stroke-linejoin:round;stroke-miterlimit:10;}
	.st24{clip-path:url(#SVGID_38_);fill:none;stroke:#000000;stroke-linejoin:round;stroke-miterlimit:10;}
	.st25{clip-path:url(#SVGID_40_);fill:none;stroke:#000000;stroke-linejoin:round;stroke-miterlimit:10;}
	.st26{clip-path:url(#SVGID_42_);fill:none;stroke:#000000;stroke-linejoin:round;stroke-miterlimit:10;}
	.st27{clip-path:url(#SVGID_44_);fill:none;stroke:#000000;stroke-linejoin:round;stroke-miterlimit:10;}
	.st28{clip-path:url(#SVGID_46_);fill:none;stroke:#000000;stroke-linejoin:round;stroke-miterlimit:10;}
	.st29{clip-path:url(#SVGID_48_);fill:none;stroke:#000000;stroke-linejoin:round;stroke-miterlimit:10;}
	.st30{clip-path:url(#SVGID_50_);fill:none;stroke:#000000;stroke-linejoin:round;stroke-miterlimit:10;}
	.st31{clip-path:url(#SVGID_52_);fill:none;stroke:#000000;stroke-linejoin:round;stroke-miterlimit:10;}
	.st32{clip-path:url(#SVGID_54_);fill:none;stroke:#000000;stroke-linejoin:round;stroke-miterlimit:10;}
	.st33{clip-path:url(#SVGID_56_);fill:none;stroke:#000000;stroke-linejoin:round;stroke-miterlimit:10;}
	.st34{clip-path:url(#SVGID_58_);fill:none;stroke:#000000;stroke-linejoin:round;stroke-miterlimit:10;}
	.st35{clip-path:url(#SVGID_60_);fill:none;stroke:#000000;stroke-linejoin:round;stroke-miterlimit:10;}
	.st36{clip-path:url(#SVGID_62_);fill:none;stroke:#000000;stroke-linejoin:round;stroke-miterlimit:10;}
	.st37{clip-path:url(#SVGID_64_);fill:none;stroke:#000000;stroke-linejoin:round;stroke-miterlimit:10;}
	.st38{clip-path:url(#SVGID_66_);fill:none;stroke:#000000;stroke-linejoin:round;stroke-miterlimit:10;}
	.st39{clip-path:url(#SVGID_68_);fill:none;stroke:#000000;stroke-linejoin:round;stroke-miterlimit:10;}
	.st40{clip-path:url(#SVGID_70_);fill:none;stroke:#000000;stroke-linejoin:round;stroke-miterlimit:10;}
	.st41{clip-path:url(#SVGID_72_);fill:none;stroke:#000000;stroke-linejoin:round;stroke-miterlimit:10;}
	.st42{clip-path:url(#SVGID_74_);fill:none;stroke:#000000;stroke-linejoin:round;stroke-miterlimit:10;}
	.st43{clip-path:url(#SVGID_76_);fill:none;stroke:#000000;stroke-linejoin:round;stroke-miterlimit:10;}
	.st44{clip-path:url(#SVGID_78_);fill:none;stroke:#000000;stroke-linecap:round;stroke-linejoin:round;stroke-miterlimit:10;}
	.st45{clip-path:url(#SVGID_80_);}
	.st46{fill:none;stroke:#000000;stroke-width:2;stroke-linejoin:round;stroke-miterlimit:10;}
	.st47{clip-path:url(#SVGID_82_);}
	.st48{clip-path:url(#SVGID_84_);}
	.st49{clip-path:url(#SVGID_86_);}
	.st50{clip-path:url(#SVGID_88_);}
	.st51{clip-path:url(#SVGID_90_);fill:none;stroke:#000000;stroke-linejoin:round;stroke-miterlimit:10;stroke-dasharray:6,6;}
	.st52{clip-path:url(#SVGID_92_);}
	.st53{clip-path:url(#SVGID_94_);}
	.st54{clip-path:url(#SVGID_96_);}
	.st55{clip-path:url(#SVGID_98_);}
	.st56{clip-path:url(#SVGID_100_);}
	.st57{fill:none;stroke:#000000;stroke-width:2;stroke-miterlimit:10;}
	.st58{clip-path:url(#SVGID_102_);fill:none;stroke:#000000;stroke-linejoin:round;stroke-miterlimit:10;stroke-dasharray:3,5,1,5;}
	.st59{clip-path:url(#SVGID_104_);}
	.st60{clip-path:url(#SVGID_106_);}
	.st61{clip-path:url(#SVGID_108_);}
	.st62{clip-path:url(#SVGID_110_);}
	.st63{clip-path:url(#SVGID_112_);}
	.st64{clip-path:url(#SVGID_114_);fill:none;stroke:#000000;stroke-linejoin:round;stroke-miterlimit:10;stroke-dasharray:1,3;}
	.st65{clip-path:url(#SVGID_116_);}
	.st66{clip-path:url(#SVGID_118_);}
	.st67{clip-path:url(#SVGID_120_);}
	.st68{clip-path:url(#SVGID_122_);}
	.st69{clip-path:url(#SVGID_124_);}
	.st70{fill:none;stroke:#262626;stroke-width:1.25;stroke-linecap:square;stroke-miterlimit:10;}
</style>
<g id="figure_1">
	<g id="patch_1">
		<path class="st0" d="M0,900.9h1152V0H0V900.9z"/>
	</g>
	<g id="axes_1">
		<g id="patch_2">
			<path class="st0" d="M144,810.8h892.8V90.1H144V810.8z"/>
		</g>
		<g id="matplotlib.axis_1">
			<g id="xtick_1">
				<g id="line2d_1">
					<g>
						<g>
							<path id="m68b5c221a0" class="st1" d="M144,810.8v6"/>
						</g>
					</g>
				</g>
				<g id="text_1">
					<text transform="matrix(1 0 0 1 123.207 844.4625)" class="st2 st3 st4">−0.5</text>
				</g>
			</g>
			<g id="xtick_2">
				<g id="line2d_2">
					<g>
						<g>
							<path id="m68b5c221a0_1_" class="st1" d="M271.5,810.8v6"/>
						</g>
					</g>
				</g>
				<g id="text_2">
					<text transform="matrix(1 0 0 1 255.4218 844.4625)" class="st2 st3 st4">0.0</text>
				</g>
			</g>
			<g id="xtick_3">
				<g id="line2d_3">
					<g>
						<g>
							<path id="m68b5c221a0_2_" class="st1" d="M399.1,810.8v6"/>
						</g>
					</g>
				</g>
				<g id="text_3">
					<text transform="matrix(1 0 0 1 382.9646 844.4625)" class="st2 st3 st4">0.5</text>
				</g>
			</g>
			<g id="xtick_4">
				<g id="line2d_4">
					<g>
						<g>
							<path id="m68b5c221a0_3_" class="st1" d="M526.6,810.8v6"/>
						</g>
					</g>
				</g>
				<g id="text_4">
					<text transform="matrix(1 0 0 1 510.5075 844.4625)" class="st2 st3 st4">1.0</text>
				</g>
			</g>
			<g id="xtick_5">
				<g id="line2d_5">
					<g>
						<g>
							<path id="m68b5c221a0_4_" class="st1" d="M654.2,810.8v6"/>
						</g>
					</g>
				</g>
				<g id="text_5">
					<text transform="matrix(1 0 0 1 638.0504 844.4625)" class="st2 st3 st4">1.5</text>
				</g>
			</g>
			<g id="xtick_6">
				<g id="line2d_6">
					<g>
						<g>
							<path id="m68b5c221a0_5_" class="st1" d="M781.7,810.8v6"/>
						</g>
					</g>
				</g>
				<g id="text_6">
					<text transform="matrix(1 0 0 1 765.5932 844.4625)" class="st2 st3 st4">2.0</text>
				</g>
			</g>
			<g id="xtick_7">
				<g id="line2d_7">
					<g>
						<g>
							<path id="m68b5c221a0_6_" class="st1" d="M909.3,810.8v6"/>
						</g>
					</g>
				</g>
				<g id="text_7">
					<text transform="matrix(1 0 0 1 893.136 844.4625)" class="st2 st3 st4">2.5</text>
				</g>
			</g>
			<g id="xtick_8">
				<g id="line2d_8">
					<g>
						<g>
							<path id="m68b5c221a0_7_" class="st1" d="M1036.8,810.8v6"/>
						</g>
					</g>
				</g>
				<g id="text_8">
					<text transform="matrix(1 0 0 1 1020.679 844.4625)" class="st2 st3 st4">3.0</text>
				</g>
			</g>
			<g id="text_9">
				<text transform="matrix(1 0 0 1 486.411 880.1081)" class="st2 st3 st5">C</text>
				<text transform="matrix(0.583 0 0 0.583 512.4091 889.0964)" class="st2 st3 st5">w</text>
				<text transform="matrix(1 0 0 1 527.5658 880.1081)" class="st2 st3 st5"> (Bq/mL)</text>
			</g>
		</g>
		<g id="matplotlib.axis_2">
			<g id="ytick_1">
				<g id="line2d_9">
					<g>
						<g>
							<path id="m4bdb59e892" class="st1" d="M144,803.7h-6"/>
						</g>
					</g>
				</g>
				<g id="text_10">
					<text transform="matrix(1 0 0 1 119.6984 807.8104)" class="st2 st3 st4">0</text>
				</g>
			</g>
			<g id="ytick_2">
				<g id="line2d_10">
					<g>
						<g>
							<path id="m4bdb59e892_1_" class="st1" d="M144,661h-6"/>
						</g>
					</g>
				</g>
				<g id="text_11">
					<text transform="matrix(1 0 0 1 79.6555 665.0936)" class="st2 st3 st4">2000</text>
				</g>
			</g>
			<g id="ytick_3">
				<g id="line2d_11">
					<g>
						<g>
							<path id="m4bdb59e892_2_" class="st1" d="M144,518.2h-6"/>
						</g>
					</g>
				</g>
				<g id="text_12">
					<text transform="matrix(1 0 0 1 79.6555 522.3768)" class="st2 st3 st4">4000</text>
				</g>
			</g>
			<g id="ytick_4">
				<g id="line2d_12">
					<g>
						<g>
							<path id="m4bdb59e892_3_" class="st1" d="M144,375.5h-6"/>
						</g>
					</g>
				</g>
				<g id="text_13">
					<text transform="matrix(1 0 0 1 79.6555 379.6599)" class="st2 st3 st4">6000</text>
				</g>
			</g>
			<g id="ytick_5">
				<g id="line2d_13">
					<g>
						<g>
							<path id="m4bdb59e892_4_" class="st1" d="M144,232.8h-6"/>
						</g>
					</g>
				</g>
				<g id="text_14">
					<text transform="matrix(1 0 0 1 79.6555 236.9431)" class="st2 st3 st4">8000</text>
				</g>
			</g>
			<g id="ytick_6">
				<g id="line2d_14">
					<g>
						<g>
							<path id="m4bdb59e892_5_" class="st1" d="M144,90.1h-6"/>
						</g>
					</g>
				</g>
				<g id="text_15">
					<text transform="matrix(1 0 0 1 66.3078 94.2263)" class="st2 st3 st4">10000</text>
				</g>
			</g>
			<g id="text_16">
				<text transform="matrix(6.123234e-017 -1 1 6.123234e-017 55.1078 522.2637)" class="st2 st3 st5">C</text>
				<text transform="matrix(3.569846e-017 -0.583 0.583 3.569846e-017 64.0961 496.2656)" class="st2 st3 st5">s</text>
				<text transform="matrix(6.123234e-017 -1 1 6.123234e-017 55.1078 485.7715)" class="st2 st3 st5"> (Bq/g)</text>
			</g>
		</g>
		<g id="LineCollection_1">
			<g>
				<defs>
					<rect id="SVGID_1_" x="144" y="90.1" width="892.8" height="720.7"/>
				</defs>
				<clipPath id="SVGID_2_">
					<use xlink:href="#SVGID_1_"  style="overflow:visible;"/>
				</clipPath>
				<path class="st6" d="M289.1,807.9h1.4"/>
			</g>
			<g>
				<defs>
					<rect id="SVGID_3_" x="144" y="90.1" width="892.8" height="720.7"/>
				</defs>
				<clipPath id="SVGID_4_">
					<use xlink:href="#SVGID_3_"  style="overflow:visible;"/>
				</clipPath>
				<path class="st7" d="M342.4,807.9h5.5"/>
			</g>
			<g>
				<defs>
					<rect id="SVGID_5_" x="144" y="90.1" width="892.8" height="720.7"/>
				</defs>
				<clipPath id="SVGID_6_">
					<use xlink:href="#SVGID_5_"  style="overflow:visible;"/>
				</clipPath>
				<path class="st8" d="M409.5,810.9h15.1"/>
			</g>
			<g>
				<defs>
					<rect id="SVGID_7_" x="144" y="90.1" width="892.8" height="720.7"/>
				</defs>
				<clipPath id="SVGID_8_">
					<use xlink:href="#SVGID_7_"  style="overflow:visible;"/>
				</clipPath>
				<path class="st9" d="M619.2,813.5h16.3"/>
			</g>
			<g>
				<defs>
					<rect id="SVGID_9_" x="144" y="90.1" width="892.8" height="720.7"/>
				</defs>
				<clipPath id="SVGID_10_">
					<use xlink:href="#SVGID_9_"  style="overflow:visible;"/>
				</clipPath>
				<path class="st10" d="M974,824.4h20"/>
			</g>
		</g>
		<g id="LineCollection_2">
			<g>
				<defs>
					<rect id="SVGID_11_" x="144" y="90.1" width="892.8" height="720.7"/>
				</defs>
				<clipPath id="SVGID_12_">
					<use xlink:href="#SVGID_11_"  style="overflow:visible;"/>
				</clipPath>
				<path class="st11" d="M289.8,808.6v-1.3"/>
			</g>
			<g>
				<defs>
					<rect id="SVGID_13_" x="144" y="90.1" width="892.8" height="720.7"/>
				</defs>
				<clipPath id="SVGID_14_">
					<use xlink:href="#SVGID_13_"  style="overflow:visible;"/>
				</clipPath>
				<path class="st12" d="M345.1,810.5v-5.2"/>
			</g>
			<g>
				<defs>
					<rect id="SVGID_15_" x="144" y="90.1" width="892.8" height="720.7"/>
				</defs>
				<clipPath id="SVGID_16_">
					<use xlink:href="#SVGID_15_"  style="overflow:visible;"/>
				</clipPath>
				<path class="st13" d="M417.1,818v-14.1"/>
			</g>
			<g>
				<defs>
					<rect id="SVGID_17_" x="144" y="90.1" width="892.8" height="720.7"/>
				</defs>
				<clipPath id="SVGID_18_">
					<use xlink:href="#SVGID_17_"  style="overflow:visible;"/>
				</clipPath>
				<path class="st14" d="M627.3,821v-15.1"/>
			</g>
			<g>
				<defs>
					<rect id="SVGID_19_" x="144" y="90.1" width="892.8" height="720.7"/>
				</defs>
				<clipPath id="SVGID_20_">
					<use xlink:href="#SVGID_19_"  style="overflow:visible;"/>
				</clipPath>
				<path class="st15" d="M984,833.8V815"/>
			</g>
		</g>
		<g id="LineCollection_3">
			<g>
				<defs>
					<rect id="SVGID_21_" x="144" y="90.1" width="892.8" height="720.7"/>
				</defs>
				<clipPath id="SVGID_22_">
					<use xlink:href="#SVGID_21_"  style="overflow:visible;"/>
				</clipPath>
				<path class="st16" d="M286.9,805.8h1.4"/>
			</g>
			<g>
				<defs>
					<rect id="SVGID_23_" x="144" y="90.1" width="892.8" height="720.7"/>
				</defs>
				<clipPath id="SVGID_24_">
					<use xlink:href="#SVGID_23_"  style="overflow:visible;"/>
				</clipPath>
				<path class="st17" d="M332,800h9.3"/>
			</g>
			<g>
				<defs>
					<rect id="SVGID_25_" x="144" y="90.1" width="892.8" height="720.7"/>
				</defs>
				<clipPath id="SVGID_26_">
					<use xlink:href="#SVGID_25_"  style="overflow:visible;"/>
				</clipPath>
				<path class="st18" d="M406.3,803.4h5.3"/>
			</g>
			<g>
				<defs>
					<rect id="SVGID_27_" x="144" y="90.1" width="892.8" height="720.7"/>
				</defs>
				<clipPath id="SVGID_28_">
					<use xlink:href="#SVGID_27_"  style="overflow:visible;"/>
				</clipPath>
				<path class="st19" d="M561.8,774.7h46"/>
			</g>
			<g>
				<defs>
					<rect id="SVGID_29_" x="144" y="90.1" width="892.8" height="720.7"/>
				</defs>
				<clipPath id="SVGID_30_">
					<use xlink:href="#SVGID_29_"  style="overflow:visible;"/>
				</clipPath>
				<path class="st20" d="M898,755.4h24"/>
			</g>
		</g>
		<g id="LineCollection_4">
			<g>
				<defs>
					<rect id="SVGID_31_" x="144" y="90.1" width="892.8" height="720.7"/>
				</defs>
				<clipPath id="SVGID_32_">
					<use xlink:href="#SVGID_31_"  style="overflow:visible;"/>
				</clipPath>
				<path class="st21" d="M287.6,806.4v-1.3"/>
			</g>
			<g>
				<defs>
					<rect id="SVGID_33_" x="144" y="90.1" width="892.8" height="720.7"/>
				</defs>
				<clipPath id="SVGID_34_">
					<use xlink:href="#SVGID_33_"  style="overflow:visible;"/>
				</clipPath>
				<path class="st22" d="M336.6,804.4v-8.8"/>
			</g>
			<g>
				<defs>
					<rect id="SVGID_35_" x="144" y="90.1" width="892.8" height="720.7"/>
				</defs>
				<clipPath id="SVGID_36_">
					<use xlink:href="#SVGID_35_"  style="overflow:visible;"/>
				</clipPath>
				<path class="st23" d="M409,805.9v-5"/>
			</g>
			<g>
				<defs>
					<rect id="SVGID_37_" x="144" y="90.1" width="892.8" height="720.7"/>
				</defs>
				<clipPath id="SVGID_38_">
					<use xlink:href="#SVGID_37_"  style="overflow:visible;"/>
				</clipPath>
				<path class="st24" d="M584.8,795.6v-41.7"/>
			</g>
			<g>
				<defs>
					<rect id="SVGID_39_" x="144" y="90.1" width="892.8" height="720.7"/>
				</defs>
				<clipPath id="SVGID_40_">
					<use xlink:href="#SVGID_39_"  style="overflow:visible;"/>
				</clipPath>
				<path class="st25" d="M910,766v-21.2"/>
			</g>
		</g>
		<g id="LineCollection_5">
			<g>
				<defs>
					<rect id="SVGID_41_" x="144" y="90.1" width="892.8" height="720.7"/>
				</defs>
				<clipPath id="SVGID_42_">
					<use xlink:href="#SVGID_41_"  style="overflow:visible;"/>
				</clipPath>
				<path class="st26" d="M284,802.9h1"/>
			</g>
			<g>
				<defs>
					<rect id="SVGID_43_" x="144" y="90.1" width="892.8" height="720.7"/>
				</defs>
				<clipPath id="SVGID_44_">
					<use xlink:href="#SVGID_43_"  style="overflow:visible;"/>
				</clipPath>
				<path class="st27" d="M324.6,791.9h6.7"/>
			</g>
			<g>
				<defs>
					<rect id="SVGID_45_" x="144" y="90.1" width="892.8" height="720.7"/>
				</defs>
				<clipPath id="SVGID_46_">
					<use xlink:href="#SVGID_45_"  style="overflow:visible;"/>
				</clipPath>
				<path class="st28" d="M382.8,786.5H399"/>
			</g>
			<g>
				<defs>
					<rect id="SVGID_47_" x="144" y="90.1" width="892.8" height="720.7"/>
				</defs>
				<clipPath id="SVGID_48_">
					<use xlink:href="#SVGID_47_"  style="overflow:visible;"/>
				</clipPath>
				<path class="st29" d="M546.8,746.5h17.4"/>
			</g>
			<g>
				<defs>
					<rect id="SVGID_49_" x="144" y="90.1" width="892.8" height="720.7"/>
				</defs>
				<clipPath id="SVGID_50_">
					<use xlink:href="#SVGID_49_"  style="overflow:visible;"/>
				</clipPath>
				<path class="st30" d="M848.1,711.1h29.1"/>
			</g>
		</g>
		<g id="LineCollection_6">
			<g>
				<defs>
					<rect id="SVGID_51_" x="144" y="90.1" width="892.8" height="720.7"/>
				</defs>
				<clipPath id="SVGID_52_">
					<use xlink:href="#SVGID_51_"  style="overflow:visible;"/>
				</clipPath>
				<path class="st31" d="M284.5,803.3v-0.9"/>
			</g>
			<g>
				<defs>
					<rect id="SVGID_53_" x="144" y="90.1" width="892.8" height="720.7"/>
				</defs>
				<clipPath id="SVGID_54_">
					<use xlink:href="#SVGID_53_"  style="overflow:visible;"/>
				</clipPath>
				<path class="st32" d="M328,795.1v-6.2"/>
			</g>
			<g>
				<defs>
					<rect id="SVGID_55_" x="144" y="90.1" width="892.8" height="720.7"/>
				</defs>
				<clipPath id="SVGID_56_">
					<use xlink:href="#SVGID_55_"  style="overflow:visible;"/>
				</clipPath>
				<path class="st33" d="M390.9,794v-15.1"/>
			</g>
			<g>
				<defs>
					<rect id="SVGID_57_" x="144" y="90.1" width="892.8" height="720.7"/>
				</defs>
				<clipPath id="SVGID_58_">
					<use xlink:href="#SVGID_57_"  style="overflow:visible;"/>
				</clipPath>
				<path class="st34" d="M555.5,755.1V738"/>
			</g>
			<g>
				<defs>
					<rect id="SVGID_59_" x="144" y="90.1" width="892.8" height="720.7"/>
				</defs>
				<clipPath id="SVGID_60_">
					<use xlink:href="#SVGID_59_"  style="overflow:visible;"/>
				</clipPath>
				<path class="st35" d="M862.6,722.5v-22.9"/>
			</g>
		</g>
		<g id="LineCollection_7">
			<g>
				<defs>
					<rect id="SVGID_61_" x="144" y="90.1" width="892.8" height="720.7"/>
				</defs>
				<clipPath id="SVGID_62_">
					<use xlink:href="#SVGID_61_"  style="overflow:visible;"/>
				</clipPath>
				<path class="st36" d="M277.8,754.2h1.5"/>
			</g>
			<g>
				<defs>
					<rect id="SVGID_63_" x="144" y="90.1" width="892.8" height="720.7"/>
				</defs>
				<clipPath id="SVGID_64_">
					<use xlink:href="#SVGID_63_"  style="overflow:visible;"/>
				</clipPath>
				<path class="st37" d="M285.2,707.8h5"/>
			</g>
			<g>
				<defs>
					<rect id="SVGID_65_" x="144" y="90.1" width="892.8" height="720.7"/>
				</defs>
				<clipPath id="SVGID_66_">
					<use xlink:href="#SVGID_65_"  style="overflow:visible;"/>
				</clipPath>
				<path class="st38" d="M323.6,582.3h19"/>
			</g>
			<g>
				<defs>
					<rect id="SVGID_67_" x="144" y="90.1" width="892.8" height="720.7"/>
				</defs>
				<clipPath id="SVGID_68_">
					<use xlink:href="#SVGID_67_"  style="overflow:visible;"/>
				</clipPath>
				<path class="st39" d="M388.7,361h14.5"/>
			</g>
		</g>
		<g id="LineCollection_8">
			<g>
				<defs>
					<rect id="SVGID_69_" x="144" y="90.1" width="892.8" height="720.7"/>
				</defs>
				<clipPath id="SVGID_70_">
					<use xlink:href="#SVGID_69_"  style="overflow:visible;"/>
				</clipPath>
				<path class="st40" d="M278.6,754.9v-1.5"/>
			</g>
			<g>
				<defs>
					<rect id="SVGID_71_" x="144" y="90.1" width="892.8" height="720.7"/>
				</defs>
				<clipPath id="SVGID_72_">
					<use xlink:href="#SVGID_71_"  style="overflow:visible;"/>
				</clipPath>
				<path class="st41" d="M287.7,710.6v-5.5"/>
			</g>
			<g>
				<defs>
					<rect id="SVGID_73_" x="144" y="90.1" width="892.8" height="720.7"/>
				</defs>
				<clipPath id="SVGID_74_">
					<use xlink:href="#SVGID_73_"  style="overflow:visible;"/>
				</clipPath>
				<path class="st42" d="M333.1,589.5V575"/>
			</g>
			<g>
				<defs>
					<rect id="SVGID_75_" x="144" y="90.1" width="892.8" height="720.7"/>
				</defs>
				<clipPath id="SVGID_76_">
					<use xlink:href="#SVGID_75_"  style="overflow:visible;"/>
				</clipPath>
				<path class="st43" d="M395.9,366.8v-11.5"/>
			</g>
		</g>
		<g id="line2d_15">
			<g>
				<defs>
					<rect id="SVGID_77_" x="144" y="90.1" width="892.8" height="720.7"/>
				</defs>
				<clipPath id="SVGID_78_">
					<use xlink:href="#SVGID_77_"  style="overflow:visible;"/>
				</clipPath>
				<path class="st44" d="M289.8,807.2l55.3,1.3l72,1.7l210.2,5l356.7,8.5"/>
			</g>
		</g>
		<g id="line2d_16">
			<g>
				<defs>
					<rect id="SVGID_79_" x="144" y="90.1" width="892.8" height="720.7"/>
				</defs>
				<clipPath id="SVGID_80_">
					<use xlink:href="#SVGID_79_"  style="overflow:visible;"/>
				</clipPath>
				<g class="st45">
					<g>
						<path id="m47c12e29c4" class="st46" d="M289.1,812.9v-10"/>
					</g>
					<g>
						<path id="m47c12e29c4_1_" class="st46" d="M342.4,812.9v-10"/>
					</g>
					<g>
						<path id="m47c12e29c4_2_" class="st46" d="M409.5,815.9v-10"/>
					</g>
					<g>
						<path id="m47c12e29c4_3_" class="st46" d="M619.2,818.5v-10"/>
					</g>
					<g>
						<path id="m47c12e29c4_4_" class="st46" d="M974,829.4v-10"/>
					</g>
				</g>
			</g>
		</g>
		<g id="line2d_17">
			<g>
				<defs>
					<rect id="SVGID_81_" x="144" y="90.1" width="892.8" height="720.7"/>
				</defs>
				<clipPath id="SVGID_82_">
					<use xlink:href="#SVGID_81_"  style="overflow:visible;"/>
				</clipPath>
				<g class="st47">
					<g>
						<path id="m47c12e29c4_5_" class="st46" d="M290.5,812.9v-10"/>
					</g>
					<g>
						<path id="m47c12e29c4_6_" class="st46" d="M347.9,812.9v-10"/>
					</g>
					<g>
						<path id="m47c12e29c4_7_" class="st46" d="M424.6,815.9v-10"/>
					</g>
					<g>
						<path id="m47c12e29c4_8_" class="st46" d="M635.5,818.5v-10"/>
					</g>
					<g>
						<path id="m47c12e29c4_9_" class="st46" d="M994,829.4v-10"/>
					</g>
				</g>
			</g>
		</g>
		<g id="line2d_18">
			<g>
				<defs>
					<rect id="SVGID_83_" x="144" y="90.1" width="892.8" height="720.7"/>
				</defs>
				<clipPath id="SVGID_84_">
					<use xlink:href="#SVGID_83_"  style="overflow:visible;"/>
				</clipPath>
				<g class="st48">
					<g>
						<path id="m4d3e3b37e1" class="st46" d="M294.8,808.6h-10"/>
					</g>
					<g>
						<path id="m4d3e3b37e1_1_" class="st46" d="M350.1,810.5h-10"/>
					</g>
					<g>
						<path id="m4d3e3b37e1_2_" class="st46" d="M422.1,818h-10"/>
					</g>
					<g>
						<path id="m4d3e3b37e1_3_" class="st46" d="M632.3,821h-10"/>
					</g>
					<g>
						<path id="m4d3e3b37e1_4_" class="st46" d="M989,833.8h-10"/>
					</g>
				</g>
			</g>
		</g>
		<g id="line2d_19">
			<g>
				<defs>
					<rect id="SVGID_85_" x="144" y="90.1" width="892.8" height="720.7"/>
				</defs>
				<clipPath id="SVGID_86_">
					<use xlink:href="#SVGID_85_"  style="overflow:visible;"/>
				</clipPath>
				<g class="st49">
					<g>
						<path id="m4d3e3b37e1_5_" class="st46" d="M294.8,807.3h-10"/>
					</g>
					<g>
						<path id="m4d3e3b37e1_6_" class="st46" d="M350.1,805.3h-10"/>
					</g>
					<g>
						<path id="m4d3e3b37e1_7_" class="st46" d="M422.1,803.9h-10"/>
					</g>
					<g>
						<path id="m4d3e3b37e1_8_" class="st46" d="M632.3,805.9h-10"/>
					</g>
					<g>
						<path id="m4d3e3b37e1_9_" class="st46" d="M989,815h-10"/>
					</g>
				</g>
			</g>
		</g>
		<g id="line2d_20">
			<g>
				<defs>
					<rect id="SVGID_87_" x="144" y="90.1" width="892.8" height="720.7"/>
				</defs>
				<clipPath id="SVGID_88_">
					<use xlink:href="#SVGID_87_"  style="overflow:visible;"/>
				</clipPath>
				<g class="st50">
					<g>
						<path id="m43af51ef7f" class="st46" d="M289.8,817.9c2.7,0,5.2-1.1,7.1-2.9c1.9-1.9,2.9-4.4,2.9-7.1s-1.1-5.2-2.9-7.1
							c-1.9-1.9-4.4-2.9-7.1-2.9s-5.2,1.1-7.1,2.9c-1.9,1.9-2.9,4.4-2.9,7.1s1.1,5.2,2.9,7.1C284.6,816.9,287.2,817.9,289.8,817.9z"
							/>
					</g>
					<g>
						<path id="m43af51ef7f_1_" class="st46" d="M345.1,817.9c2.7,0,5.2-1.1,7.1-2.9c1.9-1.9,2.9-4.4,2.9-7.1s-1.1-5.2-2.9-7.1
							c-1.9-1.9-4.4-2.9-7.1-2.9s-5.2,1.1-7.1,2.9c-1.9,1.9-2.9,4.4-2.9,7.1s1.1,5.2,2.9,7.1C339.9,816.9,342.5,817.9,345.1,817.9z"
							/>
					</g>
					<g>
						<path id="m43af51ef7f_2_" class="st46" d="M417.1,820.9c2.7,0,5.2-1.1,7.1-2.9c1.9-1.9,2.9-4.4,2.9-7.1s-1.1-5.2-2.9-7.1
							c-1.9-1.9-4.4-2.9-7.1-2.9s-5.2,1.1-7.1,2.9c-1.9,1.9-2.9,4.4-2.9,7.1s1.1,5.2,2.9,7.1C411.9,819.9,414.4,820.9,417.1,820.9z"
							/>
					</g>
					<g>
						<path id="m43af51ef7f_3_" class="st46" d="M627.3,823.5c2.7,0,5.2-1.1,7.1-2.9c1.9-1.9,2.9-4.4,2.9-7.1s-1.1-5.2-2.9-7.1
							c-1.9-1.9-4.4-2.9-7.1-2.9s-5.2,1.1-7.1,2.9c-1.9,1.9-2.9,4.4-2.9,7.1s1.1,5.2,2.9,7.1C622.1,822.4,624.7,823.5,627.3,823.5z"
							/>
					</g>
					<g>
						<path id="m43af51ef7f_4_" class="st46" d="M984,834.4c2.7,0,5.2-1.1,7.1-2.9c1.9-1.9,2.9-4.4,2.9-7.1s-1.1-5.2-2.9-7.1
							c-1.9-1.9-4.4-2.9-7.1-2.9s-5.2,1.1-7.1,2.9c-1.9,1.9-2.9,4.4-2.9,7.1s1.1,5.2,2.9,7.1C978.8,833.4,981.4,834.4,984,834.4z"/>
					</g>
				</g>
			</g>
		</g>
		<g id="line2d_21">
			<g>
				<defs>
					<rect id="SVGID_89_" x="144" y="90.1" width="892.8" height="720.7"/>
				</defs>
				<clipPath id="SVGID_90_">
					<use xlink:href="#SVGID_89_"  style="overflow:visible;"/>
				</clipPath>
				<path class="st51" d="M287.6,806.3l49.1-4.2l72.3-6.1l175.9-14.9L910,753.6"/>
			</g>
		</g>
		<g id="line2d_22">
			<g>
				<defs>
					<rect id="SVGID_91_" x="144" y="90.1" width="892.8" height="720.7"/>
				</defs>
				<clipPath id="SVGID_92_">
					<use xlink:href="#SVGID_91_"  style="overflow:visible;"/>
				</clipPath>
				<g class="st52">
					<g>
						<path id="m47c12e29c4_10_" class="st46" d="M286.9,810.8v-10"/>
					</g>
					<g>
						<path id="m47c12e29c4_11_" class="st46" d="M332,805v-10"/>
					</g>
					<g>
						<path id="m47c12e29c4_12_" class="st46" d="M406.3,808.4v-10"/>
					</g>
					<g>
						<path id="m47c12e29c4_13_" class="st46" d="M561.8,779.7v-10"/>
					</g>
					<g>
						<path id="m47c12e29c4_14_" class="st46" d="M898,760.4v-10"/>
					</g>
				</g>
			</g>
		</g>
		<g id="line2d_23">
			<g>
				<defs>
					<rect id="SVGID_93_" x="144" y="90.1" width="892.8" height="720.7"/>
				</defs>
				<clipPath id="SVGID_94_">
					<use xlink:href="#SVGID_93_"  style="overflow:visible;"/>
				</clipPath>
				<g class="st53">
					<g>
						<path id="m47c12e29c4_15_" class="st46" d="M288.3,810.8v-10"/>
					</g>
					<g>
						<path id="m47c12e29c4_16_" class="st46" d="M341.3,805v-10"/>
					</g>
					<g>
						<path id="m47c12e29c4_17_" class="st46" d="M411.7,808.4v-10"/>
					</g>
					<g>
						<path id="m47c12e29c4_18_" class="st46" d="M607.8,779.7v-10"/>
					</g>
					<g>
						<path id="m47c12e29c4_19_" class="st46" d="M922,760.4v-10"/>
					</g>
				</g>
			</g>
		</g>
		<g id="line2d_24">
			<g>
				<defs>
					<rect id="SVGID_95_" x="144" y="90.1" width="892.8" height="720.7"/>
				</defs>
				<clipPath id="SVGID_96_">
					<use xlink:href="#SVGID_95_"  style="overflow:visible;"/>
				</clipPath>
				<g class="st54">
					<g>
						<path id="m4d3e3b37e1_10_" class="st46" d="M292.6,806.4h-10"/>
					</g>
					<g>
						<path id="m4d3e3b37e1_11_" class="st46" d="M341.6,804.4h-10"/>
					</g>
					<g>
						<path id="m4d3e3b37e1_12_" class="st46" d="M414,805.9h-10"/>
					</g>
					<g>
						<path id="m4d3e3b37e1_13_" class="st46" d="M589.8,795.6h-10"/>
					</g>
					<g>
						<path id="m4d3e3b37e1_14_" class="st46" d="M915,766h-10"/>
					</g>
				</g>
			</g>
		</g>
		<g id="line2d_25">
			<g>
				<defs>
					<rect id="SVGID_97_" x="144" y="90.1" width="892.8" height="720.7"/>
				</defs>
				<clipPath id="SVGID_98_">
					<use xlink:href="#SVGID_97_"  style="overflow:visible;"/>
				</clipPath>
				<g class="st55">
					<g>
						<path id="m4d3e3b37e1_15_" class="st46" d="M292.6,805.2h-10"/>
					</g>
					<g>
						<path id="m4d3e3b37e1_16_" class="st46" d="M341.6,795.6h-10"/>
					</g>
					<g>
						<path id="m4d3e3b37e1_17_" class="st46" d="M414,800.9h-10"/>
					</g>
					<g>
						<path id="m4d3e3b37e1_18_" class="st46" d="M589.8,753.9h-10"/>
					</g>
					<g>
						<path id="m4d3e3b37e1_19_" class="st46" d="M915,744.8h-10"/>
					</g>
				</g>
			</g>
		</g>
		<g id="line2d_26">
			<g>
				<defs>
					<rect id="SVGID_99_" x="144" y="90.1" width="892.8" height="720.7"/>
				</defs>
				<clipPath id="SVGID_100_">
					<use xlink:href="#SVGID_99_"  style="overflow:visible;"/>
				</clipPath>
				<g class="st56">
					<g>
						<path id="m25bd9425bb" class="st57" d="M287.6,795.8l-10,20h20L287.6,795.8z"/>
					</g>
					<g>
						<path id="m25bd9425bb_1_" class="st57" d="M336.6,790l-10,20h20L336.6,790z"/>
					</g>
					<g>
						<path id="m25bd9425bb_2_" class="st57" d="M409,793.4l-10,20h20L409,793.4z"/>
					</g>
					<g>
						<path id="m25bd9425bb_3_" class="st57" d="M584.8,764.7l-10,20h20L584.8,764.7z"/>
					</g>
					<g>
						<path id="m25bd9425bb_4_" class="st57" d="M910,745.4l-10,20h20L910,745.4z"/>
					</g>
				</g>
			</g>
		</g>
		<g id="line2d_27">
			<g>
				<defs>
					<rect id="SVGID_101_" x="144" y="90.1" width="892.8" height="720.7"/>
				</defs>
				<clipPath id="SVGID_102_">
					<use xlink:href="#SVGID_101_"  style="overflow:visible;"/>
				</clipPath>
				<path class="st58" d="M284.5,799.8l43.5-7l62.9-10.1l164.6-26.4l307.1-49.3"/>
			</g>
		</g>
		<g id="line2d_28">
			<g>
				<defs>
					<rect id="SVGID_103_" x="144" y="90.1" width="892.8" height="720.7"/>
				</defs>
				<clipPath id="SVGID_104_">
					<use xlink:href="#SVGID_103_"  style="overflow:visible;"/>
				</clipPath>
				<g class="st59">
					<g>
						<path id="m47c12e29c4_20_" class="st46" d="M284,807.9v-10"/>
					</g>
					<g>
						<path id="m47c12e29c4_21_" class="st46" d="M324.6,796.9v-10"/>
					</g>
					<g>
						<path id="m47c12e29c4_22_" class="st46" d="M382.8,791.5v-10"/>
					</g>
					<g>
						<path id="m47c12e29c4_23_" class="st46" d="M546.8,751.5v-10"/>
					</g>
					<g>
						<path id="m47c12e29c4_24_" class="st46" d="M848.1,716.1v-10"/>
					</g>
				</g>
			</g>
		</g>
		<g id="line2d_29">
			<g>
				<defs>
					<rect id="SVGID_105_" x="144" y="90.1" width="892.8" height="720.7"/>
				</defs>
				<clipPath id="SVGID_106_">
					<use xlink:href="#SVGID_105_"  style="overflow:visible;"/>
				</clipPath>
				<g class="st60">
					<g>
						<path id="m47c12e29c4_25_" class="st46" d="M285,807.9v-10"/>
					</g>
					<g>
						<path id="m47c12e29c4_26_" class="st46" d="M331.3,796.9v-10"/>
					</g>
					<g>
						<path id="m47c12e29c4_27_" class="st46" d="M399,791.5v-10"/>
					</g>
					<g>
						<path id="m47c12e29c4_28_" class="st46" d="M564.2,751.5v-10"/>
					</g>
					<g>
						<path id="m47c12e29c4_29_" class="st46" d="M877.1,716.1v-10"/>
					</g>
				</g>
			</g>
		</g>
		<g id="line2d_30">
			<g>
				<defs>
					<rect id="SVGID_107_" x="144" y="90.1" width="892.8" height="720.7"/>
				</defs>
				<clipPath id="SVGID_108_">
					<use xlink:href="#SVGID_107_"  style="overflow:visible;"/>
				</clipPath>
				<g class="st61">
					<g>
						<path id="m4d3e3b37e1_20_" class="st46" d="M289.5,803.3h-10"/>
					</g>
					<g>
						<path id="m4d3e3b37e1_21_" class="st46" d="M333,795.1h-10"/>
					</g>
					<g>
						<path id="m4d3e3b37e1_22_" class="st46" d="M395.9,794h-10"/>
					</g>
					<g>
						<path id="m4d3e3b37e1_23_" class="st46" d="M560.5,755.1h-10"/>
					</g>
					<g>
						<path id="m4d3e3b37e1_24_" class="st46" d="M867.6,722.5h-10"/>
					</g>
				</g>
			</g>
		</g>
		<g id="line2d_31">
			<g>
				<defs>
					<rect id="SVGID_109_" x="144" y="90.1" width="892.8" height="720.7"/>
				</defs>
				<clipPath id="SVGID_110_">
					<use xlink:href="#SVGID_109_"  style="overflow:visible;"/>
				</clipPath>
				<g class="st62">
					<g>
						<path id="m4d3e3b37e1_25_" class="st46" d="M289.5,802.4h-10"/>
					</g>
					<g>
						<path id="m4d3e3b37e1_26_" class="st46" d="M333,788.8h-10"/>
					</g>
					<g>
						<path id="m4d3e3b37e1_27_" class="st46" d="M395.9,778.9h-10"/>
					</g>
					<g>
						<path id="m4d3e3b37e1_28_" class="st46" d="M560.5,738h-10"/>
					</g>
					<g>
						<path id="m4d3e3b37e1_29_" class="st46" d="M867.6,699.6h-10"/>
					</g>
				</g>
			</g>
		</g>
		<g id="line2d_32">
			<g>
				<defs>
					<rect id="SVGID_111_" x="144" y="90.1" width="892.8" height="720.7"/>
				</defs>
				<clipPath id="SVGID_112_">
					<use xlink:href="#SVGID_111_"  style="overflow:visible;"/>
				</clipPath>
				<g class="st63">
					<g>
						<path id="m0471129fb3" class="st57" d="M274.5,812.9h20v-20h-20V812.9z"/>
					</g>
					<g>
						<path id="m0471129fb3_1_" class="st57" d="M318,801.9h20v-20h-20V801.9z"/>
					</g>
					<g>
						<path id="m0471129fb3_2_" class="st57" d="M380.9,796.5h20v-20h-20V796.5z"/>
					</g>
					<g>
						<path id="m0471129fb3_3_" class="st57" d="M545.5,756.5h20v-20h-20V756.5z"/>
					</g>
					<g>
						<path id="m0471129fb3_4_" class="st57" d="M852.6,721.1h20v-20h-20V721.1z"/>
					</g>
				</g>
			</g>
		</g>
		<g id="line2d_33">
			<g>
				<defs>
					<rect id="SVGID_113_" x="144" y="90.1" width="892.8" height="720.7"/>
				</defs>
				<clipPath id="SVGID_114_">
					<use xlink:href="#SVGID_113_"  style="overflow:visible;"/>
				</clipPath>
				<path class="st64" d="M278.6,749.4l9.1-29.9l45.4-148.5l62.9-205.7"/>
			</g>
		</g>
		<g id="line2d_34">
			<g>
				<defs>
					<rect id="SVGID_115_" x="144" y="90.1" width="892.8" height="720.7"/>
				</defs>
				<clipPath id="SVGID_116_">
					<use xlink:href="#SVGID_115_"  style="overflow:visible;"/>
				</clipPath>
				<g class="st65">
					<g>
						<path id="m47c12e29c4_30_" class="st46" d="M277.8,759.2v-10"/>
					</g>
					<g>
						<path id="m47c12e29c4_31_" class="st46" d="M285.2,712.8v-10"/>
					</g>
					<g>
						<path id="m47c12e29c4_32_" class="st46" d="M323.6,587.3v-10"/>
					</g>
					<g>
						<path id="m47c12e29c4_33_" class="st46" d="M388.7,366v-10"/>
					</g>
				</g>
			</g>
		</g>
		<g id="line2d_35">
			<g>
				<defs>
					<rect id="SVGID_117_" x="144" y="90.1" width="892.8" height="720.7"/>
				</defs>
				<clipPath id="SVGID_118_">
					<use xlink:href="#SVGID_117_"  style="overflow:visible;"/>
				</clipPath>
				<g class="st66">
					<g>
						<path id="m47c12e29c4_34_" class="st46" d="M279.3,759.2v-10"/>
					</g>
					<g>
						<path id="m47c12e29c4_35_" class="st46" d="M290.2,712.8v-10"/>
					</g>
					<g>
						<path id="m47c12e29c4_36_" class="st46" d="M342.6,587.3v-10"/>
					</g>
					<g>
						<path id="m47c12e29c4_37_" class="st46" d="M403.2,366v-10"/>
					</g>
				</g>
			</g>
		</g>
		<g id="line2d_36">
			<g>
				<defs>
					<rect id="SVGID_119_" x="144" y="90.1" width="892.8" height="720.7"/>
				</defs>
				<clipPath id="SVGID_120_">
					<use xlink:href="#SVGID_119_"  style="overflow:visible;"/>
				</clipPath>
				<g class="st67">
					<g>
						<path id="m4d3e3b37e1_30_" class="st46" d="M283.6,754.9h-10"/>
					</g>
					<g>
						<path id="m4d3e3b37e1_31_" class="st46" d="M292.7,710.6h-10"/>
					</g>
					<g>
						<path id="m4d3e3b37e1_32_" class="st46" d="M338.1,589.5h-10"/>
					</g>
					<g>
						<path id="m4d3e3b37e1_33_" class="st46" d="M400.9,366.8h-10"/>
					</g>
				</g>
			</g>
		</g>
		<g id="line2d_37">
			<g>
				<defs>
					<rect id="SVGID_121_" x="144" y="90.1" width="892.8" height="720.7"/>
				</defs>
				<clipPath id="SVGID_122_">
					<use xlink:href="#SVGID_121_"  style="overflow:visible;"/>
				</clipPath>
				<g class="st68">
					<g>
						<path id="m4d3e3b37e1_34_" class="st46" d="M283.6,753.5h-10"/>
					</g>
					<g>
						<path id="m4d3e3b37e1_35_" class="st46" d="M292.7,705.1h-10"/>
					</g>
					<g>
						<path id="m4d3e3b37e1_36_" class="st46" d="M338.1,575h-10"/>
					</g>
					<g>
						<path id="m4d3e3b37e1_37_" class="st46" d="M400.9,355.3h-10"/>
					</g>
				</g>
			</g>
		</g>
		<g id="line2d_38">
			<g>
				<defs>
					<rect id="SVGID_123_" x="144" y="90.1" width="892.8" height="720.7"/>
				</defs>
				<clipPath id="SVGID_124_">
					<use xlink:href="#SVGID_123_"  style="overflow:visible;"/>
				</clipPath>
				<g class="st69">
					<g>
						<path id="md8dbcc5d56" class="st57" d="M278.6,744.2l-9.5,6.9l3.6,11.2h11.8l3.6-11.2L278.6,744.2z"/>
					</g>
					<g>
						<path id="md8dbcc5d56_1_" class="st57" d="M287.7,697.8l-9.5,6.9l3.6,11.2h11.8l3.6-11.2L287.7,697.8z"/>
					</g>
					<g>
						<path id="md8dbcc5d56_2_" class="st57" d="M333.1,572.3l-9.5,6.9l3.6,11.2H339l3.6-11.2L333.1,572.3z"/>
					</g>
					<g>
						<path id="md8dbcc5d56_3_" class="st57" d="M395.9,351l-9.5,6.9l3.6,11.2h11.8l3.6-11.2L395.9,351z"/>
					</g>
				</g>
			</g>
		</g>
		<g id="patch_3">
			<path class="st70" d="M144,810.8h892.8"/>
		</g>
		<g id="patch_4">
			<path class="st70" d="M144,810.8V90.1"/>
		</g>
		<g id="legend_1">
			<g id="line2d_39">
			</g>
			<g id="line2d_40">
				<g>
					<g>
						<path id="m43af51ef7f_5_" class="st46" d="M669.9,145c2.7,0,5.2-1.1,7.1-2.9c1.9-1.9,2.9-4.4,2.9-7.1s-1.1-5.2-2.9-7.1
							c-1.9-1.9-4.4-2.9-7.1-2.9s-5.2,1.1-7.1,2.9c-1.9,1.9-2.9,4.4-2.9,7.1s1.1,5.2,2.9,7.1C664.8,143.9,667.3,145,669.9,145z"/>
					</g>
				</g>
			</g>
			<g id="text_17">
				<text transform="matrix(1 0 0 1 698.7471 141.3816)" class="st2 st3 st4">pH: 3 K</text>
				<text transform="matrix(0.583 0 0 0.583 778.7862 146.3738)" class="st2 st3 st4">d</text>
				<text transform="matrix(1 0 0 1 786.5679 141.3816)" class="st2 st3 st4">: -85.10 R</text>
				<text transform="matrix(0.583 0 0 0.583 891.9547 133.3894)" class="st2 st3 st4">2</text>
				<text transform="matrix(1 0 0 1 899.7364 141.3816)" class="st2 st3 st4">: 0.97</text>
			</g>
			<g id="line2d_41">
			</g>
			<g id="line2d_42">
				<g>
					<g>
						<path id="m25bd9425bb_5_" class="st57" d="M669.9,152.7l-10,20h20L669.9,152.7z"/>
					</g>
				</g>
			</g>
			<g id="text_18">
				<text transform="matrix(1 0 0 1 698.7471 169.0619)" class="st2 st3 st4">pH: 5 K</text>
				<text transform="matrix(0.583 0 0 0.583 778.7862 174.0541)" class="st2 st3 st4">d</text>
				<text transform="matrix(1 0 0 1 786.5679 169.0619)" class="st2 st3 st4">: 302.74 R</text>
				<text transform="matrix(0.583 0 0 0.583 897.3101 161.0697)" class="st2 st3 st4">2</text>
				<text transform="matrix(1 0 0 1 905.0919 169.0619)" class="st2 st3 st4">: 0.95</text>
			</g>
			<g id="line2d_43">
			</g>
			<g id="line2d_44">
				<g>
					<g>
						<path id="m0471129fb3_5_" class="st57" d="M659.9,200.3h20v-20h-20V200.3z"/>
					</g>
				</g>
			</g>
			<g id="text_19">
				<text transform="matrix(1 0 0 1 698.7471 196.7418)" class="st2 st3 st4">pH: 7 K</text>
				<text transform="matrix(0.583 0 0 0.583 778.7862 201.7339)" class="st2 st3 st4">d</text>
				<text transform="matrix(1 0 0 1 786.5679 196.7418)" class="st2 st3 st4">: 573.62 R</text>
				<text transform="matrix(0.583 0 0 0.583 897.3101 188.7496)" class="st2 st3 st4">2</text>
				<text transform="matrix(1 0 0 1 905.0919 196.7418)" class="st2 st3 st4">: 0.98</text>
			</g>
			<g id="line2d_45">
			</g>
			<g id="line2d_46">
				<g>
					<g>
						<path id="md8dbcc5d56_4_" class="st57" d="M669.9,209l-9.5,6.9l3.6,11.2h11.8l3.6-11.2L669.9,209z"/>
					</g>
				</g>
			</g>
			<g id="text_20">
				<text transform="matrix(1 0 0 1 698.7471 224.4216)" class="st2 st3 st4">pH: 9 K</text>
				<text transform="matrix(0.583 0 0 0.583 778.7862 229.4138)" class="st2 st3 st4">d</text>
				<text transform="matrix(1 0 0 1 786.5679 224.4216)" class="st2 st3 st4">: 11697.99 R</text>
				<text transform="matrix(0.583 0 0 0.583 924.0054 216.4294)" class="st2 st3 st4">2</text>
				<text transform="matrix(1 0 0 1 931.7872 224.4216)" class="st2 st3 st4">: 1.00</text>
			</g>
		</g>
	</g>
</g>
</svg>
