<?xml version="1.0" encoding="utf-8"?>
<!-- Generator: Adobe Illustrator 20.1.0, SVG Export Plug-In . SVG Version: 6.00 Build 0)  -->
<svg version="1.1" id="Layer_1" xmlns="http://www.w3.org/2000/svg" xmlns:xlink="http://www.w3.org/1999/xlink" x="0px" y="0px"
	 viewBox="0 0 1728 866" style="enable-background:new 0 0 1728 866;" xml:space="preserve">
<style type="text/css">
	.st0{fill:#FFFFFF;}
	.st1{fill:none;stroke:#262626;stroke-width:1.6;stroke-linejoin:round;stroke-miterlimit:10;}
	.st2{fill:#262626;}
	.st3{font-family:'ArialMT';}
	.st4{font-size:16px;}
	.st5{font-size:17.6px;}
	.st6{clip-path:url(#SVGID_2_);fill:none;stroke:#000000;stroke-linejoin:round;stroke-miterlimit:10;}
	.st7{clip-path:url(#SVGID_4_);fill:none;stroke:#000000;stroke-linejoin:round;stroke-miterlimit:10;}
	.st8{clip-path:url(#SVGID_6_);fill:none;stroke:#000000;stroke-linejoin:round;stroke-miterlimit:10;}
	.st9{clip-path:url(#SVGID_8_);fill:none;stroke:#000000;stroke-linejoin:round;stroke-miterlimit:10;}
	.st10{clip-path:url(#SVGID_10_);fill:none;stroke:#000000;stroke-linejoin:round;stroke-miterlimit:10;}
	.st11{clip-path:url(#SVGID_12_);fill:none;stroke:#000000;stroke-linejoin:round;stroke-miterlimit:10;}
	.st12{clip-path:url(#SVGID_14_);fill:none;stroke:#000000;stroke-linejoin:round;stroke-miterlimit:10;}
	.st13{clip-path:url(#SVGID_16_);fill:none;stroke:#000000;stroke-linejoin:round;stroke-miterlimit:10;}
	.st14{clip-path:url(#SVGID_18_);fill:none;stroke:#000000;stroke-linejoin:round;stroke-miterlimit:10;}
	.st15{clip-path:url(#SVGID_20_);fill:none;stroke:#000000;stroke-linejoin:round;stroke-miterlimit:10;}
	.st16{clip-path:url(#SVGID_22_);fill:none;stroke:#000000;stroke-linejoin:round;stroke-miterlimit:10;}
	.st17{clip-path:url(#SVGID_24_);fill:none;stroke:#000000;stroke-linejoin:round;stroke-miterlimit:10;}
	.st18{clip-path:url(#SVGID_26_);fill:none;stroke:#000000;stroke-linejoin:round;stroke-miterlimit:10;}
	.st19{clip-path:url(#SVGID_28_);fill:none;stroke:#000000;stroke-linejoin:round;stroke-miterlimit:10;}
	.st20{clip-path:url(#SVGID_30_);fill:none;stroke:#000000;stroke-linejoin:round;stroke-miterlimit:10;}
	.st21{clip-path:url(#SVGID_32_);fill:none;stroke:#000000;stroke-linejoin:round;stroke-miterlimit:10;}
	.st22{clip-path:url(#SVGID_34_);fill:none;stroke:#000000;stroke-linejoin:round;stroke-miterlimit:10;}
	.st23{clip-path:url(#SVGID_36_);fill:none;stroke:#000000;stroke-linejoin:round;stroke-miterlimit:10;}
	.st24{clip-path:url(#SVGID_38_);fill:none;stroke:#000000;stroke-linejoin:round;stroke-miterlimit:10;}
	.st25{clip-path:url(#SVGID_40_);fill:none;stroke:#000000;stroke-linejoin:round;stroke-miterlimit:10;}
	.st26{clip-path:url(#SVGID_42_);fill:none;stroke:#000000;stroke-linejoin:round;stroke-miterlimit:10;}
	.st27{clip-path:url(#SVGID_44_);fill:none;stroke:#000000;stroke-linejoin:round;stroke-miterlimit:10;}
	.st28{clip-path:url(#SVGID_46_);fill:none;stroke:#000000;stroke-linejoin:round;stroke-miterlimit:10;}
	.st29{clip-path:url(#SVGID_48_);fill:none;stroke:#000000;stroke-linejoin:round;stroke-miterlimit:10;}
	.st30{clip-path:url(#SVGID_50_);fill:none;stroke:#000000;stroke-linejoin:round;stroke-miterlimit:10;}
	.st31{clip-path:url(#SVGID_52_);fill:none;stroke:#000000;stroke-linejoin:round;stroke-miterlimit:10;}
	.st32{clip-path:url(#SVGID_54_);fill:none;stroke:#000000;stroke-linejoin:round;stroke-miterlimit:10;}
	.st33{clip-path:url(#SVGID_56_);fill:none;stroke:#000000;stroke-linejoin:round;stroke-miterlimit:10;}
	.st34{clip-path:url(#SVGID_58_);fill:none;stroke:#000000;stroke-linecap:round;stroke-linejoin:round;stroke-miterlimit:10;}
	.st35{clip-path:url(#SVGID_60_);}
	.st36{fill:none;stroke:#000000;stroke-width:2;stroke-linejoin:round;stroke-miterlimit:10;}
	.st37{clip-path:url(#SVGID_62_);}
	.st38{clip-path:url(#SVGID_64_);}
	.st39{clip-path:url(#SVGID_66_);}
	.st40{clip-path:url(#SVGID_68_);}
	.st41{fill:none;stroke:#000000;stroke-width:2;stroke-miterlimit:10;}
	.st42{clip-path:url(#SVGID_70_);}
	.st43{clip-path:url(#SVGID_72_);}
	.st44{clip-path:url(#SVGID_74_);}
	.st45{clip-path:url(#SVGID_76_);}
	.st46{clip-path:url(#SVGID_78_);}
	.st47{clip-path:url(#SVGID_80_);}
	.st48{clip-path:url(#SVGID_82_);}
	.st49{clip-path:url(#SVGID_84_);}
	.st50{clip-path:url(#SVGID_86_);}
	.st51{clip-path:url(#SVGID_88_);}
	.st52{clip-path:url(#SVGID_90_);}
	.st53{clip-path:url(#SVGID_92_);}
	.st54{clip-path:url(#SVGID_94_);}
	.st55{clip-path:url(#SVGID_96_);}
	.st56{clip-path:url(#SVGID_98_);}
	.st57{fill:none;stroke:#262626;stroke-width:1.25;stroke-linecap:square;stroke-miterlimit:10;}
	.st58{fill:none;stroke:#000000;stroke-linecap:round;stroke-linejoin:round;stroke-miterlimit:10;}
</style>
<g id="figure_1">
	<g id="patch_1">
		<path class="st0" d="M0,866.7h1728V0H0V866.7z"/>
	</g>
	<g id="axes_1">
		<g id="patch_2">
			<path class="st0" d="M216,780h1339.2V86.7H216V780z"/>
		</g>
		<g id="matplotlib.axis_1">
			<g id="xtick_1">
				<g id="line2d_1">
					<g>
						<g>
							<path id="m7f6a8b42f6" class="st1" d="M216,780v6"/>
						</g>
					</g>
				</g>
				<g id="text_1">
					<text transform="matrix(1 0 0 1 211.5508 808.6825)" class="st2 st3 st4">2</text>
				</g>
			</g>
			<g id="xtick_2">
				<g id="line2d_2">
					<g>
						<g>
							<path id="m7f6a8b42f6_1_" class="st1" d="M383.4,780v6"/>
						</g>
					</g>
				</g>
				<g id="text_2">
					<text transform="matrix(1 0 0 1 378.9508 808.6825)" class="st2 st3 st4">3</text>
				</g>
			</g>
			<g id="xtick_3">
				<g id="line2d_3">
					<g>
						<g>
							<path id="m7f6a8b42f6_2_" class="st1" d="M550.8,780v6"/>
						</g>
					</g>
				</g>
				<g id="text_3">
					<text transform="matrix(1 0 0 1 546.3508 808.6825)" class="st2 st3 st4">4</text>
				</g>
			</g>
			<g id="xtick_4">
				<g id="line2d_4">
					<g>
						<g>
							<path id="m7f6a8b42f6_3_" class="st1" d="M718.2,780v6"/>
						</g>
					</g>
				</g>
				<g id="text_4">
					<text transform="matrix(1 0 0 1 713.7508 808.6825)" class="st2 st3 st4">5</text>
				</g>
			</g>
			<g id="xtick_5">
				<g id="line2d_5">
					<g>
						<g>
							<path id="m7f6a8b42f6_4_" class="st1" d="M885.6,780v6"/>
						</g>
					</g>
				</g>
				<g id="text_5">
					<text transform="matrix(1 0 0 1 881.1508 808.6825)" class="st2 st3 st4">6</text>
				</g>
			</g>
			<g id="xtick_6">
				<g id="line2d_6">
					<g>
						<g>
							<path id="m7f6a8b42f6_5_" class="st1" d="M1053,780v6"/>
						</g>
					</g>
				</g>
				<g id="text_6">
					<text transform="matrix(1 0 0 1 1048.5508 808.6825)" class="st2 st3 st4">7</text>
				</g>
			</g>
			<g id="xtick_7">
				<g id="line2d_7">
					<g>
						<g>
							<path id="m7f6a8b42f6_6_" class="st1" d="M1220.4,780v6"/>
						</g>
					</g>
				</g>
				<g id="text_7">
					<text transform="matrix(1 0 0 1 1215.9508 808.6825)" class="st2 st3 st4">8</text>
				</g>
			</g>
			<g id="xtick_8">
				<g id="line2d_8">
					<g>
						<g>
							<path id="m7f6a8b42f6_7_" class="st1" d="M1387.8,780v6"/>
						</g>
					</g>
				</g>
				<g id="text_8">
					<text transform="matrix(1 0 0 1 1383.3508 808.6825)" class="st2 st3 st4">9</text>
				</g>
			</g>
			<g id="xtick_9">
				<g id="line2d_9">
					<g>
						<g>
							<path id="m7f6a8b42f6_8_" class="st1" d="M1555.2,780v6"/>
						</g>
					</g>
				</g>
				<g id="text_9">
					<text transform="matrix(1 0 0 1 1546.3015 808.6825)" class="st2 st3 st4">10</text>
				</g>
			</g>
			<g id="text_10">
				<text transform="matrix(1 0 0 1 874.3508 829.4603)" class="st2 st3 st5">pH</text>
			</g>
		</g>
		<g id="matplotlib.axis_2">
			<g id="ytick_1">
				<g id="line2d_10">
					<g>
						<g>
							<path id="m1e7117c615" class="st1" d="M216,773.2h-6"/>
						</g>
					</g>
				</g>
				<g id="text_11">
					<text transform="matrix(1 0 0 1 176.5578 777.3013)" class="st2 st3 st4">0.0</text>
				</g>
			</g>
			<g id="ytick_2">
				<g id="line2d_11">
					<g>
						<g>
							<path id="m1e7117c615_1_" class="st1" d="M216,635.9h-6"/>
						</g>
					</g>
				</g>
				<g id="text_12">
					<text transform="matrix(1 0 0 1 176.5578 640.0023)" class="st2 st3 st4">0.2</text>
				</g>
			</g>
			<g id="ytick_3">
				<g id="line2d_12">
					<g>
						<g>
							<path id="m1e7117c615_2_" class="st1" d="M216,498.6h-6"/>
						</g>
					</g>
				</g>
				<g id="text_13">
					<text transform="matrix(1 0 0 1 176.5578 502.7033)" class="st2 st3 st4">0.4</text>
				</g>
			</g>
			<g id="ytick_4">
				<g id="line2d_13">
					<g>
						<g>
							<path id="m1e7117c615_3_" class="st1" d="M216,361.3h-6"/>
						</g>
					</g>
				</g>
				<g id="text_14">
					<text transform="matrix(1 0 0 1 176.5578 365.4043)" class="st2 st3 st4">0.6</text>
				</g>
			</g>
			<g id="ytick_5">
				<g id="line2d_14">
					<g>
						<g>
							<path id="m1e7117c615_4_" class="st1" d="M216,224h-6"/>
						</g>
					</g>
				</g>
				<g id="text_15">
					<text transform="matrix(1 0 0 1 176.5578 228.1052)" class="st2 st3 st4">0.8</text>
				</g>
			</g>
			<g id="ytick_6">
				<g id="text_16">
					<text transform="matrix(1 0 0 1 176.5578 90.8062)" class="st2 st3 st4">1.0</text>
				</g>
			</g>
			<g id="text_17">
				<text transform="matrix(6.123234e-17 -1 1 6.123234e-17 168.062 495.9598)" class="st2 st3 st5">Fraction Sorbed</text>
			</g>
		</g>
		<g id="LineCollection_1">
			<g>
				<defs>
					<rect id="SVGID_1_" x="216" y="86.7" width="1339.2" height="693.4"/>
				</defs>
				<clipPath id="SVGID_2_">
					<use xlink:href="#SVGID_1_"  style="overflow:visible;"/>
				</clipPath>
				<path class="st6" d="M383,343h1.9"/>
			</g>
			<g>
				<defs>
					<rect id="SVGID_3_" x="216" y="86.7" width="1339.2" height="693.4"/>
				</defs>
				<clipPath id="SVGID_4_">
					<use xlink:href="#SVGID_3_"  style="overflow:visible;"/>
				</clipPath>
				<path class="st7" d="M716.7,230h1.9"/>
			</g>
		</g>
		<g id="LineCollection_2">
			<g>
				<defs>
					<rect id="SVGID_5_" x="216" y="86.7" width="1339.2" height="693.4"/>
				</defs>
				<clipPath id="SVGID_6_">
					<use xlink:href="#SVGID_5_"  style="overflow:visible;"/>
				</clipPath>
				<path class="st8" d="M384,363.1v-40.2"/>
			</g>
			<g>
				<defs>
					<rect id="SVGID_7_" x="216" y="86.7" width="1339.2" height="693.4"/>
				</defs>
				<clipPath id="SVGID_8_">
					<use xlink:href="#SVGID_7_"  style="overflow:visible;"/>
				</clipPath>
				<path class="st9" d="M717.6,236v-12"/>
			</g>
		</g>
		<g id="LineCollection_3">
			<g>
				<defs>
					<rect id="SVGID_9_" x="216" y="86.7" width="1339.2" height="693.4"/>
				</defs>
				<clipPath id="SVGID_10_">
					<use xlink:href="#SVGID_9_"  style="overflow:visible;"/>
				</clipPath>
				<path class="st10" d="M382.3,330h1.1"/>
			</g>
			<g>
				<defs>
					<rect id="SVGID_11_" x="216" y="86.7" width="1339.2" height="693.4"/>
				</defs>
				<clipPath id="SVGID_12_">
					<use xlink:href="#SVGID_11_"  style="overflow:visible;"/>
				</clipPath>
				<path class="st11" d="M717.2,213.6h5.3"/>
			</g>
			<g>
				<defs>
					<rect id="SVGID_13_" x="216" y="86.7" width="1339.2" height="693.4"/>
				</defs>
				<clipPath id="SVGID_14_">
					<use xlink:href="#SVGID_13_"  style="overflow:visible;"/>
				</clipPath>
				<path class="st12" d="M1051.9,190h2.2"/>
			</g>
			<g>
				<defs>
					<rect id="SVGID_15_" x="216" y="86.7" width="1339.2" height="693.4"/>
				</defs>
				<clipPath id="SVGID_16_">
					<use xlink:href="#SVGID_15_"  style="overflow:visible;"/>
				</clipPath>
				<path class="st13" d="M1385.3,182.1h3.8"/>
			</g>
		</g>
		<g id="LineCollection_4">
			<g>
				<defs>
					<rect id="SVGID_17_" x="216" y="86.7" width="1339.2" height="693.4"/>
				</defs>
				<clipPath id="SVGID_18_">
					<use xlink:href="#SVGID_17_"  style="overflow:visible;"/>
				</clipPath>
				<path class="st14" d="M382.8,342.2v-24.4"/>
			</g>
			<g>
				<defs>
					<rect id="SVGID_19_" x="216" y="86.7" width="1339.2" height="693.4"/>
				</defs>
				<clipPath id="SVGID_20_">
					<use xlink:href="#SVGID_19_"  style="overflow:visible;"/>
				</clipPath>
				<path class="st15" d="M719.9,221.3V206"/>
			</g>
			<g>
				<defs>
					<rect id="SVGID_21_" x="216" y="86.7" width="1339.2" height="693.4"/>
				</defs>
				<clipPath id="SVGID_22_">
					<use xlink:href="#SVGID_21_"  style="overflow:visible;"/>
				</clipPath>
				<path class="st16" d="M1053,197.3v-14.7"/>
			</g>
			<g>
				<defs>
					<rect id="SVGID_23_" x="216" y="86.7" width="1339.2" height="693.4"/>
				</defs>
				<clipPath id="SVGID_24_">
					<use xlink:href="#SVGID_23_"  style="overflow:visible;"/>
				</clipPath>
				<path class="st17" d="M1387.2,184.3v-4.3"/>
			</g>
		</g>
		<g id="LineCollection_5">
			<g>
				<defs>
					<rect id="SVGID_25_" x="216" y="86.7" width="1339.2" height="693.4"/>
				</defs>
				<clipPath id="SVGID_26_">
					<use xlink:href="#SVGID_25_"  style="overflow:visible;"/>
				</clipPath>
				<path class="st18" d="M381.9,312.7h1.9"/>
			</g>
			<g>
				<defs>
					<rect id="SVGID_27_" x="216" y="86.7" width="1339.2" height="693.4"/>
				</defs>
				<clipPath id="SVGID_28_">
					<use xlink:href="#SVGID_27_"  style="overflow:visible;"/>
				</clipPath>
				<path class="st19" d="M716.5,195.3h3.3"/>
			</g>
			<g>
				<defs>
					<rect id="SVGID_29_" x="216" y="86.7" width="1339.2" height="693.4"/>
				</defs>
				<clipPath id="SVGID_30_">
					<use xlink:href="#SVGID_29_"  style="overflow:visible;"/>
				</clipPath>
				<path class="st20" d="M1053,184.5L1053,184.5"/>
			</g>
			<g>
				<defs>
					<rect id="SVGID_31_" x="216" y="86.7" width="1339.2" height="693.4"/>
				</defs>
				<clipPath id="SVGID_32_">
					<use xlink:href="#SVGID_31_"  style="overflow:visible;"/>
				</clipPath>
				<path class="st21" d="M1386.1,161.4L1386.1,161.4"/>
			</g>
		</g>
		<g id="LineCollection_6">
			<g>
				<defs>
					<rect id="SVGID_33_" x="216" y="86.7" width="1339.2" height="693.4"/>
				</defs>
				<clipPath id="SVGID_34_">
					<use xlink:href="#SVGID_33_"  style="overflow:visible;"/>
				</clipPath>
				<path class="st22" d="M382.8,325v-24.5"/>
			</g>
			<g>
				<defs>
					<rect id="SVGID_35_" x="216" y="86.7" width="1339.2" height="693.4"/>
				</defs>
				<clipPath id="SVGID_36_">
					<use xlink:href="#SVGID_35_"  style="overflow:visible;"/>
				</clipPath>
				<path class="st23" d="M718.2,197.3v-4.1"/>
			</g>
			<g>
				<defs>
					<rect id="SVGID_37_" x="216" y="86.7" width="1339.2" height="693.4"/>
				</defs>
				<clipPath id="SVGID_38_">
					<use xlink:href="#SVGID_37_"  style="overflow:visible;"/>
				</clipPath>
				<path class="st24" d="M1053,186.4v-3.9"/>
			</g>
			<g>
				<defs>
					<rect id="SVGID_39_" x="216" y="86.7" width="1339.2" height="693.4"/>
				</defs>
				<clipPath id="SVGID_40_">
					<use xlink:href="#SVGID_39_"  style="overflow:visible;"/>
				</clipPath>
				<path class="st25" d="M1386.1,168v-13.2"/>
			</g>
		</g>
		<g id="LineCollection_7">
			<g>
				<defs>
					<rect id="SVGID_41_" x="216" y="86.7" width="1339.2" height="693.4"/>
				</defs>
				<clipPath id="SVGID_42_">
					<use xlink:href="#SVGID_41_"  style="overflow:visible;"/>
				</clipPath>
				<path class="st26" d="M381.3,316.8h1.9"/>
			</g>
			<g>
				<defs>
					<rect id="SVGID_43_" x="216" y="86.7" width="1339.2" height="693.4"/>
				</defs>
				<clipPath id="SVGID_44_">
					<use xlink:href="#SVGID_43_"  style="overflow:visible;"/>
				</clipPath>
				<path class="st27" d="M718.2,198.8L718.2,198.8"/>
			</g>
			<g>
				<defs>
					<rect id="SVGID_45_" x="216" y="86.7" width="1339.2" height="693.4"/>
				</defs>
				<clipPath id="SVGID_46_">
					<use xlink:href="#SVGID_45_"  style="overflow:visible;"/>
				</clipPath>
				<path class="st28" d="M1052.6,180.8h1.9"/>
			</g>
			<g>
				<defs>
					<rect id="SVGID_47_" x="216" y="86.7" width="1339.2" height="693.4"/>
				</defs>
				<clipPath id="SVGID_48_">
					<use xlink:href="#SVGID_47_"  style="overflow:visible;"/>
				</clipPath>
				<path class="st29" d="M1386.1,174.1L1386.1,174.1"/>
			</g>
		</g>
		<g id="LineCollection_8">
			<g>
				<defs>
					<rect id="SVGID_49_" x="216" y="86.7" width="1339.2" height="693.4"/>
				</defs>
				<clipPath id="SVGID_50_">
					<use xlink:href="#SVGID_49_"  style="overflow:visible;"/>
				</clipPath>
				<path class="st30" d="M382.3,328.6V305"/>
			</g>
			<g>
				<defs>
					<rect id="SVGID_51_" x="216" y="86.7" width="1339.2" height="693.4"/>
				</defs>
				<clipPath id="SVGID_52_">
					<use xlink:href="#SVGID_51_"  style="overflow:visible;"/>
				</clipPath>
				<path class="st31" d="M718.2,203.2v-8.9"/>
			</g>
			<g>
				<defs>
					<rect id="SVGID_53_" x="216" y="86.7" width="1339.2" height="693.4"/>
				</defs>
				<clipPath id="SVGID_54_">
					<use xlink:href="#SVGID_53_"  style="overflow:visible;"/>
				</clipPath>
				<path class="st32" d="M1053.6,192.5V169"/>
			</g>
			<g>
				<defs>
					<rect id="SVGID_55_" x="216" y="86.7" width="1339.2" height="693.4"/>
				</defs>
				<clipPath id="SVGID_56_">
					<use xlink:href="#SVGID_55_"  style="overflow:visible;"/>
				</clipPath>
				<path class="st33" d="M1386.1,178.3v-8.5"/>
			</g>
		</g>
		<g id="line2d_15">
			<g>
				<defs>
					<rect id="SVGID_57_" x="216" y="86.7" width="1339.2" height="693.4"/>
				</defs>
				<clipPath id="SVGID_58_">
					<use xlink:href="#SVGID_57_"  style="overflow:visible;"/>
				</clipPath>
				<path class="st34" d="M216,333.9l16.7-0.4l0,0l0,0l16.7-0.5l0,0l0,0l16.7-0.6l0,0l0,0l16.7-0.7l0,0l0,0l16.7-0.8l0,0l0,0
					l16.7-0.9l0,0l0,0l16.7-1.2l0,0l0,0l16.7-1.4l0,0l0,0l16.7-1.7l0,0l0,0l16.7-2.1l0,0l0,0l16.7-2.5l0,0l0,0l16.7-3l0,0l0,0
					l16.7-3.6l0,0l0,0l16.7-4.2l0,0l0,0l16.7-4.8l0,0l0,0l16.7-5.5l0,0l0,0l16.7-6.1l0,0l0,0l16.7-6.7l0,0l0,0l16.7-7.2l0,0l0,0
					l16.7-7.5l0,0l0,0l16.7-7.7l0,0l0,0l16.7-7.6l0,0l0,0l16.7-7.4l0,0l0,0l16.7-7.1l0,0l0,0l16.7-6.6l0,0l0,0l16.7-6l0,0l0,0
					l16.7-5.3l0,0l0,0l16.7-4.7l0,0l0,0l16.7-4l0,0l0,0l16.7-3.4l0,0l0,0l16.7-2.9l0,0l0,0l16.7-2.4l0,0l0,0l16.7-2l0,0l0,0
					l16.7-1.6l0,0l0,0l16.7-1.4l0,0l0,0l16.7-1.1l0,0l0,0l16.7-0.9l0,0l0,0l16.7-0.8l0,0l0,0l16.7-0.7l0,0l0,0l16.7-0.6l0,0l0,0
					l16.7-0.5l0,0l0,0l16.7-0.5l0,0l0,0l16.7-0.5l0,0l0,0l16.7-0.5l0,0l0,0l16.7-0.6l0,0l0,0l16.7-0.6l0,0l0,0l16.7-0.7l0,0l0,0
					l16.7-0.8l0,0l0,0l16.7-0.9l0,0l0,0l16.7-1.1l0,0l0,0l16.7-1.3l0,0l0,0l16.7-1.4l0,0l0,0l16.7-1.6l0,0l0,0l16.7-1.8l0,0l0,0
					l16.7-1.9l0,0l0,0l16.7-2l0,0l0,0l16.7-2.1l0,0l0,0l16.7-2.1l0,0l0,0l16.7-2l0,0l0,0l16.7-1.9l0,0l0,0l16.7-1.8l0,0l0,0
					l16.7-1.6l0,0l0,0l16.7-1.5l0,0l0,0l16.7-1.3l16.7-1.1l0,0l16.7-0.9l0,0l16.7-0.8l0,0l16.7-0.6l0,0l33.5-0.9l0,0l33.5-0.6l0,0
					l33.5-0.4l0,0l50.2-0.2l0,0l50.2,0l0,0"/>
			</g>
		</g>
		<g id="line2d_16">
			<g>
				<defs>
					<rect id="SVGID_59_" x="216" y="86.7" width="1339.2" height="693.4"/>
				</defs>
				<clipPath id="SVGID_60_">
					<use xlink:href="#SVGID_59_"  style="overflow:visible;"/>
				</clipPath>
				<g class="st35">
					<g>
						<path id="mae1ad8e9e1" class="st36" d="M383,348v-10"/>
					</g>
					<g>
						<path id="mae1ad8e9e1_1_" class="st36" d="M716.7,235v-10"/>
					</g>
				</g>
			</g>
		</g>
		<g id="line2d_17">
			<g>
				<defs>
					<rect id="SVGID_61_" x="216" y="86.7" width="1339.2" height="693.4"/>
				</defs>
				<clipPath id="SVGID_62_">
					<use xlink:href="#SVGID_61_"  style="overflow:visible;"/>
				</clipPath>
				<g class="st37">
					<g>
						<path id="mae1ad8e9e1_2_" class="st36" d="M384.9,348v-10"/>
					</g>
					<g>
						<path id="mae1ad8e9e1_3_" class="st36" d="M718.6,235v-10"/>
					</g>
				</g>
			</g>
		</g>
		<g id="line2d_18">
			<g>
				<defs>
					<rect id="SVGID_63_" x="216" y="86.7" width="1339.2" height="693.4"/>
				</defs>
				<clipPath id="SVGID_64_">
					<use xlink:href="#SVGID_63_"  style="overflow:visible;"/>
				</clipPath>
				<g class="st38">
					<g>
						<path id="mf90ee77cd8" class="st36" d="M389,363.1h-10"/>
					</g>
					<g>
						<path id="mf90ee77cd8_1_" class="st36" d="M722.6,236h-10"/>
					</g>
				</g>
			</g>
		</g>
		<g id="line2d_19">
			<g>
				<defs>
					<rect id="SVGID_65_" x="216" y="86.7" width="1339.2" height="693.4"/>
				</defs>
				<clipPath id="SVGID_66_">
					<use xlink:href="#SVGID_65_"  style="overflow:visible;"/>
				</clipPath>
				<g class="st39">
					<g>
						<path id="mf90ee77cd8_2_" class="st36" d="M389,322.9h-10"/>
					</g>
					<g>
						<path id="mf90ee77cd8_3_" class="st36" d="M722.6,224h-10"/>
					</g>
				</g>
			</g>
		</g>
		<g id="line2d_20">
			<g>
				<defs>
					<rect id="SVGID_67_" x="216" y="86.7" width="1339.2" height="693.4"/>
				</defs>
				<clipPath id="SVGID_68_">
					<use xlink:href="#SVGID_67_"  style="overflow:visible;"/>
				</clipPath>
				<g class="st40">
					<g>
						<path id="m16930186ff" class="st41" d="M384,333l-9.5,6.9l3.6,11.2h11.8l3.6-11.2L384,333z"/>
					</g>
					<g>
						<path id="m16930186ff_1_" class="st41" d="M717.6,220l-9.5,6.9l3.6,11.2h11.8l3.6-11.2L717.6,220z"/>
					</g>
				</g>
			</g>
		</g>
		<g id="line2d_21">
			<g>
				<defs>
					<rect id="SVGID_69_" x="216" y="86.7" width="1339.2" height="693.4"/>
				</defs>
				<clipPath id="SVGID_70_">
					<use xlink:href="#SVGID_69_"  style="overflow:visible;"/>
				</clipPath>
				<g class="st42">
					<g>
						<path id="mae1ad8e9e1_4_" class="st36" d="M382.3,335v-10"/>
					</g>
					<g>
						<path id="mae1ad8e9e1_5_" class="st36" d="M717.2,218.6v-10"/>
					</g>
					<g>
						<path id="mae1ad8e9e1_6_" class="st36" d="M1051.9,195v-10"/>
					</g>
					<g>
						<path id="mae1ad8e9e1_7_" class="st36" d="M1385.3,187.1v-10"/>
					</g>
				</g>
			</g>
		</g>
		<g id="line2d_22">
			<g>
				<defs>
					<rect id="SVGID_71_" x="216" y="86.7" width="1339.2" height="693.4"/>
				</defs>
				<clipPath id="SVGID_72_">
					<use xlink:href="#SVGID_71_"  style="overflow:visible;"/>
				</clipPath>
				<g class="st43">
					<g>
						<path id="mae1ad8e9e1_8_" class="st36" d="M383.4,335v-10"/>
					</g>
					<g>
						<path id="mae1ad8e9e1_9_" class="st36" d="M722.5,218.6v-10"/>
					</g>
					<g>
						<path id="mae1ad8e9e1_10_" class="st36" d="M1054.1,195v-10"/>
					</g>
					<g>
						<path id="mae1ad8e9e1_11_" class="st36" d="M1389.1,187.1v-10"/>
					</g>
				</g>
			</g>
		</g>
		<g id="line2d_23">
			<g>
				<defs>
					<rect id="SVGID_73_" x="216" y="86.7" width="1339.2" height="693.4"/>
				</defs>
				<clipPath id="SVGID_74_">
					<use xlink:href="#SVGID_73_"  style="overflow:visible;"/>
				</clipPath>
				<g class="st44">
					<g>
						<path id="mf90ee77cd8_4_" class="st36" d="M387.8,342.2h-10"/>
					</g>
					<g>
						<path id="mf90ee77cd8_5_" class="st36" d="M724.9,221.3h-10"/>
					</g>
					<g>
						<path id="mf90ee77cd8_6_" class="st36" d="M1058,197.3h-10"/>
					</g>
					<g>
						<path id="mf90ee77cd8_7_" class="st36" d="M1392.2,184.3h-10"/>
					</g>
				</g>
			</g>
		</g>
		<g id="line2d_24">
			<g>
				<defs>
					<rect id="SVGID_75_" x="216" y="86.7" width="1339.2" height="693.4"/>
				</defs>
				<clipPath id="SVGID_76_">
					<use xlink:href="#SVGID_75_"  style="overflow:visible;"/>
				</clipPath>
				<g class="st45">
					<g>
						<path id="mf90ee77cd8_8_" class="st36" d="M387.8,317.8h-10"/>
					</g>
					<g>
						<path id="mf90ee77cd8_9_" class="st36" d="M724.9,206h-10"/>
					</g>
					<g>
						<path id="mf90ee77cd8_10_" class="st36" d="M1058,182.6h-10"/>
					</g>
					<g>
						<path id="mf90ee77cd8_11_" class="st36" d="M1392.2,179.9h-10"/>
					</g>
				</g>
			</g>
		</g>
		<g id="line2d_25">
			<g>
				<defs>
					<rect id="SVGID_77_" x="216" y="86.7" width="1339.2" height="693.4"/>
				</defs>
				<clipPath id="SVGID_78_">
					<use xlink:href="#SVGID_77_"  style="overflow:visible;"/>
				</clipPath>
				<g class="st46">
					<g>
						<path id="ma17d2c2e5f" class="st41" d="M372.8,340h20v-20h-20V340z"/>
					</g>
					<g>
						<path id="ma17d2c2e5f_1_" class="st41" d="M709.9,223.6h20v-20h-20V223.6z"/>
					</g>
					<g>
						<path id="ma17d2c2e5f_2_" class="st41" d="M1043,200h20v-20h-20V200z"/>
					</g>
					<g>
						<path id="ma17d2c2e5f_3_" class="st41" d="M1377.2,192.1h20v-20h-20V192.1z"/>
					</g>
				</g>
			</g>
		</g>
		<g id="line2d_26">
			<g>
				<defs>
					<rect id="SVGID_79_" x="216" y="86.7" width="1339.2" height="693.4"/>
				</defs>
				<clipPath id="SVGID_80_">
					<use xlink:href="#SVGID_79_"  style="overflow:visible;"/>
				</clipPath>
				<g class="st47">
					<g>
						<path id="mae1ad8e9e1_12_" class="st36" d="M381.9,317.7v-10"/>
					</g>
					<g>
						<path id="mae1ad8e9e1_13_" class="st36" d="M716.5,200.3v-10"/>
					</g>
					<g>
						<path id="mae1ad8e9e1_14_" class="st36" d="M1053,189.5v-10"/>
					</g>
					<g>
						<path id="mae1ad8e9e1_15_" class="st36" d="M1386.1,166.4v-10"/>
					</g>
				</g>
			</g>
		</g>
		<g id="line2d_27">
			<g>
				<defs>
					<rect id="SVGID_81_" x="216" y="86.7" width="1339.2" height="693.4"/>
				</defs>
				<clipPath id="SVGID_82_">
					<use xlink:href="#SVGID_81_"  style="overflow:visible;"/>
				</clipPath>
				<g class="st48">
					<g>
						<path id="mae1ad8e9e1_16_" class="st36" d="M383.8,317.7v-10"/>
					</g>
					<g>
						<path id="mae1ad8e9e1_17_" class="st36" d="M719.9,200.3v-10"/>
					</g>
					<g>
						<path id="mae1ad8e9e1_18_" class="st36" d="M1053,189.5v-10"/>
					</g>
					<g>
						<path id="mae1ad8e9e1_19_" class="st36" d="M1386.1,166.4v-10"/>
					</g>
				</g>
			</g>
		</g>
		<g id="line2d_28">
			<g>
				<defs>
					<rect id="SVGID_83_" x="216" y="86.7" width="1339.2" height="693.4"/>
				</defs>
				<clipPath id="SVGID_84_">
					<use xlink:href="#SVGID_83_"  style="overflow:visible;"/>
				</clipPath>
				<g class="st49">
					<g>
						<path id="mf90ee77cd8_12_" class="st36" d="M387.8,325h-10"/>
					</g>
					<g>
						<path id="mf90ee77cd8_13_" class="st36" d="M723.2,197.3h-10"/>
					</g>
					<g>
						<path id="mf90ee77cd8_14_" class="st36" d="M1058,186.4h-10"/>
					</g>
					<g>
						<path id="mf90ee77cd8_15_" class="st36" d="M1391.1,168h-10"/>
					</g>
				</g>
			</g>
		</g>
		<g id="line2d_29">
			<g>
				<defs>
					<rect id="SVGID_85_" x="216" y="86.7" width="1339.2" height="693.4"/>
				</defs>
				<clipPath id="SVGID_86_">
					<use xlink:href="#SVGID_85_"  style="overflow:visible;"/>
				</clipPath>
				<g class="st50">
					<g>
						<path id="mf90ee77cd8_16_" class="st36" d="M387.8,300.5h-10"/>
					</g>
					<g>
						<path id="mf90ee77cd8_17_" class="st36" d="M723.2,193.3h-10"/>
					</g>
					<g>
						<path id="mf90ee77cd8_18_" class="st36" d="M1058,182.6h-10"/>
					</g>
					<g>
						<path id="mf90ee77cd8_19_" class="st36" d="M1391.1,154.8h-10"/>
					</g>
				</g>
			</g>
		</g>
		<g id="line2d_30">
			<g>
				<defs>
					<rect id="SVGID_87_" x="216" y="86.7" width="1339.2" height="693.4"/>
				</defs>
				<clipPath id="SVGID_88_">
					<use xlink:href="#SVGID_87_"  style="overflow:visible;"/>
				</clipPath>
				<g class="st51">
					<g>
						<path id="m2d95f0cd46" class="st41" d="M382.8,302.7l-10,20h20L382.8,302.7z"/>
					</g>
					<g>
						<path id="m2d95f0cd46_1_" class="st41" d="M718.2,185.3l-10,20h20L718.2,185.3z"/>
					</g>
					<g>
						<path id="m2d95f0cd46_2_" class="st41" d="M1053,174.5l-10,20h20L1053,174.5z"/>
					</g>
					<g>
						<path id="m2d95f0cd46_3_" class="st41" d="M1386.1,151.4l-10,20h20L1386.1,151.4z"/>
					</g>
				</g>
			</g>
		</g>
		<g id="line2d_31">
			<g>
				<defs>
					<rect id="SVGID_89_" x="216" y="86.7" width="1339.2" height="693.4"/>
				</defs>
				<clipPath id="SVGID_90_">
					<use xlink:href="#SVGID_89_"  style="overflow:visible;"/>
				</clipPath>
				<g class="st52">
					<g>
						<path id="mae1ad8e9e1_20_" class="st36" d="M381.3,321.8v-10"/>
					</g>
					<g>
						<path id="mae1ad8e9e1_21_" class="st36" d="M718.2,203.8v-10"/>
					</g>
					<g>
						<path id="mae1ad8e9e1_22_" class="st36" d="M1052.6,185.8v-10"/>
					</g>
					<g>
						<path id="mae1ad8e9e1_23_" class="st36" d="M1386.1,179.1v-10"/>
					</g>
				</g>
			</g>
		</g>
		<g id="line2d_32">
			<g>
				<defs>
					<rect id="SVGID_91_" x="216" y="86.7" width="1339.2" height="693.4"/>
				</defs>
				<clipPath id="SVGID_92_">
					<use xlink:href="#SVGID_91_"  style="overflow:visible;"/>
				</clipPath>
				<g class="st53">
					<g>
						<path id="mae1ad8e9e1_24_" class="st36" d="M383.3,321.8v-10"/>
					</g>
					<g>
						<path id="mae1ad8e9e1_25_" class="st36" d="M718.2,203.8v-10"/>
					</g>
					<g>
						<path id="mae1ad8e9e1_26_" class="st36" d="M1054.5,185.8v-10"/>
					</g>
					<g>
						<path id="mae1ad8e9e1_27_" class="st36" d="M1386.1,179.1v-10"/>
					</g>
				</g>
			</g>
		</g>
		<g id="line2d_33">
			<g>
				<defs>
					<rect id="SVGID_93_" x="216" y="86.7" width="1339.2" height="693.4"/>
				</defs>
				<clipPath id="SVGID_94_">
					<use xlink:href="#SVGID_93_"  style="overflow:visible;"/>
				</clipPath>
				<g class="st54">
					<g>
						<path id="mf90ee77cd8_20_" class="st36" d="M387.3,328.6h-10"/>
					</g>
					<g>
						<path id="mf90ee77cd8_21_" class="st36" d="M723.2,203.2h-10"/>
					</g>
					<g>
						<path id="mf90ee77cd8_22_" class="st36" d="M1058.6,192.5h-10"/>
					</g>
					<g>
						<path id="mf90ee77cd8_23_" class="st36" d="M1391.1,178.3h-10"/>
					</g>
				</g>
			</g>
		</g>
		<g id="line2d_34">
			<g>
				<defs>
					<rect id="SVGID_95_" x="216" y="86.7" width="1339.2" height="693.4"/>
				</defs>
				<clipPath id="SVGID_96_">
					<use xlink:href="#SVGID_95_"  style="overflow:visible;"/>
				</clipPath>
				<g class="st55">
					<g>
						<path id="mf90ee77cd8_24_" class="st36" d="M387.3,305h-10"/>
					</g>
					<g>
						<path id="mf90ee77cd8_25_" class="st36" d="M723.2,194.3h-10"/>
					</g>
					<g>
						<path id="mf90ee77cd8_26_" class="st36" d="M1058.6,169h-10"/>
					</g>
					<g>
						<path id="mf90ee77cd8_27_" class="st36" d="M1391.1,169.9h-10"/>
					</g>
				</g>
			</g>
		</g>
		<g id="line2d_35">
			<g>
				<defs>
					<rect id="SVGID_97_" x="216" y="86.7" width="1339.2" height="693.4"/>
				</defs>
				<clipPath id="SVGID_98_">
					<use xlink:href="#SVGID_97_"  style="overflow:visible;"/>
				</clipPath>
				<g class="st56">
					<g>
						<path id="mb385f391b1" class="st36" d="M382.3,326.8c2.7,0,5.2-1.1,7.1-2.9c1.9-1.9,2.9-4.4,2.9-7.1c0-2.7-1.1-5.2-2.9-7.1
							s-4.4-2.9-7.1-2.9s-5.2,1.1-7.1,2.9s-2.9,4.4-2.9,7.1c0,2.7,1.1,5.2,2.9,7.1C377.1,325.8,379.6,326.8,382.3,326.8z"/>
					</g>
					<g>
						<path id="mb385f391b1_1_" class="st36" d="M718.2,208.8c2.7,0,5.2-1.1,7.1-2.9c1.9-1.9,2.9-4.4,2.9-7.1c0-2.7-1.1-5.2-2.9-7.1
							c-1.9-1.9-4.4-2.9-7.1-2.9s-5.2,1.1-7.1,2.9c-1.9,1.9-2.9,4.4-2.9,7.1c0,2.7,1.1,5.2,2.9,7.1
							C713,207.7,715.5,208.8,718.2,208.8z"/>
					</g>
					<g>
						<path id="mb385f391b1_2_" class="st36" d="M1053.6,190.8c2.7,0,5.2-1.1,7.1-2.9c1.9-1.9,2.9-4.4,2.9-7.1
							c0-2.7-1.1-5.2-2.9-7.1c-1.9-1.9-4.4-2.9-7.1-2.9s-5.2,1.1-7.1,2.9c-1.9,1.9-2.9,4.4-2.9,7.1c0,2.7,1.1,5.2,2.9,7.1
							C1048.4,189.7,1050.9,190.8,1053.6,190.8z"/>
					</g>
					<g>
						<path id="mb385f391b1_3_" class="st36" d="M1386.1,184.1c2.7,0,5.2-1.1,7.1-2.9c1.9-1.9,2.9-4.4,2.9-7.1
							c0-2.7-1.1-5.2-2.9-7.1c-1.9-1.9-4.4-2.9-7.1-2.9s-5.2,1.1-7.1,2.9c-1.9,1.9-2.9,4.4-2.9,7.1c0,2.7,1.1,5.2,2.9,7.1
							C1380.9,183,1383.5,184.1,1386.1,184.1z"/>
					</g>
				</g>
			</g>
		</g>
		<g id="patch_3">
			<path class="st57" d="M216,780h1339.2"/>
		</g>
		<g id="patch_4">
			<path class="st57" d="M216,780V86.7"/>
		</g>
		<g id="text_18">
		</g>
		<g id="legend_1">
			<g id="line2d_36">
				<path class="st58" d="M230.4,106.9h32"/>
			</g>
			<g id="line2d_37">
			</g>
			<g id="text_19">
				<text transform="matrix(1 0 0 1 275.2 112.5225)" class="st2 st3 st4">1 site 1 rxn, K1: 9.8 K2:10.1 1e-10 mol</text>
			</g>
			<g id="line2d_38">
			</g>
			<g id="line2d_39">
				<g>
					<g>
						<path id="m16930186ff_2_" class="st41" d="M246.4,119.6l-9.5,6.9l3.6,11.2h11.8l3.6-11.2L246.4,119.6z"/>
					</g>
				</g>
			</g>
			<g id="text_20">
				<text transform="matrix(1 0 0 1 275.2 135.2025)" class="st2 st3 st4">Experimental Data 50 Bq Total</text>
			</g>
			<g id="line2d_40">
			</g>
			<g id="line2d_41">
				<g>
					<g>
						<path id="ma17d2c2e5f_4_" class="st41" d="M236.4,162.3h20v-20h-20V162.3z"/>
					</g>
				</g>
			</g>
			<g id="text_21">
				<text transform="matrix(1 0 0 1 275.2 157.8825)" class="st2 st3 st4">Experimental Data 100 Bq Total</text>
			</g>
			<g id="line2d_42">
			</g>
			<g id="line2d_43">
				<g>
					<g>
						<path id="m2d95f0cd46_4_" class="st41" d="M246.4,165l-10,20h20L246.4,165z"/>
					</g>
				</g>
			</g>
			<g id="text_22">
				<text transform="matrix(1 0 0 1 275.2 180.5625)" class="st2 st3 st4">Experimental Data 250 Bq Total</text>
			</g>
			<g id="line2d_44">
			</g>
			<g id="line2d_45">
				<g>
					<g>
						<path id="mb385f391b1_4_" class="st36" d="M246.4,207.6c2.7,0,5.2-1.1,7.1-2.9c1.9-1.9,2.9-4.4,2.9-7.1c0-2.7-1.1-5.2-2.9-7.1
							c-1.9-1.9-4.4-2.9-7.1-2.9s-5.2,1.1-7.1,2.9c-1.9,1.9-2.9,4.4-2.9,7.1c0,2.7,1.1,5.2,2.9,7.1
							C241.2,206.6,243.7,207.6,246.4,207.6z"/>
					</g>
				</g>
			</g>
			<g id="text_23">
				<text transform="matrix(1 0 0 1 275.2 203.2425)" class="st2 st3 st4">Experimental Data 500 Bq Total</text>
			</g>
		</g>
	</g>
</g>
</svg>
