<?xml version="1.0" encoding="utf-8"?>
<!-- Generator: Adobe Illustrator 20.1.0, SVG Export Plug-In . SVG Version: 6.00 Build 0)  -->
<svg version="1.1" id="Layer_1" xmlns="http://www.w3.org/2000/svg" xmlns:xlink="http://www.w3.org/1999/xlink" x="0px" y="0px"
	 viewBox="0 0 1728 935.4" style="enable-background:new 0 0 1728 935.4;" xml:space="preserve">
<style type="text/css">
	.st0{fill:#FFFFFF;}
	.st1{fill:none;stroke:#262626;stroke-width:1.6;stroke-linejoin:round;stroke-miterlimit:10;}
	.st2{fill:#262626;}
	.st3{font-family:'ArialMT';}
	.st4{font-size:36px;}
	
		.st5{clip-path:url(#SVGID_2_);fill:none;stroke:#000000;stroke-width:4;stroke-linecap:round;stroke-linejoin:round;stroke-miterlimit:10;}
	.st6{clip-path:url(#SVGID_4_);fill:none;stroke:#000000;stroke-linejoin:round;stroke-miterlimit:10;}
	.st7{clip-path:url(#SVGID_6_);fill:none;stroke:#000000;stroke-linejoin:round;stroke-miterlimit:10;}
	.st8{clip-path:url(#SVGID_8_);fill:none;stroke:#000000;stroke-linejoin:round;stroke-miterlimit:10;}
	.st9{clip-path:url(#SVGID_10_);fill:none;stroke:#000000;stroke-linejoin:round;stroke-miterlimit:10;}
	.st10{clip-path:url(#SVGID_12_);fill:none;stroke:#000000;stroke-linejoin:round;stroke-miterlimit:10;}
	.st11{clip-path:url(#SVGID_14_);fill:none;stroke:#000000;stroke-linejoin:round;stroke-miterlimit:10;}
	.st12{clip-path:url(#SVGID_16_);}
	.st13{fill:none;stroke:#000000;stroke-width:2;stroke-linejoin:round;stroke-miterlimit:10;}
	.st14{clip-path:url(#SVGID_18_);}
	.st15{clip-path:url(#SVGID_20_);}
	.st16{clip-path:url(#SVGID_22_);}
	.st17{clip-path:url(#SVGID_24_);}
	.st18{fill:none;stroke:#000000;stroke-width:2;stroke-miterlimit:10;}
	.st19{clip-path:url(#SVGID_26_);fill:none;stroke:#000000;stroke-linejoin:round;stroke-miterlimit:10;}
	.st20{clip-path:url(#SVGID_28_);fill:none;stroke:#000000;stroke-linejoin:round;stroke-miterlimit:10;}
	.st21{clip-path:url(#SVGID_30_);fill:none;stroke:#000000;stroke-linejoin:round;stroke-miterlimit:10;}
	.st22{clip-path:url(#SVGID_32_);fill:none;stroke:#000000;stroke-linejoin:round;stroke-miterlimit:10;}
	.st23{clip-path:url(#SVGID_34_);fill:none;stroke:#000000;stroke-linejoin:round;stroke-miterlimit:10;}
	.st24{clip-path:url(#SVGID_36_);fill:none;stroke:#000000;stroke-linejoin:round;stroke-miterlimit:10;}
	.st25{clip-path:url(#SVGID_38_);fill:none;stroke:#000000;stroke-linejoin:round;stroke-miterlimit:10;}
	.st26{clip-path:url(#SVGID_40_);fill:none;stroke:#000000;stroke-linejoin:round;stroke-miterlimit:10;}
	.st27{clip-path:url(#SVGID_42_);}
	.st28{clip-path:url(#SVGID_44_);}
	.st29{clip-path:url(#SVGID_46_);}
	.st30{clip-path:url(#SVGID_48_);}
	.st31{clip-path:url(#SVGID_50_);}
	.st32{clip-path:url(#SVGID_52_);fill:none;stroke:#000000;stroke-linejoin:round;stroke-miterlimit:10;}
	.st33{clip-path:url(#SVGID_54_);fill:none;stroke:#000000;stroke-linejoin:round;stroke-miterlimit:10;}
	.st34{clip-path:url(#SVGID_56_);fill:none;stroke:#000000;stroke-linejoin:round;stroke-miterlimit:10;}
	.st35{clip-path:url(#SVGID_58_);fill:none;stroke:#000000;stroke-linejoin:round;stroke-miterlimit:10;}
	.st36{clip-path:url(#SVGID_60_);fill:none;stroke:#000000;stroke-linejoin:round;stroke-miterlimit:10;}
	.st37{clip-path:url(#SVGID_62_);fill:none;stroke:#000000;stroke-linejoin:round;stroke-miterlimit:10;}
	.st38{clip-path:url(#SVGID_64_);fill:none;stroke:#000000;stroke-linejoin:round;stroke-miterlimit:10;}
	.st39{clip-path:url(#SVGID_66_);fill:none;stroke:#000000;stroke-linejoin:round;stroke-miterlimit:10;}
	.st40{clip-path:url(#SVGID_68_);}
	.st41{clip-path:url(#SVGID_70_);}
	.st42{clip-path:url(#SVGID_72_);}
	.st43{clip-path:url(#SVGID_74_);}
	.st44{clip-path:url(#SVGID_76_);}
	.st45{clip-path:url(#SVGID_78_);fill:none;stroke:#000000;stroke-linejoin:round;stroke-miterlimit:10;}
	.st46{clip-path:url(#SVGID_80_);fill:none;stroke:#000000;stroke-linejoin:round;stroke-miterlimit:10;}
	.st47{clip-path:url(#SVGID_82_);fill:none;stroke:#000000;stroke-linejoin:round;stroke-miterlimit:10;}
	.st48{clip-path:url(#SVGID_84_);fill:none;stroke:#000000;stroke-linejoin:round;stroke-miterlimit:10;}
	.st49{clip-path:url(#SVGID_86_);fill:none;stroke:#000000;stroke-linejoin:round;stroke-miterlimit:10;}
	.st50{clip-path:url(#SVGID_88_);fill:none;stroke:#000000;stroke-linejoin:round;stroke-miterlimit:10;}
	.st51{clip-path:url(#SVGID_90_);fill:none;stroke:#000000;stroke-linejoin:round;stroke-miterlimit:10;}
	.st52{clip-path:url(#SVGID_92_);fill:none;stroke:#000000;stroke-linejoin:round;stroke-miterlimit:10;}
	.st53{clip-path:url(#SVGID_94_);}
	.st54{clip-path:url(#SVGID_96_);}
	.st55{clip-path:url(#SVGID_98_);}
	.st56{clip-path:url(#SVGID_100_);}
	.st57{clip-path:url(#SVGID_102_);}
	.st58{fill:none;stroke:#262626;stroke-width:1.25;stroke-linecap:square;stroke-miterlimit:10;}
	.st59{fill:none;stroke:#000000;stroke-width:4;stroke-linecap:round;stroke-linejoin:round;stroke-miterlimit:10;}
</style>
<g id="figure_1">
	<g id="patch_1">
		<path class="st0" d="M0,901.4h1728V34.7H0V901.4z"/>
	</g>
	<g id="axes_1">
		<g id="patch_2">
			<path class="st0" d="M216,814.7h1339.2V121.4H216V814.7z"/>
		</g>
		<g id="matplotlib.axis_1">
			<g id="xtick_1">
				<g id="line2d_1">
					<g>
						<g>
							<path id="md59df1280e" class="st1" d="M216,814.7v6"/>
						</g>
					</g>
				</g>
				<g id="text_1">
					<text transform="matrix(1 0 0 1 208.7161 857.5722)" class="st2 st3 st4">2</text>
				</g>
			</g>
			<g id="xtick_2">
				<g id="line2d_2">
					<g>
						<g>
							<path id="md59df1280e_1_" class="st1" d="M383.4,814.7v6"/>
						</g>
					</g>
				</g>
				<g id="text_2">
					<text transform="matrix(1 0 0 1 376.1161 857.5722)" class="st2 st3 st4">3</text>
				</g>
			</g>
			<g id="xtick_3">
				<g id="line2d_3">
					<g>
						<g>
							<path id="md59df1280e_2_" class="st1" d="M550.8,814.7v6"/>
						</g>
					</g>
				</g>
				<g id="text_3">
					<text transform="matrix(1 0 0 1 543.5161 857.5722)" class="st2 st3 st4">4</text>
				</g>
			</g>
			<g id="xtick_4">
				<g id="line2d_4">
					<g>
						<g>
							<path id="md59df1280e_3_" class="st1" d="M718.2,814.7v6"/>
						</g>
					</g>
				</g>
				<g id="text_4">
					<text transform="matrix(1 0 0 1 710.9161 857.5722)" class="st2 st3 st4">5</text>
				</g>
			</g>
			<g id="xtick_5">
				<g id="line2d_5">
					<g>
						<g>
							<path id="md59df1280e_4_" class="st1" d="M885.6,814.7v6"/>
						</g>
					</g>
				</g>
				<g id="text_5">
					<text transform="matrix(1 0 0 1 878.3161 857.5722)" class="st2 st3 st4">6</text>
				</g>
			</g>
			<g id="xtick_6">
				<g id="line2d_6">
					<g>
						<g>
							<path id="md59df1280e_5_" class="st1" d="M1053,814.7v6"/>
						</g>
					</g>
				</g>
				<g id="text_6">
					<text transform="matrix(1 0 0 1 1045.7161 857.5722)" class="st2 st3 st4">7</text>
				</g>
			</g>
			<g id="xtick_7">
				<g id="line2d_7">
					<g>
						<g>
							<path id="md59df1280e_6_" class="st1" d="M1220.4,814.7v6"/>
						</g>
					</g>
				</g>
				<g id="text_7">
					<text transform="matrix(1 0 0 1 1213.1162 857.5722)" class="st2 st3 st4">8</text>
				</g>
			</g>
			<g id="xtick_8">
				<g id="line2d_8">
					<g>
						<g>
							<path id="md59df1280e_7_" class="st1" d="M1387.8,814.7v6"/>
						</g>
					</g>
				</g>
				<g id="text_8">
					<text transform="matrix(1 0 0 1 1380.5161 857.5722)" class="st2 st3 st4">9</text>
				</g>
			</g>
			<g id="xtick_9">
				<g id="line2d_9">
					<g>
						<g>
							<path id="md59df1280e_8_" class="st1" d="M1555.2,814.7v6"/>
						</g>
					</g>
				</g>
				<g id="text_9">
					<text transform="matrix(1 0 0 1 1543.4668 857.5722)" class="st2 st3 st4">10</text>
				</g>
			</g>
			<g id="text_10">
				<text transform="matrix(1 0 0 1 865.8469 889.6885)" class="st2 st3 st4">pH</text>
			</g>
		</g>
		<g id="matplotlib.axis_2">
			<g id="ytick_1">
				<g id="line2d_10">
					<g>
						<g>
							<path id="mf2b1119565" class="st1" d="M216,807.9h-6"/>
						</g>
					</g>
				</g>
				<g id="text_11">
					<text transform="matrix(1 0 0 1 151.0459 817.6871)" class="st2 st3 st4">0.0</text>
				</g>
			</g>
			<g id="ytick_2">
				<g id="line2d_11">
					<g>
						<g>
							<path id="mf2b1119565_1_" class="st1" d="M216,670.6h-6"/>
						</g>
					</g>
				</g>
				<g id="text_12">
					<text transform="matrix(1 0 0 1 151.0459 680.3881)" class="st2 st3 st4">0.2</text>
				</g>
			</g>
			<g id="ytick_3">
				<g id="line2d_12">
					<g>
						<g>
							<path id="mf2b1119565_2_" class="st1" d="M216,533.3h-6"/>
						</g>
					</g>
				</g>
				<g id="text_13">
					<text transform="matrix(1 0 0 1 151.0459 543.0891)" class="st2 st3 st4">0.4</text>
				</g>
			</g>
			<g id="ytick_4">
				<g id="line2d_13">
					<g>
						<g>
							<path id="mf2b1119565_3_" class="st1" d="M216,396h-6"/>
						</g>
					</g>
				</g>
				<g id="text_14">
					<text transform="matrix(1 0 0 1 151.0459 405.7901)" class="st2 st3 st4">0.6</text>
				</g>
			</g>
			<g id="ytick_5">
				<g id="line2d_14">
					<g>
						<g>
							<path id="mf2b1119565_4_" class="st1" d="M216,258.7h-6"/>
						</g>
					</g>
				</g>
				<g id="text_15">
					<text transform="matrix(1 0 0 1 151.0459 268.4911)" class="st2 st3 st4">0.8</text>
				</g>
			</g>
			<g id="ytick_6">
				<g id="text_16">
					<text transform="matrix(1 0 0 1 151.0459 131.192)" class="st2 st3 st4">1.0</text>
				</g>
			</g>
			<g id="text_17">
				<text transform="matrix(6.123234e-17 -1 1 6.123234e-17 125.5422 561.8609)" class="st2 st3 st4">Fraction Sorbed</text>
			</g>
		</g>
		<g id="Line_Fit">
			<g>
				<defs>
					<rect id="SVGID_1_" x="216" y="121.4" width="1339.2" height="693.4"/>
				</defs>
				<clipPath id="SVGID_2_">
					<use xlink:href="#SVGID_1_"  style="overflow:visible;"/>
				</clipPath>
				<path class="st5" d="M216,808.3h16.7l0,0l0,0l16.7,0l0,0l0,0l16.7,0l0,0l0,0l16.7,0l0,0l0,0l16.7,0l0,0l0,0l16.7,0l0,0l0,0
					l16.7,0l0,0l0,0l16.7,0l0,0l0,0l16.7,0l0,0l0,0l16.7,0l0,0l0,0l16.7,0l0,0l0,0l16.7,0l0,0l0,0l16.7,0l0,0l0,0l16.7,0l0,0l0,0
					l16.7,0l0,0l0,0l16.7,0l0,0l0,0l16.7,0l0,0l0,0l16.7,0l0,0l0,0l16.7,0l0,0l0,0l16.7,0l0,0l0,0l16.7,0l0,0l0,0l16.7,0l0,0l0,0
					l16.7,0l0,0l0,0l16.7,0l0,0l0,0l16.7,0l0,0l0,0l16.7,0l0,0l0,0l16.7,0l0,0l0,0l16.7-0.1l0,0l0,0l16.7-0.1l0,0l0,0l16.7-0.1l0,0
					l0,0l16.7-0.2l0,0l0,0l16.7-0.2l0,0l0,0l16.7-0.3l0,0l0,0l16.7-0.5l0,0l0,0l16.7-0.7l0,0l0,0l16.7-1l0,0l0,0l16.7-1.4l0,0l0,0
					l16.7-2.1l0,0l0,0l16.7-3l0,0l0,0l16.7-4.4l0,0l0,0l16.7-6.5l0,0l0,0l16.7-9.4l0,0l0,0l16.7-13.5l0,0l0,0l16.7-19.3l0,0l0,0
					l16.7-26.9l0,0l0,0l16.7-36.5l0,0l0,0l16.7-47.6l0,0l0,0l16.7-58.7l0,0l0,0l16.7-67.5l0,0l0,0l16.7-71.7l0,0l0,0l16.7-69.7l0,0
					l0,0l16.7-62.3l0,0l0,0l16.7-51.4l0,0l0,0l16.7-39.8l0,0l0,0l16.7-29.2l0,0l0,0l16.7-20.6l0,0l0,0l16.7-14.2l0,0l0,0l16.7-9.5
					l0,0l0,0l16.7-6.3l0,0l0,0l16.7-4.2l0,0l0,0l16.7-2.7l0,0l0,0l16.7-1.8l0,0l0,0l16.7-1.1l0,0l0,0l16.7-0.7l0,0l0,0l16.7-0.5l0,0
					l0,0l16.7-0.3l0,0l0,0l16.7-0.2l0,0l0,0l16.7-0.1l0,0l0,0l16.7-0.1l0,0l0,0l16.7-0.1l0,0l0,0l16.7,0l0,0l0,0l16.7,0l0,0l0,0
					l16.7,0l0,0l0,0l16.7,0l0,0l0,0l100.4,0l0,0"/>
			</g>
		</g>
		<g id="_x31_0_Bq_Error_Bars">
			<g id="LineCollection_1">
				<g>
					<defs>
						<rect id="SVGID_3_" x="216" y="121.4" width="1339.2" height="693.4"/>
					</defs>
					<clipPath id="SVGID_4_">
						<use xlink:href="#SVGID_3_"  style="overflow:visible;"/>
					</clipPath>
					<path class="st6" d="M390.3,1086.5"/>
				</g>
				<g>
					<defs>
						<rect id="SVGID_5_" x="216" y="121.4" width="1339.2" height="693.4"/>
					</defs>
					<clipPath id="SVGID_6_">
						<use xlink:href="#SVGID_5_"  style="overflow:visible;"/>
					</clipPath>
					<path class="st7" d="M718.2,787.2L718.2,787.2"/>
				</g>
				<g>
					<defs>
						<rect id="SVGID_7_" x="216" y="121.4" width="1339.2" height="693.4"/>
					</defs>
					<clipPath id="SVGID_8_">
						<use xlink:href="#SVGID_7_"  style="overflow:visible;"/>
					</clipPath>
					<path class="st8" d="M1037,524.3h9.7"/>
				</g>
			</g>
			<g id="LineCollection_2">
				<g>
					<defs>
						<rect id="SVGID_9_" x="216" y="121.4" width="1339.2" height="693.4"/>
					</defs>
					<clipPath id="SVGID_10_">
						<use xlink:href="#SVGID_9_"  style="overflow:visible;"/>
					</clipPath>
					<path class="st9" d="M395.7,902.4V869"/>
				</g>
				<g>
					<defs>
						<rect id="SVGID_11_" x="216" y="121.4" width="1339.2" height="693.4"/>
					</defs>
					<clipPath id="SVGID_12_">
						<use xlink:href="#SVGID_11_"  style="overflow:visible;"/>
					</clipPath>
					<path class="st10" d="M718.2,859.7v-145"/>
				</g>
				<g>
					<defs>
						<rect id="SVGID_13_" x="216" y="121.4" width="1339.2" height="693.4"/>
					</defs>
					<clipPath id="SVGID_14_">
						<use xlink:href="#SVGID_13_"  style="overflow:visible;"/>
					</clipPath>
					<path class="st11" d="M1041.8,561.5v-74.4"/>
				</g>
			</g>
			<g id="line2d_16">
				<g>
					<defs>
						<rect id="SVGID_15_" x="216" y="121.4" width="1339.2" height="693.4"/>
					</defs>
					<clipPath id="SVGID_16_">
						<use xlink:href="#SVGID_15_"  style="overflow:visible;"/>
					</clipPath>
					<g class="st12">
						<g>
							<path id="m86a875cebe" class="st13" d="M390.3,1091.5v-10"/>
						</g>
						<g>
							<path id="m86a875cebe_1_" class="st13" d="M718.2,792.2v-10"/>
						</g>
						<g>
							<path id="m86a875cebe_2_" class="st13" d="M1037,529.3v-10"/>
						</g>
					</g>
				</g>
			</g>
			<g id="line2d_17">
				<g>
					<defs>
						<rect id="SVGID_17_" x="216" y="121.4" width="1339.2" height="693.4"/>
					</defs>
					<clipPath id="SVGID_18_">
						<use xlink:href="#SVGID_17_"  style="overflow:visible;"/>
					</clipPath>
					<g class="st14">
						<g>
							<path id="m86a875cebe_3_" class="st13" d="M401.1,1091.5v-10"/>
						</g>
						<g>
							<path id="m86a875cebe_4_" class="st13" d="M718.2,792.2v-10"/>
						</g>
						<g>
							<path id="m86a875cebe_5_" class="st13" d="M1046.7,529.3v-10"/>
						</g>
					</g>
				</g>
			</g>
			<g id="line2d_18">
				<g>
					<defs>
						<rect id="SVGID_19_" x="216" y="121.4" width="1339.2" height="693.4"/>
					</defs>
					<clipPath id="SVGID_20_">
						<use xlink:href="#SVGID_19_"  style="overflow:visible;"/>
					</clipPath>
					<g class="st15">
						<g>
							<path id="m19cca198d4" class="st13" d="M400.7,1304h-10"/>
						</g>
						<g>
							<path id="m19cca198d4_1_" class="st13" d="M723.2,859.7h-10"/>
						</g>
						<g>
							<path id="m19cca198d4_2_" class="st13" d="M1046.8,561.5h-10"/>
						</g>
					</g>
				</g>
			</g>
			<g id="line2d_19">
				<g>
					<defs>
						<rect id="SVGID_21_" x="216" y="121.4" width="1339.2" height="693.4"/>
					</defs>
					<clipPath id="SVGID_22_">
						<use xlink:href="#SVGID_21_"  style="overflow:visible;"/>
					</clipPath>
					<g class="st16">
						<g>
							<path id="m19cca198d4_3_" class="st13" d="M400.7,869h-10"/>
						</g>
						<g>
							<path id="m19cca198d4_4_" class="st13" d="M723.2,714.7h-10"/>
						</g>
						<g>
							<path id="m19cca198d4_5_" class="st13" d="M1046.8,487.1h-10"/>
						</g>
					</g>
				</g>
			</g>
		</g>
		<g id="_x31_0_Bq_Data">
			<g>
				<defs>
					<rect id="SVGID_23_" x="216" y="121.4" width="1339.2" height="693.4"/>
				</defs>
				<clipPath id="SVGID_24_">
					<use xlink:href="#SVGID_23_"  style="overflow:visible;"/>
				</clipPath>
				<g class="st17">
					<g>
						<path id="md6bcf634ac" class="st18" d="M395.7,1101.5l9-15l-9-15l-9,15L395.7,1101.5z"/>
					</g>
					<g>
						<path id="md6bcf634ac_1_" class="st18" d="M718.2,802.2l9-15l-9-15l-9,15L718.2,802.2z"/>
					</g>
					<g>
						<path id="md6bcf634ac_2_" class="st18" d="M1041.8,539.3l9-15l-9-15l-9,15L1041.8,539.3z"/>
					</g>
				</g>
			</g>
		</g>
		<g id="_x35_0_Bq_Error_Bars">
			<g id="LineCollection_3">
				<g>
					<defs>
						<rect id="SVGID_25_" x="216" y="121.4" width="1339.2" height="693.4"/>
					</defs>
					<clipPath id="SVGID_26_">
						<use xlink:href="#SVGID_25_"  style="overflow:visible;"/>
					</clipPath>
					<path class="st19" d="M385.7,796.1h8.9"/>
				</g>
				<g>
					<defs>
						<rect id="SVGID_27_" x="216" y="121.4" width="1339.2" height="693.4"/>
					</defs>
					<clipPath id="SVGID_28_">
						<use xlink:href="#SVGID_27_"  style="overflow:visible;"/>
					</clipPath>
					<path class="st20" d="M718.2,630.4L718.2,630.4"/>
				</g>
				<g>
					<defs>
						<rect id="SVGID_29_" x="216" y="121.4" width="1339.2" height="693.4"/>
					</defs>
					<clipPath id="SVGID_30_">
						<use xlink:href="#SVGID_29_"  style="overflow:visible;"/>
					</clipPath>
					<path class="st21" d="M1041,421.9h18.4"/>
				</g>
				<g>
					<defs>
						<rect id="SVGID_31_" x="216" y="121.4" width="1339.2" height="693.4"/>
					</defs>
					<clipPath id="SVGID_32_">
						<use xlink:href="#SVGID_31_"  style="overflow:visible;"/>
					</clipPath>
					<path class="st22" d="M1369.6,93.6h8.4"/>
				</g>
			</g>
			<g id="LineCollection_4">
				<g>
					<defs>
						<rect id="SVGID_33_" x="216" y="121.4" width="1339.2" height="693.4"/>
					</defs>
					<clipPath id="SVGID_34_">
						<use xlink:href="#SVGID_33_"  style="overflow:visible;"/>
					</clipPath>
					<path class="st23" d="M390.1,838.3v-84.4"/>
				</g>
				<g>
					<defs>
						<rect id="SVGID_35_" x="216" y="121.4" width="1339.2" height="693.4"/>
					</defs>
					<clipPath id="SVGID_36_">
						<use xlink:href="#SVGID_35_"  style="overflow:visible;"/>
					</clipPath>
					<path class="st24" d="M718.2,822.7V438.1"/>
				</g>
				<g>
					<defs>
						<rect id="SVGID_37_" x="216" y="121.4" width="1339.2" height="693.4"/>
					</defs>
					<clipPath id="SVGID_38_">
						<use xlink:href="#SVGID_37_"  style="overflow:visible;"/>
					</clipPath>
					<path class="st25" d="M1050.2,434.8v-25.6"/>
				</g>
				<g>
					<defs>
						<rect id="SVGID_39_" x="216" y="121.4" width="1339.2" height="693.4"/>
					</defs>
					<clipPath id="SVGID_40_">
						<use xlink:href="#SVGID_39_"  style="overflow:visible;"/>
					</clipPath>
					<path class="st26" d="M1373.8,104.4V82.8"/>
				</g>
			</g>
			<g id="line2d_21">
				<g>
					<defs>
						<rect id="SVGID_41_" x="216" y="121.4" width="1339.2" height="693.4"/>
					</defs>
					<clipPath id="SVGID_42_">
						<use xlink:href="#SVGID_41_"  style="overflow:visible;"/>
					</clipPath>
					<g class="st27">
						<g>
							<path id="m86a875cebe_6_" class="st13" d="M385.7,801.1v-10"/>
						</g>
						<g>
							<path id="m86a875cebe_7_" class="st13" d="M718.2,635.4v-10"/>
						</g>
						<g>
							<path id="m86a875cebe_8_" class="st13" d="M1041,426.9v-10"/>
						</g>
						<g>
							<path id="m86a875cebe_9_" class="st13" d="M1369.6,98.6v-10"/>
						</g>
					</g>
				</g>
			</g>
			<g id="line2d_22">
				<g>
					<defs>
						<rect id="SVGID_43_" x="216" y="121.4" width="1339.2" height="693.4"/>
					</defs>
					<clipPath id="SVGID_44_">
						<use xlink:href="#SVGID_43_"  style="overflow:visible;"/>
					</clipPath>
					<g class="st28">
						<g>
							<path id="m86a875cebe_10_" class="st13" d="M394.5,801.1v-10"/>
						</g>
						<g>
							<path id="m86a875cebe_11_" class="st13" d="M718.2,635.4v-10"/>
						</g>
						<g>
							<path id="m86a875cebe_12_" class="st13" d="M1059.4,426.9v-10"/>
						</g>
						<g>
							<path id="m86a875cebe_13_" class="st13" d="M1378.1,98.6v-10"/>
						</g>
					</g>
				</g>
			</g>
			<g id="line2d_23">
				<g>
					<defs>
						<rect id="SVGID_45_" x="216" y="121.4" width="1339.2" height="693.4"/>
					</defs>
					<clipPath id="SVGID_46_">
						<use xlink:href="#SVGID_45_"  style="overflow:visible;"/>
					</clipPath>
					<g class="st29">
						<g>
							<path id="m19cca198d4_6_" class="st13" d="M395.1,838.3h-10"/>
						</g>
						<g>
							<path id="m19cca198d4_7_" class="st13" d="M723.2,822.7h-10"/>
						</g>
						<g>
							<path id="m19cca198d4_8_" class="st13" d="M1055.2,434.8h-10"/>
						</g>
						<g>
							<path id="m19cca198d4_9_" class="st13" d="M1378.8,104.4h-10"/>
						</g>
					</g>
				</g>
			</g>
			<g id="line2d_24">
				<g>
					<defs>
						<rect id="SVGID_47_" x="216" y="121.4" width="1339.2" height="693.4"/>
					</defs>
					<clipPath id="SVGID_48_">
						<use xlink:href="#SVGID_47_"  style="overflow:visible;"/>
					</clipPath>
					<g class="st30">
						<g>
							<path id="m19cca198d4_10_" class="st13" d="M395.1,753.9h-10"/>
						</g>
						<g>
							<path id="m19cca198d4_11_" class="st13" d="M723.2,438.1h-10"/>
						</g>
						<g>
							<path id="m19cca198d4_12_" class="st13" d="M1055.2,409.1h-10"/>
						</g>
						<g>
							<path id="m19cca198d4_13_" class="st13" d="M1378.8,82.8h-10"/>
						</g>
					</g>
				</g>
			</g>
		</g>
		<g id="_x35_0_Bq_Data">
			<g>
				<defs>
					<rect id="SVGID_49_" x="216" y="121.4" width="1339.2" height="693.4"/>
				</defs>
				<clipPath id="SVGID_50_">
					<use xlink:href="#SVGID_49_"  style="overflow:visible;"/>
				</clipPath>
				<g class="st31">
					<g>
						<path id="md01faf5760" class="st18" d="M390.1,781.5l-14.3,10.4l5.4,16.8h17.6l5.4-16.8L390.1,781.5z"/>
					</g>
					<g>
						<path id="md01faf5760_1_" class="st18" d="M718.2,615.9l-14.3,10.4l5.4,16.8H727l5.4-16.8L718.2,615.9z"/>
					</g>
					<g>
						<path id="md01faf5760_2_" class="st18" d="M1050.2,407.4l-14.3,10.4l5.4,16.8h17.6l5.4-16.8L1050.2,407.4z"/>
					</g>
					<g>
						<path id="md01faf5760_3_" class="st18" d="M1373.8,81.9l-14.3,10.4l5.4,16.8h17.6l5.4-16.8L1373.8,81.9z"/>
					</g>
				</g>
			</g>
		</g>
		<g id="_x31_00_Bq_Error_Bars">
			<g id="LineCollection_5">
				<g>
					<defs>
						<rect id="SVGID_51_" x="216" y="121.4" width="1339.2" height="693.4"/>
					</defs>
					<clipPath id="SVGID_52_">
						<use xlink:href="#SVGID_51_"  style="overflow:visible;"/>
					</clipPath>
					<path class="st32" d="M380.6,761.5h29"/>
				</g>
				<g>
					<defs>
						<rect id="SVGID_53_" x="216" y="121.4" width="1339.2" height="693.4"/>
					</defs>
					<clipPath id="SVGID_54_">
						<use xlink:href="#SVGID_53_"  style="overflow:visible;"/>
					</clipPath>
					<path class="st33" d="M718.2,737.6L718.2,737.6"/>
				</g>
				<g>
					<defs>
						<rect id="SVGID_55_" x="216" y="121.4" width="1339.2" height="693.4"/>
					</defs>
					<clipPath id="SVGID_56_">
						<use xlink:href="#SVGID_55_"  style="overflow:visible;"/>
					</clipPath>
					<path class="st34" d="M1041.9,438.4h8.9"/>
				</g>
				<g>
					<defs>
						<rect id="SVGID_57_" x="216" y="121.4" width="1339.2" height="693.4"/>
					</defs>
					<clipPath id="SVGID_58_">
						<use xlink:href="#SVGID_57_"  style="overflow:visible;"/>
					</clipPath>
					<path class="st35" d="M1356.5,143.5h16.9"/>
				</g>
			</g>
			<g id="LineCollection_6">
				<g>
					<defs>
						<rect id="SVGID_59_" x="216" y="121.4" width="1339.2" height="693.4"/>
					</defs>
					<clipPath id="SVGID_60_">
						<use xlink:href="#SVGID_59_"  style="overflow:visible;"/>
					</clipPath>
					<path class="st36" d="M395.1,813.1V710"/>
				</g>
				<g>
					<defs>
						<rect id="SVGID_61_" x="216" y="121.4" width="1339.2" height="693.4"/>
					</defs>
					<clipPath id="SVGID_62_">
						<use xlink:href="#SVGID_61_"  style="overflow:visible;"/>
					</clipPath>
					<path class="st37" d="M718.2,746.2V729"/>
				</g>
				<g>
					<defs>
						<rect id="SVGID_63_" x="216" y="121.4" width="1339.2" height="693.4"/>
					</defs>
					<clipPath id="SVGID_64_">
						<use xlink:href="#SVGID_63_"  style="overflow:visible;"/>
					</clipPath>
					<path class="st38" d="M1046.3,458.5v-40.2"/>
				</g>
				<g>
					<defs>
						<rect id="SVGID_65_" x="216" y="121.4" width="1339.2" height="693.4"/>
					</defs>
					<clipPath id="SVGID_66_">
						<use xlink:href="#SVGID_65_"  style="overflow:visible;"/>
					</clipPath>
					<path class="st39" d="M1364.9,159.2v-31.3"/>
				</g>
			</g>
			<g id="line2d_26">
				<g>
					<defs>
						<rect id="SVGID_67_" x="216" y="121.4" width="1339.2" height="693.4"/>
					</defs>
					<clipPath id="SVGID_68_">
						<use xlink:href="#SVGID_67_"  style="overflow:visible;"/>
					</clipPath>
					<g class="st40">
						<g>
							<path id="m86a875cebe_14_" class="st13" d="M380.6,766.5v-10"/>
						</g>
						<g>
							<path id="m86a875cebe_15_" class="st13" d="M718.2,742.6v-10"/>
						</g>
						<g>
							<path id="m86a875cebe_16_" class="st13" d="M1041.9,443.4v-10"/>
						</g>
						<g>
							<path id="m86a875cebe_17_" class="st13" d="M1356.5,148.5v-10"/>
						</g>
					</g>
				</g>
			</g>
			<g id="line2d_27">
				<g>
					<defs>
						<rect id="SVGID_69_" x="216" y="121.4" width="1339.2" height="693.4"/>
					</defs>
					<clipPath id="SVGID_70_">
						<use xlink:href="#SVGID_69_"  style="overflow:visible;"/>
					</clipPath>
					<g class="st41">
						<g>
							<path id="m86a875cebe_18_" class="st13" d="M409.6,766.5v-10"/>
						</g>
						<g>
							<path id="m86a875cebe_19_" class="st13" d="M718.2,742.6v-10"/>
						</g>
						<g>
							<path id="m86a875cebe_20_" class="st13" d="M1050.7,443.4v-10"/>
						</g>
						<g>
							<path id="m86a875cebe_21_" class="st13" d="M1373.3,148.5v-10"/>
						</g>
					</g>
				</g>
			</g>
			<g id="line2d_28">
				<g>
					<defs>
						<rect id="SVGID_71_" x="216" y="121.4" width="1339.2" height="693.4"/>
					</defs>
					<clipPath id="SVGID_72_">
						<use xlink:href="#SVGID_71_"  style="overflow:visible;"/>
					</clipPath>
					<g class="st42">
						<g>
							<path id="m19cca198d4_14_" class="st13" d="M400.1,813.1h-10"/>
						</g>
						<g>
							<path id="m19cca198d4_15_" class="st13" d="M723.2,746.2h-10"/>
						</g>
						<g>
							<path id="m19cca198d4_16_" class="st13" d="M1051.3,458.5h-10"/>
						</g>
						<g>
							<path id="m19cca198d4_17_" class="st13" d="M1369.9,159.2h-10"/>
						</g>
					</g>
				</g>
			</g>
			<g id="line2d_29">
				<g>
					<defs>
						<rect id="SVGID_73_" x="216" y="121.4" width="1339.2" height="693.4"/>
					</defs>
					<clipPath id="SVGID_74_">
						<use xlink:href="#SVGID_73_"  style="overflow:visible;"/>
					</clipPath>
					<g class="st43">
						<g>
							<path id="m19cca198d4_18_" class="st13" d="M400.1,710h-10"/>
						</g>
						<g>
							<path id="m19cca198d4_19_" class="st13" d="M723.2,729h-10"/>
						</g>
						<g>
							<path id="m19cca198d4_20_" class="st13" d="M1051.3,418.3h-10"/>
						</g>
						<g>
							<path id="m19cca198d4_21_" class="st13" d="M1369.9,127.9h-10"/>
						</g>
					</g>
				</g>
			</g>
		</g>
		<g id="_x31_00_Bq_Data">
			<g>
				<defs>
					<rect id="SVGID_75_" x="216" y="121.4" width="1339.2" height="693.4"/>
				</defs>
				<clipPath id="SVGID_76_">
					<use xlink:href="#SVGID_75_"  style="overflow:visible;"/>
				</clipPath>
				<g class="st44">
					<g>
						<path id="m910f0ca1c2" class="st18" d="M380.1,776.5h30v-30h-30V776.5z"/>
					</g>
					<g>
						<path id="m910f0ca1c2_1_" class="st18" d="M703.2,752.6h30v-30h-30V752.6z"/>
					</g>
					<g>
						<path id="m910f0ca1c2_2_" class="st18" d="M1031.3,453.4h30v-30h-30V453.4z"/>
					</g>
					<g>
						<path id="m910f0ca1c2_3_" class="st18" d="M1349.9,158.5h30v-30h-30V158.5z"/>
					</g>
				</g>
			</g>
		</g>
		<g id="_x35_00_Bq_Error_Bars">
			<g id="LineCollection_7">
				<g>
					<defs>
						<rect id="SVGID_77_" x="216" y="121.4" width="1339.2" height="693.4"/>
					</defs>
					<clipPath id="SVGID_78_">
						<use xlink:href="#SVGID_77_"  style="overflow:visible;"/>
					</clipPath>
					<path class="st45" d="M388.3,767.5h11.1"/>
				</g>
				<g>
					<defs>
						<rect id="SVGID_79_" x="216" y="121.4" width="1339.2" height="693.4"/>
					</defs>
					<clipPath id="SVGID_80_">
						<use xlink:href="#SVGID_79_"  style="overflow:visible;"/>
					</clipPath>
					<path class="st46" d="M718.2,722L718.2,722"/>
				</g>
				<g>
					<defs>
						<rect id="SVGID_81_" x="216" y="121.4" width="1339.2" height="693.4"/>
					</defs>
					<clipPath id="SVGID_82_">
						<use xlink:href="#SVGID_81_"  style="overflow:visible;"/>
					</clipPath>
					<path class="st47" d="M1046.6,508.1h11.1"/>
				</g>
				<g>
					<defs>
						<rect id="SVGID_83_" x="216" y="121.4" width="1339.2" height="693.4"/>
					</defs>
					<clipPath id="SVGID_84_">
						<use xlink:href="#SVGID_83_"  style="overflow:visible;"/>
					</clipPath>
					<path class="st48" d="M1369,159.5h15.8"/>
				</g>
			</g>
			<g id="LineCollection_8">
				<g>
					<defs>
						<rect id="SVGID_85_" x="216" y="121.4" width="1339.2" height="693.4"/>
					</defs>
					<clipPath id="SVGID_86_">
						<use xlink:href="#SVGID_85_"  style="overflow:visible;"/>
					</clipPath>
					<path class="st49" d="M393.9,804.1V731"/>
				</g>
				<g>
					<defs>
						<rect id="SVGID_87_" x="216" y="121.4" width="1339.2" height="693.4"/>
					</defs>
					<clipPath id="SVGID_88_">
						<use xlink:href="#SVGID_87_"  style="overflow:visible;"/>
					</clipPath>
					<path class="st50" d="M718.2,753.4v-62.9"/>
				</g>
				<g>
					<defs>
						<rect id="SVGID_89_" x="216" y="121.4" width="1339.2" height="693.4"/>
					</defs>
					<clipPath id="SVGID_90_">
						<use xlink:href="#SVGID_89_"  style="overflow:visible;"/>
					</clipPath>
					<path class="st51" d="M1052.2,552.7v-89.4"/>
				</g>
				<g>
					<defs>
						<rect id="SVGID_91_" x="216" y="121.4" width="1339.2" height="693.4"/>
					</defs>
					<clipPath id="SVGID_92_">
						<use xlink:href="#SVGID_91_"  style="overflow:visible;"/>
					</clipPath>
					<path class="st52" d="M1376.9,186.7v-54.5"/>
				</g>
			</g>
			<g id="line2d_31">
				<g>
					<defs>
						<rect id="SVGID_93_" x="216" y="121.4" width="1339.2" height="693.4"/>
					</defs>
					<clipPath id="SVGID_94_">
						<use xlink:href="#SVGID_93_"  style="overflow:visible;"/>
					</clipPath>
					<g class="st53">
						<g>
							<path id="m86a875cebe_22_" class="st13" d="M388.3,772.5v-10"/>
						</g>
						<g>
							<path id="m86a875cebe_23_" class="st13" d="M718.2,727v-10"/>
						</g>
						<g>
							<path id="m86a875cebe_24_" class="st13" d="M1046.6,513.1v-10"/>
						</g>
						<g>
							<path id="m86a875cebe_25_" class="st13" d="M1369,164.5v-10"/>
						</g>
					</g>
				</g>
			</g>
			<g id="line2d_32">
				<g>
					<defs>
						<rect id="SVGID_95_" x="216" y="121.4" width="1339.2" height="693.4"/>
					</defs>
					<clipPath id="SVGID_96_">
						<use xlink:href="#SVGID_95_"  style="overflow:visible;"/>
					</clipPath>
					<g class="st54">
						<g>
							<path id="m86a875cebe_26_" class="st13" d="M399.4,772.5v-10"/>
						</g>
						<g>
							<path id="m86a875cebe_27_" class="st13" d="M718.2,727v-10"/>
						</g>
						<g>
							<path id="m86a875cebe_28_" class="st13" d="M1057.7,513.1v-10"/>
						</g>
						<g>
							<path id="m86a875cebe_29_" class="st13" d="M1384.8,164.5v-10"/>
						</g>
					</g>
				</g>
			</g>
			<g id="line2d_33">
				<g>
					<defs>
						<rect id="SVGID_97_" x="216" y="121.4" width="1339.2" height="693.4"/>
					</defs>
					<clipPath id="SVGID_98_">
						<use xlink:href="#SVGID_97_"  style="overflow:visible;"/>
					</clipPath>
					<g class="st55">
						<g>
							<path id="m19cca198d4_22_" class="st13" d="M398.9,804.1h-10"/>
						</g>
						<g>
							<path id="m19cca198d4_23_" class="st13" d="M723.2,753.4h-10"/>
						</g>
						<g>
							<path id="m19cca198d4_24_" class="st13" d="M1057.2,552.7h-10"/>
						</g>
						<g>
							<path id="m19cca198d4_25_" class="st13" d="M1381.9,186.7h-10"/>
						</g>
					</g>
				</g>
			</g>
			<g id="line2d_34">
				<g>
					<defs>
						<rect id="SVGID_99_" x="216" y="121.4" width="1339.2" height="693.4"/>
					</defs>
					<clipPath id="SVGID_100_">
						<use xlink:href="#SVGID_99_"  style="overflow:visible;"/>
					</clipPath>
					<g class="st56">
						<g>
							<path id="m19cca198d4_26_" class="st13" d="M398.9,731h-10"/>
						</g>
						<g>
							<path id="m19cca198d4_27_" class="st13" d="M723.2,690.5h-10"/>
						</g>
						<g>
							<path id="m19cca198d4_28_" class="st13" d="M1057.2,463.4h-10"/>
						</g>
						<g>
							<path id="m19cca198d4_29_" class="st13" d="M1381.9,132.3h-10"/>
						</g>
					</g>
				</g>
			</g>
		</g>
		<g id="_x35_00_Bq_Data">
			<g>
				<defs>
					<rect id="SVGID_101_" x="216" y="121.4" width="1339.2" height="693.4"/>
				</defs>
				<clipPath id="SVGID_102_">
					<use xlink:href="#SVGID_101_"  style="overflow:visible;"/>
				</clipPath>
				<g class="st57">
					<g>
						<path id="me34e7e4708" class="st13" d="M393.9,782.5c4,0,7.8-1.6,10.6-4.4c2.8-2.8,4.4-6.6,4.4-10.6c0-4-1.6-7.8-4.4-10.6
							c-2.8-2.8-6.6-4.4-10.6-4.4s-7.8,1.6-10.6,4.4c-2.8,2.8-4.4,6.6-4.4,10.6c0,4,1.6,7.8,4.4,10.6
							C386.1,781,389.9,782.5,393.9,782.5z"/>
					</g>
					<g>
						<path id="me34e7e4708_1_" class="st13" d="M718.2,737c4,0,7.8-1.6,10.6-4.4c2.8-2.8,4.4-6.6,4.4-10.6c0-4-1.6-7.8-4.4-10.6
							c-2.8-2.8-6.6-4.4-10.6-4.4s-7.8,1.6-10.6,4.4c-2.8,2.8-4.4,6.6-4.4,10.6c0,4,1.6,7.8,4.4,10.6
							C710.4,735.4,714.2,737,718.2,737z"/>
					</g>
					<g>
						<path id="me34e7e4708_2_" class="st13" d="M1052.2,523c4,0,7.8-1.6,10.6-4.4c2.8-2.8,4.4-6.6,4.4-10.6c0-4-1.6-7.8-4.4-10.6
							c-2.8-2.8-6.6-4.4-10.6-4.4s-7.8,1.6-10.6,4.4c-2.8,2.8-4.4,6.6-4.4,10.6c0,4,1.6,7.8,4.4,10.6
							C1044.4,521.5,1048.2,523,1052.2,523z"/>
					</g>
					<g>
						<path id="me34e7e4708_3_" class="st13" d="M1376.9,174.5c4,0,7.8-1.6,10.6-4.4c2.8-2.8,4.4-6.6,4.4-10.6s-1.6-7.8-4.4-10.6
							c-2.8-2.8-6.6-4.4-10.6-4.4s-7.8,1.6-10.6,4.4c-2.8,2.8-4.4,6.6-4.4,10.6s1.6,7.8,4.4,10.6
							C1369.1,172.9,1372.9,174.5,1376.9,174.5z"/>
					</g>
				</g>
			</g>
		</g>
		<g id="Horizontal_Axis">
			<path class="st58" d="M216,814.7h1339.2"/>
		</g>
		<g id="Vertical_Axis">
			<path class="st58" d="M216,814.7V121.4"/>
		</g>
		<g id="legend_1">
			<g id="line2d_36">
				<path class="st59" d="M230.4,124.8h32"/>
			</g>
			<g id="line2d_37">
			</g>
			<g id="text_19">
				<text transform="matrix(1 0 0 1 275.2 138.93)" class="st2 st3 st4">1 site 1 rxn K1: 5.7 5.6e-05 mol Sites</text>
			</g>
			<g id="line2d_38">
			</g>
			<g id="line2d_39">
				<g>
					<g>
						<path id="md6bcf634ac_3_" class="st18" d="M246.4,179.7l9-15l-9-15l-9,15L246.4,179.7z"/>
					</g>
				</g>
			</g>
			<g id="text_20">
				<text transform="matrix(1 0 0 1 275.2 178.8055)" class="st2 st3 st4">Experimental Data 10 Bq Total</text>
			</g>
			<g id="line2d_40">
			</g>
			<g id="line2d_41">
				<g>
					<g>
						<path id="md01faf5760_4_" class="st18" d="M246.4,189.9l-14.3,10.4l5.4,16.8h17.6l5.4-16.8L246.4,189.9z"/>
					</g>
				</g>
			</g>
			<g id="text_21">
				<text transform="matrix(1 0 0 1 275.2 218.4934)" class="st2 st3 st4">Experimental Data 50 Bq Total</text>
			</g>
			<g id="line2d_42">
			</g>
			<g id="line2d_43">
				<g>
					<g>
						<path id="m910f0ca1c2_4_" class="st18" d="M231.4,259.1h30v-30h-30V259.1z"/>
					</g>
				</g>
			</g>
			<g id="text_22">
				<text transform="matrix(1 0 0 1 275.2 258.1814)" class="st2 st3 st4">Experimental Data 100 Bq Total</text>
			</g>
			<g id="line2d_44">
			</g>
			<g id="line2d_45">
				<g>
					<g>
						<path id="me34e7e4708_4_" class="st13" d="M246.4,301.6c4,0,7.8-1.6,10.6-4.4s4.4-6.6,4.4-10.6c0-4-1.6-7.8-4.4-10.6
							c-2.8-2.8-6.6-4.4-10.6-4.4s-7.8,1.6-10.6,4.4c-2.8,2.8-4.4,6.6-4.4,10.6c0,4,1.6,7.8,4.4,10.6
							C238.6,300,242.4,301.6,246.4,301.6z"/>
					</g>
				</g>
			</g>
			<g id="text_23">
				<text transform="matrix(1 0 0 1 275.2 300.7039)" class="st2 st3 st4">Experimental Data 500 Bq Total</text>
			</g>
		</g>
	</g>
</g>
</svg>
