<?xml version="1.0" encoding="utf-8"?>
<!-- Generator: Adobe Illustrator 20.1.0, SVG Export Plug-In . SVG Version: 6.00 Build 0)  -->
<svg version="1.1" id="Layer_1" xmlns="http://www.w3.org/2000/svg" xmlns:xlink="http://www.w3.org/1999/xlink" x="0px" y="0px"
	 viewBox="0 0 1275.6 988.8" style="enable-background:new 0 0 1275.6 988.8;" xml:space="preserve">
<style type="text/css">
	.st0{fill:#FFFFFF;}
	.st1{fill:none;stroke:#262626;stroke-width:1.6;stroke-linejoin:round;stroke-miterlimit:10;}
	.st2{fill:#262626;}
	.st3{font-family:'ArialMT';}
	.st4{font-size:36px;}
	.st5{clip-path:url(#SVGID_2_);fill:none;stroke:#000000;stroke-linejoin:round;stroke-miterlimit:10;}
	.st6{clip-path:url(#SVGID_4_);fill:none;stroke:#000000;stroke-linejoin:round;stroke-miterlimit:10;}
	.st7{clip-path:url(#SVGID_6_);fill:none;stroke:#000000;stroke-linejoin:round;stroke-miterlimit:10;}
	.st8{clip-path:url(#SVGID_8_);fill:none;stroke:#000000;stroke-linejoin:round;stroke-miterlimit:10;}
	.st9{clip-path:url(#SVGID_10_);fill:none;stroke:#000000;stroke-linejoin:round;stroke-miterlimit:10;}
	.st10{clip-path:url(#SVGID_12_);}
	.st11{fill:none;stroke:#000000;stroke-width:2;stroke-linejoin:round;stroke-miterlimit:10;}
	.st12{clip-path:url(#SVGID_14_);}
	
		.st13{clip-path:url(#SVGID_16_);fill:none;stroke:#000000;stroke-width:4;stroke-linecap:round;stroke-linejoin:round;stroke-miterlimit:10;}
	.st14{clip-path:url(#SVGID_18_);}
	.st15{fill:none;stroke:#262626;stroke-width:1.25;stroke-linecap:square;stroke-miterlimit:10;}
</style>
<g id="figure_1">
	<g id="patch_1">
		<path class="st0" d="M61.8,941.6h1152V47.9H61.8V941.6z"/>
	</g>
	<g id="axes_1">
		<g id="patch_2">
			<path class="st0" d="M205.8,852.2h892.8v-715H205.8V852.2z"/>
		</g>
		<g id="matplotlib.axis_1">
			<g id="xtick_1">
				<g id="line2d_1">
					<g>
						<g>
							<path id="mf2be6d5611" class="st1" d="M205.8,852.2v6"/>
						</g>
					</g>
				</g>
				<g id="text_1">
					<text transform="matrix(1 0 0 1 195.6768 897.8924)" class="st2 st3 st4">0</text>
				</g>
			</g>
			<g id="xtick_2">
				<g id="line2d_2">
					<g>
						<g>
							<path id="mf2be6d5611_1_" class="st1" d="M317.4,852.2v6"/>
						</g>
					</g>
				</g>
				<g id="text_2">
					<text transform="matrix(1 0 0 1 293.9291 897.8924)" class="st2 st3 st4">2000</text>
				</g>
			</g>
			<g id="xtick_3">
				<g id="line2d_3">
					<g>
						<g>
							<path id="mf2be6d5611_2_" class="st1" d="M429,852.2v6"/>
						</g>
					</g>
				</g>
				<g id="text_3">
					<text transform="matrix(1 0 0 1 405.5291 897.8924)" class="st2 st3 st4">4000</text>
				</g>
			</g>
			<g id="xtick_4">
				<g id="line2d_4">
					<g>
						<g>
							<path id="mf2be6d5611_3_" class="st1" d="M540.6,852.2v6"/>
						</g>
					</g>
				</g>
				<g id="text_4">
					<text transform="matrix(1 0 0 1 517.1291 897.8924)" class="st2 st3 st4">6000</text>
				</g>
			</g>
			<g id="xtick_5">
				<g id="line2d_5">
					<g>
						<g>
							<path id="mf2be6d5611_4_" class="st1" d="M652.2,852.2v6"/>
						</g>
					</g>
				</g>
				<g id="text_5">
					<text transform="matrix(1 0 0 1 628.7291 897.8924)" class="st2 st3 st4">8000</text>
				</g>
			</g>
			<g id="xtick_6">
				<g id="line2d_6">
					<g>
						<g>
							<path id="mf2be6d5611_5_" class="st1" d="M763.8,852.2v6"/>
						</g>
					</g>
				</g>
				<g id="text_6">
					<text transform="matrix(1 0 0 1 735.8799 897.8924)" class="st2 st3 st4">10000</text>
				</g>
			</g>
			<g id="xtick_7">
				<g id="line2d_7">
					<g>
						<g>
							<path id="mf2be6d5611_6_" class="st1" d="M875.4,852.2v6"/>
						</g>
					</g>
				</g>
				<g id="text_7">
					<text transform="matrix(1 0 0 1 847.4799 897.8924)" class="st2 st3 st4">12000</text>
				</g>
			</g>
			<g id="xtick_8">
				<g id="line2d_8">
					<g>
						<g>
							<path id="mf2be6d5611_7_" class="st1" d="M987,852.2v6"/>
						</g>
					</g>
				</g>
				<g id="text_8">
					<text transform="matrix(1 0 0 1 959.0799 897.8924)" class="st2 st3 st4">14000</text>
				</g>
			</g>
			<g id="xtick_9">
				<g id="line2d_9">
					<g>
						<g>
							<path id="mf2be6d5611_8_" class="st1" d="M1098.6,852.2v6"/>
						</g>
					</g>
				</g>
				<g id="text_9">
					<text transform="matrix(1 0 0 1 1070.6799 897.8924)" class="st2 st3 st4">16000</text>
				</g>
			</g>
			<g id="text_10">
				<text transform="matrix(1 0 0 1 499.6347 950.0657)" class="st2 st3 st4">Experiment Length (sec)</text>
			</g>
		</g>
		<g id="matplotlib.axis_2">
			<g id="ytick_1">
				<g id="line2d_10">
					<g>
						<g>
							<path id="m17350505ea" class="st1" d="M205.8,852.2h-6"/>
						</g>
					</g>
				</g>
				<g id="text_11">
					<text transform="matrix(1 0 0 1 143.6758 864.8723)" class="st2 st3 st4">0.0</text>
				</g>
			</g>
			<g id="ytick_2">
				<g id="line2d_11">
					<g>
						<g>
							<path id="m17350505ea_1_" class="st1" d="M205.8,709.2h-6"/>
						</g>
					</g>
				</g>
				<g id="text_12">
					<text transform="matrix(1 0 0 1 143.6758 721.8802)" class="st2 st3 st4">0.2</text>
				</g>
			</g>
			<g id="ytick_3">
				<g id="line2d_12">
					<g>
						<g>
							<path id="m17350505ea_2_" class="st1" d="M205.8,566.2h-6"/>
						</g>
					</g>
				</g>
				<g id="text_13">
					<text transform="matrix(1 0 0 1 143.6758 578.8882)" class="st2 st3 st4">0.4</text>
				</g>
			</g>
			<g id="ytick_4">
				<g id="line2d_13">
					<g>
						<g>
							<path id="m17350505ea_3_" class="st1" d="M205.8,423.3h-6"/>
						</g>
					</g>
				</g>
				<g id="text_14">
					<text transform="matrix(1 0 0 1 143.6758 435.8963)" class="st2 st3 st4">0.6</text>
				</g>
			</g>
			<g id="ytick_5">
				<g id="line2d_14">
					<g>
						<g>
							<path id="m17350505ea_4_" class="st1" d="M205.8,280.3h-6"/>
						</g>
					</g>
				</g>
				<g id="text_15">
					<text transform="matrix(1 0 0 1 143.6758 292.9043)" class="st2 st3 st4">0.8</text>
				</g>
			</g>
			<g id="ytick_6">
				<g id="line2d_15">
					<g>
						<g>
							<path id="m17350505ea_5_" class="st1" d="M205.8,137.3h-6"/>
						</g>
					</g>
				</g>
				<g id="text_16">
					<text transform="matrix(1 0 0 1 143.6758 149.9123)" class="st2 st3 st4">1.0</text>
				</g>
			</g>
			<g id="text_17">
				<text transform="matrix(6.123234e-17 -1 1 6.123234e-17 115.1311 578.0562)" class="st2 st3 st4">Cw (Bq/mL)</text>
			</g>
		</g>
		<g id="Error_Bars">
			<g id="LineCollection_1">
				<g>
					<defs>
						<rect id="SVGID_1_" x="205.8" y="137.3" width="892.8" height="715"/>
					</defs>
					<clipPath id="SVGID_2_">
						<use xlink:href="#SVGID_1_"  style="overflow:visible;"/>
					</clipPath>
					<path class="st5" d="M215.6,505.1v-10.4"/>
				</g>
				<g>
					<defs>
						<rect id="SVGID_3_" x="205.8" y="137.3" width="892.8" height="715"/>
					</defs>
					<clipPath id="SVGID_4_">
						<use xlink:href="#SVGID_3_"  style="overflow:visible;"/>
					</clipPath>
					<path class="st6" d="M226.7,526.8V500"/>
				</g>
				<g>
					<defs>
						<rect id="SVGID_5_" x="205.8" y="137.3" width="892.8" height="715"/>
					</defs>
					<clipPath id="SVGID_6_">
						<use xlink:href="#SVGID_5_"  style="overflow:visible;"/>
					</clipPath>
					<path class="st7" d="M286.1,524.1v-40.6"/>
				</g>
				<g>
					<defs>
						<rect id="SVGID_7_" x="205.8" y="137.3" width="892.8" height="715"/>
					</defs>
					<clipPath id="SVGID_8_">
						<use xlink:href="#SVGID_7_"  style="overflow:visible;"/>
					</clipPath>
					<path class="st8" d="M1073.3,537.6v-145"/>
				</g>
				<g>
					<defs>
						<rect id="SVGID_9_" x="205.8" y="137.3" width="892.8" height="715"/>
					</defs>
					<clipPath id="SVGID_10_">
						<use xlink:href="#SVGID_9_"  style="overflow:visible;"/>
					</clipPath>
					<path class="st9" d="M1072.4,434.8v-78.1"/>
				</g>
			</g>
			<g id="line2d_16">
				<g>
					<defs>
						<rect id="SVGID_11_" x="205.8" y="137.3" width="892.8" height="715"/>
					</defs>
					<clipPath id="SVGID_12_">
						<use xlink:href="#SVGID_11_"  style="overflow:visible;"/>
					</clipPath>
					<g class="st10">
						<g>
							<path id="m5016173b28" class="st11" d="M220.6,505.1h-10"/>
						</g>
						<g>
							<path id="m5016173b28_1_" class="st11" d="M231.7,526.8h-10"/>
						</g>
						<g>
							<path id="m5016173b28_2_" class="st11" d="M291.1,524.1h-10"/>
						</g>
						<g>
							<path id="m5016173b28_3_" class="st11" d="M1078.3,537.6h-10"/>
						</g>
						<g>
							<path id="m5016173b28_4_" class="st11" d="M1077.4,434.8h-10"/>
						</g>
					</g>
				</g>
			</g>
			<g id="line2d_17">
				<g>
					<defs>
						<rect id="SVGID_13_" x="205.8" y="137.3" width="892.8" height="715"/>
					</defs>
					<clipPath id="SVGID_14_">
						<use xlink:href="#SVGID_13_"  style="overflow:visible;"/>
					</clipPath>
					<g class="st12">
						<g>
							<path id="m5016173b28_5_" class="st11" d="M220.6,494.7h-10"/>
						</g>
						<g>
							<path id="m5016173b28_6_" class="st11" d="M231.7,500h-10"/>
						</g>
						<g>
							<path id="m5016173b28_7_" class="st11" d="M291.1,483.5h-10"/>
						</g>
						<g>
							<path id="m5016173b28_8_" class="st11" d="M1078.3,392.7h-10"/>
						</g>
						<g>
							<path id="m5016173b28_9_" class="st11" d="M1077.4,356.6h-10"/>
						</g>
					</g>
				</g>
			</g>
		</g>
		<g id="Data">
			<g id="Data_Line">
				<defs>
					<rect id="SVGID_15_" x="205.8" y="137.3" width="892.8" height="715"/>
				</defs>
				<clipPath id="SVGID_16_">
					<use xlink:href="#SVGID_15_"  style="overflow:visible;"/>
				</clipPath>
				<path class="st13" d="M215.6,499.9l11.1,13.5l59.5-9.6l787.2-38.6l-0.9-69.5"/>
			</g>
			<g id="Data_Points_1_">
				<defs>
					<rect id="SVGID_17_" x="205.8" y="137.3" width="892.8" height="715"/>
				</defs>
				<clipPath id="SVGID_18_">
					<use xlink:href="#SVGID_17_"  style="overflow:visible;"/>
				</clipPath>
				<g class="st14">
					<g>
						<path id="m9d3e82dd39" class="st11" d="M215.6,514.9c4,0,7.8-1.6,10.6-4.4c2.8-2.8,4.4-6.6,4.4-10.6c0-4-1.6-7.8-4.4-10.6
							c-2.8-2.8-6.6-4.4-10.6-4.4s-7.8,1.6-10.6,4.4c-2.8,2.8-4.4,6.6-4.4,10.6c0,4,1.6,7.8,4.4,10.6
							C207.8,513.3,211.6,514.9,215.6,514.9z"/>
					</g>
					<g>
						<path id="m9d3e82dd39_1_" class="st11" d="M226.7,528.4c4,0,7.8-1.6,10.6-4.4c2.8-2.8,4.4-6.6,4.4-10.6c0-4-1.6-7.8-4.4-10.6
							c-2.8-2.8-6.6-4.4-10.6-4.4s-7.8,1.6-10.6,4.4c-2.8,2.8-4.4,6.6-4.4,10.6c0,4,1.6,7.8,4.4,10.6
							C218.9,526.8,222.7,528.4,226.7,528.4z"/>
					</g>
					<g>
						<path id="m9d3e82dd39_2_" class="st11" d="M286.1,518.8c4,0,7.8-1.6,10.6-4.4c2.8-2.8,4.4-6.6,4.4-10.6c0-4-1.6-7.8-4.4-10.6
							c-2.8-2.8-6.6-4.4-10.6-4.4s-7.8,1.6-10.6,4.4c-2.8,2.8-4.4,6.6-4.4,10.6c0,4,1.6,7.8,4.4,10.6
							C278.4,517.2,282.2,518.8,286.1,518.8z"/>
					</g>
					<g>
						<path id="m9d3e82dd39_3_" class="st11" d="M1073.3,480.2c4,0,7.8-1.6,10.6-4.4c2.8-2.8,4.4-6.6,4.4-10.6c0-4-1.6-7.8-4.4-10.6
							c-2.8-2.8-6.6-4.4-10.6-4.4s-7.8,1.6-10.6,4.4c-2.8,2.8-4.4,6.6-4.4,10.6c0,4,1.6,7.8,4.4,10.6
							C1065.5,478.6,1069.3,480.2,1073.3,480.2z"/>
					</g>
					<g>
						<path id="m9d3e82dd39_4_" class="st11" d="M1072.4,410.7c4,0,7.8-1.6,10.6-4.4c2.8-2.8,4.4-6.6,4.4-10.6c0-4-1.6-7.8-4.4-10.6
							c-2.8-2.8-6.6-4.4-10.6-4.4s-7.8,1.6-10.6,4.4c-2.8,2.8-4.4,6.6-4.4,10.6c0,4,1.6,7.8,4.4,10.6
							C1064.6,409.1,1068.4,410.7,1072.4,410.7z"/>
					</g>
				</g>
			</g>
		</g>
		<g id="Horizontal_Axis">
			<path class="st15" d="M205.8,852.2h892.8"/>
		</g>
		<g id="Vertical_Axis">
			<path class="st15" d="M205.8,852.2v-715"/>
		</g>
	</g>
</g>
</svg>
