<?xml version="1.0" encoding="utf-8"?>
<!-- Generator: Adobe Illustrator 20.1.0, SVG Export Plug-In . SVG Version: 6.00 Build 0)  -->
<svg version="1.1" id="Layer_1" xmlns="http://www.w3.org/2000/svg" xmlns:xlink="http://www.w3.org/1999/xlink" x="0px" y="0px"
	 viewBox="0 0 1728 866" style="enable-background:new 0 0 1728 866;" xml:space="preserve">
<style type="text/css">
	.st0{fill:#FFFFFF;}
	.st1{fill:none;stroke:#262626;stroke-width:1.6;stroke-linejoin:round;stroke-miterlimit:10;}
	.st2{fill:#262626;}
	.st3{font-family:'ArialMT';}
	.st4{font-size:36px;}
	
		.st5{clip-path:url(#SVGID_2_);fill:none;stroke:#000000;stroke-width:4;stroke-linecap:round;stroke-linejoin:round;stroke-miterlimit:10;}
	.st6{clip-path:url(#SVGID_4_);fill:none;stroke:#000000;stroke-linejoin:round;stroke-miterlimit:10;}
	.st7{clip-path:url(#SVGID_6_);fill:none;stroke:#000000;stroke-linejoin:round;stroke-miterlimit:10;}
	.st8{clip-path:url(#SVGID_8_);fill:none;stroke:#000000;stroke-linejoin:round;stroke-miterlimit:10;}
	.st9{clip-path:url(#SVGID_10_);fill:none;stroke:#000000;stroke-linejoin:round;stroke-miterlimit:10;}
	.st10{clip-path:url(#SVGID_12_);}
	.st11{fill:none;stroke:#000000;stroke-width:2;stroke-linejoin:round;stroke-miterlimit:10;}
	.st12{clip-path:url(#SVGID_14_);}
	.st13{clip-path:url(#SVGID_16_);}
	.st14{clip-path:url(#SVGID_18_);}
	.st15{clip-path:url(#SVGID_20_);}
	.st16{fill:none;stroke:#000000;stroke-width:2;stroke-miterlimit:10;}
	.st17{clip-path:url(#SVGID_22_);fill:none;stroke:#000000;stroke-linejoin:round;stroke-miterlimit:10;}
	.st18{clip-path:url(#SVGID_24_);fill:none;stroke:#000000;stroke-linejoin:round;stroke-miterlimit:10;}
	.st19{clip-path:url(#SVGID_26_);fill:none;stroke:#000000;stroke-linejoin:round;stroke-miterlimit:10;}
	.st20{clip-path:url(#SVGID_28_);fill:none;stroke:#000000;stroke-linejoin:round;stroke-miterlimit:10;}
	.st21{clip-path:url(#SVGID_30_);fill:none;stroke:#000000;stroke-linejoin:round;stroke-miterlimit:10;}
	.st22{clip-path:url(#SVGID_32_);fill:none;stroke:#000000;stroke-linejoin:round;stroke-miterlimit:10;}
	.st23{clip-path:url(#SVGID_34_);fill:none;stroke:#000000;stroke-linejoin:round;stroke-miterlimit:10;}
	.st24{clip-path:url(#SVGID_36_);fill:none;stroke:#000000;stroke-linejoin:round;stroke-miterlimit:10;}
	.st25{clip-path:url(#SVGID_38_);}
	.st26{clip-path:url(#SVGID_40_);}
	.st27{clip-path:url(#SVGID_42_);}
	.st28{clip-path:url(#SVGID_44_);}
	.st29{clip-path:url(#SVGID_46_);}
	.st30{clip-path:url(#SVGID_48_);fill:none;stroke:#000000;stroke-linejoin:round;stroke-miterlimit:10;}
	.st31{clip-path:url(#SVGID_50_);fill:none;stroke:#000000;stroke-linejoin:round;stroke-miterlimit:10;}
	.st32{clip-path:url(#SVGID_52_);fill:none;stroke:#000000;stroke-linejoin:round;stroke-miterlimit:10;}
	.st33{clip-path:url(#SVGID_54_);fill:none;stroke:#000000;stroke-linejoin:round;stroke-miterlimit:10;}
	.st34{clip-path:url(#SVGID_56_);fill:none;stroke:#000000;stroke-linejoin:round;stroke-miterlimit:10;}
	.st35{clip-path:url(#SVGID_58_);fill:none;stroke:#000000;stroke-linejoin:round;stroke-miterlimit:10;}
	.st36{clip-path:url(#SVGID_60_);fill:none;stroke:#000000;stroke-linejoin:round;stroke-miterlimit:10;}
	.st37{clip-path:url(#SVGID_62_);fill:none;stroke:#000000;stroke-linejoin:round;stroke-miterlimit:10;}
	.st38{clip-path:url(#SVGID_64_);}
	.st39{clip-path:url(#SVGID_66_);}
	.st40{clip-path:url(#SVGID_68_);}
	.st41{clip-path:url(#SVGID_70_);}
	.st42{clip-path:url(#SVGID_72_);}
	.st43{clip-path:url(#SVGID_74_);fill:none;stroke:#000000;stroke-linejoin:round;stroke-miterlimit:10;}
	.st44{clip-path:url(#SVGID_76_);fill:none;stroke:#000000;stroke-linejoin:round;stroke-miterlimit:10;}
	.st45{clip-path:url(#SVGID_78_);fill:none;stroke:#000000;stroke-linejoin:round;stroke-miterlimit:10;}
	.st46{clip-path:url(#SVGID_80_);fill:none;stroke:#000000;stroke-linejoin:round;stroke-miterlimit:10;}
	.st47{clip-path:url(#SVGID_82_);fill:none;stroke:#000000;stroke-linejoin:round;stroke-miterlimit:10;}
	.st48{clip-path:url(#SVGID_84_);fill:none;stroke:#000000;stroke-linejoin:round;stroke-miterlimit:10;}
	.st49{clip-path:url(#SVGID_86_);fill:none;stroke:#000000;stroke-linejoin:round;stroke-miterlimit:10;}
	.st50{clip-path:url(#SVGID_88_);fill:none;stroke:#000000;stroke-linejoin:round;stroke-miterlimit:10;}
	.st51{clip-path:url(#SVGID_90_);}
	.st52{clip-path:url(#SVGID_92_);}
	.st53{clip-path:url(#SVGID_94_);}
	.st54{clip-path:url(#SVGID_96_);}
	.st55{clip-path:url(#SVGID_98_);}
	.st56{fill:none;stroke:#262626;stroke-width:1.25;stroke-linecap:square;stroke-miterlimit:10;}
	.st57{fill:none;stroke:#000000;stroke-width:4;stroke-linecap:round;stroke-linejoin:round;stroke-miterlimit:10;}
</style>
<g id="figure_1">
	<g id="patch_1">
		<path class="st0" d="M0,866.7h1728V0H0V866.7z"/>
	</g>
	<g id="axes_1">
		<g id="patch_2">
			<path class="st0" d="M216,780h1339.2V86.7H216V780z"/>
		</g>
		<g id="matplotlib.axis_1">
			<g id="xtick_1">
				<g id="line2d_1">
					<g>
						<g>
							<path id="mb31f843844" class="st1" d="M216,780v6"/>
						</g>
					</g>
				</g>
				<g id="text_1">
					<text transform="matrix(1 0 0 1 205.8815 820.0211)" class="st2 st3 st4">2</text>
				</g>
			</g>
			<g id="xtick_2">
				<g id="line2d_2">
					<g>
						<g>
							<path id="mb31f843844_1_" class="st1" d="M383.4,780v6"/>
						</g>
					</g>
				</g>
				<g id="text_2">
					<text transform="matrix(1 0 0 1 373.2815 820.0211)" class="st2 st3 st4">3</text>
				</g>
			</g>
			<g id="xtick_3">
				<g id="line2d_3">
					<g>
						<g>
							<path id="mb31f843844_2_" class="st1" d="M550.8,780v6"/>
						</g>
					</g>
				</g>
				<g id="text_3">
					<text transform="matrix(1 0 0 1 540.6815 820.0211)" class="st2 st3 st4">4</text>
				</g>
			</g>
			<g id="xtick_4">
				<g id="line2d_4">
					<g>
						<g>
							<path id="mb31f843844_3_" class="st1" d="M718.2,780v6"/>
						</g>
					</g>
				</g>
				<g id="text_4">
					<text transform="matrix(1 0 0 1 708.0815 820.0211)" class="st2 st3 st4">5</text>
				</g>
			</g>
			<g id="xtick_5">
				<g id="line2d_5">
					<g>
						<g>
							<path id="mb31f843844_4_" class="st1" d="M885.6,780v6"/>
						</g>
					</g>
				</g>
				<g id="text_5">
					<text transform="matrix(1 0 0 1 875.4814 820.0211)" class="st2 st3 st4">6</text>
				</g>
			</g>
			<g id="xtick_6">
				<g id="line2d_6">
					<g>
						<g>
							<path id="mb31f843844_5_" class="st1" d="M1053,780v6"/>
						</g>
					</g>
				</g>
				<g id="text_6">
					<text transform="matrix(1 0 0 1 1042.8815 820.0211)" class="st2 st3 st4">7</text>
				</g>
			</g>
			<g id="xtick_7">
				<g id="line2d_7">
					<g>
						<g>
							<path id="mb31f843844_6_" class="st1" d="M1220.4,780v6"/>
						</g>
					</g>
				</g>
				<g id="text_7">
					<text transform="matrix(1 0 0 1 1210.2815 820.0211)" class="st2 st3 st4">8</text>
				</g>
			</g>
			<g id="xtick_8">
				<g id="line2d_8">
					<g>
						<g>
							<path id="mb31f843844_7_" class="st1" d="M1387.8,780v6"/>
						</g>
					</g>
				</g>
				<g id="text_8">
					<text transform="matrix(1 0 0 1 1377.6815 820.0211)" class="st2 st3 st4">9</text>
				</g>
			</g>
			<g id="xtick_9">
				<g id="line2d_9">
					<g>
						<g>
							<path id="mb31f843844_8_" class="st1" d="M1555.2,780v6"/>
						</g>
					</g>
				</g>
				<g id="text_9">
					<text transform="matrix(1 0 0 1 1540.6322 820.0211)" class="st2 st3 st4">10</text>
				</g>
			</g>
			<g id="text_10">
				<text transform="matrix(1 0 0 1 865.8469 854.972)" class="st2 st3 st4">pH</text>
			</g>
		</g>
		<g id="matplotlib.axis_2">
			<g id="ytick_1">
				<g id="line2d_10">
					<g>
						<g>
							<path id="m5e4dbe0018" class="st1" d="M216,773.2h-6"/>
						</g>
					</g>
				</g>
				<g id="text_11">
					<text transform="matrix(1 0 0 1 153.8806 785.8052)" class="st2 st3 st4">0.0</text>
				</g>
			</g>
			<g id="ytick_2">
				<g id="line2d_11">
					<g>
						<g>
							<path id="m5e4dbe0018_1_" class="st1" d="M216,635.9h-6"/>
						</g>
					</g>
				</g>
				<g id="text_12">
					<text transform="matrix(1 0 0 1 153.8806 648.5062)" class="st2 st3 st4">0.2</text>
				</g>
			</g>
			<g id="ytick_3">
				<g id="line2d_12">
					<g>
						<g>
							<path id="m5e4dbe0018_2_" class="st1" d="M216,498.6h-6"/>
						</g>
					</g>
				</g>
				<g id="text_13">
					<text transform="matrix(1 0 0 1 153.8806 511.2072)" class="st2 st3 st4">0.4</text>
				</g>
			</g>
			<g id="ytick_4">
				<g id="line2d_13">
					<g>
						<g>
							<path id="m5e4dbe0018_3_" class="st1" d="M216,361.3h-6"/>
						</g>
					</g>
				</g>
				<g id="text_14">
					<text transform="matrix(1 0 0 1 153.8806 373.9082)" class="st2 st3 st4">0.6</text>
				</g>
			</g>
			<g id="ytick_5">
				<g id="line2d_14">
					<g>
						<g>
							<path id="m5e4dbe0018_4_" class="st1" d="M216,224h-6"/>
						</g>
					</g>
				</g>
				<g id="text_15">
					<text transform="matrix(1 0 0 1 153.8806 236.6092)" class="st2 st3 st4">0.8</text>
				</g>
			</g>
			<g id="ytick_6">
				<g id="text_16">
					<text transform="matrix(1 0 0 1 153.8806 99.3102)" class="st2 st3 st4">1.0</text>
				</g>
			</g>
			<g id="text_17">
				<text transform="matrix(6.123234e-17 -1 1 6.123234e-17 128.3768 561.1639)" class="st2 st3 st4">Fraction Sorbed</text>
			</g>
		</g>
		<g id="Data_Fit">
			<g>
				<defs>
					<rect id="SVGID_1_" x="216" y="86.7" width="1339.2" height="693.4"/>
				</defs>
				<clipPath id="SVGID_2_">
					<use xlink:href="#SVGID_1_"  style="overflow:visible;"/>
				</clipPath>
				<path class="st5" d="M216,334.1l16.7-0.4l16.7-0.4l16.7-0.4l16.7-0.5l16.7-0.6l16.7-0.7l16.7-0.9l16.7-1.1l16.7-1.3l16.7-1.6
					l16.7-1.9l16.7-2.3l16.7-2.8l16.7-3.4l16.7-4l16.7-4.6l16.7-5.3l16.7-6l16.7-6.7l16.7-7.2l16.7-7.7l16.7-8l16.7-8.1l16.7-8
					l16.7-7.7l16.7-7.3l16.7-6.7l16.7-6.1l16.7-5.4l16.7-4.8l16.7-4.1l16.7-3.5l16.7-2.9l16.7-2.5l16.7-2l16.7-1.7l16.7-1.4
					l16.7-1.1l16.7-0.9l16.7-0.8l16.7-0.6l16.7-0.5l16.7-0.5l16.7-0.4l16.7-0.4l16.7-0.4l16.7-0.4l16.7-0.4l16.7-0.4l16.7-0.5
					l16.7-0.5l16.7-0.6l16.7-0.7l16.7-0.7l16.7-0.8l16.7-0.9l16.7-0.9l16.7-1l16.7-1l16.7-1l16.7-1l16.7-0.9l16.7-0.8l16.7-0.8
					l16.7-0.7l16.7-0.6l16.7-0.5l16.7-0.4l16.7-0.4l16.7-0.3l16.7-0.2l16.7-0.2l16.7-0.1l16.7-0.1l16.7-0.1l16.7,0l16.7,0l16.7,0
					l16.7,0l16.7,0"/>
			</g>
		</g>
		<g id="_x35_0_Bq_Error_Bars">
			<g id="LineCollection_1">
				<g>
					<defs>
						<rect id="SVGID_3_" x="216" y="86.7" width="1339.2" height="693.4"/>
					</defs>
					<clipPath id="SVGID_4_">
						<use xlink:href="#SVGID_3_"  style="overflow:visible;"/>
					</clipPath>
					<path class="st6" d="M383,343h1.9"/>
				</g>
				<g>
					<defs>
						<rect id="SVGID_5_" x="216" y="86.7" width="1339.2" height="693.4"/>
					</defs>
					<clipPath id="SVGID_6_">
						<use xlink:href="#SVGID_5_"  style="overflow:visible;"/>
					</clipPath>
					<path class="st7" d="M716.7,230h1.9"/>
				</g>
			</g>
			<g id="LineCollection_2">
				<g>
					<defs>
						<rect id="SVGID_7_" x="216" y="86.7" width="1339.2" height="693.4"/>
					</defs>
					<clipPath id="SVGID_8_">
						<use xlink:href="#SVGID_7_"  style="overflow:visible;"/>
					</clipPath>
					<path class="st8" d="M384,363.1v-40.2"/>
				</g>
				<g>
					<defs>
						<rect id="SVGID_9_" x="216" y="86.7" width="1339.2" height="693.4"/>
					</defs>
					<clipPath id="SVGID_10_">
						<use xlink:href="#SVGID_9_"  style="overflow:visible;"/>
					</clipPath>
					<path class="st9" d="M717.6,236v-12"/>
				</g>
			</g>
			<g id="line2d_16">
				<g>
					<defs>
						<rect id="SVGID_11_" x="216" y="86.7" width="1339.2" height="693.4"/>
					</defs>
					<clipPath id="SVGID_12_">
						<use xlink:href="#SVGID_11_"  style="overflow:visible;"/>
					</clipPath>
					<g class="st10">
						<g>
							<path id="m7ad0966406" class="st11" d="M383,348v-10"/>
						</g>
						<g>
							<path id="m7ad0966406_1_" class="st11" d="M716.7,235v-10"/>
						</g>
					</g>
				</g>
			</g>
			<g id="line2d_17">
				<g>
					<defs>
						<rect id="SVGID_13_" x="216" y="86.7" width="1339.2" height="693.4"/>
					</defs>
					<clipPath id="SVGID_14_">
						<use xlink:href="#SVGID_13_"  style="overflow:visible;"/>
					</clipPath>
					<g class="st12">
						<g>
							<path id="m7ad0966406_2_" class="st11" d="M384.9,348v-10"/>
						</g>
						<g>
							<path id="m7ad0966406_3_" class="st11" d="M718.6,235v-10"/>
						</g>
					</g>
				</g>
			</g>
			<g id="line2d_18">
				<g>
					<defs>
						<rect id="SVGID_15_" x="216" y="86.7" width="1339.2" height="693.4"/>
					</defs>
					<clipPath id="SVGID_16_">
						<use xlink:href="#SVGID_15_"  style="overflow:visible;"/>
					</clipPath>
					<g class="st13">
						<g>
							<path id="m70999d2f4b" class="st11" d="M389,363.1h-10"/>
						</g>
						<g>
							<path id="m70999d2f4b_1_" class="st11" d="M722.6,236h-10"/>
						</g>
					</g>
				</g>
			</g>
			<g id="line2d_19">
				<g>
					<defs>
						<rect id="SVGID_17_" x="216" y="86.7" width="1339.2" height="693.4"/>
					</defs>
					<clipPath id="SVGID_18_">
						<use xlink:href="#SVGID_17_"  style="overflow:visible;"/>
					</clipPath>
					<g class="st14">
						<g>
							<path id="m70999d2f4b_2_" class="st11" d="M389,322.9h-10"/>
						</g>
						<g>
							<path id="m70999d2f4b_3_" class="st11" d="M722.6,224h-10"/>
						</g>
					</g>
				</g>
			</g>
		</g>
		<g id="_x35_0_Bq_Data_Points">
			<g>
				<defs>
					<rect id="SVGID_19_" x="216" y="86.7" width="1339.2" height="693.4"/>
				</defs>
				<clipPath id="SVGID_20_">
					<use xlink:href="#SVGID_19_"  style="overflow:visible;"/>
				</clipPath>
				<g class="st15">
					<g>
						<path id="mf320d49dd5" class="st16" d="M384,328.5l-14.3,10.4l5.4,16.8h17.6l5.4-16.8L384,328.5z"/>
					</g>
					<g>
						<path id="mf320d49dd5_1_" class="st16" d="M717.6,215.5l-14.3,10.4l5.4,16.8h17.6l5.4-16.8L717.6,215.5z"/>
					</g>
				</g>
			</g>
		</g>
		<g id="_x31_00_Bq_Error_Bars">
			<g id="LineCollection_3">
				<g>
					<defs>
						<rect id="SVGID_21_" x="216" y="86.7" width="1339.2" height="693.4"/>
					</defs>
					<clipPath id="SVGID_22_">
						<use xlink:href="#SVGID_21_"  style="overflow:visible;"/>
					</clipPath>
					<path class="st17" d="M382.3,330h1.1"/>
				</g>
				<g>
					<defs>
						<rect id="SVGID_23_" x="216" y="86.7" width="1339.2" height="693.4"/>
					</defs>
					<clipPath id="SVGID_24_">
						<use xlink:href="#SVGID_23_"  style="overflow:visible;"/>
					</clipPath>
					<path class="st18" d="M717.2,213.6h5.3"/>
				</g>
				<g>
					<defs>
						<rect id="SVGID_25_" x="216" y="86.7" width="1339.2" height="693.4"/>
					</defs>
					<clipPath id="SVGID_26_">
						<use xlink:href="#SVGID_25_"  style="overflow:visible;"/>
					</clipPath>
					<path class="st19" d="M1051.9,190h2.2"/>
				</g>
				<g>
					<defs>
						<rect id="SVGID_27_" x="216" y="86.7" width="1339.2" height="693.4"/>
					</defs>
					<clipPath id="SVGID_28_">
						<use xlink:href="#SVGID_27_"  style="overflow:visible;"/>
					</clipPath>
					<path class="st20" d="M1385.3,182.1h3.8"/>
				</g>
			</g>
			<g id="LineCollection_4">
				<g>
					<defs>
						<rect id="SVGID_29_" x="216" y="86.7" width="1339.2" height="693.4"/>
					</defs>
					<clipPath id="SVGID_30_">
						<use xlink:href="#SVGID_29_"  style="overflow:visible;"/>
					</clipPath>
					<path class="st21" d="M382.8,342.2v-24.4"/>
				</g>
				<g>
					<defs>
						<rect id="SVGID_31_" x="216" y="86.7" width="1339.2" height="693.4"/>
					</defs>
					<clipPath id="SVGID_32_">
						<use xlink:href="#SVGID_31_"  style="overflow:visible;"/>
					</clipPath>
					<path class="st22" d="M719.9,221.3V206"/>
				</g>
				<g>
					<defs>
						<rect id="SVGID_33_" x="216" y="86.7" width="1339.2" height="693.4"/>
					</defs>
					<clipPath id="SVGID_34_">
						<use xlink:href="#SVGID_33_"  style="overflow:visible;"/>
					</clipPath>
					<path class="st23" d="M1053,197.3v-14.7"/>
				</g>
				<g>
					<defs>
						<rect id="SVGID_35_" x="216" y="86.7" width="1339.2" height="693.4"/>
					</defs>
					<clipPath id="SVGID_36_">
						<use xlink:href="#SVGID_35_"  style="overflow:visible;"/>
					</clipPath>
					<path class="st24" d="M1387.2,184.3v-4.3"/>
				</g>
			</g>
			<g id="line2d_21">
				<g>
					<defs>
						<rect id="SVGID_37_" x="216" y="86.7" width="1339.2" height="693.4"/>
					</defs>
					<clipPath id="SVGID_38_">
						<use xlink:href="#SVGID_37_"  style="overflow:visible;"/>
					</clipPath>
					<g class="st25">
						<g>
							<path id="m7ad0966406_4_" class="st11" d="M382.3,335v-10"/>
						</g>
						<g>
							<path id="m7ad0966406_5_" class="st11" d="M717.2,218.6v-10"/>
						</g>
						<g>
							<path id="m7ad0966406_6_" class="st11" d="M1051.9,195v-10"/>
						</g>
						<g>
							<path id="m7ad0966406_7_" class="st11" d="M1385.3,187.1v-10"/>
						</g>
					</g>
				</g>
			</g>
			<g id="line2d_22">
				<g>
					<defs>
						<rect id="SVGID_39_" x="216" y="86.7" width="1339.2" height="693.4"/>
					</defs>
					<clipPath id="SVGID_40_">
						<use xlink:href="#SVGID_39_"  style="overflow:visible;"/>
					</clipPath>
					<g class="st26">
						<g>
							<path id="m7ad0966406_8_" class="st11" d="M383.4,335v-10"/>
						</g>
						<g>
							<path id="m7ad0966406_9_" class="st11" d="M722.5,218.6v-10"/>
						</g>
						<g>
							<path id="m7ad0966406_10_" class="st11" d="M1054.1,195v-10"/>
						</g>
						<g>
							<path id="m7ad0966406_11_" class="st11" d="M1389.1,187.1v-10"/>
						</g>
					</g>
				</g>
			</g>
			<g id="line2d_23">
				<g>
					<defs>
						<rect id="SVGID_41_" x="216" y="86.7" width="1339.2" height="693.4"/>
					</defs>
					<clipPath id="SVGID_42_">
						<use xlink:href="#SVGID_41_"  style="overflow:visible;"/>
					</clipPath>
					<g class="st27">
						<g>
							<path id="m70999d2f4b_4_" class="st11" d="M387.8,342.2h-10"/>
						</g>
						<g>
							<path id="m70999d2f4b_5_" class="st11" d="M724.9,221.3h-10"/>
						</g>
						<g>
							<path id="m70999d2f4b_6_" class="st11" d="M1058,197.3h-10"/>
						</g>
						<g>
							<path id="m70999d2f4b_7_" class="st11" d="M1392.2,184.3h-10"/>
						</g>
					</g>
				</g>
			</g>
			<g id="line2d_24">
				<g>
					<defs>
						<rect id="SVGID_43_" x="216" y="86.7" width="1339.2" height="693.4"/>
					</defs>
					<clipPath id="SVGID_44_">
						<use xlink:href="#SVGID_43_"  style="overflow:visible;"/>
					</clipPath>
					<g class="st28">
						<g>
							<path id="m70999d2f4b_8_" class="st11" d="M387.8,317.8h-10"/>
						</g>
						<g>
							<path id="m70999d2f4b_9_" class="st11" d="M724.9,206h-10"/>
						</g>
						<g>
							<path id="m70999d2f4b_10_" class="st11" d="M1058,182.6h-10"/>
						</g>
						<g>
							<path id="m70999d2f4b_11_" class="st11" d="M1392.2,179.9h-10"/>
						</g>
					</g>
				</g>
			</g>
		</g>
		<g id="_x31_00_Bq_Data_Points">
			<g>
				<defs>
					<rect id="SVGID_45_" x="216" y="86.7" width="1339.2" height="693.4"/>
				</defs>
				<clipPath id="SVGID_46_">
					<use xlink:href="#SVGID_45_"  style="overflow:visible;"/>
				</clipPath>
				<g class="st29">
					<g>
						<path id="m5318a0a33b" class="st16" d="M367.8,345h30v-30h-30V345z"/>
					</g>
					<g>
						<path id="m5318a0a33b_1_" class="st16" d="M704.9,228.6h30v-30h-30V228.6z"/>
					</g>
					<g>
						<path id="m5318a0a33b_2_" class="st16" d="M1038,205h30v-30h-30V205z"/>
					</g>
					<g>
						<path id="m5318a0a33b_3_" class="st16" d="M1372.2,197.1h30v-30h-30V197.1z"/>
					</g>
				</g>
			</g>
		</g>
		<g id="_x32_50_Bq_Error_Bars">
			<g id="LineCollection_5">
				<g>
					<defs>
						<rect id="SVGID_47_" x="216" y="86.7" width="1339.2" height="693.4"/>
					</defs>
					<clipPath id="SVGID_48_">
						<use xlink:href="#SVGID_47_"  style="overflow:visible;"/>
					</clipPath>
					<path class="st30" d="M381.9,312.7h1.9"/>
				</g>
				<g>
					<defs>
						<rect id="SVGID_49_" x="216" y="86.7" width="1339.2" height="693.4"/>
					</defs>
					<clipPath id="SVGID_50_">
						<use xlink:href="#SVGID_49_"  style="overflow:visible;"/>
					</clipPath>
					<path class="st31" d="M716.5,195.3h3.3"/>
				</g>
				<g>
					<defs>
						<rect id="SVGID_51_" x="216" y="86.7" width="1339.2" height="693.4"/>
					</defs>
					<clipPath id="SVGID_52_">
						<use xlink:href="#SVGID_51_"  style="overflow:visible;"/>
					</clipPath>
					<path class="st32" d="M1053,184.5L1053,184.5"/>
				</g>
				<g>
					<defs>
						<rect id="SVGID_53_" x="216" y="86.7" width="1339.2" height="693.4"/>
					</defs>
					<clipPath id="SVGID_54_">
						<use xlink:href="#SVGID_53_"  style="overflow:visible;"/>
					</clipPath>
					<path class="st33" d="M1386.1,161.4L1386.1,161.4"/>
				</g>
			</g>
			<g id="LineCollection_6">
				<g>
					<defs>
						<rect id="SVGID_55_" x="216" y="86.7" width="1339.2" height="693.4"/>
					</defs>
					<clipPath id="SVGID_56_">
						<use xlink:href="#SVGID_55_"  style="overflow:visible;"/>
					</clipPath>
					<path class="st34" d="M382.8,325v-24.5"/>
				</g>
				<g>
					<defs>
						<rect id="SVGID_57_" x="216" y="86.7" width="1339.2" height="693.4"/>
					</defs>
					<clipPath id="SVGID_58_">
						<use xlink:href="#SVGID_57_"  style="overflow:visible;"/>
					</clipPath>
					<path class="st35" d="M718.2,197.3v-4.1"/>
				</g>
				<g>
					<defs>
						<rect id="SVGID_59_" x="216" y="86.7" width="1339.2" height="693.4"/>
					</defs>
					<clipPath id="SVGID_60_">
						<use xlink:href="#SVGID_59_"  style="overflow:visible;"/>
					</clipPath>
					<path class="st36" d="M1053,186.4v-3.9"/>
				</g>
				<g>
					<defs>
						<rect id="SVGID_61_" x="216" y="86.7" width="1339.2" height="693.4"/>
					</defs>
					<clipPath id="SVGID_62_">
						<use xlink:href="#SVGID_61_"  style="overflow:visible;"/>
					</clipPath>
					<path class="st37" d="M1386.1,168v-13.2"/>
				</g>
			</g>
			<g id="line2d_26">
				<g>
					<defs>
						<rect id="SVGID_63_" x="216" y="86.7" width="1339.2" height="693.4"/>
					</defs>
					<clipPath id="SVGID_64_">
						<use xlink:href="#SVGID_63_"  style="overflow:visible;"/>
					</clipPath>
					<g class="st38">
						<g>
							<path id="m7ad0966406_12_" class="st11" d="M381.9,317.7v-10"/>
						</g>
						<g>
							<path id="m7ad0966406_13_" class="st11" d="M716.5,200.3v-10"/>
						</g>
						<g>
							<path id="m7ad0966406_14_" class="st11" d="M1053,189.5v-10"/>
						</g>
						<g>
							<path id="m7ad0966406_15_" class="st11" d="M1386.1,166.4v-10"/>
						</g>
					</g>
				</g>
			</g>
			<g id="line2d_27">
				<g>
					<defs>
						<rect id="SVGID_65_" x="216" y="86.7" width="1339.2" height="693.4"/>
					</defs>
					<clipPath id="SVGID_66_">
						<use xlink:href="#SVGID_65_"  style="overflow:visible;"/>
					</clipPath>
					<g class="st39">
						<g>
							<path id="m7ad0966406_16_" class="st11" d="M383.8,317.7v-10"/>
						</g>
						<g>
							<path id="m7ad0966406_17_" class="st11" d="M719.9,200.3v-10"/>
						</g>
						<g>
							<path id="m7ad0966406_18_" class="st11" d="M1053,189.5v-10"/>
						</g>
						<g>
							<path id="m7ad0966406_19_" class="st11" d="M1386.1,166.4v-10"/>
						</g>
					</g>
				</g>
			</g>
			<g id="line2d_28">
				<g>
					<defs>
						<rect id="SVGID_67_" x="216" y="86.7" width="1339.2" height="693.4"/>
					</defs>
					<clipPath id="SVGID_68_">
						<use xlink:href="#SVGID_67_"  style="overflow:visible;"/>
					</clipPath>
					<g class="st40">
						<g>
							<path id="m70999d2f4b_12_" class="st11" d="M387.8,325h-10"/>
						</g>
						<g>
							<path id="m70999d2f4b_13_" class="st11" d="M723.2,197.3h-10"/>
						</g>
						<g>
							<path id="m70999d2f4b_14_" class="st11" d="M1058,186.4h-10"/>
						</g>
						<g>
							<path id="m70999d2f4b_15_" class="st11" d="M1391.1,168h-10"/>
						</g>
					</g>
				</g>
			</g>
			<g id="line2d_29">
				<g>
					<defs>
						<rect id="SVGID_69_" x="216" y="86.7" width="1339.2" height="693.4"/>
					</defs>
					<clipPath id="SVGID_70_">
						<use xlink:href="#SVGID_69_"  style="overflow:visible;"/>
					</clipPath>
					<g class="st41">
						<g>
							<path id="m70999d2f4b_16_" class="st11" d="M387.8,300.5h-10"/>
						</g>
						<g>
							<path id="m70999d2f4b_17_" class="st11" d="M723.2,193.3h-10"/>
						</g>
						<g>
							<path id="m70999d2f4b_18_" class="st11" d="M1058,182.6h-10"/>
						</g>
						<g>
							<path id="m70999d2f4b_19_" class="st11" d="M1391.1,154.8h-10"/>
						</g>
					</g>
				</g>
			</g>
		</g>
		<g id="_x32_50_Bq_Data_Points">
			<g>
				<defs>
					<rect id="SVGID_71_" x="216" y="86.7" width="1339.2" height="693.4"/>
				</defs>
				<clipPath id="SVGID_72_">
					<use xlink:href="#SVGID_71_"  style="overflow:visible;"/>
				</clipPath>
				<g class="st42">
					<g>
						<path id="m7f5f580c4d" class="st16" d="M382.8,297.7l-15,30h30L382.8,297.7z"/>
					</g>
					<g>
						<path id="m7f5f580c4d_1_" class="st16" d="M718.2,180.3l-15,30h30L718.2,180.3z"/>
					</g>
					<g>
						<path id="m7f5f580c4d_2_" class="st16" d="M1053,169.5l-15,30h30L1053,169.5z"/>
					</g>
					<g>
						<path id="m7f5f580c4d_3_" class="st16" d="M1386.1,146.4l-15,30h30L1386.1,146.4z"/>
					</g>
				</g>
			</g>
		</g>
		<g id="_x35_00_Bq_Error_Bars">
			<g id="LineCollection_7">
				<g>
					<defs>
						<rect id="SVGID_73_" x="216" y="86.7" width="1339.2" height="693.4"/>
					</defs>
					<clipPath id="SVGID_74_">
						<use xlink:href="#SVGID_73_"  style="overflow:visible;"/>
					</clipPath>
					<path class="st43" d="M381.3,316.8h1.9"/>
				</g>
				<g>
					<defs>
						<rect id="SVGID_75_" x="216" y="86.7" width="1339.2" height="693.4"/>
					</defs>
					<clipPath id="SVGID_76_">
						<use xlink:href="#SVGID_75_"  style="overflow:visible;"/>
					</clipPath>
					<path class="st44" d="M718.2,198.8L718.2,198.8"/>
				</g>
				<g>
					<defs>
						<rect id="SVGID_77_" x="216" y="86.7" width="1339.2" height="693.4"/>
					</defs>
					<clipPath id="SVGID_78_">
						<use xlink:href="#SVGID_77_"  style="overflow:visible;"/>
					</clipPath>
					<path class="st45" d="M1052.6,180.8h1.9"/>
				</g>
				<g>
					<defs>
						<rect id="SVGID_79_" x="216" y="86.7" width="1339.2" height="693.4"/>
					</defs>
					<clipPath id="SVGID_80_">
						<use xlink:href="#SVGID_79_"  style="overflow:visible;"/>
					</clipPath>
					<path class="st46" d="M1386.1,174.1L1386.1,174.1"/>
				</g>
			</g>
			<g id="LineCollection_8">
				<g>
					<defs>
						<rect id="SVGID_81_" x="216" y="86.7" width="1339.2" height="693.4"/>
					</defs>
					<clipPath id="SVGID_82_">
						<use xlink:href="#SVGID_81_"  style="overflow:visible;"/>
					</clipPath>
					<path class="st47" d="M382.3,328.6V305"/>
				</g>
				<g>
					<defs>
						<rect id="SVGID_83_" x="216" y="86.7" width="1339.2" height="693.4"/>
					</defs>
					<clipPath id="SVGID_84_">
						<use xlink:href="#SVGID_83_"  style="overflow:visible;"/>
					</clipPath>
					<path class="st48" d="M718.2,203.2v-8.9"/>
				</g>
				<g>
					<defs>
						<rect id="SVGID_85_" x="216" y="86.7" width="1339.2" height="693.4"/>
					</defs>
					<clipPath id="SVGID_86_">
						<use xlink:href="#SVGID_85_"  style="overflow:visible;"/>
					</clipPath>
					<path class="st49" d="M1053.6,192.5V169"/>
				</g>
				<g>
					<defs>
						<rect id="SVGID_87_" x="216" y="86.7" width="1339.2" height="693.4"/>
					</defs>
					<clipPath id="SVGID_88_">
						<use xlink:href="#SVGID_87_"  style="overflow:visible;"/>
					</clipPath>
					<path class="st50" d="M1386.1,178.3v-8.5"/>
				</g>
			</g>
			<g id="line2d_31">
				<g>
					<defs>
						<rect id="SVGID_89_" x="216" y="86.7" width="1339.2" height="693.4"/>
					</defs>
					<clipPath id="SVGID_90_">
						<use xlink:href="#SVGID_89_"  style="overflow:visible;"/>
					</clipPath>
					<g class="st51">
						<g>
							<path id="m7ad0966406_20_" class="st11" d="M381.3,321.8v-10"/>
						</g>
						<g>
							<path id="m7ad0966406_21_" class="st11" d="M718.2,203.8v-10"/>
						</g>
						<g>
							<path id="m7ad0966406_22_" class="st11" d="M1052.6,185.8v-10"/>
						</g>
						<g>
							<path id="m7ad0966406_23_" class="st11" d="M1386.1,179.1v-10"/>
						</g>
					</g>
				</g>
			</g>
			<g id="line2d_32">
				<g>
					<defs>
						<rect id="SVGID_91_" x="216" y="86.7" width="1339.2" height="693.4"/>
					</defs>
					<clipPath id="SVGID_92_">
						<use xlink:href="#SVGID_91_"  style="overflow:visible;"/>
					</clipPath>
					<g class="st52">
						<g>
							<path id="m7ad0966406_24_" class="st11" d="M383.3,321.8v-10"/>
						</g>
						<g>
							<path id="m7ad0966406_25_" class="st11" d="M718.2,203.8v-10"/>
						</g>
						<g>
							<path id="m7ad0966406_26_" class="st11" d="M1054.5,185.8v-10"/>
						</g>
						<g>
							<path id="m7ad0966406_27_" class="st11" d="M1386.1,179.1v-10"/>
						</g>
					</g>
				</g>
			</g>
			<g id="line2d_33">
				<g>
					<defs>
						<rect id="SVGID_93_" x="216" y="86.7" width="1339.2" height="693.4"/>
					</defs>
					<clipPath id="SVGID_94_">
						<use xlink:href="#SVGID_93_"  style="overflow:visible;"/>
					</clipPath>
					<g class="st53">
						<g>
							<path id="m70999d2f4b_20_" class="st11" d="M387.3,328.6h-10"/>
						</g>
						<g>
							<path id="m70999d2f4b_21_" class="st11" d="M723.2,203.2h-10"/>
						</g>
						<g>
							<path id="m70999d2f4b_22_" class="st11" d="M1058.6,192.5h-10"/>
						</g>
						<g>
							<path id="m70999d2f4b_23_" class="st11" d="M1391.1,178.3h-10"/>
						</g>
					</g>
				</g>
			</g>
			<g id="line2d_34">
				<g>
					<defs>
						<rect id="SVGID_95_" x="216" y="86.7" width="1339.2" height="693.4"/>
					</defs>
					<clipPath id="SVGID_96_">
						<use xlink:href="#SVGID_95_"  style="overflow:visible;"/>
					</clipPath>
					<g class="st54">
						<g>
							<path id="m70999d2f4b_24_" class="st11" d="M387.3,305h-10"/>
						</g>
						<g>
							<path id="m70999d2f4b_25_" class="st11" d="M723.2,194.3h-10"/>
						</g>
						<g>
							<path id="m70999d2f4b_26_" class="st11" d="M1058.6,169h-10"/>
						</g>
						<g>
							<path id="m70999d2f4b_27_" class="st11" d="M1391.1,169.9h-10"/>
						</g>
					</g>
				</g>
			</g>
		</g>
		<g id="_x35_00_Bq_Data_Points">
			<g>
				<defs>
					<rect id="SVGID_97_" x="216" y="86.7" width="1339.2" height="693.4"/>
				</defs>
				<clipPath id="SVGID_98_">
					<use xlink:href="#SVGID_97_"  style="overflow:visible;"/>
				</clipPath>
				<g class="st55">
					<g>
						<path id="md5d48f8f68" class="st11" d="M382.3,331.8c4,0,7.8-1.6,10.6-4.4c2.8-2.8,4.4-6.6,4.4-10.6c0-4-1.6-7.8-4.4-10.6
							c-2.8-2.8-6.6-4.4-10.6-4.4s-7.8,1.6-10.6,4.4c-2.8,2.8-4.4,6.6-4.4,10.6c0,4,1.6,7.8,4.4,10.6
							C374.5,330.2,378.3,331.8,382.3,331.8z"/>
					</g>
					<g>
						<path id="md5d48f8f68_1_" class="st11" d="M718.2,213.8c4,0,7.8-1.6,10.6-4.4c2.8-2.8,4.4-6.6,4.4-10.6s-1.6-7.8-4.4-10.6
							c-2.8-2.8-6.6-4.4-10.6-4.4s-7.8,1.6-10.6,4.4c-2.8,2.8-4.4,6.6-4.4,10.6s1.6,7.8,4.4,10.6
							C710.4,212.2,714.2,213.8,718.2,213.8z"/>
					</g>
					<g>
						<path id="md5d48f8f68_2_" class="st11" d="M1053.6,195.8c4,0,7.8-1.6,10.6-4.4c2.8-2.8,4.4-6.6,4.4-10.6s-1.6-7.8-4.4-10.6
							c-2.8-2.8-6.6-4.4-10.6-4.4s-7.8,1.6-10.6,4.4c-2.8,2.8-4.4,6.6-4.4,10.6s1.6,7.8,4.4,10.6
							C1045.8,194.2,1049.6,195.8,1053.6,195.8z"/>
					</g>
					<g>
						<path id="md5d48f8f68_3_" class="st11" d="M1386.1,189.1c4,0,7.8-1.6,10.6-4.4c2.8-2.8,4.4-6.6,4.4-10.6s-1.6-7.8-4.4-10.6
							c-2.8-2.8-6.6-4.4-10.6-4.4s-7.8,1.6-10.6,4.4c-2.8,2.8-4.4,6.6-4.4,10.6s1.6,7.8,4.4,10.6
							C1378.3,187.5,1382.1,189.1,1386.1,189.1z"/>
					</g>
				</g>
			</g>
		</g>
		<g id="Horizontal_Axis">
			<path class="st56" d="M216,780h1339.2"/>
		</g>
		<g id="Vertical_Axis">
			<path class="st56" d="M216,780V86.7"/>
		</g>
		<g id="legend_1">
			<g id="line2d_36">
				<path class="st57" d="M735,452.7h32"/>
			</g>
			<g id="line2d_37">
			</g>
			<g id="text_19">
				<text transform="matrix(1 0 0 1 779.7672 458.3501)" class="st2 st3 st4">2 site 2 rxn, Ks: 7.5 1.9e-08 mol, Kw: 0 6e-09 mol</text>
			</g>
			<g id="line2d_38">
			</g>
			<g id="line2d_39">
				<g>
					<g>
						<path id="mf320d49dd5_2_" class="st16" d="M751,469.4l-14.3,10.4l5.4,16.8h17.6l5.4-16.8L751,469.4z"/>
					</g>
				</g>
			</g>
			<g id="text_20">
				<text transform="matrix(1 0 0 1 779.7672 489.5339)" class="st2 st3 st4">Experimental Data 50 Bq Total</text>
			</g>
			<g id="line2d_40">
			</g>
			<g id="line2d_41">
				<g>
					<g>
						<path id="m5318a0a33b_4_" class="st16" d="M736,533h30v-30h-30V533z"/>
					</g>
				</g>
			</g>
			<g id="text_21">
				<text transform="matrix(1 0 0 1 779.7672 523.5524)" class="st2 st3 st4">Experimental Data 100 Bq Total</text>
			</g>
			<g id="line2d_42">
			</g>
			<g id="line2d_43">
				<g>
					<g>
						<path id="m7f5f580c4d_4_" class="st16" d="M751,537l-15,30h30L751,537z"/>
					</g>
				</g>
			</g>
			<g id="text_22">
				<text transform="matrix(1 0 0 1 779.7672 557.5709)" class="st2 st3 st4">Experimental Data 250 Bq Total</text>
			</g>
			<g id="line2d_44">
			</g>
			<g id="line2d_45">
				<g>
					<g>
						<path id="md5d48f8f68_4_" class="st11" d="M751,601c4,0,7.8-1.6,10.6-4.4S766,590,766,586s-1.6-7.8-4.4-10.6
							s-6.6-4.4-10.6-4.4s-7.8,1.6-10.6,4.4S736,582,736,586s1.6,7.8,4.4,10.6S747,601,751,601z"/>
					</g>
				</g>
			</g>
			<g id="text_23">
				<text transform="matrix(1 0 0 1 779.7672 591.5894)" class="st2 st3 st4">Experimental Data 500 Bq Total</text>
			</g>
		</g>
	</g>
</g>
</svg>
