<?xml version="1.0" encoding="utf-8"?>
<!-- Generator: Adobe Illustrator 20.1.0, SVG Export Plug-In . SVG Version: 6.00 Build 0)  -->
<svg version="1.1" id="Layer_1" xmlns="http://www.w3.org/2000/svg" xmlns:xlink="http://www.w3.org/1999/xlink" x="0px" y="0px"
	 viewBox="0 0 1275.6 988.8" style="enable-background:new 0 0 1275.6 988.8;" xml:space="preserve">
<style type="text/css">
	.st0{fill:#FFFFFF;}
	.st1{fill:none;stroke:#262626;stroke-width:1.6;stroke-linejoin:round;stroke-miterlimit:10;}
	.st2{fill:#262626;}
	.st3{font-family:'ArialMT';}
	.st4{font-size:36px;}
	
		.st5{clip-path:url(#SVGID_2_);fill:none;stroke:#000000;stroke-width:4;stroke-linecap:round;stroke-linejoin:round;stroke-miterlimit:10;}
	.st6{clip-path:url(#SVGID_4_);fill:none;stroke:#000000;stroke-linejoin:round;stroke-miterlimit:10;}
	.st7{clip-path:url(#SVGID_6_);fill:none;stroke:#000000;stroke-linejoin:round;stroke-miterlimit:10;}
	.st8{clip-path:url(#SVGID_8_);fill:none;stroke:#000000;stroke-linejoin:round;stroke-miterlimit:10;}
	.st9{clip-path:url(#SVGID_10_);fill:none;stroke:#000000;stroke-linejoin:round;stroke-miterlimit:10;}
	.st10{clip-path:url(#SVGID_12_);fill:none;stroke:#000000;stroke-linejoin:round;stroke-miterlimit:10;}
	.st11{clip-path:url(#SVGID_14_);fill:none;stroke:#000000;stroke-linejoin:round;stroke-miterlimit:10;}
	.st12{clip-path:url(#SVGID_16_);fill:none;stroke:#000000;stroke-linejoin:round;stroke-miterlimit:10;}
	.st13{clip-path:url(#SVGID_18_);fill:none;stroke:#000000;stroke-linejoin:round;stroke-miterlimit:10;}
	.st14{clip-path:url(#SVGID_20_);}
	.st15{fill:none;stroke:#000000;stroke-width:2;stroke-linejoin:round;stroke-miterlimit:10;}
	.st16{clip-path:url(#SVGID_22_);}
	.st17{clip-path:url(#SVGID_24_);}
	.st18{clip-path:url(#SVGID_26_);}
	.st19{clip-path:url(#SVGID_28_);}
	
		.st20{clip-path:url(#SVGID_30_);fill:none;stroke:#000000;stroke-width:4;stroke-linejoin:round;stroke-miterlimit:10;stroke-dasharray:6,6;}
	.st21{clip-path:url(#SVGID_32_);fill:none;stroke:#000000;stroke-linejoin:round;stroke-miterlimit:10;}
	.st22{clip-path:url(#SVGID_34_);fill:none;stroke:#000000;stroke-linejoin:round;stroke-miterlimit:10;}
	.st23{clip-path:url(#SVGID_36_);fill:none;stroke:#000000;stroke-linejoin:round;stroke-miterlimit:10;}
	.st24{clip-path:url(#SVGID_38_);fill:none;stroke:#000000;stroke-linejoin:round;stroke-miterlimit:10;}
	.st25{clip-path:url(#SVGID_40_);fill:none;stroke:#000000;stroke-linejoin:round;stroke-miterlimit:10;}
	.st26{clip-path:url(#SVGID_42_);fill:none;stroke:#000000;stroke-linejoin:round;stroke-miterlimit:10;}
	.st27{clip-path:url(#SVGID_44_);fill:none;stroke:#000000;stroke-linejoin:round;stroke-miterlimit:10;}
	.st28{clip-path:url(#SVGID_46_);fill:none;stroke:#000000;stroke-linejoin:round;stroke-miterlimit:10;}
	.st29{clip-path:url(#SVGID_48_);fill:none;stroke:#000000;stroke-linejoin:round;stroke-miterlimit:10;}
	.st30{clip-path:url(#SVGID_50_);fill:none;stroke:#000000;stroke-linejoin:round;stroke-miterlimit:10;}
	.st31{clip-path:url(#SVGID_52_);}
	.st32{clip-path:url(#SVGID_54_);}
	.st33{clip-path:url(#SVGID_56_);}
	.st34{clip-path:url(#SVGID_58_);}
	.st35{clip-path:url(#SVGID_60_);}
	.st36{fill:none;stroke:#000000;stroke-width:2;stroke-miterlimit:10;}
	
		.st37{clip-path:url(#SVGID_62_);fill:none;stroke:#000000;stroke-width:4;stroke-linejoin:round;stroke-miterlimit:10;stroke-dasharray:3,5,1,5;}
	.st38{clip-path:url(#SVGID_64_);fill:none;stroke:#000000;stroke-linejoin:round;stroke-miterlimit:10;}
	.st39{clip-path:url(#SVGID_66_);fill:none;stroke:#000000;stroke-linejoin:round;stroke-miterlimit:10;}
	.st40{clip-path:url(#SVGID_68_);fill:none;stroke:#000000;stroke-linejoin:round;stroke-miterlimit:10;}
	.st41{clip-path:url(#SVGID_70_);fill:none;stroke:#000000;stroke-linejoin:round;stroke-miterlimit:10;}
	.st42{clip-path:url(#SVGID_72_);fill:none;stroke:#000000;stroke-linejoin:round;stroke-miterlimit:10;}
	.st43{clip-path:url(#SVGID_74_);fill:none;stroke:#000000;stroke-linejoin:round;stroke-miterlimit:10;}
	.st44{clip-path:url(#SVGID_76_);fill:none;stroke:#000000;stroke-linejoin:round;stroke-miterlimit:10;}
	.st45{clip-path:url(#SVGID_78_);fill:none;stroke:#000000;stroke-linejoin:round;stroke-miterlimit:10;}
	.st46{clip-path:url(#SVGID_80_);}
	.st47{clip-path:url(#SVGID_82_);}
	.st48{clip-path:url(#SVGID_84_);}
	.st49{clip-path:url(#SVGID_86_);}
	.st50{clip-path:url(#SVGID_88_);}
	
		.st51{clip-path:url(#SVGID_90_);fill:none;stroke:#000000;stroke-width:4;stroke-linejoin:round;stroke-miterlimit:10;stroke-dasharray:1,3;}
	.st52{clip-path:url(#SVGID_92_);fill:none;stroke:#000000;stroke-linejoin:round;stroke-miterlimit:10;}
	.st53{clip-path:url(#SVGID_94_);fill:none;stroke:#000000;stroke-linejoin:round;stroke-miterlimit:10;}
	.st54{clip-path:url(#SVGID_96_);fill:none;stroke:#000000;stroke-linejoin:round;stroke-miterlimit:10;}
	.st55{clip-path:url(#SVGID_98_);fill:none;stroke:#000000;stroke-linejoin:round;stroke-miterlimit:10;}
	.st56{clip-path:url(#SVGID_100_);}
	.st57{clip-path:url(#SVGID_102_);}
	.st58{clip-path:url(#SVGID_104_);}
	.st59{clip-path:url(#SVGID_106_);}
	.st60{clip-path:url(#SVGID_108_);}
	.st61{fill:none;stroke:#262626;stroke-width:1.25;stroke-linecap:square;stroke-miterlimit:10;}
</style>
<g id="figure_1">
	<g id="patch_1">
		<path class="st0" d="M61.8,941.6h1152V47.9H61.8V941.6z"/>
	</g>
	<g id="axes_1">
		<g id="patch_2">
			<path class="st0" d="M205.8,852.2h892.8v-715H205.8V852.2z"/>
		</g>
		<g id="Horizontal_Axis_Labels">
			<g id="xtick_1">
				<g id="line2d_1">
					<g>
						<g>
							<path id="m750a3d74c6" class="st1" d="M205.8,852.2v6"/>
						</g>
					</g>
				</g>
				<g id="text_1">
					<text transform="matrix(1 0 0 1 178.6637 895.0577)" class="st2 st3 st4">−0.5</text>
				</g>
			</g>
			<g id="xtick_2">
				<g id="line2d_2">
					<g>
						<g>
							<path id="m750a3d74c6_1_" class="st1" d="M333.3,852.2v6"/>
						</g>
					</g>
				</g>
				<g id="text_2">
					<text transform="matrix(1 0 0 1 310.8784 895.0577)" class="st2 st3 st4">0.0</text>
				</g>
			</g>
			<g id="xtick_3">
				<g id="line2d_3">
					<g>
						<g>
							<path id="m750a3d74c6_2_" class="st1" d="M460.9,852.2v6"/>
						</g>
					</g>
				</g>
				<g id="text_3">
					<text transform="matrix(1 0 0 1 438.4213 895.0577)" class="st2 st3 st4">0.5</text>
				</g>
			</g>
			<g id="xtick_4">
				<g id="line2d_4">
					<g>
						<g>
							<path id="m750a3d74c6_3_" class="st1" d="M588.4,852.2v6"/>
						</g>
					</g>
				</g>
				<g id="text_4">
					<text transform="matrix(1 0 0 1 565.9642 895.0577)" class="st2 st3 st4">1.0</text>
				</g>
			</g>
			<g id="xtick_5">
				<g id="line2d_5">
					<g>
						<g>
							<path id="m750a3d74c6_4_" class="st1" d="M716,852.2v6"/>
						</g>
					</g>
				</g>
				<g id="text_5">
					<text transform="matrix(1 0 0 1 693.507 895.0577)" class="st2 st3 st4">1.5</text>
				</g>
			</g>
			<g id="xtick_6">
				<g id="line2d_6">
					<g>
						<g>
							<path id="m750a3d74c6_5_" class="st1" d="M843.5,852.2v6"/>
						</g>
					</g>
				</g>
				<g id="text_6">
					<text transform="matrix(1 0 0 1 821.0499 895.0577)" class="st2 st3 st4">2.0</text>
				</g>
			</g>
			<g id="xtick_7">
				<g id="line2d_7">
					<g>
						<g>
							<path id="m750a3d74c6_6_" class="st1" d="M971.1,852.2v6"/>
						</g>
					</g>
				</g>
				<g id="text_7">
					<text transform="matrix(1 0 0 1 948.5927 895.0577)" class="st2 st3 st4">2.5</text>
				</g>
			</g>
			<g id="xtick_8">
				<g id="line2d_8">
					<g>
						<g>
							<path id="m750a3d74c6_7_" class="st1" d="M1098.6,852.2v6"/>
						</g>
					</g>
				</g>
				<g id="text_8">
					<text transform="matrix(1 0 0 1 1076.1356 895.0577)" class="st2 st3 st4">3.0</text>
				</g>
			</g>
			<g id="text_9">
				<text transform="matrix(1 0 0 1 574.5651 944.3964)" class="st2 st3 st4">Cw (Bq/mL)</text>
			</g>
		</g>
		<g id="Vertical_Axis_Labels">
			<g id="ytick_1">
				<g id="line2d_9">
					<g>
						<g>
							<path id="m5fdea7794c" class="st1" d="M205.8,845.2h-6"/>
						</g>
					</g>
				</g>
				<g id="text_10">
					<text transform="matrix(1 0 0 1 131.5077 857.7935)" class="st2 st3 st4">0</text>
				</g>
			</g>
			<g id="ytick_2">
				<g id="line2d_10">
					<g>
						<g>
							<path id="m5fdea7794c_1_" class="st1" d="M205.8,703.6h-6"/>
						</g>
					</g>
				</g>
				<g id="text_11">
					<text transform="matrix(1 0 0 1 104.8124 716.2172)" class="st2 st3 st4">2000</text>
				</g>
			</g>
			<g id="ytick_3">
				<g id="line2d_11">
					<g>
						<g>
							<path id="m5fdea7794c_2_" class="st1" d="M205.8,562h-6"/>
						</g>
					</g>
				</g>
				<g id="text_12">
					<text transform="matrix(1 0 0 1 104.8124 574.641)" class="st2 st3 st4">4000</text>
				</g>
			</g>
			<g id="ytick_4">
				<g id="line2d_12">
					<g>
						<g>
							<path id="m5fdea7794c_3_" class="st1" d="M205.8,420.4h-6"/>
						</g>
					</g>
				</g>
				<g id="text_13">
					<text transform="matrix(1 0 0 1 104.8124 433.0648)" class="st2 st3 st4">6000</text>
				</g>
			</g>
			<g id="ytick_5">
				<g id="line2d_13">
					<g>
						<g>
							<path id="m5fdea7794c_4_" class="st1" d="M205.8,278.8h-6"/>
						</g>
					</g>
				</g>
				<g id="text_14">
					<text transform="matrix(1 0 0 1 104.8124 291.4885)" class="st2 st3 st4">8000</text>
				</g>
			</g>
			<g id="ytick_6">
				<g id="line2d_14">
					<g>
						<g>
							<path id="m5fdea7794c_5_" class="st1" d="M205.8,137.3h-6"/>
						</g>
					</g>
				</g>
				<g id="text_15">
					<text transform="matrix(1 0 0 1 95.9139 149.9123)" class="st2 st3 st4">10000</text>
				</g>
			</g>
			<g id="text_16">
				<text transform="matrix(6.123234e-17 -1 1 6.123234e-17 75.8758 565.936)" class="st2 st3 st4">Cs (Bq/g)</text>
			</g>
		</g>
		<g id="pH_3_Isotherm">
			<g id="pH_3_Data_Fit">
				<g>
					<defs>
						<rect id="SVGID_1_" x="205.8" y="137.3" width="892.8" height="715"/>
					</defs>
					<clipPath id="SVGID_2_">
						<use xlink:href="#SVGID_1_"  style="overflow:visible;"/>
					</clipPath>
					<path class="st5" d="M352.7,847.2l48.4-3.1l60.7-3.9L983.1,807"/>
				</g>
			</g>
			<g id="pH_3_Error_Bars">
				<g id="LineCollection_1">
					<g>
						<defs>
							<rect id="SVGID_3_" x="205.8" y="137.3" width="892.8" height="715"/>
						</defs>
						<clipPath id="SVGID_4_">
							<use xlink:href="#SVGID_3_"  style="overflow:visible;"/>
						</clipPath>
						<path class="st6" d="M348.3,850.3h8.7"/>
					</g>
					<g>
						<defs>
							<rect id="SVGID_5_" x="205.8" y="137.3" width="892.8" height="715"/>
						</defs>
						<clipPath id="SVGID_6_">
							<use xlink:href="#SVGID_5_"  style="overflow:visible;"/>
						</clipPath>
						<path class="st7" d="M396.9,844.1h8.5"/>
					</g>
					<g>
						<defs>
							<rect id="SVGID_7_" x="205.8" y="137.3" width="892.8" height="715"/>
						</defs>
						<clipPath id="SVGID_8_">
							<use xlink:href="#SVGID_7_"  style="overflow:visible;"/>
						</clipPath>
						<path class="st8" d="M451.4,836.5h20.7"/>
					</g>
					<g>
						<defs>
							<rect id="SVGID_9_" x="205.8" y="137.3" width="892.8" height="715"/>
						</defs>
						<clipPath id="SVGID_10_">
							<use xlink:href="#SVGID_9_"  style="overflow:visible;"/>
						</clipPath>
						<path class="st9" d="M946.4,807.6h73.5"/>
					</g>
				</g>
				<g id="LineCollection_2">
					<g>
						<defs>
							<rect id="SVGID_11_" x="205.8" y="137.3" width="892.8" height="715"/>
						</defs>
						<clipPath id="SVGID_12_">
							<use xlink:href="#SVGID_11_"  style="overflow:visible;"/>
						</clipPath>
						<path class="st10" d="M352.7,854.4v-8.1"/>
					</g>
					<g>
						<defs>
							<rect id="SVGID_13_" x="205.8" y="137.3" width="892.8" height="715"/>
						</defs>
						<clipPath id="SVGID_14_">
							<use xlink:href="#SVGID_13_"  style="overflow:visible;"/>
						</clipPath>
						<path class="st11" d="M401.1,848v-7.8"/>
					</g>
					<g>
						<defs>
							<rect id="SVGID_15_" x="205.8" y="137.3" width="892.8" height="715"/>
						</defs>
						<clipPath id="SVGID_16_">
							<use xlink:href="#SVGID_15_"  style="overflow:visible;"/>
						</clipPath>
						<path class="st12" d="M461.8,846.1V827"/>
					</g>
					<g>
						<defs>
							<rect id="SVGID_17_" x="205.8" y="137.3" width="892.8" height="715"/>
						</defs>
						<clipPath id="SVGID_18_">
							<use xlink:href="#SVGID_17_"  style="overflow:visible;"/>
						</clipPath>
						<path class="st13" d="M983.1,841.6v-68"/>
					</g>
				</g>
				<g id="line2d_16">
					<g>
						<defs>
							<rect id="SVGID_19_" x="205.8" y="137.3" width="892.8" height="715"/>
						</defs>
						<clipPath id="SVGID_20_">
							<use xlink:href="#SVGID_19_"  style="overflow:visible;"/>
						</clipPath>
						<g class="st14">
							<g>
								<path id="m2724f354ee" class="st15" d="M348.3,855.3v-10"/>
							</g>
							<g>
								<path id="m2724f354ee_1_" class="st15" d="M396.9,849.1v-10"/>
							</g>
							<g>
								<path id="m2724f354ee_2_" class="st15" d="M451.4,841.5v-10"/>
							</g>
							<g>
								<path id="m2724f354ee_3_" class="st15" d="M946.4,812.6v-10"/>
							</g>
						</g>
					</g>
				</g>
				<g id="line2d_17">
					<g>
						<defs>
							<rect id="SVGID_21_" x="205.8" y="137.3" width="892.8" height="715"/>
						</defs>
						<clipPath id="SVGID_22_">
							<use xlink:href="#SVGID_21_"  style="overflow:visible;"/>
						</clipPath>
						<g class="st16">
							<g>
								<path id="m2724f354ee_4_" class="st15" d="M357.1,855.3v-10"/>
							</g>
							<g>
								<path id="m2724f354ee_5_" class="st15" d="M405.3,849.1v-10"/>
							</g>
							<g>
								<path id="m2724f354ee_6_" class="st15" d="M472.1,841.5v-10"/>
							</g>
							<g>
								<path id="m2724f354ee_7_" class="st15" d="M1019.8,812.6v-10"/>
							</g>
						</g>
					</g>
				</g>
				<g id="line2d_18">
					<g>
						<defs>
							<rect id="SVGID_23_" x="205.8" y="137.3" width="892.8" height="715"/>
						</defs>
						<clipPath id="SVGID_24_">
							<use xlink:href="#SVGID_23_"  style="overflow:visible;"/>
						</clipPath>
						<g class="st17">
							<g>
								<path id="ma75570dc27" class="st15" d="M357.7,854.4h-10"/>
							</g>
							<g>
								<path id="ma75570dc27_1_" class="st15" d="M406.1,848h-10"/>
							</g>
							<g>
								<path id="ma75570dc27_2_" class="st15" d="M466.8,846.1h-10"/>
							</g>
							<g>
								<path id="ma75570dc27_3_" class="st15" d="M988.1,841.6h-10"/>
							</g>
						</g>
					</g>
				</g>
				<g id="line2d_19">
					<g>
						<defs>
							<rect id="SVGID_25_" x="205.8" y="137.3" width="892.8" height="715"/>
						</defs>
						<clipPath id="SVGID_26_">
							<use xlink:href="#SVGID_25_"  style="overflow:visible;"/>
						</clipPath>
						<g class="st18">
							<g>
								<path id="ma75570dc27_4_" class="st15" d="M357.7,846.3h-10"/>
							</g>
							<g>
								<path id="ma75570dc27_5_" class="st15" d="M406.1,840.1h-10"/>
							</g>
							<g>
								<path id="ma75570dc27_6_" class="st15" d="M466.8,827h-10"/>
							</g>
							<g>
								<path id="ma75570dc27_7_" class="st15" d="M988.1,773.7h-10"/>
							</g>
						</g>
					</g>
				</g>
			</g>
			<g id="pH_3_Data_Point">
				<g>
					<defs>
						<rect id="SVGID_27_" x="205.8" y="137.3" width="892.8" height="715"/>
					</defs>
					<clipPath id="SVGID_28_">
						<use xlink:href="#SVGID_27_"  style="overflow:visible;"/>
					</clipPath>
					<g class="st19">
						<g>
							<path id="m4d74641806" class="st15" d="M352.7,865.3c4,0,7.8-1.6,10.6-4.4c2.8-2.8,4.4-6.6,4.4-10.6c0-4-1.6-7.8-4.4-10.6
								c-2.8-2.8-6.6-4.4-10.6-4.4c-4,0-7.8,1.6-10.6,4.4c-2.8,2.8-4.4,6.6-4.4,10.6c0,4,1.6,7.8,4.4,10.6
								C344.9,863.7,348.7,865.3,352.7,865.3z"/>
						</g>
						<g>
							<path id="m4d74641806_1_" class="st15" d="M401.1,859.1c4,0,7.8-1.6,10.6-4.4c2.8-2.8,4.4-6.6,4.4-10.6c0-4-1.6-7.8-4.4-10.6
								c-2.8-2.8-6.6-4.4-10.6-4.4c-4,0-7.8,1.6-10.6,4.4c-2.8,2.8-4.4,6.6-4.4,10.6c0,4,1.6,7.8,4.4,10.6
								C393.3,857.5,397.1,859.1,401.1,859.1z"/>
						</g>
						<g>
							<path id="m4d74641806_2_" class="st15" d="M461.8,851.5c4,0,7.8-1.6,10.6-4.4c2.8-2.8,4.4-6.6,4.4-10.6c0-4-1.6-7.8-4.4-10.6
								c-2.8-2.8-6.6-4.4-10.6-4.4c-4,0-7.8,1.6-10.6,4.4c-2.8,2.8-4.4,6.6-4.4,10.6c0,4,1.6,7.8,4.4,10.6
								C454,850,457.8,851.5,461.8,851.5z"/>
						</g>
						<g>
							<path id="m4d74641806_3_" class="st15" d="M983.1,822.6c4,0,7.8-1.6,10.6-4.4c2.8-2.8,4.4-6.6,4.4-10.6c0-4-1.6-7.8-4.4-10.6
								c-2.8-2.8-6.6-4.4-10.6-4.4c-4,0-7.8,1.6-10.6,4.4c-2.8,2.8-4.4,6.6-4.4,10.6c0,4,1.6,7.8,4.4,10.6
								C975.3,821.1,979.1,822.6,983.1,822.6z"/>
						</g>
					</g>
				</g>
			</g>
		</g>
		<g id="pH_5_Isotherm">
			<g id="pH_5_Data_Fit">
				<g>
					<defs>
						<rect id="SVGID_29_" x="205.8" y="137.3" width="892.8" height="715"/>
					</defs>
					<clipPath id="SVGID_30_">
						<use xlink:href="#SVGID_29_"  style="overflow:visible;"/>
					</clipPath>
					<path class="st20" d="M341.6,843.3l5.1-0.7l37.8-4.9l72.5-9.5l480.3-62.8"/>
				</g>
			</g>
			<g id="pH_5_Error_Bars">
				<g id="LineCollection_3">
					<g>
						<defs>
							<rect id="SVGID_31_" x="205.8" y="137.3" width="892.8" height="715"/>
						</defs>
						<clipPath id="SVGID_32_">
							<use xlink:href="#SVGID_31_"  style="overflow:visible;"/>
						</clipPath>
						<path class="st21" d="M340,846.4h3.2"/>
					</g>
					<g>
						<defs>
							<rect id="SVGID_33_" x="205.8" y="137.3" width="892.8" height="715"/>
						</defs>
						<clipPath id="SVGID_34_">
							<use xlink:href="#SVGID_33_"  style="overflow:visible;"/>
						</clipPath>
						<path class="st22" d="M345.2,844.8h2.9"/>
					</g>
					<g>
						<defs>
							<rect id="SVGID_35_" x="205.8" y="137.3" width="892.8" height="715"/>
						</defs>
						<clipPath id="SVGID_36_">
							<use xlink:href="#SVGID_35_"  style="overflow:visible;"/>
						</clipPath>
						<path class="st23" d="M365.1,828.7h38.6"/>
					</g>
					<g>
						<defs>
							<rect id="SVGID_37_" x="205.8" y="137.3" width="892.8" height="715"/>
						</defs>
						<clipPath id="SVGID_38_">
							<use xlink:href="#SVGID_37_"  style="overflow:visible;"/>
						</clipPath>
						<path class="st24" d="M455.2,832.1h3.5"/>
					</g>
					<g>
						<defs>
							<rect id="SVGID_39_" x="205.8" y="137.3" width="892.8" height="715"/>
						</defs>
						<clipPath id="SVGID_40_">
							<use xlink:href="#SVGID_39_"  style="overflow:visible;"/>
						</clipPath>
						<path class="st25" d="M903.9,765.3h66.8"/>
					</g>
				</g>
				<g id="LineCollection_4">
					<g>
						<defs>
							<rect id="SVGID_41_" x="205.8" y="137.3" width="892.8" height="715"/>
						</defs>
						<clipPath id="SVGID_42_">
							<use xlink:href="#SVGID_41_"  style="overflow:visible;"/>
						</clipPath>
						<path class="st26" d="M341.6,847.9V845"/>
					</g>
					<g>
						<defs>
							<rect id="SVGID_43_" x="205.8" y="137.3" width="892.8" height="715"/>
						</defs>
						<clipPath id="SVGID_44_">
							<use xlink:href="#SVGID_43_"  style="overflow:visible;"/>
						</clipPath>
						<path class="st27" d="M346.7,846.1v-2.7"/>
					</g>
					<g>
						<defs>
							<rect id="SVGID_45_" x="205.8" y="137.3" width="892.8" height="715"/>
						</defs>
						<clipPath id="SVGID_46_">
							<use xlink:href="#SVGID_45_"  style="overflow:visible;"/>
						</clipPath>
						<path class="st28" d="M384.5,846.5v-35.7"/>
					</g>
					<g>
						<defs>
							<rect id="SVGID_47_" x="205.8" y="137.3" width="892.8" height="715"/>
						</defs>
						<clipPath id="SVGID_48_">
							<use xlink:href="#SVGID_47_"  style="overflow:visible;"/>
						</clipPath>
						<path class="st29" d="M457,833.7v-3.2"/>
					</g>
					<g>
						<defs>
							<rect id="SVGID_49_" x="205.8" y="137.3" width="892.8" height="715"/>
						</defs>
						<clipPath id="SVGID_50_">
							<use xlink:href="#SVGID_49_"  style="overflow:visible;"/>
						</clipPath>
						<path class="st30" d="M937.3,794.5V736"/>
					</g>
				</g>
				<g id="line2d_22">
					<g>
						<defs>
							<rect id="SVGID_51_" x="205.8" y="137.3" width="892.8" height="715"/>
						</defs>
						<clipPath id="SVGID_52_">
							<use xlink:href="#SVGID_51_"  style="overflow:visible;"/>
						</clipPath>
						<g class="st31">
							<g>
								<path id="m2724f354ee_8_" class="st15" d="M340,851.4v-10"/>
							</g>
							<g>
								<path id="m2724f354ee_9_" class="st15" d="M345.2,849.8v-10"/>
							</g>
							<g>
								<path id="m2724f354ee_10_" class="st15" d="M365.1,833.7v-10"/>
							</g>
							<g>
								<path id="m2724f354ee_11_" class="st15" d="M455.2,837.1v-10"/>
							</g>
							<g>
								<path id="m2724f354ee_12_" class="st15" d="M903.9,770.3v-10"/>
							</g>
						</g>
					</g>
				</g>
				<g id="line2d_23">
					<g>
						<defs>
							<rect id="SVGID_53_" x="205.8" y="137.3" width="892.8" height="715"/>
						</defs>
						<clipPath id="SVGID_54_">
							<use xlink:href="#SVGID_53_"  style="overflow:visible;"/>
						</clipPath>
						<g class="st32">
							<g>
								<path id="m2724f354ee_13_" class="st15" d="M343.2,851.4v-10"/>
							</g>
							<g>
								<path id="m2724f354ee_14_" class="st15" d="M348.1,849.8v-10"/>
							</g>
							<g>
								<path id="m2724f354ee_15_" class="st15" d="M403.8,833.7v-10"/>
							</g>
							<g>
								<path id="m2724f354ee_16_" class="st15" d="M458.7,837.1v-10"/>
							</g>
							<g>
								<path id="m2724f354ee_17_" class="st15" d="M970.7,770.3v-10"/>
							</g>
						</g>
					</g>
				</g>
				<g id="line2d_24">
					<g>
						<defs>
							<rect id="SVGID_55_" x="205.8" y="137.3" width="892.8" height="715"/>
						</defs>
						<clipPath id="SVGID_56_">
							<use xlink:href="#SVGID_55_"  style="overflow:visible;"/>
						</clipPath>
						<g class="st33">
							<g>
								<path id="ma75570dc27_8_" class="st15" d="M346.6,847.9h-10"/>
							</g>
							<g>
								<path id="ma75570dc27_9_" class="st15" d="M351.7,846.1h-10"/>
							</g>
							<g>
								<path id="ma75570dc27_10_" class="st15" d="M389.5,846.5h-10"/>
							</g>
							<g>
								<path id="ma75570dc27_11_" class="st15" d="M462,833.7h-10"/>
							</g>
							<g>
								<path id="ma75570dc27_12_" class="st15" d="M942.3,794.5h-10"/>
							</g>
						</g>
					</g>
				</g>
				<g id="line2d_25">
					<g>
						<defs>
							<rect id="SVGID_57_" x="205.8" y="137.3" width="892.8" height="715"/>
						</defs>
						<clipPath id="SVGID_58_">
							<use xlink:href="#SVGID_57_"  style="overflow:visible;"/>
						</clipPath>
						<g class="st34">
							<g>
								<path id="ma75570dc27_13_" class="st15" d="M346.6,845h-10"/>
							</g>
							<g>
								<path id="ma75570dc27_14_" class="st15" d="M351.7,843.4h-10"/>
							</g>
							<g>
								<path id="ma75570dc27_15_" class="st15" d="M389.5,810.8h-10"/>
							</g>
							<g>
								<path id="ma75570dc27_16_" class="st15" d="M462,830.5h-10"/>
							</g>
							<g>
								<path id="ma75570dc27_17_" class="st15" d="M942.3,736h-10"/>
							</g>
						</g>
					</g>
				</g>
			</g>
			<g id="pH_5_Data_Points">
				<g>
					<defs>
						<rect id="SVGID_59_" x="205.8" y="137.3" width="892.8" height="715"/>
					</defs>
					<clipPath id="SVGID_60_">
						<use xlink:href="#SVGID_59_"  style="overflow:visible;"/>
					</clipPath>
					<g class="st35">
						<g>
							<path id="m95353f7a55" class="st36" d="M341.6,831.4l-15,30h30L341.6,831.4z"/>
						</g>
						<g>
							<path id="m95353f7a55_1_" class="st36" d="M346.7,829.8l-15,30h30L346.7,829.8z"/>
						</g>
						<g>
							<path id="m95353f7a55_2_" class="st36" d="M384.5,813.7l-15,30h30L384.5,813.7z"/>
						</g>
						<g>
							<path id="m95353f7a55_3_" class="st36" d="M457,817.1l-15,30h30L457,817.1z"/>
						</g>
						<g>
							<path id="m95353f7a55_4_" class="st36" d="M937.3,750.3l-15,30h30L937.3,750.3z"/>
						</g>
					</g>
				</g>
			</g>
		</g>
		<g id="pH_7_Isotherm">
			<g id="pH_7_Data_Fit">
				<g>
					<defs>
						<rect id="SVGID_61_" x="205.8" y="137.3" width="892.8" height="715"/>
					</defs>
					<clipPath id="SVGID_62_">
						<use xlink:href="#SVGID_61_"  style="overflow:visible;"/>
					</clipPath>
					<path class="st37" d="M341.4,827.1l22.1-15.3l33.4-23.1l325.2-224.4"/>
				</g>
			</g>
			<g id="pH_7_Error_Bars">
				<g id="LineCollection_5">
					<g>
						<defs>
							<rect id="SVGID_63_" x="205.8" y="137.3" width="892.8" height="715"/>
						</defs>
						<clipPath id="SVGID_64_">
							<use xlink:href="#SVGID_63_"  style="overflow:visible;"/>
						</clipPath>
						<path class="st38" d="M340.7,839.9h1.5"/>
					</g>
					<g>
						<defs>
							<rect id="SVGID_65_" x="205.8" y="137.3" width="892.8" height="715"/>
						</defs>
						<clipPath id="SVGID_66_">
							<use xlink:href="#SVGID_65_"  style="overflow:visible;"/>
						</clipPath>
						<path class="st39" d="M362.2,809.3h2.6"/>
					</g>
					<g>
						<defs>
							<rect id="SVGID_67_" x="205.8" y="137.3" width="892.8" height="715"/>
						</defs>
						<clipPath id="SVGID_68_">
							<use xlink:href="#SVGID_67_"  style="overflow:visible;"/>
						</clipPath>
						<path class="st40" d="M392.9,776.6h8.1"/>
					</g>
					<g>
						<defs>
							<rect id="SVGID_69_" x="205.8" y="137.3" width="892.8" height="715"/>
						</defs>
						<clipPath id="SVGID_70_">
							<use xlink:href="#SVGID_69_"  style="overflow:visible;"/>
						</clipPath>
						<path class="st41" d="M677.2,566.3h89.9"/>
					</g>
				</g>
				<g id="LineCollection_6">
					<g>
						<defs>
							<rect id="SVGID_71_" x="205.8" y="137.3" width="892.8" height="715"/>
						</defs>
						<clipPath id="SVGID_72_">
							<use xlink:href="#SVGID_71_"  style="overflow:visible;"/>
						</clipPath>
						<path class="st42" d="M341.4,840.6v-1.4"/>
					</g>
					<g>
						<defs>
							<rect id="SVGID_73_" x="205.8" y="137.3" width="892.8" height="715"/>
						</defs>
						<clipPath id="SVGID_74_">
							<use xlink:href="#SVGID_73_"  style="overflow:visible;"/>
						</clipPath>
						<path class="st43" d="M363.5,810.5v-2.4"/>
					</g>
					<g>
						<defs>
							<rect id="SVGID_75_" x="205.8" y="137.3" width="892.8" height="715"/>
						</defs>
						<clipPath id="SVGID_76_">
							<use xlink:href="#SVGID_75_"  style="overflow:visible;"/>
						</clipPath>
						<path class="st44" d="M396.9,780.3v-7.5"/>
					</g>
					<g>
						<defs>
							<rect id="SVGID_77_" x="205.8" y="137.3" width="892.8" height="715"/>
						</defs>
						<clipPath id="SVGID_78_">
							<use xlink:href="#SVGID_77_"  style="overflow:visible;"/>
						</clipPath>
						<path class="st45" d="M722.2,607.8v-83.2"/>
					</g>
				</g>
				<g id="line2d_28">
					<g>
						<defs>
							<rect id="SVGID_79_" x="205.8" y="137.3" width="892.8" height="715"/>
						</defs>
						<clipPath id="SVGID_80_">
							<use xlink:href="#SVGID_79_"  style="overflow:visible;"/>
						</clipPath>
						<g class="st46">
							<g>
								<path id="m2724f354ee_18_" class="st15" d="M340.7,844.9v-10"/>
							</g>
							<g>
								<path id="m2724f354ee_19_" class="st15" d="M362.2,814.3v-10"/>
							</g>
							<g>
								<path id="m2724f354ee_20_" class="st15" d="M392.9,781.6v-10"/>
							</g>
							<g>
								<path id="m2724f354ee_21_" class="st15" d="M677.2,571.3v-10"/>
							</g>
						</g>
					</g>
				</g>
				<g id="line2d_29">
					<g>
						<defs>
							<rect id="SVGID_81_" x="205.8" y="137.3" width="892.8" height="715"/>
						</defs>
						<clipPath id="SVGID_82_">
							<use xlink:href="#SVGID_81_"  style="overflow:visible;"/>
						</clipPath>
						<g class="st47">
							<g>
								<path id="m2724f354ee_22_" class="st15" d="M342.2,844.9v-10"/>
							</g>
							<g>
								<path id="m2724f354ee_23_" class="st15" d="M364.8,814.3v-10"/>
							</g>
							<g>
								<path id="m2724f354ee_24_" class="st15" d="M401,781.6v-10"/>
							</g>
							<g>
								<path id="m2724f354ee_25_" class="st15" d="M767.1,571.3v-10"/>
							</g>
						</g>
					</g>
				</g>
				<g id="line2d_30">
					<g>
						<defs>
							<rect id="SVGID_83_" x="205.8" y="137.3" width="892.8" height="715"/>
						</defs>
						<clipPath id="SVGID_84_">
							<use xlink:href="#SVGID_83_"  style="overflow:visible;"/>
						</clipPath>
						<g class="st48">
							<g>
								<path id="ma75570dc27_18_" class="st15" d="M346.4,840.6h-10"/>
							</g>
							<g>
								<path id="ma75570dc27_19_" class="st15" d="M368.5,810.5h-10"/>
							</g>
							<g>
								<path id="ma75570dc27_20_" class="st15" d="M401.9,780.3h-10"/>
							</g>
							<g>
								<path id="ma75570dc27_21_" class="st15" d="M727.2,607.8h-10"/>
							</g>
						</g>
					</g>
				</g>
				<g id="line2d_31">
					<g>
						<defs>
							<rect id="SVGID_85_" x="205.8" y="137.3" width="892.8" height="715"/>
						</defs>
						<clipPath id="SVGID_86_">
							<use xlink:href="#SVGID_85_"  style="overflow:visible;"/>
						</clipPath>
						<g class="st49">
							<g>
								<path id="ma75570dc27_22_" class="st15" d="M346.4,839.2h-10"/>
							</g>
							<g>
								<path id="ma75570dc27_23_" class="st15" d="M368.5,808.1h-10"/>
							</g>
							<g>
								<path id="ma75570dc27_24_" class="st15" d="M401.9,772.9h-10"/>
							</g>
							<g>
								<path id="ma75570dc27_25_" class="st15" d="M727.2,524.7h-10"/>
							</g>
						</g>
					</g>
				</g>
			</g>
			<g id="pH_7_Data_Points">
				<g>
					<defs>
						<rect id="SVGID_87_" x="205.8" y="137.3" width="892.8" height="715"/>
					</defs>
					<clipPath id="SVGID_88_">
						<use xlink:href="#SVGID_87_"  style="overflow:visible;"/>
					</clipPath>
					<g class="st50">
						<g>
							<path id="m194da60e00" class="st36" d="M326.4,854.9h30v-30h-30V854.9z"/>
						</g>
						<g>
							<path id="m194da60e00_1_" class="st36" d="M348.5,824.3h30v-30h-30V824.3z"/>
						</g>
						<g>
							<path id="m194da60e00_2_" class="st36" d="M381.9,791.6h30v-30h-30V791.6z"/>
						</g>
						<g>
							<path id="m194da60e00_3_" class="st36" d="M707.2,581.3h30v-30h-30V581.3z"/>
						</g>
					</g>
				</g>
			</g>
		</g>
		<g id="pH_9_Isotherm">
			<g id="pH_9_Data_Fit">
				<g>
					<defs>
						<rect id="SVGID_89_" x="205.8" y="137.3" width="892.8" height="715"/>
					</defs>
					<clipPath id="SVGID_90_">
						<use xlink:href="#SVGID_89_"  style="overflow:visible;"/>
					</clipPath>
					<path class="st51" d="M330.5,778.8L343.2,242"/>
				</g>
			</g>
			<g id="pH_9_Error_Bars">
				<g id="LineCollection_7">
					<g>
						<defs>
							<rect id="SVGID_91_" x="205.8" y="137.3" width="892.8" height="715"/>
						</defs>
						<clipPath id="SVGID_92_">
							<use xlink:href="#SVGID_91_"  style="overflow:visible;"/>
						</clipPath>
						<path class="st52" d="M329.5,778.8h2.2"/>
					</g>
					<g>
						<defs>
							<rect id="SVGID_93_" x="205.8" y="137.3" width="892.8" height="715"/>
						</defs>
						<clipPath id="SVGID_94_">
							<use xlink:href="#SVGID_93_"  style="overflow:visible;"/>
						</clipPath>
						<path class="st53" d="M339.6,242h7.1"/>
					</g>
				</g>
				<g id="LineCollection_8">
					<g>
						<defs>
							<rect id="SVGID_95_" x="205.8" y="137.3" width="892.8" height="715"/>
						</defs>
						<clipPath id="SVGID_96_">
							<use xlink:href="#SVGID_95_"  style="overflow:visible;"/>
						</clipPath>
						<path class="st54" d="M330.5,779.8v-2"/>
					</g>
					<g>
						<defs>
							<rect id="SVGID_97_" x="205.8" y="137.3" width="892.8" height="715"/>
						</defs>
						<clipPath id="SVGID_98_">
							<use xlink:href="#SVGID_97_"  style="overflow:visible;"/>
						</clipPath>
						<path class="st55" d="M343.2,267.4v-50.7"/>
					</g>
				</g>
				<g id="line2d_34">
					<g>
						<defs>
							<rect id="SVGID_99_" x="205.8" y="137.3" width="892.8" height="715"/>
						</defs>
						<clipPath id="SVGID_100_">
							<use xlink:href="#SVGID_99_"  style="overflow:visible;"/>
						</clipPath>
						<g class="st56">
							<g>
								<path id="m2724f354ee_26_" class="st15" d="M329.5,783.8v-10"/>
							</g>
							<g>
								<path id="m2724f354ee_27_" class="st15" d="M339.6,247v-10"/>
							</g>
						</g>
					</g>
				</g>
				<g id="line2d_35">
					<g>
						<defs>
							<rect id="SVGID_101_" x="205.8" y="137.3" width="892.8" height="715"/>
						</defs>
						<clipPath id="SVGID_102_">
							<use xlink:href="#SVGID_101_"  style="overflow:visible;"/>
						</clipPath>
						<g class="st57">
							<g>
								<path id="m2724f354ee_28_" class="st15" d="M331.6,783.8v-10"/>
							</g>
							<g>
								<path id="m2724f354ee_29_" class="st15" d="M346.8,247v-10"/>
							</g>
						</g>
					</g>
				</g>
				<g id="line2d_36">
					<g>
						<defs>
							<rect id="SVGID_103_" x="205.8" y="137.3" width="892.8" height="715"/>
						</defs>
						<clipPath id="SVGID_104_">
							<use xlink:href="#SVGID_103_"  style="overflow:visible;"/>
						</clipPath>
						<g class="st58">
							<g>
								<path id="ma75570dc27_26_" class="st15" d="M335.5,779.8h-10"/>
							</g>
							<g>
								<path id="ma75570dc27_27_" class="st15" d="M348.2,267.4h-10"/>
							</g>
						</g>
					</g>
				</g>
				<g id="line2d_37">
					<g>
						<defs>
							<rect id="SVGID_105_" x="205.8" y="137.3" width="892.8" height="715"/>
						</defs>
						<clipPath id="SVGID_106_">
							<use xlink:href="#SVGID_105_"  style="overflow:visible;"/>
						</clipPath>
						<g class="st59">
							<g>
								<path id="ma75570dc27_28_" class="st15" d="M335.5,777.8h-10"/>
							</g>
							<g>
								<path id="ma75570dc27_29_" class="st15" d="M348.2,216.7h-10"/>
							</g>
						</g>
					</g>
				</g>
			</g>
			<g id="pH_9_Data_Point">
				<g>
					<defs>
						<rect id="SVGID_107_" x="205.8" y="137.3" width="892.8" height="715"/>
					</defs>
					<clipPath id="SVGID_108_">
						<use xlink:href="#SVGID_107_"  style="overflow:visible;"/>
					</clipPath>
					<g class="st60">
						<g>
							<path id="mf528cac137" class="st36" d="M330.5,763.8l-14.3,10.4l5.4,16.8h17.6l5.4-16.8L330.5,763.8z"/>
						</g>
						<g>
							<path id="mf528cac137_1_" class="st36" d="M343.2,227l-14.3,10.4l5.4,16.8H352l5.4-16.8L343.2,227z"/>
						</g>
					</g>
				</g>
			</g>
		</g>
		<g id="Horizontal_Axis">
			<path class="st61" d="M205.8,852.2h892.8"/>
		</g>
		<g id="Vertical_Axis">
			<path class="st61" d="M205.8,852.2v-715"/>
		</g>
		<g id="legend_1">
			<g id="line2d_39">
			</g>
			<g id="line2d_40">
				<g>
					<g>
						<path id="m4d74641806_4_" class="st15" d="M843.7,158.4c4,0,7.8-1.6,10.6-4.4c2.8-2.8,4.4-6.6,4.4-10.6c0-4-1.6-7.8-4.4-10.6
							c-2.8-2.8-6.6-4.4-10.6-4.4c-4,0-7.8,1.6-10.6,4.4c-2.8,2.8-4.4,6.6-4.4,10.6c0,4,1.6,7.8,4.4,10.6
							C835.9,156.8,839.7,158.4,843.7,158.4z"/>
					</g>
				</g>
			</g>
			<g id="text_17">
				<text transform="matrix(1 0 0 1 872.5003 154.668)" class="st2 st3 st4">pH 3</text>
			</g>
			<g id="line2d_41">
			</g>
			<g id="line2d_42">
				<g>
					<g>
						<path id="m95353f7a55_5_" class="st36" d="M843.7,162.4l-15,30h30L843.7,162.4z"/>
					</g>
				</g>
			</g>
			<g id="text_18">
				<text transform="matrix(1 0 0 1 872.5003 185.8521)" class="st2 st3 st4">pH 5</text>
			</g>
			<g id="line2d_43">
			</g>
			<g id="line2d_44">
				<g>
					<g>
						<path id="m194da60e00_4_" class="st36" d="M828.7,229.3h30v-30h-30V229.3z"/>
					</g>
				</g>
			</g>
			<g id="text_19">
				<text transform="matrix(1 0 0 1 872.5003 222.7053)" class="st2 st3 st4">pH 7</text>
			</g>
			<g id="line2d_45">
			</g>
			<g id="line2d_46">
				<g>
					<g>
						<path id="mf528cac137_2_" class="st36" d="M843.7,233.3l-14.3,10.4l5.4,16.8h17.6l5.4-16.8L843.7,233.3z"/>
					</g>
				</g>
			</g>
			<g id="text_20">
				<text transform="matrix(1 0 0 1 872.5003 259.5586)" class="st2 st3 st4">pH 9</text>
			</g>
		</g>
	</g>
</g>
</svg>
