<?xml version="1.0" encoding="utf-8"?>
<!-- Generator: Adobe Illustrator 20.1.0, SVG Export Plug-In . SVG Version: 6.00 Build 0)  -->
<svg version="1.1" id="Layer_1" xmlns="http://www.w3.org/2000/svg" xmlns:xlink="http://www.w3.org/1999/xlink" x="0px" y="0px"
	 viewBox="0 0 1728 866" style="enable-background:new 0 0 1728 866;" xml:space="preserve">
<style type="text/css">
	.st0{fill:#FFFFFF;}
	.st1{fill:none;stroke:#262626;stroke-width:1.6;stroke-linejoin:round;stroke-miterlimit:10;}
	.st2{fill:#262626;}
	.st3{font-family:'ArialMT';}
	.st4{font-size:36px;}
	
		.st5{clip-path:url(#SVGID_2_);fill:none;stroke:#000000;stroke-width:4;stroke-linecap:round;stroke-linejoin:round;stroke-miterlimit:10;}
	.st6{clip-path:url(#SVGID_4_);fill:none;stroke:#000000;stroke-linejoin:round;stroke-miterlimit:10;}
	.st7{clip-path:url(#SVGID_6_);fill:none;stroke:#000000;stroke-linejoin:round;stroke-miterlimit:10;}
	.st8{clip-path:url(#SVGID_8_);fill:none;stroke:#000000;stroke-linejoin:round;stroke-miterlimit:10;}
	.st9{clip-path:url(#SVGID_10_);fill:none;stroke:#000000;stroke-linejoin:round;stroke-miterlimit:10;}
	.st10{clip-path:url(#SVGID_12_);fill:none;stroke:#000000;stroke-linejoin:round;stroke-miterlimit:10;}
	.st11{clip-path:url(#SVGID_14_);fill:none;stroke:#000000;stroke-linejoin:round;stroke-miterlimit:10;}
	.st12{clip-path:url(#SVGID_16_);}
	.st13{fill:none;stroke:#000000;stroke-width:2;stroke-linejoin:round;stroke-miterlimit:10;}
	.st14{clip-path:url(#SVGID_18_);}
	.st15{clip-path:url(#SVGID_20_);}
	.st16{clip-path:url(#SVGID_22_);}
	.st17{clip-path:url(#SVGID_24_);}
	.st18{fill:none;stroke:#000000;stroke-width:2;stroke-miterlimit:10;}
	.st19{clip-path:url(#SVGID_26_);fill:none;stroke:#000000;stroke-linejoin:round;stroke-miterlimit:10;}
	.st20{clip-path:url(#SVGID_28_);fill:none;stroke:#000000;stroke-linejoin:round;stroke-miterlimit:10;}
	.st21{clip-path:url(#SVGID_30_);fill:none;stroke:#000000;stroke-linejoin:round;stroke-miterlimit:10;}
	.st22{clip-path:url(#SVGID_32_);fill:none;stroke:#000000;stroke-linejoin:round;stroke-miterlimit:10;}
	.st23{clip-path:url(#SVGID_34_);fill:none;stroke:#000000;stroke-linejoin:round;stroke-miterlimit:10;}
	.st24{clip-path:url(#SVGID_36_);fill:none;stroke:#000000;stroke-linejoin:round;stroke-miterlimit:10;}
	.st25{clip-path:url(#SVGID_38_);fill:none;stroke:#000000;stroke-linejoin:round;stroke-miterlimit:10;}
	.st26{clip-path:url(#SVGID_40_);fill:none;stroke:#000000;stroke-linejoin:round;stroke-miterlimit:10;}
	.st27{clip-path:url(#SVGID_42_);}
	.st28{clip-path:url(#SVGID_44_);}
	.st29{clip-path:url(#SVGID_46_);}
	.st30{clip-path:url(#SVGID_48_);}
	.st31{clip-path:url(#SVGID_50_);}
	.st32{clip-path:url(#SVGID_52_);fill:none;stroke:#000000;stroke-linejoin:round;stroke-miterlimit:10;}
	.st33{clip-path:url(#SVGID_54_);fill:none;stroke:#000000;stroke-linejoin:round;stroke-miterlimit:10;}
	.st34{clip-path:url(#SVGID_56_);fill:none;stroke:#000000;stroke-linejoin:round;stroke-miterlimit:10;}
	.st35{clip-path:url(#SVGID_58_);fill:none;stroke:#000000;stroke-linejoin:round;stroke-miterlimit:10;}
	.st36{clip-path:url(#SVGID_60_);fill:none;stroke:#000000;stroke-linejoin:round;stroke-miterlimit:10;}
	.st37{clip-path:url(#SVGID_62_);fill:none;stroke:#000000;stroke-linejoin:round;stroke-miterlimit:10;}
	.st38{clip-path:url(#SVGID_64_);fill:none;stroke:#000000;stroke-linejoin:round;stroke-miterlimit:10;}
	.st39{clip-path:url(#SVGID_66_);fill:none;stroke:#000000;stroke-linejoin:round;stroke-miterlimit:10;}
	.st40{clip-path:url(#SVGID_68_);}
	.st41{clip-path:url(#SVGID_70_);}
	.st42{clip-path:url(#SVGID_72_);}
	.st43{clip-path:url(#SVGID_74_);}
	.st44{clip-path:url(#SVGID_76_);}
	.st45{clip-path:url(#SVGID_78_);fill:none;stroke:#000000;stroke-linejoin:round;stroke-miterlimit:10;}
	.st46{clip-path:url(#SVGID_80_);fill:none;stroke:#000000;stroke-linejoin:round;stroke-miterlimit:10;}
	.st47{clip-path:url(#SVGID_82_);fill:none;stroke:#000000;stroke-linejoin:round;stroke-miterlimit:10;}
	.st48{clip-path:url(#SVGID_84_);fill:none;stroke:#000000;stroke-linejoin:round;stroke-miterlimit:10;}
	.st49{clip-path:url(#SVGID_86_);fill:none;stroke:#000000;stroke-linejoin:round;stroke-miterlimit:10;}
	.st50{clip-path:url(#SVGID_88_);fill:none;stroke:#000000;stroke-linejoin:round;stroke-miterlimit:10;}
	.st51{clip-path:url(#SVGID_90_);fill:none;stroke:#000000;stroke-linejoin:round;stroke-miterlimit:10;}
	.st52{clip-path:url(#SVGID_92_);fill:none;stroke:#000000;stroke-linejoin:round;stroke-miterlimit:10;}
	.st53{clip-path:url(#SVGID_94_);}
	.st54{clip-path:url(#SVGID_96_);}
	.st55{clip-path:url(#SVGID_98_);}
	.st56{clip-path:url(#SVGID_100_);}
	.st57{clip-path:url(#SVGID_102_);}
	.st58{fill:none;stroke:#262626;stroke-width:1.25;stroke-linecap:square;stroke-miterlimit:10;}
	.st59{fill:none;stroke:#000000;stroke-width:4;stroke-linecap:round;stroke-linejoin:round;stroke-miterlimit:10;}
</style>
<g id="figure_1">
	<g id="patch_1">
		<path class="st0" d="M0,866.7h1728V0H0V866.7z"/>
	</g>
	<g id="axes_1">
		<g id="patch_2">
			<path class="st0" d="M216,780h1339.2V86.7H216V780z"/>
		</g>
		<g id="matplotlib.axis_1">
			<g id="xtick_1">
				<g id="line2d_1">
					<g>
						<g>
							<path id="mcb0c396d61" class="st1" d="M216,780v6"/>
						</g>
					</g>
				</g>
				<g id="text_1">
					<text transform="matrix(1 0 0 1 205.8815 820.0211)" class="st2 st3 st4">2</text>
				</g>
			</g>
			<g id="xtick_2">
				<g id="line2d_2">
					<g>
						<g>
							<path id="mcb0c396d61_1_" class="st1" d="M383.4,780v6"/>
						</g>
					</g>
				</g>
				<g id="text_2">
					<text transform="matrix(1 0 0 1 373.2815 820.0211)" class="st2 st3 st4">3</text>
				</g>
			</g>
			<g id="xtick_3">
				<g id="line2d_3">
					<g>
						<g>
							<path id="mcb0c396d61_2_" class="st1" d="M550.8,780v6"/>
						</g>
					</g>
				</g>
				<g id="text_3">
					<text transform="matrix(1 0 0 1 540.6815 820.0211)" class="st2 st3 st4">4</text>
				</g>
			</g>
			<g id="xtick_4">
				<g id="line2d_4">
					<g>
						<g>
							<path id="mcb0c396d61_3_" class="st1" d="M718.2,780v6"/>
						</g>
					</g>
				</g>
				<g id="text_4">
					<text transform="matrix(1 0 0 1 708.0815 820.0211)" class="st2 st3 st4">5</text>
				</g>
			</g>
			<g id="xtick_5">
				<g id="line2d_5">
					<g>
						<g>
							<path id="mcb0c396d61_4_" class="st1" d="M885.6,780v6"/>
						</g>
					</g>
				</g>
				<g id="text_5">
					<text transform="matrix(1 0 0 1 875.4814 820.0211)" class="st2 st3 st4">6</text>
				</g>
			</g>
			<g id="xtick_6">
				<g id="line2d_6">
					<g>
						<g>
							<path id="mcb0c396d61_5_" class="st1" d="M1053,780v6"/>
						</g>
					</g>
				</g>
				<g id="text_6">
					<text transform="matrix(1 0 0 1 1042.8815 820.0211)" class="st2 st3 st4">7</text>
				</g>
			</g>
			<g id="xtick_7">
				<g id="line2d_7">
					<g>
						<g>
							<path id="mcb0c396d61_6_" class="st1" d="M1220.4,780v6"/>
						</g>
					</g>
				</g>
				<g id="text_7">
					<text transform="matrix(1 0 0 1 1210.2815 820.0211)" class="st2 st3 st4">8</text>
				</g>
			</g>
			<g id="xtick_8">
				<g id="line2d_8">
					<g>
						<g>
							<path id="mcb0c396d61_7_" class="st1" d="M1387.8,780v6"/>
						</g>
					</g>
				</g>
				<g id="text_8">
					<text transform="matrix(1 0 0 1 1377.6815 820.0211)" class="st2 st3 st4">9</text>
				</g>
			</g>
			<g id="xtick_9">
				<g id="line2d_9">
					<g>
						<g>
							<path id="mcb0c396d61_8_" class="st1" d="M1555.2,780v6"/>
						</g>
					</g>
				</g>
				<g id="text_9">
					<text transform="matrix(1 0 0 1 1540.6322 820.0211)" class="st2 st3 st4">10</text>
				</g>
			</g>
			<g id="text_10">
				<text transform="matrix(1 0 0 1 865.8469 854.972)" class="st2 st3 st4">pH</text>
			</g>
		</g>
		<g id="matplotlib.axis_2">
			<g id="ytick_1">
				<g id="line2d_10">
					<g>
						<g>
							<path id="mfdd17dc556" class="st1" d="M216,773.2h-6"/>
						</g>
					</g>
				</g>
				<g id="text_11">
					<text transform="matrix(1 0 0 1 153.8806 782.9705)" class="st2 st3 st4">0.0</text>
				</g>
			</g>
			<g id="ytick_2">
				<g id="line2d_11">
					<g>
						<g>
							<path id="mfdd17dc556_1_" class="st1" d="M216,635.9h-6"/>
						</g>
					</g>
				</g>
				<g id="text_12">
					<text transform="matrix(1 0 0 1 153.8806 645.6716)" class="st2 st3 st4">0.2</text>
				</g>
			</g>
			<g id="ytick_3">
				<g id="line2d_12">
					<g>
						<g>
							<path id="mfdd17dc556_2_" class="st1" d="M216,498.6h-6"/>
						</g>
					</g>
				</g>
				<g id="text_13">
					<text transform="matrix(1 0 0 1 153.8806 508.3726)" class="st2 st3 st4">0.4</text>
				</g>
			</g>
			<g id="ytick_4">
				<g id="line2d_13">
					<g>
						<g>
							<path id="mfdd17dc556_3_" class="st1" d="M216,361.3h-6"/>
						</g>
					</g>
				</g>
				<g id="text_14">
					<text transform="matrix(1 0 0 1 153.8806 371.0736)" class="st2 st3 st4">0.6</text>
				</g>
			</g>
			<g id="ytick_5">
				<g id="line2d_14">
					<g>
						<g>
							<path id="mfdd17dc556_4_" class="st1" d="M216,224h-6"/>
						</g>
					</g>
				</g>
				<g id="text_15">
					<text transform="matrix(1 0 0 1 153.8806 233.7746)" class="st2 st3 st4">0.8</text>
				</g>
			</g>
			<g id="ytick_6">
				<g id="text_16">
					<text transform="matrix(1 0 0 1 153.8806 96.4755)" class="st2 st3 st4">1.0</text>
				</g>
			</g>
			<g id="text_17">
				<text transform="matrix(6.123234e-17 -1 1 6.123234e-17 117.0382 518.6395)" class="st2 st3 st4">Fraction Sorbed</text>
			</g>
		</g>
		<g id="Data_Fits">
			<g>
				<defs>
					<rect id="SVGID_1_" x="216" y="86.7" width="1339.2" height="693.4"/>
				</defs>
				<clipPath id="SVGID_2_">
					<use xlink:href="#SVGID_1_"  style="overflow:visible;"/>
				</clipPath>
				<path class="st5" d="M216,773.6h16.7h16.7h16.7H283h16.7h16.7h16.7h16.7h16.7h16.7h16.7h16.7h16.7h16.7h16.7h16.7l16.7,0l16.7,0
					l16.7,0l16.7,0l16.7,0l16.7,0l16.7,0l16.7,0l16.7,0l16.7,0l16.7,0l16.7,0l16.7,0l16.7,0l16.7-0.1l16.7-0.1l16.7-0.2l16.7-0.2
					l16.7-0.4l16.7-0.6l16.7-0.9l16.7-1.4l16.7-2.1l16.7-3.2l16.7-4.9l16.7-7.5l16.7-11.3l16.7-16.7l16.7-24.3l16.7-34.3l16.7-46.2
					l16.7-58.9l16.7-69.6l16.7-75.3l16.7-74l16.7-66.3l16.7-54.5L1120,179l16.7-30.2l16.7-21l16.7-14.2l16.7-9.4l16.7-6.2l16.7-4
					l16.7-2.6l16.7-1.7l16.7-1.1l16.7-0.7l16.7-0.4l16.7-0.3l16.7-0.2l16.7-0.1l16.7-0.1l16.7,0l16.7,0l16.7,0l16.7,0l16.7,0l16.7,0
					l16.7,0l16.7,0l16.7,0l16.7,0l16.7,0"/>
			</g>
		</g>
		<g id="_x31_0_Bq_Error_Bars">
			<g id="LineCollection_1">
				<g>
					<defs>
						<rect id="SVGID_3_" x="216" y="86.7" width="1339.2" height="693.4"/>
					</defs>
					<clipPath id="SVGID_4_">
						<use xlink:href="#SVGID_3_"  style="overflow:visible;"/>
					</clipPath>
					<path class="st6" d="M390.3,1051.7"/>
				</g>
				<g>
					<defs>
						<rect id="SVGID_5_" x="216" y="86.7" width="1339.2" height="693.4"/>
					</defs>
					<clipPath id="SVGID_6_">
						<use xlink:href="#SVGID_5_"  style="overflow:visible;"/>
					</clipPath>
					<path class="st7" d="M718.2,752.5L718.2,752.5"/>
				</g>
				<g>
					<defs>
						<rect id="SVGID_7_" x="216" y="86.7" width="1339.2" height="693.4"/>
					</defs>
					<clipPath id="SVGID_8_">
						<use xlink:href="#SVGID_7_"  style="overflow:visible;"/>
					</clipPath>
					<path class="st8" d="M1037,489.6h9.7"/>
				</g>
			</g>
			<g id="LineCollection_2">
				<g>
					<defs>
						<rect id="SVGID_9_" x="216" y="86.7" width="1339.2" height="693.4"/>
					</defs>
					<clipPath id="SVGID_10_">
						<use xlink:href="#SVGID_9_"  style="overflow:visible;"/>
					</clipPath>
					<path class="st9" d="M395.7,867.7v-33.5"/>
				</g>
				<g>
					<defs>
						<rect id="SVGID_11_" x="216" y="86.7" width="1339.2" height="693.4"/>
					</defs>
					<clipPath id="SVGID_12_">
						<use xlink:href="#SVGID_11_"  style="overflow:visible;"/>
					</clipPath>
					<path class="st10" d="M718.2,824.9V680"/>
				</g>
				<g>
					<defs>
						<rect id="SVGID_13_" x="216" y="86.7" width="1339.2" height="693.4"/>
					</defs>
					<clipPath id="SVGID_14_">
						<use xlink:href="#SVGID_13_"  style="overflow:visible;"/>
					</clipPath>
					<path class="st11" d="M1041.8,526.8v-74.4"/>
				</g>
			</g>
			<g id="line2d_16">
				<g>
					<defs>
						<rect id="SVGID_15_" x="216" y="86.7" width="1339.2" height="693.4"/>
					</defs>
					<clipPath id="SVGID_16_">
						<use xlink:href="#SVGID_15_"  style="overflow:visible;"/>
					</clipPath>
					<g class="st12">
						<g>
							<path id="me9e75654d1" class="st13" d="M390.3,1056.7v-10"/>
						</g>
						<g>
							<path id="me9e75654d1_1_" class="st13" d="M718.2,757.5v-10"/>
						</g>
						<g>
							<path id="me9e75654d1_2_" class="st13" d="M1037,494.6v-10"/>
						</g>
					</g>
				</g>
			</g>
			<g id="line2d_17">
				<g>
					<defs>
						<rect id="SVGID_17_" x="216" y="86.7" width="1339.2" height="693.4"/>
					</defs>
					<clipPath id="SVGID_18_">
						<use xlink:href="#SVGID_17_"  style="overflow:visible;"/>
					</clipPath>
					<g class="st14">
						<g>
							<path id="me9e75654d1_3_" class="st13" d="M401.1,1056.7v-10"/>
						</g>
						<g>
							<path id="me9e75654d1_4_" class="st13" d="M718.2,757.5v-10"/>
						</g>
						<g>
							<path id="me9e75654d1_5_" class="st13" d="M1046.7,494.6v-10"/>
						</g>
					</g>
				</g>
			</g>
			<g id="line2d_18">
				<g>
					<defs>
						<rect id="SVGID_19_" x="216" y="86.7" width="1339.2" height="693.4"/>
					</defs>
					<clipPath id="SVGID_20_">
						<use xlink:href="#SVGID_19_"  style="overflow:visible;"/>
					</clipPath>
					<g class="st15">
						<g>
							<path id="m6b01bd7fc6" class="st13" d="M400.7,1269.2h-10"/>
						</g>
						<g>
							<path id="m6b01bd7fc6_1_" class="st13" d="M723.2,824.9h-10"/>
						</g>
						<g>
							<path id="m6b01bd7fc6_2_" class="st13" d="M1046.8,526.8h-10"/>
						</g>
					</g>
				</g>
			</g>
			<g id="line2d_19">
				<g>
					<defs>
						<rect id="SVGID_21_" x="216" y="86.7" width="1339.2" height="693.4"/>
					</defs>
					<clipPath id="SVGID_22_">
						<use xlink:href="#SVGID_21_"  style="overflow:visible;"/>
					</clipPath>
					<g class="st16">
						<g>
							<path id="m6b01bd7fc6_3_" class="st13" d="M400.7,834.2h-10"/>
						</g>
						<g>
							<path id="m6b01bd7fc6_4_" class="st13" d="M723.2,680h-10"/>
						</g>
						<g>
							<path id="m6b01bd7fc6_5_" class="st13" d="M1046.8,452.4h-10"/>
						</g>
					</g>
				</g>
			</g>
		</g>
		<g id="_x31_0_Bq_Data_Points">
			<g>
				<defs>
					<rect id="SVGID_23_" x="216" y="86.7" width="1339.2" height="693.4"/>
				</defs>
				<clipPath id="SVGID_24_">
					<use xlink:href="#SVGID_23_"  style="overflow:visible;"/>
				</clipPath>
				<g class="st17">
					<g>
						<path id="mb2caf24229" class="st18" d="M395.7,1066.7l9-15l-9-15l-9,15L395.7,1066.7z"/>
					</g>
					<g>
						<path id="mb2caf24229_1_" class="st18" d="M718.2,767.5l9-15l-9-15l-9,15L718.2,767.5z"/>
					</g>
					<g>
						<path id="mb2caf24229_2_" class="st18" d="M1041.8,504.6l9-15l-9-15l-9,15L1041.8,504.6z"/>
					</g>
				</g>
			</g>
		</g>
		<g id="_x35_0_Bq_Error_Bars">
			<g id="LineCollection_3">
				<g>
					<defs>
						<rect id="SVGID_25_" x="216" y="86.7" width="1339.2" height="693.4"/>
					</defs>
					<clipPath id="SVGID_26_">
						<use xlink:href="#SVGID_25_"  style="overflow:visible;"/>
					</clipPath>
					<path class="st19" d="M385.7,761.3h8.9"/>
				</g>
				<g>
					<defs>
						<rect id="SVGID_27_" x="216" y="86.7" width="1339.2" height="693.4"/>
					</defs>
					<clipPath id="SVGID_28_">
						<use xlink:href="#SVGID_27_"  style="overflow:visible;"/>
					</clipPath>
					<path class="st20" d="M718.2,595.7L718.2,595.7"/>
				</g>
				<g>
					<defs>
						<rect id="SVGID_29_" x="216" y="86.7" width="1339.2" height="693.4"/>
					</defs>
					<clipPath id="SVGID_30_">
						<use xlink:href="#SVGID_29_"  style="overflow:visible;"/>
					</clipPath>
					<path class="st21" d="M1041,387.2h18.4"/>
				</g>
				<g>
					<defs>
						<rect id="SVGID_31_" x="216" y="86.7" width="1339.2" height="693.4"/>
					</defs>
					<clipPath id="SVGID_32_">
						<use xlink:href="#SVGID_31_"  style="overflow:visible;"/>
					</clipPath>
					<path class="st22" d="M1369.6,58.8h8.4"/>
				</g>
			</g>
			<g id="LineCollection_4">
				<g>
					<defs>
						<rect id="SVGID_33_" x="216" y="86.7" width="1339.2" height="693.4"/>
					</defs>
					<clipPath id="SVGID_34_">
						<use xlink:href="#SVGID_33_"  style="overflow:visible;"/>
					</clipPath>
					<path class="st23" d="M390.1,803.5v-84.4"/>
				</g>
				<g>
					<defs>
						<rect id="SVGID_35_" x="216" y="86.7" width="1339.2" height="693.4"/>
					</defs>
					<clipPath id="SVGID_36_">
						<use xlink:href="#SVGID_35_"  style="overflow:visible;"/>
					</clipPath>
					<path class="st24" d="M718.2,788V403.4"/>
				</g>
				<g>
					<defs>
						<rect id="SVGID_37_" x="216" y="86.7" width="1339.2" height="693.4"/>
					</defs>
					<clipPath id="SVGID_38_">
						<use xlink:href="#SVGID_37_"  style="overflow:visible;"/>
					</clipPath>
					<path class="st25" d="M1050.2,400v-25.6"/>
				</g>
				<g>
					<defs>
						<rect id="SVGID_39_" x="216" y="86.7" width="1339.2" height="693.4"/>
					</defs>
					<clipPath id="SVGID_40_">
						<use xlink:href="#SVGID_39_"  style="overflow:visible;"/>
					</clipPath>
					<path class="st26" d="M1373.8,69.6V48"/>
				</g>
			</g>
			<g id="line2d_21">
				<g>
					<defs>
						<rect id="SVGID_41_" x="216" y="86.7" width="1339.2" height="693.4"/>
					</defs>
					<clipPath id="SVGID_42_">
						<use xlink:href="#SVGID_41_"  style="overflow:visible;"/>
					</clipPath>
					<g class="st27">
						<g>
							<path id="me9e75654d1_6_" class="st13" d="M385.7,766.3v-10"/>
						</g>
						<g>
							<path id="me9e75654d1_7_" class="st13" d="M718.2,600.7v-10"/>
						</g>
						<g>
							<path id="me9e75654d1_8_" class="st13" d="M1041,392.2v-10"/>
						</g>
						<g>
							<path id="me9e75654d1_9_" class="st13" d="M1369.6,63.8v-10"/>
						</g>
					</g>
				</g>
			</g>
			<g id="line2d_22">
				<g>
					<defs>
						<rect id="SVGID_43_" x="216" y="86.7" width="1339.2" height="693.4"/>
					</defs>
					<clipPath id="SVGID_44_">
						<use xlink:href="#SVGID_43_"  style="overflow:visible;"/>
					</clipPath>
					<g class="st28">
						<g>
							<path id="me9e75654d1_10_" class="st13" d="M394.5,766.3v-10"/>
						</g>
						<g>
							<path id="me9e75654d1_11_" class="st13" d="M718.2,600.7v-10"/>
						</g>
						<g>
							<path id="me9e75654d1_12_" class="st13" d="M1059.4,392.2v-10"/>
						</g>
						<g>
							<path id="me9e75654d1_13_" class="st13" d="M1378.1,63.8v-10"/>
						</g>
					</g>
				</g>
			</g>
			<g id="line2d_23">
				<g>
					<defs>
						<rect id="SVGID_45_" x="216" y="86.7" width="1339.2" height="693.4"/>
					</defs>
					<clipPath id="SVGID_46_">
						<use xlink:href="#SVGID_45_"  style="overflow:visible;"/>
					</clipPath>
					<g class="st29">
						<g>
							<path id="m6b01bd7fc6_6_" class="st13" d="M395.1,803.5h-10"/>
						</g>
						<g>
							<path id="m6b01bd7fc6_7_" class="st13" d="M723.2,788h-10"/>
						</g>
						<g>
							<path id="m6b01bd7fc6_8_" class="st13" d="M1055.2,400h-10"/>
						</g>
						<g>
							<path id="m6b01bd7fc6_9_" class="st13" d="M1378.8,69.6h-10"/>
						</g>
					</g>
				</g>
			</g>
			<g id="line2d_24">
				<g>
					<defs>
						<rect id="SVGID_47_" x="216" y="86.7" width="1339.2" height="693.4"/>
					</defs>
					<clipPath id="SVGID_48_">
						<use xlink:href="#SVGID_47_"  style="overflow:visible;"/>
					</clipPath>
					<g class="st30">
						<g>
							<path id="m6b01bd7fc6_10_" class="st13" d="M395.1,719.1h-10"/>
						</g>
						<g>
							<path id="m6b01bd7fc6_11_" class="st13" d="M723.2,403.4h-10"/>
						</g>
						<g>
							<path id="m6b01bd7fc6_12_" class="st13" d="M1055.2,374.4h-10"/>
						</g>
						<g>
							<path id="m6b01bd7fc6_13_" class="st13" d="M1378.8,48h-10"/>
						</g>
					</g>
				</g>
			</g>
		</g>
		<g id="_x35_0_Bq_Data_Points">
			<g>
				<defs>
					<rect id="SVGID_49_" x="216" y="86.7" width="1339.2" height="693.4"/>
				</defs>
				<clipPath id="SVGID_50_">
					<use xlink:href="#SVGID_49_"  style="overflow:visible;"/>
				</clipPath>
				<g class="st31">
					<g>
						<path id="m1bd0a67281" class="st18" d="M390.1,746.8l-14.3,10.4l5.4,16.8h17.6l5.4-16.8L390.1,746.8z"/>
					</g>
					<g>
						<path id="m1bd0a67281_1_" class="st18" d="M718.2,581.2l-14.3,10.4l5.4,16.8H727l5.4-16.8L718.2,581.2z"/>
					</g>
					<g>
						<path id="m1bd0a67281_2_" class="st18" d="M1050.2,372.7l-14.3,10.4l5.4,16.8h17.6l5.4-16.8L1050.2,372.7z"/>
					</g>
					<g>
						<path id="m1bd0a67281_3_" class="st18" d="M1373.8,44.3l-14.3,10.4l5.4,16.8h17.6l5.4-16.8L1373.8,44.3z"/>
					</g>
				</g>
			</g>
		</g>
		<g id="_x31_00_Bq_Error_Bars">
			<g id="LineCollection_5">
				<g>
					<defs>
						<rect id="SVGID_51_" x="216" y="86.7" width="1339.2" height="693.4"/>
					</defs>
					<clipPath id="SVGID_52_">
						<use xlink:href="#SVGID_51_"  style="overflow:visible;"/>
					</clipPath>
					<path class="st32" d="M380.6,726.8h29"/>
				</g>
				<g>
					<defs>
						<rect id="SVGID_53_" x="216" y="86.7" width="1339.2" height="693.4"/>
					</defs>
					<clipPath id="SVGID_54_">
						<use xlink:href="#SVGID_53_"  style="overflow:visible;"/>
					</clipPath>
					<path class="st33" d="M718.2,702.9L718.2,702.9"/>
				</g>
				<g>
					<defs>
						<rect id="SVGID_55_" x="216" y="86.7" width="1339.2" height="693.4"/>
					</defs>
					<clipPath id="SVGID_56_">
						<use xlink:href="#SVGID_55_"  style="overflow:visible;"/>
					</clipPath>
					<path class="st34" d="M1041.9,403.7h8.9"/>
				</g>
				<g>
					<defs>
						<rect id="SVGID_57_" x="216" y="86.7" width="1339.2" height="693.4"/>
					</defs>
					<clipPath id="SVGID_58_">
						<use xlink:href="#SVGID_57_"  style="overflow:visible;"/>
					</clipPath>
					<path class="st35" d="M1356.5,108.8h16.9"/>
				</g>
			</g>
			<g id="LineCollection_6">
				<g>
					<defs>
						<rect id="SVGID_59_" x="216" y="86.7" width="1339.2" height="693.4"/>
					</defs>
					<clipPath id="SVGID_60_">
						<use xlink:href="#SVGID_59_"  style="overflow:visible;"/>
					</clipPath>
					<path class="st36" d="M395.1,778.3V675.3"/>
				</g>
				<g>
					<defs>
						<rect id="SVGID_61_" x="216" y="86.7" width="1339.2" height="693.4"/>
					</defs>
					<clipPath id="SVGID_62_">
						<use xlink:href="#SVGID_61_"  style="overflow:visible;"/>
					</clipPath>
					<path class="st37" d="M718.2,711.5v-17.3"/>
				</g>
				<g>
					<defs>
						<rect id="SVGID_63_" x="216" y="86.7" width="1339.2" height="693.4"/>
					</defs>
					<clipPath id="SVGID_64_">
						<use xlink:href="#SVGID_63_"  style="overflow:visible;"/>
					</clipPath>
					<path class="st38" d="M1046.3,423.8v-40.2"/>
				</g>
				<g>
					<defs>
						<rect id="SVGID_65_" x="216" y="86.7" width="1339.2" height="693.4"/>
					</defs>
					<clipPath id="SVGID_66_">
						<use xlink:href="#SVGID_65_"  style="overflow:visible;"/>
					</clipPath>
					<path class="st39" d="M1364.9,124.4V93.2"/>
				</g>
			</g>
			<g id="line2d_26">
				<g>
					<defs>
						<rect id="SVGID_67_" x="216" y="86.7" width="1339.2" height="693.4"/>
					</defs>
					<clipPath id="SVGID_68_">
						<use xlink:href="#SVGID_67_"  style="overflow:visible;"/>
					</clipPath>
					<g class="st40">
						<g>
							<path id="me9e75654d1_14_" class="st13" d="M380.6,731.8v-10"/>
						</g>
						<g>
							<path id="me9e75654d1_15_" class="st13" d="M718.2,707.9v-10"/>
						</g>
						<g>
							<path id="me9e75654d1_16_" class="st13" d="M1041.9,408.7v-10"/>
						</g>
						<g>
							<path id="me9e75654d1_17_" class="st13" d="M1356.5,113.8v-10"/>
						</g>
					</g>
				</g>
			</g>
			<g id="line2d_27">
				<g>
					<defs>
						<rect id="SVGID_69_" x="216" y="86.7" width="1339.2" height="693.4"/>
					</defs>
					<clipPath id="SVGID_70_">
						<use xlink:href="#SVGID_69_"  style="overflow:visible;"/>
					</clipPath>
					<g class="st41">
						<g>
							<path id="me9e75654d1_18_" class="st13" d="M409.6,731.8v-10"/>
						</g>
						<g>
							<path id="me9e75654d1_19_" class="st13" d="M718.2,707.9v-10"/>
						</g>
						<g>
							<path id="me9e75654d1_20_" class="st13" d="M1050.7,408.7v-10"/>
						</g>
						<g>
							<path id="me9e75654d1_21_" class="st13" d="M1373.3,113.8v-10"/>
						</g>
					</g>
				</g>
			</g>
			<g id="line2d_28">
				<g>
					<defs>
						<rect id="SVGID_71_" x="216" y="86.7" width="1339.2" height="693.4"/>
					</defs>
					<clipPath id="SVGID_72_">
						<use xlink:href="#SVGID_71_"  style="overflow:visible;"/>
					</clipPath>
					<g class="st42">
						<g>
							<path id="m6b01bd7fc6_14_" class="st13" d="M400.1,778.3h-10"/>
						</g>
						<g>
							<path id="m6b01bd7fc6_15_" class="st13" d="M723.2,711.5h-10"/>
						</g>
						<g>
							<path id="m6b01bd7fc6_16_" class="st13" d="M1051.3,423.8h-10"/>
						</g>
						<g>
							<path id="m6b01bd7fc6_17_" class="st13" d="M1369.9,124.4h-10"/>
						</g>
					</g>
				</g>
			</g>
			<g id="line2d_29">
				<g>
					<defs>
						<rect id="SVGID_73_" x="216" y="86.7" width="1339.2" height="693.4"/>
					</defs>
					<clipPath id="SVGID_74_">
						<use xlink:href="#SVGID_73_"  style="overflow:visible;"/>
					</clipPath>
					<g class="st43">
						<g>
							<path id="m6b01bd7fc6_18_" class="st13" d="M400.1,675.3h-10"/>
						</g>
						<g>
							<path id="m6b01bd7fc6_19_" class="st13" d="M723.2,694.3h-10"/>
						</g>
						<g>
							<path id="m6b01bd7fc6_20_" class="st13" d="M1051.3,383.6h-10"/>
						</g>
						<g>
							<path id="m6b01bd7fc6_21_" class="st13" d="M1369.9,93.2h-10"/>
						</g>
					</g>
				</g>
			</g>
		</g>
		<g id="_x31_00_Bq_Data_Points">
			<g>
				<defs>
					<rect id="SVGID_75_" x="216" y="86.7" width="1339.2" height="693.4"/>
				</defs>
				<clipPath id="SVGID_76_">
					<use xlink:href="#SVGID_75_"  style="overflow:visible;"/>
				</clipPath>
				<g class="st44">
					<g>
						<path id="m18f76cd971" class="st18" d="M380.1,741.8h30v-30h-30V741.8z"/>
					</g>
					<g>
						<path id="m18f76cd971_1_" class="st18" d="M703.2,717.9h30v-30h-30V717.9z"/>
					</g>
					<g>
						<path id="m18f76cd971_2_" class="st18" d="M1031.3,418.7h30v-30h-30V418.7z"/>
					</g>
					<g>
						<path id="m18f76cd971_3_" class="st18" d="M1349.9,123.8h30v-30h-30V123.8z"/>
					</g>
				</g>
			</g>
		</g>
		<g id="_x35_00_Bq_Error_Bars">
			<g id="LineCollection_7">
				<g>
					<defs>
						<rect id="SVGID_77_" x="216" y="86.7" width="1339.2" height="693.4"/>
					</defs>
					<clipPath id="SVGID_78_">
						<use xlink:href="#SVGID_77_"  style="overflow:visible;"/>
					</clipPath>
					<path class="st45" d="M388.3,732.8h11.1"/>
				</g>
				<g>
					<defs>
						<rect id="SVGID_79_" x="216" y="86.7" width="1339.2" height="693.4"/>
					</defs>
					<clipPath id="SVGID_80_">
						<use xlink:href="#SVGID_79_"  style="overflow:visible;"/>
					</clipPath>
					<path class="st46" d="M718.2,687.3L718.2,687.3"/>
				</g>
				<g>
					<defs>
						<rect id="SVGID_81_" x="216" y="86.7" width="1339.2" height="693.4"/>
					</defs>
					<clipPath id="SVGID_82_">
						<use xlink:href="#SVGID_81_"  style="overflow:visible;"/>
					</clipPath>
					<path class="st47" d="M1046.6,473.3h11.1"/>
				</g>
				<g>
					<defs>
						<rect id="SVGID_83_" x="216" y="86.7" width="1339.2" height="693.4"/>
					</defs>
					<clipPath id="SVGID_84_">
						<use xlink:href="#SVGID_83_"  style="overflow:visible;"/>
					</clipPath>
					<path class="st48" d="M1369,124.8h15.8"/>
				</g>
			</g>
			<g id="LineCollection_8">
				<g>
					<defs>
						<rect id="SVGID_85_" x="216" y="86.7" width="1339.2" height="693.4"/>
					</defs>
					<clipPath id="SVGID_86_">
						<use xlink:href="#SVGID_85_"  style="overflow:visible;"/>
					</clipPath>
					<path class="st49" d="M393.9,769.4v-73.1"/>
				</g>
				<g>
					<defs>
						<rect id="SVGID_87_" x="216" y="86.7" width="1339.2" height="693.4"/>
					</defs>
					<clipPath id="SVGID_88_">
						<use xlink:href="#SVGID_87_"  style="overflow:visible;"/>
					</clipPath>
					<path class="st50" d="M718.2,718.7v-62.9"/>
				</g>
				<g>
					<defs>
						<rect id="SVGID_89_" x="216" y="86.7" width="1339.2" height="693.4"/>
					</defs>
					<clipPath id="SVGID_90_">
						<use xlink:href="#SVGID_89_"  style="overflow:visible;"/>
					</clipPath>
					<path class="st51" d="M1052.2,518v-89.4"/>
				</g>
				<g>
					<defs>
						<rect id="SVGID_91_" x="216" y="86.7" width="1339.2" height="693.4"/>
					</defs>
					<clipPath id="SVGID_92_">
						<use xlink:href="#SVGID_91_"  style="overflow:visible;"/>
					</clipPath>
					<path class="st52" d="M1376.9,152V97.5"/>
				</g>
			</g>
			<g id="line2d_31">
				<g>
					<defs>
						<rect id="SVGID_93_" x="216" y="86.7" width="1339.2" height="693.4"/>
					</defs>
					<clipPath id="SVGID_94_">
						<use xlink:href="#SVGID_93_"  style="overflow:visible;"/>
					</clipPath>
					<g class="st53">
						<g>
							<path id="me9e75654d1_22_" class="st13" d="M388.3,737.8v-10"/>
						</g>
						<g>
							<path id="me9e75654d1_23_" class="st13" d="M718.2,692.3v-10"/>
						</g>
						<g>
							<path id="me9e75654d1_24_" class="st13" d="M1046.6,478.3v-10"/>
						</g>
						<g>
							<path id="me9e75654d1_25_" class="st13" d="M1369,129.8v-10"/>
						</g>
					</g>
				</g>
			</g>
			<g id="line2d_32">
				<g>
					<defs>
						<rect id="SVGID_95_" x="216" y="86.7" width="1339.2" height="693.4"/>
					</defs>
					<clipPath id="SVGID_96_">
						<use xlink:href="#SVGID_95_"  style="overflow:visible;"/>
					</clipPath>
					<g class="st54">
						<g>
							<path id="me9e75654d1_26_" class="st13" d="M399.4,737.8v-10"/>
						</g>
						<g>
							<path id="me9e75654d1_27_" class="st13" d="M718.2,692.3v-10"/>
						</g>
						<g>
							<path id="me9e75654d1_28_" class="st13" d="M1057.7,478.3v-10"/>
						</g>
						<g>
							<path id="me9e75654d1_29_" class="st13" d="M1384.8,129.8v-10"/>
						</g>
					</g>
				</g>
			</g>
			<g id="line2d_33">
				<g>
					<defs>
						<rect id="SVGID_97_" x="216" y="86.7" width="1339.2" height="693.4"/>
					</defs>
					<clipPath id="SVGID_98_">
						<use xlink:href="#SVGID_97_"  style="overflow:visible;"/>
					</clipPath>
					<g class="st55">
						<g>
							<path id="m6b01bd7fc6_22_" class="st13" d="M398.9,769.4h-10"/>
						</g>
						<g>
							<path id="m6b01bd7fc6_23_" class="st13" d="M723.2,718.7h-10"/>
						</g>
						<g>
							<path id="m6b01bd7fc6_24_" class="st13" d="M1057.2,518h-10"/>
						</g>
						<g>
							<path id="m6b01bd7fc6_25_" class="st13" d="M1381.9,152h-10"/>
						</g>
					</g>
				</g>
			</g>
			<g id="line2d_34">
				<g>
					<defs>
						<rect id="SVGID_99_" x="216" y="86.7" width="1339.2" height="693.4"/>
					</defs>
					<clipPath id="SVGID_100_">
						<use xlink:href="#SVGID_99_"  style="overflow:visible;"/>
					</clipPath>
					<g class="st56">
						<g>
							<path id="m6b01bd7fc6_26_" class="st13" d="M398.9,696.3h-10"/>
						</g>
						<g>
							<path id="m6b01bd7fc6_27_" class="st13" d="M723.2,655.8h-10"/>
						</g>
						<g>
							<path id="m6b01bd7fc6_28_" class="st13" d="M1057.2,428.6h-10"/>
						</g>
						<g>
							<path id="m6b01bd7fc6_29_" class="st13" d="M1381.9,97.5h-10"/>
						</g>
					</g>
				</g>
			</g>
		</g>
		<g id="_x35_00_Bq_Data_Points">
			<g>
				<defs>
					<rect id="SVGID_101_" x="216" y="86.7" width="1339.2" height="693.4"/>
				</defs>
				<clipPath id="SVGID_102_">
					<use xlink:href="#SVGID_101_"  style="overflow:visible;"/>
				</clipPath>
				<g class="st57">
					<g>
						<path id="m9e0b8b77cc" class="st13" d="M393.9,747.8c4,0,7.8-1.6,10.6-4.4s4.4-6.6,4.4-10.6s-1.6-7.8-4.4-10.6
							s-6.6-4.4-10.6-4.4s-7.8,1.6-10.6,4.4s-4.4,6.6-4.4,10.6s1.6,7.8,4.4,10.6S389.9,747.8,393.9,747.8z"/>
					</g>
					<g>
						<path id="m9e0b8b77cc_1_" class="st13" d="M718.2,702.3c4,0,7.8-1.6,10.6-4.4s4.4-6.6,4.4-10.6s-1.6-7.8-4.4-10.6
							s-6.6-4.4-10.6-4.4s-7.8,1.6-10.6,4.4s-4.4,6.6-4.4,10.6s1.6,7.8,4.4,10.6S714.2,702.3,718.2,702.3z"/>
					</g>
					<g>
						<path id="m9e0b8b77cc_2_" class="st13" d="M1052.2,488.3c4,0,7.8-1.6,10.6-4.4c2.8-2.8,4.4-6.6,4.4-10.6c0-4-1.6-7.8-4.4-10.6
							c-2.8-2.8-6.6-4.4-10.6-4.4s-7.8,1.6-10.6,4.4c-2.8,2.8-4.4,6.6-4.4,10.6c0,4,1.6,7.8,4.4,10.6
							C1044.4,486.8,1048.2,488.3,1052.2,488.3z"/>
					</g>
					<g>
						<path id="m9e0b8b77cc_3_" class="st13" d="M1376.9,139.8c4,0,7.8-1.6,10.6-4.4c2.8-2.8,4.4-6.6,4.4-10.6s-1.6-7.8-4.4-10.6
							c-2.8-2.8-6.6-4.4-10.6-4.4s-7.8,1.6-10.6,4.4c-2.8,2.8-4.4,6.6-4.4,10.6s1.6,7.8,4.4,10.6
							C1369.1,138.2,1372.9,139.8,1376.9,139.8z"/>
					</g>
				</g>
			</g>
		</g>
		<g id="patch_3">
			<path class="st58" d="M216,780h1339.2"/>
		</g>
		<g id="patch_4">
			<path class="st58" d="M216,780V86.7"/>
		</g>
		<g id="text_18">
		</g>
		<g id="legend_1">
			<g id="line2d_36">
				<path class="st59" d="M230.4,95.8h32"/>
			</g>
			<g id="line2d_37">
			</g>
			<g id="text_19">
				<text transform="matrix(1 0 0 1 275.2 109.8828)" class="st2 st3 st4">1 site 2 rxn K1: -1.4 K2: 0 5.25e-05 mol sites</text>
			</g>
			<g id="line2d_38">
			</g>
			<g id="line2d_39">
				<g>
					<g>
						<path id="mb2caf24229_3_" class="st18" d="M246.4,142.1l9-15l-9-15l-9,15L246.4,142.1z"/>
					</g>
				</g>
			</g>
			<g id="text_20">
				<text transform="matrix(1 0 0 1 275.2 141.2543)" class="st2 st3 st4">Experimental Data 10 Bq Total</text>
			</g>
			<g id="line2d_40">
			</g>
			<g id="line2d_41">
				<g>
					<g>
						<path id="m1bd0a67281_4_" class="st18" d="M246.4,146.6L232.1,157l5.4,16.8h17.6l5.4-16.8L246.4,146.6z"/>
					</g>
				</g>
			</g>
			<g id="text_21">
				<text transform="matrix(1 0 0 1 275.2 175.2729)" class="st2 st3 st4">Experimental Data 50 Bq Total</text>
			</g>
			<g id="line2d_42">
			</g>
			<g id="line2d_43">
				<g>
					<g>
						<path id="m18f76cd971_4_" class="st18" d="M231.4,210.2h30v-30h-30V210.2z"/>
					</g>
				</g>
			</g>
			<g id="text_22">
				<text transform="matrix(1 0 0 1 275.2 209.2915)" class="st2 st3 st4">Experimental Data 100 Bq Total</text>
			</g>
			<g id="line2d_44">
			</g>
			<g id="line2d_45">
				<g>
					<g>
						<path id="m9e0b8b77cc_4_" class="st13" d="M246.4,247c4,0,7.8-1.6,10.6-4.4c2.8-2.8,4.4-6.6,4.4-10.6s-1.6-7.8-4.4-10.6
							s-6.6-4.4-10.6-4.4s-7.8,1.6-10.6,4.4c-2.8,2.8-4.4,6.6-4.4,10.6s1.6,7.8,4.4,10.6C238.6,245.5,242.4,247,246.4,247z"/>
					</g>
				</g>
			</g>
			<g id="text_23">
				<text transform="matrix(1 0 0 1 275.2 246.1448)" class="st2 st3 st4">Experimental Data 500 Bq Total</text>
			</g>
		</g>
	</g>
</g>
</svg>
