<?xml version="1.0" encoding="utf-8"?>
<!-- Generator: Adobe Illustrator 20.0.0, SVG Export Plug-In . SVG Version: 6.00 Build 0)  -->
<svg version="1.1" id="Layer_1" xmlns="http://www.w3.org/2000/svg" xmlns:xlink="http://www.w3.org/1999/xlink" x="0px" y="0px"
	 viewBox="0 0 1728 866" style="enable-background:new 0 0 1728 866;" xml:space="preserve">
<style type="text/css">
	.st0{fill:#FFFFFF;}
	.st1{fill:none;stroke:#262626;stroke-width:1.6;stroke-linejoin:round;stroke-miterlimit:10;}
	.st2{fill:#262626;}
	.st3{font-family:'ArialMT';}
	.st4{font-size:18px;}
	.st5{clip-path:url(#SVGID_2_);fill:none;stroke:#000000;stroke-linejoin:round;stroke-miterlimit:10;}
	.st6{clip-path:url(#SVGID_4_);fill:none;stroke:#000000;stroke-linejoin:round;stroke-miterlimit:10;}
	.st7{clip-path:url(#SVGID_6_);fill:none;stroke:#000000;stroke-linejoin:round;stroke-miterlimit:10;}
	.st8{clip-path:url(#SVGID_8_);fill:none;stroke:#000000;stroke-linejoin:round;stroke-miterlimit:10;}
	.st9{clip-path:url(#SVGID_10_);fill:none;stroke:#000000;stroke-linejoin:round;stroke-miterlimit:10;}
	.st10{clip-path:url(#SVGID_12_);fill:none;stroke:#000000;stroke-linejoin:round;stroke-miterlimit:10;}
	.st11{clip-path:url(#SVGID_14_);fill:none;stroke:#000000;stroke-linejoin:round;stroke-miterlimit:10;}
	.st12{clip-path:url(#SVGID_16_);fill:none;stroke:#000000;stroke-linejoin:round;stroke-miterlimit:10;}
	.st13{clip-path:url(#SVGID_18_);fill:none;stroke:#000000;stroke-linejoin:round;stroke-miterlimit:10;}
	.st14{clip-path:url(#SVGID_20_);fill:none;stroke:#000000;stroke-linejoin:round;stroke-miterlimit:10;}
	.st15{clip-path:url(#SVGID_22_);fill:none;stroke:#000000;stroke-linejoin:round;stroke-miterlimit:10;}
	.st16{clip-path:url(#SVGID_24_);fill:none;stroke:#000000;stroke-linejoin:round;stroke-miterlimit:10;}
	.st17{clip-path:url(#SVGID_26_);fill:none;stroke:#000000;stroke-linejoin:round;stroke-miterlimit:10;}
	.st18{clip-path:url(#SVGID_28_);fill:none;stroke:#000000;stroke-linejoin:round;stroke-miterlimit:10;}
	.st19{clip-path:url(#SVGID_30_);fill:none;stroke:#000000;stroke-linejoin:round;stroke-miterlimit:10;}
	.st20{clip-path:url(#SVGID_32_);fill:none;stroke:#000000;stroke-linejoin:round;stroke-miterlimit:10;}
	.st21{clip-path:url(#SVGID_34_);fill:none;stroke:#000000;stroke-linejoin:round;stroke-miterlimit:10;}
	.st22{clip-path:url(#SVGID_36_);fill:none;stroke:#000000;stroke-linejoin:round;stroke-miterlimit:10;}
	.st23{clip-path:url(#SVGID_38_);fill:none;stroke:#000000;stroke-linejoin:round;stroke-miterlimit:10;}
	.st24{clip-path:url(#SVGID_40_);fill:none;stroke:#000000;stroke-linejoin:round;stroke-miterlimit:10;}
	.st25{clip-path:url(#SVGID_42_);fill:none;stroke:#000000;stroke-linejoin:round;stroke-miterlimit:10;}
	.st26{clip-path:url(#SVGID_44_);fill:none;stroke:#000000;stroke-linejoin:round;stroke-miterlimit:10;}
	.st27{clip-path:url(#SVGID_46_);fill:none;stroke:#000000;stroke-linejoin:round;stroke-miterlimit:10;}
	.st28{clip-path:url(#SVGID_48_);fill:none;stroke:#000000;stroke-linejoin:round;stroke-miterlimit:10;}
	.st29{clip-path:url(#SVGID_50_);fill:none;stroke:#000000;stroke-linejoin:round;stroke-miterlimit:10;}
	.st30{clip-path:url(#SVGID_52_);fill:none;stroke:#000000;stroke-linejoin:round;stroke-miterlimit:10;}
	.st31{clip-path:url(#SVGID_54_);fill:none;stroke:#000000;stroke-linejoin:round;stroke-miterlimit:10;}
	.st32{clip-path:url(#SVGID_56_);fill:none;stroke:#000000;stroke-linejoin:round;stroke-miterlimit:10;}
	.st33{clip-path:url(#SVGID_58_);fill:none;stroke:#000000;stroke-linejoin:round;stroke-miterlimit:10;}
	.st34{clip-path:url(#SVGID_60_);fill:none;stroke:#000000;stroke-linejoin:round;stroke-miterlimit:10;}
	.st35{clip-path:url(#SVGID_62_);fill:none;stroke:#000000;stroke-linejoin:round;stroke-miterlimit:10;}
	.st36{clip-path:url(#SVGID_64_);fill:none;stroke:#000000;stroke-linejoin:round;stroke-miterlimit:10;}
	.st37{clip-path:url(#SVGID_66_);fill:none;stroke:#000000;stroke-linejoin:round;stroke-miterlimit:10;}
	.st38{clip-path:url(#SVGID_68_);fill:none;stroke:#000000;stroke-linejoin:round;stroke-miterlimit:10;}
	.st39{clip-path:url(#SVGID_70_);fill:none;stroke:#000000;stroke-linejoin:round;stroke-miterlimit:10;}
	.st40{clip-path:url(#SVGID_72_);fill:none;stroke:#000000;stroke-linejoin:round;stroke-miterlimit:10;}
	.st41{clip-path:url(#SVGID_74_);fill:none;stroke:#000000;stroke-linejoin:round;stroke-miterlimit:10;}
	.st42{clip-path:url(#SVGID_76_);fill:none;stroke:#000000;stroke-linejoin:round;stroke-miterlimit:10;}
	
		.st43{clip-path:url(#SVGID_78_);fill:none;stroke:#000000;stroke-width:2;stroke-linecap:round;stroke-linejoin:round;stroke-miterlimit:10;}
	.st44{clip-path:url(#SVGID_80_);}
	.st45{fill:none;stroke:#000000;stroke-width:2;stroke-linejoin:round;stroke-miterlimit:10;}
	.st46{clip-path:url(#SVGID_82_);}
	.st47{clip-path:url(#SVGID_84_);}
	.st48{clip-path:url(#SVGID_86_);}
	.st49{clip-path:url(#SVGID_88_);}
	.st50{fill:none;stroke:#000000;stroke-width:2;stroke-miterlimit:10;}
	.st51{clip-path:url(#SVGID_90_);}
	.st52{clip-path:url(#SVGID_92_);}
	.st53{clip-path:url(#SVGID_94_);}
	.st54{clip-path:url(#SVGID_96_);}
	.st55{clip-path:url(#SVGID_98_);}
	.st56{clip-path:url(#SVGID_100_);}
	.st57{clip-path:url(#SVGID_102_);}
	.st58{clip-path:url(#SVGID_104_);}
	.st59{clip-path:url(#SVGID_106_);}
	.st60{clip-path:url(#SVGID_108_);}
	.st61{clip-path:url(#SVGID_110_);}
	.st62{clip-path:url(#SVGID_112_);}
	.st63{clip-path:url(#SVGID_114_);}
	.st64{clip-path:url(#SVGID_116_);}
	.st65{clip-path:url(#SVGID_118_);}
	.st66{clip-path:url(#SVGID_120_);}
	.st67{clip-path:url(#SVGID_122_);}
	.st68{clip-path:url(#SVGID_124_);}
	.st69{clip-path:url(#SVGID_126_);}
	.st70{clip-path:url(#SVGID_128_);}
	.st71{fill:none;stroke:#262626;stroke-width:1.25;stroke-linecap:square;stroke-miterlimit:10;}
	.st72{fill:none;stroke:#000000;stroke-linecap:round;stroke-linejoin:round;stroke-miterlimit:10;}
</style>
<g id="figure_1">
	<g id="patch_1">
		<path class="st0" d="M0,866.7h1728V0H0V866.7z"/>
	</g>
	<g id="axes_1">
		<g id="patch_2">
			<path class="st0" d="M216,780h1339.2V86.7H216V780z"/>
		</g>
		<g id="matplotlib.axis_1">
			<g id="xtick_1">
				<g id="line2d_1">
					<g>
						<g>
							<path id="mb8317951e7" class="st1" d="M216,780v6"/>
						</g>
					</g>
				</g>
				<g id="text_1">
					<text transform="matrix(1 0 0 1 211.5508 808.6825)" class="st2 st3 st4">2</text>
				</g>
			</g>
			<g id="xtick_2">
				<g id="line2d_2">
					<g>
						<g>
							<path id="mb8317951e7_1_" class="st1" d="M383.4,780v6"/>
						</g>
					</g>
				</g>
				<g id="text_2">
					<text transform="matrix(1 0 0 1 378.9508 808.6825)" class="st2 st3 st4">3</text>
				</g>
			</g>
			<g id="xtick_3">
				<g id="line2d_3">
					<g>
						<g>
							<path id="mb8317951e7_2_" class="st1" d="M550.8,780v6"/>
						</g>
					</g>
				</g>
				<g id="text_3">
					<text transform="matrix(1 0 0 1 546.3508 808.6825)" class="st2 st3 st4">4</text>
				</g>
			</g>
			<g id="xtick_4">
				<g id="line2d_4">
					<g>
						<g>
							<path id="mb8317951e7_3_" class="st1" d="M718.2,780v6"/>
						</g>
					</g>
				</g>
				<g id="text_4">
					<text transform="matrix(1 0 0 1 713.7508 808.6825)" class="st2 st3 st4">5</text>
				</g>
			</g>
			<g id="xtick_5">
				<g id="line2d_5">
					<g>
						<g>
							<path id="mb8317951e7_4_" class="st1" d="M885.6,780v6"/>
						</g>
					</g>
				</g>
				<g id="text_5">
					<text transform="matrix(1 0 0 1 881.1508 808.6825)" class="st2 st3 st4">6</text>
				</g>
			</g>
			<g id="xtick_6">
				<g id="line2d_6">
					<g>
						<g>
							<path id="mb8317951e7_5_" class="st1" d="M1053,780v6"/>
						</g>
					</g>
				</g>
				<g id="text_6">
					<text transform="matrix(1 0 0 1 1048.5508 808.6825)" class="st2 st3 st4">7</text>
				</g>
			</g>
			<g id="xtick_7">
				<g id="line2d_7">
					<g>
						<g>
							<path id="mb8317951e7_6_" class="st1" d="M1220.4,780v6"/>
						</g>
					</g>
				</g>
				<g id="text_7">
					<text transform="matrix(1 0 0 1 1215.9508 808.6825)" class="st2 st3 st4">8</text>
				</g>
			</g>
			<g id="xtick_8">
				<g id="line2d_8">
					<g>
						<g>
							<path id="mb8317951e7_7_" class="st1" d="M1387.8,780v6"/>
						</g>
					</g>
				</g>
				<g id="text_8">
					<text transform="matrix(1 0 0 1 1383.3508 808.6825)" class="st2 st3 st4">9</text>
				</g>
			</g>
			<g id="xtick_9">
				<g id="line2d_9">
					<g>
						<g>
							<path id="mb8317951e7_8_" class="st1" d="M1555.2,780v6"/>
						</g>
					</g>
				</g>
				<g id="text_9">
					<text transform="matrix(1 0 0 1 1546.3015 808.6825)" class="st2 st3 st4">10</text>
				</g>
			</g>
			<g id="text_10">
				<text transform="matrix(1 0 0 1 874.3508 829.4603)" class="st2 st3 st4">pH</text>
			</g>
		</g>
		<g id="matplotlib.axis_2">
			<g id="ytick_1">
				<g id="line2d_10">
					<g>
						<g>
							<path id="m5d7e8dae5b" class="st1" d="M216,773.2h-6"/>
						</g>
					</g>
				</g>
				<g id="text_11">
					<text transform="matrix(1 0 0 1 176.5578 777.3013)" class="st2 st3 st4">0.0</text>
				</g>
			</g>
			<g id="ytick_2">
				<g id="line2d_11">
					<g>
						<g>
							<path id="m5d7e8dae5b_1_" class="st1" d="M216,635.9h-6"/>
						</g>
					</g>
				</g>
				<g id="text_12">
					<text transform="matrix(1 0 0 1 176.5578 640.0023)" class="st2 st3 st4">0.2</text>
				</g>
			</g>
			<g id="ytick_3">
				<g id="line2d_12">
					<g>
						<g>
							<path id="m5d7e8dae5b_2_" class="st1" d="M216,498.6h-6"/>
						</g>
					</g>
				</g>
				<g id="text_13">
					<text transform="matrix(1 0 0 1 176.5578 502.7033)" class="st2 st3 st4">0.4</text>
				</g>
			</g>
			<g id="ytick_4">
				<g id="line2d_13">
					<g>
						<g>
							<path id="m5d7e8dae5b_3_" class="st1" d="M216,361.3h-6"/>
						</g>
					</g>
				</g>
				<g id="text_14">
					<text transform="matrix(1 0 0 1 176.5578 365.4043)" class="st2 st3 st4">0.6</text>
				</g>
			</g>
			<g id="ytick_5">
				<g id="line2d_14">
					<g>
						<g>
							<path id="m5d7e8dae5b_4_" class="st1" d="M216,224h-6"/>
						</g>
					</g>
				</g>
				<g id="text_15">
					<text transform="matrix(1 0 0 1 176.5578 228.1052)" class="st2 st3 st4">0.8</text>
				</g>
			</g>
			<g id="ytick_6">
				<g id="text_16">
					<text transform="matrix(1 0 0 1 176.5578 90.8063)" class="st2 st3 st4">1.0</text>
				</g>
			</g>
			<g id="text_17">
				<text transform="matrix(6.123234e-17 -1 1 6.123234e-17 168.062 495.9598)" class="st2 st3 st4">Fraction Sorbed</text>
			</g>
		</g>
		<g id="LineCollection_1">
			<g>
				<g>
					<defs>
						<rect id="SVGID_1_" x="216" y="86.7" width="1339.2" height="693.4"/>
					</defs>
					<clipPath id="SVGID_2_">
						<use xlink:href="#SVGID_1_"  style="overflow:visible;"/>
					</clipPath>
					<path class="st5" d="M383.4,997.6"/>
				</g>
			</g>
			<g>
				<g>
					<defs>
						<rect id="SVGID_3_" x="216" y="86.7" width="1339.2" height="693.4"/>
					</defs>
					<clipPath id="SVGID_4_">
						<use xlink:href="#SVGID_3_"  style="overflow:visible;"/>
					</clipPath>
					<path class="st6" d="M718.2,885.6"/>
				</g>
			</g>
			<g>
				<g>
					<defs>
						<rect id="SVGID_5_" x="216" y="86.7" width="1339.2" height="693.4"/>
					</defs>
					<clipPath id="SVGID_6_">
						<use xlink:href="#SVGID_5_"  style="overflow:visible;"/>
					</clipPath>
					<path class="st7" d="M1050.9,731.2h1.9"/>
				</g>
			</g>
		</g>
		<g id="LineCollection_2">
			<g>
				<g>
					<defs>
						<rect id="SVGID_7_" x="216" y="86.7" width="1339.2" height="693.4"/>
					</defs>
					<clipPath id="SVGID_8_">
						<use xlink:href="#SVGID_7_"  style="overflow:visible;"/>
					</clipPath>
					<path class="st8" d="M383.4,1032.5"/>
				</g>
			</g>
			<g>
				<g>
					<defs>
						<rect id="SVGID_9_" x="216" y="86.7" width="1339.2" height="693.4"/>
					</defs>
					<clipPath id="SVGID_10_">
						<use xlink:href="#SVGID_9_"  style="overflow:visible;"/>
					</clipPath>
					<path class="st9" d="M718.2,867.7v-17"/>
				</g>
			</g>
			<g>
				<g>
					<defs>
						<rect id="SVGID_11_" x="216" y="86.7" width="1339.2" height="693.4"/>
					</defs>
					<clipPath id="SVGID_12_">
						<use xlink:href="#SVGID_11_"  style="overflow:visible;"/>
					</clipPath>
					<path class="st10" d="M1051.9,755.8v-49.2"/>
				</g>
			</g>
		</g>
		<g id="LineCollection_3">
			<g>
				<g>
					<defs>
						<rect id="SVGID_13_" x="216" y="86.7" width="1339.2" height="693.4"/>
					</defs>
					<clipPath id="SVGID_14_">
						<use xlink:href="#SVGID_13_"  style="overflow:visible;"/>
					</clipPath>
					<path class="st11" d="M383.4,818.5L383.4,818.5"/>
				</g>
			</g>
			<g>
				<g>
					<defs>
						<rect id="SVGID_15_" x="216" y="86.7" width="1339.2" height="693.4"/>
					</defs>
					<clipPath id="SVGID_16_">
						<use xlink:href="#SVGID_15_"  style="overflow:visible;"/>
					</clipPath>
					<path class="st12" d="M718.2,734h3.3"/>
				</g>
			</g>
			<g>
				<g>
					<defs>
						<rect id="SVGID_17_" x="216" y="86.7" width="1339.2" height="693.4"/>
					</defs>
					<clipPath id="SVGID_18_">
						<use xlink:href="#SVGID_17_"  style="overflow:visible;"/>
					</clipPath>
					<path class="st13" d="M1049.7,647.6h6.7"/>
				</g>
			</g>
			<g>
				<g>
					<defs>
						<rect id="SVGID_19_" x="216" y="86.7" width="1339.2" height="693.4"/>
					</defs>
					<clipPath id="SVGID_20_">
						<use xlink:href="#SVGID_19_"  style="overflow:visible;"/>
					</clipPath>
					<path class="st14" d="M1383.2,167.3h5.8"/>
				</g>
			</g>
		</g>
		<g id="LineCollection_4">
			<g>
				<g>
					<defs>
						<rect id="SVGID_21_" x="216" y="86.7" width="1339.2" height="693.4"/>
					</defs>
					<clipPath id="SVGID_22_">
						<use xlink:href="#SVGID_21_"  style="overflow:visible;"/>
					</clipPath>
					<path class="st15" d="M383.4,846v-55"/>
				</g>
			</g>
			<g>
				<g>
					<defs>
						<rect id="SVGID_23_" x="216" y="86.7" width="1339.2" height="693.4"/>
					</defs>
					<clipPath id="SVGID_24_">
						<use xlink:href="#SVGID_23_"  style="overflow:visible;"/>
					</clipPath>
					<path class="st16" d="M719.9,780.4v-92.7"/>
				</g>
			</g>
			<g>
				<g>
					<defs>
						<rect id="SVGID_25_" x="216" y="86.7" width="1339.2" height="693.4"/>
					</defs>
					<clipPath id="SVGID_26_">
						<use xlink:href="#SVGID_25_"  style="overflow:visible;"/>
					</clipPath>
					<path class="st17" d="M1053,680.7v-66.3"/>
				</g>
			</g>
			<g>
				<g>
					<defs>
						<rect id="SVGID_27_" x="216" y="86.7" width="1339.2" height="693.4"/>
					</defs>
					<clipPath id="SVGID_28_">
						<use xlink:href="#SVGID_27_"  style="overflow:visible;"/>
					</clipPath>
					<path class="st18" d="M1386.1,175.8v-17"/>
				</g>
			</g>
		</g>
		<g id="LineCollection_5">
			<g>
				<g>
					<defs>
						<rect id="SVGID_29_" x="216" y="86.7" width="1339.2" height="693.4"/>
					</defs>
					<clipPath id="SVGID_30_">
						<use xlink:href="#SVGID_29_"  style="overflow:visible;"/>
					</clipPath>
					<path class="st19" d="M383.4,812.2L383.4,812.2"/>
				</g>
			</g>
			<g>
				<g>
					<defs>
						<rect id="SVGID_31_" x="216" y="86.7" width="1339.2" height="693.4"/>
					</defs>
					<clipPath id="SVGID_32_">
						<use xlink:href="#SVGID_31_"  style="overflow:visible;"/>
					</clipPath>
					<path class="st20" d="M717,771.8h2.4"/>
				</g>
			</g>
			<g>
				<g>
					<defs>
						<rect id="SVGID_33_" x="216" y="86.7" width="1339.2" height="693.4"/>
					</defs>
					<clipPath id="SVGID_34_">
						<use xlink:href="#SVGID_33_"  style="overflow:visible;"/>
					</clipPath>
					<path class="st21" d="M1051.7,681.5h3.7"/>
				</g>
			</g>
			<g>
				<g>
					<defs>
						<rect id="SVGID_35_" x="216" y="86.7" width="1339.2" height="693.4"/>
					</defs>
					<clipPath id="SVGID_36_">
						<use xlink:href="#SVGID_35_"  style="overflow:visible;"/>
					</clipPath>
					<path class="st22" d="M1385.4,179.3h4.9"/>
				</g>
			</g>
		</g>
		<g id="LineCollection_6">
			<g>
				<g>
					<defs>
						<rect id="SVGID_37_" x="216" y="86.7" width="1339.2" height="693.4"/>
					</defs>
					<clipPath id="SVGID_38_">
						<use xlink:href="#SVGID_37_"  style="overflow:visible;"/>
					</clipPath>
					<path class="st23" d="M383.4,849.8v-75.2"/>
				</g>
			</g>
			<g>
				<g>
					<defs>
						<rect id="SVGID_39_" x="216" y="86.7" width="1339.2" height="693.4"/>
					</defs>
					<clipPath id="SVGID_40_">
						<use xlink:href="#SVGID_39_"  style="overflow:visible;"/>
					</clipPath>
					<path class="st24" d="M718.2,785.1v-26.7"/>
				</g>
			</g>
			<g>
				<g>
					<defs>
						<rect id="SVGID_41_" x="216" y="86.7" width="1339.2" height="693.4"/>
					</defs>
					<clipPath id="SVGID_42_">
						<use xlink:href="#SVGID_41_"  style="overflow:visible;"/>
					</clipPath>
					<path class="st25" d="M1053.6,721.8v-80.7"/>
				</g>
			</g>
			<g>
				<g>
					<defs>
						<rect id="SVGID_43_" x="216" y="86.7" width="1339.2" height="693.4"/>
					</defs>
					<clipPath id="SVGID_44_">
						<use xlink:href="#SVGID_43_"  style="overflow:visible;"/>
					</clipPath>
					<path class="st26" d="M1387.8,193.7V165"/>
				</g>
			</g>
		</g>
		<g id="LineCollection_7">
			<g>
				<g>
					<defs>
						<rect id="SVGID_45_" x="216" y="86.7" width="1339.2" height="693.4"/>
					</defs>
					<clipPath id="SVGID_46_">
						<use xlink:href="#SVGID_45_"  style="overflow:visible;"/>
					</clipPath>
					<path class="st27" d="M383,794.3h1.9"/>
				</g>
			</g>
			<g>
				<g>
					<defs>
						<rect id="SVGID_47_" x="216" y="86.7" width="1339.2" height="693.4"/>
					</defs>
					<clipPath id="SVGID_48_">
						<use xlink:href="#SVGID_47_"  style="overflow:visible;"/>
					</clipPath>
					<path class="st28" d="M718.3,709.8h1.9"/>
				</g>
			</g>
			<g>
				<g>
					<defs>
						<rect id="SVGID_49_" x="216" y="86.7" width="1339.2" height="693.4"/>
					</defs>
					<clipPath id="SVGID_50_">
						<use xlink:href="#SVGID_49_"  style="overflow:visible;"/>
					</clipPath>
					<path class="st29" d="M1050.9,651.4h1.9"/>
				</g>
			</g>
			<g>
				<g>
					<defs>
						<rect id="SVGID_51_" x="216" y="86.7" width="1339.2" height="693.4"/>
					</defs>
					<clipPath id="SVGID_52_">
						<use xlink:href="#SVGID_51_"  style="overflow:visible;"/>
					</clipPath>
					<path class="st30" d="M1387,227.6h3.9"/>
				</g>
			</g>
		</g>
		<g id="LineCollection_8">
			<g>
				<g>
					<defs>
						<rect id="SVGID_53_" x="216" y="86.7" width="1339.2" height="693.4"/>
					</defs>
					<clipPath id="SVGID_54_">
						<use xlink:href="#SVGID_53_"  style="overflow:visible;"/>
					</clipPath>
					<path class="st31" d="M384,810.5v-32.4"/>
				</g>
			</g>
			<g>
				<g>
					<defs>
						<rect id="SVGID_55_" x="216" y="86.7" width="1339.2" height="693.4"/>
					</defs>
					<clipPath id="SVGID_56_">
						<use xlink:href="#SVGID_55_"  style="overflow:visible;"/>
					</clipPath>
					<path class="st32" d="M719.3,755.5V664"/>
				</g>
			</g>
			<g>
				<g>
					<defs>
						<rect id="SVGID_57_" x="216" y="86.7" width="1339.2" height="693.4"/>
					</defs>
					<clipPath id="SVGID_58_">
						<use xlink:href="#SVGID_57_"  style="overflow:visible;"/>
					</clipPath>
					<path class="st33" d="M1051.9,668.7v-34.6"/>
				</g>
			</g>
			<g>
				<g>
					<defs>
						<rect id="SVGID_59_" x="216" y="86.7" width="1339.2" height="693.4"/>
					</defs>
					<clipPath id="SVGID_60_">
						<use xlink:href="#SVGID_59_"  style="overflow:visible;"/>
					</clipPath>
					<path class="st34" d="M1388.9,249.4v-43.6"/>
				</g>
			</g>
		</g>
		<g id="LineCollection_9">
			<g>
				<g>
					<defs>
						<rect id="SVGID_61_" x="216" y="86.7" width="1339.2" height="693.4"/>
					</defs>
					<clipPath id="SVGID_62_">
						<use xlink:href="#SVGID_61_"  style="overflow:visible;"/>
					</clipPath>
					<path class="st35" d="M383.4,795.2L383.4,795.2"/>
				</g>
			</g>
			<g>
				<g>
					<defs>
						<rect id="SVGID_63_" x="216" y="86.7" width="1339.2" height="693.4"/>
					</defs>
					<clipPath id="SVGID_64_">
						<use xlink:href="#SVGID_63_"  style="overflow:visible;"/>
					</clipPath>
					<path class="st36" d="M717.4,721.6h3.9"/>
				</g>
			</g>
			<g>
				<g>
					<defs>
						<rect id="SVGID_65_" x="216" y="86.7" width="1339.2" height="693.4"/>
					</defs>
					<clipPath id="SVGID_66_">
						<use xlink:href="#SVGID_65_"  style="overflow:visible;"/>
					</clipPath>
					<path class="st37" d="M1052.6,674.4h1.9"/>
				</g>
			</g>
			<g>
				<g>
					<defs>
						<rect id="SVGID_67_" x="216" y="86.7" width="1339.2" height="693.4"/>
					</defs>
					<clipPath id="SVGID_68_">
						<use xlink:href="#SVGID_67_"  style="overflow:visible;"/>
					</clipPath>
					<path class="st38" d="M1387.4,229.1h1.9"/>
				</g>
			</g>
		</g>
		<g id="LineCollection_10">
			<g>
				<g>
					<defs>
						<rect id="SVGID_69_" x="216" y="86.7" width="1339.2" height="693.4"/>
					</defs>
					<clipPath id="SVGID_70_">
						<use xlink:href="#SVGID_69_"  style="overflow:visible;"/>
					</clipPath>
					<path class="st39" d="M383.4,805.2v-19.9"/>
				</g>
			</g>
			<g>
				<g>
					<defs>
						<rect id="SVGID_71_" x="216" y="86.7" width="1339.2" height="693.4"/>
					</defs>
					<clipPath id="SVGID_72_">
						<use xlink:href="#SVGID_71_"  style="overflow:visible;"/>
					</clipPath>
					<path class="st40" d="M719.3,733.5v-23.9"/>
				</g>
			</g>
			<g>
				<g>
					<defs>
						<rect id="SVGID_73_" x="216" y="86.7" width="1339.2" height="693.4"/>
					</defs>
					<clipPath id="SVGID_74_">
						<use xlink:href="#SVGID_73_"  style="overflow:visible;"/>
					</clipPath>
					<path class="st41" d="M1053.6,688.9V660"/>
				</g>
			</g>
			<g>
				<g>
					<defs>
						<rect id="SVGID_75_" x="216" y="86.7" width="1339.2" height="693.4"/>
					</defs>
					<clipPath id="SVGID_76_">
						<use xlink:href="#SVGID_75_"  style="overflow:visible;"/>
					</clipPath>
					<path class="st42" d="M1388.4,237.4v-16.7"/>
				</g>
			</g>
		</g>
		<g id="line2d_15">
			<g>
				<g>
					<defs>
						<rect id="SVGID_77_" x="216" y="86.7" width="1339.2" height="693.4"/>
					</defs>
					<clipPath id="SVGID_78_">
						<use xlink:href="#SVGID_77_"  style="overflow:visible;"/>
					</clipPath>
					<path class="st43" d="M216,773.2h16.7l0,0l0,0h16.7l0,0l0,0h16.7l0,0l0,0H283l0,0l0,0h16.7l0,0l0,0h16.7l0,0l0,0h16.7l0,0l0,0
						h16.7l0,0l0,0h16.7l0,0l0,0h16.7l0,0l0,0h16.7l0,0l0,0h16.7l0,0l0,0h16.7l0,0l0,0H450l0,0l0,0h16.7l0,0l0,0h16.7l0,0l0,0h16.7
						l0,0l0,0h16.7l0,0l0,0h16.7l0,0l0,0h16.7l0,0l0,0h16.7l0,0l0,0h16.7l0,0l0,0h16.7l0,0l0,0H617l0,0l0,0h16.7l0,0l0,0h16.7l0,0
						l0,0h16.7l0,0l0,0h16.7l0,0l0,0h16.7l0,0l0,0h16.7l0,0l0,0l16.7-0.1l0,0l0,0l16.7-0.1l0,0l0,0l16.7-0.1l0,0l0,0l16.7-0.2l0,0
						l0,0l16.7-0.2l0,0l0,0l16.7-0.3l0,0l0,0l16.7-0.4l0,0l0,0l16.7-0.5l0,0l0,0l16.7-0.7l0,0l0,0l16.7-0.9l0,0l0,0l16.7-1.1l0,0
						l0,0l16.7-1.4l0,0l0,0l16.7-1.9l0,0l0,0l16.7-2.4l0,0l0,0l16.7-3l0,0l0,0l16.7-3.7l0,0l0,0l16.7-4.6l0,0l0,0l16.7-5.7l0,0l0,0
						l16.7-6.8l0,0l0,0l16.7-8.2l0,0l0,0l16.7-9.7l0,0l0,0l16.7-11.3l0,0l0,0l16.7-13.1l0,0l0,0l16.7-15l0,0l0,0l16.7-17.1l0,0l0,0
						l16.7-19.5l0,0l0,0l16.7-22.1l0,0l0,0l16.7-24.9l0,0l0,0l16.7-27.9l0,0l0,0l16.7-31l16.7-34l0,0l16.7-36.6l16.7-38.7l0,0
						l33.5-79.8l0,0l16.7-38.7l0,0l16.7-36.5l0,0l16.7-33.2l0,0l16.7-29.4l0,0l16.7-25.3l0,0l16.7-21.2l0,0l16.7-17.4l0,0l16.7-14.1
						l0,0l16.7-11.1l0,0l16.7-8.7l0,0l16.7-6.8l0,0l16.7-5.2l16.7-4l0,0l16.7-3l0,0l16.7-2.3l0,0"/>
				</g>
			</g>
		</g>
		<g id="line2d_16">
			<g>
				<g>
					<defs>
						<rect id="SVGID_79_" x="216" y="86.7" width="1339.2" height="693.4"/>
					</defs>
					<clipPath id="SVGID_80_">
						<use xlink:href="#SVGID_79_"  style="overflow:visible;"/>
					</clipPath>
					<g class="st44">
						<g>
							<path id="m6593dd0878" class="st45" d="M383.4,1002.6v-10"/>
						</g>
						<g>
							<path id="m6593dd0878_1_" class="st45" d="M718.2,890.6v-10"/>
						</g>
						<g>
							<path id="m6593dd0878_2_" class="st45" d="M1050.9,736.2v-10"/>
						</g>
					</g>
				</g>
			</g>
		</g>
		<g id="line2d_17">
			<g>
				<g>
					<defs>
						<rect id="SVGID_81_" x="216" y="86.7" width="1339.2" height="693.4"/>
					</defs>
					<clipPath id="SVGID_82_">
						<use xlink:href="#SVGID_81_"  style="overflow:visible;"/>
					</clipPath>
					<g class="st46">
						<g>
							<path id="m6593dd0878_3_" class="st45" d="M383.4,1002.6v-10"/>
						</g>
						<g>
							<path id="m6593dd0878_4_" class="st45" d="M718.2,890.6v-10"/>
						</g>
						<g>
							<path id="m6593dd0878_5_" class="st45" d="M1052.9,736.2v-10"/>
						</g>
					</g>
				</g>
			</g>
		</g>
		<g id="line2d_18">
			<g>
				<g>
					<defs>
						<rect id="SVGID_83_" x="216" y="86.7" width="1339.2" height="693.4"/>
					</defs>
					<clipPath id="SVGID_84_">
						<use xlink:href="#SVGID_83_"  style="overflow:visible;"/>
					</clipPath>
					<g class="st47">
						<g>
							<path id="md9cae67a07" class="st45" d="M388.4,1032.5h-10"/>
						</g>
						<g>
							<path id="md9cae67a07_1_" class="st45" d="M723.2,920.5h-10"/>
						</g>
						<g>
							<path id="md9cae67a07_2_" class="st45" d="M1056.9,755.8h-10"/>
						</g>
					</g>
				</g>
			</g>
		</g>
		<g id="line2d_19">
			<g>
				<g>
					<defs>
						<rect id="SVGID_85_" x="216" y="86.7" width="1339.2" height="693.4"/>
					</defs>
					<clipPath id="SVGID_86_">
						<use xlink:href="#SVGID_85_"  style="overflow:visible;"/>
					</clipPath>
					<g class="st48">
						<g>
							<path id="md9cae67a07_3_" class="st45" d="M388.4,962.6h-10"/>
						</g>
						<g>
							<path id="md9cae67a07_4_" class="st45" d="M723.2,850.7h-10"/>
						</g>
						<g>
							<path id="md9cae67a07_5_" class="st45" d="M1056.9,706.6h-10"/>
						</g>
					</g>
				</g>
			</g>
		</g>
		<g id="line2d_20">
			<g>
				<g>
					<defs>
						<rect id="SVGID_87_" x="216" y="86.7" width="1339.2" height="693.4"/>
					</defs>
					<clipPath id="SVGID_88_">
						<use xlink:href="#SVGID_87_"  style="overflow:visible;"/>
					</clipPath>
					<g class="st49">
						<g>
							<path id="m6286704895" class="st50" d="M383.4,1011.7l8.5-14.1l-8.5-14.1l-8.5,14.1L383.4,1011.7z"/>
						</g>
						<g>
							<path id="m6286704895_1_" class="st50" d="M718.2,899.7l8.5-14.1l-8.5-14.1l-8.5,14.1L718.2,899.7z"/>
						</g>
						<g>
							<path id="m6286704895_2_" class="st50" d="M1051.9,745.3l8.5-14.1l-8.5-14.1l-8.5,14.1L1051.9,745.3z"/>
						</g>
					</g>
				</g>
			</g>
		</g>
		<g id="line2d_21">
			<g>
				<g>
					<defs>
						<rect id="SVGID_89_" x="216" y="86.7" width="1339.2" height="693.4"/>
					</defs>
					<clipPath id="SVGID_90_">
						<use xlink:href="#SVGID_89_"  style="overflow:visible;"/>
					</clipPath>
					<g class="st51">
						<g>
							<path id="m6593dd0878_6_" class="st45" d="M383.4,823.5v-10"/>
						</g>
						<g>
							<path id="m6593dd0878_7_" class="st45" d="M718.2,739v-10"/>
						</g>
						<g>
							<path id="m6593dd0878_8_" class="st45" d="M1049.7,652.6v-10"/>
						</g>
						<g>
							<path id="m6593dd0878_9_" class="st45" d="M1383.2,172.3v-10"/>
						</g>
					</g>
				</g>
			</g>
		</g>
		<g id="line2d_22">
			<g>
				<g>
					<defs>
						<rect id="SVGID_91_" x="216" y="86.7" width="1339.2" height="693.4"/>
					</defs>
					<clipPath id="SVGID_92_">
						<use xlink:href="#SVGID_91_"  style="overflow:visible;"/>
					</clipPath>
					<g class="st52">
						<g>
							<path id="m6593dd0878_10_" class="st45" d="M383.4,823.5v-10"/>
						</g>
						<g>
							<path id="m6593dd0878_11_" class="st45" d="M721.5,739v-10"/>
						</g>
						<g>
							<path id="m6593dd0878_12_" class="st45" d="M1056.3,652.6v-10"/>
						</g>
						<g>
							<path id="m6593dd0878_13_" class="st45" d="M1389,172.3v-10"/>
						</g>
					</g>
				</g>
			</g>
		</g>
		<g id="line2d_23">
			<g>
				<g>
					<defs>
						<rect id="SVGID_93_" x="216" y="86.7" width="1339.2" height="693.4"/>
					</defs>
					<clipPath id="SVGID_94_">
						<use xlink:href="#SVGID_93_"  style="overflow:visible;"/>
					</clipPath>
					<g class="st53">
						<g>
							<path id="md9cae67a07_6_" class="st45" d="M388.4,846h-10"/>
						</g>
						<g>
							<path id="md9cae67a07_7_" class="st45" d="M724.9,780.4h-10"/>
						</g>
						<g>
							<path id="md9cae67a07_8_" class="st45" d="M1058,680.7h-10"/>
						</g>
						<g>
							<path id="md9cae67a07_9_" class="st45" d="M1391.1,175.8h-10"/>
						</g>
					</g>
				</g>
			</g>
		</g>
		<g id="line2d_24">
			<g>
				<g>
					<defs>
						<rect id="SVGID_95_" x="216" y="86.7" width="1339.2" height="693.4"/>
					</defs>
					<clipPath id="SVGID_96_">
						<use xlink:href="#SVGID_95_"  style="overflow:visible;"/>
					</clipPath>
					<g class="st54">
						<g>
							<path id="md9cae67a07_10_" class="st45" d="M388.4,791h-10"/>
						</g>
						<g>
							<path id="md9cae67a07_11_" class="st45" d="M724.9,687.6h-10"/>
						</g>
						<g>
							<path id="md9cae67a07_12_" class="st45" d="M1058,614.5h-10"/>
						</g>
						<g>
							<path id="md9cae67a07_13_" class="st45" d="M1391.1,158.8h-10"/>
						</g>
					</g>
				</g>
			</g>
		</g>
		<g id="line2d_25">
			<g>
				<g>
					<defs>
						<rect id="SVGID_97_" x="216" y="86.7" width="1339.2" height="693.4"/>
					</defs>
					<clipPath id="SVGID_98_">
						<use xlink:href="#SVGID_97_"  style="overflow:visible;"/>
					</clipPath>
					<g class="st55">
						<g>
							<path id="m3c7ef763de" class="st50" d="M383.4,808.5l-9.5,6.9l3.6,11.2h11.8l3.6-11.2L383.4,808.5z"/>
						</g>
						<g>
							<path id="m3c7ef763de_1_" class="st50" d="M719.9,724l-9.5,6.9l3.6,11.2h11.8l3.6-11.2L719.9,724z"/>
						</g>
						<g>
							<path id="m3c7ef763de_2_" class="st50" d="M1053,637.6l-9.5,6.9l3.6,11.2h11.8l3.6-11.2L1053,637.6z"/>
						</g>
						<g>
							<path id="m3c7ef763de_3_" class="st50" d="M1386.1,157.3l-9.5,6.9l3.6,11.2h11.8l3.6-11.2L1386.1,157.3z"/>
						</g>
					</g>
				</g>
			</g>
		</g>
		<g id="line2d_26">
			<g>
				<g>
					<defs>
						<rect id="SVGID_99_" x="216" y="86.7" width="1339.2" height="693.4"/>
					</defs>
					<clipPath id="SVGID_100_">
						<use xlink:href="#SVGID_99_"  style="overflow:visible;"/>
					</clipPath>
					<g class="st56">
						<g>
							<path id="m6593dd0878_14_" class="st45" d="M383.4,817.2v-10"/>
						</g>
						<g>
							<path id="m6593dd0878_15_" class="st45" d="M717,776.8v-10"/>
						</g>
						<g>
							<path id="m6593dd0878_16_" class="st45" d="M1051.7,686.5v-10"/>
						</g>
						<g>
							<path id="m6593dd0878_17_" class="st45" d="M1385.4,184.3v-10"/>
						</g>
					</g>
				</g>
			</g>
		</g>
		<g id="line2d_27">
			<g>
				<g>
					<defs>
						<rect id="SVGID_101_" x="216" y="86.7" width="1339.2" height="693.4"/>
					</defs>
					<clipPath id="SVGID_102_">
						<use xlink:href="#SVGID_101_"  style="overflow:visible;"/>
					</clipPath>
					<g class="st57">
						<g>
							<path id="m6593dd0878_18_" class="st45" d="M383.4,817.2v-10"/>
						</g>
						<g>
							<path id="m6593dd0878_19_" class="st45" d="M719.4,776.8v-10"/>
						</g>
						<g>
							<path id="m6593dd0878_20_" class="st45" d="M1055.4,686.5v-10"/>
						</g>
						<g>
							<path id="m6593dd0878_21_" class="st45" d="M1390.2,184.3v-10"/>
						</g>
					</g>
				</g>
			</g>
		</g>
		<g id="line2d_28">
			<g>
				<g>
					<defs>
						<rect id="SVGID_103_" x="216" y="86.7" width="1339.2" height="693.4"/>
					</defs>
					<clipPath id="SVGID_104_">
						<use xlink:href="#SVGID_103_"  style="overflow:visible;"/>
					</clipPath>
					<g class="st58">
						<g>
							<path id="md9cae67a07_14_" class="st45" d="M388.4,849.8h-10"/>
						</g>
						<g>
							<path id="md9cae67a07_15_" class="st45" d="M723.2,785.1h-10"/>
						</g>
						<g>
							<path id="md9cae67a07_16_" class="st45" d="M1058.6,721.8h-10"/>
						</g>
						<g>
							<path id="md9cae67a07_17_" class="st45" d="M1392.8,193.7h-10"/>
						</g>
					</g>
				</g>
			</g>
		</g>
		<g id="line2d_29">
			<g>
				<g>
					<defs>
						<rect id="SVGID_105_" x="216" y="86.7" width="1339.2" height="693.4"/>
					</defs>
					<clipPath id="SVGID_106_">
						<use xlink:href="#SVGID_105_"  style="overflow:visible;"/>
					</clipPath>
					<g class="st59">
						<g>
							<path id="md9cae67a07_18_" class="st45" d="M388.4,774.6h-10"/>
						</g>
						<g>
							<path id="md9cae67a07_19_" class="st45" d="M723.2,758.4h-10"/>
						</g>
						<g>
							<path id="md9cae67a07_20_" class="st45" d="M1058.6,641.1h-10"/>
						</g>
						<g>
							<path id="md9cae67a07_21_" class="st45" d="M1392.8,165h-10"/>
						</g>
					</g>
				</g>
			</g>
		</g>
		<g id="line2d_30">
			<g>
				<g>
					<defs>
						<rect id="SVGID_107_" x="216" y="86.7" width="1339.2" height="693.4"/>
					</defs>
					<clipPath id="SVGID_108_">
						<use xlink:href="#SVGID_107_"  style="overflow:visible;"/>
					</clipPath>
					<g class="st60">
						<g>
							<path id="m3eb6010451" class="st50" d="M373.4,822.2h20v-20h-20V822.2z"/>
						</g>
						<g>
							<path id="m3eb6010451_1_" class="st50" d="M708.2,781.8h20v-20h-20V781.8z"/>
						</g>
						<g>
							<path id="m3eb6010451_2_" class="st50" d="M1043.6,691.5h20v-20h-20V691.5z"/>
						</g>
						<g>
							<path id="m3eb6010451_3_" class="st50" d="M1377.8,189.3h20v-20h-20V189.3z"/>
						</g>
					</g>
				</g>
			</g>
		</g>
		<g id="line2d_31">
			<g>
				<g>
					<defs>
						<rect id="SVGID_109_" x="216" y="86.7" width="1339.2" height="693.4"/>
					</defs>
					<clipPath id="SVGID_110_">
						<use xlink:href="#SVGID_109_"  style="overflow:visible;"/>
					</clipPath>
					<g class="st61">
						<g>
							<path id="m6593dd0878_22_" class="st45" d="M383,799.3v-10"/>
						</g>
						<g>
							<path id="m6593dd0878_23_" class="st45" d="M718.3,714.8v-10"/>
						</g>
						<g>
							<path id="m6593dd0878_24_" class="st45" d="M1050.9,656.4v-10"/>
						</g>
						<g>
							<path id="m6593dd0878_25_" class="st45" d="M1387,232.6v-10"/>
						</g>
					</g>
				</g>
			</g>
		</g>
		<g id="line2d_32">
			<g>
				<g>
					<defs>
						<rect id="SVGID_111_" x="216" y="86.7" width="1339.2" height="693.4"/>
					</defs>
					<clipPath id="SVGID_112_">
						<use xlink:href="#SVGID_111_"  style="overflow:visible;"/>
					</clipPath>
					<g class="st62">
						<g>
							<path id="m6593dd0878_26_" class="st45" d="M384.9,799.3v-10"/>
						</g>
						<g>
							<path id="m6593dd0878_27_" class="st45" d="M720.3,714.8v-10"/>
						</g>
						<g>
							<path id="m6593dd0878_28_" class="st45" d="M1052.9,656.4v-10"/>
						</g>
						<g>
							<path id="m6593dd0878_29_" class="st45" d="M1390.8,232.6v-10"/>
						</g>
					</g>
				</g>
			</g>
		</g>
		<g id="line2d_33">
			<g>
				<g>
					<defs>
						<rect id="SVGID_113_" x="216" y="86.7" width="1339.2" height="693.4"/>
					</defs>
					<clipPath id="SVGID_114_">
						<use xlink:href="#SVGID_113_"  style="overflow:visible;"/>
					</clipPath>
					<g class="st63">
						<g>
							<path id="md9cae67a07_22_" class="st45" d="M389,810.5h-10"/>
						</g>
						<g>
							<path id="md9cae67a07_23_" class="st45" d="M724.3,755.5h-10"/>
						</g>
						<g>
							<path id="md9cae67a07_24_" class="st45" d="M1056.9,668.7h-10"/>
						</g>
						<g>
							<path id="md9cae67a07_25_" class="st45" d="M1393.9,249.4h-10"/>
						</g>
					</g>
				</g>
			</g>
		</g>
		<g id="line2d_34">
			<g>
				<g>
					<defs>
						<rect id="SVGID_115_" x="216" y="86.7" width="1339.2" height="693.4"/>
					</defs>
					<clipPath id="SVGID_116_">
						<use xlink:href="#SVGID_115_"  style="overflow:visible;"/>
					</clipPath>
					<g class="st64">
						<g>
							<path id="md9cae67a07_26_" class="st45" d="M389,778.1h-10"/>
						</g>
						<g>
							<path id="md9cae67a07_27_" class="st45" d="M724.3,664h-10"/>
						</g>
						<g>
							<path id="md9cae67a07_28_" class="st45" d="M1056.9,634.1h-10"/>
						</g>
						<g>
							<path id="md9cae67a07_29_" class="st45" d="M1393.9,205.8h-10"/>
						</g>
					</g>
				</g>
			</g>
		</g>
		<g id="line2d_35">
			<g>
				<g>
					<defs>
						<rect id="SVGID_117_" x="216" y="86.7" width="1339.2" height="693.4"/>
					</defs>
					<clipPath id="SVGID_118_">
						<use xlink:href="#SVGID_117_"  style="overflow:visible;"/>
					</clipPath>
					<g class="st65">
						<g>
							<path id="m225f64a5bb" class="st50" d="M384,784.3l-10,20h20L384,784.3z"/>
						</g>
						<g>
							<path id="m225f64a5bb_1_" class="st50" d="M719.3,699.8l-10,20h20L719.3,699.8z"/>
						</g>
						<g>
							<path id="m225f64a5bb_2_" class="st50" d="M1051.9,641.4l-10,20h20L1051.9,641.4z"/>
						</g>
						<g>
							<path id="m225f64a5bb_3_" class="st50" d="M1388.9,217.6l-10,20h20L1388.9,217.6z"/>
						</g>
					</g>
				</g>
			</g>
		</g>
		<g id="line2d_36">
			<g>
				<g>
					<defs>
						<rect id="SVGID_119_" x="216" y="86.7" width="1339.2" height="693.4"/>
					</defs>
					<clipPath id="SVGID_120_">
						<use xlink:href="#SVGID_119_"  style="overflow:visible;"/>
					</clipPath>
					<g class="st66">
						<g>
							<path id="m6593dd0878_30_" class="st45" d="M383.4,800.2v-10"/>
						</g>
						<g>
							<path id="m6593dd0878_31_" class="st45" d="M717.4,726.6v-10"/>
						</g>
						<g>
							<path id="m6593dd0878_32_" class="st45" d="M1052.6,679.4v-10"/>
						</g>
						<g>
							<path id="m6593dd0878_33_" class="st45" d="M1387.4,234.1v-10"/>
						</g>
					</g>
				</g>
			</g>
		</g>
		<g id="line2d_37">
			<g>
				<g>
					<defs>
						<rect id="SVGID_121_" x="216" y="86.7" width="1339.2" height="693.4"/>
					</defs>
					<clipPath id="SVGID_122_">
						<use xlink:href="#SVGID_121_"  style="overflow:visible;"/>
					</clipPath>
					<g class="st67">
						<g>
							<path id="m6593dd0878_34_" class="st45" d="M383.4,800.2v-10"/>
						</g>
						<g>
							<path id="m6593dd0878_35_" class="st45" d="M721.2,726.6v-10"/>
						</g>
						<g>
							<path id="m6593dd0878_36_" class="st45" d="M1054.5,679.4v-10"/>
						</g>
						<g>
							<path id="m6593dd0878_37_" class="st45" d="M1389.3,234.1v-10"/>
						</g>
					</g>
				</g>
			</g>
		</g>
		<g id="line2d_38">
			<g>
				<g>
					<defs>
						<rect id="SVGID_123_" x="216" y="86.7" width="1339.2" height="693.4"/>
					</defs>
					<clipPath id="SVGID_124_">
						<use xlink:href="#SVGID_123_"  style="overflow:visible;"/>
					</clipPath>
					<g class="st68">
						<g>
							<path id="md9cae67a07_30_" class="st45" d="M388.4,805.2h-10"/>
						</g>
						<g>
							<path id="md9cae67a07_31_" class="st45" d="M724.3,733.5h-10"/>
						</g>
						<g>
							<path id="md9cae67a07_32_" class="st45" d="M1058.6,688.9h-10"/>
						</g>
						<g>
							<path id="md9cae67a07_33_" class="st45" d="M1393.4,237.4h-10"/>
						</g>
					</g>
				</g>
			</g>
		</g>
		<g id="line2d_39">
			<g>
				<g>
					<defs>
						<rect id="SVGID_125_" x="216" y="86.7" width="1339.2" height="693.4"/>
					</defs>
					<clipPath id="SVGID_126_">
						<use xlink:href="#SVGID_125_"  style="overflow:visible;"/>
					</clipPath>
					<g class="st69">
						<g>
							<path id="md9cae67a07_34_" class="st45" d="M388.4,785.2h-10"/>
						</g>
						<g>
							<path id="md9cae67a07_35_" class="st45" d="M724.3,709.6h-10"/>
						</g>
						<g>
							<path id="md9cae67a07_36_" class="st45" d="M1058.6,660h-10"/>
						</g>
						<g>
							<path id="md9cae67a07_37_" class="st45" d="M1393.4,220.8h-10"/>
						</g>
					</g>
				</g>
			</g>
		</g>
		<g id="line2d_40">
			<g>
				<g>
					<defs>
						<rect id="SVGID_127_" x="216" y="86.7" width="1339.2" height="693.4"/>
					</defs>
					<clipPath id="SVGID_128_">
						<use xlink:href="#SVGID_127_"  style="overflow:visible;"/>
					</clipPath>
					<g class="st70">
						<g>
							<path id="m03a871c005" class="st45" d="M383.4,805.2c2.7,0,5.2-1.1,7.1-2.9c1.9-1.9,2.9-4.4,2.9-7.1s-1.1-5.2-2.9-7.1
								c-1.9-1.9-4.4-2.9-7.1-2.9s-5.2,1.1-7.1,2.9c-1.9,1.9-2.9,4.4-2.9,7.1s1.1,5.2,2.9,7.1C378.2,804.1,380.7,805.2,383.4,805.2z
								"/>
						</g>
						<g>
							<path id="m03a871c005_1_" class="st45" d="M719.3,731.6c2.7,0,5.2-1.1,7.1-2.9c1.9-1.9,2.9-4.4,2.9-7.1s-1.1-5.2-2.9-7.1
								c-1.9-1.9-4.4-2.9-7.1-2.9s-5.2,1.1-7.1,2.9c-1.9,1.9-2.9,4.4-2.9,7.1s1.1,5.2,2.9,7.1C714.1,730.5,716.7,731.6,719.3,731.6z
								"/>
						</g>
						<g>
							<path id="m03a871c005_2_" class="st45" d="M1053.6,684.4c2.7,0,5.2-1.1,7.1-2.9c1.9-1.9,2.9-4.4,2.9-7.1s-1.1-5.2-2.9-7.1
								c-1.9-1.9-4.4-2.9-7.1-2.9s-5.2,1.1-7.1,2.9c-1.9,1.9-2.9,4.4-2.9,7.1s1.1,5.2,2.9,7.1
								C1048.4,683.4,1050.9,684.4,1053.6,684.4z"/>
						</g>
						<g>
							<path id="m03a871c005_3_" class="st45" d="M1388.4,239.1c2.7,0,5.2-1.1,7.1-2.9c1.9-1.9,2.9-4.4,2.9-7.1s-1.1-5.2-2.9-7.1
								c-1.9-1.9-4.4-2.9-7.1-2.9s-5.2,1.1-7.1,2.9c-1.9,1.9-2.9,4.4-2.9,7.1s1.1,5.2,2.9,7.1
								C1383.2,238.1,1385.7,239.1,1388.4,239.1z"/>
						</g>
					</g>
				</g>
			</g>
		</g>
		<g id="patch_3">
			<path class="st71" d="M216,780h1339.2"/>
		</g>
		<g id="patch_4">
			<path class="st71" d="M216,780V86.7"/>
		</g>
		<g id="legend_1">
			<g id="line2d_41">
				<path class="st72" d="M230.4,106.9h32"/>
			</g>
			<g id="line2d_42">
			</g>
			<g id="text_19">
				<text transform="matrix(1 0 0 1 275.2 112.5225)" class="st2 st3 st4">1 site, K: 3.5 1.1e-05 mol</text>
			</g>
			<g id="line2d_43">
			</g>
			<g id="line2d_44">
				<g>
					<g>
						<path id="m6286704895_3_" class="st50" d="M246.4,143.7l8.5-14.1l-8.5-14.1l-8.5,14.1L246.4,143.7z"/>
					</g>
				</g>
			</g>
			<g id="text_20">
				<text transform="matrix(1 0 0 1 275.2 137.4038)" class="st2 st3 st4">Experimental Data 10 Bq Total</text>
			</g>
			<g id="line2d_45">
			</g>
			<g id="line2d_46">
				<g>
					<g>
						<path id="m3c7ef763de_4_" class="st50" d="M246.4,149.3l-9.5,6.9l3.6,11.2h11.8l3.6-11.2L246.4,149.3z"/>
					</g>
				</g>
			</g>
			<g id="text_21">
				<text transform="matrix(1 0 0 1 275.2 164.8825)" class="st2 st3 st4">Experimental Data 50 Bq Total</text>
			</g>
			<g id="line2d_47">
			</g>
			<g id="line2d_48">
				<g>
					<g>
						<path id="m3eb6010451_4_" class="st50" d="M236.4,194h20v-20h-20V194z"/>
					</g>
				</g>
			</g>
			<g id="text_22">
				<text transform="matrix(1 0 0 1 275.2 189.5625)" class="st2 st3 st4">Experimental Data 100 Bq Total</text>
			</g>
			<g id="line2d_49">
			</g>
			<g id="line2d_50">
				<g>
					<g>
						<path id="m225f64a5bb_4_" class="st50" d="M246.4,198.6l-10,20h20L246.4,198.6z"/>
					</g>
				</g>
			</g>
			<g id="text_23">
				<text transform="matrix(1 0 0 1 275.2 214.2425)" class="st2 st3 st4">Experimental Data 250 Bq Total</text>
			</g>
			<g id="line2d_51">
			</g>
			<g id="line2d_52">
				<g>
					<g>
						<path id="m03a871c005_4_" class="st45" d="M246.4,245.3c2.7,0,5.2-1.1,7.1-2.9c1.9-1.9,2.9-4.4,2.9-7.1s-1.1-5.2-2.9-7.1
							c-1.9-1.9-4.4-2.9-7.1-2.9s-5.2,1.1-7.1,2.9c-1.9,1.9-2.9,4.4-2.9,7.1s1.1,5.2,2.9,7.1C241.2,244.3,243.7,245.3,246.4,245.3z"
							/>
					</g>
				</g>
			</g>
			<g id="text_24">
				<text transform="matrix(1 0 0 1 275.2 240.9225)" class="st2 st3 st4">Experimental Data 500 Bq Total</text>
			</g>
		</g>
	</g>
</g>
</svg>
