<?xml version="1.0" encoding="utf-8"?>
<!-- Generator: Adobe Illustrator 19.2.1, SVG Export Plug-In . SVG Version: 6.00 Build 0)  -->
<svg version="1.1" id="Layer_1" xmlns="http://www.w3.org/2000/svg" xmlns:xlink="http://www.w3.org/1999/xlink" x="0px" y="0px"
	 viewBox="0 0 830 651" style="enable-background:new 0 0 830 651;" xml:space="preserve">
<style type="text/css">
	.st0{fill:#FFFFFF;}
	.st1{fill:none;stroke:#262626;stroke-width:1.6;stroke-linejoin:round;stroke-miterlimit:10;}
	.st2{fill:#262626;}
	.st3{font-family:'ArialMT';}
	.st4{font-size:18px;}
	.st5{clip-path:url(#SVGID_2_);fill:none;stroke:#000000;stroke-linejoin:round;stroke-miterlimit:10;}
	.st6{clip-path:url(#SVGID_4_);fill:none;stroke:#000000;stroke-linejoin:round;stroke-miterlimit:10;}
	.st7{clip-path:url(#SVGID_6_);fill:none;stroke:#000000;stroke-linejoin:round;stroke-miterlimit:10;}
	.st8{clip-path:url(#SVGID_8_);fill:none;stroke:#000000;stroke-linejoin:round;stroke-miterlimit:10;}
	.st9{clip-path:url(#SVGID_10_);fill:none;stroke:#000000;stroke-linejoin:round;stroke-miterlimit:10;}
	.st10{clip-path:url(#SVGID_12_);fill:none;stroke:#000000;stroke-linejoin:round;stroke-miterlimit:10;}
	.st11{clip-path:url(#SVGID_14_);fill:none;stroke:#000000;stroke-linejoin:round;stroke-miterlimit:10;}
	.st12{clip-path:url(#SVGID_16_);fill:none;stroke:#000000;stroke-linejoin:round;stroke-miterlimit:10;}
	.st13{clip-path:url(#SVGID_18_);fill:none;stroke:#000000;stroke-linejoin:round;stroke-miterlimit:10;}
	.st14{clip-path:url(#SVGID_20_);fill:none;stroke:#000000;stroke-linejoin:round;stroke-miterlimit:10;}
	.st15{clip-path:url(#SVGID_22_);fill:none;stroke:#000000;stroke-linejoin:round;stroke-miterlimit:10;}
	.st16{clip-path:url(#SVGID_24_);fill:none;stroke:#000000;stroke-linejoin:round;stroke-miterlimit:10;}
	.st17{clip-path:url(#SVGID_26_);fill:none;stroke:#000000;stroke-linejoin:round;stroke-miterlimit:10;}
	.st18{clip-path:url(#SVGID_28_);fill:none;stroke:#000000;stroke-linejoin:round;stroke-miterlimit:10;}
	.st19{clip-path:url(#SVGID_30_);fill:none;stroke:#000000;stroke-linejoin:round;stroke-miterlimit:10;}
	.st20{clip-path:url(#SVGID_32_);fill:none;stroke:#000000;stroke-linejoin:round;stroke-miterlimit:10;}
	.st21{clip-path:url(#SVGID_34_);fill:none;stroke:#000000;stroke-linejoin:round;stroke-miterlimit:10;}
	.st22{clip-path:url(#SVGID_36_);fill:none;stroke:#000000;stroke-linejoin:round;stroke-miterlimit:10;}
	.st23{clip-path:url(#SVGID_38_);fill:none;stroke:#000000;stroke-linejoin:round;stroke-miterlimit:10;}
	.st24{clip-path:url(#SVGID_40_);fill:none;stroke:#000000;stroke-linejoin:round;stroke-miterlimit:10;}
	.st25{clip-path:url(#SVGID_42_);fill:none;stroke:#000000;stroke-linejoin:round;stroke-miterlimit:10;}
	.st26{clip-path:url(#SVGID_44_);fill:none;stroke:#000000;stroke-linejoin:round;stroke-miterlimit:10;}
	.st27{clip-path:url(#SVGID_46_);fill:none;stroke:#000000;stroke-linejoin:round;stroke-miterlimit:10;}
	.st28{clip-path:url(#SVGID_48_);fill:none;stroke:#000000;stroke-linejoin:round;stroke-miterlimit:10;}
	.st29{clip-path:url(#SVGID_50_);fill:none;stroke:#000000;stroke-linejoin:round;stroke-miterlimit:10;}
	.st30{clip-path:url(#SVGID_52_);fill:none;stroke:#000000;stroke-linejoin:round;stroke-miterlimit:10;}
	.st31{clip-path:url(#SVGID_54_);fill:none;stroke:#000000;stroke-linejoin:round;stroke-miterlimit:10;}
	.st32{clip-path:url(#SVGID_56_);fill:none;stroke:#000000;stroke-linejoin:round;stroke-miterlimit:10;}
	.st33{clip-path:url(#SVGID_58_);fill:none;stroke:#000000;stroke-linejoin:round;stroke-miterlimit:10;}
	.st34{clip-path:url(#SVGID_60_);fill:none;stroke:#000000;stroke-linejoin:round;stroke-miterlimit:10;}
	.st35{clip-path:url(#SVGID_62_);fill:none;stroke:#000000;stroke-linejoin:round;stroke-miterlimit:10;}
	.st36{clip-path:url(#SVGID_64_);fill:none;stroke:#000000;stroke-linejoin:round;stroke-miterlimit:10;}
	.st37{clip-path:url(#SVGID_66_);fill:none;stroke:#000000;stroke-linejoin:round;stroke-miterlimit:10;}
	.st38{clip-path:url(#SVGID_68_);fill:none;stroke:#000000;stroke-linejoin:round;stroke-miterlimit:10;}
	
		.st39{clip-path:url(#SVGID_70_);fill:none;stroke:#000000;stroke-width:2;stroke-linecap:round;stroke-linejoin:round;stroke-miterlimit:10;}
	.st40{clip-path:url(#SVGID_72_);}
	.st41{fill:none;stroke:#000000;stroke-width:2;stroke-linejoin:round;stroke-miterlimit:10;}
	.st42{clip-path:url(#SVGID_74_);}
	.st43{clip-path:url(#SVGID_76_);}
	.st44{clip-path:url(#SVGID_78_);}
	.st45{clip-path:url(#SVGID_80_);}
	
		.st46{clip-path:url(#SVGID_82_);fill:none;stroke:#000000;stroke-width:2;stroke-linejoin:round;stroke-miterlimit:10;stroke-dasharray:6,6;}
	.st47{clip-path:url(#SVGID_84_);}
	.st48{clip-path:url(#SVGID_86_);}
	.st49{clip-path:url(#SVGID_88_);}
	.st50{clip-path:url(#SVGID_90_);}
	.st51{clip-path:url(#SVGID_92_);}
	.st52{fill:none;stroke:#000000;stroke-width:2;stroke-miterlimit:10;}
	
		.st53{clip-path:url(#SVGID_94_);fill:none;stroke:#000000;stroke-width:2;stroke-linejoin:round;stroke-miterlimit:10;stroke-dasharray:3,5,1,5;}
	.st54{clip-path:url(#SVGID_96_);}
	.st55{clip-path:url(#SVGID_98_);}
	.st56{clip-path:url(#SVGID_100_);}
	.st57{clip-path:url(#SVGID_102_);}
	.st58{clip-path:url(#SVGID_104_);}
	
		.st59{clip-path:url(#SVGID_106_);fill:none;stroke:#000000;stroke-width:2;stroke-linejoin:round;stroke-miterlimit:10;stroke-dasharray:1,3;}
	.st60{clip-path:url(#SVGID_108_);}
	.st61{clip-path:url(#SVGID_110_);}
	.st62{clip-path:url(#SVGID_112_);}
	.st63{clip-path:url(#SVGID_114_);}
	.st64{clip-path:url(#SVGID_116_);}
	.st65{fill:none;stroke:#262626;stroke-width:1.25;stroke-linecap:square;stroke-miterlimit:10;}
</style>
<g id="figure_1">
	<g id="patch_1">
		<path class="st0" d="M0,651.6h830.7V0H0V651.6z"/>
	</g>
	<g id="axes_1">
		<g id="patch_2">
			<path class="st0" d="M103.8,586.4h643.8V65.2H103.8V586.4z"/>
		</g>
		<g id="matplotlib.axis_1">
			<g id="xtick_1">
				<g id="line2d_1">
					<g>
						<g>
							<path id="m7d842b5037" class="st1" d="M103.8,586.4v6"/>
						</g>
					</g>
				</g>
				<g id="text_1">
					<text transform="matrix(1 0 0 1 92.7164 615.0925)" class="st2 st3 st4">0.0</text>
				</g>
			</g>
			<g id="xtick_2">
				<g id="line2d_2">
					<g>
						<g>
							<path id="m7d842b5037_1_" class="st1" d="M232.6,586.4v6"/>
						</g>
					</g>
				</g>
				<g id="text_2">
					<text transform="matrix(1 0 0 1 221.4749 615.0925)" class="st2 st3 st4">0.5</text>
				</g>
			</g>
			<g id="xtick_3">
				<g id="line2d_3">
					<g>
						<g>
							<path id="m7d842b5037_2_" class="st1" d="M361.4,586.4v6"/>
						</g>
					</g>
				</g>
				<g id="text_3">
					<text transform="matrix(1 0 0 1 350.2334 615.0925)" class="st2 st3 st4">1.0</text>
				</g>
			</g>
			<g id="xtick_4">
				<g id="line2d_4">
					<g>
						<g>
							<path id="m7d842b5037_3_" class="st1" d="M490.1,586.4v6"/>
						</g>
					</g>
				</g>
				<g id="text_4">
					<text transform="matrix(1 0 0 1 478.9919 615.0925)" class="st2 st3 st4">1.5</text>
				</g>
			</g>
			<g id="xtick_5">
				<g id="line2d_5">
					<g>
						<g>
							<path id="m7d842b5037_4_" class="st1" d="M618.9,586.4v6"/>
						</g>
					</g>
				</g>
				<g id="text_5">
					<text transform="matrix(1 0 0 1 607.7504 615.0925)" class="st2 st3 st4">2.0</text>
				</g>
			</g>
			<g id="xtick_6">
				<g id="line2d_6">
					<g>
						<g>
							<path id="m7d842b5037_5_" class="st1" d="M747.6,586.4v6"/>
						</g>
					</g>
				</g>
				<g id="text_6">
					<text transform="matrix(1 0 0 1 736.5089 615.0925)" class="st2 st3 st4">2.5</text>
				</g>
			</g>
			<g id="text_7">
				<text transform="matrix(1 0 0 1 379.2845 636.0848)" class="st2 st3 st4">Free Ra (Bq/mL)</text>
			</g>
		</g>
		<g id="matplotlib.axis_2">
			<g id="ytick_1">
				<g id="line2d_7">
					<g>
						<g>
							<path id="m23bed7a64a" class="st1" d="M103.8,586.4h-6"/>
						</g>
					</g>
				</g>
				<g id="text_8">
					<text transform="matrix(1 0 0 1 41.7 590.5762)" class="st2 st3 st4">−1000</text>
				</g>
			</g>
			<g id="ytick_2">
				<g id="line2d_8">
					<g>
						<g>
							<path id="m23bed7a64a_1_" class="st1" d="M103.8,528.5h-6"/>
						</g>
					</g>
				</g>
				<g id="text_9">
					<text transform="matrix(1 0 0 1 77.7391 532.6563)" class="st2 st3 st4">0</text>
				</g>
			</g>
			<g id="ytick_3">
				<g id="line2d_9">
					<g>
						<g>
							<path id="m23bed7a64a_2_" class="st1" d="M103.8,470.6h-6"/>
						</g>
					</g>
				</g>
				<g id="text_10">
					<text transform="matrix(1 0 0 1 51.0437 474.7362)" class="st2 st3 st4">1000</text>
				</g>
			</g>
			<g id="ytick_4">
				<g id="line2d_10">
					<g>
						<g>
							<path id="m23bed7a64a_3_" class="st1" d="M103.8,412.7h-6"/>
						</g>
					</g>
				</g>
				<g id="text_11">
					<text transform="matrix(1 0 0 1 51.0437 416.8163)" class="st2 st3 st4">2000</text>
				</g>
			</g>
			<g id="ytick_5">
				<g id="line2d_11">
					<g>
						<g>
							<path id="m23bed7a64a_4_" class="st1" d="M103.8,354.8h-6"/>
						</g>
					</g>
				</g>
				<g id="text_12">
					<text transform="matrix(1 0 0 1 51.0437 358.8962)" class="st2 st3 st4">3000</text>
				</g>
			</g>
			<g id="ytick_6">
				<g id="line2d_12">
					<g>
						<g>
							<path id="m23bed7a64a_5_" class="st1" d="M103.8,296.8h-6"/>
						</g>
					</g>
				</g>
				<g id="text_13">
					<text transform="matrix(1 0 0 1 51.0437 300.9763)" class="st2 st3 st4">4000</text>
				</g>
			</g>
			<g id="ytick_7">
				<g id="line2d_13">
					<g>
						<g>
							<path id="m23bed7a64a_6_" class="st1" d="M103.8,238.9h-6"/>
						</g>
					</g>
				</g>
				<g id="text_14">
					<text transform="matrix(1 0 0 1 51.0437 243.0563)" class="st2 st3 st4">5000</text>
				</g>
			</g>
			<g id="ytick_8">
				<g id="line2d_14">
					<g>
						<g>
							<path id="m23bed7a64a_7_" class="st1" d="M103.8,181h-6"/>
						</g>
					</g>
				</g>
				<g id="text_15">
					<text transform="matrix(1 0 0 1 51.0437 185.1362)" class="st2 st3 st4">6000</text>
				</g>
			</g>
			<g id="ytick_9">
				<g id="line2d_15">
					<g>
						<g>
							<path id="m23bed7a64a_8_" class="st1" d="M103.8,123.1h-6"/>
						</g>
					</g>
				</g>
				<g id="text_16">
					<text transform="matrix(1 0 0 1 51.0437 127.2162)" class="st2 st3 st4">7000</text>
				</g>
			</g>
			<g id="ytick_10">
				<g id="line2d_16">
					<g>
						<g>
							<path id="m23bed7a64a_9_" class="st1" d="M103.8,65.2h-6"/>
						</g>
					</g>
				</g>
				<g id="text_17">
					<text transform="matrix(1 0 0 1 51.0437 69.2963)" class="st2 st3 st4">8000</text>
				</g>
			</g>
			<g id="text_18">
				<text transform="matrix(6.123234e-017 -1 1 6.123234e-017 32.9983 362.9639)" class="st2 st3 st4">Sorbed Ra (Bq/g)</text>
			</g>
		</g>
		<g id="LineCollection_1">
			<g>
				<defs>
					<rect id="SVGID_1_" x="103.8" y="65.2" width="643.8" height="521.3"/>
				</defs>
				<clipPath id="SVGID_2_">
					<use xlink:href="#SVGID_1_"  style="overflow:visible;"/>
				</clipPath>
				<path class="st5" d="M111.2,524.2h1.5"/>
			</g>
			<g>
				<defs>
					<rect id="SVGID_3_" x="103.8" y="65.2" width="643.8" height="521.3"/>
				</defs>
				<clipPath id="SVGID_4_">
					<use xlink:href="#SVGID_3_"  style="overflow:visible;"/>
				</clipPath>
				<path class="st6" d="M133,499.2h2.6"/>
			</g>
			<g>
				<defs>
					<rect id="SVGID_5_" x="103.8" y="65.2" width="643.8" height="521.3"/>
				</defs>
				<clipPath id="SVGID_6_">
					<use xlink:href="#SVGID_5_"  style="overflow:visible;"/>
				</clipPath>
				<path class="st7" d="M164,472.4h8.1"/>
			</g>
			<g>
				<defs>
					<rect id="SVGID_7_" x="103.8" y="65.2" width="643.8" height="521.3"/>
				</defs>
				<clipPath id="SVGID_8_">
					<use xlink:href="#SVGID_7_"  style="overflow:visible;"/>
				</clipPath>
				<path class="st8" d="M451,300.3h90.8"/>
			</g>
		</g>
		<g id="LineCollection_2">
			<g>
				<defs>
					<rect id="SVGID_9_" x="103.8" y="65.2" width="643.8" height="521.3"/>
				</defs>
				<clipPath id="SVGID_10_">
					<use xlink:href="#SVGID_9_"  style="overflow:visible;"/>
				</clipPath>
				<path class="st9" d="M112,524.8v-1.1"/>
			</g>
			<g>
				<defs>
					<rect id="SVGID_11_" x="103.8" y="65.2" width="643.8" height="521.3"/>
				</defs>
				<clipPath id="SVGID_12_">
					<use xlink:href="#SVGID_11_"  style="overflow:visible;"/>
				</clipPath>
				<path class="st10" d="M134.3,500.2v-1.9"/>
			</g>
			<g>
				<defs>
					<rect id="SVGID_13_" x="103.8" y="65.2" width="643.8" height="521.3"/>
				</defs>
				<clipPath id="SVGID_14_">
					<use xlink:href="#SVGID_13_"  style="overflow:visible;"/>
				</clipPath>
				<path class="st11" d="M168,475.5v-6.1"/>
			</g>
			<g>
				<defs>
					<rect id="SVGID_15_" x="103.8" y="65.2" width="643.8" height="521.3"/>
				</defs>
				<clipPath id="SVGID_16_">
					<use xlink:href="#SVGID_15_"  style="overflow:visible;"/>
				</clipPath>
				<path class="st12" d="M496.4,334.3v-68"/>
			</g>
		</g>
		<g id="LineCollection_3">
			<g>
				<defs>
					<rect id="SVGID_17_" x="103.8" y="65.2" width="643.8" height="521.3"/>
				</defs>
				<clipPath id="SVGID_18_">
					<use xlink:href="#SVGID_17_"  style="overflow:visible;"/>
				</clipPath>
				<path class="st13" d="M123.3,440.5h3"/>
			</g>
			<g>
				<defs>
					<rect id="SVGID_19_" x="103.8" y="65.2" width="643.8" height="521.3"/>
				</defs>
				<clipPath id="SVGID_20_">
					<use xlink:href="#SVGID_19_"  style="overflow:visible;"/>
				</clipPath>
				<path class="st14" d="M152.5,304.9h2"/>
			</g>
			<g>
				<defs>
					<rect id="SVGID_21_" x="103.8" y="65.2" width="643.8" height="521.3"/>
				</defs>
				<clipPath id="SVGID_22_">
					<use xlink:href="#SVGID_21_"  style="overflow:visible;"/>
				</clipPath>
				<path class="st15" d="M187.5,80.6h23.8"/>
			</g>
		</g>
		<g id="LineCollection_4">
			<g>
				<defs>
					<rect id="SVGID_23_" x="103.8" y="65.2" width="643.8" height="521.3"/>
				</defs>
				<clipPath id="SVGID_24_">
					<use xlink:href="#SVGID_23_"  style="overflow:visible;"/>
				</clipPath>
				<path class="st16" d="M124.8,441.4v-2"/>
			</g>
			<g>
				<defs>
					<rect id="SVGID_25_" x="103.8" y="65.2" width="643.8" height="521.3"/>
				</defs>
				<clipPath id="SVGID_26_">
					<use xlink:href="#SVGID_25_"  style="overflow:visible;"/>
				</clipPath>
				<path class="st17" d="M153.5,312v-14.3"/>
			</g>
			<g>
				<defs>
					<rect id="SVGID_27_" x="103.8" y="65.2" width="643.8" height="521.3"/>
				</defs>
				<clipPath id="SVGID_28_">
					<use xlink:href="#SVGID_27_"  style="overflow:visible;"/>
				</clipPath>
				<path class="st18" d="M199.4,90.4V70.8"/>
			</g>
		</g>
		<g id="LineCollection_5">
			<g>
				<defs>
					<rect id="SVGID_29_" x="103.8" y="65.2" width="643.8" height="521.3"/>
				</defs>
				<clipPath id="SVGID_30_">
					<use xlink:href="#SVGID_29_"  style="overflow:visible;"/>
				</clipPath>
				<path class="st19" d="M116.4,527.9h1"/>
			</g>
			<g>
				<defs>
					<rect id="SVGID_31_" x="103.8" y="65.2" width="643.8" height="521.3"/>
				</defs>
				<clipPath id="SVGID_32_">
					<use xlink:href="#SVGID_31_"  style="overflow:visible;"/>
				</clipPath>
				<path class="st20" d="M157.4,519h6.7"/>
			</g>
			<g>
				<defs>
					<rect id="SVGID_33_" x="103.8" y="65.2" width="643.8" height="521.3"/>
				</defs>
				<clipPath id="SVGID_34_">
					<use xlink:href="#SVGID_33_"  style="overflow:visible;"/>
				</clipPath>
				<path class="st21" d="M216.1,514.5h16.3"/>
			</g>
			<g>
				<defs>
					<rect id="SVGID_35_" x="103.8" y="65.2" width="643.8" height="521.3"/>
				</defs>
				<clipPath id="SVGID_36_">
					<use xlink:href="#SVGID_35_"  style="overflow:visible;"/>
				</clipPath>
				<path class="st22" d="M381.7,482.2h17.6"/>
			</g>
			<g>
				<defs>
					<rect id="SVGID_37_" x="103.8" y="65.2" width="643.8" height="521.3"/>
				</defs>
				<clipPath id="SVGID_38_">
					<use xlink:href="#SVGID_37_"  style="overflow:visible;"/>
				</clipPath>
				<path class="st23" d="M685.9,453.3h29.3"/>
			</g>
		</g>
		<g id="LineCollection_6">
			<g>
				<defs>
					<rect id="SVGID_39_" x="103.8" y="65.2" width="643.8" height="521.3"/>
				</defs>
				<clipPath id="SVGID_40_">
					<use xlink:href="#SVGID_39_"  style="overflow:visible;"/>
				</clipPath>
				<path class="st24" d="M116.9,528.3v-0.8"/>
			</g>
			<g>
				<defs>
					<rect id="SVGID_41_" x="103.8" y="65.2" width="643.8" height="521.3"/>
				</defs>
				<clipPath id="SVGID_42_">
					<use xlink:href="#SVGID_41_"  style="overflow:visible;"/>
				</clipPath>
				<path class="st25" d="M160.8,521.5v-5.1"/>
			</g>
			<g>
				<defs>
					<rect id="SVGID_43_" x="103.8" y="65.2" width="643.8" height="521.3"/>
				</defs>
				<clipPath id="SVGID_44_">
					<use xlink:href="#SVGID_43_"  style="overflow:visible;"/>
				</clipPath>
				<path class="st26" d="M224.3,520.7v-12.2"/>
			</g>
			<g>
				<defs>
					<rect id="SVGID_45_" x="103.8" y="65.2" width="643.8" height="521.3"/>
				</defs>
				<clipPath id="SVGID_46_">
					<use xlink:href="#SVGID_45_"  style="overflow:visible;"/>
				</clipPath>
				<path class="st27" d="M390.5,489.1v-13.9"/>
			</g>
			<g>
				<defs>
					<rect id="SVGID_47_" x="103.8" y="65.2" width="643.8" height="521.3"/>
				</defs>
				<clipPath id="SVGID_48_">
					<use xlink:href="#SVGID_47_"  style="overflow:visible;"/>
				</clipPath>
				<path class="st28" d="M700.5,462.6V444"/>
			</g>
		</g>
		<g id="LineCollection_7">
			<g>
				<defs>
					<rect id="SVGID_49_" x="103.8" y="65.2" width="643.8" height="521.3"/>
				</defs>
				<clipPath id="SVGID_50_">
					<use xlink:href="#SVGID_49_"  style="overflow:visible;"/>
				</clipPath>
				<path class="st29" d="M116.6,529.2h1"/>
			</g>
			<g>
				<defs>
					<rect id="SVGID_51_" x="103.8" y="65.2" width="643.8" height="521.3"/>
				</defs>
				<clipPath id="SVGID_52_">
					<use xlink:href="#SVGID_51_"  style="overflow:visible;"/>
				</clipPath>
				<path class="st30" d="M157.2,524.4h0.9"/>
			</g>
			<g>
				<defs>
					<rect id="SVGID_53_" x="103.8" y="65.2" width="643.8" height="521.3"/>
				</defs>
				<clipPath id="SVGID_54_">
					<use xlink:href="#SVGID_53_"  style="overflow:visible;"/>
				</clipPath>
				<path class="st31" d="M207,518.7h3.7"/>
			</g>
			<g>
				<defs>
					<rect id="SVGID_55_" x="103.8" y="65.2" width="643.8" height="521.3"/>
				</defs>
				<clipPath id="SVGID_56_">
					<use xlink:href="#SVGID_55_"  style="overflow:visible;"/>
				</clipPath>
				<path class="st32" d="M347.2,498.9h26.4"/>
			</g>
			<g>
				<defs>
					<rect id="SVGID_57_" x="103.8" y="65.2" width="643.8" height="521.3"/>
				</defs>
				<clipPath id="SVGID_58_">
					<use xlink:href="#SVGID_57_"  style="overflow:visible;"/>
				</clipPath>
				<path class="st33" d="M607.9,469.9h7.9"/>
			</g>
		</g>
		<g id="LineCollection_8">
			<g>
				<defs>
					<rect id="SVGID_59_" x="103.8" y="65.2" width="643.8" height="521.3"/>
				</defs>
				<clipPath id="SVGID_60_">
					<use xlink:href="#SVGID_59_"  style="overflow:visible;"/>
				</clipPath>
				<path class="st34" d="M117.1,529.6v-0.7"/>
			</g>
			<g>
				<defs>
					<rect id="SVGID_61_" x="103.8" y="65.2" width="643.8" height="521.3"/>
				</defs>
				<clipPath id="SVGID_62_">
					<use xlink:href="#SVGID_61_"  style="overflow:visible;"/>
				</clipPath>
				<path class="st35" d="M157.7,524.8v-0.9"/>
			</g>
			<g>
				<defs>
					<rect id="SVGID_63_" x="103.8" y="65.2" width="643.8" height="521.3"/>
				</defs>
				<clipPath id="SVGID_64_">
					<use xlink:href="#SVGID_63_"  style="overflow:visible;"/>
				</clipPath>
				<path class="st36" d="M208.8,520.6v-3.8"/>
			</g>
			<g>
				<defs>
					<rect id="SVGID_65_" x="103.8" y="65.2" width="643.8" height="521.3"/>
				</defs>
				<clipPath id="SVGID_66_">
					<use xlink:href="#SVGID_65_"  style="overflow:visible;"/>
				</clipPath>
				<path class="st37" d="M360.5,510.3v-22.8"/>
			</g>
			<g>
				<defs>
					<rect id="SVGID_67_" x="103.8" y="65.2" width="643.8" height="521.3"/>
				</defs>
				<clipPath id="SVGID_68_">
					<use xlink:href="#SVGID_67_"  style="overflow:visible;"/>
				</clipPath>
				<path class="st38" d="M611.8,477.6v-15.3"/>
			</g>
		</g>
		<g id="line2d_17">
			<g>
				<defs>
					<rect id="SVGID_69_" x="103.8" y="65.2" width="643.8" height="521.3"/>
				</defs>
				<clipPath id="SVGID_70_">
					<use xlink:href="#SVGID_69_"  style="overflow:visible;"/>
				</clipPath>
				<path class="st39" d="M112,513.7l22.3-12.5l33.7-18.9l328.3-183.6"/>
			</g>
		</g>
		<g id="line2d_18">
			<g>
				<defs>
					<rect id="SVGID_71_" x="103.8" y="65.2" width="643.8" height="521.3"/>
				</defs>
				<clipPath id="SVGID_72_">
					<use xlink:href="#SVGID_71_"  style="overflow:visible;"/>
				</clipPath>
				<g class="st40">
					<g>
						<path id="m1e604c5cf9" class="st41" d="M111.2,529.2v-10"/>
					</g>
					<g>
						<path id="m1e604c5cf9_1_" class="st41" d="M133,504.2v-10"/>
					</g>
					<g>
						<path id="m1e604c5cf9_2_" class="st41" d="M164,477.4v-10"/>
					</g>
					<g>
						<path id="m1e604c5cf9_3_" class="st41" d="M451,305.3v-10"/>
					</g>
				</g>
			</g>
		</g>
		<g id="line2d_19">
			<g>
				<defs>
					<rect id="SVGID_73_" x="103.8" y="65.2" width="643.8" height="521.3"/>
				</defs>
				<clipPath id="SVGID_74_">
					<use xlink:href="#SVGID_73_"  style="overflow:visible;"/>
				</clipPath>
				<g class="st42">
					<g>
						<path id="m1e604c5cf9_4_" class="st41" d="M112.8,529.2v-10"/>
					</g>
					<g>
						<path id="m1e604c5cf9_5_" class="st41" d="M135.6,504.2v-10"/>
					</g>
					<g>
						<path id="m1e604c5cf9_6_" class="st41" d="M172.1,477.4v-10"/>
					</g>
					<g>
						<path id="m1e604c5cf9_7_" class="st41" d="M541.7,305.3v-10"/>
					</g>
				</g>
			</g>
		</g>
		<g id="line2d_20">
			<g>
				<defs>
					<rect id="SVGID_75_" x="103.8" y="65.2" width="643.8" height="521.3"/>
				</defs>
				<clipPath id="SVGID_76_">
					<use xlink:href="#SVGID_75_"  style="overflow:visible;"/>
				</clipPath>
				<g class="st43">
					<g>
						<path id="m16b47bf0aa" class="st41" d="M117,524.8h-10"/>
					</g>
					<g>
						<path id="m16b47bf0aa_1_" class="st41" d="M139.3,500.2h-10"/>
					</g>
					<g>
						<path id="m16b47bf0aa_2_" class="st41" d="M173,475.5h-10"/>
					</g>
					<g>
						<path id="m16b47bf0aa_3_" class="st41" d="M501.4,334.3h-10"/>
					</g>
				</g>
			</g>
		</g>
		<g id="line2d_21">
			<g>
				<defs>
					<rect id="SVGID_77_" x="103.8" y="65.2" width="643.8" height="521.3"/>
				</defs>
				<clipPath id="SVGID_78_">
					<use xlink:href="#SVGID_77_"  style="overflow:visible;"/>
				</clipPath>
				<g class="st44">
					<g>
						<path id="m16b47bf0aa_4_" class="st41" d="M117,523.7h-10"/>
					</g>
					<g>
						<path id="m16b47bf0aa_5_" class="st41" d="M139.3,498.2h-10"/>
					</g>
					<g>
						<path id="m16b47bf0aa_6_" class="st41" d="M173,469.4h-10"/>
					</g>
					<g>
						<path id="m16b47bf0aa_7_" class="st41" d="M501.4,266.3h-10"/>
					</g>
				</g>
			</g>
		</g>
		<g id="line2d_22">
			<g>
				<defs>
					<rect id="SVGID_79_" x="103.8" y="65.2" width="643.8" height="521.3"/>
				</defs>
				<clipPath id="SVGID_80_">
					<use xlink:href="#SVGID_79_"  style="overflow:visible;"/>
				</clipPath>
				<g class="st45">
					<g>
						<path id="m0d45927f34" class="st41" d="M112,534.2c2.7,0,5.2-1.1,7.1-2.9c1.9-1.9,2.9-4.4,2.9-7.1s-1.1-5.2-2.9-7.1
							c-1.9-1.9-4.4-2.9-7.1-2.9s-5.2,1.1-7.1,2.9c-1.9,1.9-2.9,4.4-2.9,7.1s1.1,5.2,2.9,7.1C106.8,533.2,109.3,534.2,112,534.2z"/>
					</g>
					<g>
						<path id="m0d45927f34_1_" class="st41" d="M134.3,509.2c2.7,0,5.2-1.1,7.1-2.9c1.9-1.9,2.9-4.4,2.9-7.1s-1.1-5.2-2.9-7.1
							c-1.9-1.9-4.4-2.9-7.1-2.9s-5.2,1.1-7.1,2.9s-2.9,4.4-2.9,7.1s1.1,5.2,2.9,7.1S131.7,509.2,134.3,509.2z"/>
					</g>
					<g>
						<path id="m0d45927f34_2_" class="st41" d="M168,482.4c2.7,0,5.2-1.1,7.1-2.9c1.9-1.9,2.9-4.4,2.9-7.1s-1.1-5.2-2.9-7.1
							c-1.9-1.9-4.4-2.9-7.1-2.9s-5.2,1.1-7.1,2.9c-1.9,1.9-2.9,4.4-2.9,7.1s1.1,5.2,2.9,7.1C162.8,481.4,165.4,482.4,168,482.4z"/>
					</g>
					<g>
						<path id="m0d45927f34_3_" class="st41" d="M496.4,310.3c2.7,0,5.2-1.1,7.1-2.9s2.9-4.4,2.9-7.1s-1.1-5.2-2.9-7.1
							s-4.4-2.9-7.1-2.9s-5.2,1.1-7.1,2.9s-2.9,4.4-2.9,7.1s1.1,5.2,2.9,7.1S493.7,310.3,496.4,310.3z"/>
					</g>
				</g>
			</g>
		</g>
		<g id="line2d_23">
			<g>
				<defs>
					<rect id="SVGID_81_" x="103.8" y="65.2" width="643.8" height="521.3"/>
				</defs>
				<clipPath id="SVGID_82_">
					<use xlink:href="#SVGID_81_"  style="overflow:visible;"/>
				</clipPath>
				<path class="st46" d="M124.8,441.7l28.7-138.8l45.9-221.5"/>
			</g>
		</g>
		<g id="line2d_24">
			<g>
				<defs>
					<rect id="SVGID_83_" x="103.8" y="65.2" width="643.8" height="521.3"/>
				</defs>
				<clipPath id="SVGID_84_">
					<use xlink:href="#SVGID_83_"  style="overflow:visible;"/>
				</clipPath>
				<g class="st47">
					<g>
						<path id="m1e604c5cf9_8_" class="st41" d="M123.3,445.5v-10"/>
					</g>
					<g>
						<path id="m1e604c5cf9_9_" class="st41" d="M152.5,309.9v-10"/>
					</g>
					<g>
						<path id="m1e604c5cf9_10_" class="st41" d="M187.5,85.6v-10"/>
					</g>
				</g>
			</g>
		</g>
		<g id="line2d_25">
			<g>
				<defs>
					<rect id="SVGID_85_" x="103.8" y="65.2" width="643.8" height="521.3"/>
				</defs>
				<clipPath id="SVGID_86_">
					<use xlink:href="#SVGID_85_"  style="overflow:visible;"/>
				</clipPath>
				<g class="st48">
					<g>
						<path id="m1e604c5cf9_11_" class="st41" d="M126.2,445.5v-10"/>
					</g>
					<g>
						<path id="m1e604c5cf9_12_" class="st41" d="M154.5,309.9v-10"/>
					</g>
					<g>
						<path id="m1e604c5cf9_13_" class="st41" d="M211.2,85.6v-10"/>
					</g>
				</g>
			</g>
		</g>
		<g id="line2d_26">
			<g>
				<defs>
					<rect id="SVGID_87_" x="103.8" y="65.2" width="643.8" height="521.3"/>
				</defs>
				<clipPath id="SVGID_88_">
					<use xlink:href="#SVGID_87_"  style="overflow:visible;"/>
				</clipPath>
				<g class="st49">
					<g>
						<path id="m16b47bf0aa_8_" class="st41" d="M129.8,441.4h-10"/>
					</g>
					<g>
						<path id="m16b47bf0aa_9_" class="st41" d="M158.5,312h-10"/>
					</g>
					<g>
						<path id="m16b47bf0aa_10_" class="st41" d="M204.4,90.4h-10"/>
					</g>
				</g>
			</g>
		</g>
		<g id="line2d_27">
			<g>
				<defs>
					<rect id="SVGID_89_" x="103.8" y="65.2" width="643.8" height="521.3"/>
				</defs>
				<clipPath id="SVGID_90_">
					<use xlink:href="#SVGID_89_"  style="overflow:visible;"/>
				</clipPath>
				<g class="st50">
					<g>
						<path id="m16b47bf0aa_11_" class="st41" d="M129.8,439.5h-10"/>
					</g>
					<g>
						<path id="m16b47bf0aa_12_" class="st41" d="M158.5,297.7h-10"/>
					</g>
					<g>
						<path id="m16b47bf0aa_13_" class="st41" d="M204.4,70.8h-10"/>
					</g>
				</g>
			</g>
		</g>
		<g id="line2d_28">
			<g>
				<defs>
					<rect id="SVGID_91_" x="103.8" y="65.2" width="643.8" height="521.3"/>
				</defs>
				<clipPath id="SVGID_92_">
					<use xlink:href="#SVGID_91_"  style="overflow:visible;"/>
				</clipPath>
				<g class="st51">
					<g>
						<path id="mefcb47504a" class="st52" d="M124.8,430.5l-10,20h20L124.8,430.5z"/>
					</g>
					<g>
						<path id="mefcb47504a_1_" class="st52" d="M153.5,294.9l-10,20h20L153.5,294.9z"/>
					</g>
					<g>
						<path id="mefcb47504a_2_" class="st52" d="M199.4,70.6l-10,20h20L199.4,70.6z"/>
					</g>
				</g>
			</g>
		</g>
		<g id="line2d_29">
			<g>
				<defs>
					<rect id="SVGID_93_" x="103.8" y="65.2" width="643.8" height="521.3"/>
				</defs>
				<clipPath id="SVGID_94_">
					<use xlink:href="#SVGID_93_"  style="overflow:visible;"/>
				</clipPath>
				<path class="st53" d="M116.9,525.4l43.9-5.7l63.5-8.2l166.2-21.4l310-40"/>
			</g>
		</g>
		<g id="line2d_30">
			<g>
				<defs>
					<rect id="SVGID_95_" x="103.8" y="65.2" width="643.8" height="521.3"/>
				</defs>
				<clipPath id="SVGID_96_">
					<use xlink:href="#SVGID_95_"  style="overflow:visible;"/>
				</clipPath>
				<g class="st54">
					<g>
						<path id="m1e604c5cf9_14_" class="st41" d="M116.4,532.9v-10"/>
					</g>
					<g>
						<path id="m1e604c5cf9_15_" class="st41" d="M157.4,524v-10"/>
					</g>
					<g>
						<path id="m1e604c5cf9_16_" class="st41" d="M216.1,519.5v-10"/>
					</g>
					<g>
						<path id="m1e604c5cf9_17_" class="st41" d="M381.7,487.2v-10"/>
					</g>
					<g>
						<path id="m1e604c5cf9_18_" class="st41" d="M685.9,458.3v-10"/>
					</g>
				</g>
			</g>
		</g>
		<g id="line2d_31">
			<g>
				<defs>
					<rect id="SVGID_97_" x="103.8" y="65.2" width="643.8" height="521.3"/>
				</defs>
				<clipPath id="SVGID_98_">
					<use xlink:href="#SVGID_97_"  style="overflow:visible;"/>
				</clipPath>
				<g class="st55">
					<g>
						<path id="m1e604c5cf9_19_" class="st41" d="M117.4,532.9v-10"/>
					</g>
					<g>
						<path id="m1e604c5cf9_20_" class="st41" d="M164.1,524v-10"/>
					</g>
					<g>
						<path id="m1e604c5cf9_21_" class="st41" d="M232.5,519.5v-10"/>
					</g>
					<g>
						<path id="m1e604c5cf9_22_" class="st41" d="M399.3,487.2v-10"/>
					</g>
					<g>
						<path id="m1e604c5cf9_23_" class="st41" d="M715.2,458.3v-10"/>
					</g>
				</g>
			</g>
		</g>
		<g id="line2d_32">
			<g>
				<defs>
					<rect id="SVGID_99_" x="103.8" y="65.2" width="643.8" height="521.3"/>
				</defs>
				<clipPath id="SVGID_100_">
					<use xlink:href="#SVGID_99_"  style="overflow:visible;"/>
				</clipPath>
				<g class="st56">
					<g>
						<path id="m16b47bf0aa_14_" class="st41" d="M121.9,528.3h-10"/>
					</g>
					<g>
						<path id="m16b47bf0aa_15_" class="st41" d="M165.8,521.5h-10"/>
					</g>
					<g>
						<path id="m16b47bf0aa_16_" class="st41" d="M229.3,520.7h-10"/>
					</g>
					<g>
						<path id="m16b47bf0aa_17_" class="st41" d="M395.5,489.1h-10"/>
					</g>
					<g>
						<path id="m16b47bf0aa_18_" class="st41" d="M705.5,462.6h-10"/>
					</g>
				</g>
			</g>
		</g>
		<g id="line2d_33">
			<g>
				<defs>
					<rect id="SVGID_101_" x="103.8" y="65.2" width="643.8" height="521.3"/>
				</defs>
				<clipPath id="SVGID_102_">
					<use xlink:href="#SVGID_101_"  style="overflow:visible;"/>
				</clipPath>
				<g class="st57">
					<g>
						<path id="m16b47bf0aa_19_" class="st41" d="M121.9,527.5h-10"/>
					</g>
					<g>
						<path id="m16b47bf0aa_20_" class="st41" d="M165.8,516.5h-10"/>
					</g>
					<g>
						<path id="m16b47bf0aa_21_" class="st41" d="M229.3,508.4h-10"/>
					</g>
					<g>
						<path id="m16b47bf0aa_22_" class="st41" d="M395.5,475.2h-10"/>
					</g>
					<g>
						<path id="m16b47bf0aa_23_" class="st41" d="M705.5,444h-10"/>
					</g>
				</g>
			</g>
		</g>
		<g id="line2d_34">
			<g>
				<defs>
					<rect id="SVGID_103_" x="103.8" y="65.2" width="643.8" height="521.3"/>
				</defs>
				<clipPath id="SVGID_104_">
					<use xlink:href="#SVGID_103_"  style="overflow:visible;"/>
				</clipPath>
				<g class="st58">
					<g>
						<path id="m07da23dbaf" class="st52" d="M106.9,537.9h20v-20h-20V537.9z"/>
					</g>
					<g>
						<path id="m07da23dbaf_1_" class="st52" d="M150.8,529h20v-20h-20V529z"/>
					</g>
					<g>
						<path id="m07da23dbaf_2_" class="st52" d="M214.3,524.5h20v-20h-20V524.5z"/>
					</g>
					<g>
						<path id="m07da23dbaf_3_" class="st52" d="M380.5,492.2h20v-20h-20V492.2z"/>
					</g>
					<g>
						<path id="m07da23dbaf_4_" class="st52" d="M690.5,463.3h20v-20h-20V463.3z"/>
					</g>
				</g>
			</g>
		</g>
		<g id="line2d_35">
			<g>
				<defs>
					<rect id="SVGID_105_" x="103.8" y="65.2" width="643.8" height="521.3"/>
				</defs>
				<clipPath id="SVGID_106_">
					<use xlink:href="#SVGID_105_"  style="overflow:visible;"/>
				</clipPath>
				<path class="st59" d="M117.1,529.2l40.6-4.9l51.2-6.2l151.6-18.3l251.4-30.3"/>
			</g>
		</g>
		<g id="line2d_36">
			<g>
				<defs>
					<rect id="SVGID_107_" x="103.8" y="65.2" width="643.8" height="521.3"/>
				</defs>
				<clipPath id="SVGID_108_">
					<use xlink:href="#SVGID_107_"  style="overflow:visible;"/>
				</clipPath>
				<g class="st60">
					<g>
						<path id="m1e604c5cf9_24_" class="st41" d="M116.6,534.2v-10"/>
					</g>
					<g>
						<path id="m1e604c5cf9_25_" class="st41" d="M157.2,529.4v-10"/>
					</g>
					<g>
						<path id="m1e604c5cf9_26_" class="st41" d="M207,523.7v-10"/>
					</g>
					<g>
						<path id="m1e604c5cf9_27_" class="st41" d="M347.2,503.9v-10"/>
					</g>
					<g>
						<path id="m1e604c5cf9_28_" class="st41" d="M607.9,474.9v-10"/>
					</g>
				</g>
			</g>
		</g>
		<g id="line2d_37">
			<g>
				<defs>
					<rect id="SVGID_109_" x="103.8" y="65.2" width="643.8" height="521.3"/>
				</defs>
				<clipPath id="SVGID_110_">
					<use xlink:href="#SVGID_109_"  style="overflow:visible;"/>
				</clipPath>
				<g class="st61">
					<g>
						<path id="m1e604c5cf9_29_" class="st41" d="M117.6,534.2v-10"/>
					</g>
					<g>
						<path id="m1e604c5cf9_30_" class="st41" d="M158.1,529.4v-10"/>
					</g>
					<g>
						<path id="m1e604c5cf9_31_" class="st41" d="M210.7,523.7v-10"/>
					</g>
					<g>
						<path id="m1e604c5cf9_32_" class="st41" d="M373.7,503.9v-10"/>
					</g>
					<g>
						<path id="m1e604c5cf9_33_" class="st41" d="M615.8,474.9v-10"/>
					</g>
				</g>
			</g>
		</g>
		<g id="line2d_38">
			<g>
				<defs>
					<rect id="SVGID_111_" x="103.8" y="65.2" width="643.8" height="521.3"/>
				</defs>
				<clipPath id="SVGID_112_">
					<use xlink:href="#SVGID_111_"  style="overflow:visible;"/>
				</clipPath>
				<g class="st62">
					<g>
						<path id="m16b47bf0aa_24_" class="st41" d="M122.1,529.6h-10"/>
					</g>
					<g>
						<path id="m16b47bf0aa_25_" class="st41" d="M162.7,524.8h-10"/>
					</g>
					<g>
						<path id="m16b47bf0aa_26_" class="st41" d="M213.8,520.6h-10"/>
					</g>
					<g>
						<path id="m16b47bf0aa_27_" class="st41" d="M365.5,510.3h-10"/>
					</g>
					<g>
						<path id="m16b47bf0aa_28_" class="st41" d="M616.8,477.6h-10"/>
					</g>
				</g>
			</g>
		</g>
		<g id="line2d_39">
			<g>
				<defs>
					<rect id="SVGID_113_" x="103.8" y="65.2" width="643.8" height="521.3"/>
				</defs>
				<clipPath id="SVGID_114_">
					<use xlink:href="#SVGID_113_"  style="overflow:visible;"/>
				</clipPath>
				<g class="st63">
					<g>
						<path id="m16b47bf0aa_29_" class="st41" d="M122.1,528.9h-10"/>
					</g>
					<g>
						<path id="m16b47bf0aa_30_" class="st41" d="M162.7,523.9h-10"/>
					</g>
					<g>
						<path id="m16b47bf0aa_31_" class="st41" d="M213.8,516.8h-10"/>
					</g>
					<g>
						<path id="m16b47bf0aa_32_" class="st41" d="M365.5,487.5h-10"/>
					</g>
					<g>
						<path id="m16b47bf0aa_33_" class="st41" d="M616.8,462.3h-10"/>
					</g>
				</g>
			</g>
		</g>
		<g id="line2d_40">
			<g>
				<defs>
					<rect id="SVGID_115_" x="103.8" y="65.2" width="643.8" height="521.3"/>
				</defs>
				<clipPath id="SVGID_116_">
					<use xlink:href="#SVGID_115_"  style="overflow:visible;"/>
				</clipPath>
				<g class="st64">
					<g>
						<path id="m2ccdddd438" class="st52" d="M117.1,519.2l-9.5,6.9l3.6,11.2H123l3.6-11.2L117.1,519.2z"/>
					</g>
					<g>
						<path id="m2ccdddd438_1_" class="st52" d="M157.7,514.4l-9.5,6.9l3.6,11.2h11.8l3.6-11.2L157.7,514.4z"/>
					</g>
					<g>
						<path id="m2ccdddd438_2_" class="st52" d="M208.8,508.7l-9.5,6.9l3.6,11.2h11.8l3.6-11.2L208.8,508.7z"/>
					</g>
					<g>
						<path id="m2ccdddd438_3_" class="st52" d="M360.5,488.9l-9.5,6.9l3.6,11.2h11.8l3.6-11.2L360.5,488.9z"/>
					</g>
					<g>
						<path id="m2ccdddd438_4_" class="st52" d="M611.8,459.9l-9.5,6.9l3.6,11.2h11.8l3.6-11.2L611.8,459.9z"/>
					</g>
				</g>
			</g>
		</g>
		<g id="patch_3">
			<path class="st65" d="M103.8,586.4h643.8"/>
		</g>
		<g id="patch_4">
			<path class="st65" d="M103.8,586.4V65.2"/>
		</g>
		<g id="legend_1">
			<g id="line2d_41">
			</g>
			<g id="line2d_42">
				<g>
					<g>
						<path id="m0d45927f34_4_" class="st41" d="M372.7,95.5c2.7,0,5.2-1.1,7.1-2.9s2.9-4.4,2.9-7.1s-1.1-5.2-2.9-7.1
							s-4.4-2.9-7.1-2.9s-5.2,1.1-7.1,2.9s-2.9,4.4-2.9,7.1s1.1,5.2,2.9,7.1S370.1,95.5,372.7,95.5z"/>
					</g>
				</g>
			</g>
			<g id="text_19">
				<text transform="matrix(1 0 0 1 401.5025 91.06)" class="st2 st3 st4">Ferrihydrite K</text>
				<text transform="matrix(0.583 0 0 0.583 509.5289 94.0541)" class="st2 st3 st4">d</text>
				<text transform="matrix(1 0 0 1 515.3653 91.06)" class="st2 st3 st4">: 2500 R</text>
				<text transform="matrix(0.583 0 0 0.583 583.4102 85.0659)" class="st2 st3 st4">2</text>
				<text transform="matrix(1 0 0 1 589.2462 91.06)" class="st2 st3 st4">: 0.99</text>
			</g>
			<g id="line2d_43">
			</g>
			<g id="line2d_44">
				<g>
					<g>
						<path id="mefcb47504a_3_" class="st52" d="M372.7,98.3l-10,20h20L372.7,98.3z"/>
					</g>
				</g>
			</g>
			<g id="text_20">
				<text transform="matrix(1 0 0 1 401.5025 113.88)" class="st2 st3 st4">Sodium Montmorillonite K</text>
				<text transform="matrix(0.583 0 0 0.583 606.5865 116.8741)" class="st2 st3 st4">d</text>
				<text transform="matrix(1 0 0 1 612.4229 113.88)" class="st2 st3 st4">: 21000 R</text>
				<text transform="matrix(0.583 0 0 0.583 690.4786 107.8859)" class="st2 st3 st4">2</text>
				<text transform="matrix(1 0 0 1 696.3145 113.88)" class="st2 st3 st4">: 1.00</text>
			</g>
			<g id="line2d_45">
			</g>
			<g id="line2d_46">
				<g>
					<g>
						<path id="m07da23dbaf_5_" class="st52" d="M362.7,140.9h20v-20h-20V140.9z"/>
					</g>
				</g>
			</g>
			<g id="text_21">
				<text transform="matrix(1 0 0 1 401.5025 136.5125)" class="st2 st3 st4">Goethite K</text>
				<text transform="matrix(0.583 0 0 0.583 486.5543 139.5067)" class="st2 st3 st4">d</text>
				<text transform="matrix(1 0 0 1 492.3907 136.5125)" class="st2 st3 st4">: 570 R</text>
				<text transform="matrix(0.583 0 0 0.583 550.4249 130.5184)" class="st2 st3 st4">2</text>
				<text transform="matrix(1 0 0 1 556.2608 136.5125)" class="st2 st3 st4">: 0.98</text>
			</g>
			<g id="line2d_47">
			</g>
			<g id="line2d_48">
				<g>
					<g>
						<path id="m2ccdddd438_5_" class="st52" d="M372.7,143.6l-9.5,6.9l3.6,11.2h11.8l3.6-11.2L372.7,143.6z"/>
					</g>
				</g>
			</g>
			<g id="text_22">
				<text transform="matrix(1 0 0 1 401.5025 159.1925)" class="st2 st3 st4">Pyrite K</text>
				<text transform="matrix(0.583 0 0 0.583 464.5201 162.1866)" class="st2 st3 st4">d</text>
				<text transform="matrix(1 0 0 1 470.3565 159.1925)" class="st2 st3 st4">: 540 R</text>
				<text transform="matrix(0.583 0 0 0.583 528.3907 153.1984)" class="st2 st3 st4">2</text>
				<text transform="matrix(1 0 0 1 534.2266 159.1925)" class="st2 st3 st4">: 1.00</text>
			</g>
		</g>
	</g>
</g>
</svg>
