<?xml version="1.0" encoding="utf-8"?>
<!-- Generator: Adobe Illustrator 19.2.1, SVG Export Plug-In . SVG Version: 6.00 Build 0)  -->
<svg version="1.1" id="Layer_1" xmlns="http://www.w3.org/2000/svg" xmlns:xlink="http://www.w3.org/1999/xlink" x="0px" y="0px"
	 viewBox="0 0 921 631" style="enable-background:new 0 0 921 631;" xml:space="preserve">
<style type="text/css">
	.st0{fill:#FFFFFF;}
	.st1{fill:none;stroke:#262626;stroke-width:1.6;stroke-linejoin:round;stroke-miterlimit:10;}
	.st2{fill:#262626;}
	.st3{font-family:'ArialMT';}
	.st4{font-size:18px;}
	.st5{clip-path:url(#SVGID_2_);fill:none;stroke:#000000;stroke-linejoin:round;stroke-miterlimit:10;}
	.st6{clip-path:url(#SVGID_4_);fill:none;stroke:#000000;stroke-linejoin:round;stroke-miterlimit:10;}
	.st7{clip-path:url(#SVGID_6_);fill:none;stroke:#000000;stroke-linejoin:round;stroke-miterlimit:10;}
	.st8{clip-path:url(#SVGID_8_);fill:none;stroke:#000000;stroke-linejoin:round;stroke-miterlimit:10;}
	.st9{clip-path:url(#SVGID_10_);fill:none;stroke:#000000;stroke-linejoin:round;stroke-miterlimit:10;}
	.st10{clip-path:url(#SVGID_12_);fill:none;stroke:#000000;stroke-linejoin:round;stroke-miterlimit:10;}
	.st11{clip-path:url(#SVGID_14_);fill:none;stroke:#000000;stroke-linejoin:round;stroke-miterlimit:10;}
	.st12{clip-path:url(#SVGID_16_);fill:none;stroke:#000000;stroke-linejoin:round;stroke-miterlimit:10;}
	.st13{clip-path:url(#SVGID_18_);fill:none;stroke:#000000;stroke-linejoin:round;stroke-miterlimit:10;}
	.st14{clip-path:url(#SVGID_20_);fill:none;stroke:#000000;stroke-linejoin:round;stroke-miterlimit:10;}
	.st15{clip-path:url(#SVGID_22_);fill:none;stroke:#000000;stroke-linejoin:round;stroke-miterlimit:10;}
	.st16{clip-path:url(#SVGID_24_);fill:none;stroke:#000000;stroke-linejoin:round;stroke-miterlimit:10;}
	.st17{clip-path:url(#SVGID_26_);fill:none;stroke:#000000;stroke-linejoin:round;stroke-miterlimit:10;}
	.st18{clip-path:url(#SVGID_28_);fill:none;stroke:#000000;stroke-linejoin:round;stroke-miterlimit:10;}
	.st19{clip-path:url(#SVGID_30_);fill:none;stroke:#000000;stroke-linejoin:round;stroke-miterlimit:10;}
	.st20{clip-path:url(#SVGID_32_);fill:none;stroke:#000000;stroke-linejoin:round;stroke-miterlimit:10;}
	.st21{clip-path:url(#SVGID_34_);fill:none;stroke:#000000;stroke-linejoin:round;stroke-miterlimit:10;}
	.st22{clip-path:url(#SVGID_36_);fill:none;stroke:#000000;stroke-linejoin:round;stroke-miterlimit:10;}
	.st23{clip-path:url(#SVGID_38_);fill:none;stroke:#000000;stroke-linejoin:round;stroke-miterlimit:10;}
	.st24{clip-path:url(#SVGID_40_);fill:none;stroke:#000000;stroke-linejoin:round;stroke-miterlimit:10;}
	.st25{clip-path:url(#SVGID_42_);fill:none;stroke:#000000;stroke-linejoin:round;stroke-miterlimit:10;}
	.st26{clip-path:url(#SVGID_44_);fill:none;stroke:#000000;stroke-linejoin:round;stroke-miterlimit:10;}
	.st27{clip-path:url(#SVGID_46_);fill:none;stroke:#000000;stroke-linejoin:round;stroke-miterlimit:10;}
	.st28{clip-path:url(#SVGID_48_);fill:none;stroke:#000000;stroke-linejoin:round;stroke-miterlimit:10;}
	.st29{clip-path:url(#SVGID_50_);fill:none;stroke:#000000;stroke-linejoin:round;stroke-miterlimit:10;}
	.st30{clip-path:url(#SVGID_52_);fill:none;stroke:#000000;stroke-linejoin:round;stroke-miterlimit:10;}
	.st31{clip-path:url(#SVGID_54_);fill:none;stroke:#000000;stroke-linejoin:round;stroke-miterlimit:10;}
	.st32{clip-path:url(#SVGID_56_);fill:none;stroke:#000000;stroke-linejoin:round;stroke-miterlimit:10;}
	.st33{clip-path:url(#SVGID_58_);fill:none;stroke:#000000;stroke-linejoin:round;stroke-miterlimit:10;}
	.st34{clip-path:url(#SVGID_60_);fill:none;stroke:#000000;stroke-linejoin:round;stroke-miterlimit:10;}
	
		.st35{clip-path:url(#SVGID_62_);fill:none;stroke:#000000;stroke-width:2;stroke-linecap:round;stroke-linejoin:round;stroke-miterlimit:10;}
	.st36{clip-path:url(#SVGID_64_);}
	.st37{fill:none;stroke:#000000;stroke-width:2;stroke-linejoin:round;stroke-miterlimit:10;}
	.st38{clip-path:url(#SVGID_66_);}
	.st39{clip-path:url(#SVGID_68_);}
	.st40{clip-path:url(#SVGID_70_);}
	.st41{clip-path:url(#SVGID_72_);}
	
		.st42{clip-path:url(#SVGID_74_);fill:none;stroke:#000000;stroke-width:2;stroke-linejoin:round;stroke-miterlimit:10;stroke-dasharray:6,6;}
	.st43{clip-path:url(#SVGID_76_);}
	.st44{clip-path:url(#SVGID_78_);}
	.st45{clip-path:url(#SVGID_80_);}
	.st46{clip-path:url(#SVGID_82_);}
	.st47{clip-path:url(#SVGID_84_);}
	.st48{fill:none;stroke:#000000;stroke-width:2;stroke-miterlimit:10;}
	
		.st49{clip-path:url(#SVGID_86_);fill:none;stroke:#000000;stroke-width:2;stroke-linejoin:round;stroke-miterlimit:10;stroke-dasharray:3,5,1,5;}
	.st50{clip-path:url(#SVGID_88_);}
	.st51{clip-path:url(#SVGID_90_);}
	.st52{clip-path:url(#SVGID_92_);}
	.st53{clip-path:url(#SVGID_94_);}
	.st54{clip-path:url(#SVGID_96_);}
	
		.st55{clip-path:url(#SVGID_98_);fill:none;stroke:#000000;stroke-width:2;stroke-linejoin:round;stroke-miterlimit:10;stroke-dasharray:1,3;}
	.st56{clip-path:url(#SVGID_100_);}
	.st57{clip-path:url(#SVGID_102_);}
	.st58{clip-path:url(#SVGID_104_);}
	.st59{clip-path:url(#SVGID_106_);}
	.st60{clip-path:url(#SVGID_108_);}
	.st61{fill:none;stroke:#262626;stroke-width:1.25;stroke-linecap:square;stroke-miterlimit:10;}
</style>
<g id="figure_1">
	<g id="patch_1">
		<path class="st0" d="M0,631.8h921.6V0H0V631.8z"/>
	</g>
	<g id="axes_1">
		<g id="patch_2">
			<path class="st0" d="M115.2,568.6h714.2V63.2H115.2V568.6z"/>
		</g>
		<g id="matplotlib.axis_1">
			<g id="xtick_1">
				<g id="line2d_1">
					<g>
						<g>
							<path id="mfe940bdabe" class="st1" d="M115.2,568.6v6"/>
						</g>
					</g>
				</g>
				<g id="text_1">
					<text transform="matrix(1 0 0 1 99.407 597.2725)" class="st2 st3 st4">−0.5</text>
				</g>
			</g>
			<g id="xtick_2">
				<g id="line2d_2">
					<g>
						<g>
							<path id="mfe940bdabe_1_" class="st1" d="M217.2,568.6v6"/>
						</g>
					</g>
				</g>
				<g id="text_2">
					<text transform="matrix(1 0 0 1 206.1132 597.2725)" class="st2 st3 st4">0.0</text>
				</g>
			</g>
			<g id="xtick_3">
				<g id="line2d_3">
					<g>
						<g>
							<path id="mfe940bdabe_2_" class="st1" d="M319.3,568.6v6"/>
						</g>
					</g>
				</g>
				<g id="text_3">
					<text transform="matrix(1 0 0 1 308.1475 597.2725)" class="st2 st3 st4">0.5</text>
				</g>
			</g>
			<g id="xtick_4">
				<g id="line2d_4">
					<g>
						<g>
							<path id="mfe940bdabe_3_" class="st1" d="M421.3,568.6v6"/>
						</g>
					</g>
				</g>
				<g id="text_4">
					<text transform="matrix(1 0 0 1 410.1818 597.2725)" class="st2 st3 st4">1.0</text>
				</g>
			</g>
			<g id="xtick_5">
				<g id="line2d_5">
					<g>
						<g>
							<path id="mfe940bdabe_4_" class="st1" d="M523.3,568.6v6"/>
						</g>
					</g>
				</g>
				<g id="text_5">
					<text transform="matrix(1 0 0 1 512.2161 597.2725)" class="st2 st3 st4">1.5</text>
				</g>
			</g>
			<g id="xtick_6">
				<g id="line2d_6">
					<g>
						<g>
							<path id="mfe940bdabe_5_" class="st1" d="M625.4,568.6v6"/>
						</g>
					</g>
				</g>
				<g id="text_6">
					<text transform="matrix(1 0 0 1 614.2503 597.2725)" class="st2 st3 st4">2.0</text>
				</g>
			</g>
			<g id="xtick_7">
				<g id="line2d_7">
					<g>
						<g>
							<path id="mfe940bdabe_6_" class="st1" d="M727.4,568.6v6"/>
						</g>
					</g>
				</g>
				<g id="text_7">
					<text transform="matrix(1 0 0 1 716.2846 597.2725)" class="st2 st3 st4">2.5</text>
				</g>
			</g>
			<g id="xtick_8">
				<g id="line2d_8">
					<g>
						<g>
							<path id="mfe940bdabe_7_" class="st1" d="M829.4,568.6v6"/>
						</g>
					</g>
				</g>
				<g id="text_8">
					<text transform="matrix(1 0 0 1 818.3189 597.2725)" class="st2 st3 st4">3.0</text>
				</g>
			</g>
			<g id="text_9">
				<text transform="matrix(1 0 0 1 425.8708 618.2648)" class="st2 st3 st4">Cw (Bq/mL)</text>
			</g>
		</g>
		<g id="matplotlib.axis_2">
			<g id="ytick_1">
				<g id="line2d_9">
					<g>
						<g>
							<path id="m02e58443cc" class="st1" d="M115.2,568.6h-6"/>
						</g>
					</g>
				</g>
				<g id="text_10">
					<text transform="matrix(1 0 0 1 53.0625 572.7562)" class="st2 st3 st4">−2000</text>
				</g>
			</g>
			<g id="ytick_2">
				<g id="line2d_10">
					<g>
						<g>
							<path id="m02e58443cc_1_" class="st1" d="M115.2,484.4h-6"/>
						</g>
					</g>
				</g>
				<g id="text_11">
					<text transform="matrix(1 0 0 1 89.1016 488.5162)" class="st2 st3 st4">0</text>
				</g>
			</g>
			<g id="ytick_3">
				<g id="line2d_11">
					<g>
						<g>
							<path id="m02e58443cc_2_" class="st1" d="M115.2,400.1h-6"/>
						</g>
					</g>
				</g>
				<g id="text_12">
					<text transform="matrix(1 0 0 1 62.4063 404.2762)" class="st2 st3 st4">2000</text>
				</g>
			</g>
			<g id="ytick_4">
				<g id="line2d_12">
					<g>
						<g>
							<path id="m02e58443cc_3_" class="st1" d="M115.2,315.9h-6"/>
						</g>
					</g>
				</g>
				<g id="text_13">
					<text transform="matrix(1 0 0 1 62.4063 320.0363)" class="st2 st3 st4">4000</text>
				</g>
			</g>
			<g id="ytick_5">
				<g id="line2d_13">
					<g>
						<g>
							<path id="m02e58443cc_4_" class="st1" d="M115.2,231.7h-6"/>
						</g>
					</g>
				</g>
				<g id="text_14">
					<text transform="matrix(1 0 0 1 62.4063 235.7963)" class="st2 st3 st4">6000</text>
				</g>
			</g>
			<g id="ytick_6">
				<g id="line2d_14">
					<g>
						<g>
							<path id="m02e58443cc_5_" class="st1" d="M115.2,147.4h-6"/>
						</g>
					</g>
				</g>
				<g id="text_15">
					<text transform="matrix(1 0 0 1 62.4063 151.5563)" class="st2 st3 st4">8000</text>
				</g>
			</g>
			<g id="ytick_7">
				<g id="line2d_15">
					<g>
						<g>
							<path id="m02e58443cc_6_" class="st1" d="M115.2,63.2h-6"/>
						</g>
					</g>
				</g>
				<g id="text_16">
					<text transform="matrix(1 0 0 1 53.5078 67.3163)" class="st2 st3 st4">10000</text>
				</g>
			</g>
			<g id="text_17">
				<text transform="matrix(6.123234e-017 -1 1 6.123234e-017 44.3607 353.0635)" class="st2 st3 st4">Cs (Bq/g)</text>
			</g>
		</g>
		<g id="LineCollection_1">
			<g>
				<defs>
					<rect id="SVGID_1_" x="115.2" y="63.2" width="714.2" height="505.4"/>
				</defs>
				<clipPath id="SVGID_2_">
					<use xlink:href="#SVGID_1_"  style="overflow:visible;"/>
				</clipPath>
				<path class="st5" d="M229.2,487.5h7"/>
			</g>
			<g>
				<defs>
					<rect id="SVGID_3_" x="115.2" y="63.2" width="714.2" height="505.4"/>
				</defs>
				<clipPath id="SVGID_4_">
					<use xlink:href="#SVGID_3_"  style="overflow:visible;"/>
				</clipPath>
				<path class="st6" d="M268.1,483.7h6.8"/>
			</g>
			<g>
				<defs>
					<rect id="SVGID_5_" x="115.2" y="63.2" width="714.2" height="505.4"/>
				</defs>
				<clipPath id="SVGID_6_">
					<use xlink:href="#SVGID_5_"  style="overflow:visible;"/>
				</clipPath>
				<path class="st7" d="M311.7,479.3h16.5"/>
			</g>
			<g>
				<defs>
					<rect id="SVGID_7_" x="115.2" y="63.2" width="714.2" height="505.4"/>
				</defs>
				<clipPath id="SVGID_8_">
					<use xlink:href="#SVGID_7_"  style="overflow:visible;"/>
				</clipPath>
				<path class="st8" d="M707.7,462.1h58.8"/>
			</g>
		</g>
		<g id="LineCollection_2">
			<g>
				<defs>
					<rect id="SVGID_9_" x="115.2" y="63.2" width="714.2" height="505.4"/>
				</defs>
				<clipPath id="SVGID_10_">
					<use xlink:href="#SVGID_9_"  style="overflow:visible;"/>
				</clipPath>
				<path class="st9" d="M232.7,489.9v-4.8"/>
			</g>
			<g>
				<defs>
					<rect id="SVGID_11_" x="115.2" y="63.2" width="714.2" height="505.4"/>
				</defs>
				<clipPath id="SVGID_12_">
					<use xlink:href="#SVGID_11_"  style="overflow:visible;"/>
				</clipPath>
				<path class="st10" d="M271.4,486.1v-4.7"/>
			</g>
			<g>
				<defs>
					<rect id="SVGID_13_" x="115.2" y="63.2" width="714.2" height="505.4"/>
				</defs>
				<clipPath id="SVGID_14_">
					<use xlink:href="#SVGID_13_"  style="overflow:visible;"/>
				</clipPath>
				<path class="st11" d="M320,485v-11.4"/>
			</g>
			<g>
				<defs>
					<rect id="SVGID_15_" x="115.2" y="63.2" width="714.2" height="505.4"/>
				</defs>
				<clipPath id="SVGID_16_">
					<use xlink:href="#SVGID_15_"  style="overflow:visible;"/>
				</clipPath>
				<path class="st12" d="M737,482.3v-40.4"/>
			</g>
		</g>
		<g id="LineCollection_3">
			<g>
				<defs>
					<rect id="SVGID_17_" x="115.2" y="63.2" width="714.2" height="505.4"/>
				</defs>
				<clipPath id="SVGID_18_">
					<use xlink:href="#SVGID_17_"  style="overflow:visible;"/>
				</clipPath>
				<path class="st13" d="M222.6,485.1h2.5"/>
			</g>
			<g>
				<defs>
					<rect id="SVGID_19_" x="115.2" y="63.2" width="714.2" height="505.4"/>
				</defs>
				<clipPath id="SVGID_20_">
					<use xlink:href="#SVGID_19_"  style="overflow:visible;"/>
				</clipPath>
				<path class="st14" d="M226.8,484.2h2.3"/>
			</g>
			<g>
				<defs>
					<rect id="SVGID_21_" x="115.2" y="63.2" width="714.2" height="505.4"/>
				</defs>
				<clipPath id="SVGID_22_">
					<use xlink:href="#SVGID_21_"  style="overflow:visible;"/>
				</clipPath>
				<path class="st15" d="M242.7,474.6h30.9"/>
			</g>
			<g>
				<defs>
					<rect id="SVGID_23_" x="115.2" y="63.2" width="714.2" height="505.4"/>
				</defs>
				<clipPath id="SVGID_24_">
					<use xlink:href="#SVGID_23_"  style="overflow:visible;"/>
				</clipPath>
				<path class="st16" d="M314.7,476.6h2.8"/>
			</g>
			<g>
				<defs>
					<rect id="SVGID_25_" x="115.2" y="63.2" width="714.2" height="505.4"/>
				</defs>
				<clipPath id="SVGID_26_">
					<use xlink:href="#SVGID_25_"  style="overflow:visible;"/>
				</clipPath>
				<path class="st17" d="M673.7,436.8h53.5"/>
			</g>
		</g>
		<g id="LineCollection_4">
			<g>
				<defs>
					<rect id="SVGID_27_" x="115.2" y="63.2" width="714.2" height="505.4"/>
				</defs>
				<clipPath id="SVGID_28_">
					<use xlink:href="#SVGID_27_"  style="overflow:visible;"/>
				</clipPath>
				<path class="st18" d="M223.9,486v-1.8"/>
			</g>
			<g>
				<defs>
					<rect id="SVGID_29_" x="115.2" y="63.2" width="714.2" height="505.4"/>
				</defs>
				<clipPath id="SVGID_30_">
					<use xlink:href="#SVGID_29_"  style="overflow:visible;"/>
				</clipPath>
				<path class="st19" d="M227.9,485v-1.6"/>
			</g>
			<g>
				<defs>
					<rect id="SVGID_31_" x="115.2" y="63.2" width="714.2" height="505.4"/>
				</defs>
				<clipPath id="SVGID_32_">
					<use xlink:href="#SVGID_31_"  style="overflow:visible;"/>
				</clipPath>
				<path class="st20" d="M258.1,485.2v-21.3"/>
			</g>
			<g>
				<defs>
					<rect id="SVGID_33_" x="115.2" y="63.2" width="714.2" height="505.4"/>
				</defs>
				<clipPath id="SVGID_34_">
					<use xlink:href="#SVGID_33_"  style="overflow:visible;"/>
				</clipPath>
				<path class="st21" d="M316.1,477.6v-1.9"/>
			</g>
			<g>
				<defs>
					<rect id="SVGID_35_" x="115.2" y="63.2" width="714.2" height="505.4"/>
				</defs>
				<clipPath id="SVGID_36_">
					<use xlink:href="#SVGID_35_"  style="overflow:visible;"/>
				</clipPath>
				<path class="st22" d="M700.4,454.3v-34.8"/>
			</g>
		</g>
		<g id="LineCollection_5">
			<g>
				<defs>
					<rect id="SVGID_37_" x="115.2" y="63.2" width="714.2" height="505.4"/>
				</defs>
				<clipPath id="SVGID_38_">
					<use xlink:href="#SVGID_37_"  style="overflow:visible;"/>
				</clipPath>
				<path class="st23" d="M223.1,481.2h1.2"/>
			</g>
			<g>
				<defs>
					<rect id="SVGID_39_" x="115.2" y="63.2" width="714.2" height="505.4"/>
				</defs>
				<clipPath id="SVGID_40_">
					<use xlink:href="#SVGID_39_"  style="overflow:visible;"/>
				</clipPath>
				<path class="st24" d="M240.4,463h2.1"/>
			</g>
			<g>
				<defs>
					<rect id="SVGID_41_" x="115.2" y="63.2" width="714.2" height="505.4"/>
				</defs>
				<clipPath id="SVGID_42_">
					<use xlink:href="#SVGID_41_"  style="overflow:visible;"/>
				</clipPath>
				<path class="st25" d="M264.9,443.6h6.5"/>
			</g>
			<g>
				<defs>
					<rect id="SVGID_43_" x="115.2" y="63.2" width="714.2" height="505.4"/>
				</defs>
				<clipPath id="SVGID_44_">
					<use xlink:href="#SVGID_43_"  style="overflow:visible;"/>
				</clipPath>
				<path class="st26" d="M492.3,318.4h71.9"/>
			</g>
		</g>
		<g id="LineCollection_6">
			<g>
				<defs>
					<rect id="SVGID_45_" x="115.2" y="63.2" width="714.2" height="505.4"/>
				</defs>
				<clipPath id="SVGID_46_">
					<use xlink:href="#SVGID_45_"  style="overflow:visible;"/>
				</clipPath>
				<path class="st27" d="M223.7,481.7v-0.8"/>
			</g>
			<g>
				<defs>
					<rect id="SVGID_47_" x="115.2" y="63.2" width="714.2" height="505.4"/>
				</defs>
				<clipPath id="SVGID_48_">
					<use xlink:href="#SVGID_47_"  style="overflow:visible;"/>
				</clipPath>
				<path class="st28" d="M241.4,463.8v-1.4"/>
			</g>
			<g>
				<defs>
					<rect id="SVGID_49_" x="115.2" y="63.2" width="714.2" height="505.4"/>
				</defs>
				<clipPath id="SVGID_50_">
					<use xlink:href="#SVGID_49_"  style="overflow:visible;"/>
				</clipPath>
				<path class="st29" d="M268.1,445.8v-4.4"/>
			</g>
			<g>
				<defs>
					<rect id="SVGID_51_" x="115.2" y="63.2" width="714.2" height="505.4"/>
				</defs>
				<clipPath id="SVGID_52_">
					<use xlink:href="#SVGID_51_"  style="overflow:visible;"/>
				</clipPath>
				<path class="st30" d="M528.3,343.2v-49.5"/>
			</g>
		</g>
		<g id="LineCollection_7">
			<g>
				<defs>
					<rect id="SVGID_53_" x="115.2" y="63.2" width="714.2" height="505.4"/>
				</defs>
				<clipPath id="SVGID_54_">
					<use xlink:href="#SVGID_53_"  style="overflow:visible;"/>
				</clipPath>
				<path class="st31" d="M214.1,444.9h1.7"/>
			</g>
			<g>
				<defs>
					<rect id="SVGID_55_" x="115.2" y="63.2" width="714.2" height="505.4"/>
				</defs>
				<clipPath id="SVGID_56_">
					<use xlink:href="#SVGID_55_"  style="overflow:visible;"/>
				</clipPath>
				<path class="st32" d="M222.3,125.5h5.7"/>
			</g>
		</g>
		<g id="LineCollection_8">
			<g>
				<defs>
					<rect id="SVGID_57_" x="115.2" y="63.2" width="714.2" height="505.4"/>
				</defs>
				<clipPath id="SVGID_58_">
					<use xlink:href="#SVGID_57_"  style="overflow:visible;"/>
				</clipPath>
				<path class="st33" d="M215,445.5v-1.2"/>
			</g>
			<g>
				<defs>
					<rect id="SVGID_59_" x="115.2" y="63.2" width="714.2" height="505.4"/>
				</defs>
				<clipPath id="SVGID_60_">
					<use xlink:href="#SVGID_59_"  style="overflow:visible;"/>
				</clipPath>
				<path class="st34" d="M225.1,140.6v-30.2"/>
			</g>
		</g>
		<g id="line2d_16">
			<g>
				<defs>
					<rect id="SVGID_61_" x="115.2" y="63.2" width="714.2" height="505.4"/>
				</defs>
				<clipPath id="SVGID_62_">
					<use xlink:href="#SVGID_61_"  style="overflow:visible;"/>
				</clipPath>
				<path class="st35" d="M232.7,485.6l38.7-1.8l48.5-2.3L737,461.7"/>
			</g>
		</g>
		<g id="line2d_17">
			<g>
				<defs>
					<rect id="SVGID_63_" x="115.2" y="63.2" width="714.2" height="505.4"/>
				</defs>
				<clipPath id="SVGID_64_">
					<use xlink:href="#SVGID_63_"  style="overflow:visible;"/>
				</clipPath>
				<g class="st36">
					<g>
						<path id="mdaa4de0d15" class="st37" d="M229.2,492.5v-10"/>
					</g>
					<g>
						<path id="mdaa4de0d15_1_" class="st37" d="M268.1,488.7v-10"/>
					</g>
					<g>
						<path id="mdaa4de0d15_2_" class="st37" d="M311.7,484.3v-10"/>
					</g>
					<g>
						<path id="mdaa4de0d15_3_" class="st37" d="M707.7,467.1v-10"/>
					</g>
				</g>
			</g>
		</g>
		<g id="line2d_18">
			<g>
				<defs>
					<rect id="SVGID_65_" x="115.2" y="63.2" width="714.2" height="505.4"/>
				</defs>
				<clipPath id="SVGID_66_">
					<use xlink:href="#SVGID_65_"  style="overflow:visible;"/>
				</clipPath>
				<g class="st38">
					<g>
						<path id="mdaa4de0d15_4_" class="st37" d="M236.2,492.5v-10"/>
					</g>
					<g>
						<path id="mdaa4de0d15_5_" class="st37" d="M274.8,488.7v-10"/>
					</g>
					<g>
						<path id="mdaa4de0d15_6_" class="st37" d="M328.2,484.3v-10"/>
					</g>
					<g>
						<path id="mdaa4de0d15_7_" class="st37" d="M766.4,467.1v-10"/>
					</g>
				</g>
			</g>
		</g>
		<g id="line2d_19">
			<g>
				<defs>
					<rect id="SVGID_67_" x="115.2" y="63.2" width="714.2" height="505.4"/>
				</defs>
				<clipPath id="SVGID_68_">
					<use xlink:href="#SVGID_67_"  style="overflow:visible;"/>
				</clipPath>
				<g class="st39">
					<g>
						<path id="ma4cba9294f" class="st37" d="M237.7,489.9h-10"/>
					</g>
					<g>
						<path id="ma4cba9294f_1_" class="st37" d="M276.4,486.1h-10"/>
					</g>
					<g>
						<path id="ma4cba9294f_2_" class="st37" d="M325,485h-10"/>
					</g>
					<g>
						<path id="ma4cba9294f_3_" class="st37" d="M742,482.3h-10"/>
					</g>
				</g>
			</g>
		</g>
		<g id="line2d_20">
			<g>
				<defs>
					<rect id="SVGID_69_" x="115.2" y="63.2" width="714.2" height="505.4"/>
				</defs>
				<clipPath id="SVGID_70_">
					<use xlink:href="#SVGID_69_"  style="overflow:visible;"/>
				</clipPath>
				<g class="st40">
					<g>
						<path id="ma4cba9294f_4_" class="st37" d="M237.7,485.1h-10"/>
					</g>
					<g>
						<path id="ma4cba9294f_5_" class="st37" d="M276.4,481.4h-10"/>
					</g>
					<g>
						<path id="ma4cba9294f_6_" class="st37" d="M325,473.6h-10"/>
					</g>
					<g>
						<path id="ma4cba9294f_7_" class="st37" d="M742,441.8h-10"/>
					</g>
				</g>
			</g>
		</g>
		<g id="line2d_21">
			<g>
				<defs>
					<rect id="SVGID_71_" x="115.2" y="63.2" width="714.2" height="505.4"/>
				</defs>
				<clipPath id="SVGID_72_">
					<use xlink:href="#SVGID_71_"  style="overflow:visible;"/>
				</clipPath>
				<g class="st41">
					<g>
						<path id="m53c15fc048" class="st37" d="M232.7,497.5c2.7,0,5.2-1.1,7.1-2.9c1.9-1.9,2.9-4.4,2.9-7.1s-1.1-5.2-2.9-7.1
							c-1.9-1.9-4.4-2.9-7.1-2.9s-5.2,1.1-7.1,2.9c-1.9,1.9-2.9,4.4-2.9,7.1s1.1,5.2,2.9,7.1C227.5,496.4,230.1,497.5,232.7,497.5z"
							/>
					</g>
					<g>
						<path id="m53c15fc048_1_" class="st37" d="M271.4,493.7c2.7,0,5.2-1.1,7.1-2.9s2.9-4.4,2.9-7.1s-1.1-5.2-2.9-7.1
							s-4.4-2.9-7.1-2.9s-5.2,1.1-7.1,2.9s-2.9,4.4-2.9,7.1s1.1,5.2,2.9,7.1S268.8,493.7,271.4,493.7z"/>
					</g>
					<g>
						<path id="m53c15fc048_2_" class="st37" d="M320,489.3c2.7,0,5.2-1.1,7.1-2.9s2.9-4.4,2.9-7.1s-1.1-5.2-2.9-7.1
							s-4.4-2.9-7.1-2.9s-5.2,1.1-7.1,2.9s-2.9,4.4-2.9,7.1s1.1,5.2,2.9,7.1S317.3,489.3,320,489.3z"/>
					</g>
					<g>
						<path id="m53c15fc048_3_" class="st37" d="M737,472.1c2.7,0,5.2-1.1,7.1-2.9c1.9-1.9,2.9-4.4,2.9-7.1s-1.1-5.2-2.9-7.1
							c-1.9-1.9-4.4-2.9-7.1-2.9s-5.2,1.1-7.1,2.9c-1.9,1.9-2.9,4.4-2.9,7.1s1.1,5.2,2.9,7.1C731.8,471,734.4,472.1,737,472.1z"/>
					</g>
				</g>
			</g>
		</g>
		<g id="line2d_22">
			<g>
				<defs>
					<rect id="SVGID_73_" x="115.2" y="63.2" width="714.2" height="505.4"/>
				</defs>
				<clipPath id="SVGID_74_">
					<use xlink:href="#SVGID_73_"  style="overflow:visible;"/>
				</clipPath>
				<path class="st42" d="M223.9,483.3l4-0.4l30.2-2.9l58-5.6l384.3-37.4"/>
			</g>
		</g>
		<g id="line2d_23">
			<g>
				<defs>
					<rect id="SVGID_75_" x="115.2" y="63.2" width="714.2" height="505.4"/>
				</defs>
				<clipPath id="SVGID_76_">
					<use xlink:href="#SVGID_75_"  style="overflow:visible;"/>
				</clipPath>
				<g class="st43">
					<g>
						<path id="mdaa4de0d15_8_" class="st37" d="M222.6,490.1v-10"/>
					</g>
					<g>
						<path id="mdaa4de0d15_9_" class="st37" d="M226.8,489.2v-10"/>
					</g>
					<g>
						<path id="mdaa4de0d15_10_" class="st37" d="M242.7,479.6v-10"/>
					</g>
					<g>
						<path id="mdaa4de0d15_11_" class="st37" d="M314.7,481.6v-10"/>
					</g>
					<g>
						<path id="mdaa4de0d15_12_" class="st37" d="M673.7,441.8v-10"/>
					</g>
				</g>
			</g>
		</g>
		<g id="line2d_24">
			<g>
				<defs>
					<rect id="SVGID_77_" x="115.2" y="63.2" width="714.2" height="505.4"/>
				</defs>
				<clipPath id="SVGID_78_">
					<use xlink:href="#SVGID_77_"  style="overflow:visible;"/>
				</clipPath>
				<g class="st44">
					<g>
						<path id="mdaa4de0d15_13_" class="st37" d="M225.1,490.1v-10"/>
					</g>
					<g>
						<path id="mdaa4de0d15_14_" class="st37" d="M229.1,489.2v-10"/>
					</g>
					<g>
						<path id="mdaa4de0d15_15_" class="st37" d="M273.6,479.6v-10"/>
					</g>
					<g>
						<path id="mdaa4de0d15_16_" class="st37" d="M317.5,481.6v-10"/>
					</g>
					<g>
						<path id="mdaa4de0d15_17_" class="st37" d="M727.1,441.8v-10"/>
					</g>
				</g>
			</g>
		</g>
		<g id="line2d_25">
			<g>
				<defs>
					<rect id="SVGID_79_" x="115.2" y="63.2" width="714.2" height="505.4"/>
				</defs>
				<clipPath id="SVGID_80_">
					<use xlink:href="#SVGID_79_"  style="overflow:visible;"/>
				</clipPath>
				<g class="st45">
					<g>
						<path id="ma4cba9294f_8_" class="st37" d="M228.9,486h-10"/>
					</g>
					<g>
						<path id="ma4cba9294f_9_" class="st37" d="M232.9,485h-10"/>
					</g>
					<g>
						<path id="ma4cba9294f_10_" class="st37" d="M263.1,485.2h-10"/>
					</g>
					<g>
						<path id="ma4cba9294f_11_" class="st37" d="M321.1,477.6h-10"/>
					</g>
					<g>
						<path id="ma4cba9294f_12_" class="st37" d="M705.4,454.3h-10"/>
					</g>
				</g>
			</g>
		</g>
		<g id="line2d_26">
			<g>
				<defs>
					<rect id="SVGID_81_" x="115.2" y="63.2" width="714.2" height="505.4"/>
				</defs>
				<clipPath id="SVGID_82_">
					<use xlink:href="#SVGID_81_"  style="overflow:visible;"/>
				</clipPath>
				<g class="st46">
					<g>
						<path id="ma4cba9294f_13_" class="st37" d="M228.9,484.3h-10"/>
					</g>
					<g>
						<path id="ma4cba9294f_14_" class="st37" d="M232.9,483.4h-10"/>
					</g>
					<g>
						<path id="ma4cba9294f_15_" class="st37" d="M263.1,463.9h-10"/>
					</g>
					<g>
						<path id="ma4cba9294f_16_" class="st37" d="M321.1,475.7h-10"/>
					</g>
					<g>
						<path id="ma4cba9294f_17_" class="st37" d="M705.4,419.4h-10"/>
					</g>
				</g>
			</g>
		</g>
		<g id="line2d_27">
			<g>
				<defs>
					<rect id="SVGID_83_" x="115.2" y="63.2" width="714.2" height="505.4"/>
				</defs>
				<clipPath id="SVGID_84_">
					<use xlink:href="#SVGID_83_"  style="overflow:visible;"/>
				</clipPath>
				<g class="st47">
					<g>
						<path id="m37d9c6969d" class="st48" d="M223.9,475.1l-10,20h20L223.9,475.1z"/>
					</g>
					<g>
						<path id="m37d9c6969d_1_" class="st48" d="M227.9,474.2l-10,20h20L227.9,474.2z"/>
					</g>
					<g>
						<path id="m37d9c6969d_2_" class="st48" d="M258.1,464.6l-10,20h20L258.1,464.6z"/>
					</g>
					<g>
						<path id="m37d9c6969d_3_" class="st48" d="M316.1,466.6l-10,20h20L316.1,466.6z"/>
					</g>
					<g>
						<path id="m37d9c6969d_4_" class="st48" d="M700.4,426.8l-10,20h20L700.4,426.8z"/>
					</g>
				</g>
			</g>
		</g>
		<g id="line2d_28">
			<g>
				<defs>
					<rect id="SVGID_85_" x="115.2" y="63.2" width="714.2" height="505.4"/>
				</defs>
				<clipPath id="SVGID_86_">
					<use xlink:href="#SVGID_85_"  style="overflow:visible;"/>
				</clipPath>
				<path class="st49" d="M223.7,473.6l17.7-9.1l26.7-13.7l260.2-133.6"/>
			</g>
		</g>
		<g id="line2d_29">
			<g>
				<defs>
					<rect id="SVGID_87_" x="115.2" y="63.2" width="714.2" height="505.4"/>
				</defs>
				<clipPath id="SVGID_88_">
					<use xlink:href="#SVGID_87_"  style="overflow:visible;"/>
				</clipPath>
				<g class="st50">
					<g>
						<path id="mdaa4de0d15_18_" class="st37" d="M223.1,486.2v-10"/>
					</g>
					<g>
						<path id="mdaa4de0d15_19_" class="st37" d="M240.4,468v-10"/>
					</g>
					<g>
						<path id="mdaa4de0d15_20_" class="st37" d="M264.9,448.6v-10"/>
					</g>
					<g>
						<path id="mdaa4de0d15_21_" class="st37" d="M492.3,323.4v-10"/>
					</g>
				</g>
			</g>
		</g>
		<g id="line2d_30">
			<g>
				<defs>
					<rect id="SVGID_89_" x="115.2" y="63.2" width="714.2" height="505.4"/>
				</defs>
				<clipPath id="SVGID_90_">
					<use xlink:href="#SVGID_89_"  style="overflow:visible;"/>
				</clipPath>
				<g class="st51">
					<g>
						<path id="mdaa4de0d15_22_" class="st37" d="M224.3,486.2v-10"/>
					</g>
					<g>
						<path id="mdaa4de0d15_23_" class="st37" d="M242.4,468v-10"/>
					</g>
					<g>
						<path id="mdaa4de0d15_24_" class="st37" d="M271.3,448.6v-10"/>
					</g>
					<g>
						<path id="mdaa4de0d15_25_" class="st37" d="M564.2,323.4v-10"/>
					</g>
				</g>
			</g>
		</g>
		<g id="line2d_31">
			<g>
				<defs>
					<rect id="SVGID_91_" x="115.2" y="63.2" width="714.2" height="505.4"/>
				</defs>
				<clipPath id="SVGID_92_">
					<use xlink:href="#SVGID_91_"  style="overflow:visible;"/>
				</clipPath>
				<g class="st52">
					<g>
						<path id="ma4cba9294f_18_" class="st37" d="M228.7,481.7h-10"/>
					</g>
					<g>
						<path id="ma4cba9294f_19_" class="st37" d="M246.4,463.8h-10"/>
					</g>
					<g>
						<path id="ma4cba9294f_20_" class="st37" d="M273.1,445.8h-10"/>
					</g>
					<g>
						<path id="ma4cba9294f_21_" class="st37" d="M533.3,343.2h-10"/>
					</g>
				</g>
			</g>
		</g>
		<g id="line2d_32">
			<g>
				<defs>
					<rect id="SVGID_93_" x="115.2" y="63.2" width="714.2" height="505.4"/>
				</defs>
				<clipPath id="SVGID_94_">
					<use xlink:href="#SVGID_93_"  style="overflow:visible;"/>
				</clipPath>
				<g class="st53">
					<g>
						<path id="ma4cba9294f_22_" class="st37" d="M228.7,480.8h-10"/>
					</g>
					<g>
						<path id="ma4cba9294f_23_" class="st37" d="M246.4,462.3h-10"/>
					</g>
					<g>
						<path id="ma4cba9294f_24_" class="st37" d="M273.1,441.4h-10"/>
					</g>
					<g>
						<path id="ma4cba9294f_25_" class="st37" d="M533.3,293.7h-10"/>
					</g>
				</g>
			</g>
		</g>
		<g id="line2d_33">
			<g>
				<defs>
					<rect id="SVGID_95_" x="115.2" y="63.2" width="714.2" height="505.4"/>
				</defs>
				<clipPath id="SVGID_96_">
					<use xlink:href="#SVGID_95_"  style="overflow:visible;"/>
				</clipPath>
				<g class="st54">
					<g>
						<path id="m12dc126363" class="st48" d="M213.7,491.2h20v-20h-20V491.2z"/>
					</g>
					<g>
						<path id="m12dc126363_1_" class="st48" d="M231.4,473h20v-20h-20V473z"/>
					</g>
					<g>
						<path id="m12dc126363_2_" class="st48" d="M258.1,453.6h20v-20h-20V453.6z"/>
					</g>
					<g>
						<path id="m12dc126363_3_" class="st48" d="M518.3,328.4h20v-20h-20V328.4z"/>
					</g>
				</g>
			</g>
		</g>
		<g id="line2d_34">
			<g>
				<defs>
					<rect id="SVGID_97_" x="115.2" y="63.2" width="714.2" height="505.4"/>
				</defs>
				<clipPath id="SVGID_98_">
					<use xlink:href="#SVGID_97_"  style="overflow:visible;"/>
				</clipPath>
				<path class="st55" d="M215,444.9l10.1-319.4"/>
			</g>
		</g>
		<g id="line2d_35">
			<g>
				<defs>
					<rect id="SVGID_99_" x="115.2" y="63.2" width="714.2" height="505.4"/>
				</defs>
				<clipPath id="SVGID_100_">
					<use xlink:href="#SVGID_99_"  style="overflow:visible;"/>
				</clipPath>
				<g class="st56">
					<g>
						<path id="mdaa4de0d15_26_" class="st37" d="M214.1,449.9v-10"/>
					</g>
					<g>
						<path id="mdaa4de0d15_27_" class="st37" d="M222.3,130.5v-10"/>
					</g>
				</g>
			</g>
		</g>
		<g id="line2d_36">
			<g>
				<defs>
					<rect id="SVGID_101_" x="115.2" y="63.2" width="714.2" height="505.4"/>
				</defs>
				<clipPath id="SVGID_102_">
					<use xlink:href="#SVGID_101_"  style="overflow:visible;"/>
				</clipPath>
				<g class="st57">
					<g>
						<path id="mdaa4de0d15_28_" class="st37" d="M215.9,449.9v-10"/>
					</g>
					<g>
						<path id="mdaa4de0d15_29_" class="st37" d="M228,130.5v-10"/>
					</g>
				</g>
			</g>
		</g>
		<g id="line2d_37">
			<g>
				<defs>
					<rect id="SVGID_103_" x="115.2" y="63.2" width="714.2" height="505.4"/>
				</defs>
				<clipPath id="SVGID_104_">
					<use xlink:href="#SVGID_103_"  style="overflow:visible;"/>
				</clipPath>
				<g class="st58">
					<g>
						<path id="ma4cba9294f_26_" class="st37" d="M220,445.5h-10"/>
					</g>
					<g>
						<path id="ma4cba9294f_27_" class="st37" d="M230.1,140.6h-10"/>
					</g>
				</g>
			</g>
		</g>
		<g id="line2d_38">
			<g>
				<defs>
					<rect id="SVGID_105_" x="115.2" y="63.2" width="714.2" height="505.4"/>
				</defs>
				<clipPath id="SVGID_106_">
					<use xlink:href="#SVGID_105_"  style="overflow:visible;"/>
				</clipPath>
				<g class="st59">
					<g>
						<path id="ma4cba9294f_28_" class="st37" d="M220,444.3h-10"/>
					</g>
					<g>
						<path id="ma4cba9294f_29_" class="st37" d="M230.1,110.4h-10"/>
					</g>
				</g>
			</g>
		</g>
		<g id="line2d_39">
			<g>
				<defs>
					<rect id="SVGID_107_" x="115.2" y="63.2" width="714.2" height="505.4"/>
				</defs>
				<clipPath id="SVGID_108_">
					<use xlink:href="#SVGID_107_"  style="overflow:visible;"/>
				</clipPath>
				<g class="st60">
					<g>
						<path id="mbcc0329859" class="st48" d="M215,434.9l-9.5,6.9l3.6,11.2h11.8l3.6-11.2L215,434.9z"/>
					</g>
					<g>
						<path id="mbcc0329859_1_" class="st48" d="M225.1,115.5l-9.5,6.9l3.6,11.2H231l3.6-11.2L225.1,115.5z"/>
					</g>
				</g>
			</g>
		</g>
		<g id="patch_3">
			<path class="st61" d="M115.2,568.6h714.2"/>
		</g>
		<g id="patch_4">
			<path class="st61" d="M115.2,568.6V63.2"/>
		</g>
		<g id="legend_1">
			<g id="line2d_40">
			</g>
			<g id="line2d_41">
				<g>
					<g>
						<path id="m53c15fc048_4_" class="st37" d="M574.5,93.5c2.7,0,5.2-1.1,7.1-2.9c1.9-1.9,2.9-4.4,2.9-7.1s-1.1-5.2-2.9-7.1
							c-1.9-1.9-4.4-2.9-7.1-2.9s-5.2,1.1-7.1,2.9c-1.9,1.9-2.9,4.4-2.9,7.1s1.1,5.2,2.9,7.1C569.3,92.4,571.9,93.5,574.5,93.5z"/>
					</g>
				</g>
			</g>
			<g id="text_18">
				<text transform="matrix(1 0 0 1 603.345 89.08)" class="st2 st3 st4">pH: 3 K</text>
				<text transform="matrix(0.583 0 0 0.583 663.3743 92.0742)" class="st2 st3 st4">d</text>
				<text transform="matrix(1 0 0 1 669.2107 89.08)" class="st2 st3 st4">: 230 R</text>
				<text transform="matrix(0.583 0 0 0.583 727.2449 83.0859)" class="st2 st3 st4">2</text>
				<text transform="matrix(1 0 0 1 733.0808 89.08)" class="st2 st3 st4">: 0.98</text>
			</g>
			<g id="line2d_42">
			</g>
			<g id="line2d_43">
				<g>
					<g>
						<path id="m37d9c6969d_5_" class="st48" d="M574.5,96.2l-10,20h20L574.5,96.2z"/>
					</g>
				</g>
			</g>
			<g id="text_19">
				<text transform="matrix(1 0 0 1 603.345 111.76)" class="st2 st3 st4">pH: 5 K</text>
				<text transform="matrix(0.583 0 0 0.583 663.3743 114.7542)" class="st2 st3 st4">d</text>
				<text transform="matrix(1 0 0 1 669.2107 111.76)" class="st2 st3 st4">: 470 R</text>
				<text transform="matrix(0.583 0 0 0.583 727.2449 105.7659)" class="st2 st3 st4">2</text>
				<text transform="matrix(1 0 0 1 733.0808 111.76)" class="st2 st3 st4">: 0.98</text>
			</g>
			<g id="line2d_44">
			</g>
			<g id="line2d_45">
				<g>
					<g>
						<path id="m12dc126363_4_" class="st48" d="M564.5,138.8h20v-20h-20V138.8z"/>
					</g>
				</g>
			</g>
			<g id="text_20">
				<text transform="matrix(1 0 0 1 603.345 134.44)" class="st2 st3 st4">pH: 7 K</text>
				<text transform="matrix(0.583 0 0 0.583 663.3743 137.4341)" class="st2 st3 st4">d</text>
				<text transform="matrix(1 0 0 1 669.2107 134.44)" class="st2 st3 st4">: 2500 R</text>
				<text transform="matrix(0.583 0 0 0.583 737.2556 128.4459)" class="st2 st3 st4">2</text>
				<text transform="matrix(1 0 0 1 743.0916 134.44)" class="st2 st3 st4">: 0.99</text>
			</g>
			<g id="line2d_46">
			</g>
			<g id="line2d_47">
				<g>
					<g>
						<path id="mbcc0329859_2_" class="st48" d="M574.5,141.5l-9.5,6.9l3.6,11.2h11.8l3.6-11.2L574.5,141.5z"/>
					</g>
				</g>
			</g>
			<g id="text_21">
				<text transform="matrix(1 0 0 1 603.345 157.12)" class="st2 st3 st4">pH: 9 K</text>
				<text transform="matrix(0.583 0 0 0.583 663.3743 160.1141)" class="st2 st3 st4">d</text>
				<text transform="matrix(1 0 0 1 669.2107 157.12)" class="st2 st3 st4">: 150000 R</text>
				<text transform="matrix(0.583 0 0 0.583 757.2771 151.1259)" class="st2 st3 st4">2</text>
				<text transform="matrix(1 0 0 1 763.113 157.12)" class="st2 st3 st4">: 1.00</text>
			</g>
		</g>
	</g>
</g>
</svg>
