<?xml version="1.0" encoding="utf-8"?>
<!-- Generator: Adobe Illustrator 19.2.1, SVG Export Plug-In . SVG Version: 6.00 Build 0)  -->
<svg version="1.1" id="Layer_1" xmlns="http://www.w3.org/2000/svg" xmlns:xlink="http://www.w3.org/1999/xlink" x="0px" y="0px"
	 viewBox="0 0 1152 900" style="enable-background:new 0 0 1152 900;" xml:space="preserve">
<style type="text/css">
	.st0{fill:#FFFFFF;}
	.st1{fill:none;stroke:#262626;stroke-width:1.6;stroke-linejoin:round;stroke-miterlimit:10;}
	.st2{fill:#262626;}
	.st3{font-family:'ArialMT';}
	.st4{font-size:24px;}
	.st5{font-size:36px;}
	.st6{clip-path:url(#SVGID_2_);fill:none;stroke:#000000;stroke-linejoin:round;stroke-miterlimit:10;}
	.st7{clip-path:url(#SVGID_4_);fill:none;stroke:#000000;stroke-linejoin:round;stroke-miterlimit:10;}
	.st8{clip-path:url(#SVGID_6_);fill:none;stroke:#000000;stroke-linejoin:round;stroke-miterlimit:10;}
	.st9{clip-path:url(#SVGID_8_);fill:none;stroke:#000000;stroke-linejoin:round;stroke-miterlimit:10;}
	.st10{clip-path:url(#SVGID_10_);fill:none;stroke:#000000;stroke-linejoin:round;stroke-miterlimit:10;}
	.st11{clip-path:url(#SVGID_12_);fill:none;stroke:#000000;stroke-linejoin:round;stroke-miterlimit:10;}
	.st12{clip-path:url(#SVGID_14_);fill:none;stroke:#000000;stroke-linejoin:round;stroke-miterlimit:10;}
	.st13{clip-path:url(#SVGID_16_);fill:none;stroke:#000000;stroke-linejoin:round;stroke-miterlimit:10;}
	.st14{clip-path:url(#SVGID_18_);fill:none;stroke:#000000;stroke-linejoin:round;stroke-miterlimit:10;}
	.st15{clip-path:url(#SVGID_20_);fill:none;stroke:#000000;stroke-linejoin:round;stroke-miterlimit:10;}
	.st16{clip-path:url(#SVGID_22_);fill:none;stroke:#000000;stroke-linejoin:round;stroke-miterlimit:10;}
	.st17{clip-path:url(#SVGID_24_);fill:none;stroke:#000000;stroke-linejoin:round;stroke-miterlimit:10;}
	.st18{clip-path:url(#SVGID_26_);fill:none;stroke:#000000;stroke-linejoin:round;stroke-miterlimit:10;}
	.st19{clip-path:url(#SVGID_28_);fill:none;stroke:#000000;stroke-linejoin:round;stroke-miterlimit:10;}
	.st20{clip-path:url(#SVGID_30_);fill:none;stroke:#000000;stroke-linejoin:round;stroke-miterlimit:10;}
	.st21{clip-path:url(#SVGID_32_);fill:none;stroke:#000000;stroke-linejoin:round;stroke-miterlimit:10;}
	.st22{clip-path:url(#SVGID_34_);fill:none;stroke:#000000;stroke-linejoin:round;stroke-miterlimit:10;}
	.st23{clip-path:url(#SVGID_36_);fill:none;stroke:#000000;stroke-linejoin:round;stroke-miterlimit:10;}
	.st24{clip-path:url(#SVGID_38_);fill:none;stroke:#000000;stroke-linejoin:round;stroke-miterlimit:10;}
	.st25{clip-path:url(#SVGID_40_);fill:none;stroke:#000000;stroke-linejoin:round;stroke-miterlimit:10;}
	.st26{clip-path:url(#SVGID_42_);fill:none;stroke:#000000;stroke-linejoin:round;stroke-miterlimit:10;}
	.st27{clip-path:url(#SVGID_44_);fill:none;stroke:#000000;stroke-linejoin:round;stroke-miterlimit:10;}
	.st28{clip-path:url(#SVGID_46_);fill:none;stroke:#000000;stroke-linejoin:round;stroke-miterlimit:10;}
	.st29{clip-path:url(#SVGID_48_);fill:none;stroke:#000000;stroke-linejoin:round;stroke-miterlimit:10;}
	.st30{clip-path:url(#SVGID_50_);fill:none;stroke:#000000;stroke-linejoin:round;stroke-miterlimit:10;}
	.st31{clip-path:url(#SVGID_52_);fill:none;stroke:#000000;stroke-linejoin:round;stroke-miterlimit:10;}
	.st32{clip-path:url(#SVGID_54_);fill:none;stroke:#000000;stroke-linejoin:round;stroke-miterlimit:10;}
	.st33{clip-path:url(#SVGID_56_);fill:none;stroke:#000000;stroke-linejoin:round;stroke-miterlimit:10;}
	.st34{clip-path:url(#SVGID_58_);fill:none;stroke:#000000;stroke-linecap:round;stroke-linejoin:round;stroke-miterlimit:10;}
	.st35{clip-path:url(#SVGID_60_);}
	.st36{fill:none;stroke:#000000;stroke-width:2;stroke-linejoin:round;stroke-miterlimit:10;}
	.st37{clip-path:url(#SVGID_62_);}
	.st38{clip-path:url(#SVGID_64_);}
	.st39{clip-path:url(#SVGID_66_);}
	.st40{clip-path:url(#SVGID_68_);}
	.st41{clip-path:url(#SVGID_70_);fill:none;stroke:#000000;stroke-linejoin:round;stroke-miterlimit:10;stroke-dasharray:6,6;}
	.st42{clip-path:url(#SVGID_72_);}
	.st43{clip-path:url(#SVGID_74_);}
	.st44{clip-path:url(#SVGID_76_);}
	.st45{clip-path:url(#SVGID_78_);}
	.st46{clip-path:url(#SVGID_80_);}
	.st47{fill:none;stroke:#000000;stroke-width:2;stroke-miterlimit:10;}
	.st48{clip-path:url(#SVGID_82_);fill:none;stroke:#000000;stroke-linejoin:round;stroke-miterlimit:10;stroke-dasharray:3,5,1,5;}
	.st49{clip-path:url(#SVGID_84_);}
	.st50{clip-path:url(#SVGID_86_);}
	.st51{clip-path:url(#SVGID_88_);}
	.st52{clip-path:url(#SVGID_90_);}
	.st53{clip-path:url(#SVGID_92_);}
	.st54{clip-path:url(#SVGID_94_);fill:none;stroke:#000000;stroke-linejoin:round;stroke-miterlimit:10;stroke-dasharray:1,3;}
	.st55{clip-path:url(#SVGID_96_);}
	.st56{clip-path:url(#SVGID_98_);}
	.st57{clip-path:url(#SVGID_100_);}
	.st58{clip-path:url(#SVGID_102_);}
	.st59{clip-path:url(#SVGID_104_);}
	.st60{fill:none;stroke:#262626;stroke-width:1.25;stroke-linecap:square;stroke-miterlimit:10;}
</style>
<g id="figure_1">
	<g id="patch_1">
		<path class="st0" d="M0,900.9h1152V0H0V900.9z"/>
	</g>
	<g id="axes_1">
		<g id="patch_2">
			<path class="st0" d="M144,810.8h892.8V90.1H144V810.8z"/>
		</g>
		<g id="matplotlib.axis_1">
			<g id="xtick_1">
				<g id="line2d_1">
					<g>
						<g>
							<path id="ma3e1afdb71" class="st1" d="M144,810.8v6"/>
						</g>
					</g>
				</g>
				<g id="text_1">
					<text transform="matrix(1 0 0 1 123.207 842.4625)" class="st2 st3 st4">−0.5</text>
				</g>
			</g>
			<g id="xtick_2">
				<g id="line2d_2">
					<g>
						<g>
							<path id="ma3e1afdb71_1_" class="st1" d="M271.5,810.8v6"/>
						</g>
					</g>
				</g>
				<g id="text_2">
					<text transform="matrix(1 0 0 1 255.4218 842.4625)" class="st2 st3 st4">0.0</text>
				</g>
			</g>
			<g id="xtick_3">
				<g id="line2d_3">
					<g>
						<g>
							<path id="ma3e1afdb71_2_" class="st1" d="M399.1,810.8v6"/>
						</g>
					</g>
				</g>
				<g id="text_3">
					<text transform="matrix(1 0 0 1 382.9646 842.4625)" class="st2 st3 st4">0.5</text>
				</g>
			</g>
			<g id="xtick_4">
				<g id="line2d_4">
					<g>
						<g>
							<path id="ma3e1afdb71_3_" class="st1" d="M526.6,810.8v6"/>
						</g>
					</g>
				</g>
				<g id="text_4">
					<text transform="matrix(1 0 0 1 510.5075 842.4625)" class="st2 st3 st4">1.0</text>
				</g>
			</g>
			<g id="xtick_5">
				<g id="line2d_5">
					<g>
						<g>
							<path id="ma3e1afdb71_4_" class="st1" d="M654.2,810.8v6"/>
						</g>
					</g>
				</g>
				<g id="text_5">
					<text transform="matrix(1 0 0 1 638.0504 842.4625)" class="st2 st3 st4">1.5</text>
				</g>
			</g>
			<g id="xtick_6">
				<g id="line2d_6">
					<g>
						<g>
							<path id="ma3e1afdb71_5_" class="st1" d="M781.7,810.8v6"/>
						</g>
					</g>
				</g>
				<g id="text_6">
					<text transform="matrix(1 0 0 1 765.5932 842.4625)" class="st2 st3 st4">2.0</text>
				</g>
			</g>
			<g id="xtick_7">
				<g id="line2d_7">
					<g>
						<g>
							<path id="ma3e1afdb71_6_" class="st1" d="M909.3,810.8v6"/>
						</g>
					</g>
				</g>
				<g id="text_7">
					<text transform="matrix(1 0 0 1 893.136 842.4625)" class="st2 st3 st4">2.5</text>
				</g>
			</g>
			<g id="xtick_8">
				<g id="line2d_8">
					<g>
						<g>
							<path id="ma3e1afdb71_7_" class="st1" d="M1036.8,810.8v6"/>
						</g>
					</g>
				</g>
				<g id="text_8">
					<text transform="matrix(1 0 0 1 1020.679 842.4625)" class="st2 st3 st4">3.0</text>
				</g>
			</g>
			<g id="text_9">
				<text transform="matrix(1 0 0 1 486.411 880.1081)" class="st2 st3 st5">C</text>
				<text transform="matrix(0.583 0 0 0.583 512.4091 889.0964)" class="st2 st3 st5">w</text>
				<text transform="matrix(1 0 0 1 527.5658 880.1081)" class="st2 st3 st5"> (Bq/mL)</text>
			</g>
		</g>
		<g id="matplotlib.axis_2">
			<g id="ytick_1">
				<g id="line2d_9">
					<g>
						<g>
							<path id="mbf696cb86d" class="st1" d="M144,803.7h-6"/>
						</g>
					</g>
				</g>
				<g id="text_10">
					<text transform="matrix(1 0 0 1 117.6984 810.8104)" class="st2 st3 st4">0</text>
				</g>
			</g>
			<g id="ytick_2">
				<g id="line2d_10">
					<g>
						<g>
							<path id="mbf696cb86d_1_" class="st1" d="M144,661h-6"/>
						</g>
					</g>
				</g>
				<g id="text_11">
					<text transform="matrix(1 0 0 1 77.6555 668.0936)" class="st2 st3 st4">2000</text>
				</g>
			</g>
			<g id="ytick_3">
				<g id="line2d_11">
					<g>
						<g>
							<path id="mbf696cb86d_2_" class="st1" d="M144,518.2h-6"/>
						</g>
					</g>
				</g>
				<g id="text_12">
					<text transform="matrix(1 0 0 1 77.6555 525.3768)" class="st2 st3 st4">4000</text>
				</g>
			</g>
			<g id="ytick_4">
				<g id="line2d_12">
					<g>
						<g>
							<path id="mbf696cb86d_3_" class="st1" d="M144,375.5h-6"/>
						</g>
					</g>
				</g>
				<g id="text_13">
					<text transform="matrix(1 0 0 1 77.6555 382.6599)" class="st2 st3 st4">6000</text>
				</g>
			</g>
			<g id="ytick_5">
				<g id="line2d_13">
					<g>
						<g>
							<path id="mbf696cb86d_4_" class="st1" d="M144,232.8h-6"/>
						</g>
					</g>
				</g>
				<g id="text_14">
					<text transform="matrix(1 0 0 1 77.6555 239.9431)" class="st2 st3 st4">8000</text>
				</g>
			</g>
			<g id="ytick_6">
				<g id="line2d_14">
					<g>
						<g>
							<path id="mbf696cb86d_5_" class="st1" d="M144,90.1h-6"/>
						</g>
					</g>
				</g>
				<g id="text_15">
					<text transform="matrix(1 0 0 1 64.3078 97.2263)" class="st2 st3 st4">10000</text>
				</g>
			</g>
			<g id="text_16">
				<text transform="matrix(6.123234e-017 -1 1 6.123234e-017 55.1078 522.2637)" class="st2 st3 st5">C</text>
				<text transform="matrix(3.569846e-017 -0.583 0.583 3.569846e-017 64.0961 496.2656)" class="st2 st3 st5">s</text>
				<text transform="matrix(6.123234e-017 -1 1 6.123234e-017 55.1078 485.7715)" class="st2 st3 st5"> (Bq/g)</text>
			</g>
		</g>
		<g id="LineCollection_1">
			<g>
				<defs>
					<rect id="SVGID_1_" x="144" y="90.1" width="892.8" height="720.7"/>
				</defs>
				<clipPath id="SVGID_2_">
					<use xlink:href="#SVGID_1_"  style="overflow:visible;"/>
				</clipPath>
				<path class="st6" d="M295.3,763.3h4"/>
			</g>
			<g>
				<defs>
					<rect id="SVGID_3_" x="144" y="90.1" width="892.8" height="720.7"/>
				</defs>
				<clipPath id="SVGID_4_">
					<use xlink:href="#SVGID_3_"  style="overflow:visible;"/>
				</clipPath>
				<path class="st7" d="M317.9,720.2h4.9"/>
			</g>
			<g>
				<defs>
					<rect id="SVGID_5_" x="144" y="90.1" width="892.8" height="720.7"/>
				</defs>
				<clipPath id="SVGID_6_">
					<use xlink:href="#SVGID_5_"  style="overflow:visible;"/>
				</clipPath>
				<path class="st8" d="M379,589.5h12.3"/>
			</g>
			<g>
				<defs>
					<rect id="SVGID_7_" x="144" y="90.1" width="892.8" height="720.7"/>
				</defs>
				<clipPath id="SVGID_8_">
					<use xlink:href="#SVGID_7_"  style="overflow:visible;"/>
				</clipPath>
				<path class="st9" d="M491.1,376.3h23.8"/>
			</g>
		</g>
		<g id="LineCollection_2">
			<g>
				<defs>
					<rect id="SVGID_9_" x="144" y="90.1" width="892.8" height="720.7"/>
				</defs>
				<clipPath id="SVGID_10_">
					<use xlink:href="#SVGID_9_"  style="overflow:visible;"/>
				</clipPath>
				<path class="st10" d="M297.3,765.2v-3.6"/>
			</g>
			<g>
				<defs>
					<rect id="SVGID_11_" x="144" y="90.1" width="892.8" height="720.7"/>
				</defs>
				<clipPath id="SVGID_12_">
					<use xlink:href="#SVGID_11_"  style="overflow:visible;"/>
				</clipPath>
				<path class="st11" d="M320.4,723.1v-5.7"/>
			</g>
			<g>
				<defs>
					<rect id="SVGID_13_" x="144" y="90.1" width="892.8" height="720.7"/>
				</defs>
				<clipPath id="SVGID_14_">
					<use xlink:href="#SVGID_13_"  style="overflow:visible;"/>
				</clipPath>
				<path class="st12" d="M385.2,590.4v-1.9"/>
			</g>
			<g>
				<defs>
					<rect id="SVGID_15_" x="144" y="90.1" width="892.8" height="720.7"/>
				</defs>
				<clipPath id="SVGID_16_">
					<use xlink:href="#SVGID_15_"  style="overflow:visible;"/>
				</clipPath>
				<path class="st13" d="M503,383.7v-14.9"/>
			</g>
		</g>
		<g id="LineCollection_3">
			<g>
				<defs>
					<rect id="SVGID_17_" x="144" y="90.1" width="892.8" height="720.7"/>
				</defs>
				<clipPath id="SVGID_18_">
					<use xlink:href="#SVGID_17_"  style="overflow:visible;"/>
				</clipPath>
				<path class="st14" d="M285.4,752.7h1.2"/>
			</g>
			<g>
				<defs>
					<rect id="SVGID_19_" x="144" y="90.1" width="892.8" height="720.7"/>
				</defs>
				<clipPath id="SVGID_20_">
					<use xlink:href="#SVGID_19_"  style="overflow:visible;"/>
				</clipPath>
				<path class="st15" d="M295.5,698.3h3.1"/>
			</g>
			<g>
				<defs>
					<rect id="SVGID_21_" x="144" y="90.1" width="892.8" height="720.7"/>
				</defs>
				<clipPath id="SVGID_22_">
					<use xlink:href="#SVGID_21_"  style="overflow:visible;"/>
				</clipPath>
				<path class="st16" d="M325.1,534.7h2"/>
			</g>
			<g>
				<defs>
					<rect id="SVGID_23_" x="144" y="90.1" width="892.8" height="720.7"/>
				</defs>
				<clipPath id="SVGID_24_">
					<use xlink:href="#SVGID_23_"  style="overflow:visible;"/>
				</clipPath>
				<path class="st17" d="M379.8,265.6h9"/>
			</g>
		</g>
		<g id="LineCollection_4">
			<g>
				<defs>
					<rect id="SVGID_25_" x="144" y="90.1" width="892.8" height="720.7"/>
				</defs>
				<clipPath id="SVGID_26_">
					<use xlink:href="#SVGID_25_"  style="overflow:visible;"/>
				</clipPath>
				<path class="st18" d="M286,753.1v-0.7"/>
			</g>
			<g>
				<defs>
					<rect id="SVGID_27_" x="144" y="90.1" width="892.8" height="720.7"/>
				</defs>
				<clipPath id="SVGID_28_">
					<use xlink:href="#SVGID_27_"  style="overflow:visible;"/>
				</clipPath>
				<path class="st19" d="M297,699.1v-1.6"/>
			</g>
			<g>
				<defs>
					<rect id="SVGID_29_" x="144" y="90.1" width="892.8" height="720.7"/>
				</defs>
				<clipPath id="SVGID_30_">
					<use xlink:href="#SVGID_29_"  style="overflow:visible;"/>
				</clipPath>
				<path class="st20" d="M326.2,543.4V526"/>
			</g>
			<g>
				<defs>
					<rect id="SVGID_31_" x="144" y="90.1" width="892.8" height="720.7"/>
				</defs>
				<clipPath id="SVGID_32_">
					<use xlink:href="#SVGID_31_"  style="overflow:visible;"/>
				</clipPath>
				<path class="st21" d="M384.3,273.9v-16.6"/>
			</g>
		</g>
		<g id="LineCollection_5">
			<g>
				<defs>
					<rect id="SVGID_33_" x="144" y="90.1" width="892.8" height="720.7"/>
				</defs>
				<clipPath id="SVGID_34_">
					<use xlink:href="#SVGID_33_"  style="overflow:visible;"/>
				</clipPath>
				<path class="st22" d="M290.8,695.2h2.9"/>
			</g>
			<g>
				<defs>
					<rect id="SVGID_35_" x="144" y="90.1" width="892.8" height="720.7"/>
				</defs>
				<clipPath id="SVGID_36_">
					<use xlink:href="#SVGID_35_"  style="overflow:visible;"/>
				</clipPath>
				<path class="st23" d="M319.8,528.1h1.9"/>
			</g>
			<g>
				<defs>
					<rect id="SVGID_37_" x="144" y="90.1" width="892.8" height="720.7"/>
				</defs>
				<clipPath id="SVGID_38_">
					<use xlink:href="#SVGID_37_"  style="overflow:visible;"/>
				</clipPath>
				<path class="st24" d="M354.4,251.8h23.6"/>
			</g>
		</g>
		<g id="LineCollection_6">
			<g>
				<defs>
					<rect id="SVGID_39_" x="144" y="90.1" width="892.8" height="720.7"/>
				</defs>
				<clipPath id="SVGID_40_">
					<use xlink:href="#SVGID_39_"  style="overflow:visible;"/>
				</clipPath>
				<path class="st25" d="M292.3,696.4V694"/>
			</g>
			<g>
				<defs>
					<rect id="SVGID_41_" x="144" y="90.1" width="892.8" height="720.7"/>
				</defs>
				<clipPath id="SVGID_42_">
					<use xlink:href="#SVGID_41_"  style="overflow:visible;"/>
				</clipPath>
				<path class="st26" d="M320.7,537v-17.6"/>
			</g>
			<g>
				<defs>
					<rect id="SVGID_43_" x="144" y="90.1" width="892.8" height="720.7"/>
				</defs>
				<clipPath id="SVGID_44_">
					<use xlink:href="#SVGID_43_"  style="overflow:visible;"/>
				</clipPath>
				<path class="st27" d="M366.2,263.9v-24.1"/>
			</g>
		</g>
		<g id="LineCollection_7">
			<g>
				<defs>
					<rect id="SVGID_45_" x="144" y="90.1" width="892.8" height="720.7"/>
				</defs>
				<clipPath id="SVGID_46_">
					<use xlink:href="#SVGID_45_"  style="overflow:visible;"/>
				</clipPath>
				<path class="st28" d="M290.3,694.8h0.9"/>
			</g>
			<g>
				<defs>
					<rect id="SVGID_47_" x="144" y="90.1" width="892.8" height="720.7"/>
				</defs>
				<clipPath id="SVGID_48_">
					<use xlink:href="#SVGID_47_"  style="overflow:visible;"/>
				</clipPath>
				<path class="st29" d="M305.8,513.8h6.6"/>
			</g>
			<g>
				<defs>
					<rect id="SVGID_49_" x="144" y="90.1" width="892.8" height="720.7"/>
				</defs>
				<clipPath id="SVGID_50_">
					<use xlink:href="#SVGID_49_"  style="overflow:visible;"/>
				</clipPath>
				<path class="st30" d="M355.2,237.5h8.5"/>
			</g>
		</g>
		<g id="LineCollection_8">
			<g>
				<defs>
					<rect id="SVGID_51_" x="144" y="90.1" width="892.8" height="720.7"/>
				</defs>
				<clipPath id="SVGID_52_">
					<use xlink:href="#SVGID_51_"  style="overflow:visible;"/>
				</clipPath>
				<path class="st31" d="M290.7,695.9v-2.2"/>
			</g>
			<g>
				<defs>
					<rect id="SVGID_53_" x="144" y="90.1" width="892.8" height="720.7"/>
				</defs>
				<clipPath id="SVGID_54_">
					<use xlink:href="#SVGID_53_"  style="overflow:visible;"/>
				</clipPath>
				<path class="st32" d="M309.1,521.9v-16.2"/>
			</g>
			<g>
				<defs>
					<rect id="SVGID_55_" x="144" y="90.1" width="892.8" height="720.7"/>
				</defs>
				<clipPath id="SVGID_56_">
					<use xlink:href="#SVGID_55_"  style="overflow:visible;"/>
				</clipPath>
				<path class="st33" d="M359.4,243.6v-12.2"/>
			</g>
		</g>
		<g id="line2d_15">
			<g>
				<defs>
					<rect id="SVGID_57_" x="144" y="90.1" width="892.8" height="720.7"/>
				</defs>
				<clipPath id="SVGID_58_">
					<use xlink:href="#SVGID_57_"  style="overflow:visible;"/>
				</clipPath>
				<path class="st34" d="M297.3,761.6l23-43.4l64.9-122.3l117.8-222"/>
			</g>
		</g>
		<g id="line2d_16">
			<g>
				<defs>
					<rect id="SVGID_59_" x="144" y="90.1" width="892.8" height="720.7"/>
				</defs>
				<clipPath id="SVGID_60_">
					<use xlink:href="#SVGID_59_"  style="overflow:visible;"/>
				</clipPath>
				<g class="st35">
					<g>
						<path id="m83a3074129" class="st36" d="M295.3,768.3v-10"/>
					</g>
					<g>
						<path id="m83a3074129_1_" class="st36" d="M317.9,725.2v-10"/>
					</g>
					<g>
						<path id="m83a3074129_2_" class="st36" d="M379,594.5v-10"/>
					</g>
					<g>
						<path id="m83a3074129_3_" class="st36" d="M491.1,381.3v-10"/>
					</g>
				</g>
			</g>
		</g>
		<g id="line2d_17">
			<g>
				<defs>
					<rect id="SVGID_61_" x="144" y="90.1" width="892.8" height="720.7"/>
				</defs>
				<clipPath id="SVGID_62_">
					<use xlink:href="#SVGID_61_"  style="overflow:visible;"/>
				</clipPath>
				<g class="st37">
					<g>
						<path id="m83a3074129_4_" class="st36" d="M299.3,768.3v-10"/>
					</g>
					<g>
						<path id="m83a3074129_5_" class="st36" d="M322.8,725.2v-10"/>
					</g>
					<g>
						<path id="m83a3074129_6_" class="st36" d="M391.4,594.5v-10"/>
					</g>
					<g>
						<path id="m83a3074129_7_" class="st36" d="M514.8,381.3v-10"/>
					</g>
				</g>
			</g>
		</g>
		<g id="line2d_18">
			<g>
				<defs>
					<rect id="SVGID_63_" x="144" y="90.1" width="892.8" height="720.7"/>
				</defs>
				<clipPath id="SVGID_64_">
					<use xlink:href="#SVGID_63_"  style="overflow:visible;"/>
				</clipPath>
				<g class="st38">
					<g>
						<path id="ma84407057a" class="st36" d="M302.3,765.2h-10"/>
					</g>
					<g>
						<path id="ma84407057a_1_" class="st36" d="M325.4,723.1h-10"/>
					</g>
					<g>
						<path id="ma84407057a_2_" class="st36" d="M390.2,590.4h-10"/>
					</g>
					<g>
						<path id="ma84407057a_3_" class="st36" d="M508,383.7h-10"/>
					</g>
				</g>
			</g>
		</g>
		<g id="line2d_19">
			<g>
				<defs>
					<rect id="SVGID_65_" x="144" y="90.1" width="892.8" height="720.7"/>
				</defs>
				<clipPath id="SVGID_66_">
					<use xlink:href="#SVGID_65_"  style="overflow:visible;"/>
				</clipPath>
				<g class="st39">
					<g>
						<path id="ma84407057a_4_" class="st36" d="M302.3,761.5h-10"/>
					</g>
					<g>
						<path id="ma84407057a_5_" class="st36" d="M325.4,717.4h-10"/>
					</g>
					<g>
						<path id="ma84407057a_6_" class="st36" d="M390.2,588.5h-10"/>
					</g>
					<g>
						<path id="ma84407057a_7_" class="st36" d="M508,368.8h-10"/>
					</g>
				</g>
			</g>
		</g>
		<g id="line2d_20">
			<g>
				<defs>
					<rect id="SVGID_67_" x="144" y="90.1" width="892.8" height="720.7"/>
				</defs>
				<clipPath id="SVGID_68_">
					<use xlink:href="#SVGID_67_"  style="overflow:visible;"/>
				</clipPath>
				<g class="st40">
					<g>
						<path id="md41c4d65b5" class="st36" d="M297.3,773.3c2.7,0,5.2-1.1,7.1-2.9c1.9-1.9,2.9-4.4,2.9-7.1s-1.1-5.2-2.9-7.1
							c-1.9-1.9-4.4-2.9-7.1-2.9s-5.2,1.1-7.1,2.9c-1.9,1.9-2.9,4.4-2.9,7.1s1.1,5.2,2.9,7.1C292.1,772.3,294.7,773.3,297.3,773.3z"
							/>
					</g>
					<g>
						<path id="md41c4d65b5_1_" class="st36" d="M320.4,730.2c2.7,0,5.2-1.1,7.1-2.9c1.9-1.9,2.9-4.4,2.9-7.1s-1.1-5.2-2.9-7.1
							c-1.9-1.9-4.4-2.9-7.1-2.9s-5.2,1.1-7.1,2.9c-1.9,1.9-2.9,4.4-2.9,7.1s1.1,5.2,2.9,7.1C315.2,729.2,317.7,730.2,320.4,730.2z"
							/>
					</g>
					<g>
						<path id="md41c4d65b5_2_" class="st36" d="M385.2,599.5c2.7,0,5.2-1.1,7.1-2.9c1.9-1.9,2.9-4.4,2.9-7.1s-1.1-5.2-2.9-7.1
							c-1.9-1.9-4.4-2.9-7.1-2.9s-5.2,1.1-7.1,2.9c-1.9,1.9-2.9,4.4-2.9,7.1s1.1,5.2,2.9,7.1C380,598.4,382.6,599.5,385.2,599.5z"/>
					</g>
					<g>
						<path id="md41c4d65b5_3_" class="st36" d="M503,386.3c2.7,0,5.2-1.1,7.1-2.9s2.9-4.4,2.9-7.1s-1.1-5.2-2.9-7.1
							s-4.4-2.9-7.1-2.9s-5.2,1.1-7.1,2.9s-2.9,4.4-2.9,7.1s1.1,5.2,2.9,7.1S500.3,386.3,503,386.3z"/>
					</g>
				</g>
			</g>
		</g>
		<g id="line2d_21">
			<g>
				<defs>
					<rect id="SVGID_69_" x="144" y="90.1" width="892.8" height="720.7"/>
				</defs>
				<clipPath id="SVGID_70_">
					<use xlink:href="#SVGID_69_"  style="overflow:visible;"/>
				</clipPath>
				<path class="st41" d="M286,748.5l11.1-54.9l29.1-144.7l58.1-288.6"/>
			</g>
		</g>
		<g id="line2d_22">
			<g>
				<defs>
					<rect id="SVGID_71_" x="144" y="90.1" width="892.8" height="720.7"/>
				</defs>
				<clipPath id="SVGID_72_">
					<use xlink:href="#SVGID_71_"  style="overflow:visible;"/>
				</clipPath>
				<g class="st42">
					<g>
						<path id="m83a3074129_8_" class="st36" d="M285.4,757.7v-10"/>
					</g>
					<g>
						<path id="m83a3074129_9_" class="st36" d="M295.5,703.3v-10"/>
					</g>
					<g>
						<path id="m83a3074129_10_" class="st36" d="M325.1,539.7v-10"/>
					</g>
					<g>
						<path id="m83a3074129_11_" class="st36" d="M379.8,270.6v-10"/>
					</g>
				</g>
			</g>
		</g>
		<g id="line2d_23">
			<g>
				<defs>
					<rect id="SVGID_73_" x="144" y="90.1" width="892.8" height="720.7"/>
				</defs>
				<clipPath id="SVGID_74_">
					<use xlink:href="#SVGID_73_"  style="overflow:visible;"/>
				</clipPath>
				<g class="st43">
					<g>
						<path id="m83a3074129_12_" class="st36" d="M286.6,757.7v-10"/>
					</g>
					<g>
						<path id="m83a3074129_13_" class="st36" d="M298.6,703.3v-10"/>
					</g>
					<g>
						<path id="m83a3074129_14_" class="st36" d="M327.2,539.7v-10"/>
					</g>
					<g>
						<path id="m83a3074129_15_" class="st36" d="M388.8,270.6v-10"/>
					</g>
				</g>
			</g>
		</g>
		<g id="line2d_24">
			<g>
				<defs>
					<rect id="SVGID_75_" x="144" y="90.1" width="892.8" height="720.7"/>
				</defs>
				<clipPath id="SVGID_76_">
					<use xlink:href="#SVGID_75_"  style="overflow:visible;"/>
				</clipPath>
				<g class="st44">
					<g>
						<path id="ma84407057a_8_" class="st36" d="M291,753.1h-10"/>
					</g>
					<g>
						<path id="ma84407057a_9_" class="st36" d="M302,699.1h-10"/>
					</g>
					<g>
						<path id="ma84407057a_10_" class="st36" d="M331.2,543.4h-10"/>
					</g>
					<g>
						<path id="ma84407057a_11_" class="st36" d="M389.3,273.9h-10"/>
					</g>
				</g>
			</g>
		</g>
		<g id="line2d_25">
			<g>
				<defs>
					<rect id="SVGID_77_" x="144" y="90.1" width="892.8" height="720.7"/>
				</defs>
				<clipPath id="SVGID_78_">
					<use xlink:href="#SVGID_77_"  style="overflow:visible;"/>
				</clipPath>
				<g class="st45">
					<g>
						<path id="ma84407057a_12_" class="st36" d="M291,752.4h-10"/>
					</g>
					<g>
						<path id="ma84407057a_13_" class="st36" d="M302,697.5h-10"/>
					</g>
					<g>
						<path id="ma84407057a_14_" class="st36" d="M331.2,526h-10"/>
					</g>
					<g>
						<path id="ma84407057a_15_" class="st36" d="M389.3,257.3h-10"/>
					</g>
				</g>
			</g>
		</g>
		<g id="line2d_26">
			<g>
				<defs>
					<rect id="SVGID_79_" x="144" y="90.1" width="892.8" height="720.7"/>
				</defs>
				<clipPath id="SVGID_80_">
					<use xlink:href="#SVGID_79_"  style="overflow:visible;"/>
				</clipPath>
				<g class="st46">
					<g>
						<path id="m83c825f8f9" class="st47" d="M286,742.7l-10,20h20L286,742.7z"/>
					</g>
					<g>
						<path id="m83c825f8f9_1_" class="st47" d="M297,688.3l-10,20h20L297,688.3z"/>
					</g>
					<g>
						<path id="m83c825f8f9_2_" class="st47" d="M326.2,524.7l-10,20h20L326.2,524.7z"/>
					</g>
					<g>
						<path id="m83c825f8f9_3_" class="st47" d="M384.3,255.6l-10,20h20L384.3,255.6z"/>
					</g>
				</g>
			</g>
		</g>
		<g id="line2d_27">
			<g>
				<defs>
					<rect id="SVGID_81_" x="144" y="90.1" width="892.8" height="720.7"/>
				</defs>
				<clipPath id="SVGID_82_">
					<use xlink:href="#SVGID_81_"  style="overflow:visible;"/>
				</clipPath>
				<path class="st48" d="M292.3,696.7l28.5-171l45.4-272.9"/>
			</g>
		</g>
		<g id="line2d_28">
			<g>
				<defs>
					<rect id="SVGID_83_" x="144" y="90.1" width="892.8" height="720.7"/>
				</defs>
				<clipPath id="SVGID_84_">
					<use xlink:href="#SVGID_83_"  style="overflow:visible;"/>
				</clipPath>
				<g class="st49">
					<g>
						<path id="m83a3074129_16_" class="st36" d="M290.8,700.2v-10"/>
					</g>
					<g>
						<path id="m83a3074129_17_" class="st36" d="M319.8,533.1v-10"/>
					</g>
					<g>
						<path id="m83a3074129_18_" class="st36" d="M354.4,256.8v-10"/>
					</g>
				</g>
			</g>
		</g>
		<g id="line2d_29">
			<g>
				<defs>
					<rect id="SVGID_85_" x="144" y="90.1" width="892.8" height="720.7"/>
				</defs>
				<clipPath id="SVGID_86_">
					<use xlink:href="#SVGID_85_"  style="overflow:visible;"/>
				</clipPath>
				<g class="st50">
					<g>
						<path id="m83a3074129_19_" class="st36" d="M293.7,700.2v-10"/>
					</g>
					<g>
						<path id="m83a3074129_20_" class="st36" d="M321.7,533.1v-10"/>
					</g>
					<g>
						<path id="m83a3074129_21_" class="st36" d="M377.9,256.8v-10"/>
					</g>
				</g>
			</g>
		</g>
		<g id="line2d_30">
			<g>
				<defs>
					<rect id="SVGID_87_" x="144" y="90.1" width="892.8" height="720.7"/>
				</defs>
				<clipPath id="SVGID_88_">
					<use xlink:href="#SVGID_87_"  style="overflow:visible;"/>
				</clipPath>
				<g class="st51">
					<g>
						<path id="ma84407057a_16_" class="st36" d="M297.3,696.4h-10"/>
					</g>
					<g>
						<path id="ma84407057a_17_" class="st36" d="M325.7,537h-10"/>
					</g>
					<g>
						<path id="ma84407057a_18_" class="st36" d="M371.2,263.9h-10"/>
					</g>
				</g>
			</g>
		</g>
		<g id="line2d_31">
			<g>
				<defs>
					<rect id="SVGID_89_" x="144" y="90.1" width="892.8" height="720.7"/>
				</defs>
				<clipPath id="SVGID_90_">
					<use xlink:href="#SVGID_89_"  style="overflow:visible;"/>
				</clipPath>
				<g class="st52">
					<g>
						<path id="ma84407057a_19_" class="st36" d="M297.3,694h-10"/>
					</g>
					<g>
						<path id="ma84407057a_20_" class="st36" d="M325.7,519.3h-10"/>
					</g>
					<g>
						<path id="ma84407057a_21_" class="st36" d="M371.2,239.8h-10"/>
					</g>
				</g>
			</g>
		</g>
		<g id="line2d_32">
			<g>
				<defs>
					<rect id="SVGID_91_" x="144" y="90.1" width="892.8" height="720.7"/>
				</defs>
				<clipPath id="SVGID_92_">
					<use xlink:href="#SVGID_91_"  style="overflow:visible;"/>
				</clipPath>
				<g class="st53">
					<g>
						<path id="ma0b065bd9b" class="st47" d="M282.3,705.2h20v-20h-20V705.2z"/>
					</g>
					<g>
						<path id="ma0b065bd9b_1_" class="st47" d="M310.7,538.1h20v-20h-20V538.1z"/>
					</g>
					<g>
						<path id="ma0b065bd9b_2_" class="st47" d="M356.2,261.8h20v-20h-20V261.8z"/>
					</g>
				</g>
			</g>
		</g>
		<g id="line2d_33">
			<g>
				<defs>
					<rect id="SVGID_93_" x="144" y="90.1" width="892.8" height="720.7"/>
				</defs>
				<clipPath id="SVGID_94_">
					<use xlink:href="#SVGID_93_"  style="overflow:visible;"/>
				</clipPath>
				<path class="st54" d="M290.7,668.2l18.4-117.9l50.3-322.4"/>
			</g>
		</g>
		<g id="line2d_34">
			<g>
				<defs>
					<rect id="SVGID_95_" x="144" y="90.1" width="892.8" height="720.7"/>
				</defs>
				<clipPath id="SVGID_96_">
					<use xlink:href="#SVGID_95_"  style="overflow:visible;"/>
				</clipPath>
				<g class="st55">
					<g>
						<path id="m83a3074129_22_" class="st36" d="M290.3,699.8v-10"/>
					</g>
					<g>
						<path id="m83a3074129_23_" class="st36" d="M305.8,518.8v-10"/>
					</g>
					<g>
						<path id="m83a3074129_24_" class="st36" d="M355.2,242.5v-10"/>
					</g>
				</g>
			</g>
		</g>
		<g id="line2d_35">
			<g>
				<defs>
					<rect id="SVGID_97_" x="144" y="90.1" width="892.8" height="720.7"/>
				</defs>
				<clipPath id="SVGID_98_">
					<use xlink:href="#SVGID_97_"  style="overflow:visible;"/>
				</clipPath>
				<g class="st56">
					<g>
						<path id="m83a3074129_25_" class="st36" d="M291.1,699.8v-10"/>
					</g>
					<g>
						<path id="m83a3074129_26_" class="st36" d="M312.4,518.8v-10"/>
					</g>
					<g>
						<path id="m83a3074129_27_" class="st36" d="M363.7,242.5v-10"/>
					</g>
				</g>
			</g>
		</g>
		<g id="line2d_36">
			<g>
				<defs>
					<rect id="SVGID_99_" x="144" y="90.1" width="892.8" height="720.7"/>
				</defs>
				<clipPath id="SVGID_100_">
					<use xlink:href="#SVGID_99_"  style="overflow:visible;"/>
				</clipPath>
				<g class="st57">
					<g>
						<path id="ma84407057a_22_" class="st36" d="M295.7,695.9h-10"/>
					</g>
					<g>
						<path id="ma84407057a_23_" class="st36" d="M314.1,521.9h-10"/>
					</g>
					<g>
						<path id="ma84407057a_24_" class="st36" d="M364.4,243.6h-10"/>
					</g>
				</g>
			</g>
		</g>
		<g id="line2d_37">
			<g>
				<defs>
					<rect id="SVGID_101_" x="144" y="90.1" width="892.8" height="720.7"/>
				</defs>
				<clipPath id="SVGID_102_">
					<use xlink:href="#SVGID_101_"  style="overflow:visible;"/>
				</clipPath>
				<g class="st58">
					<g>
						<path id="ma84407057a_25_" class="st36" d="M295.7,693.7h-10"/>
					</g>
					<g>
						<path id="ma84407057a_26_" class="st36" d="M314.1,505.7h-10"/>
					</g>
					<g>
						<path id="ma84407057a_27_" class="st36" d="M364.4,231.4h-10"/>
					</g>
				</g>
			</g>
		</g>
		<g id="line2d_38">
			<g>
				<defs>
					<rect id="SVGID_103_" x="144" y="90.1" width="892.8" height="720.7"/>
				</defs>
				<clipPath id="SVGID_104_">
					<use xlink:href="#SVGID_103_"  style="overflow:visible;"/>
				</clipPath>
				<g class="st59">
					<g>
						<path id="m708d572854" class="st47" d="M290.7,684.8l-9.5,6.9l3.6,11.2h11.8l3.6-11.2L290.7,684.8z"/>
					</g>
					<g>
						<path id="m708d572854_1_" class="st47" d="M309.1,503.8l-9.5,6.9l3.6,11.2H315l3.6-11.2L309.1,503.8z"/>
					</g>
					<g>
						<path id="m708d572854_2_" class="st47" d="M359.4,227.5l-9.5,6.9l3.6,11.2h11.8l3.6-11.2L359.4,227.5z"/>
					</g>
				</g>
			</g>
		</g>
		<g id="patch_3">
			<path class="st60" d="M144,810.8h892.8"/>
		</g>
		<g id="patch_4">
			<path class="st60" d="M144,810.8V90.1"/>
		</g>
		<g id="legend_1">
			<g id="line2d_39">
			</g>
			<g id="line2d_40">
				<g>
					<g>
						<path id="md41c4d65b5_4_" class="st36" d="M669.1,143.2c2.7,0,5.2-1.1,7.1-2.9c1.9-1.9,2.9-4.4,2.9-7.1s-1.1-5.2-2.9-7.1
							c-1.9-1.9-4.4-2.9-7.1-2.9s-5.2,1.1-7.1,2.9c-1.9,1.9-2.9,4.4-2.9,7.1s1.1,5.2,2.9,7.1C663.9,142.2,666.4,143.2,669.1,143.2z"
							/>
					</g>
				</g>
			</g>
			<g id="text_17">
				<text transform="matrix(1 0 0 1 697.8564 141.1201)" class="st2 st3 st4">pH: 3 K</text>
				<text transform="matrix(0.583 0 0 0.583 777.8955 146.1122)" class="st2 st3 st4">d</text>
				<text transform="matrix(1 0 0 1 785.6772 141.1201)" class="st2 st3 st4">: 6740.15 R</text>
				<text transform="matrix(0.583 0 0 0.583 909.7671 133.1279)" class="st2 st3 st4">2</text>
				<text transform="matrix(1 0 0 1 917.5488 141.1201)" class="st2 st3 st4">: 1.00</text>
			</g>
			<g id="line2d_41">
			</g>
			<g id="line2d_42">
				<g>
					<g>
						<path id="m83c825f8f9_4_" class="st47" d="M669.1,151.1l-10,20h20L669.1,151.1z"/>
					</g>
				</g>
			</g>
			<g id="text_18">
				<text transform="matrix(1 0 0 1 697.8564 168.9745)" class="st2 st3 st4">pH: 5 K</text>
				<text transform="matrix(0.583 0 0 0.583 777.8955 173.9667)" class="st2 st3 st4">d</text>
				<text transform="matrix(1 0 0 1 785.6772 168.9745)" class="st2 st3 st4">: 17749.39 R</text>
				<text transform="matrix(0.583 0 0 0.583 923.1147 160.9824)" class="st2 st3 st4">2</text>
				<text transform="matrix(1 0 0 1 930.8965 168.9745)" class="st2 st3 st4">: 1.00</text>
			</g>
			<g id="line2d_43">
			</g>
			<g id="line2d_44">
				<g>
					<g>
						<path id="ma0b065bd9b_3_" class="st47" d="M659.1,198.9h20v-20h-20V198.9z"/>
					</g>
				</g>
			</g>
			<g id="text_19">
				<text transform="matrix(1 0 0 1 697.8564 196.8286)" class="st2 st3 st4">pH: 7 K</text>
				<text transform="matrix(0.583 0 0 0.583 777.8955 201.8207)" class="st2 st3 st4">d</text>
				<text transform="matrix(1 0 0 1 785.6772 196.8286)" class="st2 st3 st4">: 21473.27 R</text>
				<text transform="matrix(0.583 0 0 0.583 923.1147 188.8364)" class="st2 st3 st4">2</text>
				<text transform="matrix(1 0 0 1 930.8965 196.8286)" class="st2 st3 st4">: 1.00</text>
			</g>
			<g id="line2d_45">
			</g>
			<g id="line2d_46">
				<g>
					<g>
						<path id="m708d572854_3_" class="st47" d="M669.1,207.7l-9.5,6.9l3.6,11.2h11.8l3.6-11.2L669.1,207.7z"/>
					</g>
				</g>
			</g>
			<g id="text_20">
				<text transform="matrix(1 0 0 1 697.8564 224.6826)" class="st2 st3 st4">pH: 9 K</text>
				<text transform="matrix(0.583 0 0 0.583 777.8955 229.6748)" class="st2 st3 st4">d</text>
				<text transform="matrix(1 0 0 1 785.6772 224.6826)" class="st2 st3 st4">: 22894.86 R</text>
				<text transform="matrix(0.583 0 0 0.583 923.1147 216.6904)" class="st2 st3 st4">2</text>
				<text transform="matrix(1 0 0 1 930.8965 224.6826)" class="st2 st3 st4">: 0.98</text>
			</g>
		</g>
	</g>
</g>
</svg>
