<?xml version="1.0" encoding="utf-8" standalone="no"?>
<!DOCTYPE svg PUBLIC "-//W3C//DTD SVG 1.1//EN"
  "http://www.w3.org/Graphics/SVG/1.1/DTD/svg11.dtd">
<!-- Created with matplotlib (http://matplotlib.org/) -->
<svg height="866pt" version="1.1" viewBox="0 0 1728 866" width="1728pt" xmlns="http://www.w3.org/2000/svg" xmlns:xlink="http://www.w3.org/1999/xlink">
 <defs>
  <style type="text/css">
*{stroke-linecap:butt;stroke-linejoin:round;stroke-miterlimit:100000;}
  </style>
 </defs>
 <g id="figure_1">
  <g id="patch_1">
   <path d="M 0 866.7 
L 1728 866.7 
L 1728 0 
L 0 0 
z
" style="fill:#ffffff;"/>
  </g>
  <g id="axes_1">
   <g id="patch_2">
    <path d="M 216 780.03 
L 1555.2 780.03 
L 1555.2 86.67 
L 216 86.67 
z
" style="fill:#eaeaf2;"/>
   </g>
   <g id="matplotlib.axis_1">
    <g id="xtick_1">
     <g id="line2d_1">
      <path clip-path="url(#p132df3eab9)" d="M 216 780.03 
L 216 86.67 
" style="fill:none;stroke:#ffffff;stroke-linecap:round;"/>
     </g>
     <g id="line2d_2">
      <defs>
       <path d="M 0 0 
L 0 0 
" id="m521c402671" style="stroke:#262626;"/>
      </defs>
      <g>
       <use style="fill:none;stroke:#262626;" x="216.0" xlink:href="#m521c402671" y="780.03"/>
      </g>
     </g>
     <g id="text_1">
      <text style="fill:#262626;font-family:Arial;font-size:10.0px;font-style:normal;font-weight:400;text-anchor:middle;" transform="rotate(-0.000000, 216.000000, 794.187812)" x="216.0" y="794.1878125">2</text>
     </g>
    </g>
    <g id="xtick_2">
     <g id="line2d_3">
      <path clip-path="url(#p132df3eab9)" d="M 383.4 780.03 
L 383.4 86.67 
" style="fill:none;stroke:#ffffff;stroke-linecap:round;"/>
     </g>
     <g id="line2d_4">
      <g>
       <use style="fill:none;stroke:#262626;" x="383.4" xlink:href="#m521c402671" y="780.03"/>
      </g>
     </g>
     <g id="text_2">
      <text style="fill:#262626;font-family:Arial;font-size:10.0px;font-style:normal;font-weight:400;text-anchor:middle;" transform="rotate(-0.000000, 383.400000, 794.187812)" x="383.4" y="794.1878125">3</text>
     </g>
    </g>
    <g id="xtick_3">
     <g id="line2d_5">
      <path clip-path="url(#p132df3eab9)" d="M 550.8 780.03 
L 550.8 86.67 
" style="fill:none;stroke:#ffffff;stroke-linecap:round;"/>
     </g>
     <g id="line2d_6">
      <g>
       <use style="fill:none;stroke:#262626;" x="550.8" xlink:href="#m521c402671" y="780.03"/>
      </g>
     </g>
     <g id="text_3">
      <text style="fill:#262626;font-family:Arial;font-size:10.0px;font-style:normal;font-weight:400;text-anchor:middle;" transform="rotate(-0.000000, 550.800000, 794.187812)" x="550.8" y="794.1878125">4</text>
     </g>
    </g>
    <g id="xtick_4">
     <g id="line2d_7">
      <path clip-path="url(#p132df3eab9)" d="M 718.2 780.03 
L 718.2 86.67 
" style="fill:none;stroke:#ffffff;stroke-linecap:round;"/>
     </g>
     <g id="line2d_8">
      <g>
       <use style="fill:none;stroke:#262626;" x="718.2" xlink:href="#m521c402671" y="780.03"/>
      </g>
     </g>
     <g id="text_4">
      <text style="fill:#262626;font-family:Arial;font-size:10.0px;font-style:normal;font-weight:400;text-anchor:middle;" transform="rotate(-0.000000, 718.200000, 794.187812)" x="718.2" y="794.1878125">5</text>
     </g>
    </g>
    <g id="xtick_5">
     <g id="line2d_9">
      <path clip-path="url(#p132df3eab9)" d="M 885.6 780.03 
L 885.6 86.67 
" style="fill:none;stroke:#ffffff;stroke-linecap:round;"/>
     </g>
     <g id="line2d_10">
      <g>
       <use style="fill:none;stroke:#262626;" x="885.6" xlink:href="#m521c402671" y="780.03"/>
      </g>
     </g>
     <g id="text_5">
      <text style="fill:#262626;font-family:Arial;font-size:10.0px;font-style:normal;font-weight:400;text-anchor:middle;" transform="rotate(-0.000000, 885.600000, 794.187812)" x="885.6" y="794.1878125">6</text>
     </g>
    </g>
    <g id="xtick_6">
     <g id="line2d_11">
      <path clip-path="url(#p132df3eab9)" d="M 1053 780.03 
L 1053 86.67 
" style="fill:none;stroke:#ffffff;stroke-linecap:round;"/>
     </g>
     <g id="line2d_12">
      <g>
       <use style="fill:none;stroke:#262626;" x="1053.0" xlink:href="#m521c402671" y="780.03"/>
      </g>
     </g>
     <g id="text_6">
      <text style="fill:#262626;font-family:Arial;font-size:10.0px;font-style:normal;font-weight:400;text-anchor:middle;" transform="rotate(-0.000000, 1053.000000, 794.187812)" x="1053.0" y="794.1878125">7</text>
     </g>
    </g>
    <g id="xtick_7">
     <g id="line2d_13">
      <path clip-path="url(#p132df3eab9)" d="M 1220.4 780.03 
L 1220.4 86.67 
" style="fill:none;stroke:#ffffff;stroke-linecap:round;"/>
     </g>
     <g id="line2d_14">
      <g>
       <use style="fill:none;stroke:#262626;" x="1220.4" xlink:href="#m521c402671" y="780.03"/>
      </g>
     </g>
     <g id="text_7">
      <text style="fill:#262626;font-family:Arial;font-size:10.0px;font-style:normal;font-weight:400;text-anchor:middle;" transform="rotate(-0.000000, 1220.400000, 794.187812)" x="1220.4" y="794.1878125">8</text>
     </g>
    </g>
    <g id="xtick_8">
     <g id="line2d_15">
      <path clip-path="url(#p132df3eab9)" d="M 1387.8 780.03 
L 1387.8 86.67 
" style="fill:none;stroke:#ffffff;stroke-linecap:round;"/>
     </g>
     <g id="line2d_16">
      <g>
       <use style="fill:none;stroke:#262626;" x="1387.8" xlink:href="#m521c402671" y="780.03"/>
      </g>
     </g>
     <g id="text_8">
      <text style="fill:#262626;font-family:Arial;font-size:10.0px;font-style:normal;font-weight:400;text-anchor:middle;" transform="rotate(-0.000000, 1387.800000, 794.187812)" x="1387.8" y="794.1878125">9</text>
     </g>
    </g>
    <g id="xtick_9">
     <g id="line2d_17">
      <path clip-path="url(#p132df3eab9)" d="M 1555.2 780.03 
L 1555.2 86.67 
" style="fill:none;stroke:#ffffff;stroke-linecap:round;"/>
     </g>
     <g id="line2d_18">
      <g>
       <use style="fill:none;stroke:#262626;" x="1555.2" xlink:href="#m521c402671" y="780.03"/>
      </g>
     </g>
     <g id="text_9">
      <text style="fill:#262626;font-family:Arial;font-size:10.0px;font-style:normal;font-weight:400;text-anchor:middle;" transform="rotate(-0.000000, 1555.200000, 794.187812)" x="1555.2" y="794.1878125">10</text>
     </g>
    </g>
    <g id="text_10">
     <text style="fill:#262626;font-family:Arial;font-size:11.0px;font-style:normal;font-weight:400;text-anchor:middle;" transform="rotate(-0.000000, 885.600000, 809.048906)" x="885.6" y="809.04890625">pH</text>
    </g>
   </g>
   <g id="matplotlib.axis_2">
    <g id="ytick_1">
     <g id="line2d_19">
      <path clip-path="url(#p132df3eab9)" d="M 216 773.16505 
L 1555.2 773.16505 
" style="fill:none;stroke:#ffffff;stroke-linecap:round;"/>
     </g>
     <g id="line2d_20">
      <g>
       <use style="fill:none;stroke:#262626;" x="216.0" xlink:href="#m521c402671" y="773.165049505"/>
      </g>
     </g>
     <g id="text_11">
      <text style="fill:#262626;font-family:Arial;font-size:10.0px;font-style:normal;font-weight:400;text-anchor:end;" transform="rotate(-0.000000, 209.000000, 775.750206)" x="209.0" y="775.750205755">0.0</text>
     </g>
    </g>
    <g id="ytick_2">
     <g id="line2d_21">
      <path clip-path="url(#p132df3eab9)" d="M 216 635.86604 
L 1555.2 635.86604 
" style="fill:none;stroke:#ffffff;stroke-linecap:round;"/>
     </g>
     <g id="line2d_22">
      <g>
       <use style="fill:none;stroke:#262626;" x="216.0" xlink:href="#m521c402671" y="635.866039604"/>
      </g>
     </g>
     <g id="text_12">
      <text style="fill:#262626;font-family:Arial;font-size:10.0px;font-style:normal;font-weight:400;text-anchor:end;" transform="rotate(-0.000000, 209.000000, 638.451196)" x="209.0" y="638.451195854">0.2</text>
     </g>
    </g>
    <g id="ytick_3">
     <g id="line2d_23">
      <path clip-path="url(#p132df3eab9)" d="M 216 498.56703 
L 1555.2 498.56703 
" style="fill:none;stroke:#ffffff;stroke-linecap:round;"/>
     </g>
     <g id="line2d_24">
      <g>
       <use style="fill:none;stroke:#262626;" x="216.0" xlink:href="#m521c402671" y="498.567029703"/>
      </g>
     </g>
     <g id="text_13">
      <text style="fill:#262626;font-family:Arial;font-size:10.0px;font-style:normal;font-weight:400;text-anchor:end;" transform="rotate(-0.000000, 209.000000, 501.152186)" x="209.0" y="501.152185953">0.4</text>
     </g>
    </g>
    <g id="ytick_4">
     <g id="line2d_25">
      <path clip-path="url(#p132df3eab9)" d="M 216 361.26802 
L 1555.2 361.26802 
" style="fill:none;stroke:#ffffff;stroke-linecap:round;"/>
     </g>
     <g id="line2d_26">
      <g>
       <use style="fill:none;stroke:#262626;" x="216.0" xlink:href="#m521c402671" y="361.268019802"/>
      </g>
     </g>
     <g id="text_14">
      <text style="fill:#262626;font-family:Arial;font-size:10.0px;font-style:normal;font-weight:400;text-anchor:end;" transform="rotate(-0.000000, 209.000000, 363.853176)" x="209.0" y="363.853176052">0.6</text>
     </g>
    </g>
    <g id="ytick_5">
     <g id="line2d_27">
      <path clip-path="url(#p132df3eab9)" d="M 216 223.96901 
L 1555.2 223.96901 
" style="fill:none;stroke:#ffffff;stroke-linecap:round;"/>
     </g>
     <g id="line2d_28">
      <g>
       <use style="fill:none;stroke:#262626;" x="216.0" xlink:href="#m521c402671" y="223.969009901"/>
      </g>
     </g>
     <g id="text_15">
      <text style="fill:#262626;font-family:Arial;font-size:10.0px;font-style:normal;font-weight:400;text-anchor:end;" transform="rotate(-0.000000, 209.000000, 226.554166)" x="209.0" y="226.554166151">0.8</text>
     </g>
    </g>
    <g id="ytick_6">
     <g id="text_16">
      <text style="fill:#262626;font-family:Arial;font-size:10.0px;font-style:normal;font-weight:400;text-anchor:end;" transform="rotate(-0.000000, 209.000000, 89.255156)" x="209.0" y="89.25515625">1.0</text>
     </g>
    </g>
    <g id="text_17">
     <text style="fill:#262626;font-family:Arial;font-size:11.0px;font-style:normal;font-weight:400;text-anchor:middle;" transform="rotate(-90.000000, 187.913750, 433.350000)" x="187.91375" y="433.35">Fraction Sorbed</text>
    </g>
   </g>
   <g id="LineCollection_1">
    <path clip-path="url(#p132df3eab9)" d="M 382.991516 342.996852 
L 384.924484 342.996852 
" style="fill:none;stroke:#000000;"/>
    <path clip-path="url(#p132df3eab9)" d="M 716.675516 230.033881 
L 718.608484 230.033881 
" style="fill:none;stroke:#000000;"/>
   </g>
   <g id="LineCollection_2">
    <path clip-path="url(#p132df3eab9)" d="M 383.958 363.090033 
L 383.958 322.90367 
" style="fill:none;stroke:#000000;"/>
    <path clip-path="url(#p132df3eab9)" d="M 717.642 236.0434 
L 717.642 224.024362 
" style="fill:none;stroke:#000000;"/>
   </g>
   <g id="LineCollection_3">
    <path clip-path="url(#p132df3eab9)" d="M 382.284 330.004609 
L 383.4 330.004609 
" style="fill:none;stroke:#000000;"/>
    <path clip-path="url(#p132df3eab9)" d="M 717.21251 213.635412 
L 722.53549 213.635412 
" style="fill:none;stroke:#000000;"/>
    <path clip-path="url(#p132df3eab9)" d="M 1051.884 189.953348 
L 1054.116 189.953348 
" style="fill:none;stroke:#000000;"/>
    <path clip-path="url(#p132df3eab9)" d="M 1385.34973 182.115095 
L 1389.13427 182.115095 
" style="fill:none;stroke:#000000;"/>
   </g>
   <g id="LineCollection_4">
    <path clip-path="url(#p132df3eab9)" d="M 382.842 342.195922 
L 382.842 317.813295 
" style="fill:none;stroke:#000000;"/>
    <path clip-path="url(#p132df3eab9)" d="M 719.874 221.308859 
L 719.874 205.961965 
" style="fill:none;stroke:#000000;"/>
    <path clip-path="url(#p132df3eab9)" d="M 1053 197.293228 
L 1053 182.613468 
" style="fill:none;stroke:#000000;"/>
    <path clip-path="url(#p132df3eab9)" d="M 1387.242 184.289034 
L 1387.242 179.941156 
" style="fill:none;stroke:#000000;"/>
   </g>
   <g id="LineCollection_5">
    <path clip-path="url(#p132df3eab9)" d="M 381.875516 312.741771 
L 383.808484 312.741771 
" style="fill:none;stroke:#000000;"/>
    <path clip-path="url(#p132df3eab9)" d="M 716.526 195.292991 
L 719.874 195.292991 
" style="fill:none;stroke:#000000;"/>
    <path clip-path="url(#p132df3eab9)" d="M 1053 184.505686 
L 1053 184.505686 
" style="fill:none;stroke:#000000;"/>
    <path clip-path="url(#p132df3eab9)" d="M 1386.126 161.375729 
L 1386.126 161.375729 
" style="fill:none;stroke:#000000;"/>
   </g>
   <g id="LineCollection_6">
    <path clip-path="url(#p132df3eab9)" d="M 382.842 325.007826 
L 382.842 300.475716 
" style="fill:none;stroke:#000000;"/>
    <path clip-path="url(#p132df3eab9)" d="M 718.2 197.327842 
L 718.2 193.25814 
" style="fill:none;stroke:#000000;"/>
    <path clip-path="url(#p132df3eab9)" d="M 1053 186.433315 
L 1053 182.578057 
" style="fill:none;stroke:#000000;"/>
    <path clip-path="url(#p132df3eab9)" d="M 1386.126 167.982136 
L 1386.126 154.769322 
" style="fill:none;stroke:#000000;"/>
   </g>
   <g id="LineCollection_7">
    <path clip-path="url(#p132df3eab9)" d="M 381.317516 316.815894 
L 383.250484 316.815894 
" style="fill:none;stroke:#000000;"/>
    <path clip-path="url(#p132df3eab9)" d="M 718.2 198.776348 
L 718.2 198.776348 
" style="fill:none;stroke:#000000;"/>
    <path clip-path="url(#p132df3eab9)" d="M 1052.591516 180.76135 
L 1054.524484 180.76135 
" style="fill:none;stroke:#000000;"/>
    <path clip-path="url(#p132df3eab9)" d="M 1386.126 174.089375 
L 1386.126 174.089375 
" style="fill:none;stroke:#000000;"/>
   </g>
   <g id="LineCollection_8">
    <path clip-path="url(#p132df3eab9)" d="M 382.284 328.625817 
L 382.284 305.005971 
" style="fill:none;stroke:#000000;"/>
    <path clip-path="url(#p132df3eab9)" d="M 718.2 203.249375 
L 718.2 194.303322 
" style="fill:none;stroke:#000000;"/>
    <path clip-path="url(#p132df3eab9)" d="M 1053.558 192.477846 
L 1053.558 169.044853 
" style="fill:none;stroke:#000000;"/>
    <path clip-path="url(#p132df3eab9)" d="M 1386.126 178.324408 
L 1386.126 169.854342 
" style="fill:none;stroke:#000000;"/>
   </g>
   <g id="line2d_29">
    <path clip-path="url(#p132df3eab9)" d="M 216 334.095477 
L 232.74 333.724871 
L 232.74 333.724871 
L 232.74 333.724871 
L 249.48 333.319586 
L 249.48 333.319586 
L 249.48 333.319586 
L 266.22 332.860195 
L 266.22 332.860195 
L 266.22 332.860195 
L 282.96 332.324649 
L 282.96 332.324649 
L 282.96 332.324649 
L 299.7 331.68756 
L 299.7 331.68756 
L 299.7 331.68756 
L 316.44 330.919449 
L 316.44 330.919449 
L 316.44 330.919449 
L 333.18 329.986016 
L 333.18 329.986016 
L 333.18 329.986016 
L 349.92 328.847527 
L 349.92 328.847527 
L 349.92 328.847527 
L 366.66 327.458443 
L 366.66 327.458443 
L 366.66 327.458443 
L 383.4 325.767508 
L 383.4 325.767508 
L 383.4 325.767508 
L 400.14 323.718515 
L 400.14 323.718515 
L 400.14 323.718515 
L 416.88 321.252121 
L 416.88 321.252121 
L 416.88 321.252121 
L 433.62 318.308973 
L 433.62 318.308973 
L 433.62 318.308973 
L 450.36 314.834429 
L 450.36 314.834429 
L 450.36 314.834429 
L 467.1 310.784898 
L 467.1 310.784898 
L 467.1 310.784898 
L 483.84 306.135464 
L 483.84 306.135464 
L 483.84 306.135464 
L 500.58 300.887939 
L 500.58 300.887939 
L 500.58 300.887939 
L 517.32 295.07794 
L 517.32 295.07794 
L 517.32 295.07794 
L 534.06 288.779193 
L 534.06 288.779193 
L 534.06 288.779193 
L 550.8 282.103363 
L 550.8 282.103363 
L 550.8 282.103363 
L 567.54 275.194342 
L 567.54 275.194342 
L 567.54 275.194342 
L 584.28 268.217155 
L 584.28 268.217155 
L 584.28 268.217155 
L 601.02 261.343054 
L 601.02 261.343054 
L 601.02 261.343054 
L 617.76 254.733459 
L 617.76 254.733459 
L 617.76 254.733459 
L 634.5 248.525765 
L 634.5 248.525765 
L 634.5 248.525765 
L 651.24 242.82342 
L 651.24 242.82342 
L 651.24 242.82342 
L 667.98 237.691524 
L 667.98 237.691524 
L 667.98 237.691524 
L 684.72 233.157746 
L 684.72 233.157746 
L 684.72 233.157746 
L 701.46 229.217335 
L 701.46 229.217335 
L 701.46 229.217335 
L 718.2 225.840441 
L 718.2 225.840441 
L 718.2 225.840441 
L 734.94 222.980096 
L 734.94 222.980096 
L 734.94 222.980096 
L 751.68 220.579515 
L 751.68 220.579515 
L 751.68 220.579515 
L 768.42 218.57803 
L 768.42 218.57803 
L 768.42 218.57803 
L 785.16 216.9154 
L 785.16 216.9154 
L 785.16 216.9154 
L 801.9 215.534571 
L 801.9 215.534571 
L 801.9 215.534571 
L 818.64 214.383158 
L 818.64 214.383158 
L 818.64 214.383158 
L 835.38 213.413966 
L 835.38 213.413966 
L 835.38 213.413966 
L 852.12 212.584838 
L 852.12 212.584838 
L 852.12 212.584838 
L 868.86 211.858089 
L 868.86 211.858089 
L 868.86 211.858089 
L 885.6 211.199688 
L 885.6 211.199688 
L 885.6 211.199688 
L 902.34 210.578349 
L 902.34 210.578349 
L 902.34 210.578349 
L 919.08 209.964593 
L 919.08 209.964593 
L 919.08 209.964593 
L 935.82 209.329878 
L 935.82 209.329878 
L 935.82 209.329878 
L 952.56 208.645858 
L 952.56 208.645858 
L 952.56 208.645858 
L 969.3 207.88384 
L 969.3 207.88384 
L 969.3 207.88384 
L 986.04 207.014549 
L 986.04 207.014549 
L 986.04 207.014549 
L 1002.78 206.008316 
L 1002.78 206.008316 
L 1002.78 206.008316 
L 1019.52 204.835818 
L 1019.52 204.835818 
L 1019.52 204.835818 
L 1036.26 203.469525 
L 1036.26 203.469525 
L 1036.26 203.469525 
L 1053 201.885908 
L 1053 201.885908 
L 1053 201.885908 
L 1069.74 200.068378 
L 1069.74 200.068378 
L 1069.74 200.068378 
L 1086.48 198.010702 
L 1086.48 198.010702 
L 1086.48 198.010702 
L 1103.22 195.720363 
L 1103.22 195.720363 
L 1103.22 195.720363 
L 1119.96 193.221102 
L 1119.96 193.221102 
L 1119.96 193.221102 
L 1136.7 190.55374 
L 1136.7 190.55374 
L 1136.7 190.55374 
L 1153.44 187.774569 
L 1153.44 187.774569 
L 1153.44 187.774569 
L 1170.18 184.951115 
L 1170.18 184.951115 
L 1170.18 184.951115 
L 1186.92 182.155689 
L 1203.66 179.45811 
L 1220.4 176.918867 
L 1220.4 176.918867 
L 1237.14 174.584216 
L 1237.14 174.584216 
L 1253.88 172.483851 
L 1253.88 172.483851 
L 1270.62 170.631148 
L 1270.62 170.631148 
L 1287.36 169.025371 
L 1287.36 169.025371 
L 1304.1 167.654967 
L 1304.1 167.654967 
L 1320.84 166.501137 
L 1320.84 166.501137 
L 1337.58 165.541087 
L 1337.58 165.541087 
L 1354.32 164.750637 
L 1354.32 164.750637 
L 1371.06 164.106092 
L 1371.06 164.106092 
L 1404.54 163.169029 
L 1404.54 163.169029 
L 1438.02 162.583136 
L 1438.02 162.583136 
L 1471.5 162.241219 
L 1471.5 162.241219 
L 1521.72 162.028977 
L 1521.72 162.028977 
L 1555.2 162.016267 
L 1555.2 162.016267 
" style="fill:none;stroke:#000000;stroke-linecap:round;"/>
   </g>
   <g id="line2d_30">
    <defs>
     <path d="M 0 5 
L 0 -5 
" id="mf81d672ef7" style="stroke:#000000;stroke-width:2.0;"/>
    </defs>
    <g clip-path="url(#p132df3eab9)">
     <use style="fill:none;stroke:#000000;stroke-width:2.0;" x="382.991515649" xlink:href="#mf81d672ef7" y="342.99685166"/>
     <use style="fill:none;stroke:#000000;stroke-width:2.0;" x="716.675515649" xlink:href="#mf81d672ef7" y="230.033880712"/>
    </g>
   </g>
   <g id="line2d_31">
    <g clip-path="url(#p132df3eab9)">
     <use style="fill:none;stroke:#000000;stroke-width:2.0;" x="384.924484351" xlink:href="#mf81d672ef7" y="342.99685166"/>
     <use style="fill:none;stroke:#000000;stroke-width:2.0;" x="718.608484351" xlink:href="#mf81d672ef7" y="230.033880712"/>
    </g>
   </g>
   <g id="line2d_32">
    <defs>
     <path d="M 5 0 
L -5 -0 
" id="m5d2fdea828" style="stroke:#000000;stroke-width:2.0;"/>
    </defs>
    <g clip-path="url(#p132df3eab9)">
     <use style="fill:none;stroke:#000000;stroke-width:2.0;" x="383.958" xlink:href="#m5d2fdea828" y="363.090033474"/>
     <use style="fill:none;stroke:#000000;stroke-width:2.0;" x="717.642" xlink:href="#m5d2fdea828" y="236.043399816"/>
    </g>
   </g>
   <g id="line2d_33">
    <g clip-path="url(#p132df3eab9)">
     <use style="fill:none;stroke:#000000;stroke-width:2.0;" x="383.958" xlink:href="#m5d2fdea828" y="322.903669846"/>
     <use style="fill:none;stroke:#000000;stroke-width:2.0;" x="717.642" xlink:href="#m5d2fdea828" y="224.024361608"/>
    </g>
   </g>
   <g id="line2d_34">
    <defs>
     <path d="M 0 -10 
L -9.510565 -3.09017 
L -5.877853 8.09017 
L 5.877853 8.09017 
L 9.510565 -3.09017 
z
" id="ma9bda22168" style="stroke:#000000;stroke-linejoin:miter;stroke-width:2.0;"/>
    </defs>
    <g clip-path="url(#p132df3eab9)">
     <use style="fill:none;stroke:#000000;stroke-linejoin:miter;stroke-width:2.0;" x="383.958" xlink:href="#ma9bda22168" y="342.99685166"/>
     <use style="fill:none;stroke:#000000;stroke-linejoin:miter;stroke-width:2.0;" x="717.642" xlink:href="#ma9bda22168" y="230.033880712"/>
    </g>
   </g>
   <g id="line2d_35">
    <g clip-path="url(#p132df3eab9)">
     <use style="fill:none;stroke:#000000;stroke-width:2.0;" x="382.284" xlink:href="#mf81d672ef7" y="330.004608905"/>
     <use style="fill:none;stroke:#000000;stroke-width:2.0;" x="717.212509628" xlink:href="#mf81d672ef7" y="213.635412028"/>
     <use style="fill:none;stroke:#000000;stroke-width:2.0;" x="1051.884" xlink:href="#mf81d672ef7" y="189.953347737"/>
     <use style="fill:none;stroke:#000000;stroke-width:2.0;" x="1385.34972993" xlink:href="#mf81d672ef7" y="182.115094738"/>
    </g>
   </g>
   <g id="line2d_36">
    <g clip-path="url(#p132df3eab9)">
     <use style="fill:none;stroke:#000000;stroke-width:2.0;" x="383.4" xlink:href="#mf81d672ef7" y="330.004608905"/>
     <use style="fill:none;stroke:#000000;stroke-width:2.0;" x="722.535490372" xlink:href="#mf81d672ef7" y="213.635412028"/>
     <use style="fill:none;stroke:#000000;stroke-width:2.0;" x="1054.116" xlink:href="#mf81d672ef7" y="189.953347737"/>
     <use style="fill:none;stroke:#000000;stroke-width:2.0;" x="1389.13427007" xlink:href="#mf81d672ef7" y="182.115094738"/>
    </g>
   </g>
   <g id="line2d_37">
    <g clip-path="url(#p132df3eab9)">
     <use style="fill:none;stroke:#000000;stroke-width:2.0;" x="382.842" xlink:href="#m5d2fdea828" y="342.195922473"/>
     <use style="fill:none;stroke:#000000;stroke-width:2.0;" x="719.874" xlink:href="#m5d2fdea828" y="221.308858872"/>
     <use style="fill:none;stroke:#000000;stroke-width:2.0;" x="1053.0" xlink:href="#m5d2fdea828" y="197.293227553"/>
     <use style="fill:none;stroke:#000000;stroke-width:2.0;" x="1387.242" xlink:href="#m5d2fdea828" y="184.289033738"/>
    </g>
   </g>
   <g id="line2d_38">
    <g clip-path="url(#p132df3eab9)">
     <use style="fill:none;stroke:#000000;stroke-width:2.0;" x="382.842" xlink:href="#m5d2fdea828" y="317.813295337"/>
     <use style="fill:none;stroke:#000000;stroke-width:2.0;" x="719.874" xlink:href="#m5d2fdea828" y="205.961965185"/>
     <use style="fill:none;stroke:#000000;stroke-width:2.0;" x="1053.0" xlink:href="#m5d2fdea828" y="182.613467921"/>
     <use style="fill:none;stroke:#000000;stroke-width:2.0;" x="1387.242" xlink:href="#m5d2fdea828" y="179.941155738"/>
    </g>
   </g>
   <g id="line2d_39">
    <defs>
     <path d="M -10 10 
L 10 10 
L 10 -10 
L -10 -10 
z
" id="m27de84bb4f" style="stroke:#000000;stroke-linejoin:miter;stroke-width:2.0;"/>
    </defs>
    <g clip-path="url(#p132df3eab9)">
     <use style="fill:none;stroke:#000000;stroke-linejoin:miter;stroke-width:2.0;" x="382.842" xlink:href="#m27de84bb4f" y="330.004608905"/>
     <use style="fill:none;stroke:#000000;stroke-linejoin:miter;stroke-width:2.0;" x="719.874" xlink:href="#m27de84bb4f" y="213.635412028"/>
     <use style="fill:none;stroke:#000000;stroke-linejoin:miter;stroke-width:2.0;" x="1053.0" xlink:href="#m27de84bb4f" y="189.953347737"/>
     <use style="fill:none;stroke:#000000;stroke-linejoin:miter;stroke-width:2.0;" x="1387.242" xlink:href="#m27de84bb4f" y="182.115094738"/>
    </g>
   </g>
   <g id="line2d_40">
    <g clip-path="url(#p132df3eab9)">
     <use style="fill:none;stroke:#000000;stroke-width:2.0;" x="381.875515649" xlink:href="#mf81d672ef7" y="312.74177129"/>
     <use style="fill:none;stroke:#000000;stroke-width:2.0;" x="716.526" xlink:href="#mf81d672ef7" y="195.292990534"/>
     <use style="fill:none;stroke:#000000;stroke-width:2.0;" x="1053.0" xlink:href="#mf81d672ef7" y="184.505685996"/>
     <use style="fill:none;stroke:#000000;stroke-width:2.0;" x="1386.126" xlink:href="#mf81d672ef7" y="161.375729173"/>
    </g>
   </g>
   <g id="line2d_41">
    <g clip-path="url(#p132df3eab9)">
     <use style="fill:none;stroke:#000000;stroke-width:2.0;" x="383.808484351" xlink:href="#mf81d672ef7" y="312.74177129"/>
     <use style="fill:none;stroke:#000000;stroke-width:2.0;" x="719.874" xlink:href="#mf81d672ef7" y="195.292990534"/>
     <use style="fill:none;stroke:#000000;stroke-width:2.0;" x="1053.0" xlink:href="#mf81d672ef7" y="184.505685996"/>
     <use style="fill:none;stroke:#000000;stroke-width:2.0;" x="1386.126" xlink:href="#mf81d672ef7" y="161.375729173"/>
    </g>
   </g>
   <g id="line2d_42">
    <g clip-path="url(#p132df3eab9)">
     <use style="fill:none;stroke:#000000;stroke-width:2.0;" x="382.842" xlink:href="#m5d2fdea828" y="325.007826409"/>
     <use style="fill:none;stroke:#000000;stroke-width:2.0;" x="718.2" xlink:href="#m5d2fdea828" y="197.327841516"/>
     <use style="fill:none;stroke:#000000;stroke-width:2.0;" x="1053.0" xlink:href="#m5d2fdea828" y="186.433314599"/>
     <use style="fill:none;stroke:#000000;stroke-width:2.0;" x="1386.126" xlink:href="#m5d2fdea828" y="167.982136138"/>
    </g>
   </g>
   <g id="line2d_43">
    <g clip-path="url(#p132df3eab9)">
     <use style="fill:none;stroke:#000000;stroke-width:2.0;" x="382.842" xlink:href="#m5d2fdea828" y="300.475716171"/>
     <use style="fill:none;stroke:#000000;stroke-width:2.0;" x="718.2" xlink:href="#m5d2fdea828" y="193.258139552"/>
     <use style="fill:none;stroke:#000000;stroke-width:2.0;" x="1053.0" xlink:href="#m5d2fdea828" y="182.578057392"/>
     <use style="fill:none;stroke:#000000;stroke-width:2.0;" x="1386.126" xlink:href="#m5d2fdea828" y="154.769322208"/>
    </g>
   </g>
   <g id="line2d_44">
    <defs>
     <path d="M 0 -10 
L -10 10 
L 10 10 
z
" id="m8f181822ed" style="stroke:#000000;stroke-linejoin:miter;stroke-width:2.0;"/>
    </defs>
    <g clip-path="url(#p132df3eab9)">
     <use style="fill:none;stroke:#000000;stroke-linejoin:miter;stroke-width:2.0;" x="382.842" xlink:href="#m8f181822ed" y="312.74177129"/>
     <use style="fill:none;stroke:#000000;stroke-linejoin:miter;stroke-width:2.0;" x="718.2" xlink:href="#m8f181822ed" y="195.292990534"/>
     <use style="fill:none;stroke:#000000;stroke-linejoin:miter;stroke-width:2.0;" x="1053.0" xlink:href="#m8f181822ed" y="184.505685996"/>
     <use style="fill:none;stroke:#000000;stroke-linejoin:miter;stroke-width:2.0;" x="1386.126" xlink:href="#m8f181822ed" y="161.375729173"/>
    </g>
   </g>
   <g id="line2d_45">
    <g clip-path="url(#p132df3eab9)">
     <use style="fill:none;stroke:#000000;stroke-width:2.0;" x="381.317515649" xlink:href="#mf81d672ef7" y="316.815894306"/>
     <use style="fill:none;stroke:#000000;stroke-width:2.0;" x="718.2" xlink:href="#mf81d672ef7" y="198.776348419"/>
     <use style="fill:none;stroke:#000000;stroke-width:2.0;" x="1052.59151565" xlink:href="#mf81d672ef7" y="180.761349581"/>
     <use style="fill:none;stroke:#000000;stroke-width:2.0;" x="1386.126" xlink:href="#mf81d672ef7" y="174.089375022"/>
    </g>
   </g>
   <g id="line2d_46">
    <g clip-path="url(#p132df3eab9)">
     <use style="fill:none;stroke:#000000;stroke-width:2.0;" x="383.250484351" xlink:href="#mf81d672ef7" y="316.815894306"/>
     <use style="fill:none;stroke:#000000;stroke-width:2.0;" x="718.2" xlink:href="#mf81d672ef7" y="198.776348419"/>
     <use style="fill:none;stroke:#000000;stroke-width:2.0;" x="1054.52448435" xlink:href="#mf81d672ef7" y="180.761349581"/>
     <use style="fill:none;stroke:#000000;stroke-width:2.0;" x="1386.126" xlink:href="#mf81d672ef7" y="174.089375022"/>
    </g>
   </g>
   <g id="line2d_47">
    <g clip-path="url(#p132df3eab9)">
     <use style="fill:none;stroke:#000000;stroke-width:2.0;" x="382.284" xlink:href="#m5d2fdea828" y="328.625817266"/>
     <use style="fill:none;stroke:#000000;stroke-width:2.0;" x="718.2" xlink:href="#m5d2fdea828" y="203.249375155"/>
     <use style="fill:none;stroke:#000000;stroke-width:2.0;" x="1053.558" xlink:href="#m5d2fdea828" y="192.477846094"/>
     <use style="fill:none;stroke:#000000;stroke-width:2.0;" x="1386.126" xlink:href="#m5d2fdea828" y="178.324407884"/>
    </g>
   </g>
   <g id="line2d_48">
    <g clip-path="url(#p132df3eab9)">
     <use style="fill:none;stroke:#000000;stroke-width:2.0;" x="382.284" xlink:href="#m5d2fdea828" y="305.005971346"/>
     <use style="fill:none;stroke:#000000;stroke-width:2.0;" x="718.2" xlink:href="#m5d2fdea828" y="194.303321683"/>
     <use style="fill:none;stroke:#000000;stroke-width:2.0;" x="1053.558" xlink:href="#m5d2fdea828" y="169.044853068"/>
     <use style="fill:none;stroke:#000000;stroke-width:2.0;" x="1386.126" xlink:href="#m5d2fdea828" y="169.854342161"/>
    </g>
   </g>
   <g id="line2d_49">
    <defs>
     <path d="M 0 10 
C 2.652031 10 5.195799 8.946337 7.071068 7.071068 
C 8.946337 5.195799 10 2.652031 10 0 
C 10 -2.652031 8.946337 -5.195799 7.071068 -7.071068 
C 5.195799 -8.946337 2.652031 -10 0 -10 
C -2.652031 -10 -5.195799 -8.946337 -7.071068 -7.071068 
C -8.946337 -5.195799 -10 -2.652031 -10 0 
C -10 2.652031 -8.946337 5.195799 -7.071068 7.071068 
C -5.195799 8.946337 -2.652031 10 0 10 
z
" id="mcfab767768" style="stroke:#000000;stroke-width:2.0;"/>
    </defs>
    <g clip-path="url(#p132df3eab9)">
     <use style="fill:none;stroke:#000000;stroke-width:2.0;" x="382.284" xlink:href="#mcfab767768" y="316.815894306"/>
     <use style="fill:none;stroke:#000000;stroke-width:2.0;" x="718.2" xlink:href="#mcfab767768" y="198.776348419"/>
     <use style="fill:none;stroke:#000000;stroke-width:2.0;" x="1053.558" xlink:href="#mcfab767768" y="180.761349581"/>
     <use style="fill:none;stroke:#000000;stroke-width:2.0;" x="1386.126" xlink:href="#mcfab767768" y="174.089375022"/>
    </g>
   </g>
   <g id="patch_3">
    <path d="M 216 780.03 
L 1555.2 780.03 
" style="fill:none;"/>
   </g>
   <g id="patch_4">
    <path d="M 216 780.03 
L 216 86.67 
" style="fill:none;"/>
   </g>
   <g id="text_18">
    <text style="fill:#262626;font-family:Arial;font-size:12.0px;font-style:normal;font-weight:400;text-anchor:middle;" transform="rotate(-0.000000, 885.600000, 81.670000)" x="885.6" y="81.67">Single site, 2 reaction model with exchange, Sodium Montmorillonite</text>
   </g>
   <g id="legend_1">
    <g id="line2d_50">
     <path d="M 225 99.449687 
L 245 99.449687 
" style="fill:none;stroke:#000000;stroke-linecap:round;"/>
    </g>
    <g id="line2d_51"/>
    <g id="text_19">
     <text style="fill:#262626;font-family:Arial;font-size:10.0px;font-style:normal;font-weight:400;text-anchor:start;" transform="rotate(-0.000000, 253.000000, 102.949687)" x="253.0" y="102.9496875">1 site 2 rxn w/ exchange, K1: 9.7 K2: 10.1 1e-10 mol</text>
    </g>
    <g id="line2d_52"/>
    <g id="line2d_53">
     <g>
      <use style="fill:none;stroke:#000000;stroke-linejoin:miter;stroke-width:2.0;" x="235.0" xlink:href="#ma9bda22168" y="113.741875"/>
     </g>
    </g>
    <g id="text_20">
     <text style="fill:#262626;font-family:Arial;font-size:10.0px;font-style:normal;font-weight:400;text-anchor:start;" transform="rotate(-0.000000, 253.000000, 117.241875)" x="253.0" y="117.241875">Experimental Data 50 Bq Total</text>
    </g>
    <g id="line2d_54"/>
    <g id="line2d_55">
     <g>
      <use style="fill:none;stroke:#000000;stroke-linejoin:miter;stroke-width:2.0;" x="235.0" xlink:href="#m27de84bb4f" y="127.916875"/>
     </g>
    </g>
    <g id="text_21">
     <text style="fill:#262626;font-family:Arial;font-size:10.0px;font-style:normal;font-weight:400;text-anchor:start;" transform="rotate(-0.000000, 253.000000, 131.416875)" x="253.0" y="131.416875">Experimental Data 100 Bq Total</text>
    </g>
    <g id="line2d_56"/>
    <g id="line2d_57">
     <g>
      <use style="fill:none;stroke:#000000;stroke-linejoin:miter;stroke-width:2.0;" x="235.0" xlink:href="#m8f181822ed" y="142.091875"/>
     </g>
    </g>
    <g id="text_22">
     <text style="fill:#262626;font-family:Arial;font-size:10.0px;font-style:normal;font-weight:400;text-anchor:start;" transform="rotate(-0.000000, 253.000000, 145.591875)" x="253.0" y="145.591875">Experimental Data 250 Bq Total</text>
    </g>
    <g id="line2d_58"/>
    <g id="line2d_59">
     <g>
      <use style="fill:none;stroke:#000000;stroke-width:2.0;" x="235.0" xlink:href="#mcfab767768" y="156.266875"/>
     </g>
    </g>
    <g id="text_23">
     <text style="fill:#262626;font-family:Arial;font-size:10.0px;font-style:normal;font-weight:400;text-anchor:start;" transform="rotate(-0.000000, 253.000000, 159.766875)" x="253.0" y="159.766875">Experimental Data 500 Bq Total</text>
    </g>
   </g>
  </g>
 </g>
 <defs>
  <clipPath id="p132df3eab9">
   <rect height="693.36" width="1339.2" x="216.0" y="86.67"/>
  </clipPath>
 </defs>
</svg>
