<?xml version="1.0" encoding="utf-8" standalone="no"?>
<!DOCTYPE svg PUBLIC "-//W3C//DTD SVG 1.1//EN"
  "http://www.w3.org/Graphics/SVG/1.1/DTD/svg11.dtd">
<!-- Created with matplotlib (http://matplotlib.org/) -->
<svg height="324pt" version="1.1" viewBox="0 0 239 324" width="239pt" xmlns="http://www.w3.org/2000/svg" xmlns:xlink="http://www.w3.org/1999/xlink">
 <defs>
  <style type="text/css">
*{stroke-linecap:butt;stroke-linejoin:round;}
  </style>
 </defs>
 <g id="figure_1">
  <g id="patch_1">
   <path d="M 0 324 
L 239.76 324 
L 239.76 0 
L 0 0 
z
" style="fill:#ffffff;"/>
  </g>
  <g id="axes_1">
   <g id="patch_2">
    <path d="M 48.859375 139.620625 
L 220.8 139.620625 
L 220.8 28.68125 
L 48.859375 28.68125 
z
" style="fill:#ffffff;"/>
   </g>
   <g id="matplotlib.axis_1">
    <g id="xtick_1">
     <g id="line2d_1"/>
    </g>
    <g id="xtick_2">
     <g id="line2d_2"/>
    </g>
    <g id="xtick_3">
     <g id="line2d_3"/>
    </g>
    <g id="xtick_4">
     <g id="line2d_4"/>
    </g>
    <g id="xtick_5">
     <g id="line2d_5"/>
    </g>
   </g>
   <g id="matplotlib.axis_2">
    <g id="ytick_1">
     <g id="line2d_6"/>
     <g id="text_1">
      <text style="fill:#262626;font-family:Times New Roman;font-size:12px;font-style:normal;font-weight:400;text-anchor:end;" transform="rotate(-0, 43.859375, 134.541927)" x="43.859375" y="134.541927">0.0</text>
     </g>
    </g>
    <g id="ytick_2">
     <g id="line2d_7"/>
     <g id="text_2">
      <text style="fill:#262626;font-family:Times New Roman;font-size:12px;font-style:normal;font-weight:400;text-anchor:end;" transform="rotate(-0, 43.859375, 88.317187)" x="43.859375" y="88.317187">0.5</text>
     </g>
    </g>
    <g id="ytick_3">
     <g id="line2d_8"/>
     <g id="text_3">
      <text style="fill:#262626;font-family:Times New Roman;font-size:12px;font-style:normal;font-weight:400;text-anchor:end;" transform="rotate(-0, 43.859375, 42.092448)" x="43.859375" y="42.092448">1.0</text>
     </g>
    </g>
    <g id="text_4">
     <text style="fill:#262626;font-family:Times New Roman;font-size:12px;font-style:normal;font-weight:400;text-anchor:middle;" transform="rotate(-90, 21.2925, 84.150937)" x="21.2925" y="84.150937">Fraction Sorbed (.)</text>
    </g>
   </g>
   <g id="LineCollection_1">
    <path clip-path="url(#p7ca3f81059)" d="M 71.237186 167.892014 
L 72.618965 167.892014 
" style="fill:none;stroke:#000000;"/>
    <path clip-path="url(#p7ca3f81059)" d="M 70.643016 128.784134 
L 71.780296 128.784134 
" style="fill:none;stroke:#000000;"/>
    <path clip-path="url(#p7ca3f81059)" d="M 69.995122 124.131751 
L 73.717745 124.131751 
" style="fill:none;stroke:#000000;"/>
    <path clip-path="url(#p7ca3f81059)" d="M 70.985116 124.943675 
L 72.405362 124.943675 
" style="fill:none;stroke:#000000;"/>
    <path clip-path="url(#p7ca3f81059)" d="M 113.337109 149.019707 
L 113.337109 149.019707 
" style="fill:none;stroke:#000000;"/>
    <path clip-path="url(#p7ca3f81059)" d="M 113.337109 127.58715 
L 113.337109 127.58715 
" style="fill:none;stroke:#000000;"/>
    <path clip-path="url(#p7ca3f81059)" d="M 113.337109 106.47569 
L 113.337109 106.47569 
" style="fill:none;stroke:#000000;"/>
    <path clip-path="url(#p7ca3f81059)" d="M 113.337109 120.912055 
L 113.337109 120.912055 
" style="fill:none;stroke:#000000;"/>
    <path clip-path="url(#p7ca3f81059)" d="M 113.337109 118.809557 
L 113.337109 118.809557 
" style="fill:none;stroke:#000000;"/>
    <path clip-path="url(#p7ca3f81059)" d="M 154.26899 92.189912 
L 155.509864 92.189912 
" style="fill:none;stroke:#000000;"/>
    <path clip-path="url(#p7ca3f81059)" d="M 154.780337 78.400217 
L 157.147775 78.400217 
" style="fill:none;stroke:#000000;"/>
    <path clip-path="url(#p7ca3f81059)" d="M 154.893922 80.614862 
L 156.031203 80.614862 
" style="fill:none;stroke:#000000;"/>
    <path clip-path="url(#p7ca3f81059)" d="M 155.501975 89.997723 
L 156.927631 89.997723 
" style="fill:none;stroke:#000000;"/>
    <path clip-path="url(#p7ca3f81059)" d="M 196.975489 34.178333 
L 198.057258 34.178333 
" style="fill:none;stroke:#000000;"/>
    <path clip-path="url(#p7ca3f81059)" d="M 195.288333 40.906193 
L 197.451872 40.906193 
" style="fill:none;stroke:#000000;"/>
    <path clip-path="url(#p7ca3f81059)" d="M 196.894705 43.058135 
L 198.926104 43.058135 
" style="fill:none;stroke:#000000;"/>
   </g>
   <g id="LineCollection_2">
    <path clip-path="url(#p7ca3f81059)" d="M 71.928076 197.182254 
L 71.928076 138.601774 
" style="fill:none;stroke:#000000;"/>
    <path clip-path="url(#p7ca3f81059)" d="M 71.211656 134.467017 
L 71.211656 123.10125 
" style="fill:none;stroke:#000000;"/>
    <path clip-path="url(#p7ca3f81059)" d="M 71.856434 131.073038 
L 71.856434 117.190463 
" style="fill:none;stroke:#000000;"/>
    <path clip-path="url(#p7ca3f81059)" d="M 71.695239 129.862774 
L 71.695239 120.024575 
" style="fill:none;stroke:#000000;"/>
    <path clip-path="url(#p7ca3f81059)" d="M 113.337109 170.345492 
L 113.337109 127.693922 
" style="fill:none;stroke:#000000;"/>
    <path clip-path="url(#p7ca3f81059)" d="M 113.337109 137.34854 
L 113.337109 117.825761 
" style="fill:none;stroke:#000000;"/>
    <path clip-path="url(#p7ca3f81059)" d="M 113.337109 132.372861 
L 113.337109 80.578519 
" style="fill:none;stroke:#000000;"/>
    <path clip-path="url(#p7ca3f81059)" d="M 113.337109 122.075806 
L 113.337109 119.748303 
" style="fill:none;stroke:#000000;"/>
    <path clip-path="url(#p7ca3f81059)" d="M 113.337109 123.045338 
L 113.337109 114.573776 
" style="fill:none;stroke:#000000;"/>
    <path clip-path="url(#p7ca3f81059)" d="M 154.889427 97.197635 
L 154.889427 87.182189 
" style="fill:none;stroke:#000000;"/>
    <path clip-path="url(#p7ca3f81059)" d="M 155.964056 80.12672 
L 155.964056 76.673714 
" style="fill:none;stroke:#000000;"/>
    <path clip-path="url(#p7ca3f81059)" d="M 155.462562 83.32254 
L 155.462562 77.907185 
" style="fill:none;stroke:#000000;"/>
    <path clip-path="url(#p7ca3f81059)" d="M 156.214803 96.017373 
L 156.214803 83.978072 
" style="fill:none;stroke:#000000;"/>
    <path clip-path="url(#p7ca3f81059)" d="M 197.516374 35.632937 
L 197.516374 32.723729 
" style="fill:none;stroke:#000000;"/>
    <path clip-path="url(#p7ca3f81059)" d="M 196.370103 43.012837 
L 196.370103 38.799549 
" style="fill:none;stroke:#000000;"/>
    <path clip-path="url(#p7ca3f81059)" d="M 197.910404 46.726521 
L 197.910404 39.389749 
" style="fill:none;stroke:#000000;"/>
   </g>
   <g id="line2d_9">
    <path clip-path="url(#p7ca3f81059)" d="M 48.859375 130.429739 
L 51.008633 130.429739 
L 53.157891 130.429739 
L 55.307148 130.429739 
L 57.456406 130.429738 
L 59.605664 130.429738 
L 61.754922 130.429738 
L 63.90418 130.429738 
L 66.053438 130.429738 
L 68.202695 130.429738 
L 70.351953 130.429738 
L 72.501211 130.429738 
L 74.650469 130.429738 
L 76.799727 130.429738 
L 78.948984 130.429737 
L 81.098242 130.429735 
L 83.2475 130.429732 
L 85.396758 130.429727 
L 87.546016 130.429716 
L 89.695273 130.429696 
L 91.844531 130.42966 
L 93.993789 130.429597 
L 96.143047 130.429488 
L 98.292305 130.429304 
L 100.441562 130.428997 
L 102.59082 130.428488 
L 104.740078 130.427656 
L 106.889336 130.42631 
L 109.038594 130.424149 
L 111.187852 130.420709 
L 113.337109 130.415267 
L 115.486367 130.406707 
L 117.635625 130.393305 
L 119.784883 130.372409 
L 121.934141 130.339938 
L 124.083398 130.289615 
L 126.232656 130.21181 
L 128.381914 130.091753 
L 130.531172 129.906853 
L 132.68043 129.622688 
L 134.829687 129.187148 
L 136.978945 128.522171 
L 139.128203 127.512814 
L 141.277461 125.99445 
L 143.426719 123.741674 
L 145.575977 120.468025 
L 147.725234 115.853992 
L 149.874492 109.626406 
L 152.02375 101.699143 
L 154.173008 92.332874 
L 156.322266 82.198388 
L 158.471523 72.229888 
L 160.620781 63.306984 
L 162.770039 55.972394 
L 164.919297 50.356173 
L 167.068555 46.286152 
L 169.217812 43.453665 
L 171.36707 41.537962 
L 173.516328 40.267466 
L 175.665586 39.435916 
L 177.814844 38.896404 
L 179.964102 38.548375 
L 182.113359 38.324701 
L 184.262617 38.181287 
L 186.411875 38.089464 
L 188.561133 38.030719 
L 190.710391 37.993147 
L 192.859648 37.969115 
L 195.008906 37.953739 
L 197.158164 37.943894 
L 199.307422 37.937586 
L 201.45668 37.93354 
L 203.605937 37.930941 
L 205.755195 37.92927 
L 207.904453 37.928192 
L 210.053711 37.927497 
L 212.202969 37.927047 
L 214.352227 37.926755 
L 216.501484 37.926565 
L 218.650742 37.926441 
L 220.8 37.926359 
" style="fill:none;stroke:#000000;stroke-linecap:round;"/>
   </g>
   <g id="line2d_10">
    <defs>
     <path d="M 0 2 
L 0 -2 
" id="md428724865" style="stroke:#000000;stroke-width:1.5;"/>
    </defs>
    <g clip-path="url(#p7ca3f81059)">
     <use style="stroke:#000000;stroke-width:1.5;" x="71.237186" xlink:href="#md428724865" y="167.892014"/>
     <use style="stroke:#000000;stroke-width:1.5;" x="70.643016" xlink:href="#md428724865" y="128.784134"/>
     <use style="stroke:#000000;stroke-width:1.5;" x="69.995122" xlink:href="#md428724865" y="124.131751"/>
     <use style="stroke:#000000;stroke-width:1.5;" x="70.985116" xlink:href="#md428724865" y="124.943675"/>
     <use style="stroke:#000000;stroke-width:1.5;" x="113.337109" xlink:href="#md428724865" y="149.019707"/>
     <use style="stroke:#000000;stroke-width:1.5;" x="113.337109" xlink:href="#md428724865" y="127.58715"/>
     <use style="stroke:#000000;stroke-width:1.5;" x="113.337109" xlink:href="#md428724865" y="106.47569"/>
     <use style="stroke:#000000;stroke-width:1.5;" x="113.337109" xlink:href="#md428724865" y="120.912055"/>
     <use style="stroke:#000000;stroke-width:1.5;" x="113.337109" xlink:href="#md428724865" y="118.809557"/>
     <use style="stroke:#000000;stroke-width:1.5;" x="154.26899" xlink:href="#md428724865" y="92.189912"/>
     <use style="stroke:#000000;stroke-width:1.5;" x="154.780337" xlink:href="#md428724865" y="78.400217"/>
     <use style="stroke:#000000;stroke-width:1.5;" x="154.893922" xlink:href="#md428724865" y="80.614862"/>
     <use style="stroke:#000000;stroke-width:1.5;" x="155.501975" xlink:href="#md428724865" y="89.997723"/>
     <use style="stroke:#000000;stroke-width:1.5;" x="196.975489" xlink:href="#md428724865" y="34.178333"/>
     <use style="stroke:#000000;stroke-width:1.5;" x="195.288333" xlink:href="#md428724865" y="40.906193"/>
     <use style="stroke:#000000;stroke-width:1.5;" x="196.894705" xlink:href="#md428724865" y="43.058135"/>
    </g>
   </g>
   <g id="line2d_11">
    <g clip-path="url(#p7ca3f81059)">
     <use style="stroke:#000000;stroke-width:1.5;" x="72.618965" xlink:href="#md428724865" y="167.892014"/>
     <use style="stroke:#000000;stroke-width:1.5;" x="71.780296" xlink:href="#md428724865" y="128.784134"/>
     <use style="stroke:#000000;stroke-width:1.5;" x="73.717745" xlink:href="#md428724865" y="124.131751"/>
     <use style="stroke:#000000;stroke-width:1.5;" x="72.405362" xlink:href="#md428724865" y="124.943675"/>
     <use style="stroke:#000000;stroke-width:1.5;" x="113.337109" xlink:href="#md428724865" y="149.019707"/>
     <use style="stroke:#000000;stroke-width:1.5;" x="113.337109" xlink:href="#md428724865" y="127.58715"/>
     <use style="stroke:#000000;stroke-width:1.5;" x="113.337109" xlink:href="#md428724865" y="106.47569"/>
     <use style="stroke:#000000;stroke-width:1.5;" x="113.337109" xlink:href="#md428724865" y="120.912055"/>
     <use style="stroke:#000000;stroke-width:1.5;" x="113.337109" xlink:href="#md428724865" y="118.809557"/>
     <use style="stroke:#000000;stroke-width:1.5;" x="155.509864" xlink:href="#md428724865" y="92.189912"/>
     <use style="stroke:#000000;stroke-width:1.5;" x="157.147775" xlink:href="#md428724865" y="78.400217"/>
     <use style="stroke:#000000;stroke-width:1.5;" x="156.031203" xlink:href="#md428724865" y="80.614862"/>
     <use style="stroke:#000000;stroke-width:1.5;" x="156.927631" xlink:href="#md428724865" y="89.997723"/>
     <use style="stroke:#000000;stroke-width:1.5;" x="198.057258" xlink:href="#md428724865" y="34.178333"/>
     <use style="stroke:#000000;stroke-width:1.5;" x="197.451872" xlink:href="#md428724865" y="40.906193"/>
     <use style="stroke:#000000;stroke-width:1.5;" x="198.926104" xlink:href="#md428724865" y="43.058135"/>
    </g>
   </g>
   <g id="line2d_12">
    <defs>
     <path d="M 2 0 
L -2 -0 
" id="m2de4b6770a" style="stroke:#000000;stroke-width:1.5;"/>
    </defs>
    <g clip-path="url(#p7ca3f81059)">
     <use style="stroke:#000000;stroke-width:1.5;" x="71.928076" xlink:href="#m2de4b6770a" y="197.182254"/>
     <use style="stroke:#000000;stroke-width:1.5;" x="71.211656" xlink:href="#m2de4b6770a" y="134.467017"/>
     <use style="stroke:#000000;stroke-width:1.5;" x="71.856434" xlink:href="#m2de4b6770a" y="131.073038"/>
     <use style="stroke:#000000;stroke-width:1.5;" x="71.695239" xlink:href="#m2de4b6770a" y="129.862774"/>
     <use style="stroke:#000000;stroke-width:1.5;" x="113.337109" xlink:href="#m2de4b6770a" y="170.345492"/>
     <use style="stroke:#000000;stroke-width:1.5;" x="113.337109" xlink:href="#m2de4b6770a" y="137.34854"/>
     <use style="stroke:#000000;stroke-width:1.5;" x="113.337109" xlink:href="#m2de4b6770a" y="132.372861"/>
     <use style="stroke:#000000;stroke-width:1.5;" x="113.337109" xlink:href="#m2de4b6770a" y="122.075806"/>
     <use style="stroke:#000000;stroke-width:1.5;" x="113.337109" xlink:href="#m2de4b6770a" y="123.045338"/>
     <use style="stroke:#000000;stroke-width:1.5;" x="154.889427" xlink:href="#m2de4b6770a" y="97.197635"/>
     <use style="stroke:#000000;stroke-width:1.5;" x="155.964056" xlink:href="#m2de4b6770a" y="80.12672"/>
     <use style="stroke:#000000;stroke-width:1.5;" x="155.462562" xlink:href="#m2de4b6770a" y="83.32254"/>
     <use style="stroke:#000000;stroke-width:1.5;" x="156.214803" xlink:href="#m2de4b6770a" y="96.017373"/>
     <use style="stroke:#000000;stroke-width:1.5;" x="197.516374" xlink:href="#m2de4b6770a" y="35.632937"/>
     <use style="stroke:#000000;stroke-width:1.5;" x="196.370103" xlink:href="#m2de4b6770a" y="43.012837"/>
     <use style="stroke:#000000;stroke-width:1.5;" x="197.910404" xlink:href="#m2de4b6770a" y="46.726521"/>
    </g>
   </g>
   <g id="line2d_13">
    <g clip-path="url(#p7ca3f81059)">
     <use style="stroke:#000000;stroke-width:1.5;" x="71.928076" xlink:href="#m2de4b6770a" y="138.601774"/>
     <use style="stroke:#000000;stroke-width:1.5;" x="71.211656" xlink:href="#m2de4b6770a" y="123.10125"/>
     <use style="stroke:#000000;stroke-width:1.5;" x="71.856434" xlink:href="#m2de4b6770a" y="117.190463"/>
     <use style="stroke:#000000;stroke-width:1.5;" x="71.695239" xlink:href="#m2de4b6770a" y="120.024575"/>
     <use style="stroke:#000000;stroke-width:1.5;" x="113.337109" xlink:href="#m2de4b6770a" y="127.693922"/>
     <use style="stroke:#000000;stroke-width:1.5;" x="113.337109" xlink:href="#m2de4b6770a" y="117.825761"/>
     <use style="stroke:#000000;stroke-width:1.5;" x="113.337109" xlink:href="#m2de4b6770a" y="80.578519"/>
     <use style="stroke:#000000;stroke-width:1.5;" x="113.337109" xlink:href="#m2de4b6770a" y="119.748303"/>
     <use style="stroke:#000000;stroke-width:1.5;" x="113.337109" xlink:href="#m2de4b6770a" y="114.573776"/>
     <use style="stroke:#000000;stroke-width:1.5;" x="154.889427" xlink:href="#m2de4b6770a" y="87.182189"/>
     <use style="stroke:#000000;stroke-width:1.5;" x="155.964056" xlink:href="#m2de4b6770a" y="76.673714"/>
     <use style="stroke:#000000;stroke-width:1.5;" x="155.462562" xlink:href="#m2de4b6770a" y="77.907185"/>
     <use style="stroke:#000000;stroke-width:1.5;" x="156.214803" xlink:href="#m2de4b6770a" y="83.978072"/>
     <use style="stroke:#000000;stroke-width:1.5;" x="197.516374" xlink:href="#m2de4b6770a" y="32.723729"/>
     <use style="stroke:#000000;stroke-width:1.5;" x="196.370103" xlink:href="#m2de4b6770a" y="38.799549"/>
     <use style="stroke:#000000;stroke-width:1.5;" x="197.910404" xlink:href="#m2de4b6770a" y="39.389749"/>
    </g>
   </g>
   <g id="line2d_14">
    <defs>
     <path d="M 0 1.5 
C 0.397805 1.5 0.77937 1.341951 1.06066 1.06066 
C 1.341951 0.77937 1.5 0.397805 1.5 0 
C 1.5 -0.397805 1.341951 -0.77937 1.06066 -1.06066 
C 0.77937 -1.341951 0.397805 -1.5 0 -1.5 
C -0.397805 -1.5 -0.77937 -1.341951 -1.06066 -1.06066 
C -1.341951 -0.77937 -1.5 -0.397805 -1.5 0 
C -1.5 0.397805 -1.341951 0.77937 -1.06066 1.06066 
C -0.77937 1.341951 -0.397805 1.5 0 1.5 
z
" id="me1fa0d8442" style="stroke:#000000;stroke-width:1.5;"/>
    </defs>
    <g clip-path="url(#p7ca3f81059)">
     <use style="stroke:#000000;stroke-width:1.5;" x="71.928076" xlink:href="#me1fa0d8442" y="167.892014"/>
     <use style="stroke:#000000;stroke-width:1.5;" x="71.211656" xlink:href="#me1fa0d8442" y="128.784134"/>
     <use style="stroke:#000000;stroke-width:1.5;" x="71.856434" xlink:href="#me1fa0d8442" y="124.131751"/>
     <use style="stroke:#000000;stroke-width:1.5;" x="71.695239" xlink:href="#me1fa0d8442" y="124.943675"/>
     <use style="stroke:#000000;stroke-width:1.5;" x="113.337109" xlink:href="#me1fa0d8442" y="149.019707"/>
     <use style="stroke:#000000;stroke-width:1.5;" x="113.337109" xlink:href="#me1fa0d8442" y="127.58715"/>
     <use style="stroke:#000000;stroke-width:1.5;" x="113.337109" xlink:href="#me1fa0d8442" y="106.47569"/>
     <use style="stroke:#000000;stroke-width:1.5;" x="113.337109" xlink:href="#me1fa0d8442" y="120.912055"/>
     <use style="stroke:#000000;stroke-width:1.5;" x="113.337109" xlink:href="#me1fa0d8442" y="118.809557"/>
     <use style="stroke:#000000;stroke-width:1.5;" x="154.889427" xlink:href="#me1fa0d8442" y="92.189912"/>
     <use style="stroke:#000000;stroke-width:1.5;" x="155.964056" xlink:href="#me1fa0d8442" y="78.400217"/>
     <use style="stroke:#000000;stroke-width:1.5;" x="155.462562" xlink:href="#me1fa0d8442" y="80.614862"/>
     <use style="stroke:#000000;stroke-width:1.5;" x="156.214803" xlink:href="#me1fa0d8442" y="89.997723"/>
     <use style="stroke:#000000;stroke-width:1.5;" x="197.516374" xlink:href="#me1fa0d8442" y="34.178333"/>
     <use style="stroke:#000000;stroke-width:1.5;" x="196.370103" xlink:href="#me1fa0d8442" y="40.906193"/>
     <use style="stroke:#000000;stroke-width:1.5;" x="197.910404" xlink:href="#me1fa0d8442" y="43.058135"/>
    </g>
   </g>
   <g id="patch_3">
    <path d="M 48.859375 139.620625 
L 48.859375 28.68125 
" style="fill:none;stroke:#262626;stroke-linecap:square;stroke-linejoin:miter;stroke-width:1.25;"/>
   </g>
   <g id="patch_4">
    <path d="M 220.8 139.620625 
L 220.8 28.68125 
" style="fill:none;stroke:#262626;stroke-linecap:square;stroke-linejoin:miter;stroke-width:1.25;"/>
   </g>
   <g id="patch_5">
    <path d="M 48.859375 139.620625 
L 220.8 139.620625 
" style="fill:none;stroke:#262626;stroke-linecap:square;stroke-linejoin:miter;stroke-width:1.25;"/>
   </g>
   <g id="patch_6">
    <path d="M 48.859375 28.68125 
L 220.8 28.68125 
" style="fill:none;stroke:#262626;stroke-linecap:square;stroke-linejoin:miter;stroke-width:1.25;"/>
   </g>
   <g id="text_5">
    <text style="fill:#262626;font-family:Times New Roman;font-size:14px;font-style:normal;font-weight:400;text-anchor:middle;" transform="rotate(-0, 134.829687, 22.68125)" x="134.829687" y="22.68125">Ferrihydrite</text>
   </g>
   <g id="legend_1">
    <g id="line2d_15">
     <path d="M 59.659375 43.68125 
L 83.659375 43.68125 
" style="fill:none;stroke:#000000;stroke-linecap:round;"/>
    </g>
    <g id="line2d_16"/>
    <g id="text_6">
     <text style="fill:#262626;font-family:Times New Roman;font-size:12px;font-style:normal;font-weight:400;text-anchor:start;" transform="rotate(-0, 93.259375, 47.88125)" x="93.259375" y="47.88125">Simulation</text>
    </g>
    <g id="line2d_17"/>
    <g id="line2d_18">
     <g>
      <use style="stroke:#000000;stroke-width:1.5;" x="71.659375" xlink:href="#me1fa0d8442" y="60.648125"/>
     </g>
    </g>
    <g id="text_7">
     <text style="fill:#262626;font-family:Times New Roman;font-size:12px;font-style:normal;font-weight:400;text-anchor:start;" transform="rotate(-0, 93.259375, 64.848125)" x="93.259375" y="64.848125">Experiment</text>
    </g>
   </g>
  </g>
  <g id="axes_2">
   <g id="patch_7">
    <path d="M 48.859375 279.24125 
L 220.8 279.24125 
L 220.8 168.301875 
L 48.859375 168.301875 
z
" style="fill:#ffffff;"/>
   </g>
   <g id="matplotlib.axis_3">
    <g id="xtick_6">
     <g id="line2d_19"/>
     <g id="text_8">
      <text style="fill:#262626;font-family:Times New Roman;font-size:12px;font-style:normal;font-weight:400;text-anchor:middle;" transform="rotate(-0, 48.859375, 292.57375)" x="48.859375" y="292.57375">2</text>
     </g>
    </g>
    <g id="xtick_7">
     <g id="line2d_20"/>
     <g id="text_9">
      <text style="fill:#262626;font-family:Times New Roman;font-size:12px;font-style:normal;font-weight:400;text-anchor:middle;" transform="rotate(-0, 91.844531, 292.57375)" x="91.844531" y="292.57375">4</text>
     </g>
    </g>
    <g id="xtick_8">
     <g id="line2d_21"/>
     <g id="text_10">
      <text style="fill:#262626;font-family:Times New Roman;font-size:12px;font-style:normal;font-weight:400;text-anchor:middle;" transform="rotate(-0, 134.829687, 292.57375)" x="134.829687" y="292.57375">6</text>
     </g>
    </g>
    <g id="xtick_9">
     <g id="line2d_22"/>
     <g id="text_11">
      <text style="fill:#262626;font-family:Times New Roman;font-size:12px;font-style:normal;font-weight:400;text-anchor:middle;" transform="rotate(-0, 177.814844, 292.57375)" x="177.814844" y="292.57375">8</text>
     </g>
    </g>
    <g id="xtick_10">
     <g id="line2d_23"/>
     <g id="text_12">
      <text style="fill:#262626;font-family:Times New Roman;font-size:12px;font-style:normal;font-weight:400;text-anchor:middle;" transform="rotate(-0, 220.8, 292.57375)" x="220.8" y="292.57375">10</text>
     </g>
    </g>
    <g id="text_13">
     <text style="fill:#262626;font-family:Times New Roman;font-size:12px;font-style:normal;font-weight:400;text-anchor:middle;" transform="rotate(-0, 134.829687, 308.473125)" x="134.829687" y="308.473125">pH</text>
    </g>
   </g>
   <g id="matplotlib.axis_4">
    <g id="ytick_4">
     <g id="line2d_24"/>
     <g id="text_14">
      <text style="fill:#262626;font-family:Times New Roman;font-size:12px;font-style:normal;font-weight:400;text-anchor:end;" transform="rotate(-0, 43.859375, 274.162552)" x="43.859375" y="274.162552">0.0</text>
     </g>
    </g>
    <g id="ytick_5">
     <g id="line2d_25"/>
     <g id="text_15">
      <text style="fill:#262626;font-family:Times New Roman;font-size:12px;font-style:normal;font-weight:400;text-anchor:end;" transform="rotate(-0, 43.859375, 227.937813)" x="43.859375" y="227.937813">0.5</text>
     </g>
    </g>
    <g id="ytick_6">
     <g id="line2d_26"/>
     <g id="text_16">
      <text style="fill:#262626;font-family:Times New Roman;font-size:12px;font-style:normal;font-weight:400;text-anchor:end;" transform="rotate(-0, 43.859375, 181.713073)" x="43.859375" y="181.713073">1.0</text>
     </g>
    </g>
   </g>
   <g id="LineCollection_3">
    <path clip-path="url(#p6f90e9eb27)" d="M 70.299508 212.066058 
L 70.547683 212.066058 
" style="fill:none;stroke:#000000;"/>
    <path clip-path="url(#p6f90e9eb27)" d="M 70.208669 210.316408 
L 70.351953 210.316408 
" style="fill:none;stroke:#000000;"/>
    <path clip-path="url(#p6f90e9eb27)" d="M 70.156224 207.991642 
L 70.404399 207.991642 
" style="fill:none;stroke:#000000;"/>
    <path clip-path="url(#p6f90e9eb27)" d="M 70.084582 208.540299 
L 70.332757 208.540299 
" style="fill:none;stroke:#000000;"/>
    <path clip-path="url(#p6f90e9eb27)" d="M 113.14138 196.853468 
L 113.389555 196.853468 
" style="fill:none;stroke:#000000;"/>
    <path clip-path="url(#p6f90e9eb27)" d="M 113.210325 194.645105 
L 113.893745 194.645105 
" style="fill:none;stroke:#000000;"/>
    <path clip-path="url(#p6f90e9eb27)" d="M 113.122184 192.174953 
L 113.552035 192.174953 
" style="fill:none;stroke:#000000;"/>
    <path clip-path="url(#p6f90e9eb27)" d="M 113.337109 192.644053 
L 113.337109 192.644053 
" style="fill:none;stroke:#000000;"/>
    <path clip-path="url(#p6f90e9eb27)" d="M 156.178982 191.45587 
L 156.465549 191.45587 
" style="fill:none;stroke:#000000;"/>
    <path clip-path="url(#p6f90e9eb27)" d="M 156.322266 190.722239 
L 156.322266 190.722239 
" style="fill:none;stroke:#000000;"/>
    <path clip-path="url(#p6f90e9eb27)" d="M 156.26982 190.217994 
L 156.517995 190.217994 
" style="fill:none;stroke:#000000;"/>
    <path clip-path="url(#p6f90e9eb27)" d="M 198.99283 190.400301 
L 199.47873 190.400301 
" style="fill:none;stroke:#000000;"/>
    <path clip-path="url(#p6f90e9eb27)" d="M 199.092496 187.607355 
L 199.092496 187.607355 
" style="fill:none;stroke:#000000;"/>
    <path clip-path="url(#p6f90e9eb27)" d="M 199.092496 189.319487 
L 199.092496 189.319487 
" style="fill:none;stroke:#000000;"/>
   </g>
   <g id="LineCollection_4">
    <path clip-path="url(#p6f90e9eb27)" d="M 70.423595 214.771983 
L 70.423595 209.360133 
" style="fill:none;stroke:#000000;"/>
    <path clip-path="url(#p6f90e9eb27)" d="M 70.280311 211.958198 
L 70.280311 208.674618 
" style="fill:none;stroke:#000000;"/>
    <path clip-path="url(#p6f90e9eb27)" d="M 70.280311 209.643497 
L 70.280311 206.339787 
" style="fill:none;stroke:#000000;"/>
    <path clip-path="url(#p6f90e9eb27)" d="M 70.208669 210.130728 
L 70.208669 206.949871 
" style="fill:none;stroke:#000000;"/>
    <path clip-path="url(#p6f90e9eb27)" d="M 113.265467 197.662763 
L 113.265467 196.044173 
" style="fill:none;stroke:#000000;"/>
    <path clip-path="url(#p6f90e9eb27)" d="M 113.552035 195.678479 
L 113.552035 193.611731 
" style="fill:none;stroke:#000000;"/>
    <path clip-path="url(#p6f90e9eb27)" d="M 113.337109 192.448984 
L 113.337109 191.900922 
" style="fill:none;stroke:#000000;"/>
    <path clip-path="url(#p6f90e9eb27)" d="M 113.337109 193.24643 
L 113.337109 192.041675 
" style="fill:none;stroke:#000000;"/>
    <path clip-path="url(#p6f90e9eb27)" d="M 156.322266 192.444323 
L 156.322266 190.467417 
" style="fill:none;stroke:#000000;"/>
    <path clip-path="url(#p6f90e9eb27)" d="M 156.322266 190.981831 
L 156.322266 190.462648 
" style="fill:none;stroke:#000000;"/>
    <path clip-path="url(#p6f90e9eb27)" d="M 156.393908 191.795841 
L 156.393908 188.640147 
" style="fill:none;stroke:#000000;"/>
    <path clip-path="url(#p6f90e9eb27)" d="M 199.23578 190.693063 
L 199.23578 190.10754 
" style="fill:none;stroke:#000000;"/>
    <path clip-path="url(#p6f90e9eb27)" d="M 199.092496 188.497032 
L 199.092496 186.717678 
" style="fill:none;stroke:#000000;"/>
    <path clip-path="url(#p6f90e9eb27)" d="M 199.092496 189.889814 
L 199.092496 188.74916 
" style="fill:none;stroke:#000000;"/>
   </g>
   <g id="line2d_27">
    <path clip-path="url(#p6f90e9eb27)" d="M 48.859375 210.867687 
L 51.008633 210.819389 
L 53.157891 210.767127 
L 55.307148 210.708448 
L 57.456406 210.640557 
L 59.605664 210.560222 
L 61.754922 210.463661 
L 63.90418 210.346432 
L 66.053438 210.203326 
L 68.202695 210.028269 
L 70.351953 209.814278 
L 72.501211 209.553466 
L 74.650469 209.237175 
L 76.799727 208.856246 
L 78.948984 208.401508 
L 81.098242 207.864502 
L 83.2475 207.238457 
L 85.396758 206.519449 
L 87.546016 205.707631 
L 89.695273 204.808291 
L 91.844531 203.832478 
L 93.993789 202.79695 
L 96.143047 201.723285 
L 98.292305 200.63622 
L 100.441562 199.561464 
L 102.59082 198.523385 
L 104.740078 197.54299 
L 106.889336 196.636518 
L 109.038594 195.81478 
L 111.187852 195.083214 
L 113.337109 194.442488 
L 115.486367 193.88944 
L 117.635625 193.418134 
L 119.784883 193.020884 
L 121.934141 192.689138 
L 124.083398 192.414159 
L 126.232656 192.18752 
L 128.381914 192.001412 
L 130.531172 191.848803 
L 132.68043 191.723495 
L 134.829687 191.620102 
L 136.978945 191.533977 
L 139.128203 191.461122 
L 141.277461 191.398084 
L 143.426719 191.341851 
L 145.575977 191.289754 
L 147.725234 191.239394 
L 149.874492 191.18857 
L 152.02375 191.135244 
L 154.173008 191.077526 
L 156.322266 191.013688 
L 158.471523 190.942216 
L 160.620781 190.861889 
L 162.770039 190.771887 
L 164.919297 190.671897 
L 167.068555 190.562216 
L 169.217812 190.443813 
L 171.36707 190.318323 
L 173.516328 190.187968 
L 175.665586 190.055405 
L 177.814844 189.923512 
L 179.964102 189.795146 
L 182.113359 189.672908 
L 184.262617 189.558959 
L 186.411875 189.454894 
L 188.561133 189.361695 
L 190.710391 189.27976 
L 192.859648 189.208982 
L 195.008906 189.148862 
L 197.158164 189.098639 
L 199.307422 189.057397 
L 201.45668 189.024171 
L 203.605937 188.998016 
L 205.755195 188.978051 
L 207.904453 188.963484 
L 210.053711 188.953617 
L 212.202969 188.947833 
L 214.352227 188.945579 
L 216.501484 188.946344 
L 218.650742 188.949638 
L 220.8 188.954981 
" style="fill:none;stroke:#000000;stroke-linecap:round;"/>
   </g>
   <g id="line2d_28">
    <g clip-path="url(#p6f90e9eb27)">
     <use style="stroke:#000000;stroke-width:1.5;" x="70.299508" xlink:href="#md428724865" y="212.066058"/>
     <use style="stroke:#000000;stroke-width:1.5;" x="70.208669" xlink:href="#md428724865" y="210.316408"/>
     <use style="stroke:#000000;stroke-width:1.5;" x="70.156224" xlink:href="#md428724865" y="207.991642"/>
     <use style="stroke:#000000;stroke-width:1.5;" x="70.084582" xlink:href="#md428724865" y="208.540299"/>
     <use style="stroke:#000000;stroke-width:1.5;" x="113.14138" xlink:href="#md428724865" y="196.853468"/>
     <use style="stroke:#000000;stroke-width:1.5;" x="113.210325" xlink:href="#md428724865" y="194.645105"/>
     <use style="stroke:#000000;stroke-width:1.5;" x="113.122184" xlink:href="#md428724865" y="192.174953"/>
     <use style="stroke:#000000;stroke-width:1.5;" x="113.337109" xlink:href="#md428724865" y="192.644053"/>
     <use style="stroke:#000000;stroke-width:1.5;" x="156.178982" xlink:href="#md428724865" y="191.45587"/>
     <use style="stroke:#000000;stroke-width:1.5;" x="156.322266" xlink:href="#md428724865" y="190.722239"/>
     <use style="stroke:#000000;stroke-width:1.5;" x="156.26982" xlink:href="#md428724865" y="190.217994"/>
     <use style="stroke:#000000;stroke-width:1.5;" x="198.99283" xlink:href="#md428724865" y="190.400301"/>
     <use style="stroke:#000000;stroke-width:1.5;" x="199.092496" xlink:href="#md428724865" y="187.607355"/>
     <use style="stroke:#000000;stroke-width:1.5;" x="199.092496" xlink:href="#md428724865" y="189.319487"/>
    </g>
   </g>
   <g id="line2d_29">
    <g clip-path="url(#p6f90e9eb27)">
     <use style="stroke:#000000;stroke-width:1.5;" x="70.547683" xlink:href="#md428724865" y="212.066058"/>
     <use style="stroke:#000000;stroke-width:1.5;" x="70.351953" xlink:href="#md428724865" y="210.316408"/>
     <use style="stroke:#000000;stroke-width:1.5;" x="70.404399" xlink:href="#md428724865" y="207.991642"/>
     <use style="stroke:#000000;stroke-width:1.5;" x="70.332757" xlink:href="#md428724865" y="208.540299"/>
     <use style="stroke:#000000;stroke-width:1.5;" x="113.389555" xlink:href="#md428724865" y="196.853468"/>
     <use style="stroke:#000000;stroke-width:1.5;" x="113.893745" xlink:href="#md428724865" y="194.645105"/>
     <use style="stroke:#000000;stroke-width:1.5;" x="113.552035" xlink:href="#md428724865" y="192.174953"/>
     <use style="stroke:#000000;stroke-width:1.5;" x="113.337109" xlink:href="#md428724865" y="192.644053"/>
     <use style="stroke:#000000;stroke-width:1.5;" x="156.465549" xlink:href="#md428724865" y="191.45587"/>
     <use style="stroke:#000000;stroke-width:1.5;" x="156.322266" xlink:href="#md428724865" y="190.722239"/>
     <use style="stroke:#000000;stroke-width:1.5;" x="156.517995" xlink:href="#md428724865" y="190.217994"/>
     <use style="stroke:#000000;stroke-width:1.5;" x="199.47873" xlink:href="#md428724865" y="190.400301"/>
     <use style="stroke:#000000;stroke-width:1.5;" x="199.092496" xlink:href="#md428724865" y="187.607355"/>
     <use style="stroke:#000000;stroke-width:1.5;" x="199.092496" xlink:href="#md428724865" y="189.319487"/>
    </g>
   </g>
   <g id="line2d_30">
    <g clip-path="url(#p6f90e9eb27)">
     <use style="stroke:#000000;stroke-width:1.5;" x="70.423595" xlink:href="#m2de4b6770a" y="214.771983"/>
     <use style="stroke:#000000;stroke-width:1.5;" x="70.280311" xlink:href="#m2de4b6770a" y="211.958198"/>
     <use style="stroke:#000000;stroke-width:1.5;" x="70.280311" xlink:href="#m2de4b6770a" y="209.643497"/>
     <use style="stroke:#000000;stroke-width:1.5;" x="70.208669" xlink:href="#m2de4b6770a" y="210.130728"/>
     <use style="stroke:#000000;stroke-width:1.5;" x="113.265467" xlink:href="#m2de4b6770a" y="197.662763"/>
     <use style="stroke:#000000;stroke-width:1.5;" x="113.552035" xlink:href="#m2de4b6770a" y="195.678479"/>
     <use style="stroke:#000000;stroke-width:1.5;" x="113.337109" xlink:href="#m2de4b6770a" y="192.448984"/>
     <use style="stroke:#000000;stroke-width:1.5;" x="113.337109" xlink:href="#m2de4b6770a" y="193.24643"/>
     <use style="stroke:#000000;stroke-width:1.5;" x="156.322266" xlink:href="#m2de4b6770a" y="192.444323"/>
     <use style="stroke:#000000;stroke-width:1.5;" x="156.322266" xlink:href="#m2de4b6770a" y="190.981831"/>
     <use style="stroke:#000000;stroke-width:1.5;" x="156.393908" xlink:href="#m2de4b6770a" y="191.795841"/>
     <use style="stroke:#000000;stroke-width:1.5;" x="199.23578" xlink:href="#m2de4b6770a" y="190.693063"/>
     <use style="stroke:#000000;stroke-width:1.5;" x="199.092496" xlink:href="#m2de4b6770a" y="188.497032"/>
     <use style="stroke:#000000;stroke-width:1.5;" x="199.092496" xlink:href="#m2de4b6770a" y="189.889814"/>
    </g>
   </g>
   <g id="line2d_31">
    <g clip-path="url(#p6f90e9eb27)">
     <use style="stroke:#000000;stroke-width:1.5;" x="70.423595" xlink:href="#m2de4b6770a" y="209.360133"/>
     <use style="stroke:#000000;stroke-width:1.5;" x="70.280311" xlink:href="#m2de4b6770a" y="208.674618"/>
     <use style="stroke:#000000;stroke-width:1.5;" x="70.280311" xlink:href="#m2de4b6770a" y="206.339787"/>
     <use style="stroke:#000000;stroke-width:1.5;" x="70.208669" xlink:href="#m2de4b6770a" y="206.949871"/>
     <use style="stroke:#000000;stroke-width:1.5;" x="113.265467" xlink:href="#m2de4b6770a" y="196.044173"/>
     <use style="stroke:#000000;stroke-width:1.5;" x="113.552035" xlink:href="#m2de4b6770a" y="193.611731"/>
     <use style="stroke:#000000;stroke-width:1.5;" x="113.337109" xlink:href="#m2de4b6770a" y="191.900922"/>
     <use style="stroke:#000000;stroke-width:1.5;" x="113.337109" xlink:href="#m2de4b6770a" y="192.041675"/>
     <use style="stroke:#000000;stroke-width:1.5;" x="156.322266" xlink:href="#m2de4b6770a" y="190.467417"/>
     <use style="stroke:#000000;stroke-width:1.5;" x="156.322266" xlink:href="#m2de4b6770a" y="190.462648"/>
     <use style="stroke:#000000;stroke-width:1.5;" x="156.393908" xlink:href="#m2de4b6770a" y="188.640147"/>
     <use style="stroke:#000000;stroke-width:1.5;" x="199.23578" xlink:href="#m2de4b6770a" y="190.10754"/>
     <use style="stroke:#000000;stroke-width:1.5;" x="199.092496" xlink:href="#m2de4b6770a" y="186.717678"/>
     <use style="stroke:#000000;stroke-width:1.5;" x="199.092496" xlink:href="#m2de4b6770a" y="188.74916"/>
    </g>
   </g>
   <g id="line2d_32">
    <g clip-path="url(#p6f90e9eb27)">
     <use style="stroke:#000000;stroke-width:1.5;" x="70.423595" xlink:href="#me1fa0d8442" y="212.066058"/>
     <use style="stroke:#000000;stroke-width:1.5;" x="70.280311" xlink:href="#me1fa0d8442" y="210.316408"/>
     <use style="stroke:#000000;stroke-width:1.5;" x="70.280311" xlink:href="#me1fa0d8442" y="207.991642"/>
     <use style="stroke:#000000;stroke-width:1.5;" x="70.208669" xlink:href="#me1fa0d8442" y="208.540299"/>
     <use style="stroke:#000000;stroke-width:1.5;" x="113.265467" xlink:href="#me1fa0d8442" y="196.853468"/>
     <use style="stroke:#000000;stroke-width:1.5;" x="113.552035" xlink:href="#me1fa0d8442" y="194.645105"/>
     <use style="stroke:#000000;stroke-width:1.5;" x="113.337109" xlink:href="#me1fa0d8442" y="192.174953"/>
     <use style="stroke:#000000;stroke-width:1.5;" x="113.337109" xlink:href="#me1fa0d8442" y="192.644053"/>
     <use style="stroke:#000000;stroke-width:1.5;" x="156.322266" xlink:href="#me1fa0d8442" y="191.45587"/>
     <use style="stroke:#000000;stroke-width:1.5;" x="156.322266" xlink:href="#me1fa0d8442" y="190.722239"/>
     <use style="stroke:#000000;stroke-width:1.5;" x="156.393908" xlink:href="#me1fa0d8442" y="190.217994"/>
     <use style="stroke:#000000;stroke-width:1.5;" x="199.23578" xlink:href="#me1fa0d8442" y="190.400301"/>
     <use style="stroke:#000000;stroke-width:1.5;" x="199.092496" xlink:href="#me1fa0d8442" y="187.607355"/>
     <use style="stroke:#000000;stroke-width:1.5;" x="199.092496" xlink:href="#me1fa0d8442" y="189.319487"/>
    </g>
   </g>
   <g id="patch_8">
    <path d="M 48.859375 279.24125 
L 48.859375 168.301875 
" style="fill:none;stroke:#262626;stroke-linecap:square;stroke-linejoin:miter;stroke-width:1.25;"/>
   </g>
   <g id="patch_9">
    <path d="M 220.8 279.24125 
L 220.8 168.301875 
" style="fill:none;stroke:#262626;stroke-linecap:square;stroke-linejoin:miter;stroke-width:1.25;"/>
   </g>
   <g id="patch_10">
    <path d="M 48.859375 279.24125 
L 220.8 279.24125 
" style="fill:none;stroke:#262626;stroke-linecap:square;stroke-linejoin:miter;stroke-width:1.25;"/>
   </g>
   <g id="patch_11">
    <path d="M 48.859375 168.301875 
L 220.8 168.301875 
" style="fill:none;stroke:#262626;stroke-linecap:square;stroke-linejoin:miter;stroke-width:1.25;"/>
   </g>
   <g id="text_17">
    <text style="fill:#262626;font-family:Times New Roman;font-size:14px;font-style:normal;font-weight:400;text-anchor:middle;" transform="rotate(-0, 134.829687, 162.301875)" x="134.829687" y="162.301875">Sodium Montmorillonite</text>
   </g>
   <g id="legend_2">
    <g id="line2d_33">
     <path d="M 59.659375 244.7075 
L 83.659375 244.7075 
" style="fill:none;stroke:#000000;stroke-linecap:round;"/>
    </g>
    <g id="line2d_34"/>
    <g id="text_18">
     <text style="fill:#262626;font-family:Times New Roman;font-size:12px;font-style:normal;font-weight:400;text-anchor:start;" transform="rotate(-0, 93.259375, 248.9075)" x="93.259375" y="248.9075">Simulation</text>
    </g>
    <g id="line2d_35"/>
    <g id="line2d_36">
     <g>
      <use style="stroke:#000000;stroke-width:1.5;" x="71.659375" xlink:href="#me1fa0d8442" y="261.674375"/>
     </g>
    </g>
    <g id="text_19">
     <text style="fill:#262626;font-family:Times New Roman;font-size:12px;font-style:normal;font-weight:400;text-anchor:start;" transform="rotate(-0, 93.259375, 265.874375)" x="93.259375" y="265.874375">Experiment</text>
    </g>
   </g>
  </g>
 </g>
 <defs>
  <clipPath id="p7ca3f81059">
   <rect height="110.939375" width="171.940625" x="48.859375" y="28.68125"/>
  </clipPath>
  <clipPath id="p6f90e9eb27">
   <rect height="110.939375" width="171.940625" x="48.859375" y="168.301875"/>
  </clipPath>
 </defs>
</svg>
