<?xml version="1.0" encoding="utf-8" standalone="no"?>
<!DOCTYPE svg PUBLIC "-//W3C//DTD SVG 1.1//EN"
  "http://www.w3.org/Graphics/SVG/1.1/DTD/svg11.dtd">
<!-- Created with matplotlib (http://matplotlib.org/) -->
<svg height="720pt" version="1.1" viewBox="0 0 1440 720" width="1440pt" xmlns="http://www.w3.org/2000/svg" xmlns:xlink="http://www.w3.org/1999/xlink">
 <defs>
  <style type="text/css">
*{stroke-linecap:butt;stroke-linejoin:round;stroke-miterlimit:100000;}
  </style>
 </defs>
 <g id="figure_1">
  <g id="patch_1">
   <path d="M 0 720 
L 1440 720 
L 1440 0 
L 0 0 
z
" style="fill:#ffffff;"/>
  </g>
  <g id="axes_1">
   <g id="patch_2">
    <path d="M 180 648 
L 1296 648 
L 1296 72 
L 180 72 
z
" style="fill:#ffffff;"/>
   </g>
   <g id="matplotlib.axis_1">
    <g id="xtick_1">
     <g id="line2d_1">
      <defs>
       <path d="M 0 0 
L 0 6 
" id="med2824c5e1" style="stroke:#262626;stroke-width:1.6;"/>
      </defs>
      <g>
       <use style="fill:#262626;stroke:#262626;stroke-width:1.6;" x="180.0" xlink:href="#med2824c5e1" y="648.0"/>
      </g>
     </g>
     <g id="text_1">
      <!-- 2 -->
      <defs>
       <path d="M 50.34375 8.453125 
L 50.34375 0 
L 3.03125 0 
Q 2.9375 3.171875 4.046875 6.109375 
Q 5.859375 10.9375 9.828125 15.625 
Q 13.8125 20.3125 21.34375 26.46875 
Q 33.015625 36.03125 37.109375 41.625 
Q 41.21875 47.21875 41.21875 52.203125 
Q 41.21875 57.421875 37.46875 61 
Q 33.734375 64.59375 27.734375 64.59375 
Q 21.390625 64.59375 17.578125 60.78125 
Q 13.765625 56.984375 13.71875 50.25 
L 4.6875 51.171875 
Q 5.609375 61.28125 11.65625 66.578125 
Q 17.71875 71.875 27.9375 71.875 
Q 38.234375 71.875 44.234375 66.15625 
Q 50.25 60.453125 50.25 52 
Q 50.25 47.703125 48.484375 43.546875 
Q 46.734375 39.40625 42.65625 34.8125 
Q 38.578125 30.21875 29.109375 22.21875 
Q 21.1875 15.578125 18.9375 13.203125 
Q 16.703125 10.84375 15.234375 8.453125 
z
" id="ArialMT-32"/>
      </defs>
      <g style="fill:#262626;" transform="translate(175.55125 676.6525)scale(0.16 -0.16)">
       <use xlink:href="#ArialMT-32"/>
      </g>
     </g>
    </g>
    <g id="xtick_2">
     <g id="line2d_2">
      <g>
       <use style="fill:#262626;stroke:#262626;stroke-width:1.6;" x="319.5" xlink:href="#med2824c5e1" y="648.0"/>
      </g>
     </g>
     <g id="text_2">
      <!-- 3 -->
      <defs>
       <path d="M 4.203125 18.890625 
L 12.984375 20.0625 
Q 14.5 12.59375 18.140625 9.296875 
Q 21.78125 6 27 6 
Q 33.203125 6 37.46875 10.296875 
Q 41.75 14.59375 41.75 20.953125 
Q 41.75 27 37.796875 30.921875 
Q 33.84375 34.859375 27.734375 34.859375 
Q 25.25 34.859375 21.53125 33.890625 
L 22.515625 41.609375 
Q 23.390625 41.5 23.921875 41.5 
Q 29.546875 41.5 34.03125 44.421875 
Q 38.53125 47.359375 38.53125 53.46875 
Q 38.53125 58.296875 35.25 61.46875 
Q 31.984375 64.65625 26.8125 64.65625 
Q 21.6875 64.65625 18.265625 61.421875 
Q 14.84375 58.203125 13.875 51.765625 
L 5.078125 53.328125 
Q 6.6875 62.15625 12.390625 67.015625 
Q 18.109375 71.875 26.609375 71.875 
Q 32.46875 71.875 37.390625 69.359375 
Q 42.328125 66.84375 44.9375 62.5 
Q 47.5625 58.15625 47.5625 53.265625 
Q 47.5625 48.640625 45.0625 44.828125 
Q 42.578125 41.015625 37.703125 38.765625 
Q 44.046875 37.3125 47.5625 32.6875 
Q 51.078125 28.078125 51.078125 21.140625 
Q 51.078125 11.765625 44.234375 5.25 
Q 37.40625 -1.265625 26.953125 -1.265625 
Q 17.53125 -1.265625 11.296875 4.34375 
Q 5.078125 9.96875 4.203125 18.890625 
" id="ArialMT-33"/>
      </defs>
      <g style="fill:#262626;" transform="translate(315.05125 676.6525)scale(0.16 -0.16)">
       <use xlink:href="#ArialMT-33"/>
      </g>
     </g>
    </g>
    <g id="xtick_3">
     <g id="line2d_3">
      <g>
       <use style="fill:#262626;stroke:#262626;stroke-width:1.6;" x="459.0" xlink:href="#med2824c5e1" y="648.0"/>
      </g>
     </g>
     <g id="text_3">
      <!-- 4 -->
      <defs>
       <path d="M 32.328125 0 
L 32.328125 17.140625 
L 1.265625 17.140625 
L 1.265625 25.203125 
L 33.9375 71.578125 
L 41.109375 71.578125 
L 41.109375 25.203125 
L 50.78125 25.203125 
L 50.78125 17.140625 
L 41.109375 17.140625 
L 41.109375 0 
z
M 32.328125 25.203125 
L 32.328125 57.46875 
L 9.90625 25.203125 
z
" id="ArialMT-34"/>
      </defs>
      <g style="fill:#262626;" transform="translate(454.55125 676.6525)scale(0.16 -0.16)">
       <use xlink:href="#ArialMT-34"/>
      </g>
     </g>
    </g>
    <g id="xtick_4">
     <g id="line2d_4">
      <g>
       <use style="fill:#262626;stroke:#262626;stroke-width:1.6;" x="598.5" xlink:href="#med2824c5e1" y="648.0"/>
      </g>
     </g>
     <g id="text_4">
      <!-- 5 -->
      <defs>
       <path d="M 4.15625 18.75 
L 13.375 19.53125 
Q 14.40625 12.796875 18.140625 9.390625 
Q 21.875 6 27.15625 6 
Q 33.5 6 37.890625 10.78125 
Q 42.28125 15.578125 42.28125 23.484375 
Q 42.28125 31 38.0625 35.34375 
Q 33.84375 39.703125 27 39.703125 
Q 22.75 39.703125 19.328125 37.765625 
Q 15.921875 35.84375 13.96875 32.765625 
L 5.71875 33.84375 
L 12.640625 70.609375 
L 48.25 70.609375 
L 48.25 62.203125 
L 19.671875 62.203125 
L 15.828125 42.96875 
Q 22.265625 47.46875 29.34375 47.46875 
Q 38.71875 47.46875 45.15625 40.96875 
Q 51.609375 34.46875 51.609375 24.265625 
Q 51.609375 14.546875 45.953125 7.46875 
Q 39.0625 -1.21875 27.15625 -1.21875 
Q 17.390625 -1.21875 11.203125 4.25 
Q 5.03125 9.71875 4.15625 18.75 
" id="ArialMT-35"/>
      </defs>
      <g style="fill:#262626;" transform="translate(594.05125 676.6525)scale(0.16 -0.16)">
       <use xlink:href="#ArialMT-35"/>
      </g>
     </g>
    </g>
    <g id="xtick_5">
     <g id="line2d_5">
      <g>
       <use style="fill:#262626;stroke:#262626;stroke-width:1.6;" x="738.0" xlink:href="#med2824c5e1" y="648.0"/>
      </g>
     </g>
     <g id="text_5">
      <!-- 6 -->
      <defs>
       <path d="M 49.75 54.046875 
L 41.015625 53.375 
Q 39.84375 58.546875 37.703125 60.890625 
Q 34.125 64.65625 28.90625 64.65625 
Q 24.703125 64.65625 21.53125 62.3125 
Q 17.390625 59.28125 14.984375 53.46875 
Q 12.59375 47.65625 12.5 36.921875 
Q 15.671875 41.75 20.265625 44.09375 
Q 24.859375 46.4375 29.890625 46.4375 
Q 38.671875 46.4375 44.84375 39.96875 
Q 51.03125 33.5 51.03125 23.25 
Q 51.03125 16.5 48.125 10.71875 
Q 45.21875 4.9375 40.140625 1.859375 
Q 35.0625 -1.21875 28.609375 -1.21875 
Q 17.625 -1.21875 10.6875 6.859375 
Q 3.765625 14.9375 3.765625 33.5 
Q 3.765625 54.25 11.421875 63.671875 
Q 18.109375 71.875 29.4375 71.875 
Q 37.890625 71.875 43.28125 67.140625 
Q 48.6875 62.40625 49.75 54.046875 
M 13.875 23.1875 
Q 13.875 18.65625 15.796875 14.5 
Q 17.71875 10.359375 21.1875 8.171875 
Q 24.65625 6 28.46875 6 
Q 34.03125 6 38.03125 10.484375 
Q 42.046875 14.984375 42.046875 22.703125 
Q 42.046875 30.125 38.078125 34.390625 
Q 34.125 38.671875 28.125 38.671875 
Q 22.171875 38.671875 18.015625 34.390625 
Q 13.875 30.125 13.875 23.1875 
" id="ArialMT-36"/>
      </defs>
      <g style="fill:#262626;" transform="translate(733.55125 676.6525)scale(0.16 -0.16)">
       <use xlink:href="#ArialMT-36"/>
      </g>
     </g>
    </g>
    <g id="xtick_6">
     <g id="line2d_6">
      <g>
       <use style="fill:#262626;stroke:#262626;stroke-width:1.6;" x="877.5" xlink:href="#med2824c5e1" y="648.0"/>
      </g>
     </g>
     <g id="text_6">
      <!-- 7 -->
      <defs>
       <path d="M 4.734375 62.203125 
L 4.734375 70.65625 
L 51.078125 70.65625 
L 51.078125 63.8125 
Q 44.234375 56.546875 37.515625 44.484375 
Q 30.8125 32.421875 27.15625 19.671875 
Q 24.515625 10.6875 23.78125 0 
L 14.75 0 
Q 14.890625 8.453125 18.0625 20.40625 
Q 21.234375 32.375 27.171875 43.484375 
Q 33.109375 54.59375 39.796875 62.203125 
z
" id="ArialMT-37"/>
      </defs>
      <g style="fill:#262626;" transform="translate(873.05125 676.6525)scale(0.16 -0.16)">
       <use xlink:href="#ArialMT-37"/>
      </g>
     </g>
    </g>
    <g id="xtick_7">
     <g id="line2d_7">
      <g>
       <use style="fill:#262626;stroke:#262626;stroke-width:1.6;" x="1017.0" xlink:href="#med2824c5e1" y="648.0"/>
      </g>
     </g>
     <g id="text_7">
      <!-- 8 -->
      <defs>
       <path d="M 17.671875 38.8125 
Q 12.203125 40.828125 9.5625 44.53125 
Q 6.9375 48.25 6.9375 53.421875 
Q 6.9375 61.234375 12.546875 66.546875 
Q 18.171875 71.875 27.484375 71.875 
Q 36.859375 71.875 42.578125 66.421875 
Q 48.296875 60.984375 48.296875 53.171875 
Q 48.296875 48.1875 45.671875 44.5 
Q 43.0625 40.828125 37.75 38.8125 
Q 44.34375 36.671875 47.78125 31.875 
Q 51.21875 27.09375 51.21875 20.453125 
Q 51.21875 11.28125 44.71875 5.03125 
Q 38.234375 -1.21875 27.640625 -1.21875 
Q 17.046875 -1.21875 10.546875 5.046875 
Q 4.046875 11.328125 4.046875 20.703125 
Q 4.046875 27.6875 7.59375 32.390625 
Q 11.140625 37.109375 17.671875 38.8125 
M 15.921875 53.71875 
Q 15.921875 48.640625 19.1875 45.40625 
Q 22.46875 42.1875 27.6875 42.1875 
Q 32.765625 42.1875 36.015625 45.375 
Q 39.265625 48.578125 39.265625 53.21875 
Q 39.265625 58.0625 35.90625 61.359375 
Q 32.5625 64.65625 27.59375 64.65625 
Q 22.5625 64.65625 19.234375 61.421875 
Q 15.921875 58.203125 15.921875 53.71875 
M 13.09375 20.65625 
Q 13.09375 16.890625 14.875 13.375 
Q 16.65625 9.859375 20.171875 7.921875 
Q 23.6875 6 27.734375 6 
Q 34.03125 6 38.125 10.046875 
Q 42.234375 14.109375 42.234375 20.359375 
Q 42.234375 26.703125 38.015625 30.859375 
Q 33.796875 35.015625 27.4375 35.015625 
Q 21.234375 35.015625 17.15625 30.90625 
Q 13.09375 26.8125 13.09375 20.65625 
" id="ArialMT-38"/>
      </defs>
      <g style="fill:#262626;" transform="translate(1012.55125 676.6525)scale(0.16 -0.16)">
       <use xlink:href="#ArialMT-38"/>
      </g>
     </g>
    </g>
    <g id="xtick_8">
     <g id="line2d_8">
      <g>
       <use style="fill:#262626;stroke:#262626;stroke-width:1.6;" x="1156.5" xlink:href="#med2824c5e1" y="648.0"/>
      </g>
     </g>
     <g id="text_8">
      <!-- 9 -->
      <defs>
       <path d="M 5.46875 16.546875 
L 13.921875 17.328125 
Q 14.984375 11.375 18.015625 8.6875 
Q 21.046875 6 25.78125 6 
Q 29.828125 6 32.875 7.859375 
Q 35.9375 9.71875 37.890625 12.8125 
Q 39.84375 15.921875 41.15625 21.1875 
Q 42.484375 26.46875 42.484375 31.9375 
Q 42.484375 32.515625 42.4375 33.6875 
Q 39.796875 29.5 35.234375 26.875 
Q 30.671875 24.265625 25.34375 24.265625 
Q 16.453125 24.265625 10.296875 30.703125 
Q 4.15625 37.15625 4.15625 47.703125 
Q 4.15625 58.59375 10.578125 65.234375 
Q 17 71.875 26.65625 71.875 
Q 33.640625 71.875 39.421875 68.109375 
Q 45.21875 64.359375 48.21875 57.390625 
Q 51.21875 50.4375 51.21875 37.25 
Q 51.21875 23.53125 48.234375 15.40625 
Q 45.265625 7.28125 39.375 3.03125 
Q 33.5 -1.21875 25.59375 -1.21875 
Q 17.1875 -1.21875 11.859375 3.4375 
Q 6.546875 8.109375 5.46875 16.546875 
M 41.453125 48.140625 
Q 41.453125 55.71875 37.421875 60.15625 
Q 33.40625 64.59375 27.734375 64.59375 
Q 21.875 64.59375 17.53125 59.8125 
Q 13.1875 55.03125 13.1875 47.40625 
Q 13.1875 40.578125 17.3125 36.296875 
Q 21.4375 32.03125 27.484375 32.03125 
Q 33.59375 32.03125 37.515625 36.296875 
Q 41.453125 40.578125 41.453125 48.140625 
" id="ArialMT-39"/>
      </defs>
      <g style="fill:#262626;" transform="translate(1152.05125 676.6525)scale(0.16 -0.16)">
       <use xlink:href="#ArialMT-39"/>
      </g>
     </g>
    </g>
    <g id="xtick_9">
     <g id="line2d_9">
      <g>
       <use style="fill:#262626;stroke:#262626;stroke-width:1.6;" x="1296.0" xlink:href="#med2824c5e1" y="648.0"/>
      </g>
     </g>
     <g id="text_9">
      <!-- 10 -->
      <defs>
       <path d="M 4.15625 35.296875 
Q 4.15625 48 6.765625 55.734375 
Q 9.375 63.484375 14.515625 67.671875 
Q 19.671875 71.875 27.484375 71.875 
Q 33.25 71.875 37.59375 69.546875 
Q 41.9375 67.234375 44.765625 62.859375 
Q 47.609375 58.5 49.21875 52.21875 
Q 50.828125 45.953125 50.828125 35.296875 
Q 50.828125 22.703125 48.234375 14.96875 
Q 45.65625 7.234375 40.5 3 
Q 35.359375 -1.21875 27.484375 -1.21875 
Q 17.140625 -1.21875 11.234375 6.203125 
Q 4.15625 15.140625 4.15625 35.296875 
M 13.1875 35.296875 
Q 13.1875 17.671875 17.3125 11.828125 
Q 21.4375 6 27.484375 6 
Q 33.546875 6 37.671875 11.859375 
Q 41.796875 17.71875 41.796875 35.296875 
Q 41.796875 52.984375 37.671875 58.78125 
Q 33.546875 64.59375 27.390625 64.59375 
Q 21.34375 64.59375 17.71875 59.46875 
Q 13.1875 52.9375 13.1875 35.296875 
" id="ArialMT-30"/>
       <path d="M 37.25 0 
L 28.46875 0 
L 28.46875 56 
Q 25.296875 52.984375 20.140625 49.953125 
Q 14.984375 46.921875 10.890625 45.40625 
L 10.890625 53.90625 
Q 18.265625 57.375 23.78125 62.296875 
Q 29.296875 67.234375 31.59375 71.875 
L 37.25 71.875 
z
" id="ArialMT-31"/>
      </defs>
      <g style="fill:#262626;" transform="translate(1287.1025 676.6525)scale(0.16 -0.16)">
       <use xlink:href="#ArialMT-31"/>
       <use x="55.615234375" xlink:href="#ArialMT-30"/>
      </g>
     </g>
    </g>
    <g id="text_10">
     <!-- pH -->
     <defs>
      <path d="M 8.015625 0 
L 8.015625 71.578125 
L 17.484375 71.578125 
L 17.484375 42.1875 
L 54.6875 42.1875 
L 54.6875 71.578125 
L 64.15625 71.578125 
L 64.15625 0 
L 54.6875 0 
L 54.6875 33.734375 
L 17.484375 33.734375 
L 17.484375 0 
z
" id="ArialMT-48"/>
      <path d="M 6.59375 -19.875 
L 6.59375 51.859375 
L 14.59375 51.859375 
L 14.59375 45.125 
Q 17.4375 49.078125 21 51.046875 
Q 24.5625 53.03125 29.640625 53.03125 
Q 36.28125 53.03125 41.359375 49.609375 
Q 46.4375 46.1875 49.015625 39.953125 
Q 51.609375 33.734375 51.609375 26.3125 
Q 51.609375 18.359375 48.75 11.984375 
Q 45.90625 5.609375 40.453125 2.21875 
Q 35.015625 -1.171875 29 -1.171875 
Q 24.609375 -1.171875 21.109375 0.6875 
Q 17.625 2.546875 15.375 5.375 
L 15.375 -19.875 
z
M 14.546875 25.640625 
Q 14.546875 15.625 18.59375 10.84375 
Q 22.65625 6.0625 28.421875 6.0625 
Q 34.28125 6.0625 38.453125 11.015625 
Q 42.625 15.96875 42.625 26.375 
Q 42.625 36.28125 38.546875 41.203125 
Q 34.46875 46.140625 28.8125 46.140625 
Q 23.1875 46.140625 18.859375 40.890625 
Q 14.546875 35.640625 14.546875 25.640625 
" id="ArialMT-70"/>
     </defs>
     <g style="fill:#262626;" transform="translate(726.751125 697.43025)scale(0.176 -0.176)">
      <use xlink:href="#ArialMT-70"/>
      <use x="55.615234375" xlink:href="#ArialMT-48"/>
     </g>
    </g>
   </g>
   <g id="matplotlib.axis_2">
    <g id="ytick_1">
     <g id="line2d_10">
      <defs>
       <path d="M 0 0 
L -6 0 
" id="m4a9d0debc9" style="stroke:#262626;stroke-width:1.6;"/>
      </defs>
      <g>
       <use style="fill:#262626;stroke:#262626;stroke-width:1.6;" x="180.0" xlink:href="#m4a9d0debc9" y="648.0"/>
      </g>
     </g>
     <g id="text_11">
      <!-- 0.0 -->
      <defs>
       <path d="M 9.078125 0 
L 9.078125 10.015625 
L 19.09375 10.015625 
L 19.09375 0 
z
" id="ArialMT-2e"/>
      </defs>
      <g style="fill:#262626;" transform="translate(140.56 652.13625)scale(0.16 -0.16)">
       <use xlink:href="#ArialMT-30"/>
       <use x="55.615234375" xlink:href="#ArialMT-2e"/>
       <use x="83.3984375" xlink:href="#ArialMT-30"/>
      </g>
     </g>
    </g>
    <g id="ytick_2">
     <g id="line2d_11">
      <g>
       <use style="fill:#262626;stroke:#262626;stroke-width:1.6;" x="180.0" xlink:href="#m4a9d0debc9" y="532.8"/>
      </g>
     </g>
     <g id="text_12">
      <!-- 0.2 -->
      <g style="fill:#262626;" transform="translate(140.56 536.93625)scale(0.16 -0.16)">
       <use xlink:href="#ArialMT-30"/>
       <use x="55.615234375" xlink:href="#ArialMT-2e"/>
       <use x="83.3984375" xlink:href="#ArialMT-32"/>
      </g>
     </g>
    </g>
    <g id="ytick_3">
     <g id="line2d_12">
      <g>
       <use style="fill:#262626;stroke:#262626;stroke-width:1.6;" x="180.0" xlink:href="#m4a9d0debc9" y="417.6"/>
      </g>
     </g>
     <g id="text_13">
      <!-- 0.4 -->
      <g style="fill:#262626;" transform="translate(140.56 421.73625)scale(0.16 -0.16)">
       <use xlink:href="#ArialMT-30"/>
       <use x="55.615234375" xlink:href="#ArialMT-2e"/>
       <use x="83.3984375" xlink:href="#ArialMT-34"/>
      </g>
     </g>
    </g>
    <g id="ytick_4">
     <g id="line2d_13">
      <g>
       <use style="fill:#262626;stroke:#262626;stroke-width:1.6;" x="180.0" xlink:href="#m4a9d0debc9" y="302.4"/>
      </g>
     </g>
     <g id="text_14">
      <!-- 0.6 -->
      <g style="fill:#262626;" transform="translate(140.56 306.53625)scale(0.16 -0.16)">
       <use xlink:href="#ArialMT-30"/>
       <use x="55.615234375" xlink:href="#ArialMT-2e"/>
       <use x="83.3984375" xlink:href="#ArialMT-36"/>
      </g>
     </g>
    </g>
    <g id="ytick_5">
     <g id="line2d_14">
      <g>
       <use style="fill:#262626;stroke:#262626;stroke-width:1.6;" x="180.0" xlink:href="#m4a9d0debc9" y="187.2"/>
      </g>
     </g>
     <g id="text_15">
      <!-- 0.8 -->
      <g style="fill:#262626;" transform="translate(140.56 191.33625)scale(0.16 -0.16)">
       <use xlink:href="#ArialMT-30"/>
       <use x="55.615234375" xlink:href="#ArialMT-2e"/>
       <use x="83.3984375" xlink:href="#ArialMT-38"/>
      </g>
     </g>
    </g>
    <g id="ytick_6">
     <g id="line2d_15">
      <g>
       <use style="fill:#262626;stroke:#262626;stroke-width:1.6;" x="180.0" xlink:href="#m4a9d0debc9" y="72.0"/>
      </g>
     </g>
     <g id="text_16">
      <!-- 1.0 -->
      <g style="fill:#262626;" transform="translate(140.56 76.13625)scale(0.16 -0.16)">
       <use xlink:href="#ArialMT-31"/>
       <use x="55.615234375" xlink:href="#ArialMT-2e"/>
       <use x="83.3984375" xlink:href="#ArialMT-30"/>
      </g>
     </g>
    </g>
    <g id="text_17">
     <!-- Fraction Sorbed -->
     <defs>
      <path d="M 40.4375 19 
L 49.078125 17.875 
Q 47.65625 8.9375 41.8125 3.875 
Q 35.984375 -1.171875 27.484375 -1.171875 
Q 16.84375 -1.171875 10.375 5.78125 
Q 3.90625 12.75 3.90625 25.734375 
Q 3.90625 34.125 6.6875 40.421875 
Q 9.46875 46.734375 15.15625 49.875 
Q 20.84375 53.03125 27.546875 53.03125 
Q 35.984375 53.03125 41.359375 48.75 
Q 46.734375 44.484375 48.25 36.625 
L 39.703125 35.296875 
Q 38.484375 40.53125 35.375 43.15625 
Q 32.28125 45.796875 27.875 45.796875 
Q 21.234375 45.796875 17.078125 41.03125 
Q 12.9375 36.28125 12.9375 25.984375 
Q 12.9375 15.53125 16.9375 10.796875 
Q 20.953125 6.0625 27.390625 6.0625 
Q 32.5625 6.0625 36.03125 9.234375 
Q 39.5 12.40625 40.4375 19 
" id="ArialMT-63"/>
      <path d="M 14.703125 0 
L 6.546875 0 
L 6.546875 71.578125 
L 15.328125 71.578125 
L 15.328125 46.046875 
Q 20.90625 53.03125 29.546875 53.03125 
Q 34.328125 53.03125 38.59375 51.09375 
Q 42.875 49.171875 45.625 45.671875 
Q 48.390625 42.1875 49.953125 37.25 
Q 51.515625 32.328125 51.515625 26.703125 
Q 51.515625 13.375 44.921875 6.09375 
Q 38.328125 -1.171875 29.109375 -1.171875 
Q 19.921875 -1.171875 14.703125 6.5 
z
M 14.59375 26.3125 
Q 14.59375 17 17.140625 12.84375 
Q 21.296875 6.0625 28.375 6.0625 
Q 34.125 6.0625 38.328125 11.0625 
Q 42.53125 16.0625 42.53125 25.984375 
Q 42.53125 36.140625 38.5 40.96875 
Q 34.46875 45.796875 28.765625 45.796875 
Q 23 45.796875 18.796875 40.796875 
Q 14.59375 35.796875 14.59375 26.3125 
" id="ArialMT-62"/>
      <path d="M 40.4375 6.390625 
Q 35.546875 2.25 31.03125 0.53125 
Q 26.515625 -1.171875 21.34375 -1.171875 
Q 12.796875 -1.171875 8.203125 3 
Q 3.609375 7.171875 3.609375 13.671875 
Q 3.609375 17.484375 5.34375 20.625 
Q 7.078125 23.78125 9.890625 25.6875 
Q 12.703125 27.59375 16.21875 28.5625 
Q 18.796875 29.25 24.03125 29.890625 
Q 34.671875 31.15625 39.703125 32.90625 
Q 39.75 34.71875 39.75 35.203125 
Q 39.75 40.578125 37.25 42.78125 
Q 33.890625 45.75 27.25 45.75 
Q 21.046875 45.75 18.09375 43.578125 
Q 15.140625 41.40625 13.71875 35.890625 
L 5.125 37.0625 
Q 6.296875 42.578125 8.984375 45.96875 
Q 11.671875 49.359375 16.75 51.1875 
Q 21.828125 53.03125 28.515625 53.03125 
Q 35.15625 53.03125 39.296875 51.46875 
Q 43.453125 49.90625 45.40625 47.53125 
Q 47.359375 45.171875 48.140625 41.546875 
Q 48.578125 39.3125 48.578125 33.453125 
L 48.578125 21.734375 
Q 48.578125 9.46875 49.140625 6.21875 
Q 49.703125 2.984375 51.375 0 
L 42.1875 0 
Q 40.828125 2.734375 40.4375 6.390625 
M 39.703125 26.03125 
Q 34.90625 24.078125 25.34375 22.703125 
Q 19.921875 21.921875 17.671875 20.9375 
Q 15.4375 19.96875 14.203125 18.09375 
Q 12.984375 16.21875 12.984375 13.921875 
Q 12.984375 10.40625 15.640625 8.0625 
Q 18.3125 5.71875 23.4375 5.71875 
Q 28.515625 5.71875 32.46875 7.9375 
Q 36.421875 10.15625 38.28125 14.015625 
Q 39.703125 17 39.703125 22.796875 
z
" id="ArialMT-61"/>
      <path d="M 42.09375 16.703125 
L 51.171875 15.578125 
Q 49.03125 7.625 43.21875 3.21875 
Q 37.40625 -1.171875 28.375 -1.171875 
Q 17 -1.171875 10.328125 5.828125 
Q 3.65625 12.84375 3.65625 25.484375 
Q 3.65625 38.578125 10.390625 45.796875 
Q 17.140625 53.03125 27.875 53.03125 
Q 38.28125 53.03125 44.875 45.953125 
Q 51.46875 38.875 51.46875 26.03125 
Q 51.46875 25.25 51.421875 23.6875 
L 12.75 23.6875 
Q 13.234375 15.140625 17.578125 10.59375 
Q 21.921875 6.0625 28.421875 6.0625 
Q 33.25 6.0625 36.671875 8.59375 
Q 40.09375 11.140625 42.09375 16.703125 
M 13.234375 30.90625 
L 42.1875 30.90625 
Q 41.609375 37.453125 38.875 40.71875 
Q 34.671875 45.796875 27.984375 45.796875 
Q 21.921875 45.796875 17.796875 41.75 
Q 13.671875 37.703125 13.234375 30.90625 
" id="ArialMT-65"/>
      <path d="M 40.234375 0 
L 40.234375 6.546875 
Q 35.296875 -1.171875 25.734375 -1.171875 
Q 19.53125 -1.171875 14.328125 2.25 
Q 9.125 5.671875 6.265625 11.796875 
Q 3.421875 17.921875 3.421875 25.875 
Q 3.421875 33.640625 6 39.96875 
Q 8.59375 46.296875 13.765625 49.65625 
Q 18.953125 53.03125 25.34375 53.03125 
Q 30.03125 53.03125 33.6875 51.046875 
Q 37.359375 49.078125 39.65625 45.90625 
L 39.65625 71.578125 
L 48.390625 71.578125 
L 48.390625 0 
z
M 12.453125 25.875 
Q 12.453125 15.921875 16.640625 10.984375 
Q 20.84375 6.0625 26.5625 6.0625 
Q 32.328125 6.0625 36.34375 10.765625 
Q 40.375 15.484375 40.375 25.140625 
Q 40.375 35.796875 36.265625 40.765625 
Q 32.171875 45.75 26.171875 45.75 
Q 20.3125 45.75 16.375 40.96875 
Q 12.453125 36.1875 12.453125 25.875 
" id="ArialMT-64"/>
      <path d="M 25.78125 7.859375 
L 27.046875 0.09375 
Q 23.34375 -0.6875 20.40625 -0.6875 
Q 15.625 -0.6875 12.984375 0.828125 
Q 10.359375 2.34375 9.28125 4.8125 
Q 8.203125 7.28125 8.203125 15.1875 
L 8.203125 45.015625 
L 1.765625 45.015625 
L 1.765625 51.859375 
L 8.203125 51.859375 
L 8.203125 64.703125 
L 16.9375 69.96875 
L 16.9375 51.859375 
L 25.78125 51.859375 
L 25.78125 45.015625 
L 16.9375 45.015625 
L 16.9375 14.703125 
Q 16.9375 10.9375 17.40625 9.859375 
Q 17.875 8.796875 18.921875 8.15625 
Q 19.96875 7.515625 21.921875 7.515625 
Q 23.390625 7.515625 25.78125 7.859375 
" id="ArialMT-74"/>
      <path d="M 4.5 23 
L 13.421875 23.78125 
Q 14.0625 18.40625 16.375 14.96875 
Q 18.703125 11.53125 23.578125 9.40625 
Q 28.46875 7.28125 34.578125 7.28125 
Q 39.984375 7.28125 44.140625 8.890625 
Q 48.296875 10.5 50.3125 13.296875 
Q 52.34375 16.109375 52.34375 19.4375 
Q 52.34375 22.796875 50.390625 25.3125 
Q 48.4375 27.828125 43.953125 29.546875 
Q 41.0625 30.671875 31.203125 33.03125 
Q 21.34375 35.40625 17.390625 37.5 
Q 12.25 40.1875 9.734375 44.15625 
Q 7.234375 48.140625 7.234375 53.078125 
Q 7.234375 58.5 10.296875 63.203125 
Q 13.375 67.921875 19.28125 70.359375 
Q 25.203125 72.796875 32.421875 72.796875 
Q 40.375 72.796875 46.453125 70.234375 
Q 52.546875 67.671875 55.8125 62.6875 
Q 59.078125 57.71875 59.328125 51.421875 
L 50.25 50.734375 
Q 49.515625 57.515625 45.28125 60.984375 
Q 41.0625 64.453125 32.8125 64.453125 
Q 24.21875 64.453125 20.28125 61.296875 
Q 16.359375 58.15625 16.359375 53.71875 
Q 16.359375 49.859375 19.140625 47.359375 
Q 21.875 44.875 33.421875 42.265625 
Q 44.96875 39.65625 49.265625 37.703125 
Q 55.515625 34.8125 58.484375 30.390625 
Q 61.46875 25.984375 61.46875 20.21875 
Q 61.46875 14.5 58.203125 9.4375 
Q 54.9375 4.390625 48.796875 1.578125 
Q 42.671875 -1.21875 35.015625 -1.21875 
Q 25.296875 -1.21875 18.71875 1.609375 
Q 12.15625 4.4375 8.421875 10.125 
Q 4.6875 15.828125 4.5 23 
" id="ArialMT-53"/>
      <path d="M 6.640625 61.46875 
L 6.640625 71.578125 
L 15.4375 71.578125 
L 15.4375 61.46875 
z
M 6.640625 0 
L 6.640625 51.859375 
L 15.4375 51.859375 
L 15.4375 0 
z
" id="ArialMT-69"/>
      <path d="M 6.5 0 
L 6.5 51.859375 
L 14.40625 51.859375 
L 14.40625 44 
Q 17.4375 49.515625 20 51.265625 
Q 22.5625 53.03125 25.640625 53.03125 
Q 30.078125 53.03125 34.671875 50.203125 
L 31.640625 42.046875 
Q 28.421875 43.953125 25.203125 43.953125 
Q 22.3125 43.953125 20.015625 42.21875 
Q 17.71875 40.484375 16.75 37.40625 
Q 15.28125 32.71875 15.28125 27.15625 
L 15.28125 0 
z
" id="ArialMT-72"/>
      <path d="M 8.203125 0 
L 8.203125 71.578125 
L 56.5 71.578125 
L 56.5 63.140625 
L 17.671875 63.140625 
L 17.671875 40.96875 
L 51.265625 40.96875 
L 51.265625 32.515625 
L 17.671875 32.515625 
L 17.671875 0 
z
" id="ArialMT-46"/>
      <path d="M 3.328125 25.921875 
Q 3.328125 40.328125 11.328125 47.265625 
Q 18.015625 53.03125 27.640625 53.03125 
Q 38.328125 53.03125 45.109375 46.015625 
Q 51.90625 39.015625 51.90625 26.65625 
Q 51.90625 16.65625 48.90625 10.90625 
Q 45.90625 5.171875 40.15625 2 
Q 34.421875 -1.171875 27.640625 -1.171875 
Q 16.75 -1.171875 10.03125 5.8125 
Q 3.328125 12.796875 3.328125 25.921875 
M 12.359375 25.921875 
Q 12.359375 15.96875 16.703125 11.015625 
Q 21.046875 6.0625 27.640625 6.0625 
Q 34.1875 6.0625 38.53125 11.03125 
Q 42.875 16.015625 42.875 26.21875 
Q 42.875 35.84375 38.5 40.796875 
Q 34.125 45.75 27.640625 45.75 
Q 21.046875 45.75 16.703125 40.8125 
Q 12.359375 35.890625 12.359375 25.921875 
" id="ArialMT-6f"/>
      <path d="M 6.59375 0 
L 6.59375 51.859375 
L 14.5 51.859375 
L 14.5 44.484375 
Q 20.21875 53.03125 31 53.03125 
Q 35.6875 53.03125 39.625 51.34375 
Q 43.5625 49.65625 45.515625 46.921875 
Q 47.46875 44.1875 48.25 40.4375 
Q 48.734375 37.984375 48.734375 31.890625 
L 48.734375 0 
L 39.9375 0 
L 39.9375 31.546875 
Q 39.9375 36.921875 38.90625 39.578125 
Q 37.890625 42.234375 35.28125 43.8125 
Q 32.671875 45.40625 29.15625 45.40625 
Q 23.53125 45.40625 19.453125 41.84375 
Q 15.375 38.28125 15.375 28.328125 
L 15.375 0 
z
" id="ArialMT-6e"/>
      <path id="ArialMT-20"/>
     </defs>
     <g style="fill:#262626;" transform="translate(132.062 422.605125)rotate(-90.0)scale(0.176 -0.176)">
      <use xlink:href="#ArialMT-46"/>
      <use x="61.083984375" xlink:href="#ArialMT-72"/>
      <use x="94.384765625" xlink:href="#ArialMT-61"/>
      <use x="150.0" xlink:href="#ArialMT-63"/>
      <use x="200.0" xlink:href="#ArialMT-74"/>
      <use x="227.783203125" xlink:href="#ArialMT-69"/>
      <use x="250.0" xlink:href="#ArialMT-6f"/>
      <use x="305.615234375" xlink:href="#ArialMT-6e"/>
      <use x="361.23046875" xlink:href="#ArialMT-20"/>
      <use x="389.013671875" xlink:href="#ArialMT-53"/>
      <use x="455.712890625" xlink:href="#ArialMT-6f"/>
      <use x="511.328125" xlink:href="#ArialMT-72"/>
      <use x="544.62890625" xlink:href="#ArialMT-62"/>
      <use x="600.244140625" xlink:href="#ArialMT-65"/>
      <use x="655.859375" xlink:href="#ArialMT-64"/>
     </g>
    </g>
   </g>
   <g id="LineCollection_1">
    <path clip-path="url(#p023b8201be)" d="M 325.245702 881.742908 
" style="fill:none;stroke:#4c72b0;stroke-width:2.8;"/>
    <path clip-path="url(#p023b8201be)" d="M 321.389177 638.084 
L 328.770823 638.084 
" style="fill:none;stroke:#4c72b0;stroke-width:2.8;"/>
    <path clip-path="url(#p023b8201be)" d="M 317.183946 609.097653 
L 341.346054 609.097653 
" style="fill:none;stroke:#4c72b0;stroke-width:2.8;"/>
    <path clip-path="url(#p023b8201be)" d="M 323.609617 614.156289 
L 332.827883 614.156289 
" style="fill:none;stroke:#4c72b0;stroke-width:2.8;"/>
    <path clip-path="url(#p023b8201be)" d="M 598.5 764.160322 
" style="fill:none;stroke:#4c72b0;stroke-width:2.8;"/>
    <path clip-path="url(#p023b8201be)" d="M 598.5 630.626279 
L 598.5 630.626279 
" style="fill:none;stroke:#4c72b0;stroke-width:2.8;"/>
    <path clip-path="url(#p023b8201be)" d="M 598.5 499.092805 
L 598.5 499.092805 
" style="fill:none;stroke:#4c72b0;stroke-width:2.8;"/>
    <path clip-path="url(#p023b8201be)" d="M 598.5 589.037566 
L 598.5 589.037566 
" style="fill:none;stroke:#4c72b0;stroke-width:2.8;"/>
    <path clip-path="url(#p023b8201be)" d="M 598.5 575.938101 
L 598.5 575.938101 
" style="fill:none;stroke:#4c72b0;stroke-width:2.8;"/>
    <path clip-path="url(#p023b8201be)" d="M 864.172982 410.086266 
L 872.227018 410.086266 
" style="fill:none;stroke:#4c72b0;stroke-width:2.8;"/>
    <path clip-path="url(#p023b8201be)" d="M 867.491939 324.170538 
L 882.858061 324.170538 
" style="fill:none;stroke:#4c72b0;stroke-width:2.8;"/>
    <path clip-path="url(#p023b8201be)" d="M 868.229177 337.968731 
L 875.610823 337.968731 
" style="fill:none;stroke:#4c72b0;stroke-width:2.8;"/>
    <path clip-path="url(#p023b8201be)" d="M 872.175808 396.427986 
L 881.429192 396.427986 
" style="fill:none;stroke:#4c72b0;stroke-width:2.8;"/>
    <path clip-path="url(#p023b8201be)" d="M 1142.744102 359.233838 
L 1147.005898 359.233838 
" style="fill:none;stroke:#4c72b0;stroke-width:2.8;"/>
    <path clip-path="url(#p023b8201be)" d="M 1141.869193 -191.866249 
" style="fill:none;stroke:#4c72b0;stroke-width:2.8;"/>
    <path clip-path="url(#p023b8201be)" d="M 1141.364327 45.985409 
L 1148.385673 45.985409 
" style="fill:none;stroke:#4c72b0;stroke-width:2.8;"/>
    <path clip-path="url(#p023b8201be)" d="M 1130.413654 88.089167 
L 1144.456346 88.089167 
" style="fill:none;stroke:#4c72b0;stroke-width:2.8;"/>
    <path clip-path="url(#p023b8201be)" d="M 1140.839987 102.182284 
L 1154.025013 102.182284 
" style="fill:none;stroke:#4c72b0;stroke-width:2.8;"/>
   </g>
   <g id="LineCollection_2">
    <path clip-path="url(#p023b8201be)" d="M 329.73 1064.233695 
M 329.73 721 
L 329.73 699.252121 
" style="fill:none;stroke:#4c72b0;stroke-width:2.8;"/>
    <path clip-path="url(#p023b8201be)" d="M 325.08 673.490806 
L 325.08 602.677195 
" style="fill:none;stroke:#4c72b0;stroke-width:2.8;"/>
    <path clip-path="url(#p023b8201be)" d="M 329.265 652.344856 
L 329.265 565.85045 
" style="fill:none;stroke:#4c72b0;stroke-width:2.8;"/>
    <path clip-path="url(#p023b8201be)" d="M 328.21875 644.804393 
L 328.21875 583.508185 
" style="fill:none;stroke:#4c72b0;stroke-width:2.8;"/>
    <path clip-path="url(#p023b8201be)" d="M 598.5 897.02913 
M 598.5 721 
L 598.5 631.291513 
" style="fill:none;stroke:#4c72b0;stroke-width:2.8;"/>
    <path clip-path="url(#p023b8201be)" d="M 598.5 691.443933 
L 598.5 569.808625 
" style="fill:none;stroke:#4c72b0;stroke-width:2.8;"/>
    <path clip-path="url(#p023b8201be)" d="M 598.5 660.443313 
L 598.5 337.742296 
" style="fill:none;stroke:#4c72b0;stroke-width:2.8;"/>
    <path clip-path="url(#p023b8201be)" d="M 598.5 596.288238 
L 598.5 581.786893 
" style="fill:none;stroke:#4c72b0;stroke-width:2.8;"/>
    <path clip-path="url(#p023b8201be)" d="M 598.5 602.328837 
L 598.5 549.547365 
" style="fill:none;stroke:#4c72b0;stroke-width:2.8;"/>
    <path clip-path="url(#p023b8201be)" d="M 868.2 441.286532 
L 868.2 378.886 
" style="fill:none;stroke:#4c72b0;stroke-width:2.8;"/>
    <path clip-path="url(#p023b8201be)" d="M 875.175 334.927396 
L 875.175 313.41368 
" style="fill:none;stroke:#4c72b0;stroke-width:2.8;"/>
    <path clip-path="url(#p023b8201be)" d="M 871.92 354.838728 
L 871.92 321.098735 
" style="fill:none;stroke:#4c72b0;stroke-width:2.8;"/>
    <path clip-path="url(#p023b8201be)" d="M 876.8025 433.932996 
L 876.8025 358.922976 
" style="fill:none;stroke:#4c72b0;stroke-width:2.8;"/>
    <path clip-path="url(#p023b8201be)" d="M 1144.875 368.058565 
L 1144.875 350.409111 
" style="fill:none;stroke:#4c72b0;stroke-width:2.8;"/>
    <path clip-path="url(#p023b8201be)" d="M 1143.48 -153.787915 
" style="fill:none;stroke:#4c72b0;stroke-width:2.8;"/>
    <path clip-path="url(#p023b8201be)" d="M 1144.875 55.088494 
L 1144.875 36.882324 
" style="fill:none;stroke:#4c72b0;stroke-width:2.8;"/>
    <path clip-path="url(#p023b8201be)" d="M 1137.435 101.272799 
L 1137.435 74.905535 
" style="fill:none;stroke:#4c72b0;stroke-width:2.8;"/>
    <path clip-path="url(#p023b8201be)" d="M 1147.4325 124.455813 
L 1147.4325 79.908755 
" style="fill:none;stroke:#4c72b0;stroke-width:2.8;"/>
   </g>
   <g id="LineCollection_3">
    <path clip-path="url(#p023b8201be)" d="M 319.159596 287.069674 
L 320.770404 287.069674 
" style="fill:none;stroke:#55a868;stroke-width:2.8;"/>
    <path clip-path="url(#p023b8201be)" d="M 318.57 276.168602 
L 319.5 276.168602 
" style="fill:none;stroke:#55a868;stroke-width:2.8;"/>
    <path clip-path="url(#p023b8201be)" d="M 318.229596 261.684311 
L 319.840404 261.684311 
" style="fill:none;stroke:#55a868;stroke-width:2.8;"/>
    <path clip-path="url(#p023b8201be)" d="M 317.764596 265.102682 
L 319.375404 265.102682 
" style="fill:none;stroke:#55a868;stroke-width:2.8;"/>
    <path clip-path="url(#p023b8201be)" d="M 597.229596 192.288697 
L 598.840404 192.288697 
" style="fill:none;stroke:#55a868;stroke-width:2.8;"/>
    <path clip-path="url(#p023b8201be)" d="M 597.677091 178.52965 
L 602.112909 178.52965 
" style="fill:none;stroke:#55a868;stroke-width:2.8;"/>
    <path clip-path="url(#p023b8201be)" d="M 597.105 163.139539 
L 599.895 163.139539 
" style="fill:none;stroke:#55a868;stroke-width:2.8;"/>
    <path clip-path="url(#p023b8201be)" d="M 598.5 166.062232 
L 598.5 166.062232 
" style="fill:none;stroke:#55a868;stroke-width:2.8;"/>
    <path clip-path="url(#p023b8201be)" d="M 876.57 158.659341 
L 878.43 158.659341 
" style="fill:none;stroke:#55a868;stroke-width:2.8;"/>
    <path clip-path="url(#p023b8201be)" d="M 877.5 154.088509 
L 877.5 154.088509 
" style="fill:none;stroke:#55a868;stroke-width:2.8;"/>
    <path clip-path="url(#p023b8201be)" d="M 877.159596 150.946844 
L 878.770404 150.946844 
" style="fill:none;stroke:#55a868;stroke-width:2.8;"/>
    <path clip-path="url(#p023b8201be)" d="M 1154.458108 152.082696 
L 1157.611892 152.082696 
" style="fill:none;stroke:#55a868;stroke-width:2.8;"/>
    <path clip-path="url(#p023b8201be)" d="M 1155.105 134.681443 
L 1155.105 134.681443 
" style="fill:none;stroke:#55a868;stroke-width:2.8;"/>
    <path clip-path="url(#p023b8201be)" d="M 1155.105 145.348759 
L 1155.105 145.348759 
" style="fill:none;stroke:#55a868;stroke-width:2.8;"/>
   </g>
   <g id="LineCollection_4">
    <path clip-path="url(#p023b8201be)" d="M 319.965 303.928751 
L 319.965 270.210597 
" style="fill:none;stroke:#55a868;stroke-width:2.8;"/>
    <path clip-path="url(#p023b8201be)" d="M 319.035 286.397659 
L 319.035 265.939546 
" style="fill:none;stroke:#55a868;stroke-width:2.8;"/>
    <path clip-path="url(#p023b8201be)" d="M 319.035 271.976079 
L 319.035 251.392543 
" style="fill:none;stroke:#55a868;stroke-width:2.8;"/>
    <path clip-path="url(#p023b8201be)" d="M 318.57 275.011735 
L 318.57 255.193629 
" style="fill:none;stroke:#55a868;stroke-width:2.8;"/>
    <path clip-path="url(#p023b8201be)" d="M 598.035 197.330952 
L 598.035 187.246443 
" style="fill:none;stroke:#55a868;stroke-width:2.8;"/>
    <path clip-path="url(#p023b8201be)" d="M 599.895 184.968015 
L 599.895 172.091285 
" style="fill:none;stroke:#55a868;stroke-width:2.8;"/>
    <path clip-path="url(#p023b8201be)" d="M 598.5 164.84687 
L 598.5 161.432208 
" style="fill:none;stroke:#55a868;stroke-width:2.8;"/>
    <path clip-path="url(#p023b8201be)" d="M 598.5 169.815301 
L 598.5 162.309163 
" style="fill:none;stroke:#55a868;stroke-width:2.8;"/>
    <path clip-path="url(#p023b8201be)" d="M 877.5 164.817827 
L 877.5 152.500854 
" style="fill:none;stroke:#55a868;stroke-width:2.8;"/>
    <path clip-path="url(#p023b8201be)" d="M 877.5 155.705876 
L 877.5 152.471143 
" style="fill:none;stroke:#55a868;stroke-width:2.8;"/>
    <path clip-path="url(#p023b8201be)" d="M 877.965 160.777507 
L 877.965 141.11618 
" style="fill:none;stroke:#55a868;stroke-width:2.8;"/>
    <path clip-path="url(#p023b8201be)" d="M 1156.035 153.906728 
L 1156.035 150.258664 
" style="fill:none;stroke:#55a868;stroke-width:2.8;"/>
    <path clip-path="url(#p023b8201be)" d="M 1155.105 140.224513 
L 1155.105 129.138372 
" style="fill:none;stroke:#55a868;stroke-width:2.8;"/>
    <path clip-path="url(#p023b8201be)" d="M 1155.105 148.902141 
L 1155.105 141.795377 
" style="fill:none;stroke:#55a868;stroke-width:2.8;"/>
   </g>
   <g id="LineCollection_5">
    <path clip-path="url(#p023b8201be)" d="M 319.5 836.304753 
" style="fill:none;stroke:#c44e52;stroke-width:2.8;"/>
    <path clip-path="url(#p023b8201be)" d="M 319.5 686.049473 
L 319.5 686.049473 
" style="fill:none;stroke:#c44e52;stroke-width:2.8;"/>
    <path clip-path="url(#p023b8201be)" d="M 319.5 680.747361 
L 319.5 680.747361 
" style="fill:none;stroke:#c44e52;stroke-width:2.8;"/>
    <path clip-path="url(#p023b8201be)" d="M 319.159596 665.714944 
L 320.770404 665.714944 
" style="fill:none;stroke:#c44e52;stroke-width:2.8;"/>
    <path clip-path="url(#p023b8201be)" d="M 319.5 666.478607 
L 319.5 666.478607 
" style="fill:none;stroke:#c44e52;stroke-width:2.8;"/>
    <path clip-path="url(#p023b8201be)" d="M 598.5 742.336649 
" style="fill:none;stroke:#c44e52;stroke-width:2.8;"/>
    <path clip-path="url(#p023b8201be)" d="M 598.5 615.142269 
L 601.29 615.142269 
" style="fill:none;stroke:#c44e52;stroke-width:2.8;"/>
    <path clip-path="url(#p023b8201be)" d="M 597.486556 646.816579 
L 599.513444 646.816579 
" style="fill:none;stroke:#c44e52;stroke-width:2.8;"/>
    <path clip-path="url(#p023b8201be)" d="M 598.624596 594.825662 
L 600.235404 594.825662 
" style="fill:none;stroke:#c44e52;stroke-width:2.8;"/>
    <path clip-path="url(#p023b8201be)" d="M 597.819193 604.729503 
L 601.040807 604.729503 
" style="fill:none;stroke:#c44e52;stroke-width:2.8;"/>
    <path clip-path="url(#p023b8201be)" d="M 875.764596 612.783074 
L 877.375404 612.783074 
" style="fill:none;stroke:#c44e52;stroke-width:2.8;"/>
    <path clip-path="url(#p023b8201be)" d="M 874.71 542.659816 
L 880.29 542.659816 
" style="fill:none;stroke:#c44e52;stroke-width:2.8;"/>
    <path clip-path="url(#p023b8201be)" d="M 876.405343 571.081642 
L 879.524657 571.081642 
" style="fill:none;stroke:#c44e52;stroke-width:2.8;"/>
    <path clip-path="url(#p023b8201be)" d="M 875.764596 545.835701 
L 877.375404 545.835701 
" style="fill:none;stroke:#c44e52;stroke-width:2.8;"/>
    <path clip-path="url(#p023b8201be)" d="M 877.159596 565.166811 
L 878.770404 565.166811 
" style="fill:none;stroke:#c44e52;stroke-width:2.8;"/>
    <path clip-path="url(#p023b8201be)" d="M 1152.688789 139.644725 
L 1157.521211 139.644725 
" style="fill:none;stroke:#c44e52;stroke-width:2.8;"/>
    <path clip-path="url(#p023b8201be)" d="M 1154.473112 149.759765 
L 1158.526888 149.759765 
" style="fill:none;stroke:#c44e52;stroke-width:2.8;"/>
    <path clip-path="url(#p023b8201be)" d="M 1155.819193 190.223084 
L 1159.040807 190.223084 
" style="fill:none;stroke:#c44e52;stroke-width:2.8;"/>
    <path clip-path="url(#p023b8201be)" d="M 1156.159596 191.508344 
L 1157.770404 191.508344 
" style="fill:none;stroke:#c44e52;stroke-width:2.8;"/>
   </g>
   <g id="LineCollection_6">
    <path clip-path="url(#p023b8201be)" d="M 319.5 865.634151 
" style="fill:none;stroke:#c44e52;stroke-width:2.8;"/>
    <path clip-path="url(#p023b8201be)" d="M 319.5 709.148958 
L 319.5 662.949988 
" style="fill:none;stroke:#c44e52;stroke-width:2.8;"/>
    <path clip-path="url(#p023b8201be)" d="M 319.5 712.297535 
L 319.5 649.197186 
" style="fill:none;stroke:#c44e52;stroke-width:2.8;"/>
    <path clip-path="url(#p023b8201be)" d="M 319.965 679.304248 
L 319.965 652.12564 
" style="fill:none;stroke:#c44e52;stroke-width:2.8;"/>
    <path clip-path="url(#p023b8201be)" d="M 319.5 674.838272 
L 319.5 658.118941 
" style="fill:none;stroke:#c44e52;stroke-width:2.8;"/>
    <path clip-path="url(#p023b8201be)" d="M 598.5 771.653487 
M 598.5 721 
L 598.5 713.019812 
" style="fill:none;stroke:#c44e52;stroke-width:2.8;"/>
    <path clip-path="url(#p023b8201be)" d="M 599.895 654.047404 
L 599.895 576.237133 
" style="fill:none;stroke:#c44e52;stroke-width:2.8;"/>
    <path clip-path="url(#p023b8201be)" d="M 598.5 658.004767 
L 598.5 635.628391 
" style="fill:none;stroke:#c44e52;stroke-width:2.8;"/>
    <path clip-path="url(#p023b8201be)" d="M 599.43 633.20642 
L 599.43 556.444905 
" style="fill:none;stroke:#c44e52;stroke-width:2.8;"/>
    <path clip-path="url(#p023b8201be)" d="M 599.43 614.759377 
L 599.43 594.699628 
" style="fill:none;stroke:#c44e52;stroke-width:2.8;"/>
    <path clip-path="url(#p023b8201be)" d="M 876.57 633.429535 
L 876.57 592.136614 
" style="fill:none;stroke:#c44e52;stroke-width:2.8;"/>
    <path clip-path="url(#p023b8201be)" d="M 877.5 570.458914 
L 877.5 514.860717 
" style="fill:none;stroke:#c44e52;stroke-width:2.8;"/>
    <path clip-path="url(#p023b8201be)" d="M 877.965 604.936252 
L 877.965 537.227032 
" style="fill:none;stroke:#c44e52;stroke-width:2.8;"/>
    <path clip-path="url(#p023b8201be)" d="M 876.57 560.36959 
L 876.57 531.301812 
" style="fill:none;stroke:#c44e52;stroke-width:2.8;"/>
    <path clip-path="url(#p023b8201be)" d="M 877.965 577.290313 
L 877.965 553.04331 
" style="fill:none;stroke:#c44e52;stroke-width:2.8;"/>
    <path clip-path="url(#p023b8201be)" d="M 1155.105 146.775651 
L 1155.105 132.513798 
" style="fill:none;stroke:#c44e52;stroke-width:2.8;"/>
    <path clip-path="url(#p023b8201be)" d="M 1156.5 161.820468 
L 1156.5 137.699061 
" style="fill:none;stroke:#c44e52;stroke-width:2.8;"/>
    <path clip-path="url(#p023b8201be)" d="M 1157.43 208.49795 
L 1157.43 171.948218 
" style="fill:none;stroke:#c44e52;stroke-width:2.8;"/>
    <path clip-path="url(#p023b8201be)" d="M 1156.965 198.495224 
L 1156.965 184.521463 
" style="fill:none;stroke:#c44e52;stroke-width:2.8;"/>
   </g>
   <g id="LineCollection_7">
    <path clip-path="url(#p023b8201be)" d="M 319.159596 628.029298 
L 320.770404 628.029298 
" style="fill:none;stroke:#8172b2;stroke-width:2.8;"/>
    <path clip-path="url(#p023b8201be)" d="M 318.8025 625.272204 
L 321.1275 625.272204 
" style="fill:none;stroke:#8172b2;stroke-width:2.8;"/>
    <path clip-path="url(#p023b8201be)" d="M 316.959193 616.438366 
L 320.180807 616.438366 
" style="fill:none;stroke:#8172b2;stroke-width:2.8;"/>
    <path clip-path="url(#p023b8201be)" d="M 316.959193 625.418101 
L 320.180807 625.418101 
" style="fill:none;stroke:#8172b2;stroke-width:2.8;"/>
    <path clip-path="url(#p023b8201be)" d="M 593.414177 626.755765 
L 600.795823 626.755765 
" style="fill:none;stroke:#8172b2;stroke-width:2.8;"/>
    <path clip-path="url(#p023b8201be)" d="M 592.788181 603.773945 
L 602.351819 603.773945 
" style="fill:none;stroke:#8172b2;stroke-width:2.8;"/>
    <path clip-path="url(#p023b8201be)" d="M 601.484102 602.67453 
L 605.745898 602.67453 
" style="fill:none;stroke:#8172b2;stroke-width:2.8;"/>
    <path clip-path="url(#p023b8201be)" d="M 594.552152 579.797653 
L 606.167848 579.797653 
" style="fill:none;stroke:#8172b2;stroke-width:2.8;"/>
    <path clip-path="url(#p023b8201be)" d="M 869.295702 704.921625 
L 878.264298 704.921625 
" style="fill:none;stroke:#8172b2;stroke-width:2.8;"/>
    <path clip-path="url(#p023b8201be)" d="M 870.913205 584.288522 
L 879.436795 584.288522 
" style="fill:none;stroke:#8172b2;stroke-width:2.8;"/>
    <path clip-path="url(#p023b8201be)" d="M 870.238666 572.258411 
L 877.321334 572.258411 
" style="fill:none;stroke:#8172b2;stroke-width:2.8;"/>
    <path clip-path="url(#p023b8201be)" d="M 876.314327 560.395362 
L 883.335673 560.395362 
" style="fill:none;stroke:#8172b2;stroke-width:2.8;"/>
    <path clip-path="url(#p023b8201be)" d="M 870.690702 555.376974 
L 879.659298 555.376974 
" style="fill:none;stroke:#8172b2;stroke-width:2.8;"/>
   </g>
   <g id="LineCollection_8">
    <path clip-path="url(#p023b8201be)" d="M 319.965 640.886946 
L 319.965 615.171651 
" style="fill:none;stroke:#8172b2;stroke-width:2.8;"/>
    <path clip-path="url(#p023b8201be)" d="M 319.965 632.078893 
L 319.965 618.465515 
" style="fill:none;stroke:#8172b2;stroke-width:2.8;"/>
    <path clip-path="url(#p023b8201be)" d="M 318.57 635.229807 
L 318.57 597.646925 
" style="fill:none;stroke:#8172b2;stroke-width:2.8;"/>
    <path clip-path="url(#p023b8201be)" d="M 318.57 627.77012 
L 318.57 623.066082 
" style="fill:none;stroke:#8172b2;stroke-width:2.8;"/>
    <path clip-path="url(#p023b8201be)" d="M 597.105 636.407924 
L 597.105 617.103605 
" style="fill:none;stroke:#8172b2;stroke-width:2.8;"/>
    <path clip-path="url(#p023b8201be)" d="M 597.57 607.320833 
L 597.57 600.227056 
" style="fill:none;stroke:#8172b2;stroke-width:2.8;"/>
    <path clip-path="url(#p023b8201be)" d="M 603.615 611.34629 
L 603.615 594.00277 
" style="fill:none;stroke:#8172b2;stroke-width:2.8;"/>
    <path clip-path="url(#p023b8201be)" d="M 600.36 582.59474 
L 600.36 577.000567 
" style="fill:none;stroke:#8172b2;stroke-width:2.8;"/>
    <path clip-path="url(#p023b8201be)" d="M 873.78 729.849321 
M 873.78 721 
L 873.78 679.993929 
" style="fill:none;stroke:#8172b2;stroke-width:2.8;"/>
    <path clip-path="url(#p023b8201be)" d="M 875.175 588.489158 
L 875.175 580.087886 
" style="fill:none;stroke:#8172b2;stroke-width:2.8;"/>
    <path clip-path="url(#p023b8201be)" d="M 873.78 581.068887 
L 873.78 563.447936 
" style="fill:none;stroke:#8172b2;stroke-width:2.8;"/>
    <path clip-path="url(#p023b8201be)" d="M 879.825 585.558203 
L 879.825 535.232521 
" style="fill:none;stroke:#8172b2;stroke-width:2.8;"/>
    <path clip-path="url(#p023b8201be)" d="M 875.175 559.132089 
L 875.175 551.621859 
" style="fill:none;stroke:#8172b2;stroke-width:2.8;"/>
   </g>
   <g id="line2d_16">
    <defs>
     <path d="M 0 3 
L 0 -3 
" id="m7e1e367e4c"/>
    </defs>
    <g clip-path="url(#p023b8201be)">
     <use style="fill:#4c72b0;" x="325.245702396" xlink:href="#m7e1e367e4c" y="881.74290792"/>
     <use style="fill:#4c72b0;" x="321.389176921" xlink:href="#m7e1e367e4c" y="638.084000196"/>
     <use style="fill:#4c72b0;" x="317.183945617" xlink:href="#m7e1e367e4c" y="609.097653286"/>
     <use style="fill:#4c72b0;" x="323.609617083" xlink:href="#m7e1e367e4c" y="614.156288821"/>
     <use style="fill:#4c72b0;" x="598.5" xlink:href="#m7e1e367e4c" y="764.160321572"/>
     <use style="fill:#4c72b0;" x="598.5" xlink:href="#m7e1e367e4c" y="630.626278766"/>
     <use style="fill:#4c72b0;" x="598.5" xlink:href="#m7e1e367e4c" y="499.092804858"/>
     <use style="fill:#4c72b0;" x="598.5" xlink:href="#m7e1e367e4c" y="589.03756551"/>
     <use style="fill:#4c72b0;" x="598.5" xlink:href="#m7e1e367e4c" y="575.938100972"/>
     <use style="fill:#4c72b0;" x="864.172981872" xlink:href="#m7e1e367e4c" y="410.086265936"/>
     <use style="fill:#4c72b0;" x="867.491939087" xlink:href="#m7e1e367e4c" y="324.17053825"/>
     <use style="fill:#4c72b0;" x="868.229176921" xlink:href="#m7e1e367e4c" y="337.96873125"/>
     <use style="fill:#4c72b0;" x="872.175808417" xlink:href="#m7e1e367e4c" y="396.427985972"/>
     <use style="fill:#4c72b0;" x="1142.7441023" xlink:href="#m7e1e367e4c" y="359.23383777"/>
     <use style="fill:#4c72b0;" x="1142.17220614" xlink:href="#m7e1e367e4c" y="-1.0"/>
     <use style="fill:#4c72b0;" x="1141.46405858" xlink:href="#m7e1e367e4c" y="-1.0"/>
     <use style="fill:#4c72b0;" x="1141.36432699" xlink:href="#m7e1e367e4c" y="45.9854085668"/>
     <use style="fill:#4c72b0;" x="1130.41365398" xlink:href="#m7e1e367e4c" y="88.089167033"/>
     <use style="fill:#4c72b0;" x="1140.8399872" xlink:href="#m7e1e367e4c" y="102.18228382"/>
    </g>
   </g>
   <g id="line2d_17">
    <g clip-path="url(#p023b8201be)">
     <use style="fill:#4c72b0;" x="334.214297604" xlink:href="#m7e1e367e4c" y="881.74290792"/>
     <use style="fill:#4c72b0;" x="328.770823079" xlink:href="#m7e1e367e4c" y="638.084000196"/>
     <use style="fill:#4c72b0;" x="341.346054383" xlink:href="#m7e1e367e4c" y="609.097653286"/>
     <use style="fill:#4c72b0;" x="332.827882917" xlink:href="#m7e1e367e4c" y="614.156288821"/>
     <use style="fill:#4c72b0;" x="598.5" xlink:href="#m7e1e367e4c" y="764.160321572"/>
     <use style="fill:#4c72b0;" x="598.5" xlink:href="#m7e1e367e4c" y="630.626278766"/>
     <use style="fill:#4c72b0;" x="598.5" xlink:href="#m7e1e367e4c" y="499.092804858"/>
     <use style="fill:#4c72b0;" x="598.5" xlink:href="#m7e1e367e4c" y="589.03756551"/>
     <use style="fill:#4c72b0;" x="598.5" xlink:href="#m7e1e367e4c" y="575.938100972"/>
     <use style="fill:#4c72b0;" x="872.227018128" xlink:href="#m7e1e367e4c" y="410.086265936"/>
     <use style="fill:#4c72b0;" x="882.858060913" xlink:href="#m7e1e367e4c" y="324.17053825"/>
     <use style="fill:#4c72b0;" x="875.610823079" xlink:href="#m7e1e367e4c" y="337.96873125"/>
     <use style="fill:#4c72b0;" x="881.429191583" xlink:href="#m7e1e367e4c" y="396.427985972"/>
     <use style="fill:#4c72b0;" x="1147.0058977" xlink:href="#m7e1e367e4c" y="359.23383777"/>
     <use style="fill:#4c72b0;" x="1145.75407358" xlink:href="#m7e1e367e4c" y="-1.0"/>
     <use style="fill:#4c72b0;" x="1147.73480257" xlink:href="#m7e1e367e4c" y="-1.0"/>
     <use style="fill:#4c72b0;" x="1148.38567301" xlink:href="#m7e1e367e4c" y="45.9854085668"/>
     <use style="fill:#4c72b0;" x="1144.45634602" xlink:href="#m7e1e367e4c" y="88.089167033"/>
     <use style="fill:#4c72b0;" x="1154.0250128" xlink:href="#m7e1e367e4c" y="102.18228382"/>
    </g>
   </g>
   <g id="line2d_18">
    <defs>
     <path d="M 3 0 
L -3 -0 
" id="m0ed6ae7eb1"/>
    </defs>
    <g clip-path="url(#p023b8201be)">
     <use style="fill:#4c72b0;" x="329.73" xlink:href="#m0ed6ae7eb1" y="1064.23369518"/>
     <use style="fill:#4c72b0;" x="325.08" xlink:href="#m0ed6ae7eb1" y="673.490805589"/>
     <use style="fill:#4c72b0;" x="329.265" xlink:href="#m0ed6ae7eb1" y="652.344856169"/>
     <use style="fill:#4c72b0;" x="328.21875" xlink:href="#m0ed6ae7eb1" y="644.804392596"/>
     <use style="fill:#4c72b0;" x="598.5" xlink:href="#m0ed6ae7eb1" y="897.029130374"/>
     <use style="fill:#4c72b0;" x="598.5" xlink:href="#m0ed6ae7eb1" y="691.44393259"/>
     <use style="fill:#4c72b0;" x="598.5" xlink:href="#m0ed6ae7eb1" y="660.443313476"/>
     <use style="fill:#4c72b0;" x="598.5" xlink:href="#m0ed6ae7eb1" y="596.288237692"/>
     <use style="fill:#4c72b0;" x="598.5" xlink:href="#m0ed6ae7eb1" y="602.328837334"/>
     <use style="fill:#4c72b0;" x="868.2" xlink:href="#m0ed6ae7eb1" y="441.286532097"/>
     <use style="fill:#4c72b0;" x="875.175" xlink:href="#m0ed6ae7eb1" y="334.927396413"/>
     <use style="fill:#4c72b0;" x="871.92" xlink:href="#m0ed6ae7eb1" y="354.838727837"/>
     <use style="fill:#4c72b0;" x="876.8025" xlink:href="#m0ed6ae7eb1" y="433.932995545"/>
     <use style="fill:#4c72b0;" x="1144.875" xlink:href="#m0ed6ae7eb1" y="368.058564899"/>
     <use style="fill:#4c72b0;" x="1143.88843265" xlink:href="#m0ed6ae7eb1" y="-1.0"/>
     <use style="fill:#4c72b0;" x="1144.50040792" xlink:href="#m0ed6ae7eb1" y="-1.0"/>
     <use style="fill:#4c72b0;" x="1144.875" xlink:href="#m0ed6ae7eb1" y="55.0884936292"/>
     <use style="fill:#4c72b0;" x="1137.435" xlink:href="#m0ed6ae7eb1" y="101.272799333"/>
     <use style="fill:#4c72b0;" x="1147.4325" xlink:href="#m0ed6ae7eb1" y="124.455812958"/>
    </g>
   </g>
   <g id="line2d_19">
    <g clip-path="url(#p023b8201be)">
     <use style="fill:#4c72b0;" x="329.73" xlink:href="#m0ed6ae7eb1" y="699.252120665"/>
     <use style="fill:#4c72b0;" x="325.08" xlink:href="#m0ed6ae7eb1" y="602.677194803"/>
     <use style="fill:#4c72b0;" x="329.265" xlink:href="#m0ed6ae7eb1" y="565.850450403"/>
     <use style="fill:#4c72b0;" x="328.21875" xlink:href="#m0ed6ae7eb1" y="583.508185046"/>
     <use style="fill:#4c72b0;" x="598.5" xlink:href="#m0ed6ae7eb1" y="631.29151277"/>
     <use style="fill:#4c72b0;" x="598.5" xlink:href="#m0ed6ae7eb1" y="569.808624942"/>
     <use style="fill:#4c72b0;" x="598.5" xlink:href="#m0ed6ae7eb1" y="337.742296239"/>
     <use style="fill:#4c72b0;" x="598.5" xlink:href="#m0ed6ae7eb1" y="581.786893328"/>
     <use style="fill:#4c72b0;" x="598.5" xlink:href="#m0ed6ae7eb1" y="549.54736461"/>
     <use style="fill:#4c72b0;" x="868.2" xlink:href="#m0ed6ae7eb1" y="378.885999775"/>
     <use style="fill:#4c72b0;" x="875.175" xlink:href="#m0ed6ae7eb1" y="313.413680087"/>
     <use style="fill:#4c72b0;" x="871.92" xlink:href="#m0ed6ae7eb1" y="321.098734662"/>
     <use style="fill:#4c72b0;" x="876.8025" xlink:href="#m0ed6ae7eb1" y="358.922976399"/>
     <use style="fill:#4c72b0;" x="1144.875" xlink:href="#m0ed6ae7eb1" y="350.409110641"/>
     <use style="fill:#4c72b0;" x="1144.0303156" xlink:href="#m0ed6ae7eb1" y="-1.0"/>
     <use style="fill:#4c72b0;" x="1144.67694711" xlink:href="#m0ed6ae7eb1" y="-1.0"/>
     <use style="fill:#4c72b0;" x="1144.875" xlink:href="#m0ed6ae7eb1" y="36.8823235044"/>
     <use style="fill:#4c72b0;" x="1137.435" xlink:href="#m0ed6ae7eb1" y="74.905534733"/>
     <use style="fill:#4c72b0;" x="1147.4325" xlink:href="#m0ed6ae7eb1" y="79.9087546819"/>
    </g>
   </g>
   <g id="line2d_20">
    <defs>
     <path d="M 0 5.6 
C 1.485137 5.6 2.909647 5.009949 3.959798 3.959798 
C 5.009949 2.909647 5.6 1.485137 5.6 0 
C 5.6 -1.485137 5.009949 -2.909647 3.959798 -3.959798 
C 2.909647 -5.009949 1.485137 -5.6 0 -5.6 
C -1.485137 -5.6 -2.909647 -5.009949 -3.959798 -3.959798 
C -5.009949 -2.909647 -5.6 -1.485137 -5.6 0 
C -5.6 1.485137 -5.009949 2.909647 -3.959798 3.959798 
C -2.909647 5.009949 -1.485137 5.6 0 5.6 
z
" id="m6b5b168cdc"/>
    </defs>
    <g clip-path="url(#p023b8201be)">
     <use style="fill:#4c72b0;" x="329.73" xlink:href="#m6b5b168cdc" y="881.74290792"/>
     <use style="fill:#4c72b0;" x="325.08" xlink:href="#m6b5b168cdc" y="638.084000196"/>
     <use style="fill:#4c72b0;" x="329.265" xlink:href="#m6b5b168cdc" y="609.097653286"/>
     <use style="fill:#4c72b0;" x="328.21875" xlink:href="#m6b5b168cdc" y="614.156288821"/>
     <use style="fill:#4c72b0;" x="598.5" xlink:href="#m6b5b168cdc" y="764.160321572"/>
     <use style="fill:#4c72b0;" x="598.5" xlink:href="#m6b5b168cdc" y="630.626278766"/>
     <use style="fill:#4c72b0;" x="598.5" xlink:href="#m6b5b168cdc" y="499.092804858"/>
     <use style="fill:#4c72b0;" x="598.5" xlink:href="#m6b5b168cdc" y="589.03756551"/>
     <use style="fill:#4c72b0;" x="598.5" xlink:href="#m6b5b168cdc" y="575.938100972"/>
     <use style="fill:#4c72b0;" x="868.2" xlink:href="#m6b5b168cdc" y="410.086265936"/>
     <use style="fill:#4c72b0;" x="875.175" xlink:href="#m6b5b168cdc" y="324.17053825"/>
     <use style="fill:#4c72b0;" x="871.92" xlink:href="#m6b5b168cdc" y="337.96873125"/>
     <use style="fill:#4c72b0;" x="876.8025" xlink:href="#m6b5b168cdc" y="396.427985972"/>
     <use style="fill:#4c72b0;" x="1144.875" xlink:href="#m6b5b168cdc" y="359.23383777"/>
     <use style="fill:#4c72b0;" x="1143.96313986" xlink:href="#m6b5b168cdc" y="-1.0"/>
     <use style="fill:#4c72b0;" x="1144.59943057" xlink:href="#m6b5b168cdc" y="-1.0"/>
     <use style="fill:#4c72b0;" x="1144.875" xlink:href="#m6b5b168cdc" y="45.9854085668"/>
     <use style="fill:#4c72b0;" x="1137.435" xlink:href="#m6b5b168cdc" y="88.089167033"/>
     <use style="fill:#4c72b0;" x="1147.4325" xlink:href="#m6b5b168cdc" y="102.18228382"/>
    </g>
   </g>
   <g id="line2d_21">
    <defs>
     <path d="M 0 3 
L 0 -3 
" id="m4c602826cc"/>
    </defs>
    <g clip-path="url(#p023b8201be)">
     <use style="fill:#55a868;" x="319.159596374" xlink:href="#m4c602826cc" y="287.069674082"/>
     <use style="fill:#55a868;" x="318.57" xlink:href="#m4c602826cc" y="276.168602279"/>
     <use style="fill:#55a868;" x="318.229596374" xlink:href="#m4c602826cc" y="261.684310698"/>
     <use style="fill:#55a868;" x="317.764596374" xlink:href="#m4c602826cc" y="265.102681827"/>
     <use style="fill:#55a868;" x="597.229596374" xlink:href="#m4c602826cc" y="192.28869742"/>
     <use style="fill:#55a868;" x="597.677091357" xlink:href="#m4c602826cc" y="178.529649968"/>
     <use style="fill:#55a868;" x="597.105" xlink:href="#m4c602826cc" y="163.139539306"/>
     <use style="fill:#55a868;" x="598.5" xlink:href="#m4c602826cc" y="166.062232111"/>
     <use style="fill:#55a868;" x="876.57" xlink:href="#m4c602826cc" y="158.659340573"/>
     <use style="fill:#55a868;" x="877.5" xlink:href="#m4c602826cc" y="154.088509122"/>
     <use style="fill:#55a868;" x="877.159596374" xlink:href="#m4c602826cc" y="150.946843677"/>
     <use style="fill:#55a868;" x="1154.45810828" xlink:href="#m4c602826cc" y="152.082696312"/>
     <use style="fill:#55a868;" x="1155.105" xlink:href="#m4c602826cc" y="134.681442546"/>
     <use style="fill:#55a868;" x="1155.105" xlink:href="#m4c602826cc" y="145.348759105"/>
    </g>
   </g>
   <g id="line2d_22">
    <g clip-path="url(#p023b8201be)">
     <use style="fill:#55a868;" x="320.770403626" xlink:href="#m4c602826cc" y="287.069674082"/>
     <use style="fill:#55a868;" x="319.5" xlink:href="#m4c602826cc" y="276.168602279"/>
     <use style="fill:#55a868;" x="319.840403626" xlink:href="#m4c602826cc" y="261.684310698"/>
     <use style="fill:#55a868;" x="319.375403626" xlink:href="#m4c602826cc" y="265.102681827"/>
     <use style="fill:#55a868;" x="598.840403626" xlink:href="#m4c602826cc" y="192.28869742"/>
     <use style="fill:#55a868;" x="602.112908643" xlink:href="#m4c602826cc" y="178.529649968"/>
     <use style="fill:#55a868;" x="599.895" xlink:href="#m4c602826cc" y="163.139539306"/>
     <use style="fill:#55a868;" x="598.5" xlink:href="#m4c602826cc" y="166.062232111"/>
     <use style="fill:#55a868;" x="878.43" xlink:href="#m4c602826cc" y="158.659340573"/>
     <use style="fill:#55a868;" x="877.5" xlink:href="#m4c602826cc" y="154.088509122"/>
     <use style="fill:#55a868;" x="878.770403626" xlink:href="#m4c602826cc" y="150.946843677"/>
     <use style="fill:#55a868;" x="1157.61189172" xlink:href="#m4c602826cc" y="152.082696312"/>
     <use style="fill:#55a868;" x="1155.105" xlink:href="#m4c602826cc" y="134.681442546"/>
     <use style="fill:#55a868;" x="1155.105" xlink:href="#m4c602826cc" y="145.348759105"/>
    </g>
   </g>
   <g id="line2d_23">
    <defs>
     <path d="M 3 0 
L -3 -0 
" id="m13a40f28a7"/>
    </defs>
    <g clip-path="url(#p023b8201be)">
     <use style="fill:#55a868;" x="319.965" xlink:href="#m13a40f28a7" y="303.928750828"/>
     <use style="fill:#55a868;" x="319.035" xlink:href="#m13a40f28a7" y="286.397658731"/>
     <use style="fill:#55a868;" x="319.035" xlink:href="#m13a40f28a7" y="271.976078649"/>
     <use style="fill:#55a868;" x="318.57" xlink:href="#m13a40f28a7" y="275.011734529"/>
     <use style="fill:#55a868;" x="598.035" xlink:href="#m13a40f28a7" y="197.330952286"/>
     <use style="fill:#55a868;" x="599.895" xlink:href="#m13a40f28a7" y="184.968014505"/>
     <use style="fill:#55a868;" x="598.5" xlink:href="#m13a40f28a7" y="164.84687014"/>
     <use style="fill:#55a868;" x="598.5" xlink:href="#m13a40f28a7" y="169.815301272"/>
     <use style="fill:#55a868;" x="877.5" xlink:href="#m13a40f28a7" y="164.81782748"/>
     <use style="fill:#55a868;" x="877.5" xlink:href="#m13a40f28a7" y="155.705875593"/>
     <use style="fill:#55a868;" x="877.965" xlink:href="#m13a40f28a7" y="160.777507418"/>
     <use style="fill:#55a868;" x="1156.035" xlink:href="#m13a40f28a7" y="153.906728204"/>
     <use style="fill:#55a868;" x="1155.105" xlink:href="#m13a40f28a7" y="140.22451298"/>
     <use style="fill:#55a868;" x="1155.105" xlink:href="#m13a40f28a7" y="148.902140779"/>
    </g>
   </g>
   <g id="line2d_24">
    <g clip-path="url(#p023b8201be)">
     <use style="fill:#55a868;" x="319.965" xlink:href="#m13a40f28a7" y="270.210597337"/>
     <use style="fill:#55a868;" x="319.035" xlink:href="#m13a40f28a7" y="265.939545828"/>
     <use style="fill:#55a868;" x="319.035" xlink:href="#m13a40f28a7" y="251.392542748"/>
     <use style="fill:#55a868;" x="318.57" xlink:href="#m13a40f28a7" y="255.193629125"/>
     <use style="fill:#55a868;" x="598.035" xlink:href="#m13a40f28a7" y="187.246442554"/>
     <use style="fill:#55a868;" x="599.895" xlink:href="#m13a40f28a7" y="172.09128543"/>
     <use style="fill:#55a868;" x="598.5" xlink:href="#m13a40f28a7" y="161.432208471"/>
     <use style="fill:#55a868;" x="598.5" xlink:href="#m13a40f28a7" y="162.309162949"/>
     <use style="fill:#55a868;" x="877.5" xlink:href="#m13a40f28a7" y="152.500853666"/>
     <use style="fill:#55a868;" x="877.5" xlink:href="#m13a40f28a7" y="152.471142651"/>
     <use style="fill:#55a868;" x="877.965" xlink:href="#m13a40f28a7" y="141.116179936"/>
     <use style="fill:#55a868;" x="1156.035" xlink:href="#m13a40f28a7" y="150.258664419"/>
     <use style="fill:#55a868;" x="1155.105" xlink:href="#m13a40f28a7" y="129.138372112"/>
     <use style="fill:#55a868;" x="1155.105" xlink:href="#m13a40f28a7" y="141.795377431"/>
    </g>
   </g>
   <g id="line2d_25">
    <defs>
     <path d="M 0 5.6 
C 1.485137 5.6 2.909647 5.009949 3.959798 3.959798 
C 5.009949 2.909647 5.6 1.485137 5.6 0 
C 5.6 -1.485137 5.009949 -2.909647 3.959798 -3.959798 
C 2.909647 -5.009949 1.485137 -5.6 0 -5.6 
C -1.485137 -5.6 -2.909647 -5.009949 -3.959798 -3.959798 
C -5.009949 -2.909647 -5.6 -1.485137 -5.6 0 
C -5.6 1.485137 -5.009949 2.909647 -3.959798 3.959798 
C -2.909647 5.009949 -1.485137 5.6 0 5.6 
z
" id="m14410182fc"/>
    </defs>
    <g clip-path="url(#p023b8201be)">
     <use style="fill:#55a868;" x="319.965" xlink:href="#m14410182fc" y="287.069674082"/>
     <use style="fill:#55a868;" x="319.035" xlink:href="#m14410182fc" y="276.168602279"/>
     <use style="fill:#55a868;" x="319.035" xlink:href="#m14410182fc" y="261.684310698"/>
     <use style="fill:#55a868;" x="318.57" xlink:href="#m14410182fc" y="265.102681827"/>
     <use style="fill:#55a868;" x="598.035" xlink:href="#m14410182fc" y="192.28869742"/>
     <use style="fill:#55a868;" x="599.895" xlink:href="#m14410182fc" y="178.529649968"/>
     <use style="fill:#55a868;" x="598.5" xlink:href="#m14410182fc" y="163.139539306"/>
     <use style="fill:#55a868;" x="598.5" xlink:href="#m14410182fc" y="166.062232111"/>
     <use style="fill:#55a868;" x="877.5" xlink:href="#m14410182fc" y="158.659340573"/>
     <use style="fill:#55a868;" x="877.5" xlink:href="#m14410182fc" y="154.088509122"/>
     <use style="fill:#55a868;" x="877.965" xlink:href="#m14410182fc" y="150.946843677"/>
     <use style="fill:#55a868;" x="1156.035" xlink:href="#m14410182fc" y="152.082696312"/>
     <use style="fill:#55a868;" x="1155.105" xlink:href="#m14410182fc" y="134.681442546"/>
     <use style="fill:#55a868;" x="1155.105" xlink:href="#m14410182fc" y="145.348759105"/>
    </g>
   </g>
   <g id="line2d_26">
    <defs>
     <path d="M 0 3 
L 0 -3 
" id="m4cdb8daf93"/>
    </defs>
    <g clip-path="url(#p023b8201be)">
     <use style="fill:#c44e52;" x="319.5" xlink:href="#m4cdb8daf93" y="836.3047534"/>
     <use style="fill:#c44e52;" x="319.5" xlink:href="#m4cdb8daf93" y="686.049473131"/>
     <use style="fill:#c44e52;" x="319.5" xlink:href="#m4cdb8daf93" y="680.747360682"/>
     <use style="fill:#c44e52;" x="319.159596374" xlink:href="#m4cdb8daf93" y="665.714943925"/>
     <use style="fill:#c44e52;" x="319.5" xlink:href="#m4cdb8daf93" y="666.47860675"/>
     <use style="fill:#c44e52;" x="598.5" xlink:href="#m4cdb8daf93" y="742.336649487"/>
     <use style="fill:#c44e52;" x="598.5" xlink:href="#m4cdb8daf93" y="615.142268844"/>
     <use style="fill:#c44e52;" x="597.486555996" xlink:href="#m4cdb8daf93" y="646.816578912"/>
     <use style="fill:#c44e52;" x="598.624596374" xlink:href="#m4cdb8daf93" y="594.82566247"/>
     <use style="fill:#c44e52;" x="597.819192749" xlink:href="#m4cdb8daf93" y="604.729502899"/>
     <use style="fill:#c44e52;" x="875.764596374" xlink:href="#m4cdb8daf93" y="612.783074491"/>
     <use style="fill:#c44e52;" x="874.71" xlink:href="#m4cdb8daf93" y="542.659815646"/>
     <use style="fill:#c44e52;" x="876.405342586" xlink:href="#m4cdb8daf93" y="571.081642158"/>
     <use style="fill:#c44e52;" x="875.764596374" xlink:href="#m4cdb8daf93" y="545.8357014"/>
     <use style="fill:#c44e52;" x="877.159596374" xlink:href="#m4cdb8daf93" y="565.166811465"/>
     <use style="fill:#c44e52;" x="1152.68878912" xlink:href="#m4cdb8daf93" y="139.644724754"/>
     <use style="fill:#c44e52;" x="1154.47311199" xlink:href="#m4cdb8daf93" y="149.759764616"/>
     <use style="fill:#c44e52;" x="1155.81919275" xlink:href="#m4cdb8daf93" y="190.223083866"/>
     <use style="fill:#c44e52;" x="1156.15959637" xlink:href="#m4cdb8daf93" y="191.508343578"/>
    </g>
   </g>
   <g id="line2d_27">
    <g clip-path="url(#p023b8201be)">
     <use style="fill:#c44e52;" x="319.5" xlink:href="#m4cdb8daf93" y="836.3047534"/>
     <use style="fill:#c44e52;" x="319.5" xlink:href="#m4cdb8daf93" y="686.049473131"/>
     <use style="fill:#c44e52;" x="319.5" xlink:href="#m4cdb8daf93" y="680.747360682"/>
     <use style="fill:#c44e52;" x="320.770403626" xlink:href="#m4cdb8daf93" y="665.714943925"/>
     <use style="fill:#c44e52;" x="319.5" xlink:href="#m4cdb8daf93" y="666.47860675"/>
     <use style="fill:#c44e52;" x="598.5" xlink:href="#m4cdb8daf93" y="742.336649487"/>
     <use style="fill:#c44e52;" x="601.29" xlink:href="#m4cdb8daf93" y="615.142268844"/>
     <use style="fill:#c44e52;" x="599.513444004" xlink:href="#m4cdb8daf93" y="646.816578912"/>
     <use style="fill:#c44e52;" x="600.235403626" xlink:href="#m4cdb8daf93" y="594.82566247"/>
     <use style="fill:#c44e52;" x="601.040807251" xlink:href="#m4cdb8daf93" y="604.729502899"/>
     <use style="fill:#c44e52;" x="877.375403626" xlink:href="#m4cdb8daf93" y="612.783074491"/>
     <use style="fill:#c44e52;" x="880.29" xlink:href="#m4cdb8daf93" y="542.659815646"/>
     <use style="fill:#c44e52;" x="879.524657414" xlink:href="#m4cdb8daf93" y="571.081642158"/>
     <use style="fill:#c44e52;" x="877.375403626" xlink:href="#m4cdb8daf93" y="545.8357014"/>
     <use style="fill:#c44e52;" x="878.770403626" xlink:href="#m4cdb8daf93" y="565.166811465"/>
     <use style="fill:#c44e52;" x="1157.52121088" xlink:href="#m4cdb8daf93" y="139.644724754"/>
     <use style="fill:#c44e52;" x="1158.52688801" xlink:href="#m4cdb8daf93" y="149.759764616"/>
     <use style="fill:#c44e52;" x="1159.04080725" xlink:href="#m4cdb8daf93" y="190.223083866"/>
     <use style="fill:#c44e52;" x="1157.77040363" xlink:href="#m4cdb8daf93" y="191.508343578"/>
    </g>
   </g>
   <g id="line2d_28">
    <defs>
     <path d="M 3 0 
L -3 -0 
" id="m9681882973"/>
    </defs>
    <g clip-path="url(#p023b8201be)">
     <use style="fill:#c44e52;" x="319.5" xlink:href="#m9681882973" y="865.634151236"/>
     <use style="fill:#c44e52;" x="319.5" xlink:href="#m9681882973" y="709.14895791"/>
     <use style="fill:#c44e52;" x="319.5" xlink:href="#m9681882973" y="712.297535266"/>
     <use style="fill:#c44e52;" x="319.965" xlink:href="#m9681882973" y="679.304247539"/>
     <use style="fill:#c44e52;" x="319.5" xlink:href="#m9681882973" y="674.838272454"/>
     <use style="fill:#c44e52;" x="598.5" xlink:href="#m9681882973" y="771.65348735"/>
     <use style="fill:#c44e52;" x="599.895" xlink:href="#m9681882973" y="654.047404258"/>
     <use style="fill:#c44e52;" x="598.5" xlink:href="#m9681882973" y="658.004766508"/>
     <use style="fill:#c44e52;" x="599.43" xlink:href="#m9681882973" y="633.20641953"/>
     <use style="fill:#c44e52;" x="599.43" xlink:href="#m9681882973" y="614.759377472"/>
     <use style="fill:#c44e52;" x="876.57" xlink:href="#m9681882973" y="633.429534647"/>
     <use style="fill:#c44e52;" x="877.5" xlink:href="#m9681882973" y="570.458914381"/>
     <use style="fill:#c44e52;" x="877.965" xlink:href="#m9681882973" y="604.936251975"/>
     <use style="fill:#c44e52;" x="876.57" xlink:href="#m9681882973" y="560.369590388"/>
     <use style="fill:#c44e52;" x="877.965" xlink:href="#m9681882973" y="577.290312607"/>
     <use style="fill:#c44e52;" x="1155.105" xlink:href="#m9681882973" y="146.775651024"/>
     <use style="fill:#c44e52;" x="1156.5" xlink:href="#m9681882973" y="161.820468006"/>
     <use style="fill:#c44e52;" x="1157.43" xlink:href="#m9681882973" y="208.497949806"/>
     <use style="fill:#c44e52;" x="1156.965" xlink:href="#m9681882973" y="198.495224301"/>
    </g>
   </g>
   <g id="line2d_29">
    <g clip-path="url(#p023b8201be)">
     <use style="fill:#c44e52;" x="319.5" xlink:href="#m9681882973" y="806.975355565"/>
     <use style="fill:#c44e52;" x="319.5" xlink:href="#m9681882973" y="662.949988351"/>
     <use style="fill:#c44e52;" x="319.5" xlink:href="#m9681882973" y="649.197186098"/>
     <use style="fill:#c44e52;" x="319.965" xlink:href="#m9681882973" y="652.12564031"/>
     <use style="fill:#c44e52;" x="319.5" xlink:href="#m9681882973" y="658.118941046"/>
     <use style="fill:#c44e52;" x="598.5" xlink:href="#m9681882973" y="713.019811623"/>
     <use style="fill:#c44e52;" x="599.895" xlink:href="#m9681882973" y="576.23713343"/>
     <use style="fill:#c44e52;" x="598.5" xlink:href="#m9681882973" y="635.628391315"/>
     <use style="fill:#c44e52;" x="599.43" xlink:href="#m9681882973" y="556.444905409"/>
     <use style="fill:#c44e52;" x="599.43" xlink:href="#m9681882973" y="594.699628326"/>
     <use style="fill:#c44e52;" x="876.57" xlink:href="#m9681882973" y="592.136614335"/>
     <use style="fill:#c44e52;" x="877.5" xlink:href="#m9681882973" y="514.860716911"/>
     <use style="fill:#c44e52;" x="877.965" xlink:href="#m9681882973" y="537.227032341"/>
     <use style="fill:#c44e52;" x="876.57" xlink:href="#m9681882973" y="531.301812413"/>
     <use style="fill:#c44e52;" x="877.965" xlink:href="#m9681882973" y="553.043310322"/>
     <use style="fill:#c44e52;" x="1155.105" xlink:href="#m9681882973" y="132.513798484"/>
     <use style="fill:#c44e52;" x="1156.5" xlink:href="#m9681882973" y="137.699061226"/>
     <use style="fill:#c44e52;" x="1157.43" xlink:href="#m9681882973" y="171.948217927"/>
     <use style="fill:#c44e52;" x="1156.965" xlink:href="#m9681882973" y="184.521462855"/>
    </g>
   </g>
   <g id="line2d_30">
    <defs>
     <path d="M 0 5.6 
C 1.485137 5.6 2.909647 5.009949 3.959798 3.959798 
C 5.009949 2.909647 5.6 1.485137 5.6 0 
C 5.6 -1.485137 5.009949 -2.909647 3.959798 -3.959798 
C 2.909647 -5.009949 1.485137 -5.6 0 -5.6 
C -1.485137 -5.6 -2.909647 -5.009949 -3.959798 -3.959798 
C -5.009949 -2.909647 -5.6 -1.485137 -5.6 0 
C -5.6 1.485137 -5.009949 2.909647 -3.959798 3.959798 
C -2.909647 5.009949 -1.485137 5.6 0 5.6 
z
" id="m233af81b41"/>
    </defs>
    <g clip-path="url(#p023b8201be)">
     <use style="fill:#c44e52;" x="319.5" xlink:href="#m233af81b41" y="836.3047534"/>
     <use style="fill:#c44e52;" x="319.5" xlink:href="#m233af81b41" y="686.049473131"/>
     <use style="fill:#c44e52;" x="319.5" xlink:href="#m233af81b41" y="680.747360682"/>
     <use style="fill:#c44e52;" x="319.965" xlink:href="#m233af81b41" y="665.714943925"/>
     <use style="fill:#c44e52;" x="319.5" xlink:href="#m233af81b41" y="666.47860675"/>
     <use style="fill:#c44e52;" x="598.5" xlink:href="#m233af81b41" y="742.336649487"/>
     <use style="fill:#c44e52;" x="599.895" xlink:href="#m233af81b41" y="615.142268844"/>
     <use style="fill:#c44e52;" x="598.5" xlink:href="#m233af81b41" y="646.816578912"/>
     <use style="fill:#c44e52;" x="599.43" xlink:href="#m233af81b41" y="594.82566247"/>
     <use style="fill:#c44e52;" x="599.43" xlink:href="#m233af81b41" y="604.729502899"/>
     <use style="fill:#c44e52;" x="876.57" xlink:href="#m233af81b41" y="612.783074491"/>
     <use style="fill:#c44e52;" x="877.5" xlink:href="#m233af81b41" y="542.659815646"/>
     <use style="fill:#c44e52;" x="877.965" xlink:href="#m233af81b41" y="571.081642158"/>
     <use style="fill:#c44e52;" x="876.57" xlink:href="#m233af81b41" y="545.8357014"/>
     <use style="fill:#c44e52;" x="877.965" xlink:href="#m233af81b41" y="565.166811465"/>
     <use style="fill:#c44e52;" x="1155.105" xlink:href="#m233af81b41" y="139.644724754"/>
     <use style="fill:#c44e52;" x="1156.5" xlink:href="#m233af81b41" y="149.759764616"/>
     <use style="fill:#c44e52;" x="1157.43" xlink:href="#m233af81b41" y="190.223083866"/>
     <use style="fill:#c44e52;" x="1156.965" xlink:href="#m233af81b41" y="191.508343578"/>
    </g>
   </g>
   <g id="line2d_31">
    <defs>
     <path d="M 0 3 
L 0 -3 
" id="m31b6e005bc"/>
    </defs>
    <g clip-path="url(#p023b8201be)">
     <use style="fill:#8172b2;" x="319.159596374" xlink:href="#m31b6e005bc" y="628.029298435"/>
     <use style="fill:#8172b2;" x="318.8025" xlink:href="#m31b6e005bc" y="625.272204052"/>
     <use style="fill:#8172b2;" x="316.959192749" xlink:href="#m31b6e005bc" y="616.438365732"/>
     <use style="fill:#8172b2;" x="316.959192749" xlink:href="#m31b6e005bc" y="625.418100849"/>
     <use style="fill:#8172b2;" x="593.414176921" xlink:href="#m31b6e005bc" y="626.75576478"/>
     <use style="fill:#8172b2;" x="592.788180916" xlink:href="#m31b6e005bc" y="603.77394463"/>
     <use style="fill:#8172b2;" x="601.484102302" xlink:href="#m31b6e005bc" y="602.674529842"/>
     <use style="fill:#8172b2;" x="594.552151861" xlink:href="#m31b6e005bc" y="579.797653461"/>
     <use style="fill:#8172b2;" x="869.295702396" xlink:href="#m31b6e005bc" y="704.921624995"/>
     <use style="fill:#8172b2;" x="870.913204604" xlink:href="#m31b6e005bc" y="584.28852224"/>
     <use style="fill:#8172b2;" x="870.238665506" xlink:href="#m31b6e005bc" y="572.258411138"/>
     <use style="fill:#8172b2;" x="876.314326988" xlink:href="#m31b6e005bc" y="560.395361892"/>
     <use style="fill:#8172b2;" x="870.690702396" xlink:href="#m31b6e005bc" y="555.376973915"/>
    </g>
   </g>
   <g id="line2d_32">
    <g clip-path="url(#p023b8201be)">
     <use style="fill:#8172b2;" x="320.770403626" xlink:href="#m31b6e005bc" y="628.029298435"/>
     <use style="fill:#8172b2;" x="321.1275" xlink:href="#m31b6e005bc" y="625.272204052"/>
     <use style="fill:#8172b2;" x="320.180807251" xlink:href="#m31b6e005bc" y="616.438365732"/>
     <use style="fill:#8172b2;" x="320.180807251" xlink:href="#m31b6e005bc" y="625.418100849"/>
     <use style="fill:#8172b2;" x="600.795823079" xlink:href="#m31b6e005bc" y="626.75576478"/>
     <use style="fill:#8172b2;" x="602.351819084" xlink:href="#m31b6e005bc" y="603.77394463"/>
     <use style="fill:#8172b2;" x="605.745897698" xlink:href="#m31b6e005bc" y="602.674529842"/>
     <use style="fill:#8172b2;" x="606.167848139" xlink:href="#m31b6e005bc" y="579.797653461"/>
     <use style="fill:#8172b2;" x="878.264297604" xlink:href="#m31b6e005bc" y="704.921624995"/>
     <use style="fill:#8172b2;" x="879.436795396" xlink:href="#m31b6e005bc" y="584.28852224"/>
     <use style="fill:#8172b2;" x="877.321334494" xlink:href="#m31b6e005bc" y="572.258411138"/>
     <use style="fill:#8172b2;" x="883.335673012" xlink:href="#m31b6e005bc" y="560.395361892"/>
     <use style="fill:#8172b2;" x="879.659297604" xlink:href="#m31b6e005bc" y="555.376973915"/>
    </g>
   </g>
   <g id="line2d_33">
    <defs>
     <path d="M 3 0 
L -3 -0 
" id="m5e34fb0a66"/>
    </defs>
    <g clip-path="url(#p023b8201be)">
     <use style="fill:#8172b2;" x="319.965" xlink:href="#m5e34fb0a66" y="640.886945727"/>
     <use style="fill:#8172b2;" x="319.965" xlink:href="#m5e34fb0a66" y="632.07889272"/>
     <use style="fill:#8172b2;" x="318.57" xlink:href="#m5e34fb0a66" y="635.229806874"/>
     <use style="fill:#8172b2;" x="318.57" xlink:href="#m5e34fb0a66" y="627.770119728"/>
     <use style="fill:#8172b2;" x="597.105" xlink:href="#m5e34fb0a66" y="636.407924124"/>
     <use style="fill:#8172b2;" x="597.57" xlink:href="#m5e34fb0a66" y="607.320833197"/>
     <use style="fill:#8172b2;" x="603.615" xlink:href="#m5e34fb0a66" y="611.346290162"/>
     <use style="fill:#8172b2;" x="600.36" xlink:href="#m5e34fb0a66" y="582.594740114"/>
     <use style="fill:#8172b2;" x="873.78" xlink:href="#m5e34fb0a66" y="729.849321475"/>
     <use style="fill:#8172b2;" x="875.175" xlink:href="#m5e34fb0a66" y="588.489157992"/>
     <use style="fill:#8172b2;" x="873.78" xlink:href="#m5e34fb0a66" y="581.068886533"/>
     <use style="fill:#8172b2;" x="879.825" xlink:href="#m5e34fb0a66" y="585.558202761"/>
     <use style="fill:#8172b2;" x="875.175" xlink:href="#m5e34fb0a66" y="559.132088929"/>
    </g>
   </g>
   <g id="line2d_34">
    <g clip-path="url(#p023b8201be)">
     <use style="fill:#8172b2;" x="319.965" xlink:href="#m5e34fb0a66" y="615.171651144"/>
     <use style="fill:#8172b2;" x="319.965" xlink:href="#m5e34fb0a66" y="618.465515384"/>
     <use style="fill:#8172b2;" x="318.57" xlink:href="#m5e34fb0a66" y="597.64692459"/>
     <use style="fill:#8172b2;" x="318.57" xlink:href="#m5e34fb0a66" y="623.06608197"/>
     <use style="fill:#8172b2;" x="597.105" xlink:href="#m5e34fb0a66" y="617.103605435"/>
     <use style="fill:#8172b2;" x="597.57" xlink:href="#m5e34fb0a66" y="600.227056064"/>
     <use style="fill:#8172b2;" x="603.615" xlink:href="#m5e34fb0a66" y="594.002769521"/>
     <use style="fill:#8172b2;" x="600.36" xlink:href="#m5e34fb0a66" y="577.000566807"/>
     <use style="fill:#8172b2;" x="873.78" xlink:href="#m5e34fb0a66" y="679.993928515"/>
     <use style="fill:#8172b2;" x="875.175" xlink:href="#m5e34fb0a66" y="580.087886488"/>
     <use style="fill:#8172b2;" x="873.78" xlink:href="#m5e34fb0a66" y="563.447935742"/>
     <use style="fill:#8172b2;" x="879.825" xlink:href="#m5e34fb0a66" y="535.232521024"/>
     <use style="fill:#8172b2;" x="875.175" xlink:href="#m5e34fb0a66" y="551.621858902"/>
    </g>
   </g>
   <g id="line2d_35">
    <defs>
     <path d="M 0 5.6 
C 1.485137 5.6 2.909647 5.009949 3.959798 3.959798 
C 5.009949 2.909647 5.6 1.485137 5.6 0 
C 5.6 -1.485137 5.009949 -2.909647 3.959798 -3.959798 
C 2.909647 -5.009949 1.485137 -5.6 0 -5.6 
C -1.485137 -5.6 -2.909647 -5.009949 -3.959798 -3.959798 
C -5.009949 -2.909647 -5.6 -1.485137 -5.6 0 
C -5.6 1.485137 -5.009949 2.909647 -3.959798 3.959798 
C -2.909647 5.009949 -1.485137 5.6 0 5.6 
z
" id="ma70edb47a9"/>
    </defs>
    <g clip-path="url(#p023b8201be)">
     <use style="fill:#8172b2;" x="319.965" xlink:href="#ma70edb47a9" y="628.029298435"/>
     <use style="fill:#8172b2;" x="319.965" xlink:href="#ma70edb47a9" y="625.272204052"/>
     <use style="fill:#8172b2;" x="318.57" xlink:href="#ma70edb47a9" y="616.438365732"/>
     <use style="fill:#8172b2;" x="318.57" xlink:href="#ma70edb47a9" y="625.418100849"/>
     <use style="fill:#8172b2;" x="597.105" xlink:href="#ma70edb47a9" y="626.75576478"/>
     <use style="fill:#8172b2;" x="597.57" xlink:href="#ma70edb47a9" y="603.77394463"/>
     <use style="fill:#8172b2;" x="603.615" xlink:href="#ma70edb47a9" y="602.674529842"/>
     <use style="fill:#8172b2;" x="600.36" xlink:href="#ma70edb47a9" y="579.797653461"/>
     <use style="fill:#8172b2;" x="873.78" xlink:href="#ma70edb47a9" y="704.921624995"/>
     <use style="fill:#8172b2;" x="875.175" xlink:href="#ma70edb47a9" y="584.28852224"/>
     <use style="fill:#8172b2;" x="873.78" xlink:href="#ma70edb47a9" y="572.258411138"/>
     <use style="fill:#8172b2;" x="879.825" xlink:href="#ma70edb47a9" y="560.395361892"/>
     <use style="fill:#8172b2;" x="875.175" xlink:href="#ma70edb47a9" y="555.376973915"/>
    </g>
   </g>
   <g id="patch_3">
    <path d="M 180 648 
L 1296 648 
" style="fill:none;stroke:#262626;stroke-linecap:square;stroke-linejoin:miter;stroke-width:1.25;"/>
   </g>
   <g id="patch_4">
    <path d="M 180 648 
L 180 72 
" style="fill:none;stroke:#262626;stroke-linecap:square;stroke-linejoin:miter;stroke-width:1.25;"/>
   </g>
   <g id="text_18">
    <!-- Sorption Envelopes -->
    <defs>
     <path d="M 6.390625 0 
L 6.390625 71.578125 
L 15.1875 71.578125 
L 15.1875 0 
z
" id="ArialMT-6c"/>
     <path d="M 21 0 
L 1.265625 51.859375 
L 10.546875 51.859375 
L 21.6875 20.796875 
Q 23.484375 15.765625 25 10.359375 
Q 26.171875 14.453125 28.265625 20.21875 
L 39.796875 51.859375 
L 48.828125 51.859375 
L 29.203125 0 
z
" id="ArialMT-76"/>
     <path d="M 7.90625 0 
L 7.90625 71.578125 
L 59.671875 71.578125 
L 59.671875 63.140625 
L 17.390625 63.140625 
L 17.390625 41.21875 
L 56.984375 41.21875 
L 56.984375 32.8125 
L 17.390625 32.8125 
L 17.390625 8.453125 
L 61.328125 8.453125 
L 61.328125 0 
z
" id="ArialMT-45"/>
     <path d="M 3.078125 15.484375 
L 11.765625 16.84375 
Q 12.5 11.625 15.84375 8.84375 
Q 19.1875 6.0625 25.203125 6.0625 
Q 31.25 6.0625 34.171875 8.515625 
Q 37.109375 10.984375 37.109375 14.3125 
Q 37.109375 17.28125 34.515625 19 
Q 32.71875 20.171875 25.53125 21.96875 
Q 15.875 24.421875 12.140625 26.203125 
Q 8.40625 27.984375 6.46875 31.125 
Q 4.546875 34.28125 4.546875 38.09375 
Q 4.546875 41.546875 6.125 44.5 
Q 7.71875 47.46875 10.453125 49.421875 
Q 12.5 50.921875 16.03125 51.96875 
Q 19.578125 53.03125 23.640625 53.03125 
Q 29.734375 53.03125 34.34375 51.265625 
Q 38.96875 49.515625 41.15625 46.5 
Q 43.359375 43.5 44.1875 38.484375 
L 35.59375 37.3125 
Q 35.015625 41.3125 32.203125 43.546875 
Q 29.390625 45.796875 24.265625 45.796875 
Q 18.21875 45.796875 15.625 43.796875 
Q 13.03125 41.796875 13.03125 39.109375 
Q 13.03125 37.40625 14.109375 36.03125 
Q 15.1875 34.625 17.484375 33.6875 
Q 18.796875 33.203125 25.25 31.453125 
Q 34.578125 28.953125 38.25 27.359375 
Q 41.9375 25.78125 44.03125 22.75 
Q 46.140625 19.734375 46.140625 15.234375 
Q 46.140625 10.84375 43.578125 6.953125 
Q 41.015625 3.078125 36.171875 0.953125 
Q 31.34375 -1.171875 25.25 -1.171875 
Q 15.140625 -1.171875 9.84375 3.03125 
Q 4.546875 7.234375 3.078125 15.484375 
" id="ArialMT-73"/>
    </defs>
    <g style="fill:#262626;" transform="translate(654.75 67.0)scale(0.192 -0.192)">
     <use xlink:href="#ArialMT-53"/>
     <use x="66.69921875" xlink:href="#ArialMT-6f"/>
     <use x="122.314453125" xlink:href="#ArialMT-72"/>
     <use x="155.615234375" xlink:href="#ArialMT-70"/>
     <use x="211.23046875" xlink:href="#ArialMT-74"/>
     <use x="239.013671875" xlink:href="#ArialMT-69"/>
     <use x="261.23046875" xlink:href="#ArialMT-6f"/>
     <use x="316.845703125" xlink:href="#ArialMT-6e"/>
     <use x="372.4609375" xlink:href="#ArialMT-20"/>
     <use x="400.244140625" xlink:href="#ArialMT-45"/>
     <use x="466.943359375" xlink:href="#ArialMT-6e"/>
     <use x="522.55859375" xlink:href="#ArialMT-76"/>
     <use x="572.55859375" xlink:href="#ArialMT-65"/>
     <use x="628.173828125" xlink:href="#ArialMT-6c"/>
     <use x="650.390625" xlink:href="#ArialMT-6f"/>
     <use x="706.005859375" xlink:href="#ArialMT-70"/>
     <use x="761.62109375" xlink:href="#ArialMT-65"/>
     <use x="817.236328125" xlink:href="#ArialMT-73"/>
    </g>
   </g>
   <g id="legend_1">
    <g id="LineCollection_9">
     <path d="M 202.4 92.2525 
L 218.4 92.2525 
" style="fill:none;stroke:#4c72b0;stroke-width:2.8;"/>
    </g>
    <g id="LineCollection_10">
     <path d="M 210.4 100.2525 
L 210.4 84.2525 
" style="fill:none;stroke:#4c72b0;stroke-width:2.8;"/>
    </g>
    <g id="line2d_36">
     <g>
      <use style="fill:#4c72b0;" x="202.4" xlink:href="#m7e1e367e4c" y="92.2525"/>
     </g>
    </g>
    <g id="line2d_37">
     <g>
      <use style="fill:#4c72b0;" x="218.4" xlink:href="#m7e1e367e4c" y="92.2525"/>
     </g>
    </g>
    <g id="line2d_38">
     <g>
      <use style="fill:#4c72b0;" x="210.4" xlink:href="#m0ed6ae7eb1" y="100.2525"/>
     </g>
    </g>
    <g id="line2d_39">
     <g>
      <use style="fill:#4c72b0;" x="210.4" xlink:href="#m0ed6ae7eb1" y="84.2525"/>
     </g>
    </g>
    <g id="line2d_40"/>
    <g id="line2d_41">
     <g>
      <use style="fill:#4c72b0;" x="210.4" xlink:href="#m6b5b168cdc" y="92.2525"/>
     </g>
    </g>
    <g id="text_19">
     <!-- Ferrihydrite -->
     <defs>
      <path d="M 6.59375 0 
L 6.59375 71.578125 
L 15.375 71.578125 
L 15.375 45.90625 
Q 21.53125 53.03125 30.90625 53.03125 
Q 36.671875 53.03125 40.921875 50.75 
Q 45.171875 48.484375 47 44.484375 
Q 48.828125 40.484375 48.828125 32.859375 
L 48.828125 0 
L 40.046875 0 
L 40.046875 32.859375 
Q 40.046875 39.453125 37.1875 42.453125 
Q 34.328125 45.453125 29.109375 45.453125 
Q 25.203125 45.453125 21.75 43.421875 
Q 18.3125 41.40625 16.84375 37.9375 
Q 15.375 34.46875 15.375 28.375 
L 15.375 0 
z
" id="ArialMT-68"/>
      <path d="M 6.203125 -19.96875 
L 5.21875 -11.71875 
Q 8.109375 -12.5 10.25 -12.5 
Q 13.1875 -12.5 14.9375 -11.515625 
Q 16.703125 -10.546875 17.828125 -8.796875 
Q 18.65625 -7.46875 20.515625 -2.25 
Q 20.75 -1.515625 21.296875 -0.09375 
L 1.609375 51.859375 
L 11.078125 51.859375 
L 21.875 21.828125 
Q 23.96875 16.109375 25.640625 9.8125 
Q 27.15625 15.875 29.25 21.625 
L 40.328125 51.859375 
L 49.125 51.859375 
L 29.390625 -0.875 
Q 26.21875 -9.421875 24.46875 -12.640625 
Q 22.125 -17 19.09375 -19.015625 
Q 16.0625 -21.046875 11.859375 -21.046875 
Q 9.328125 -21.046875 6.203125 -19.96875 
" id="ArialMT-79"/>
     </defs>
     <g style="fill:#262626;" transform="translate(239.2 97.8525)scale(0.16 -0.16)">
      <use xlink:href="#ArialMT-46"/>
      <use x="61.083984375" xlink:href="#ArialMT-65"/>
      <use x="116.69921875" xlink:href="#ArialMT-72"/>
      <use x="150.0" xlink:href="#ArialMT-72"/>
      <use x="183.30078125" xlink:href="#ArialMT-69"/>
      <use x="205.517578125" xlink:href="#ArialMT-68"/>
      <use x="261.1328125" xlink:href="#ArialMT-79"/>
      <use x="311.1328125" xlink:href="#ArialMT-64"/>
      <use x="366.748046875" xlink:href="#ArialMT-72"/>
      <use x="400.048828125" xlink:href="#ArialMT-69"/>
      <use x="422.265625" xlink:href="#ArialMT-74"/>
      <use x="450.048828125" xlink:href="#ArialMT-65"/>
     </g>
    </g>
    <g id="LineCollection_11">
     <path d="M 202.4 115.0725 
L 218.4 115.0725 
" style="fill:none;stroke:#55a868;stroke-width:2.8;"/>
    </g>
    <g id="LineCollection_12">
     <path d="M 210.4 123.0725 
L 210.4 107.0725 
" style="fill:none;stroke:#55a868;stroke-width:2.8;"/>
    </g>
    <g id="line2d_42">
     <g>
      <use style="fill:#55a868;" x="202.4" xlink:href="#m4c602826cc" y="115.0725"/>
     </g>
    </g>
    <g id="line2d_43">
     <g>
      <use style="fill:#55a868;" x="218.4" xlink:href="#m4c602826cc" y="115.0725"/>
     </g>
    </g>
    <g id="line2d_44">
     <g>
      <use style="fill:#55a868;" x="210.4" xlink:href="#m13a40f28a7" y="123.0725"/>
     </g>
    </g>
    <g id="line2d_45">
     <g>
      <use style="fill:#55a868;" x="210.4" xlink:href="#m13a40f28a7" y="107.0725"/>
     </g>
    </g>
    <g id="line2d_46"/>
    <g id="line2d_47">
     <g>
      <use style="fill:#55a868;" x="210.4" xlink:href="#m14410182fc" y="115.0725"/>
     </g>
    </g>
    <g id="text_20">
     <!-- Na Montmorillonite -->
     <defs>
      <path d="M 7.625 0 
L 7.625 71.578125 
L 17.328125 71.578125 
L 54.9375 15.375 
L 54.9375 71.578125 
L 64.015625 71.578125 
L 64.015625 0 
L 54.296875 0 
L 16.703125 56.25 
L 16.703125 0 
z
" id="ArialMT-4e"/>
      <path d="M 7.421875 0 
L 7.421875 71.578125 
L 21.6875 71.578125 
L 38.625 20.90625 
Q 40.96875 13.8125 42.046875 10.296875 
Q 43.265625 14.203125 45.84375 21.78125 
L 62.984375 71.578125 
L 75.734375 71.578125 
L 75.734375 0 
L 66.609375 0 
L 66.609375 59.90625 
L 45.796875 0 
L 37.25 0 
L 16.546875 60.9375 
L 16.546875 0 
z
" id="ArialMT-4d"/>
      <path d="M 6.59375 0 
L 6.59375 51.859375 
L 14.453125 51.859375 
L 14.453125 44.578125 
Q 16.890625 48.390625 20.9375 50.703125 
Q 25 53.03125 30.171875 53.03125 
Q 35.9375 53.03125 39.625 50.640625 
Q 43.3125 48.25 44.828125 43.953125 
Q 50.984375 53.03125 60.84375 53.03125 
Q 68.5625 53.03125 72.703125 48.75 
Q 76.859375 44.484375 76.859375 35.59375 
L 76.859375 0 
L 68.109375 0 
L 68.109375 32.671875 
Q 68.109375 37.9375 67.25 40.25 
Q 66.40625 42.578125 64.15625 43.984375 
Q 61.921875 45.40625 58.890625 45.40625 
Q 53.421875 45.40625 49.796875 41.765625 
Q 46.1875 38.140625 46.1875 30.125 
L 46.1875 0 
L 37.40625 0 
L 37.40625 33.6875 
Q 37.40625 39.546875 35.25 42.46875 
Q 33.109375 45.40625 28.21875 45.40625 
Q 24.515625 45.40625 21.359375 43.453125 
Q 18.21875 41.5 16.796875 37.734375 
Q 15.375 33.984375 15.375 26.90625 
L 15.375 0 
z
" id="ArialMT-6d"/>
     </defs>
     <g style="fill:#262626;" transform="translate(239.2 120.6725)scale(0.16 -0.16)">
      <use xlink:href="#ArialMT-4e"/>
      <use x="72.216796875" xlink:href="#ArialMT-61"/>
      <use x="127.83203125" xlink:href="#ArialMT-20"/>
      <use x="155.615234375" xlink:href="#ArialMT-4d"/>
      <use x="238.916015625" xlink:href="#ArialMT-6f"/>
      <use x="294.53125" xlink:href="#ArialMT-6e"/>
      <use x="350.146484375" xlink:href="#ArialMT-74"/>
      <use x="377.9296875" xlink:href="#ArialMT-6d"/>
      <use x="461.23046875" xlink:href="#ArialMT-6f"/>
      <use x="516.845703125" xlink:href="#ArialMT-72"/>
      <use x="550.146484375" xlink:href="#ArialMT-69"/>
      <use x="572.36328125" xlink:href="#ArialMT-6c"/>
      <use x="594.580078125" xlink:href="#ArialMT-6c"/>
      <use x="616.796875" xlink:href="#ArialMT-6f"/>
      <use x="672.412109375" xlink:href="#ArialMT-6e"/>
      <use x="728.02734375" xlink:href="#ArialMT-69"/>
      <use x="750.244140625" xlink:href="#ArialMT-74"/>
      <use x="778.02734375" xlink:href="#ArialMT-65"/>
     </g>
    </g>
    <g id="LineCollection_13">
     <path d="M 202.4 137.705 
L 218.4 137.705 
" style="fill:none;stroke:#c44e52;stroke-width:2.8;"/>
    </g>
    <g id="LineCollection_14">
     <path d="M 210.4 145.705 
L 210.4 129.705 
" style="fill:none;stroke:#c44e52;stroke-width:2.8;"/>
    </g>
    <g id="line2d_48">
     <g>
      <use style="fill:#c44e52;" x="202.4" xlink:href="#m4cdb8daf93" y="137.705"/>
     </g>
    </g>
    <g id="line2d_49">
     <g>
      <use style="fill:#c44e52;" x="218.4" xlink:href="#m4cdb8daf93" y="137.705"/>
     </g>
    </g>
    <g id="line2d_50">
     <g>
      <use style="fill:#c44e52;" x="210.4" xlink:href="#m9681882973" y="145.705"/>
     </g>
    </g>
    <g id="line2d_51">
     <g>
      <use style="fill:#c44e52;" x="210.4" xlink:href="#m9681882973" y="129.705"/>
     </g>
    </g>
    <g id="line2d_52"/>
    <g id="line2d_53">
     <g>
      <use style="fill:#c44e52;" x="210.4" xlink:href="#m233af81b41" y="137.705"/>
     </g>
    </g>
    <g id="text_21">
     <!-- Goethite -->
     <defs>
      <path d="M 41.21875 28.078125 
L 41.21875 36.46875 
L 71.53125 36.53125 
L 71.53125 9.96875 
Q 64.546875 4.390625 57.125 1.578125 
Q 49.703125 -1.21875 41.890625 -1.21875 
Q 31.34375 -1.21875 22.71875 3.296875 
Q 14.109375 7.8125 9.71875 16.359375 
Q 5.328125 24.90625 5.328125 35.453125 
Q 5.328125 45.90625 9.6875 54.953125 
Q 14.0625 64.015625 22.265625 68.40625 
Q 30.46875 72.796875 41.15625 72.796875 
Q 48.921875 72.796875 55.1875 70.28125 
Q 61.46875 67.78125 65.03125 63.28125 
Q 68.609375 58.796875 70.453125 51.5625 
L 61.921875 49.21875 
Q 60.296875 54.6875 57.90625 57.8125 
Q 55.515625 60.9375 51.0625 62.8125 
Q 46.625 64.703125 41.21875 64.703125 
Q 34.71875 64.703125 29.984375 62.71875 
Q 25.25 60.75 22.34375 57.515625 
Q 19.4375 54.296875 17.828125 50.4375 
Q 15.09375 43.796875 15.09375 36.03125 
Q 15.09375 26.46875 18.390625 20.015625 
Q 21.6875 13.578125 27.984375 10.453125 
Q 34.28125 7.328125 41.359375 7.328125 
Q 47.515625 7.328125 53.375 9.6875 
Q 59.234375 12.0625 62.25 14.75 
L 62.25 28.078125 
z
" id="ArialMT-47"/>
     </defs>
     <g style="fill:#262626;" transform="translate(239.2 143.305)scale(0.16 -0.16)">
      <use xlink:href="#ArialMT-47"/>
      <use x="77.783203125" xlink:href="#ArialMT-6f"/>
      <use x="133.3984375" xlink:href="#ArialMT-65"/>
      <use x="189.013671875" xlink:href="#ArialMT-74"/>
      <use x="216.796875" xlink:href="#ArialMT-68"/>
      <use x="272.412109375" xlink:href="#ArialMT-69"/>
      <use x="294.62890625" xlink:href="#ArialMT-74"/>
      <use x="322.412109375" xlink:href="#ArialMT-65"/>
     </g>
    </g>
    <g id="LineCollection_15">
     <path d="M 202.4 160.3375 
L 218.4 160.3375 
" style="fill:none;stroke:#8172b2;stroke-width:2.8;"/>
    </g>
    <g id="LineCollection_16">
     <path d="M 210.4 168.3375 
L 210.4 152.3375 
" style="fill:none;stroke:#8172b2;stroke-width:2.8;"/>
    </g>
    <g id="line2d_54">
     <g>
      <use style="fill:#8172b2;" x="202.4" xlink:href="#m31b6e005bc" y="160.3375"/>
     </g>
    </g>
    <g id="line2d_55">
     <g>
      <use style="fill:#8172b2;" x="218.4" xlink:href="#m31b6e005bc" y="160.3375"/>
     </g>
    </g>
    <g id="line2d_56">
     <g>
      <use style="fill:#8172b2;" x="210.4" xlink:href="#m5e34fb0a66" y="168.3375"/>
     </g>
    </g>
    <g id="line2d_57">
     <g>
      <use style="fill:#8172b2;" x="210.4" xlink:href="#m5e34fb0a66" y="152.3375"/>
     </g>
    </g>
    <g id="line2d_58"/>
    <g id="line2d_59">
     <g>
      <use style="fill:#8172b2;" x="210.4" xlink:href="#ma70edb47a9" y="160.3375"/>
     </g>
    </g>
    <g id="text_22">
     <!-- Pyrite -->
     <defs>
      <path d="M 7.71875 0 
L 7.71875 71.578125 
L 34.71875 71.578125 
Q 41.84375 71.578125 45.609375 70.90625 
Q 50.875 70.015625 54.4375 67.546875 
Q 58.015625 65.09375 60.1875 60.640625 
Q 62.359375 56.203125 62.359375 50.875 
Q 62.359375 41.75 56.546875 35.421875 
Q 50.734375 29.109375 35.546875 29.109375 
L 17.1875 29.109375 
L 17.1875 0 
z
M 17.1875 37.546875 
L 35.6875 37.546875 
Q 44.875 37.546875 48.734375 40.96875 
Q 52.59375 44.390625 52.59375 50.59375 
Q 52.59375 55.078125 50.3125 58.265625 
Q 48.046875 61.46875 44.34375 62.5 
Q 41.9375 63.140625 35.5 63.140625 
L 17.1875 63.140625 
z
" id="ArialMT-50"/>
     </defs>
     <g style="fill:#262626;" transform="translate(239.2 165.9375)scale(0.16 -0.16)">
      <use xlink:href="#ArialMT-50"/>
      <use x="66.69921875" xlink:href="#ArialMT-79"/>
      <use x="116.69921875" xlink:href="#ArialMT-72"/>
      <use x="150.0" xlink:href="#ArialMT-69"/>
      <use x="172.216796875" xlink:href="#ArialMT-74"/>
      <use x="200.0" xlink:href="#ArialMT-65"/>
     </g>
    </g>
   </g>
  </g>
 </g>
 <defs>
  <clipPath id="p023b8201be">
   <rect height="576.0" width="1116.0" x="180.0" y="72.0"/>
  </clipPath>
 </defs>
</svg>
