<?xml version="1.0" encoding="utf-8" standalone="no"?>
<!DOCTYPE svg PUBLIC "-//W3C//DTD SVG 1.1//EN"
  "http://www.w3.org/Graphics/SVG/1.1/DTD/svg11.dtd">
<!-- Created with matplotlib (http://matplotlib.org/) -->
<svg height="1008pt" version="1.1" viewBox="0 0 1152 1008" width="1152pt" xmlns="http://www.w3.org/2000/svg" xmlns:xlink="http://www.w3.org/1999/xlink">
 <defs>
  <style type="text/css">
*{stroke-linecap:butt;stroke-linejoin:round;}
  </style>
 </defs>
 <g id="figure_1">
  <g id="patch_1">
   <path d="M 0 1008 
L 1152 1008 
L 1152 0 
L 0 0 
z
" style="fill:#ffffff;"/>
  </g>
  <g id="axes_1">
   <g id="patch_2">
    <path d="M 144 897.12 
L 1036.8 897.12 
L 1036.8 120.96 
L 144 120.96 
z
" style="fill:#ffffff;"/>
   </g>
   <g id="matplotlib.axis_1">
    <g id="xtick_1">
     <g id="line2d_1">
      <defs>
       <path d="M 0 0 
L 0 6 
" id="m8f99b5312c" style="stroke:#262626;stroke-width:1.6;"/>
      </defs>
      <g>
       <use style="fill:#262626;stroke:#262626;stroke-width:1.6;" x="205.806577" xlink:href="#m8f99b5312c" y="897.12"/>
      </g>
     </g>
     <g id="text_1">
      <text style="fill:#262626;font-family:Arial;font-size:16px;font-style:normal;font-weight:400;text-anchor:middle;" transform="rotate(-0, 205.806577, 925.7725)" x="205.806577" y="925.7725">0.0</text>
     </g>
    </g>
    <g id="xtick_2">
     <g id="line2d_2">
      <g>
       <use style="fill:#262626;stroke:#262626;stroke-width:1.6;" x="363.888898" xlink:href="#m8f99b5312c" y="897.12"/>
      </g>
     </g>
     <g id="text_2">
      <text style="fill:#262626;font-family:Arial;font-size:16px;font-style:normal;font-weight:400;text-anchor:middle;" transform="rotate(-0, 363.888898, 925.7725)" x="363.888898" y="925.7725">0.2</text>
     </g>
    </g>
    <g id="xtick_3">
     <g id="line2d_3">
      <g>
       <use style="fill:#262626;stroke:#262626;stroke-width:1.6;" x="521.971219" xlink:href="#m8f99b5312c" y="897.12"/>
      </g>
     </g>
     <g id="text_3">
      <text style="fill:#262626;font-family:Arial;font-size:16px;font-style:normal;font-weight:400;text-anchor:middle;" transform="rotate(-0, 521.971219, 925.7725)" x="521.971219" y="925.7725">0.4</text>
     </g>
    </g>
    <g id="xtick_4">
     <g id="line2d_4">
      <g>
       <use style="fill:#262626;stroke:#262626;stroke-width:1.6;" x="680.05354" xlink:href="#m8f99b5312c" y="897.12"/>
      </g>
     </g>
     <g id="text_4">
      <text style="fill:#262626;font-family:Arial;font-size:16px;font-style:normal;font-weight:400;text-anchor:middle;" transform="rotate(-0, 680.05354, 925.7725)" x="680.05354" y="925.7725">0.6</text>
     </g>
    </g>
    <g id="xtick_5">
     <g id="line2d_5">
      <g>
       <use style="fill:#262626;stroke:#262626;stroke-width:1.6;" x="838.135861" xlink:href="#m8f99b5312c" y="897.12"/>
      </g>
     </g>
     <g id="text_5">
      <text style="fill:#262626;font-family:Arial;font-size:16px;font-style:normal;font-weight:400;text-anchor:middle;" transform="rotate(-0, 838.135861, 925.7725)" x="838.135861" y="925.7725">0.8</text>
     </g>
    </g>
    <g id="xtick_6">
     <g id="line2d_6">
      <g>
       <use style="fill:#262626;stroke:#262626;stroke-width:1.6;" x="996.218182" xlink:href="#m8f99b5312c" y="897.12"/>
      </g>
     </g>
     <g id="text_6">
      <text style="fill:#262626;font-family:Arial;font-size:16px;font-style:normal;font-weight:400;text-anchor:middle;" transform="rotate(-0, 996.218182, 925.7725)" x="996.218182" y="925.7725">1.0</text>
     </g>
    </g>
    <g id="text_7">
     <text style="fill:#262626;font-family:Arial;font-size:17.6px;font-style:normal;font-weight:400;text-anchor:middle;" transform="rotate(-0, 590.4, 946.76475)" x="590.4" y="946.76475">Fraction sorbed (simulation)</text>
    </g>
   </g>
   <g id="matplotlib.axis_2">
    <g id="ytick_1">
     <g id="line2d_7">
      <defs>
       <path d="M 0 0 
L -6 0 
" id="m97f3d6d0a5" style="stroke:#262626;stroke-width:1.6;"/>
      </defs>
      <g>
       <use style="fill:#262626;stroke:#262626;stroke-width:1.6;" x="144" xlink:href="#m97f3d6d0a5" y="861.84"/>
      </g>
     </g>
     <g id="text_8">
      <text style="fill:#262626;font-family:Arial;font-size:16px;font-style:normal;font-weight:400;text-anchor:end;" transform="rotate(-0, 126.8, 867.56625)" x="126.8" y="867.56625">0.0</text>
     </g>
    </g>
    <g id="ytick_2">
     <g id="line2d_8">
      <g>
       <use style="fill:#262626;stroke:#262626;stroke-width:1.6;" x="144" xlink:href="#m97f3d6d0a5" y="720.72"/>
      </g>
     </g>
     <g id="text_9">
      <text style="fill:#262626;font-family:Arial;font-size:16px;font-style:normal;font-weight:400;text-anchor:end;" transform="rotate(-0, 126.8, 726.44625)" x="126.8" y="726.44625">0.2</text>
     </g>
    </g>
    <g id="ytick_3">
     <g id="line2d_9">
      <g>
       <use style="fill:#262626;stroke:#262626;stroke-width:1.6;" x="144" xlink:href="#m97f3d6d0a5" y="579.6"/>
      </g>
     </g>
     <g id="text_10">
      <text style="fill:#262626;font-family:Arial;font-size:16px;font-style:normal;font-weight:400;text-anchor:end;" transform="rotate(-0, 126.8, 585.32625)" x="126.8" y="585.32625">0.4</text>
     </g>
    </g>
    <g id="ytick_4">
     <g id="line2d_10">
      <g>
       <use style="fill:#262626;stroke:#262626;stroke-width:1.6;" x="144" xlink:href="#m97f3d6d0a5" y="438.48"/>
      </g>
     </g>
     <g id="text_11">
      <text style="fill:#262626;font-family:Arial;font-size:16px;font-style:normal;font-weight:400;text-anchor:end;" transform="rotate(-0, 126.8, 444.20625)" x="126.8" y="444.20625">0.6</text>
     </g>
    </g>
    <g id="ytick_5">
     <g id="line2d_11">
      <g>
       <use style="fill:#262626;stroke:#262626;stroke-width:1.6;" x="144" xlink:href="#m97f3d6d0a5" y="297.36"/>
      </g>
     </g>
     <g id="text_12">
      <text style="fill:#262626;font-family:Arial;font-size:16px;font-style:normal;font-weight:400;text-anchor:end;" transform="rotate(-0, 126.8, 303.08625)" x="126.8" y="303.08625">0.8</text>
     </g>
    </g>
    <g id="ytick_6">
     <g id="line2d_12">
      <g>
       <use style="fill:#262626;stroke:#262626;stroke-width:1.6;" x="144" xlink:href="#m97f3d6d0a5" y="156.24"/>
      </g>
     </g>
     <g id="text_13">
      <text style="fill:#262626;font-family:Arial;font-size:16px;font-style:normal;font-weight:400;text-anchor:end;" transform="rotate(-0, 126.8, 161.96625)" x="126.8" y="161.96625">1.0</text>
     </g>
    </g>
    <g id="text_14">
     <text style="fill:#262626;font-family:Arial;font-size:17.6px;font-style:normal;font-weight:400;text-anchor:middle;" transform="rotate(-90, 95.85575, 509.04)" x="95.85575" y="509.04">Fraction sorbed (experimental)</text>
    </g>
   </g>
   <g id="LineCollection_1">
    <path clip-path="url(#p4f6ccd8c3b)" d="M 674.423191 490.478384 
L 674.423191 450.23116 
" style="fill:none;stroke:#d2372d;stroke-width:5;"/>
   </g>
   <g id="LineCollection_2">
    <path clip-path="url(#p4f6ccd8c3b)" d="M 674.369368 540.998516 
L 674.369368 489.889803 
" style="fill:none;stroke:#d2b32d;stroke-width:5;"/>
   </g>
   <g id="LineCollection_3">
    <path clip-path="url(#p4f6ccd8c3b)" d="M 590.125479 630.439599 
L 590.125479 612.902476 
" style="fill:none;stroke:#76d22d;stroke-width:5;"/>
   </g>
   <g id="LineCollection_4">
    <path clip-path="url(#p4f6ccd8c3b)" d="M 361.233108 709.973137 
L 361.233108 687.070821 
" style="fill:none;stroke:#2dd260;stroke-width:5;"/>
   </g>
   <g id="LineCollection_5">
    <path clip-path="url(#p4f6ccd8c3b)" d="M 359.272907 709.509947 
L 359.272907 673.507704 
" style="fill:none;stroke:#2dc8d2;stroke-width:5;"/>
   </g>
   <g id="LineCollection_6">
    <path clip-path="url(#p4f6ccd8c3b)" d="M 416.006933 561.116874 
L 416.006933 513.554211 
" style="fill:none;stroke:#2d4cd2;stroke-width:5;"/>
   </g>
   <g id="LineCollection_7">
    <path clip-path="url(#p4f6ccd8c3b)" d="M 266.813545 629.546791 
L 266.813545 616.969462 
" style="fill:none;stroke:#892dd2;stroke-width:5;"/>
   </g>
   <g id="LineCollection_8">
    <path clip-path="url(#p4f6ccd8c3b)" d="M 184.581818 860.345211 
L 184.581818 844.381203 
" style="fill:none;stroke:#d22d9f;stroke-width:5;"/>
   </g>
   <g id="line2d_13">
    <defs>
     <path d="M 10 0 
L -10 -0 
" id="m2771136c23" style="stroke:#d2372d;stroke-width:5;"/>
    </defs>
    <g clip-path="url(#p4f6ccd8c3b)">
     <use style="fill:#d2372d;stroke:#d2372d;stroke-width:5;" x="674.423191" xlink:href="#m2771136c23" y="490.478384"/>
    </g>
   </g>
   <g id="line2d_14">
    <g clip-path="url(#p4f6ccd8c3b)">
     <use style="fill:#d2372d;stroke:#d2372d;stroke-width:5;" x="674.423191" xlink:href="#m2771136c23" y="450.23116"/>
    </g>
   </g>
   <g id="line2d_15">
    <defs>
     <path d="M 10 0 
L -10 -0 
" id="m16755844e7" style="stroke:#d2b32d;stroke-width:5;"/>
    </defs>
    <g clip-path="url(#p4f6ccd8c3b)">
     <use style="fill:#d2b32d;stroke:#d2b32d;stroke-width:5;" x="674.369368" xlink:href="#m16755844e7" y="540.998516"/>
    </g>
   </g>
   <g id="line2d_16">
    <g clip-path="url(#p4f6ccd8c3b)">
     <use style="fill:#d2b32d;stroke:#d2b32d;stroke-width:5;" x="674.369368" xlink:href="#m16755844e7" y="489.889803"/>
    </g>
   </g>
   <g id="line2d_17">
    <defs>
     <path d="M 10 0 
L -10 -0 
" id="me51e8fabc3" style="stroke:#76d22d;stroke-width:5;"/>
    </defs>
    <g clip-path="url(#p4f6ccd8c3b)">
     <use style="fill:#76d22d;stroke:#76d22d;stroke-width:5;" x="590.125479" xlink:href="#me51e8fabc3" y="630.439599"/>
    </g>
   </g>
   <g id="line2d_18">
    <g clip-path="url(#p4f6ccd8c3b)">
     <use style="fill:#76d22d;stroke:#76d22d;stroke-width:5;" x="590.125479" xlink:href="#me51e8fabc3" y="612.902476"/>
    </g>
   </g>
   <g id="line2d_19">
    <defs>
     <path d="M 10 0 
L -10 -0 
" id="mbb571d83cd" style="stroke:#2dd260;stroke-width:5;"/>
    </defs>
    <g clip-path="url(#p4f6ccd8c3b)">
     <use style="fill:#2dd260;stroke:#2dd260;stroke-width:5;" x="361.233108" xlink:href="#mbb571d83cd" y="709.973137"/>
    </g>
   </g>
   <g id="line2d_20">
    <g clip-path="url(#p4f6ccd8c3b)">
     <use style="fill:#2dd260;stroke:#2dd260;stroke-width:5;" x="361.233108" xlink:href="#mbb571d83cd" y="687.070821"/>
    </g>
   </g>
   <g id="line2d_21">
    <defs>
     <path d="M 10 0 
L -10 -0 
" id="mffee2cb59c" style="stroke:#2dc8d2;stroke-width:5;"/>
    </defs>
    <g clip-path="url(#p4f6ccd8c3b)">
     <use style="fill:#2dc8d2;stroke:#2dc8d2;stroke-width:5;" x="359.272907" xlink:href="#mffee2cb59c" y="709.509947"/>
    </g>
   </g>
   <g id="line2d_22">
    <g clip-path="url(#p4f6ccd8c3b)">
     <use style="fill:#2dc8d2;stroke:#2dc8d2;stroke-width:5;" x="359.272907" xlink:href="#mffee2cb59c" y="673.507704"/>
    </g>
   </g>
   <g id="line2d_23">
    <defs>
     <path d="M 10 0 
L -10 -0 
" id="mb438464ccf" style="stroke:#2d4cd2;stroke-width:5;"/>
    </defs>
    <g clip-path="url(#p4f6ccd8c3b)">
     <use style="fill:#2d4cd2;stroke:#2d4cd2;stroke-width:5;" x="416.006933" xlink:href="#mb438464ccf" y="561.116874"/>
    </g>
   </g>
   <g id="line2d_24">
    <g clip-path="url(#p4f6ccd8c3b)">
     <use style="fill:#2d4cd2;stroke:#2d4cd2;stroke-width:5;" x="416.006933" xlink:href="#mb438464ccf" y="513.554211"/>
    </g>
   </g>
   <g id="line2d_25">
    <defs>
     <path d="M 10 0 
L -10 -0 
" id="mbc9b87c07a" style="stroke:#892dd2;stroke-width:5;"/>
    </defs>
    <g clip-path="url(#p4f6ccd8c3b)">
     <use style="fill:#892dd2;stroke:#892dd2;stroke-width:5;" x="266.813545" xlink:href="#mbc9b87c07a" y="629.546791"/>
    </g>
   </g>
   <g id="line2d_26">
    <g clip-path="url(#p4f6ccd8c3b)">
     <use style="fill:#892dd2;stroke:#892dd2;stroke-width:5;" x="266.813545" xlink:href="#mbc9b87c07a" y="616.969462"/>
    </g>
   </g>
   <g id="line2d_27">
    <defs>
     <path d="M 10 0 
L -10 -0 
" id="m9759f75f64" style="stroke:#d22d9f;stroke-width:5;"/>
    </defs>
    <g clip-path="url(#p4f6ccd8c3b)">
     <use style="fill:#d22d9f;stroke:#d22d9f;stroke-width:5;" x="184.581818" xlink:href="#m9759f75f64" y="860.345211"/>
    </g>
   </g>
   <g id="line2d_28">
    <g clip-path="url(#p4f6ccd8c3b)">
     <use style="fill:#d22d9f;stroke:#d22d9f;stroke-width:5;" x="184.581818" xlink:href="#m9759f75f64" y="844.381203"/>
    </g>
   </g>
   <g id="line2d_29">
    <path clip-path="url(#p4f6ccd8c3b)" d="M 205.806577 861.84 
L 996.218182 156.24 
" style="fill:none;stroke:#000000;stroke-linecap:round;stroke-width:5;"/>
   </g>
   <g id="line2d_30">
    <defs>
     <path d="M 0 8.75 
C 2.320527 8.75 4.546324 7.828045 6.187184 6.187184 
C 7.828045 4.546324 8.75 2.320527 8.75 0 
C 8.75 -2.320527 7.828045 -4.546324 6.187184 -6.187184 
C 4.546324 -7.828045 2.320527 -8.75 0 -8.75 
C -2.320527 -8.75 -4.546324 -7.828045 -6.187184 -6.187184 
C -7.828045 -4.546324 -8.75 -2.320527 -8.75 0 
C -8.75 2.320527 -7.828045 4.546324 -6.187184 6.187184 
C -4.546324 7.828045 -2.320527 8.75 0 8.75 
z
" id="m9e24176077" style="stroke:#d2372d;stroke-width:5;"/>
    </defs>
    <g clip-path="url(#p4f6ccd8c3b)">
     <use style="fill:#d2372d;stroke:#d2372d;stroke-width:5;" x="674.423191" xlink:href="#m9e24176077" y="470.354772"/>
    </g>
   </g>
   <g id="line2d_31">
    <defs>
     <path d="M 0 8.75 
C 2.320527 8.75 4.546324 7.828045 6.187184 6.187184 
C 7.828045 4.546324 8.75 2.320527 8.75 0 
C 8.75 -2.320527 7.828045 -4.546324 6.187184 -6.187184 
C 4.546324 -7.828045 2.320527 -8.75 0 -8.75 
C -2.320527 -8.75 -4.546324 -7.828045 -6.187184 -6.187184 
C -7.828045 -4.546324 -8.75 -2.320527 -8.75 0 
C -8.75 2.320527 -7.828045 4.546324 -6.187184 6.187184 
C -4.546324 7.828045 -2.320527 8.75 0 8.75 
z
" id="ma9996865a1" style="stroke:#d2b32d;stroke-width:5;"/>
    </defs>
    <g clip-path="url(#p4f6ccd8c3b)">
     <use style="fill:#d2b32d;stroke:#d2b32d;stroke-width:5;" x="674.369368" xlink:href="#ma9996865a1" y="515.44416"/>
    </g>
   </g>
   <g id="line2d_32">
    <defs>
     <path d="M 0 8.75 
C 2.320527 8.75 4.546324 7.828045 6.187184 6.187184 
C 7.828045 4.546324 8.75 2.320527 8.75 0 
C 8.75 -2.320527 7.828045 -4.546324 6.187184 -6.187184 
C 4.546324 -7.828045 2.320527 -8.75 0 -8.75 
C -2.320527 -8.75 -4.546324 -7.828045 -6.187184 -6.187184 
C -7.828045 -4.546324 -8.75 -2.320527 -8.75 0 
C -8.75 2.320527 -7.828045 4.546324 -6.187184 6.187184 
C -4.546324 7.828045 -2.320527 8.75 0 8.75 
z
" id="mfb53de3a45" style="stroke:#76d22d;stroke-width:5;"/>
    </defs>
    <g clip-path="url(#p4f6ccd8c3b)">
     <use style="fill:#76d22d;stroke:#76d22d;stroke-width:5;" x="590.125479" xlink:href="#mfb53de3a45" y="621.671037"/>
    </g>
   </g>
   <g id="line2d_33">
    <defs>
     <path d="M 0 8.75 
C 2.320527 8.75 4.546324 7.828045 6.187184 6.187184 
C 7.828045 4.546324 8.75 2.320527 8.75 0 
C 8.75 -2.320527 7.828045 -4.546324 6.187184 -6.187184 
C 4.546324 -7.828045 2.320527 -8.75 0 -8.75 
C -2.320527 -8.75 -4.546324 -7.828045 -6.187184 -6.187184 
C -7.828045 -4.546324 -8.75 -2.320527 -8.75 0 
C -8.75 2.320527 -7.828045 4.546324 -6.187184 6.187184 
C -4.546324 7.828045 -2.320527 8.75 0 8.75 
z
" id="m3b484f5d41" style="stroke:#2dd260;stroke-width:5;"/>
    </defs>
    <g clip-path="url(#p4f6ccd8c3b)">
     <use style="fill:#2dd260;stroke:#2dd260;stroke-width:5;" x="361.233108" xlink:href="#m3b484f5d41" y="698.521979"/>
    </g>
   </g>
   <g id="line2d_34">
    <defs>
     <path d="M 0 8.75 
C 2.320527 8.75 4.546324 7.828045 6.187184 6.187184 
C 7.828045 4.546324 8.75 2.320527 8.75 0 
C 8.75 -2.320527 7.828045 -4.546324 6.187184 -6.187184 
C 4.546324 -7.828045 2.320527 -8.75 0 -8.75 
C -2.320527 -8.75 -4.546324 -7.828045 -6.187184 -6.187184 
C -7.828045 -4.546324 -8.75 -2.320527 -8.75 0 
C -8.75 2.320527 -7.828045 4.546324 -6.187184 6.187184 
C -4.546324 7.828045 -2.320527 8.75 0 8.75 
z
" id="m9bcb63a8f3" style="stroke:#2dc8d2;stroke-width:5;"/>
    </defs>
    <g clip-path="url(#p4f6ccd8c3b)">
     <use style="fill:#2dc8d2;stroke:#2dc8d2;stroke-width:5;" x="359.272907" xlink:href="#m9bcb63a8f3" y="691.508826"/>
    </g>
   </g>
   <g id="line2d_35">
    <defs>
     <path d="M 0 8.75 
C 2.320527 8.75 4.546324 7.828045 6.187184 6.187184 
C 7.828045 4.546324 8.75 2.320527 8.75 0 
C 8.75 -2.320527 7.828045 -4.546324 6.187184 -6.187184 
C 4.546324 -7.828045 2.320527 -8.75 0 -8.75 
C -2.320527 -8.75 -4.546324 -7.828045 -6.187184 -6.187184 
C -7.828045 -4.546324 -8.75 -2.320527 -8.75 0 
C -8.75 2.320527 -7.828045 4.546324 -6.187184 6.187184 
C -4.546324 7.828045 -2.320527 8.75 0 8.75 
z
" id="mb9408a08d9" style="stroke:#2d4cd2;stroke-width:5;"/>
    </defs>
    <g clip-path="url(#p4f6ccd8c3b)">
     <use style="fill:#2d4cd2;stroke:#2d4cd2;stroke-width:5;" x="416.006933" xlink:href="#mb9408a08d9" y="537.335543"/>
    </g>
   </g>
   <g id="line2d_36">
    <defs>
     <path d="M 0 8.75 
C 2.320527 8.75 4.546324 7.828045 6.187184 6.187184 
C 7.828045 4.546324 8.75 2.320527 8.75 0 
C 8.75 -2.320527 7.828045 -4.546324 6.187184 -6.187184 
C 4.546324 -7.828045 2.320527 -8.75 0 -8.75 
C -2.320527 -8.75 -4.546324 -7.828045 -6.187184 -6.187184 
C -7.828045 -4.546324 -8.75 -2.320527 -8.75 0 
C -8.75 2.320527 -7.828045 4.546324 -6.187184 6.187184 
C -4.546324 7.828045 -2.320527 8.75 0 8.75 
z
" id="m43497af1a4" style="stroke:#892dd2;stroke-width:5;"/>
    </defs>
    <g clip-path="url(#p4f6ccd8c3b)">
     <use style="fill:#892dd2;stroke:#892dd2;stroke-width:5;" x="266.813545" xlink:href="#m43497af1a4" y="623.258126"/>
    </g>
   </g>
   <g id="line2d_37">
    <defs>
     <path d="M 0 8.75 
C 2.320527 8.75 4.546324 7.828045 6.187184 6.187184 
C 7.828045 4.546324 8.75 2.320527 8.75 0 
C 8.75 -2.320527 7.828045 -4.546324 6.187184 -6.187184 
C 4.546324 -7.828045 2.320527 -8.75 0 -8.75 
C -2.320527 -8.75 -4.546324 -7.828045 -6.187184 -6.187184 
C -7.828045 -4.546324 -8.75 -2.320527 -8.75 0 
C -8.75 2.320527 -7.828045 4.546324 -6.187184 6.187184 
C -4.546324 7.828045 -2.320527 8.75 0 8.75 
z
" id="mf6511b900e" style="stroke:#d22d9f;stroke-width:5;"/>
    </defs>
    <g clip-path="url(#p4f6ccd8c3b)">
     <use style="fill:#d22d9f;stroke:#d22d9f;stroke-width:5;" x="184.581818" xlink:href="#mf6511b900e" y="852.363207"/>
    </g>
   </g>
   <g id="patch_3">
    <path d="M 144 897.12 
L 144 120.96 
" style="fill:none;stroke:#262626;stroke-linecap:square;stroke-linejoin:miter;stroke-width:1.25;"/>
   </g>
   <g id="patch_4">
    <path d="M 1036.8 897.12 
L 1036.8 120.96 
" style="fill:none;stroke:#262626;stroke-linecap:square;stroke-linejoin:miter;stroke-width:1.25;"/>
   </g>
   <g id="patch_5">
    <path d="M 144 897.12 
L 1036.8 897.12 
" style="fill:none;stroke:#262626;stroke-linecap:square;stroke-linejoin:miter;stroke-width:1.25;"/>
   </g>
   <g id="patch_6">
    <path d="M 144 120.96 
L 1036.8 120.96 
" style="fill:none;stroke:#262626;stroke-linecap:square;stroke-linejoin:miter;stroke-width:1.25;"/>
   </g>
   <g id="text_15">
    <text style="fill:#262626;font-family:Arial;font-size:19.2px;font-style:normal;font-weight:400;" transform="translate(759.0947 770.9724)">RMSE: 0.1613846405878786 </text>
    <text style="fill:#262626;font-family:Arial;font-size:19.2px;font-style:normal;font-weight:400;" transform="translate(759.0947 791.28)">K1: 5.7, K2:-11.0</text>
   </g>
   <g id="text_16">
    <text style="fill:#262626;font-family:Arial;font-size:19.2px;font-style:normal;font-weight:400;text-anchor:middle;" transform="rotate(-0, 590.4, 114.96)" x="590.4" y="114.96">Best fitted error over all conditions</text>
   </g>
   <g id="legend_1">
    <g id="line2d_38"/>
    <g id="line2d_39">
     <g>
      <use style="fill:#d2372d;stroke:#d2372d;stroke-width:5;" x="174.4" xlink:href="#m9e24176077" y="141.2125"/>
     </g>
    </g>
    <g id="text_17">
     <text style="fill:#262626;font-family:Arial;font-size:16px;font-style:normal;font-weight:400;text-anchor:start;" transform="rotate(-0, 203.2, 146.8125)" x="203.2" y="146.8125">NaCl</text>
    </g>
    <g id="line2d_40"/>
    <g id="line2d_41">
     <g>
      <use style="fill:#d2b32d;stroke:#d2b32d;stroke-width:5;" x="174.4" xlink:href="#ma9996865a1" y="163.845"/>
     </g>
    </g>
    <g id="text_18">
     <text style="fill:#262626;font-family:Arial;font-size:16px;font-style:normal;font-weight:400;text-anchor:start;" transform="rotate(-0, 203.2, 169.445)" x="203.2" y="169.445">KCl</text>
    </g>
    <g id="line2d_42"/>
    <g id="line2d_43">
     <g>
      <use style="fill:#76d22d;stroke:#76d22d;stroke-width:5;" x="174.4" xlink:href="#mfb53de3a45" y="186.6725"/>
     </g>
    </g>
    <g id="text_19">
     <text style="fill:#262626;font-family:Arial;font-size:16px;font-style:normal;font-weight:400;text-anchor:start;" transform="rotate(-0, 203.2, 192.2725)" x="203.2" y="192.2725">MgCl2</text>
    </g>
    <g id="line2d_44"/>
    <g id="line2d_45">
     <g>
      <use style="fill:#2dd260;stroke:#2dd260;stroke-width:5;" x="174.4" xlink:href="#m3b484f5d41" y="209.4925"/>
     </g>
    </g>
    <g id="text_20">
     <text style="fill:#262626;font-family:Arial;font-size:16px;font-style:normal;font-weight:400;text-anchor:start;" transform="rotate(-0, 203.2, 215.0925)" x="203.2" y="215.0925">CaCl2</text>
    </g>
    <g id="line2d_46"/>
    <g id="line2d_47">
     <g>
      <use style="fill:#2dc8d2;stroke:#2dc8d2;stroke-width:5;" x="174.4" xlink:href="#m9bcb63a8f3" y="232.125"/>
     </g>
    </g>
    <g id="text_21">
     <text style="fill:#262626;font-family:Arial;font-size:16px;font-style:normal;font-weight:400;text-anchor:start;" transform="rotate(-0, 203.2, 237.725)" x="203.2" y="237.725">SrCl2</text>
    </g>
    <g id="line2d_48"/>
    <g id="line2d_49">
     <g>
      <use style="fill:#2d4cd2;stroke:#2d4cd2;stroke-width:5;" x="174.4" xlink:href="#mb9408a08d9" y="254.7575"/>
     </g>
    </g>
    <g id="text_22">
     <text style="fill:#262626;font-family:Arial;font-size:16px;font-style:normal;font-weight:400;text-anchor:start;" transform="rotate(-0, 203.2, 260.3575)" x="203.2" y="260.3575">AGW</text>
    </g>
    <g id="line2d_50"/>
    <g id="line2d_51">
     <g>
      <use style="fill:#892dd2;stroke:#892dd2;stroke-width:5;" x="174.4" xlink:href="#m43497af1a4" y="277.39"/>
     </g>
    </g>
    <g id="text_23">
     <text style="fill:#262626;font-family:Arial;font-size:16px;font-style:normal;font-weight:400;text-anchor:start;" transform="rotate(-0, 203.2, 282.99)" x="203.2" y="282.99">ABW</text>
    </g>
    <g id="line2d_52"/>
    <g id="line2d_53">
     <g>
      <use style="fill:#d22d9f;stroke:#d22d9f;stroke-width:5;" x="174.4" xlink:href="#mf6511b900e" y="300.0225"/>
     </g>
    </g>
    <g id="text_24">
     <text style="fill:#262626;font-family:Arial;font-size:16px;font-style:normal;font-weight:400;text-anchor:start;" transform="rotate(-0, 203.2, 305.6225)" x="203.2" y="305.6225">ASW</text>
    </g>
   </g>
  </g>
 </g>
 <defs>
  <clipPath id="p4f6ccd8c3b">
   <rect height="776.16" width="892.8" x="144" y="120.96"/>
  </clipPath>
 </defs>
</svg>
